# metres; Y up; CCW outward; repeat 0.6 m
mtllib sleeper.mtl
v -1.250000 -0.034578 -0.105000
v -1.220000 -0.034578 -0.105000
v -1.220000 -0.034578 0.105000
v -1.250000 -0.034578 0.105000
v -1.250000 0.065422 0.096000
v -1.250000 -0.034578 0.105000
v -1.220000 -0.034578 0.105000
v -1.220000 -0.034578 0.105000
v -1.220000 0.066547 0.096000
v -1.250000 0.065422 0.096000
v -1.250000 0.065422 0.096000
v -1.220000 0.066547 0.096000
v -1.220000 0.074547 0.086000
v -1.250000 0.073422 0.086000
v -1.250000 0.073422 0.086000
v -1.220000 0.074547 0.086000
v -1.220000 0.074547 -0.086000
v -1.250000 0.073422 -0.086000
v -1.250000 0.073422 -0.086000
v -1.220000 0.074547 -0.086000
v -1.220000 0.066547 -0.096000
v -1.250000 0.065422 -0.096000
v -1.250000 -0.034578 -0.105000
v -1.250000 0.065422 -0.096000
v -1.220000 0.066547 -0.096000
v -1.220000 0.066547 -0.096000
v -1.220000 -0.034578 -0.105000
v -1.250000 -0.034578 -0.105000
v -1.220000 -0.034578 -0.105000
v -1.200000 -0.034578 -0.120000
v -1.200000 -0.034578 0.120000
v -1.220000 -0.034578 0.105000
v -1.220000 0.066547 0.096000
v -1.220000 -0.034578 0.105000
v -1.200000 -0.034578 0.120000
v -1.200000 -0.034578 0.120000
v -1.200000 0.067297 0.111000
v -1.220000 0.066547 0.096000
v -1.220000 0.066547 0.096000
v -1.200000 0.067297 0.111000
v -1.200000 0.075297 0.101000
v -1.220000 0.074547 0.086000
v -1.220000 0.074547 0.086000
v -1.200000 0.075297 0.101000
v -1.200000 0.075297 -0.101000
v -1.220000 0.074547 -0.086000
v -1.220000 0.074547 -0.086000
v -1.200000 0.075297 -0.101000
v -1.200000 0.067297 -0.111000
v -1.220000 0.066547 -0.096000
v -1.220000 -0.034578 -0.105000
v -1.220000 0.066547 -0.096000
v -1.200000 0.067297 -0.111000
v -1.200000 0.067297 -0.111000
v -1.200000 -0.034578 -0.120000
v -1.220000 -0.034578 -0.105000
v -1.200000 -0.034578 -0.120000
v -0.930000 -0.034578 -0.120000
v -0.930000 -0.034578 0.120000
v -1.200000 -0.034578 0.120000
v -1.200000 0.067297 0.111000
v -1.200000 -0.034578 0.120000
v -0.930000 -0.034578 0.120000
v -0.930000 -0.034578 0.120000
v -0.930000 0.077422 0.111000
v -1.200000 0.067297 0.111000
v -1.200000 0.067297 0.111000
v -0.930000 0.077422 0.111000
v -0.930000 0.085422 0.101000
v -1.200000 0.075297 0.101000
v -1.200000 0.075297 0.101000
v -0.930000 0.085422 0.101000
v -0.930000 0.085422 -0.101000
v -1.200000 0.075297 -0.101000
v -1.200000 0.075297 -0.101000
v -0.930000 0.085422 -0.101000
v -0.930000 0.077422 -0.111000
v -1.200000 0.067297 -0.111000
v -1.200000 -0.034578 -0.120000
v -1.200000 0.067297 -0.111000
v -0.930000 0.077422 -0.111000
v -0.930000 0.077422 -0.111000
v -0.930000 -0.034578 -0.120000
v -1.200000 -0.034578 -0.120000
v -0.930000 -0.034578 -0.120000
v -0.751500 -0.034578 -0.120000
v -0.751500 -0.034578 0.120000
v -0.930000 -0.034578 0.120000
v -0.930000 -0.034578 0.120000
v -0.751500 -0.034578 0.120000
v -0.751500 0.077422 0.111000
v -0.930000 0.077422 0.111000
v -0.930000 0.077422 0.111000
v -0.751500 0.077422 0.111000
v -0.751500 0.085422 0.101000
v -0.930000 0.085422 0.101000
v -0.930000 0.085422 0.101000
v -0.751500 0.085422 0.101000
v -0.751500 0.085422 -0.101000
v -0.930000 0.085422 -0.101000
v -0.930000 0.085422 -0.101000
v -0.751500 0.085422 -0.101000
v -0.751500 0.077422 -0.111000
v -0.930000 0.077422 -0.111000
v -0.930000 0.077422 -0.111000
v -0.751500 0.077422 -0.111000
v -0.751500 -0.034578 -0.120000
v -0.930000 -0.034578 -0.120000
v -0.751500 -0.034578 -0.120000
v -0.600000 -0.034578 -0.120000
v -0.600000 -0.034578 0.120000
v -0.751500 -0.034578 0.120000
v -0.751500 -0.034578 0.120000
v -0.600000 -0.034578 0.120000
v -0.600000 0.077422 0.111000
v -0.751500 0.077422 0.111000
v -0.751500 0.077422 0.111000
v -0.600000 0.077422 0.111000
v -0.600000 0.085422 0.101000
v -0.751500 0.085422 0.101000
v -0.751500 0.085422 0.101000
v -0.600000 0.085422 0.101000
v -0.600000 0.085422 -0.101000
v -0.751500 0.085422 -0.101000
v -0.751500 0.085422 -0.101000
v -0.600000 0.085422 -0.101000
v -0.600000 0.077422 -0.111000
v -0.751500 0.077422 -0.111000
v -0.751500 0.077422 -0.111000
v -0.600000 0.077422 -0.111000
v -0.600000 -0.034578 -0.120000
v -0.751500 -0.034578 -0.120000
v -0.600000 -0.034578 -0.120000
v -0.530000 -0.034578 -0.120000
v -0.530000 -0.034578 0.120000
v -0.600000 -0.034578 0.120000
v -0.600000 -0.034578 0.120000
v -0.530000 -0.034578 0.120000
v -0.530000 0.077422 0.111000
v -0.600000 0.077422 0.111000
v -0.600000 0.077422 0.111000
v -0.530000 0.077422 0.111000
v -0.530000 0.085422 0.101000
v -0.600000 0.085422 0.101000
v -0.600000 0.085422 0.101000
v -0.530000 0.085422 0.101000
v -0.530000 0.085422 -0.101000
v -0.600000 0.085422 -0.101000
v -0.600000 0.085422 -0.101000
v -0.530000 0.085422 -0.101000
v -0.530000 0.077422 -0.111000
v -0.600000 0.077422 -0.111000
v -0.600000 0.077422 -0.111000
v -0.530000 0.077422 -0.111000
v -0.530000 -0.034578 -0.120000
v -0.600000 -0.034578 -0.120000
v -0.530000 -0.034578 -0.120000
v -0.400000 -0.034578 -0.120000
v -0.400000 -0.034578 0.120000
v -0.530000 -0.034578 0.120000
v -0.530000 0.077422 0.111000
v -0.530000 -0.034578 0.120000
v -0.400000 -0.034578 0.120000
v -0.400000 -0.034578 0.120000
v -0.400000 0.072463 0.111000
v -0.530000 0.077422 0.111000
v -0.530000 0.077422 0.111000
v -0.400000 0.072463 0.111000
v -0.400000 0.080463 0.101000
v -0.530000 0.085422 0.101000
v -0.530000 0.085422 0.101000
v -0.400000 0.080463 0.101000
v -0.400000 0.080463 -0.101000
v -0.530000 0.085422 -0.101000
v -0.530000 0.085422 -0.101000
v -0.400000 0.080463 -0.101000
v -0.400000 0.072463 -0.111000
v -0.530000 0.077422 -0.111000
v -0.530000 -0.034578 -0.120000
v -0.530000 0.077422 -0.111000
v -0.400000 0.072463 -0.111000
v -0.400000 0.072463 -0.111000
v -0.400000 -0.034578 -0.120000
v -0.530000 -0.034578 -0.120000
v -0.400000 -0.034578 -0.120000
v -0.270000 -0.034578 -0.120000
v -0.270000 -0.034578 0.120000
v -0.400000 -0.034578 0.120000
v -0.400000 0.072463 0.111000
v -0.400000 -0.034578 0.120000
v -0.270000 -0.034578 0.120000
v -0.270000 -0.034578 0.120000
v -0.270000 0.060387 0.111000
v -0.400000 0.072463 0.111000
v -0.400000 0.072463 0.111000
v -0.270000 0.060387 0.111000
v -0.270000 0.068387 0.101000
v -0.400000 0.080463 0.101000
v -0.400000 0.080463 0.101000
v -0.270000 0.068387 0.101000
v -0.270000 0.068387 -0.101000
v -0.400000 0.080463 -0.101000
v -0.400000 0.080463 -0.101000
v -0.270000 0.068387 -0.101000
v -0.270000 0.060387 -0.111000
v -0.400000 0.072463 -0.111000
v -0.400000 -0.034578 -0.120000
v -0.400000 0.072463 -0.111000
v -0.270000 0.060387 -0.111000
v -0.270000 0.060387 -0.111000
v -0.270000 -0.034578 -0.120000
v -0.400000 -0.034578 -0.120000
v -0.270000 -0.034578 -0.120000
v -0.130000 -0.034578 -0.120000
v -0.130000 -0.034578 0.120000
v -0.270000 -0.034578 0.120000
v -0.270000 0.060387 0.111000
v -0.270000 -0.034578 0.120000
v -0.130000 -0.034578 0.120000
v -0.130000 -0.034578 0.120000
v -0.130000 0.047270 0.111000
v -0.270000 0.060387 0.111000
v -0.270000 0.060387 0.111000
v -0.130000 0.047270 0.111000
v -0.130000 0.055270 0.101000
v -0.270000 0.068387 0.101000
v -0.270000 0.068387 0.101000
v -0.130000 0.055270 0.101000
v -0.130000 0.055270 -0.101000
v -0.270000 0.068387 -0.101000
v -0.270000 0.068387 -0.101000
v -0.130000 0.055270 -0.101000
v -0.130000 0.047270 -0.111000
v -0.270000 0.060387 -0.111000
v -0.270000 -0.034578 -0.120000
v -0.270000 0.060387 -0.111000
v -0.130000 0.047270 -0.111000
v -0.130000 0.047270 -0.111000
v -0.130000 -0.034578 -0.120000
v -0.270000 -0.034578 -0.120000
v -0.130000 -0.034578 -0.120000
v 0.000000 -0.034578 -0.120000
v 0.000000 -0.034578 0.120000
v -0.130000 -0.034578 0.120000
v -0.130000 0.047270 0.111000
v -0.130000 -0.034578 0.120000
v 0.000000 -0.034578 0.120000
v 0.000000 -0.034578 0.120000
v 0.000000 0.042311 0.111000
v -0.130000 0.047270 0.111000
v -0.130000 0.047270 0.111000
v 0.000000 0.042311 0.111000
v 0.000000 0.050311 0.101000
v -0.130000 0.055270 0.101000
v -0.130000 0.055270 0.101000
v 0.000000 0.050311 0.101000
v 0.000000 0.050311 -0.101000
v -0.130000 0.055270 -0.101000
v -0.130000 0.055270 -0.101000
v 0.000000 0.050311 -0.101000
v 0.000000 0.042311 -0.111000
v -0.130000 0.047270 -0.111000
v -0.130000 -0.034578 -0.120000
v -0.130000 0.047270 -0.111000
v 0.000000 0.042311 -0.111000
v 0.000000 0.042311 -0.111000
v 0.000000 -0.034578 -0.120000
v -0.130000 -0.034578 -0.120000
v 0.000000 -0.034578 -0.120000
v 0.130000 -0.034578 -0.120000
v 0.130000 -0.034578 0.120000
v 0.000000 -0.034578 0.120000
v 0.000000 0.042311 0.111000
v 0.000000 -0.034578 0.120000
v 0.130000 -0.034578 0.120000
v 0.130000 -0.034578 0.120000
v 0.130000 0.047270 0.111000
v 0.000000 0.042311 0.111000
v 0.000000 0.042311 0.111000
v 0.130000 0.047270 0.111000
v 0.130000 0.055270 0.101000
v 0.000000 0.050311 0.101000
v 0.000000 0.050311 0.101000
v 0.130000 0.055270 0.101000
v 0.130000 0.055270 -0.101000
v 0.000000 0.050311 -0.101000
v 0.000000 0.050311 -0.101000
v 0.130000 0.055270 -0.101000
v 0.130000 0.047270 -0.111000
v 0.000000 0.042311 -0.111000
v 0.000000 -0.034578 -0.120000
v 0.000000 0.042311 -0.111000
v 0.130000 0.047270 -0.111000
v 0.130000 0.047270 -0.111000
v 0.130000 -0.034578 -0.120000
v 0.000000 -0.034578 -0.120000
v 0.130000 -0.034578 -0.120000
v 0.270000 -0.034578 -0.120000
v 0.270000 -0.034578 0.120000
v 0.130000 -0.034578 0.120000
v 0.130000 0.047270 0.111000
v 0.130000 -0.034578 0.120000
v 0.270000 -0.034578 0.120000
v 0.270000 -0.034578 0.120000
v 0.270000 0.060387 0.111000
v 0.130000 0.047270 0.111000
v 0.130000 0.047270 0.111000
v 0.270000 0.060387 0.111000
v 0.270000 0.068387 0.101000
v 0.130000 0.055270 0.101000
v 0.130000 0.055270 0.101000
v 0.270000 0.068387 0.101000
v 0.270000 0.068387 -0.101000
v 0.130000 0.055270 -0.101000
v 0.130000 0.055270 -0.101000
v 0.270000 0.068387 -0.101000
v 0.270000 0.060387 -0.111000
v 0.130000 0.047270 -0.111000
v 0.130000 -0.034578 -0.120000
v 0.130000 0.047270 -0.111000
v 0.270000 0.060387 -0.111000
v 0.270000 0.060387 -0.111000
v 0.270000 -0.034578 -0.120000
v 0.130000 -0.034578 -0.120000
v 0.270000 -0.034578 -0.120000
v 0.400000 -0.034578 -0.120000
v 0.400000 -0.034578 0.120000
v 0.270000 -0.034578 0.120000
v 0.270000 0.060387 0.111000
v 0.270000 -0.034578 0.120000
v 0.400000 -0.034578 0.120000
v 0.400000 -0.034578 0.120000
v 0.400000 0.072463 0.111000
v 0.270000 0.060387 0.111000
v 0.270000 0.060387 0.111000
v 0.400000 0.072463 0.111000
v 0.400000 0.080463 0.101000
v 0.270000 0.068387 0.101000
v 0.270000 0.068387 0.101000
v 0.400000 0.080463 0.101000
v 0.400000 0.080463 -0.101000
v 0.270000 0.068387 -0.101000
v 0.270000 0.068387 -0.101000
v 0.400000 0.080463 -0.101000
v 0.400000 0.072463 -0.111000
v 0.270000 0.060387 -0.111000
v 0.270000 -0.034578 -0.120000
v 0.270000 0.060387 -0.111000
v 0.400000 0.072463 -0.111000
v 0.400000 0.072463 -0.111000
v 0.400000 -0.034578 -0.120000
v 0.270000 -0.034578 -0.120000
v 0.400000 -0.034578 -0.120000
v 0.530000 -0.034578 -0.120000
v 0.530000 -0.034578 0.120000
v 0.400000 -0.034578 0.120000
v 0.400000 0.072463 0.111000
v 0.400000 -0.034578 0.120000
v 0.530000 -0.034578 0.120000
v 0.530000 -0.034578 0.120000
v 0.530000 0.077422 0.111000
v 0.400000 0.072463 0.111000
v 0.400000 0.072463 0.111000
v 0.530000 0.077422 0.111000
v 0.530000 0.085422 0.101000
v 0.400000 0.080463 0.101000
v 0.400000 0.080463 0.101000
v 0.530000 0.085422 0.101000
v 0.530000 0.085422 -0.101000
v 0.400000 0.080463 -0.101000
v 0.400000 0.080463 -0.101000
v 0.530000 0.085422 -0.101000
v 0.530000 0.077422 -0.111000
v 0.400000 0.072463 -0.111000
v 0.400000 -0.034578 -0.120000
v 0.400000 0.072463 -0.111000
v 0.530000 0.077422 -0.111000
v 0.530000 0.077422 -0.111000
v 0.530000 -0.034578 -0.120000
v 0.400000 -0.034578 -0.120000
v 0.530000 -0.034578 -0.120000
v 0.600000 -0.034578 -0.120000
v 0.600000 -0.034578 0.120000
v 0.530000 -0.034578 0.120000
v 0.530000 -0.034578 0.120000
v 0.600000 -0.034578 0.120000
v 0.600000 0.077422 0.111000
v 0.530000 0.077422 0.111000
v 0.530000 0.077422 0.111000
v 0.600000 0.077422 0.111000
v 0.600000 0.085422 0.101000
v 0.530000 0.085422 0.101000
v 0.530000 0.085422 0.101000
v 0.600000 0.085422 0.101000
v 0.600000 0.085422 -0.101000
v 0.530000 0.085422 -0.101000
v 0.530000 0.085422 -0.101000
v 0.600000 0.085422 -0.101000
v 0.600000 0.077422 -0.111000
v 0.530000 0.077422 -0.111000
v 0.530000 0.077422 -0.111000
v 0.600000 0.077422 -0.111000
v 0.600000 -0.034578 -0.120000
v 0.530000 -0.034578 -0.120000
v 0.600000 -0.034578 -0.120000
v 0.751500 -0.034578 -0.120000
v 0.751500 -0.034578 0.120000
v 0.600000 -0.034578 0.120000
v 0.600000 -0.034578 0.120000
v 0.751500 -0.034578 0.120000
v 0.751500 0.077422 0.111000
v 0.600000 0.077422 0.111000
v 0.600000 0.077422 0.111000
v 0.751500 0.077422 0.111000
v 0.751500 0.085422 0.101000
v 0.600000 0.085422 0.101000
v 0.600000 0.085422 0.101000
v 0.751500 0.085422 0.101000
v 0.751500 0.085422 -0.101000
v 0.600000 0.085422 -0.101000
v 0.600000 0.085422 -0.101000
v 0.751500 0.085422 -0.101000
v 0.751500 0.077422 -0.111000
v 0.600000 0.077422 -0.111000
v 0.600000 0.077422 -0.111000
v 0.751500 0.077422 -0.111000
v 0.751500 -0.034578 -0.120000
v 0.600000 -0.034578 -0.120000
v 0.751500 -0.034578 -0.120000
v 0.930000 -0.034578 -0.120000
v 0.930000 -0.034578 0.120000
v 0.751500 -0.034578 0.120000
v 0.751500 -0.034578 0.120000
v 0.930000 -0.034578 0.120000
v 0.930000 0.077422 0.111000
v 0.751500 0.077422 0.111000
v 0.751500 0.077422 0.111000
v 0.930000 0.077422 0.111000
v 0.930000 0.085422 0.101000
v 0.751500 0.085422 0.101000
v 0.751500 0.085422 0.101000
v 0.930000 0.085422 0.101000
v 0.930000 0.085422 -0.101000
v 0.751500 0.085422 -0.101000
v 0.751500 0.085422 -0.101000
v 0.930000 0.085422 -0.101000
v 0.930000 0.077422 -0.111000
v 0.751500 0.077422 -0.111000
v 0.751500 0.077422 -0.111000
v 0.930000 0.077422 -0.111000
v 0.930000 -0.034578 -0.120000
v 0.751500 -0.034578 -0.120000
v 0.930000 -0.034578 -0.120000
v 1.200000 -0.034578 -0.120000
v 1.200000 -0.034578 0.120000
v 0.930000 -0.034578 0.120000
v 0.930000 0.077422 0.111000
v 0.930000 -0.034578 0.120000
v 1.200000 -0.034578 0.120000
v 1.200000 -0.034578 0.120000
v 1.200000 0.067297 0.111000
v 0.930000 0.077422 0.111000
v 0.930000 0.077422 0.111000
v 1.200000 0.067297 0.111000
v 1.200000 0.075297 0.101000
v 0.930000 0.085422 0.101000
v 0.930000 0.085422 0.101000
v 1.200000 0.075297 0.101000
v 1.200000 0.075297 -0.101000
v 0.930000 0.085422 -0.101000
v 0.930000 0.085422 -0.101000
v 1.200000 0.075297 -0.101000
v 1.200000 0.067297 -0.111000
v 0.930000 0.077422 -0.111000
v 0.930000 -0.034578 -0.120000
v 0.930000 0.077422 -0.111000
v 1.200000 0.067297 -0.111000
v 1.200000 0.067297 -0.111000
v 1.200000 -0.034578 -0.120000
v 0.930000 -0.034578 -0.120000
v 1.200000 -0.034578 -0.120000
v 1.220000 -0.034578 -0.105000
v 1.220000 -0.034578 0.105000
v 1.200000 -0.034578 0.120000
v 1.200000 0.067297 0.111000
v 1.200000 -0.034578 0.120000
v 1.220000 -0.034578 0.105000
v 1.220000 -0.034578 0.105000
v 1.220000 0.066547 0.096000
v 1.200000 0.067297 0.111000
v 1.200000 0.067297 0.111000
v 1.220000 0.066547 0.096000
v 1.220000 0.074547 0.086000
v 1.200000 0.075297 0.101000
v 1.200000 0.075297 0.101000
v 1.220000 0.074547 0.086000
v 1.220000 0.074547 -0.086000
v 1.200000 0.075297 -0.101000
v 1.200000 0.075297 -0.101000
v 1.220000 0.074547 -0.086000
v 1.220000 0.066547 -0.096000
v 1.200000 0.067297 -0.111000
v 1.200000 -0.034578 -0.120000
v 1.200000 0.067297 -0.111000
v 1.220000 0.066547 -0.096000
v 1.220000 0.066547 -0.096000
v 1.220000 -0.034578 -0.105000
v 1.200000 -0.034578 -0.120000
v 1.220000 -0.034578 -0.105000
v 1.250000 -0.034578 -0.105000
v 1.250000 -0.034578 0.105000
v 1.220000 -0.034578 0.105000
v 1.220000 0.066547 0.096000
v 1.220000 -0.034578 0.105000
v 1.250000 -0.034578 0.105000
v 1.250000 -0.034578 0.105000
v 1.250000 0.065422 0.096000
v 1.220000 0.066547 0.096000
v 1.220000 0.066547 0.096000
v 1.250000 0.065422 0.096000
v 1.250000 0.073422 0.086000
v 1.220000 0.074547 0.086000
v 1.220000 0.074547 0.086000
v 1.250000 0.073422 0.086000
v 1.250000 0.073422 -0.086000
v 1.220000 0.074547 -0.086000
v 1.220000 0.074547 -0.086000
v 1.250000 0.073422 -0.086000
v 1.250000 0.065422 -0.096000
v 1.220000 0.066547 -0.096000
v 1.220000 -0.034578 -0.105000
v 1.220000 0.066547 -0.096000
v 1.250000 0.065422 -0.096000
v 1.250000 0.065422 -0.096000
v 1.250000 -0.034578 -0.105000
v 1.220000 -0.034578 -0.105000
v -1.250000 0.065422 -0.096000
v -1.250000 -0.034578 -0.105000
v -1.250000 -0.034578 0.105000
v -1.250000 0.065422 -0.096000
v -1.250000 -0.034578 0.105000
v -1.250000 0.065422 0.096000
v -1.250000 0.065422 -0.096000
v -1.250000 0.065422 0.096000
v -1.250000 0.073422 0.086000
v -1.250000 0.073422 0.086000
v -1.250000 0.073422 -0.086000
v -1.250000 0.065422 -0.096000
v 1.250000 -0.034578 -0.105000
v 1.250000 0.065422 -0.096000
v 1.250000 0.073422 -0.086000
v 1.250000 -0.034578 -0.105000
v 1.250000 0.073422 -0.086000
v 1.250000 0.073422 0.086000
v 1.250000 -0.034578 -0.105000
v 1.250000 0.073422 0.086000
v 1.250000 0.065422 0.096000
v 1.250000 0.065422 0.096000
v 1.250000 -0.034578 0.105000
v 1.250000 -0.034578 -0.105000
vt 0.30281250 0.17047575
vt 0.31875000 0.17047575
vt 0.31875000 0.33698694
vt 0.30281250 0.33698694
vt 0.30281250 0.09514925
vt 0.30281250 0.01585821
vt 0.31875000 0.01585821
vt 0.31875000 0.01585821
vt 0.31875000 0.09604128
vt 0.30281250 0.09514925
vt 0.30281250 0.32985075
vt 0.31875000 0.32985075
vt 0.31875000 0.32192164
vt 0.30281250 0.32192164
vt 0.30281250 0.32192164
vt 0.31875000 0.32192164
vt 0.31875000 0.18554104
vt 0.30281250 0.18554104
vt 0.30281250 0.18554104
vt 0.31875000 0.18554104
vt 0.31875000 0.17761194
vt 0.30281250 0.17761194
vt 0.30281250 0.01585821
vt 0.30281250 0.09514925
vt 0.31875000 0.09604128
vt 0.31875000 0.09604128
vt 0.31875000 0.01585821
vt 0.30281250 0.01585821
vt 0.31875000 0.17047575
vt 0.32937500 0.15858209
vt 0.32937500 0.34888060
vt 0.31875000 0.33698694
vt 0.31875000 0.09604128
vt 0.31875000 0.01585821
vt 0.32937500 0.01585821
vt 0.32937500 0.01585821
vt 0.32937500 0.09663596
vt 0.31875000 0.09604128
vt 0.31875000 0.32985075
vt 0.32937500 0.34174440
vt 0.32937500 0.33381530
vt 0.31875000 0.32192164
vt 0.31875000 0.32192164
vt 0.32937500 0.33381530
vt 0.32937500 0.17364739
vt 0.31875000 0.18554104
vt 0.31875000 0.18554104
vt 0.32937500 0.17364739
vt 0.32937500 0.16571828
vt 0.31875000 0.17761194
vt 0.31875000 0.01585821
vt 0.31875000 0.09604128
vt 0.32937500 0.09663596
vt 0.32937500 0.09663596
vt 0.32937500 0.01585821
vt 0.31875000 0.01585821
vt 0.01062500 0.15858209
vt 0.15406250 0.15858209
vt 0.15406250 0.34888060
vt 0.01062500 0.34888060
vt 0.01062500 0.09663596
vt 0.01062500 0.01585821
vt 0.15406250 0.01585821
vt 0.15406250 0.01585821
vt 0.15406250 0.10466418
vt 0.01062500 0.09663596
vt 0.01062500 0.34174440
vt 0.15406250 0.34174440
vt 0.15406250 0.33381530
vt 0.01062500 0.33381530
vt 0.01062500 0.33381530
vt 0.15406250 0.33381530
vt 0.15406250 0.17364739
vt 0.01062500 0.17364739
vt 0.01062500 0.17364739
vt 0.15406250 0.17364739
vt 0.15406250 0.16571828
vt 0.01062500 0.16571828
vt 0.01062500 0.01585821
vt 0.01062500 0.09663596
vt 0.15406250 0.10466418
vt 0.15406250 0.10466418
vt 0.15406250 0.01585821
vt 0.01062500 0.01585821
vt 0.15406250 0.15858209
vt 0.24889063 0.15858209
vt 0.24889063 0.34888060
vt 0.15406250 0.34888060
vt 0.15406250 0.01585821
vt 0.24889063 0.01585821
vt 0.24889063 0.10466418
vt 0.15406250 0.10466418
vt 0.15406250 0.34174440
vt 0.24889063 0.34174440
vt 0.24889063 0.33381530
vt 0.15406250 0.33381530
vt 0.15406250 0.33381530
vt 0.24889063 0.33381530
vt 0.24889063 0.17364739
vt 0.15406250 0.17364739
vt 0.15406250 0.17364739
vt 0.24889063 0.17364739
vt 0.24889063 0.16571828
vt 0.15406250 0.16571828
vt 0.15406250 0.10466418
vt 0.24889063 0.10466418
vt 0.24889063 0.01585821
vt 0.15406250 0.01585821
vt 0.24889063 0.15858209
vt 0.32937500 0.15858209
vt 0.32937500 0.34888060
vt 0.24889063 0.34888060
vt 0.24889063 0.01585821
vt 0.32937500 0.01585821
vt 0.32937500 0.10466418
vt 0.24889063 0.10466418
vt 0.24889063 0.34174440
vt 0.32937500 0.34174440
vt 0.32937500 0.33381530
vt 0.24889063 0.33381530
vt 0.24889063 0.33381530
vt 0.32937500 0.33381530
vt 0.32937500 0.17364739
vt 0.24889063 0.17364739
vt 0.24889063 0.17364739
vt 0.32937500 0.17364739
vt 0.32937500 0.16571828
vt 0.24889063 0.16571828
vt 0.24889063 0.10466418
vt 0.32937500 0.10466418
vt 0.32937500 0.01585821
vt 0.24889063 0.01585821
vt 0.01062500 0.15858209
vt 0.04781250 0.15858209
vt 0.04781250 0.34888060
vt 0.01062500 0.34888060
vt 0.01062500 0.01585821
vt 0.04781250 0.01585821
vt 0.04781250 0.10466418
vt 0.01062500 0.10466418
vt 0.01062500 0.34174440
vt 0.04781250 0.34174440
vt 0.04781250 0.33381530
vt 0.01062500 0.33381530
vt 0.01062500 0.33381530
vt 0.04781250 0.33381530
vt 0.04781250 0.17364739
vt 0.01062500 0.17364739
vt 0.01062500 0.17364739
vt 0.04781250 0.17364739
vt 0.04781250 0.16571828
vt 0.01062500 0.16571828
vt 0.01062500 0.10466418
vt 0.04781250 0.10466418
vt 0.04781250 0.01585821
vt 0.01062500 0.01585821
vt 0.04781250 0.15858209
vt 0.11687500 0.15858209
vt 0.11687500 0.34888060
vt 0.04781250 0.34888060
vt 0.04781250 0.10466418
vt 0.04781250 0.01585821
vt 0.11687500 0.01585821
vt 0.11687500 0.01585821
vt 0.11687500 0.10073190
vt 0.04781250 0.10466418
vt 0.04781250 0.34174440
vt 0.11687500 0.34174440
vt 0.11687500 0.33381530
vt 0.04781250 0.33381530
vt 0.04781250 0.33381530
vt 0.11687500 0.33381530
vt 0.11687500 0.17364739
vt 0.04781250 0.17364739
vt 0.04781250 0.17364739
vt 0.11687500 0.17364739
vt 0.11687500 0.16571828
vt 0.04781250 0.16571828
vt 0.04781250 0.01585821
vt 0.04781250 0.10466418
vt 0.11687500 0.10073190
vt 0.11687500 0.10073190
vt 0.11687500 0.01585821
vt 0.04781250 0.01585821
vt 0.11687500 0.15858209
vt 0.18593750 0.15858209
vt 0.18593750 0.34888060
vt 0.11687500 0.34888060
vt 0.11687500 0.10073190
vt 0.11687500 0.01585821
vt 0.18593750 0.01585821
vt 0.18593750 0.01585821
vt 0.18593750 0.09115673
vt 0.11687500 0.10073190
vt 0.11687500 0.34174440
vt 0.18593750 0.34174440
vt 0.18593750 0.33381530
vt 0.11687500 0.33381530
vt 0.11687500 0.33381530
vt 0.18593750 0.33381530
vt 0.18593750 0.17364739
vt 0.11687500 0.17364739
vt 0.11687500 0.17364739
vt 0.18593750 0.17364739
vt 0.18593750 0.16571828
vt 0.11687500 0.16571828
vt 0.11687500 0.01585821
vt 0.11687500 0.10073190
vt 0.18593750 0.09115673
vt 0.18593750 0.09115673
vt 0.18593750 0.01585821
vt 0.11687500 0.01585821
vt 0.18593750 0.15858209
vt 0.26031250 0.15858209
vt 0.26031250 0.34888060
vt 0.18593750 0.34888060
vt 0.18593750 0.09115673
vt 0.18593750 0.01585821
vt 0.26031250 0.01585821
vt 0.26031250 0.01585821
vt 0.26031250 0.08075658
vt 0.18593750 0.09115673
vt 0.18593750 0.34174440
vt 0.26031250 0.34174440
vt 0.26031250 0.33381530
vt 0.18593750 0.33381530
vt 0.18593750 0.33381530
vt 0.26031250 0.33381530
vt 0.26031250 0.17364739
vt 0.18593750 0.17364739
vt 0.18593750 0.17364739
vt 0.26031250 0.17364739
vt 0.26031250 0.16571828
vt 0.18593750 0.16571828
vt 0.18593750 0.01585821
vt 0.18593750 0.09115673
vt 0.26031250 0.08075658
vt 0.26031250 0.08075658
vt 0.26031250 0.01585821
vt 0.18593750 0.01585821
vt 0.26031250 0.15858209
vt 0.32937500 0.15858209
vt 0.32937500 0.34888060
vt 0.26031250 0.34888060
vt 0.26031250 0.08075658
vt 0.26031250 0.01585821
vt 0.32937500 0.01585821
vt 0.32937500 0.01585821
vt 0.32937500 0.07682430
vt 0.26031250 0.08075658
vt 0.26031250 0.34174440
vt 0.32937500 0.34174440
vt 0.32937500 0.33381530
vt 0.26031250 0.33381530
vt 0.26031250 0.33381530
vt 0.32937500 0.33381530
vt 0.32937500 0.17364739
vt 0.26031250 0.17364739
vt 0.26031250 0.17364739
vt 0.32937500 0.17364739
vt 0.32937500 0.16571828
vt 0.26031250 0.16571828
vt 0.26031250 0.01585821
vt 0.26031250 0.08075658
vt 0.32937500 0.07682430
vt 0.32937500 0.07682430
vt 0.32937500 0.01585821
vt 0.26031250 0.01585821
vt 0.01062500 0.15858209
vt 0.07968750 0.15858209
vt 0.07968750 0.34888060
vt 0.01062500 0.34888060
vt 0.01062500 0.07682430
vt 0.01062500 0.01585821
vt 0.07968750 0.01585821
vt 0.07968750 0.01585821
vt 0.07968750 0.08075658
vt 0.01062500 0.07682430
vt 0.01062500 0.34174440
vt 0.07968750 0.34174440
vt 0.07968750 0.33381530
vt 0.01062500 0.33381530
vt 0.01062500 0.33381530
vt 0.07968750 0.33381530
vt 0.07968750 0.17364739
vt 0.01062500 0.17364739
vt 0.01062500 0.17364739
vt 0.07968750 0.17364739
vt 0.07968750 0.16571828
vt 0.01062500 0.16571828
vt 0.01062500 0.01585821
vt 0.01062500 0.07682430
vt 0.07968750 0.08075658
vt 0.07968750 0.08075658
vt 0.07968750 0.01585821
vt 0.01062500 0.01585821
vt 0.07968750 0.15858209
vt 0.15406250 0.15858209
vt 0.15406250 0.34888060
vt 0.07968750 0.34888060
vt 0.07968750 0.08075658
vt 0.07968750 0.01585821
vt 0.15406250 0.01585821
vt 0.15406250 0.01585821
vt 0.15406250 0.09115673
vt 0.07968750 0.08075658
vt 0.07968750 0.34174440
vt 0.15406250 0.34174440
vt 0.15406250 0.33381530
vt 0.07968750 0.33381530
vt 0.07968750 0.33381530
vt 0.15406250 0.33381530
vt 0.15406250 0.17364739
vt 0.07968750 0.17364739
vt 0.07968750 0.17364739
vt 0.15406250 0.17364739
vt 0.15406250 0.16571828
vt 0.07968750 0.16571828
vt 0.07968750 0.01585821
vt 0.07968750 0.08075658
vt 0.15406250 0.09115673
vt 0.15406250 0.09115673
vt 0.15406250 0.01585821
vt 0.07968750 0.01585821
vt 0.15406250 0.15858209
vt 0.22312500 0.15858209
vt 0.22312500 0.34888060
vt 0.15406250 0.34888060
vt 0.15406250 0.09115673
vt 0.15406250 0.01585821
vt 0.22312500 0.01585821
vt 0.22312500 0.01585821
vt 0.22312500 0.10073190
vt 0.15406250 0.09115673
vt 0.15406250 0.34174440
vt 0.22312500 0.34174440
vt 0.22312500 0.33381530
vt 0.15406250 0.33381530
vt 0.15406250 0.33381530
vt 0.22312500 0.33381530
vt 0.22312500 0.17364739
vt 0.15406250 0.17364739
vt 0.15406250 0.17364739
vt 0.22312500 0.17364739
vt 0.22312500 0.16571828
vt 0.15406250 0.16571828
vt 0.15406250 0.01585821
vt 0.15406250 0.09115673
vt 0.22312500 0.10073190
vt 0.22312500 0.10073190
vt 0.22312500 0.01585821
vt 0.15406250 0.01585821
vt 0.22312500 0.15858209
vt 0.29218750 0.15858209
vt 0.29218750 0.34888060
vt 0.22312500 0.34888060
vt 0.22312500 0.10073190
vt 0.22312500 0.01585821
vt 0.29218750 0.01585821
vt 0.29218750 0.01585821
vt 0.29218750 0.10466418
vt 0.22312500 0.10073190
vt 0.22312500 0.34174440
vt 0.29218750 0.34174440
vt 0.29218750 0.33381530
vt 0.22312500 0.33381530
vt 0.22312500 0.33381530
vt 0.29218750 0.33381530
vt 0.29218750 0.17364739
vt 0.22312500 0.17364739
vt 0.22312500 0.17364739
vt 0.29218750 0.17364739
vt 0.29218750 0.16571828
vt 0.22312500 0.16571828
vt 0.22312500 0.01585821
vt 0.22312500 0.10073190
vt 0.29218750 0.10466418
vt 0.29218750 0.10466418
vt 0.29218750 0.01585821
vt 0.22312500 0.01585821
vt 0.29218750 0.15858209
vt 0.32937500 0.15858209
vt 0.32937500 0.34888060
vt 0.29218750 0.34888060
vt 0.29218750 0.01585821
vt 0.32937500 0.01585821
vt 0.32937500 0.10466418
vt 0.29218750 0.10466418
vt 0.29218750 0.34174440
vt 0.32937500 0.34174440
vt 0.32937500 0.33381530
vt 0.29218750 0.33381530
vt 0.29218750 0.33381530
vt 0.32937500 0.33381530
vt 0.32937500 0.17364739
vt 0.29218750 0.17364739
vt 0.29218750 0.17364739
vt 0.32937500 0.17364739
vt 0.32937500 0.16571828
vt 0.29218750 0.16571828
vt 0.29218750 0.10466418
vt 0.32937500 0.10466418
vt 0.32937500 0.01585821
vt 0.29218750 0.01585821
vt 0.01062500 0.15858209
vt 0.09110937 0.15858209
vt 0.09110937 0.34888060
vt 0.01062500 0.34888060
vt 0.01062500 0.01585821
vt 0.09110937 0.01585821
vt 0.09110937 0.10466418
vt 0.01062500 0.10466418
vt 0.01062500 0.34174440
vt 0.09110937 0.34174440
vt 0.09110937 0.33381530
vt 0.01062500 0.33381530
vt 0.01062500 0.33381530
vt 0.09110937 0.33381530
vt 0.09110937 0.17364739
vt 0.01062500 0.17364739
vt 0.01062500 0.17364739
vt 0.09110937 0.17364739
vt 0.09110937 0.16571828
vt 0.01062500 0.16571828
vt 0.01062500 0.10466418
vt 0.09110937 0.10466418
vt 0.09110937 0.01585821
vt 0.01062500 0.01585821
vt 0.09110937 0.15858209
vt 0.18593750 0.15858209
vt 0.18593750 0.34888060
vt 0.09110937 0.34888060
vt 0.09110937 0.01585821
vt 0.18593750 0.01585821
vt 0.18593750 0.10466418
vt 0.09110937 0.10466418
vt 0.09110937 0.34174440
vt 0.18593750 0.34174440
vt 0.18593750 0.33381530
vt 0.09110937 0.33381530
vt 0.09110937 0.33381530
vt 0.18593750 0.33381530
vt 0.18593750 0.17364739
vt 0.09110937 0.17364739
vt 0.09110937 0.17364739
vt 0.18593750 0.17364739
vt 0.18593750 0.16571828
vt 0.09110937 0.16571828
vt 0.09110937 0.10466418
vt 0.18593750 0.10466418
vt 0.18593750 0.01585821
vt 0.09110937 0.01585821
vt 0.18593750 0.15858209
vt 0.32937500 0.15858209
vt 0.32937500 0.34888060
vt 0.18593750 0.34888060
vt 0.18593750 0.10466418
vt 0.18593750 0.01585821
vt 0.32937500 0.01585821
vt 0.32937500 0.01585821
vt 0.32937500 0.09663596
vt 0.18593750 0.10466418
vt 0.18593750 0.34174440
vt 0.32937500 0.34174440
vt 0.32937500 0.33381530
vt 0.18593750 0.33381530
vt 0.18593750 0.33381530
vt 0.32937500 0.33381530
vt 0.32937500 0.17364739
vt 0.18593750 0.17364739
vt 0.18593750 0.17364739
vt 0.32937500 0.17364739
vt 0.32937500 0.16571828
vt 0.18593750 0.16571828
vt 0.18593750 0.01585821
vt 0.18593750 0.10466418
vt 0.32937500 0.09663596
vt 0.32937500 0.09663596
vt 0.32937500 0.01585821
vt 0.18593750 0.01585821
vt 0.01062500 0.15858209
vt 0.02125000 0.17047575
vt 0.02125000 0.33698694
vt 0.01062500 0.34888060
vt 0.01062500 0.09663596
vt 0.01062500 0.01585821
vt 0.02125000 0.01585821
vt 0.02125000 0.01585821
vt 0.02125000 0.09604128
vt 0.01062500 0.09663596
vt 0.01062500 0.34174440
vt 0.02125000 0.32985075
vt 0.02125000 0.32192164
vt 0.01062500 0.33381530
vt 0.01062500 0.33381530
vt 0.02125000 0.32192164
vt 0.02125000 0.18554104
vt 0.01062500 0.17364739
vt 0.01062500 0.17364739
vt 0.02125000 0.18554104
vt 0.02125000 0.17761194
vt 0.01062500 0.16571828
vt 0.01062500 0.01585821
vt 0.01062500 0.09663596
vt 0.02125000 0.09604128
vt 0.02125000 0.09604128
vt 0.02125000 0.01585821
vt 0.01062500 0.01585821
vt 0.02125000 0.17047575
vt 0.03718750 0.17047575
vt 0.03718750 0.33698694
vt 0.02125000 0.33698694
vt 0.02125000 0.09604128
vt 0.02125000 0.01585821
vt 0.03718750 0.01585821
vt 0.03718750 0.01585821
vt 0.03718750 0.09514925
vt 0.02125000 0.09604128
vt 0.02125000 0.32985075
vt 0.03718750 0.32985075
vt 0.03718750 0.32192164
vt 0.02125000 0.32192164
vt 0.02125000 0.32192164
vt 0.03718750 0.32192164
vt 0.03718750 0.18554104
vt 0.02125000 0.18554104
vt 0.02125000 0.18554104
vt 0.03718750 0.18554104
vt 0.03718750 0.17761194
vt 0.02125000 0.17761194
vt 0.02125000 0.01585821
vt 0.02125000 0.09604128
vt 0.03718750 0.09514925
vt 0.03718750 0.09514925
vt 0.03718750 0.01585821
vt 0.02125000 0.01585821
vt 0.04250000 0.41231343
vt 0.03054688 0.01585821
vt 0.30945312 0.01585821
vt 0.04250000 0.41231343
vt 0.30945312 0.01585821
vt 0.29750000 0.41231343
vt 0.04250000 0.41231343
vt 0.29750000 0.41231343
vt 0.28421875 0.44402985
vt 0.28421875 0.44402985
vt 0.05578125 0.44402985
vt 0.04250000 0.41231343
vt 0.03054688 0.01585821
vt 0.04250000 0.41231343
vt 0.05578125 0.44402985
vt 0.03054688 0.01585821
vt 0.05578125 0.44402985
vt 0.28421875 0.44402985
vt 0.03054688 0.01585821
vt 0.28421875 0.44402985
vt 0.29750000 0.41231343
vt 0.29750000 0.41231343
vt 0.30945312 0.01585821
vt 0.03054688 0.01585821
vn 0.00000000 -1.00000000 0.00000000
vn 0.00000000 -1.00000000 0.00000000
vn 0.00000000 -1.00000000 0.00000000
vn 0.00000000 -1.00000000 0.00000000
vn 0.00000000 0.08963770 0.99597444
vn 0.00000000 0.08963770 0.99597444
vn 0.00000000 0.08963770 0.99597444
vn -0.00332430 0.08864788 0.99605748
vn -0.00332430 0.08864788 0.99605748
vn -0.00332430 0.08864788 0.99605748
vn -0.02927003 0.78053424 0.62442739
vn -0.02927003 0.78053424 0.62442739
vn -0.02927003 0.78053424 0.62442739
vn -0.02927003 0.78053424 0.62442739
vn -0.03747366 0.99929762 0.00000000
vn -0.03747366 0.99929762 0.00000000
vn -0.03747366 0.99929762 0.00000000
vn -0.03747366 0.99929762 0.00000000
vn -0.02927003 0.78053424 -0.62442739
vn -0.02927003 0.78053424 -0.62442739
vn -0.02927003 0.78053424 -0.62442739
vn -0.02927003 0.78053424 -0.62442739
vn -0.00336139 0.08963719 -0.99596881
vn -0.00336139 0.08963719 -0.99596881
vn -0.00336139 0.08963719 -0.99596881
vn 0.00000000 0.08864837 -0.99606298
vn 0.00000000 0.08864837 -0.99606298
vn 0.00000000 0.08864837 -0.99606298
vn 0.00000000 -1.00000000 0.00000000
vn 0.00000000 -1.00000000 0.00000000
vn 0.00000000 -1.00000000 0.00000000
vn 0.00000000 -1.00000000 0.00000000
vn -0.59848497 0.07101923 0.79797996
vn -0.59848497 0.07101923 0.79797996
vn -0.59848497 0.07101923 0.79797996
vn -0.60019979 0.07038747 0.79674702
vn -0.60019979 0.07038747 0.79674702
vn -0.60019979 0.07038747 0.79674702
vn -0.44564010 0.69904329 0.55923463
vn -0.44564010 0.69904329 0.55923463
vn -0.44564010 0.69904329 0.55923463
vn -0.44564010 0.69904329 0.55923463
vn -0.03747366 0.99929762 0.00000000
vn -0.03747366 0.99929762 0.00000000
vn -0.03747366 0.99929762 0.00000000
vn -0.03747366 0.99929762 0.00000000
vn -0.44564010 0.69904329 -0.55923463
vn -0.44564010 0.69904329 -0.55923463
vn -0.44564010 0.69904329 -0.55923463
vn -0.44564010 0.69904329 -0.55923463
vn -0.60019018 0.07090605 -0.79670828
vn -0.60019018 0.07090605 -0.79670828
vn -0.60019018 0.07090605 -0.79670828
vn -0.59850711 0.07049900 -0.79800948
vn -0.59850711 0.07049900 -0.79800948
vn -0.59850711 0.07049900 -0.79800948
vn 0.00000000 -1.00000000 0.00000000
vn 0.00000000 -1.00000000 0.00000000
vn 0.00000000 -1.00000000 0.00000000
vn 0.00000000 -1.00000000 0.00000000
vn 0.00000000 0.08800082 0.99612040
vn 0.00000000 0.08800082 0.99612040
vn 0.00000000 0.08800082 0.99612040
vn -0.00300370 0.08009859 0.99678242
vn -0.00300370 0.08009859 0.99678242
vn -0.00300370 0.08009859 0.99678242
vn -0.02927003 0.78053424 0.62442739
vn -0.02927003 0.78053424 0.62442739
vn -0.02927003 0.78053424 0.62442739
vn -0.02927003 0.78053424 0.62442739
vn -0.03747366 0.99929762 0.00000000
vn -0.03747366 0.99929762 0.00000000
vn -0.03747366 0.99929762 0.00000000
vn -0.03747366 0.99929762 0.00000000
vn -0.02927003 0.78053424 -0.62442739
vn -0.02927003 0.78053424 -0.62442739
vn -0.02927003 0.78053424 -0.62442739
vn -0.02927003 0.78053424 -0.62442739
vn -0.00330001 0.08800034 -0.99611498
vn -0.00330001 0.08800034 -0.99611498
vn -0.00330001 0.08800034 -0.99611498
vn 0.00000000 0.08009895 -0.99678692
vn 0.00000000 0.08009895 -0.99678692
vn 0.00000000 0.08009895 -0.99678692
vn 0.00000000 -1.00000000 0.00000000
vn 0.00000000 -1.00000000 0.00000000
vn 0.00000000 -1.00000000 0.00000000
vn 0.00000000 -1.00000000 0.00000000
vn -0.00000000 0.08009895 0.99678692
vn -0.00000000 0.08009895 0.99678692
vn -0.00000000 0.08009895 0.99678692
vn -0.00000000 0.08009895 0.99678692
vn -0.00000000 0.78086881 0.62469505
vn -0.00000000 0.78086881 0.62469505
vn -0.00000000 0.78086881 0.62469505
vn -0.00000000 0.78086881 0.62469505
vn -0.00000000 1.00000000 0.00000000
vn -0.00000000 1.00000000 0.00000000
vn -0.00000000 1.00000000 0.00000000
vn -0.00000000 1.00000000 0.00000000
vn 0.00000000 0.78086881 -0.62469505
vn 0.00000000 0.78086881 -0.62469505
vn 0.00000000 0.78086881 -0.62469505
vn 0.00000000 0.78086881 -0.62469505
vn 0.00000000 0.08009895 -0.99678692
vn 0.00000000 0.08009895 -0.99678692
vn 0.00000000 0.08009895 -0.99678692
vn 0.00000000 0.08009895 -0.99678692
vn 0.00000000 -1.00000000 0.00000000
vn 0.00000000 -1.00000000 0.00000000
vn 0.00000000 -1.00000000 0.00000000
vn 0.00000000 -1.00000000 0.00000000
vn -0.00000000 0.08009895 0.99678692
vn -0.00000000 0.08009895 0.99678692
vn -0.00000000 0.08009895 0.99678692
vn -0.00000000 0.08009895 0.99678692
vn -0.00000000 0.78086881 0.62469505
vn -0.00000000 0.78086881 0.62469505
vn -0.00000000 0.78086881 0.62469505
vn -0.00000000 0.78086881 0.62469505
vn -0.00000000 1.00000000 0.00000000
vn -0.00000000 1.00000000 0.00000000
vn -0.00000000 1.00000000 0.00000000
vn -0.00000000 1.00000000 0.00000000
vn 0.00000000 0.78086881 -0.62469505
vn 0.00000000 0.78086881 -0.62469505
vn 0.00000000 0.78086881 -0.62469505
vn 0.00000000 0.78086881 -0.62469505
vn 0.00000000 0.08009895 -0.99678692
vn 0.00000000 0.08009895 -0.99678692
vn 0.00000000 0.08009895 -0.99678692
vn 0.00000000 0.08009895 -0.99678692
vn 0.00000000 -1.00000000 0.00000000
vn 0.00000000 -1.00000000 0.00000000
vn 0.00000000 -1.00000000 0.00000000
vn 0.00000000 -1.00000000 0.00000000
vn -0.00000000 0.08009895 0.99678692
vn -0.00000000 0.08009895 0.99678692
vn -0.00000000 0.08009895 0.99678692
vn -0.00000000 0.08009895 0.99678692
vn -0.00000000 0.78086881 0.62469505
vn -0.00000000 0.78086881 0.62469505
vn -0.00000000 0.78086881 0.62469505
vn -0.00000000 0.78086881 0.62469505
vn -0.00000000 1.00000000 0.00000000
vn -0.00000000 1.00000000 0.00000000
vn -0.00000000 1.00000000 0.00000000
vn -0.00000000 1.00000000 0.00000000
vn 0.00000000 0.78086881 -0.62469505
vn 0.00000000 0.78086881 -0.62469505
vn 0.00000000 0.78086881 -0.62469505
vn 0.00000000 0.78086881 -0.62469505
vn 0.00000000 0.08009895 -0.99678692
vn 0.00000000 0.08009895 -0.99678692
vn 0.00000000 0.08009895 -0.99678692
vn 0.00000000 0.08009895 -0.99678692
vn 0.00000000 -1.00000000 0.00000000
vn 0.00000000 -1.00000000 0.00000000
vn 0.00000000 -1.00000000 0.00000000
vn 0.00000000 -1.00000000 0.00000000
vn 0.00000000 0.08009895 0.99678692
vn 0.00000000 0.08009895 0.99678692
vn 0.00000000 0.08009895 0.99678692
vn 0.00319624 0.08378411 0.99647880
vn 0.00319624 0.08378411 0.99647880
vn 0.00319624 0.08378411 0.99647880
vn 0.02977574 0.78052258 0.62441806
vn 0.02977574 0.78052258 0.62441806
vn 0.02977574 0.78052258 0.62441806
vn 0.02977574 0.78052258 0.62441806
vn 0.03812074 0.99927314 0.00000000
vn 0.03812074 0.99927314 0.00000000
vn 0.03812074 0.99927314 0.00000000
vn 0.03812074 0.99927314 0.00000000
vn 0.02977574 0.78052258 -0.62441806
vn 0.02977574 0.78052258 -0.62441806
vn 0.02977574 0.78052258 -0.62441806
vn 0.02977574 0.78052258 -0.62441806
vn 0.00305564 0.08009857 -0.99678226
vn 0.00305564 0.08009857 -0.99678226
vn 0.00305564 0.08009857 -0.99678226
vn 0.00000000 0.08378453 -0.99648389
vn 0.00000000 0.08378453 -0.99648389
vn 0.00000000 0.08378453 -0.99648389
vn 0.00000000 -1.00000000 0.00000000
vn 0.00000000 -1.00000000 0.00000000
vn 0.00000000 -1.00000000 0.00000000
vn 0.00000000 -1.00000000 0.00000000
vn 0.00000000 0.08378453 0.99648389
vn 0.00000000 0.08378453 0.99648389
vn 0.00000000 0.08378453 0.99648389
vn 0.00876396 0.09434564 0.99550093
vn 0.00876396 0.09434564 0.99550093
vn 0.00876396 0.09434564 0.99550093
vn 0.07234645 0.77882259 0.62305807
vn 0.07234645 0.77882259 0.62305807
vn 0.07234645 0.77882259 0.62305807
vn 0.07234645 0.77882259 0.62305807
vn 0.09249388 0.99571325 0.00000000
vn 0.09249388 0.99571325 0.00000000
vn 0.09249388 0.99571325 0.00000000
vn 0.09249388 0.99571325 0.00000000
vn 0.07234645 0.77882259 -0.62305807
vn 0.07234645 0.77882259 -0.62305807
vn 0.07234645 0.77882259 -0.62305807
vn 0.07234645 0.77882259 -0.62305807
vn 0.00778268 0.08378200 -0.99645372
vn 0.00778268 0.08378200 -0.99645372
vn 0.00778268 0.08378200 -0.99645372
vn 0.00000000 0.09434927 -0.99553916
vn 0.00000000 0.09434927 -0.99553916
vn 0.00000000 0.09434927 -0.99553916
vn 0.00000000 -1.00000000 0.00000000
vn 0.00000000 -1.00000000 0.00000000
vn 0.00000000 -1.00000000 0.00000000
vn 0.00000000 -1.00000000 0.00000000
vn 0.00000000 0.09434927 0.99553916
vn 0.00000000 0.09434927 0.99553916
vn 0.00000000 0.09434927 0.99553916
vn 0.01023971 0.10929499 0.99395662
vn 0.01023971 0.10929499 0.99395662
vn 0.01023971 0.10929499 0.99395662
vn 0.07296363 0.77878748 0.62302999
vn 0.07296363 0.77878748 0.62302999
vn 0.07296363 0.77878748 0.62302999
vn 0.07296363 0.77878748 0.62302999
vn 0.09328027 0.99563989 0.00000000
vn 0.09328027 0.99563989 0.00000000
vn 0.09328027 0.99563989 0.00000000
vn 0.09328027 0.99563989 0.00000000
vn 0.07296363 0.77878748 -0.62302999
vn 0.07296363 0.77878748 -0.62302999
vn 0.07296363 0.77878748 -0.62302999
vn 0.07296363 0.77878748 -0.62302999
vn 0.00883912 0.09434558 -0.99550027
vn 0.00883912 0.09434558 -0.99550027
vn 0.00883912 0.09434558 -0.99550027
vn 0.00000000 0.10930072 -0.99400873
vn 0.00000000 0.10930072 -0.99400873
vn 0.00000000 0.10930072 -0.99400873
vn 0.00000000 -1.00000000 0.00000000
vn 0.00000000 -1.00000000 0.00000000
vn 0.00000000 -1.00000000 0.00000000
vn 0.00000000 -1.00000000 0.00000000
vn 0.00000000 0.10930072 0.99400873
vn 0.00000000 0.10930072 0.99400873
vn 0.00000000 0.10930072 0.99400873
vn 0.00443503 0.11625699 0.99320926
vn 0.00443503 0.11625699 0.99320926
vn 0.00443503 0.11625699 0.99320926
vn 0.02977574 0.78052258 0.62441806
vn 0.02977574 0.78052258 0.62441806
vn 0.02977574 0.78052258 0.62441806
vn 0.02977574 0.78052258 0.62441806
vn 0.03812074 0.99927314 0.00000000
vn 0.03812074 0.99927314 0.00000000
vn 0.03812074 0.99927314 0.00000000
vn 0.03812074 0.99927314 0.00000000
vn 0.02977574 0.78052258 -0.62441806
vn 0.02977574 0.78052258 -0.62441806
vn 0.02977574 0.78052258 -0.62441806
vn 0.02977574 0.78052258 -0.62441806
vn 0.00416962 0.10929977 -0.99400009
vn 0.00416962 0.10929977 -0.99400009
vn 0.00416962 0.10929977 -0.99400009
vn 0.00000000 0.11625813 -0.99321903
vn 0.00000000 0.11625813 -0.99321903
vn 0.00000000 0.11625813 -0.99321903
vn 0.00000000 -1.00000000 0.00000000
vn 0.00000000 -1.00000000 0.00000000
vn 0.00000000 -1.00000000 0.00000000
vn 0.00000000 -1.00000000 0.00000000
vn 0.00000000 0.11625813 0.99321903
vn 0.00000000 0.11625813 0.99321903
vn 0.00000000 0.11625813 0.99321903
vn -0.00416962 0.10929977 0.99400009
vn -0.00416962 0.10929977 0.99400009
vn -0.00416962 0.10929977 0.99400009
vn -0.02977574 0.78052258 0.62441806
vn -0.02977574 0.78052258 0.62441806
vn -0.02977574 0.78052258 0.62441806
vn -0.02977574 0.78052258 0.62441806
vn -0.03812074 0.99927314 0.00000000
vn -0.03812074 0.99927314 0.00000000
vn -0.03812074 0.99927314 0.00000000
vn -0.03812074 0.99927314 0.00000000
vn -0.02977574 0.78052258 -0.62441806
vn -0.02977574 0.78052258 -0.62441806
vn -0.02977574 0.78052258 -0.62441806
vn -0.02977574 0.78052258 -0.62441806
vn -0.00443503 0.11625699 -0.99320926
vn -0.00443503 0.11625699 -0.99320926
vn -0.00443503 0.11625699 -0.99320926
vn 0.00000000 0.10930072 -0.99400873
vn 0.00000000 0.10930072 -0.99400873
vn 0.00000000 0.10930072 -0.99400873
vn 0.00000000 -1.00000000 0.00000000
vn 0.00000000 -1.00000000 0.00000000
vn 0.00000000 -1.00000000 0.00000000
vn 0.00000000 -1.00000000 0.00000000
vn 0.00000000 0.10930072 0.99400873
vn 0.00000000 0.10930072 0.99400873
vn 0.00000000 0.10930072 0.99400873
vn -0.00883912 0.09434558 0.99550027
vn -0.00883912 0.09434558 0.99550027
vn -0.00883912 0.09434558 0.99550027
vn -0.07296363 0.77878748 0.62302999
vn -0.07296363 0.77878748 0.62302999
vn -0.07296363 0.77878748 0.62302999
vn -0.07296363 0.77878748 0.62302999
vn -0.09328027 0.99563989 0.00000000
vn -0.09328027 0.99563989 0.00000000
vn -0.09328027 0.99563989 0.00000000
vn -0.09328027 0.99563989 0.00000000
vn -0.07296363 0.77878748 -0.62302999
vn -0.07296363 0.77878748 -0.62302999
vn -0.07296363 0.77878748 -0.62302999
vn -0.07296363 0.77878748 -0.62302999
vn -0.01023971 0.10929499 -0.99395662
vn -0.01023971 0.10929499 -0.99395662
vn -0.01023971 0.10929499 -0.99395662
vn 0.00000000 0.09434927 -0.99553916
vn 0.00000000 0.09434927 -0.99553916
vn 0.00000000 0.09434927 -0.99553916
vn 0.00000000 -1.00000000 0.00000000
vn 0.00000000 -1.00000000 0.00000000
vn 0.00000000 -1.00000000 0.00000000
vn 0.00000000 -1.00000000 0.00000000
vn 0.00000000 0.09434927 0.99553916
vn 0.00000000 0.09434927 0.99553916
vn 0.00000000 0.09434927 0.99553916
vn -0.00778268 0.08378200 0.99645372
vn -0.00778268 0.08378200 0.99645372
vn -0.00778268 0.08378200 0.99645372
vn -0.07234645 0.77882259 0.62305807
vn -0.07234645 0.77882259 0.62305807
vn -0.07234645 0.77882259 0.62305807
vn -0.07234645 0.77882259 0.62305807
vn -0.09249388 0.99571325 0.00000000
vn -0.09249388 0.99571325 0.00000000
vn -0.09249388 0.99571325 0.00000000
vn -0.09249388 0.99571325 0.00000000
vn -0.07234645 0.77882259 -0.62305807
vn -0.07234645 0.77882259 -0.62305807
vn -0.07234645 0.77882259 -0.62305807
vn -0.07234645 0.77882259 -0.62305807
vn -0.00876396 0.09434564 -0.99550093
vn -0.00876396 0.09434564 -0.99550093
vn -0.00876396 0.09434564 -0.99550093
vn 0.00000000 0.08378453 -0.99648389
vn 0.00000000 0.08378453 -0.99648389
vn 0.00000000 0.08378453 -0.99648389
vn 0.00000000 -1.00000000 0.00000000
vn 0.00000000 -1.00000000 0.00000000
vn 0.00000000 -1.00000000 0.00000000
vn 0.00000000 -1.00000000 0.00000000
vn 0.00000000 0.08378453 0.99648389
vn 0.00000000 0.08378453 0.99648389
vn 0.00000000 0.08378453 0.99648389
vn -0.00305564 0.08009857 0.99678226
vn -0.00305564 0.08009857 0.99678226
vn -0.00305564 0.08009857 0.99678226
vn -0.02977574 0.78052258 0.62441806
vn -0.02977574 0.78052258 0.62441806
vn -0.02977574 0.78052258 0.62441806
vn -0.02977574 0.78052258 0.62441806
vn -0.03812074 0.99927314 0.00000000
vn -0.03812074 0.99927314 0.00000000
vn -0.03812074 0.99927314 0.00000000
vn -0.03812074 0.99927314 0.00000000
vn -0.02977574 0.78052258 -0.62441806
vn -0.02977574 0.78052258 -0.62441806
vn -0.02977574 0.78052258 -0.62441806
vn -0.02977574 0.78052258 -0.62441806
vn -0.00319624 0.08378411 -0.99647880
vn -0.00319624 0.08378411 -0.99647880
vn -0.00319624 0.08378411 -0.99647880
vn 0.00000000 0.08009895 -0.99678692
vn 0.00000000 0.08009895 -0.99678692
vn 0.00000000 0.08009895 -0.99678692
vn 0.00000000 -1.00000000 0.00000000
vn 0.00000000 -1.00000000 0.00000000
vn 0.00000000 -1.00000000 0.00000000
vn 0.00000000 -1.00000000 0.00000000
vn -0.00000000 0.08009895 0.99678692
vn -0.00000000 0.08009895 0.99678692
vn -0.00000000 0.08009895 0.99678692
vn -0.00000000 0.08009895 0.99678692
vn -0.00000000 0.78086881 0.62469505
vn -0.00000000 0.78086881 0.62469505
vn -0.00000000 0.78086881 0.62469505
vn -0.00000000 0.78086881 0.62469505
vn -0.00000000 1.00000000 0.00000000
vn -0.00000000 1.00000000 0.00000000
vn -0.00000000 1.00000000 0.00000000
vn -0.00000000 1.00000000 0.00000000
vn 0.00000000 0.78086881 -0.62469505
vn 0.00000000 0.78086881 -0.62469505
vn 0.00000000 0.78086881 -0.62469505
vn 0.00000000 0.78086881 -0.62469505
vn 0.00000000 0.08009895 -0.99678692
vn 0.00000000 0.08009895 -0.99678692
vn 0.00000000 0.08009895 -0.99678692
vn 0.00000000 0.08009895 -0.99678692
vn 0.00000000 -1.00000000 0.00000000
vn 0.00000000 -1.00000000 0.00000000
vn 0.00000000 -1.00000000 0.00000000
vn 0.00000000 -1.00000000 0.00000000
vn -0.00000000 0.08009895 0.99678692
vn -0.00000000 0.08009895 0.99678692
vn -0.00000000 0.08009895 0.99678692
vn -0.00000000 0.08009895 0.99678692
vn -0.00000000 0.78086881 0.62469505
vn -0.00000000 0.78086881 0.62469505
vn -0.00000000 0.78086881 0.62469505
vn -0.00000000 0.78086881 0.62469505
vn -0.00000000 1.00000000 0.00000000
vn -0.00000000 1.00000000 0.00000000
vn -0.00000000 1.00000000 0.00000000
vn -0.00000000 1.00000000 0.00000000
vn 0.00000000 0.78086881 -0.62469505
vn 0.00000000 0.78086881 -0.62469505
vn 0.00000000 0.78086881 -0.62469505
vn 0.00000000 0.78086881 -0.62469505
vn 0.00000000 0.08009895 -0.99678692
vn 0.00000000 0.08009895 -0.99678692
vn 0.00000000 0.08009895 -0.99678692
vn 0.00000000 0.08009895 -0.99678692
vn 0.00000000 -1.00000000 0.00000000
vn 0.00000000 -1.00000000 0.00000000
vn 0.00000000 -1.00000000 0.00000000
vn 0.00000000 -1.00000000 0.00000000
vn -0.00000000 0.08009895 0.99678692
vn -0.00000000 0.08009895 0.99678692
vn -0.00000000 0.08009895 0.99678692
vn -0.00000000 0.08009895 0.99678692
vn -0.00000000 0.78086881 0.62469505
vn -0.00000000 0.78086881 0.62469505
vn -0.00000000 0.78086881 0.62469505
vn -0.00000000 0.78086881 0.62469505
vn -0.00000000 1.00000000 0.00000000
vn -0.00000000 1.00000000 0.00000000
vn -0.00000000 1.00000000 0.00000000
vn -0.00000000 1.00000000 0.00000000
vn 0.00000000 0.78086881 -0.62469505
vn 0.00000000 0.78086881 -0.62469505
vn 0.00000000 0.78086881 -0.62469505
vn 0.00000000 0.78086881 -0.62469505
vn 0.00000000 0.08009895 -0.99678692
vn 0.00000000 0.08009895 -0.99678692
vn 0.00000000 0.08009895 -0.99678692
vn 0.00000000 0.08009895 -0.99678692
vn 0.00000000 -1.00000000 0.00000000
vn 0.00000000 -1.00000000 0.00000000
vn 0.00000000 -1.00000000 0.00000000
vn 0.00000000 -1.00000000 0.00000000
vn 0.00000000 0.08009895 0.99678692
vn 0.00000000 0.08009895 0.99678692
vn 0.00000000 0.08009895 0.99678692
vn 0.00330001 0.08800034 0.99611498
vn 0.00330001 0.08800034 0.99611498
vn 0.00330001 0.08800034 0.99611498
vn 0.02927003 0.78053424 0.62442739
vn 0.02927003 0.78053424 0.62442739
vn 0.02927003 0.78053424 0.62442739
vn 0.02927003 0.78053424 0.62442739
vn 0.03747366 0.99929762 0.00000000
vn 0.03747366 0.99929762 0.00000000
vn 0.03747366 0.99929762 0.00000000
vn 0.03747366 0.99929762 0.00000000
vn 0.02927003 0.78053424 -0.62442739
vn 0.02927003 0.78053424 -0.62442739
vn 0.02927003 0.78053424 -0.62442739
vn 0.02927003 0.78053424 -0.62442739
vn 0.00300370 0.08009859 -0.99678242
vn 0.00300370 0.08009859 -0.99678242
vn 0.00300370 0.08009859 -0.99678242
vn 0.00000000 0.08800082 -0.99612040
vn 0.00000000 0.08800082 -0.99612040
vn 0.00000000 0.08800082 -0.99612040
vn 0.00000000 -1.00000000 0.00000000
vn 0.00000000 -1.00000000 0.00000000
vn 0.00000000 -1.00000000 0.00000000
vn 0.00000000 -1.00000000 0.00000000
vn 0.59850711 0.07049900 0.79800948
vn 0.59850711 0.07049900 0.79800948
vn 0.59850711 0.07049900 0.79800948
vn 0.60019018 0.07090605 0.79670828
vn 0.60019018 0.07090605 0.79670828
vn 0.60019018 0.07090605 0.79670828
vn 0.44564010 0.69904329 0.55923463
vn 0.44564010 0.69904329 0.55923463
vn 0.44564010 0.69904329 0.55923463
vn 0.44564010 0.69904329 0.55923463
vn 0.03747366 0.99929762 0.00000000
vn 0.03747366 0.99929762 0.00000000
vn 0.03747366 0.99929762 0.00000000
vn 0.03747366 0.99929762 0.00000000
vn 0.44564010 0.69904329 -0.55923463
vn 0.44564010 0.69904329 -0.55923463
vn 0.44564010 0.69904329 -0.55923463
vn 0.44564010 0.69904329 -0.55923463
vn 0.60019979 0.07038747 -0.79674702
vn 0.60019979 0.07038747 -0.79674702
vn 0.60019979 0.07038747 -0.79674702
vn 0.59848497 0.07101923 -0.79797996
vn 0.59848497 0.07101923 -0.79797996
vn 0.59848497 0.07101923 -0.79797996
vn 0.00000000 -1.00000000 0.00000000
vn 0.00000000 -1.00000000 0.00000000
vn 0.00000000 -1.00000000 0.00000000
vn 0.00000000 -1.00000000 0.00000000
vn 0.00000000 0.08864837 0.99606298
vn 0.00000000 0.08864837 0.99606298
vn 0.00000000 0.08864837 0.99606298
vn 0.00336139 0.08963719 0.99596881
vn 0.00336139 0.08963719 0.99596881
vn 0.00336139 0.08963719 0.99596881
vn 0.02927003 0.78053424 0.62442739
vn 0.02927003 0.78053424 0.62442739
vn 0.02927003 0.78053424 0.62442739
vn 0.02927003 0.78053424 0.62442739
vn 0.03747366 0.99929762 0.00000000
vn 0.03747366 0.99929762 0.00000000
vn 0.03747366 0.99929762 0.00000000
vn 0.03747366 0.99929762 0.00000000
vn 0.02927003 0.78053424 -0.62442739
vn 0.02927003 0.78053424 -0.62442739
vn 0.02927003 0.78053424 -0.62442739
vn 0.02927003 0.78053424 -0.62442739
vn 0.00332430 0.08864788 -0.99605748
vn 0.00332430 0.08864788 -0.99605748
vn 0.00332430 0.08864788 -0.99605748
vn 0.00000000 0.08963770 -0.99597444
vn 0.00000000 0.08963770 -0.99597444
vn 0.00000000 0.08963770 -0.99597444
vn -1.00000000 -0.00000000 0.00000000
vn -1.00000000 -0.00000000 0.00000000
vn -1.00000000 -0.00000000 0.00000000
vn -1.00000000 0.00000000 0.00000000
vn -1.00000000 0.00000000 0.00000000
vn -1.00000000 0.00000000 0.00000000
vn -1.00000000 0.00000000 0.00000000
vn -1.00000000 0.00000000 0.00000000
vn -1.00000000 0.00000000 0.00000000
vn -1.00000000 0.00000000 -0.00000000
vn -1.00000000 0.00000000 -0.00000000
vn -1.00000000 0.00000000 -0.00000000
vn 1.00000000 0.00000000 0.00000000
vn 1.00000000 0.00000000 0.00000000
vn 1.00000000 0.00000000 0.00000000
vn 1.00000000 0.00000000 0.00000000
vn 1.00000000 0.00000000 0.00000000
vn 1.00000000 0.00000000 0.00000000
vn 1.00000000 0.00000000 0.00000000
vn 1.00000000 0.00000000 0.00000000
vn 1.00000000 0.00000000 0.00000000
vn 1.00000000 0.00000000 0.00000000
vn 1.00000000 0.00000000 0.00000000
vn 1.00000000 0.00000000 0.00000000
g sleeper
usemtl mat
f 1/1/1 2/2/2 3/3/3 4/4/4
f 5/5/5 6/6/6 7/7/7
f 8/8/8 9/9/9 10/10/10
f 11/11/11 12/12/12 13/13/13 14/14/14
f 15/15/15 16/16/16 17/17/17 18/18/18
f 19/19/19 20/20/20 21/21/21 22/22/22
f 23/23/23 24/24/24 25/25/25
f 26/26/26 27/27/27 28/28/28
f 29/29/29 30/30/30 31/31/31 32/32/32
f 33/33/33 34/34/34 35/35/35
f 36/36/36 37/37/37 38/38/38
f 39/39/39 40/40/40 41/41/41 42/42/42
f 43/43/43 44/44/44 45/45/45 46/46/46
f 47/47/47 48/48/48 49/49/49 50/50/50
f 51/51/51 52/52/52 53/53/53
f 54/54/54 55/55/55 56/56/56
f 57/57/57 58/58/58 59/59/59 60/60/60
f 61/61/61 62/62/62 63/63/63
f 64/64/64 65/65/65 66/66/66
f 67/67/67 68/68/68 69/69/69 70/70/70
f 71/71/71 72/72/72 73/73/73 74/74/74
f 75/75/75 76/76/76 77/77/77 78/78/78
f 79/79/79 80/80/80 81/81/81
f 82/82/82 83/83/83 84/84/84
f 85/85/85 86/86/86 87/87/87 88/88/88
f 89/89/89 90/90/90 91/91/91 92/92/92
f 93/93/93 94/94/94 95/95/95 96/96/96
f 97/97/97 98/98/98 99/99/99 100/100/100
f 101/101/101 102/102/102 103/103/103 104/104/104
f 105/105/105 106/106/106 107/107/107 108/108/108
f 109/109/109 110/110/110 111/111/111 112/112/112
f 113/113/113 114/114/114 115/115/115 116/116/116
f 117/117/117 118/118/118 119/119/119 120/120/120
f 121/121/121 122/122/122 123/123/123 124/124/124
f 125/125/125 126/126/126 127/127/127 128/128/128
f 129/129/129 130/130/130 131/131/131 132/132/132
f 133/133/133 134/134/134 135/135/135 136/136/136
f 137/137/137 138/138/138 139/139/139 140/140/140
f 141/141/141 142/142/142 143/143/143 144/144/144
f 145/145/145 146/146/146 147/147/147 148/148/148
f 149/149/149 150/150/150 151/151/151 152/152/152
f 153/153/153 154/154/154 155/155/155 156/156/156
f 157/157/157 158/158/158 159/159/159 160/160/160
f 161/161/161 162/162/162 163/163/163
f 164/164/164 165/165/165 166/166/166
f 167/167/167 168/168/168 169/169/169 170/170/170
f 171/171/171 172/172/172 173/173/173 174/174/174
f 175/175/175 176/176/176 177/177/177 178/178/178
f 179/179/179 180/180/180 181/181/181
f 182/182/182 183/183/183 184/184/184
f 185/185/185 186/186/186 187/187/187 188/188/188
f 189/189/189 190/190/190 191/191/191
f 192/192/192 193/193/193 194/194/194
f 195/195/195 196/196/196 197/197/197 198/198/198
f 199/199/199 200/200/200 201/201/201 202/202/202
f 203/203/203 204/204/204 205/205/205 206/206/206
f 207/207/207 208/208/208 209/209/209
f 210/210/210 211/211/211 212/212/212
f 213/213/213 214/214/214 215/215/215 216/216/216
f 217/217/217 218/218/218 219/219/219
f 220/220/220 221/221/221 222/222/222
f 223/223/223 224/224/224 225/225/225 226/226/226
f 227/227/227 228/228/228 229/229/229 230/230/230
f 231/231/231 232/232/232 233/233/233 234/234/234
f 235/235/235 236/236/236 237/237/237
f 238/238/238 239/239/239 240/240/240
f 241/241/241 242/242/242 243/243/243 244/244/244
f 245/245/245 246/246/246 247/247/247
f 248/248/248 249/249/249 250/250/250
f 251/251/251 252/252/252 253/253/253 254/254/254
f 255/255/255 256/256/256 257/257/257 258/258/258
f 259/259/259 260/260/260 261/261/261 262/262/262
f 263/263/263 264/264/264 265/265/265
f 266/266/266 267/267/267 268/268/268
f 269/269/269 270/270/270 271/271/271 272/272/272
f 273/273/273 274/274/274 275/275/275
f 276/276/276 277/277/277 278/278/278
f 279/279/279 280/280/280 281/281/281 282/282/282
f 283/283/283 284/284/284 285/285/285 286/286/286
f 287/287/287 288/288/288 289/289/289 290/290/290
f 291/291/291 292/292/292 293/293/293
f 294/294/294 295/295/295 296/296/296
f 297/297/297 298/298/298 299/299/299 300/300/300
f 301/301/301 302/302/302 303/303/303
f 304/304/304 305/305/305 306/306/306
f 307/307/307 308/308/308 309/309/309 310/310/310
f 311/311/311 312/312/312 313/313/313 314/314/314
f 315/315/315 316/316/316 317/317/317 318/318/318
f 319/319/319 320/320/320 321/321/321
f 322/322/322 323/323/323 324/324/324
f 325/325/325 326/326/326 327/327/327 328/328/328
f 329/329/329 330/330/330 331/331/331
f 332/332/332 333/333/333 334/334/334
f 335/335/335 336/336/336 337/337/337 338/338/338
f 339/339/339 340/340/340 341/341/341 342/342/342
f 343/343/343 344/344/344 345/345/345 346/346/346
f 347/347/347 348/348/348 349/349/349
f 350/350/350 351/351/351 352/352/352
f 353/353/353 354/354/354 355/355/355 356/356/356
f 357/357/357 358/358/358 359/359/359
f 360/360/360 361/361/361 362/362/362
f 363/363/363 364/364/364 365/365/365 366/366/366
f 367/367/367 368/368/368 369/369/369 370/370/370
f 371/371/371 372/372/372 373/373/373 374/374/374
f 375/375/375 376/376/376 377/377/377
f 378/378/378 379/379/379 380/380/380
f 381/381/381 382/382/382 383/383/383 384/384/384
f 385/385/385 386/386/386 387/387/387 388/388/388
f 389/389/389 390/390/390 391/391/391 392/392/392
f 393/393/393 394/394/394 395/395/395 396/396/396
f 397/397/397 398/398/398 399/399/399 400/400/400
f 401/401/401 402/402/402 403/403/403 404/404/404
f 405/405/405 406/406/406 407/407/407 408/408/408
f 409/409/409 410/410/410 411/411/411 412/412/412
f 413/413/413 414/414/414 415/415/415 416/416/416
f 417/417/417 418/418/418 419/419/419 420/420/420
f 421/421/421 422/422/422 423/423/423 424/424/424
f 425/425/425 426/426/426 427/427/427 428/428/428
f 429/429/429 430/430/430 431/431/431 432/432/432
f 433/433/433 434/434/434 435/435/435 436/436/436
f 437/437/437 438/438/438 439/439/439 440/440/440
f 441/441/441 442/442/442 443/443/443 444/444/444
f 445/445/445 446/446/446 447/447/447 448/448/448
f 449/449/449 450/450/450 451/451/451 452/452/452
f 453/453/453 454/454/454 455/455/455 456/456/456
f 457/457/457 458/458/458 459/459/459
f 460/460/460 461/461/461 462/462/462
f 463/463/463 464/464/464 465/465/465 466/466/466
f 467/467/467 468/468/468 469/469/469 470/470/470
f 471/471/471 472/472/472 473/473/473 474/474/474
f 475/475/475 476/476/476 477/477/477
f 478/478/478 479/479/479 480/480/480
f 481/481/481 482/482/482 483/483/483 484/484/484
f 485/485/485 486/486/486 487/487/487
f 488/488/488 489/489/489 490/490/490
f 491/491/491 492/492/492 493/493/493 494/494/494
f 495/495/495 496/496/496 497/497/497 498/498/498
f 499/499/499 500/500/500 501/501/501 502/502/502
f 503/503/503 504/504/504 505/505/505
f 506/506/506 507/507/507 508/508/508
f 509/509/509 510/510/510 511/511/511 512/512/512
f 513/513/513 514/514/514 515/515/515
f 516/516/516 517/517/517 518/518/518
f 519/519/519 520/520/520 521/521/521 522/522/522
f 523/523/523 524/524/524 525/525/525 526/526/526
f 527/527/527 528/528/528 529/529/529 530/530/530
f 531/531/531 532/532/532 533/533/533
f 534/534/534 535/535/535 536/536/536
f 537/537/537 538/538/538 539/539/539
f 540/540/540 541/541/541 542/542/542
f 543/543/543 544/544/544 545/545/545
f 546/546/546 547/547/547 548/548/548
f 549/549/549 550/550/550 551/551/551
f 552/552/552 553/553/553 554/554/554
f 555/555/555 556/556/556 557/557/557
f 558/558/558 559/559/559 560/560/560
