# metres; Y up; CCW outward; repeat 0.6 m
mtllib center_guard_mid.mtl
v -1.850000 -0.304000 -0.300000
v -1.850000 -0.304000 0.000000
v -1.800000 -0.258131 0.000000
v -1.800000 -0.258885 -0.300000
v -1.850000 -0.304000 0.300000
v -1.800000 -0.258885 0.300000
v -1.783750 -0.243412 0.000000
v -1.783750 -0.244412 -0.300000
v -1.783750 -0.244412 0.300000
v -1.717500 -0.185387 0.000000
v -1.717500 -0.187387 -0.300000
v -1.717500 -0.187387 0.300000
v -1.651250 -0.132099 0.000000
v -1.651250 -0.135099 -0.300000
v -1.651250 -0.135099 0.300000
v -1.585000 -0.085000 0.000000
v -1.585000 -0.089000 -0.300000
v -1.585000 -0.089000 0.300000
v -1.518750 -0.044599 0.000000
v -1.518750 -0.049599 -0.300000
v -1.518750 -0.049599 0.300000
v -1.452500 -0.010387 0.000000
v -1.452500 -0.016387 -0.300000
v -1.452500 -0.016387 0.300000
v -1.386250 0.019088 0.000000
v -1.386250 0.012088 -0.300000
v -1.386250 0.012088 0.300000
v -1.414374 0.000000 -0.300000
v -1.386250 0.000000 -0.300000
v -1.386250 0.000000 0.300000
v -1.414374 0.000000 0.300000
v -1.320000 0.046000 0.000000
v -1.320000 0.038000 -0.300000
v -1.320000 0.038000 0.300000
v -1.320000 0.000000 -0.300000
v -1.320000 0.000000 0.300000
v -1.200000 0.034000 0.000000
v -1.200000 0.026000 -0.300000
v -1.200000 0.026000 0.300000
v -1.200000 0.000000 -0.300000
v -1.200000 0.000000 0.300000
v -0.600000 0.034000 0.000000
v -0.600000 0.026000 -0.300000
v -0.600000 0.026000 0.300000
v -0.600000 0.000000 -0.300000
v -0.600000 0.000000 0.300000
v 0.000000 0.034000 0.000000
v 0.000000 0.026000 -0.300000
v 0.000000 0.026000 0.300000
v 0.000000 0.000000 -0.300000
v 0.000000 0.000000 0.300000
v 0.600000 0.034000 0.000000
v 0.600000 0.026000 -0.300000
v 0.600000 0.026000 0.300000
v 0.600000 0.000000 -0.300000
v 0.600000 0.000000 0.300000
v 1.200000 0.034000 0.000000
v 1.200000 0.026000 -0.300000
v 1.200000 0.026000 0.300000
v 1.200000 0.000000 -0.300000
v 1.200000 0.000000 0.300000
v 1.320000 0.046000 0.000000
v 1.320000 0.038000 -0.300000
v 1.320000 0.038000 0.300000
v 1.320000 0.000000 -0.300000
v 1.320000 0.000000 0.300000
v 1.386250 0.019088 0.000000
v 1.386250 0.012088 -0.300000
v 1.386250 0.012088 0.300000
v 1.386250 0.000000 -0.300000
v 1.386250 0.000000 0.300000
v 1.452500 -0.010387 0.000000
v 1.452500 -0.016387 -0.300000
v 1.452500 -0.016387 0.300000
v 1.414374 0.000000 -0.300000
v 1.414374 0.000000 0.300000
v 1.518750 -0.044599 0.000000
v 1.518750 -0.049599 -0.300000
v 1.518750 -0.049599 0.300000
v 1.585000 -0.085000 0.000000
v 1.585000 -0.089000 -0.300000
v 1.585000 -0.089000 0.300000
v 1.651250 -0.132099 0.000000
v 1.651250 -0.135099 -0.300000
v 1.651250 -0.135099 0.300000
v 1.717500 -0.185387 0.000000
v 1.717500 -0.187387 -0.300000
v 1.717500 -0.187387 0.300000
v 1.783750 -0.243412 0.000000
v 1.783750 -0.244412 -0.300000
v 1.783750 -0.244412 0.300000
v 1.800000 -0.258131 0.000000
v 1.800000 -0.258885 -0.300000
v 1.800000 -0.258885 0.300000
v 1.850000 -0.304000 0.000000
v 1.850000 -0.304000 -0.300000
v 1.850000 -0.304000 0.300000
v -1.250000 0.077422 0.096000
v -1.220000 0.077422 0.096000
v -1.220000 0.085422 0.086000
v -1.250000 0.085422 0.086000
v -1.220000 0.085422 -0.086000
v -1.250000 0.085422 -0.086000
v -1.220000 0.077422 -0.096000
v -1.250000 0.077422 -0.096000
v -1.200000 0.077422 0.111000
v -1.200000 0.085422 0.101000
v -1.200000 0.085422 -0.101000
v -1.200000 0.077422 -0.111000
v -0.930000 0.077422 0.111000
v -0.930000 0.085422 0.101000
v -0.930000 0.085422 -0.101000
v -0.930000 0.077422 -0.111000
v -0.751500 0.077422 0.111000
v -0.751500 0.085422 0.101000
v -0.751500 0.085422 -0.101000
v -0.751500 0.077422 -0.111000
v -0.600000 0.077422 0.111000
v -0.600000 0.085422 0.101000
v -0.600000 0.085422 -0.101000
v -0.600000 0.077422 -0.111000
v -0.530000 0.077422 0.111000
v -0.530000 0.085422 0.101000
v -0.530000 0.085422 -0.101000
v -0.530000 0.077422 -0.111000
v -0.400000 0.077422 0.111000
v -0.400000 0.085422 0.101000
v -0.400000 0.085422 -0.101000
v -0.400000 0.077422 -0.111000
v -0.270000 0.077422 0.111000
v -0.270000 0.085422 0.101000
v -0.270000 0.085422 -0.101000
v -0.270000 0.077422 -0.111000
v -0.130000 0.077422 0.111000
v -0.130000 0.085422 0.101000
v -0.130000 0.085422 -0.101000
v -0.130000 0.077422 -0.111000
v 0.000000 0.077422 0.111000
v 0.000000 0.085422 0.101000
v 0.000000 0.085422 -0.101000
v 0.000000 0.077422 -0.111000
v 0.130000 0.077422 0.111000
v 0.130000 0.085422 0.101000
v 0.130000 0.085422 -0.101000
v 0.130000 0.077422 -0.111000
v 0.270000 0.077422 0.111000
v 0.270000 0.085422 0.101000
v 0.270000 0.085422 -0.101000
v 0.270000 0.077422 -0.111000
v 0.400000 0.077422 0.111000
v 0.400000 0.085422 0.101000
v 0.400000 0.085422 -0.101000
v 0.400000 0.077422 -0.111000
v 0.530000 0.077422 0.111000
v 0.530000 0.085422 0.101000
v 0.530000 0.085422 -0.101000
v 0.530000 0.077422 -0.111000
v 0.600000 0.077422 0.111000
v 0.600000 0.085422 0.101000
v 0.600000 0.085422 -0.101000
v 0.600000 0.077422 -0.111000
v 0.751500 0.077422 0.111000
v 0.751500 0.085422 0.101000
v 0.751500 0.085422 -0.101000
v 0.751500 0.077422 -0.111000
v 0.930000 0.077422 0.111000
v 0.930000 0.085422 0.101000
v 0.930000 0.085422 -0.101000
v 0.930000 0.077422 -0.111000
v 1.200000 0.077422 0.111000
v 1.200000 0.085422 0.101000
v 1.200000 0.085422 -0.101000
v 1.200000 0.077422 -0.111000
v 1.220000 0.077422 0.096000
v 1.220000 0.085422 0.086000
v 1.220000 0.085422 -0.086000
v 1.220000 0.077422 -0.096000
v 1.250000 0.077422 0.096000
v 1.250000 0.085422 0.086000
v 1.250000 0.085422 -0.086000
v 1.250000 0.077422 -0.096000
v -1.250000 -0.034578 0.105000
v 1.250000 -0.034578 -0.105000
v -0.820500 0.099422 -0.106000
v -0.826500 0.099422 -0.100000
v -0.826500 0.099422 0.100000
v -0.820500 0.099422 0.106000
v -0.682500 0.099422 0.106000
v -0.676500 0.099422 0.100000
v -0.676500 0.099422 -0.100000
v -0.682500 0.099422 -0.106000
v -0.943500 0.095422 -0.103000
v -0.946500 0.095422 -0.100000
v -0.946500 0.095422 0.100000
v -0.943500 0.095422 0.103000
v -0.823500 0.095422 0.103000
v -0.820500 0.095422 0.100000
v -0.820500 0.095422 -0.100000
v -0.823500 0.095422 -0.103000
v -0.948500 0.126422 -0.107000
v -0.950500 0.126422 -0.105000
v -0.950500 0.126422 0.105000
v -0.948500 0.126422 0.107000
v -0.936500 0.126422 0.107000
v -0.934500 0.126422 0.105000
v -0.934500 0.126422 -0.105000
v -0.936500 0.126422 -0.107000
v -0.939500 0.109500 0.105000
v -0.901500 0.109500 0.105000
v -0.901500 0.109500 -0.105000
v -0.939500 0.109500 -0.105000
v -0.827500 0.123500 0.105000
v -0.827500 0.123500 -0.105000
v -0.819500 0.123500 0.105000
v -0.819500 0.123500 -0.105000
v -0.793500 0.129000 0.105000
v -0.793500 0.129000 -0.105000
v -0.874500 0.192000 0.000000
v -0.879500 0.192000 -0.008660
v -0.889500 0.192000 -0.008660
v -0.894500 0.192000 0.000000
v -0.889500 0.192000 0.008660
v -0.879500 0.192000 0.008660
v -0.854500 0.168000 0.000000
v -0.863287 0.168000 -0.021213
v -0.884500 0.168000 -0.030000
v -0.905713 0.168000 -0.021213
v -0.914500 0.168000 0.000000
v -0.905713 0.168000 0.021213
v -0.884500 0.168000 0.030000
v -0.863287 0.168000 0.021213
v -0.864500 0.186000 0.000000
v -0.874500 0.186000 -0.017321
v -0.894500 0.186000 -0.017321
v -0.904500 0.186000 0.000000
v -0.894500 0.186000 0.017321
v -0.874500 0.186000 0.017321
v -0.866500 0.189000 0.000000
v -0.875500 0.189000 -0.015588
v -0.893500 0.189000 -0.015588
v -0.902500 0.189000 0.000000
v -0.893500 0.189000 0.015588
v -0.875500 0.189000 0.015588
v -0.679500 0.095422 -0.103000
v -0.682500 0.095422 -0.100000
v -0.682500 0.095422 0.100000
v -0.679500 0.095422 0.103000
v -0.559500 0.095422 0.103000
v -0.556500 0.095422 0.100000
v -0.556500 0.095422 -0.100000
v -0.559500 0.095422 -0.103000
v -0.566500 0.126422 -0.107000
v -0.568500 0.126422 -0.105000
v -0.568500 0.126422 0.105000
v -0.566500 0.126422 0.107000
v -0.554500 0.126422 0.107000
v -0.552500 0.126422 0.105000
v -0.552500 0.126422 -0.105000
v -0.554500 0.126422 -0.107000
v -0.563500 0.109500 -0.105000
v -0.601500 0.109500 -0.105000
v -0.601500 0.109500 0.105000
v -0.563500 0.109500 0.105000
v -0.675500 0.123500 -0.105000
v -0.675500 0.123500 0.105000
v -0.683500 0.123500 -0.105000
v -0.683500 0.123500 0.105000
v -0.709500 0.129000 -0.105000
v -0.709500 0.129000 0.105000
v -0.608500 0.192000 0.000000
v -0.613500 0.192000 -0.008660
v -0.623500 0.192000 -0.008660
v -0.628500 0.192000 0.000000
v -0.623500 0.192000 0.008660
v -0.613500 0.192000 0.008660
v -0.588500 0.168000 0.000000
v -0.597287 0.168000 -0.021213
v -0.618500 0.168000 -0.030000
v -0.639713 0.168000 -0.021213
v -0.648500 0.168000 0.000000
v -0.639713 0.168000 0.021213
v -0.618500 0.168000 0.030000
v -0.597287 0.168000 0.021213
v -0.598500 0.186000 0.000000
v -0.608500 0.186000 -0.017321
v -0.628500 0.186000 -0.017321
v -0.638500 0.186000 0.000000
v -0.628500 0.186000 0.017321
v -0.608500 0.186000 0.017321
v -0.600500 0.189000 0.000000
v -0.609500 0.189000 -0.015588
v -0.627500 0.189000 -0.015588
v -0.636500 0.189000 0.000000
v -0.627500 0.189000 0.015588
v -0.609500 0.189000 0.015588
v -0.681500 0.099422 -0.300000
v -0.681500 0.108000 -0.300000
v -0.681500 0.108000 0.300000
v -0.681500 0.099422 0.300000
v -0.687500 0.113000 -0.300000
v -0.687500 0.113000 0.300000
v -0.725500 0.124000 -0.300000
v -0.725500 0.124000 0.300000
v -0.739500 0.134000 -0.300000
v -0.739500 0.134000 0.300000
v -0.742500 0.145000 -0.300000
v -0.742500 0.145000 0.300000
v -0.742500 0.207000 -0.300000
v -0.742500 0.207000 0.300000
v -0.738500 0.219000 -0.300000
v -0.738500 0.219000 0.300000
v -0.724500 0.225000 -0.300000
v -0.724500 0.225000 0.300000
v -0.718500 0.231000 -0.300000
v -0.718500 0.231000 0.300000
v -0.717500 0.239000 -0.300000
v -0.717500 0.239000 0.300000
v -0.717500 0.254000 -0.300000
v -0.717500 0.254000 0.300000
v -0.719500 0.260000 -0.300000
v -0.719500 0.260000 0.300000
v -0.725500 0.264280 -0.300000
v -0.725500 0.264280 0.300000
v -0.777500 0.264280 -0.300000
v -0.777500 0.264280 0.300000
v -0.783500 0.260000 -0.300000
v -0.783500 0.260000 0.300000
v -0.785500 0.254000 -0.300000
v -0.785500 0.254000 0.300000
v -0.785500 0.239000 -0.300000
v -0.785500 0.239000 0.300000
v -0.784500 0.231000 -0.300000
v -0.784500 0.231000 0.300000
v -0.778500 0.225000 -0.300000
v -0.778500 0.225000 0.300000
v -0.764500 0.219000 -0.300000
v -0.764500 0.219000 0.300000
v -0.760500 0.207000 -0.300000
v -0.760500 0.207000 0.300000
v -0.760500 0.145000 -0.300000
v -0.760500 0.145000 0.300000
v -0.763500 0.134000 -0.300000
v -0.763500 0.134000 0.300000
v -0.777500 0.124000 -0.300000
v -0.777500 0.124000 0.300000
v -0.815500 0.113000 -0.300000
v -0.815500 0.113000 0.300000
v -0.821500 0.108000 -0.300000
v -0.821500 0.108000 0.300000
v -0.821500 0.099422 -0.300000
v -0.821500 0.099422 0.300000
v 0.682500 0.099422 -0.106000
v 0.676500 0.099422 -0.100000
v 0.676500 0.099422 0.100000
v 0.682500 0.099422 0.106000
v 0.820500 0.099422 0.106000
v 0.826500 0.099422 0.100000
v 0.826500 0.099422 -0.100000
v 0.820500 0.099422 -0.106000
v 0.559500 0.095422 -0.103000
v 0.556500 0.095422 -0.100000
v 0.556500 0.095422 0.100000
v 0.559500 0.095422 0.103000
v 0.679500 0.095422 0.103000
v 0.682500 0.095422 0.100000
v 0.682500 0.095422 -0.100000
v 0.679500 0.095422 -0.103000
v 0.554500 0.126422 -0.107000
v 0.552500 0.126422 -0.105000
v 0.552500 0.126422 0.105000
v 0.554500 0.126422 0.107000
v 0.566500 0.126422 0.107000
v 0.568500 0.126422 0.105000
v 0.568500 0.126422 -0.105000
v 0.566500 0.126422 -0.107000
v 0.563500 0.109500 0.105000
v 0.601500 0.109500 0.105000
v 0.601500 0.109500 -0.105000
v 0.563500 0.109500 -0.105000
v 0.675500 0.123500 0.105000
v 0.675500 0.123500 -0.105000
v 0.683500 0.123500 0.105000
v 0.683500 0.123500 -0.105000
v 0.709500 0.129000 0.105000
v 0.709500 0.129000 -0.105000
v 0.628500 0.192000 0.000000
v 0.623500 0.192000 -0.008660
v 0.613500 0.192000 -0.008660
v 0.608500 0.192000 0.000000
v 0.613500 0.192000 0.008660
v 0.623500 0.192000 0.008660
v 0.648500 0.168000 0.000000
v 0.639713 0.168000 -0.021213
v 0.618500 0.168000 -0.030000
v 0.597287 0.168000 -0.021213
v 0.588500 0.168000 0.000000
v 0.597287 0.168000 0.021213
v 0.618500 0.168000 0.030000
v 0.639713 0.168000 0.021213
v 0.638500 0.186000 0.000000
v 0.628500 0.186000 -0.017321
v 0.608500 0.186000 -0.017321
v 0.598500 0.186000 0.000000
v 0.608500 0.186000 0.017321
v 0.628500 0.186000 0.017321
v 0.636500 0.189000 0.000000
v 0.627500 0.189000 -0.015588
v 0.609500 0.189000 -0.015588
v 0.600500 0.189000 0.000000
v 0.609500 0.189000 0.015588
v 0.627500 0.189000 0.015588
v 0.823500 0.095422 -0.103000
v 0.820500 0.095422 -0.100000
v 0.820500 0.095422 0.100000
v 0.823500 0.095422 0.103000
v 0.943500 0.095422 0.103000
v 0.946500 0.095422 0.100000
v 0.946500 0.095422 -0.100000
v 0.943500 0.095422 -0.103000
v 0.936500 0.126422 -0.107000
v 0.934500 0.126422 -0.105000
v 0.934500 0.126422 0.105000
v 0.936500 0.126422 0.107000
v 0.948500 0.126422 0.107000
v 0.950500 0.126422 0.105000
v 0.950500 0.126422 -0.105000
v 0.948500 0.126422 -0.107000
v 0.939500 0.109500 -0.105000
v 0.901500 0.109500 -0.105000
v 0.901500 0.109500 0.105000
v 0.939500 0.109500 0.105000
v 0.827500 0.123500 -0.105000
v 0.827500 0.123500 0.105000
v 0.819500 0.123500 -0.105000
v 0.819500 0.123500 0.105000
v 0.793500 0.129000 -0.105000
v 0.793500 0.129000 0.105000
v 0.894500 0.192000 0.000000
v 0.889500 0.192000 -0.008660
v 0.879500 0.192000 -0.008660
v 0.874500 0.192000 0.000000
v 0.879500 0.192000 0.008660
v 0.889500 0.192000 0.008660
v 0.914500 0.168000 0.000000
v 0.905713 0.168000 -0.021213
v 0.884500 0.168000 -0.030000
v 0.863287 0.168000 -0.021213
v 0.854500 0.168000 0.000000
v 0.863287 0.168000 0.021213
v 0.884500 0.168000 0.030000
v 0.905713 0.168000 0.021213
v 0.904500 0.186000 0.000000
v 0.894500 0.186000 -0.017321
v 0.874500 0.186000 -0.017321
v 0.864500 0.186000 0.000000
v 0.874500 0.186000 0.017321
v 0.894500 0.186000 0.017321
v 0.902500 0.189000 0.000000
v 0.893500 0.189000 -0.015588
v 0.875500 0.189000 -0.015588
v 0.866500 0.189000 0.000000
v 0.875500 0.189000 0.015588
v 0.893500 0.189000 0.015588
v 0.821500 0.099422 -0.300000
v 0.821500 0.108000 -0.300000
v 0.821500 0.108000 0.300000
v 0.821500 0.099422 0.300000
v 0.815500 0.113000 -0.300000
v 0.815500 0.113000 0.300000
v 0.777500 0.124000 -0.300000
v 0.777500 0.124000 0.300000
v 0.763500 0.134000 -0.300000
v 0.763500 0.134000 0.300000
v 0.760500 0.145000 -0.300000
v 0.760500 0.145000 0.300000
v 0.760500 0.207000 -0.300000
v 0.760500 0.207000 0.300000
v 0.764500 0.219000 -0.300000
v 0.764500 0.219000 0.300000
v 0.778500 0.225000 -0.300000
v 0.778500 0.225000 0.300000
v 0.784500 0.231000 -0.300000
v 0.784500 0.231000 0.300000
v 0.785500 0.239000 -0.300000
v 0.785500 0.239000 0.300000
v 0.785500 0.254000 -0.300000
v 0.785500 0.254000 0.300000
v 0.783500 0.260000 -0.300000
v 0.783500 0.260000 0.300000
v 0.777500 0.264280 -0.300000
v 0.777500 0.264280 0.300000
v 0.725500 0.264280 -0.300000
v 0.725500 0.264280 0.300000
v 0.719500 0.260000 -0.300000
v 0.719500 0.260000 0.300000
v 0.717500 0.254000 -0.300000
v 0.717500 0.254000 0.300000
v 0.717500 0.239000 -0.300000
v 0.717500 0.239000 0.300000
v 0.718500 0.231000 -0.300000
v 0.718500 0.231000 0.300000
v 0.724500 0.225000 -0.300000
v 0.724500 0.225000 0.300000
v 0.738500 0.219000 -0.300000
v 0.738500 0.219000 0.300000
v 0.742500 0.207000 -0.300000
v 0.742500 0.207000 0.300000
v 0.742500 0.145000 -0.300000
v 0.742500 0.145000 0.300000
v 0.739500 0.134000 -0.300000
v 0.739500 0.134000 0.300000
v 0.725500 0.124000 -0.300000
v 0.725500 0.124000 0.300000
v 0.687500 0.113000 -0.300000
v 0.687500 0.113000 0.300000
v 0.681500 0.108000 -0.300000
v 0.681500 0.108000 0.300000
v 0.681500 0.099422 -0.300000
v 0.681500 0.099422 0.300000
v -0.482000 0.095422 -0.105000
v -0.488000 0.095422 -0.099000
v -0.488000 0.095422 0.099000
v -0.482000 0.095422 0.105000
v -0.230000 0.095422 0.105000
v -0.224000 0.095422 0.099000
v -0.224000 0.095422 -0.099000
v -0.230000 0.095422 -0.105000
v -0.425000 0.099422 -0.102000
v -0.431000 0.099422 -0.096000
v -0.431000 0.099422 0.096000
v -0.425000 0.099422 0.102000
v -0.287000 0.099422 0.102000
v -0.281000 0.099422 0.096000
v -0.281000 0.099422 -0.096000
v -0.287000 0.099422 -0.102000
v -0.481000 0.124422 -0.075000
v -0.484000 0.124422 -0.072000
v -0.484000 0.124422 0.072000
v -0.481000 0.124422 0.075000
v -0.409000 0.124422 0.075000
v -0.406000 0.124422 0.072000
v -0.406000 0.124422 -0.072000
v -0.409000 0.124422 -0.075000
v -0.445000 0.144422 0.000000
v -0.453500 0.144422 -0.014722
v -0.470500 0.144422 -0.014722
v -0.479000 0.144422 0.000000
v -0.470500 0.144422 0.014722
v -0.453500 0.144422 0.014722
v -0.303000 0.124422 -0.075000
v -0.306000 0.124422 -0.072000
v -0.306000 0.124422 0.072000
v -0.303000 0.124422 0.075000
v -0.231000 0.124422 0.075000
v -0.228000 0.124422 0.072000
v -0.228000 0.124422 -0.072000
v -0.231000 0.124422 -0.075000
v -0.233000 0.144422 0.000000
v -0.241500 0.144422 -0.014722
v -0.258500 0.144422 -0.014722
v -0.267000 0.144422 0.000000
v -0.258500 0.144422 0.014722
v -0.241500 0.144422 0.014722
v -0.286000 0.099422 -0.300000
v -0.286000 0.108000 -0.300000
v -0.286000 0.108000 0.300000
v -0.286000 0.099422 0.300000
v -0.292000 0.113000 -0.300000
v -0.292000 0.113000 0.300000
v -0.330000 0.124000 -0.300000
v -0.330000 0.124000 0.300000
v -0.344000 0.134000 -0.300000
v -0.344000 0.134000 0.300000
v -0.347000 0.145000 -0.300000
v -0.347000 0.145000 0.300000
v -0.347000 0.207000 -0.300000
v -0.347000 0.207000 0.300000
v -0.343000 0.219000 -0.300000
v -0.343000 0.219000 0.300000
v -0.329000 0.225000 -0.300000
v -0.329000 0.225000 0.300000
v -0.323000 0.231000 -0.300000
v -0.323000 0.231000 0.300000
v -0.322000 0.239000 -0.300000
v -0.322000 0.239000 0.300000
v -0.322000 0.254000 -0.300000
v -0.322000 0.254000 0.300000
v -0.324000 0.260000 -0.300000
v -0.324000 0.260000 0.300000
v -0.330000 0.264280 -0.300000
v -0.330000 0.264280 0.300000
v -0.382000 0.264280 -0.300000
v -0.382000 0.264280 0.300000
v -0.388000 0.260000 -0.300000
v -0.388000 0.260000 0.300000
v -0.390000 0.254000 -0.300000
v -0.390000 0.254000 0.300000
v -0.390000 0.239000 -0.300000
v -0.390000 0.239000 0.300000
v -0.389000 0.231000 -0.300000
v -0.389000 0.231000 0.300000
v -0.383000 0.225000 -0.300000
v -0.383000 0.225000 0.300000
v -0.369000 0.219000 -0.300000
v -0.369000 0.219000 0.300000
v -0.365000 0.207000 -0.300000
v -0.365000 0.207000 0.300000
v -0.365000 0.145000 -0.300000
v -0.365000 0.145000 0.300000
v -0.368000 0.134000 -0.300000
v -0.368000 0.134000 0.300000
v -0.382000 0.124000 -0.300000
v -0.382000 0.124000 0.300000
v -0.420000 0.113000 -0.300000
v -0.420000 0.113000 0.300000
v -0.426000 0.108000 -0.300000
v -0.426000 0.108000 0.300000
v -0.426000 0.099422 -0.300000
v -0.426000 0.099422 0.300000
v 0.230000 0.095422 -0.105000
v 0.224000 0.095422 -0.099000
v 0.224000 0.095422 0.099000
v 0.230000 0.095422 0.105000
v 0.482000 0.095422 0.105000
v 0.488000 0.095422 0.099000
v 0.488000 0.095422 -0.099000
v 0.482000 0.095422 -0.105000
v 0.287000 0.099422 -0.102000
v 0.281000 0.099422 -0.096000
v 0.281000 0.099422 0.096000
v 0.287000 0.099422 0.102000
v 0.425000 0.099422 0.102000
v 0.431000 0.099422 0.096000
v 0.431000 0.099422 -0.096000
v 0.425000 0.099422 -0.102000
v 0.231000 0.124422 -0.075000
v 0.228000 0.124422 -0.072000
v 0.228000 0.124422 0.072000
v 0.231000 0.124422 0.075000
v 0.303000 0.124422 0.075000
v 0.306000 0.124422 0.072000
v 0.306000 0.124422 -0.072000
v 0.303000 0.124422 -0.075000
v 0.267000 0.144422 0.000000
v 0.258500 0.144422 -0.014722
v 0.241500 0.144422 -0.014722
v 0.233000 0.144422 0.000000
v 0.241500 0.144422 0.014722
v 0.258500 0.144422 0.014722
v 0.409000 0.124422 -0.075000
v 0.406000 0.124422 -0.072000
v 0.406000 0.124422 0.072000
v 0.409000 0.124422 0.075000
v 0.481000 0.124422 0.075000
v 0.484000 0.124422 0.072000
v 0.484000 0.124422 -0.072000
v 0.481000 0.124422 -0.075000
v 0.479000 0.144422 0.000000
v 0.470500 0.144422 -0.014722
v 0.453500 0.144422 -0.014722
v 0.445000 0.144422 0.000000
v 0.453500 0.144422 0.014722
v 0.470500 0.144422 0.014722
v 0.426000 0.099422 -0.300000
v 0.426000 0.108000 -0.300000
v 0.426000 0.108000 0.300000
v 0.426000 0.099422 0.300000
v 0.420000 0.113000 -0.300000
v 0.420000 0.113000 0.300000
v 0.382000 0.124000 -0.300000
v 0.382000 0.124000 0.300000
v 0.368000 0.134000 -0.300000
v 0.368000 0.134000 0.300000
v 0.365000 0.145000 -0.300000
v 0.365000 0.145000 0.300000
v 0.365000 0.207000 -0.300000
v 0.365000 0.207000 0.300000
v 0.369000 0.219000 -0.300000
v 0.369000 0.219000 0.300000
v 0.383000 0.225000 -0.300000
v 0.383000 0.225000 0.300000
v 0.389000 0.231000 -0.300000
v 0.389000 0.231000 0.300000
v 0.390000 0.239000 -0.300000
v 0.390000 0.239000 0.300000
v 0.390000 0.254000 -0.300000
v 0.390000 0.254000 0.300000
v 0.388000 0.260000 -0.300000
v 0.388000 0.260000 0.300000
v 0.382000 0.264280 -0.300000
v 0.382000 0.264280 0.300000
v 0.330000 0.264280 -0.300000
v 0.330000 0.264280 0.300000
v 0.324000 0.260000 -0.300000
v 0.324000 0.260000 0.300000
v 0.322000 0.254000 -0.300000
v 0.322000 0.254000 0.300000
v 0.322000 0.239000 -0.300000
v 0.322000 0.239000 0.300000
v 0.323000 0.231000 -0.300000
v 0.323000 0.231000 0.300000
v 0.329000 0.225000 -0.300000
v 0.329000 0.225000 0.300000
v 0.343000 0.219000 -0.300000
v 0.343000 0.219000 0.300000
v 0.347000 0.207000 -0.300000
v 0.347000 0.207000 0.300000
v 0.347000 0.145000 -0.300000
v 0.347000 0.145000 0.300000
v 0.344000 0.134000 -0.300000
v 0.344000 0.134000 0.300000
v 0.330000 0.124000 -0.300000
v 0.330000 0.124000 0.300000
v 0.292000 0.113000 -0.300000
v 0.292000 0.113000 0.300000
v 0.286000 0.108000 -0.300000
v 0.286000 0.108000 0.300000
v 0.286000 0.099422 -0.300000
v 0.286000 0.099422 0.300000
vt 0.96281250 0.01585821
vt 0.96281250 0.25373134
vt 0.98937500 0.25373134
vt 0.98937500 0.01585821
vt 0.96281250 0.49160448
vt 0.98937500 0.49160448
vt 0.67062500 0.01585821
vt 0.67062500 0.25373134
vt 0.67925781 0.25373134
vt 0.67925781 0.01585821
vt 0.67062500 0.49160448
vt 0.67925781 0.49160448
vt 0.71445312 0.25373134
vt 0.71445312 0.01585821
vt 0.71445312 0.49160448
vt 0.74964844 0.25373134
vt 0.74964844 0.01585821
vt 0.74964844 0.49160448
vt 0.78484375 0.25373134
vt 0.78484375 0.01585821
vt 0.78484375 0.49160448
vt 0.82003906 0.25373134
vt 0.82003906 0.01585821
vt 0.82003906 0.49160448
vt 0.85523437 0.25373134
vt 0.85523437 0.01585821
vt 0.85523437 0.49160448
vt 0.89042969 0.25373134
vt 0.89042969 0.01585821
vt 0.89042969 0.49160448
vt 0.87548894 0.01585821
vt 0.89042969 0.02544297
vt 0.87548894 0.49160448
vt 0.85523437 0.47861081
vt 0.92562500 0.25373134
vt 0.92562500 0.01585821
vt 0.92562500 0.49160448
vt 0.92562500 0.04598881
vt 0.98937500 0.03647388
vt 0.67062500 0.03647388
vt 0.73437500 0.25373134
vt 0.73437500 0.01585821
vt 0.73437500 0.49160448
vt 0.73437500 0.04598881
vt 0.76957031 0.25373134
vt 0.76957031 0.01585821
vt 0.76957031 0.49160448
vt 0.76957031 0.02544297
vt 0.80476563 0.25373134
vt 0.80476563 0.01585821
vt 0.80476563 0.49160448
vt 0.78451106 0.01585821
vt 0.80476563 0.47861081
vt 0.78451106 0.49160448
vt 0.83996094 0.25373134
vt 0.83996094 0.01585821
vt 0.83996094 0.49160448
vt 0.87515625 0.25373134
vt 0.87515625 0.01585821
vt 0.87515625 0.49160448
vt 0.91035156 0.25373134
vt 0.91035156 0.01585821
vt 0.91035156 0.49160448
vt 0.94554688 0.25373134
vt 0.94554688 0.01585821
vt 0.94554688 0.49160448
vt 0.98074219 0.25373134
vt 0.98074219 0.01585821
vt 0.98074219 0.49160448
vt 0.69718750 0.25373134
vt 0.69718750 0.01585821
vt 0.69718750 0.49160448
vt 0.30281250 0.32985075
vt 0.31875000 0.32985075
vt 0.31875000 0.32192164
vt 0.30281250 0.32192164
vt 0.31875000 0.18554104
vt 0.30281250 0.18554104
vt 0.31875000 0.17761194
vt 0.30281250 0.17761194
vt 0.32937500 0.34174440
vt 0.32937500 0.33381530
vt 0.32937500 0.17364739
vt 0.32937500 0.16571828
vt 0.01062500 0.34174440
vt 0.15406250 0.34174440
vt 0.15406250 0.33381530
vt 0.01062500 0.33381530
vt 0.15406250 0.17364739
vt 0.01062500 0.17364739
vt 0.15406250 0.16571828
vt 0.01062500 0.16571828
vt 0.24889063 0.34174440
vt 0.24889063 0.33381530
vt 0.24889063 0.17364739
vt 0.24889063 0.16571828
vt 0.04781250 0.34174440
vt 0.04781250 0.33381530
vt 0.04781250 0.17364739
vt 0.04781250 0.16571828
vt 0.11687500 0.34174440
vt 0.11687500 0.33381530
vt 0.11687500 0.17364739
vt 0.11687500 0.16571828
vt 0.18593750 0.34174440
vt 0.18593750 0.33381530
vt 0.18593750 0.17364739
vt 0.18593750 0.16571828
vt 0.26031250 0.34174440
vt 0.26031250 0.33381530
vt 0.26031250 0.17364739
vt 0.26031250 0.16571828
vt 0.07968750 0.34174440
vt 0.07968750 0.33381530
vt 0.07968750 0.17364739
vt 0.07968750 0.16571828
vt 0.22312500 0.34174440
vt 0.22312500 0.33381530
vt 0.22312500 0.17364739
vt 0.22312500 0.16571828
vt 0.29218750 0.34174440
vt 0.29218750 0.33381530
vt 0.29218750 0.17364739
vt 0.29218750 0.16571828
vt 0.09110937 0.34174440
vt 0.09110937 0.33381530
vt 0.09110937 0.17364739
vt 0.09110937 0.16571828
vt 0.02125000 0.32985075
vt 0.02125000 0.32192164
vt 0.02125000 0.18554104
vt 0.02125000 0.17761194
vt 0.03718750 0.32985075
vt 0.03718750 0.32192164
vt 0.03718750 0.18554104
vt 0.03718750 0.17761194
vt 0.04250000 0.45988806
vt 0.30945312 0.01585821
vt 0.29750000 0.45988806
vt 0.28421875 0.49160448
vt 0.05578125 0.49160448
vt 0.03054688 0.01585821
vt 0.61016000 0.31082090
vt 0.60837500 0.31566812
vt 0.60837500 0.47724233
vt 0.61016000 0.48208955
vt 0.65121500 0.48208955
vt 0.65300000 0.47724233
vt 0.65300000 0.31566812
vt 0.65121500 0.31082090
vt 0.34631696 0.01585821
vt 0.34062500 0.02278655
vt 0.34062500 0.48467613
vt 0.34631696 0.49160448
vt 0.57399554 0.49160448
vt 0.57968750 0.48467613
vt 0.57968750 0.02278655
vt 0.57399554 0.01585821
vt 0.61395312 0.02537313
vt 0.60837500 0.02697378
vt 0.60837500 0.19504115
vt 0.61395312 0.19664179
vt 0.64742188 0.19664179
vt 0.65300000 0.19504115
vt 0.65300000 0.02697378
vt 0.64742188 0.02537313
vt 0.34062500 0.49160448
vt 0.57968750 0.49160448
vt 0.57968750 0.01585821
vt 0.34062500 0.01585821
vt 0.57968750 0.25373134
vt 0.51992188 0.04772717
vt 0.40039062 0.04772717
vt 0.34062500 0.25373134
vt 0.40039062 0.45973552
vt 0.51992188 0.45973552
vt 0.54467761 0.08552964
vt 0.46015625 0.01585821
vt 0.37563489 0.08552964
vt 0.37563489 0.42193305
vt 0.46015625 0.49160448
vt 0.54467761 0.42193305
vt 0.01062500 0.50839552
vt 0.01062500 0.53314987
vt 0.32937500 0.53314987
vt 0.32937500 0.50839552
vt 0.01062500 0.54757884
vt 0.32937500 0.54757884
vt 0.01062500 0.57932257
vt 0.32937500 0.57932257
vt 0.01062500 0.60818052
vt 0.32937500 0.60818052
vt 0.01062500 0.63992425
vt 0.32937500 0.63992425
vt 0.01062500 0.81884350
vt 0.32937500 0.81884350
vt 0.01062500 0.85347303
vt 0.32937500 0.85347303
vt 0.01062500 0.87078779
vt 0.32937500 0.87078779
vt 0.01062500 0.88810256
vt 0.32937500 0.88810256
vt 0.01062500 0.91118891
vt 0.32937500 0.91118891
vt 0.01062500 0.95447583
vt 0.32937500 0.95447583
vt 0.01062500 0.97179059
vt 0.32937500 0.97179059
vt 0.34062500 0.97014925
vt 0.34062500 0.92817164
vt 0.65937500 0.92817164
vt 0.65937500 0.97014925
vt 0.34062500 0.56436567
vt 0.65937500 0.56436567
vt 0.34062500 0.52238806
vt 0.65937500 0.52238806
vt 0.01062500 0.57500000
vt 0.32937500 0.57500000
vt 0.98937500 0.50839552
vt 0.67062500 0.50839552
vt 0.67062500 0.53314987
vt 0.68428571 0.54757884
vt 0.77080357 0.57932257
vt 0.80267857 0.60818052
vt 0.80040179 0.85347303
vt 0.76852679 0.87078779
vt 0.75486607 0.88810256
vt 0.75258929 0.91118891
vt 0.75258929 0.95447583
vt 0.75714286 0.97179059
vt 0.77080357 0.98414179
vt 0.80950893 0.81884350
vt 0.88919643 0.98414179
vt 0.90285714 0.97179059
vt 0.90741071 0.95447583
vt 0.90741071 0.91118891
vt 0.90513393 0.88810256
vt 0.89147321 0.87078779
vt 0.85959821 0.85347303
vt 0.85049107 0.81884350
vt 0.80950893 0.63992425
vt 0.85049107 0.63992425
vt 0.85732143 0.60818052
vt 0.88919643 0.57932257
vt 0.97571429 0.54757884
vt 0.98937500 0.53314987
vt 0.34605824 0.01585821
vt 0.34062500 0.02945096
vt 0.34062500 0.47801173
vt 0.34605824 0.49160448
vt 0.57425426 0.49160448
vt 0.57968750 0.47801173
vt 0.57968750 0.02945096
vt 0.57425426 0.01585821
vt 0.60837500 0.31585821
vt 0.60837500 0.47705224
vt 0.65300000 0.47705224
vt 0.65300000 0.31585821
vt 0.34981971 0.01585821
vt 0.34062500 0.02537313
vt 0.34062500 0.48208955
vt 0.34981971 0.49160448
vt 0.57049279 0.49160448
vt 0.57968750 0.48208955
vt 0.57968750 0.02537313
vt 0.57049279 0.01585821
vt 0.01062500 0.98414179
vt 0.32937500 0.98414179
vn -0.67601314 0.73688957 0.00000000
vn -0.66990359 0.74244575 -0.00186779
vn -0.66990476 0.74244705 0.00000000
vn -0.67601198 0.73688830 0.00185381
vn -0.67132147 0.74116396 -0.00186456
vn -0.66510533 0.74674541 -0.00248915
vn -0.66510621 0.74674641 0.00187861
vn -0.67132058 0.74116299 0.00247054
vn -0.65886181 0.75225981 -0.00250753
vn -0.65235724 0.75789478 -0.00505263
vn -0.65236349 0.75790204 0.00252634
vn -0.65885560 0.75225272 0.00501502
vn -0.62674989 0.77920318 -0.00519469
vn -0.61951841 0.78494288 -0.00784943
vn -0.61952901 0.78495632 0.00523304
vn -0.62673932 0.77919004 0.00779190
vn -0.57940804 0.81499687 -0.00814997
vn -0.57113334 0.82078434 -0.01094379
vn -0.57114831 0.82080585 0.00820806
vn -0.57939307 0.81497582 0.01086634
vn -0.52061463 0.85371590 -0.01138288
vn -0.51110737 0.85939752 -0.01432329
vn -0.51112625 0.85942926 0.01145906
vn -0.52059566 0.85368479 0.01422808
vn -0.45878801 0.88842238 -0.01480704
vn -0.44808089 0.89381427 -0.01787629
vn -0.44810276 0.89385792 0.01489763
vn -0.45876588 0.88837953 0.01776759
vn -0.40642676 0.91350068 -0.01827001
vn -0.39479511 0.91851918 -0.02143211
vn -0.39481917 0.91857515 0.01837150
vn -0.40640227 0.91344563 0.02131373
vn 0.00000000 0.00000000 -1.00000000
vn 0.00000000 0.00000000 1.00000000
vn -0.37626353 0.92626057 -0.02161275
vn -0.36414097 0.93101287 -0.02482701
vn -0.36416728 0.93108013 0.02172520
vn -0.37623663 0.92619435 0.02469852
vn 0.09946871 0.99468709 -0.02652499
vn 0.09946871 0.99468709 0.02652499
vn 0.00000000 0.99964463 -0.02665719
vn -0.00000000 0.99964463 0.02665719
vn -0.09946871 0.99468709 -0.02652499
vn -0.09946871 0.99468709 0.02652499
vn 0.37623663 0.92619435 -0.02469852
vn 0.36416728 0.93108013 -0.02172520
vn 0.36414097 0.93101287 0.02482701
vn 0.37626353 0.92626057 0.02161275
vn 0.40640227 0.91344563 -0.02131373
vn 0.39481917 0.91857515 -0.01837150
vn 0.39479511 0.91851918 0.02143211
vn 0.40642676 0.91350068 0.01827001
vn 0.45876588 0.88837953 -0.01776759
vn 0.44810276 0.89385792 -0.01489763
vn 0.44808089 0.89381427 0.01787629
vn 0.45878801 0.88842238 0.01480704
vn 0.52059566 0.85368479 -0.01422808
vn 0.51112625 0.85942926 -0.01145906
vn 0.51110737 0.85939752 0.01432329
vn 0.52061463 0.85371590 0.01138288
vn 0.57939307 0.81497582 -0.01086634
vn 0.57114831 0.82080585 -0.00820806
vn 0.57113334 0.82078434 0.01094379
vn 0.57940804 0.81499687 0.00814997
vn 0.62673932 0.77919004 -0.00779190
vn 0.61952901 0.78495632 -0.00523304
vn 0.61951841 0.78494288 0.00784943
vn 0.62674989 0.77920318 0.00519469
vn 0.65885560 0.75225272 -0.00501502
vn 0.65236349 0.75790204 -0.00252634
vn 0.65235724 0.75789478 0.00505263
vn 0.65886181 0.75225981 0.00250753
vn 0.67132058 0.74116299 -0.00247054
vn 0.66510621 0.74674641 -0.00187861
vn 0.66510533 0.74674541 0.00248915
vn 0.67132147 0.74116396 0.00186456
vn 0.67601198 0.73688830 -0.00185381
vn 0.66990476 0.74244705 0.00000000
vn 0.66990359 0.74244575 0.00186779
vn 0.67601314 0.73688957 0.00000000
vn -0.00000000 0.78086881 0.62469505
vn -0.00000000 1.00000000 0.00000000
vn 0.00000000 0.78086881 -0.62469505
vn -0.42426407 0.70710678 0.56568542
vn -0.42426407 0.70710678 -0.56568542
vn 0.42426407 0.70710678 0.56568542
vn 0.42426407 0.70710678 -0.56568542
vn -1.00000000 0.00000000 0.00000000
vn 1.00000000 0.00000000 0.00000000
vn -0.18589167 0.98257025 0.00000000
vn -0.20695859 0.97834970 0.00000000
vn 0.18589167 0.98257025 0.00000000
vn 0.20695859 0.97834970 0.00000000
vn 0.64018440 0.76822128 0.00000000
vn 0.27805808 0.96056426 0.00000000
vn 0.58123819 0.81373347 0.00000000
vn 0.96476382 0.26311741 0.00000000
vn 0.94868330 -0.31622777 0.00000000
vn 0.39391930 -0.91914503 0.00000000
vn 0.70710678 -0.70710678 0.00000000
vn 0.99227788 -0.12403473 0.00000000
vn 0.94868330 0.31622777 0.00000000
vn 0.58072468 0.81410002 0.00000000
vn -0.58072468 0.81410002 0.00000000
vn -0.94868330 0.31622777 0.00000000
vn -0.99227788 -0.12403473 0.00000000
vn -0.70710678 -0.70710678 0.00000000
vn -0.39391930 -0.91914503 0.00000000
vn -0.94868330 -0.31622777 0.00000000
vn -0.96476382 0.26311741 0.00000000
vn -0.58123819 0.81373347 0.00000000
vn -0.27805808 0.96056426 0.00000000
vn -0.64018440 0.76822128 0.00000000
vn 0.00000000 -1.00000000 0.00000000
g ballast
usemtl mat
f 1/1/1 2/2/1 3/3/1
f 3/3/2 4/4/2 1/1/2
f 2/2/3 5/5/3 6/6/3
f 6/6/4 3/3/4 2/2/4
f 4/7/5 3/8/5 7/9/5
f 7/9/6 8/10/6 4/7/6
f 3/8/7 6/11/7 9/12/7
f 9/12/8 7/9/8 3/8/8
f 8/10/9 7/9/9 10/13/9
f 10/13/10 11/14/10 8/10/10
f 7/9/11 9/12/11 12/15/11
f 12/15/12 10/13/12 7/9/12
f 11/14/13 10/13/13 13/16/13
f 13/16/14 14/17/14 11/14/14
f 10/13/15 12/15/15 15/18/15
f 15/18/16 13/16/16 10/13/16
f 14/17/17 13/16/17 16/19/17
f 16/19/18 17/20/18 14/17/18
f 13/16/19 15/18/19 18/21/19
f 18/21/20 16/19/20 13/16/20
f 17/20/21 16/19/21 19/22/21
f 19/22/22 20/23/22 17/20/22
f 16/19/23 18/21/23 21/24/23
f 21/24/24 19/22/24 16/19/24
f 20/23/25 19/22/25 22/25/25
f 22/25/26 23/26/26 20/23/26
f 19/22/27 21/24/27 24/27/27
f 24/27/28 22/25/28 19/22/28
f 23/26/29 22/25/29 25/28/29
f 25/28/30 26/29/30 23/26/30
f 22/25/31 24/27/31 27/30/31
f 27/30/32 25/28/32 22/25/32
f 28/31/33 26/32/33 29/29/33
f 30/30/34 31/33/34 24/34/34
f 30/29/34 27/32/34 31/31/34
f 26/29/35 25/28/35 32/35/35
f 32/35/36 33/36/36 26/29/36
f 25/28/37 27/30/37 34/37/37
f 34/37/38 32/35/38 25/28/38
f 29/29/33 26/32/33 33/38/33 35/36/33
f 36/36/34 34/38/34 27/32/34 30/29/34
f 32/35/39 37/3/39 38/4/39 33/36/39
f 34/37/40 39/6/40 37/3/40 32/35/40
f 35/36/33 33/38/33 38/39/33 40/4/33
f 41/4/34 39/39/34 34/38/34 36/36/34
f 37/8/41 42/3/41 43/4/41 38/7/41
f 39/11/42 44/6/42 42/3/42 37/8/42
f 40/7/33 38/40/33 43/39/33 45/4/33
f 46/4/34 44/39/34 39/40/34 41/7/34
f 42/8/41 47/3/41 48/4/41 43/7/41
f 44/11/42 49/6/42 47/3/42 42/8/42
f 45/7/33 43/40/33 48/39/33 50/4/33
f 51/4/34 49/39/34 44/40/34 46/7/34
f 47/8/41 52/3/41 53/4/41 48/7/41
f 49/11/42 54/6/42 52/3/42 47/8/42
f 50/7/33 48/40/33 53/39/33 55/4/33
f 56/4/34 54/39/34 49/40/34 51/7/34
f 52/8/41 57/3/41 58/4/41 53/7/41
f 54/11/42 59/6/42 57/3/42 52/8/42
f 55/7/33 53/40/33 58/39/33 60/4/33
f 61/4/34 59/39/34 54/40/34 56/7/34
f 57/8/43 62/41/43 63/42/43 58/7/43
f 59/11/44 64/43/44 62/41/44 57/8/44
f 60/7/33 58/40/33 63/44/33 65/42/33
f 66/42/34 64/44/34 59/40/34 61/7/34
f 63/42/45 62/41/45 67/45/45
f 67/45/46 68/46/46 63/42/46
f 62/41/47 64/43/47 69/47/47
f 69/47/48 67/45/48 62/41/48
f 65/42/33 63/44/33 68/48/33 70/46/33
f 71/46/34 69/48/34 64/44/34 66/42/34
f 68/46/49 67/45/49 72/49/49
f 72/49/50 73/50/50 68/46/50
f 67/45/51 69/47/51 74/51/51
f 74/51/52 72/49/52 67/45/52
f 70/46/33 68/48/33 75/52/33
f 74/53/34 76/54/34 71/47/34
f 76/52/34 69/48/34 71/46/34
f 73/50/53 72/49/53 77/55/53
f 77/55/54 78/56/54 73/50/54
f 72/49/55 74/51/55 79/57/55
f 79/57/56 77/55/56 72/49/56
f 78/56/57 77/55/57 80/58/57
f 80/58/58 81/59/58 78/56/58
f 77/55/59 79/57/59 82/60/59
f 82/60/60 80/58/60 77/55/60
f 81/59/61 80/58/61 83/61/61
f 83/61/62 84/62/62 81/59/62
f 80/58/63 82/60/63 85/63/63
f 85/63/64 83/61/64 80/58/64
f 84/62/65 83/61/65 86/64/65
f 86/64/66 87/65/66 84/62/66
f 83/61/67 85/63/67 88/66/67
f 88/66/68 86/64/68 83/61/68
f 87/65/69 86/64/69 89/67/69
f 89/67/70 90/68/70 87/65/70
f 86/64/71 88/66/71 91/69/71
f 91/69/72 89/67/72 86/64/72
f 90/68/73 89/67/73 92/3/73
f 92/3/74 93/4/74 90/68/74
f 89/67/75 91/69/75 94/6/75
f 94/6/76 92/3/76 89/67/76
f 93/7/77 92/8/77 95/70/77
f 95/70/78 96/71/78 93/7/78
f 92/8/79 94/11/79 97/72/79
f 97/72/80 95/70/80 92/8/80
g sleeper
usemtl mat
f 98/73/81 99/74/81 100/75/81 101/76/81
f 101/76/82 100/75/82 102/77/82 103/78/82
f 103/78/83 102/77/83 104/79/83 105/80/83
f 99/74/84 106/81/84 107/82/84 100/75/84
f 100/75/82 107/82/82 108/83/82 102/77/82
f 102/77/85 108/83/85 109/84/85 104/79/85
f 106/85/81 110/86/81 111/87/81 107/88/81
f 107/88/82 111/87/82 112/89/82 108/90/82
f 108/90/83 112/89/83 113/91/83 109/92/83
f 110/86/81 114/93/81 115/94/81 111/87/81
f 111/87/82 115/94/82 116/95/82 112/89/82
f 112/89/83 116/95/83 117/96/83 113/91/83
f 114/93/81 118/81/81 119/82/81 115/94/81
f 115/94/82 119/82/82 120/83/82 116/95/82
f 116/95/83 120/83/83 121/84/83 117/96/83
f 118/85/81 122/97/81 123/98/81 119/88/81
f 119/88/82 123/98/82 124/99/82 120/90/82
f 120/90/83 124/99/83 125/100/83 121/92/83
f 122/97/81 126/101/81 127/102/81 123/98/81
f 123/98/82 127/102/82 128/103/82 124/99/82
f 124/99/83 128/103/83 129/104/83 125/100/83
f 126/101/81 130/105/81 131/106/81 127/102/81
f 127/102/82 131/106/82 132/107/82 128/103/82
f 128/103/83 132/107/83 133/108/83 129/104/83
f 130/105/81 134/109/81 135/110/81 131/106/81
f 131/106/82 135/110/82 136/111/82 132/107/82
f 132/107/83 136/111/83 137/112/83 133/108/83
f 134/109/81 138/81/81 139/82/81 135/110/81
f 135/110/82 139/82/82 140/83/82 136/111/82
f 136/111/83 140/83/83 141/84/83 137/112/83
f 138/85/81 142/113/81 143/114/81 139/88/81
f 139/88/82 143/114/82 144/115/82 140/90/82
f 140/90/83 144/115/83 145/116/83 141/92/83
f 142/113/81 146/86/81 147/87/81 143/114/81
f 143/114/82 147/87/82 148/89/82 144/115/82
f 144/115/83 148/89/83 149/91/83 145/116/83
f 146/86/81 150/117/81 151/118/81 147/87/81
f 147/87/82 151/118/82 152/119/82 148/89/82
f 148/89/83 152/119/83 153/120/83 149/91/83
f 150/117/81 154/121/81 155/122/81 151/118/81
f 151/118/82 155/122/82 156/123/82 152/119/82
f 152/119/83 156/123/83 157/124/83 153/120/83
f 154/121/81 158/81/81 159/82/81 155/122/81
f 155/122/82 159/82/82 160/83/82 156/123/82
f 156/123/83 160/83/83 161/84/83 157/124/83
f 158/85/81 162/125/81 163/126/81 159/88/81
f 159/88/82 163/126/82 164/127/82 160/90/82
f 160/90/83 164/127/83 165/128/83 161/92/83
f 162/125/81 166/105/81 167/106/81 163/126/81
f 163/126/82 167/106/82 168/107/82 164/127/82
f 164/127/83 168/107/83 169/108/83 165/128/83
f 166/105/81 170/81/81 171/82/81 167/106/81
f 167/106/82 171/82/82 172/83/82 168/107/82
f 168/107/83 172/83/83 173/84/83 169/108/83
f 170/85/86 174/129/86 175/130/86 171/88/86
f 171/88/82 175/130/82 176/131/82 172/90/82
f 172/90/87 176/131/87 177/132/87 173/92/87
f 174/129/81 178/133/81 179/134/81 175/130/81
f 175/130/82 179/134/82 180/135/82 176/131/82
f 176/131/83 180/135/83 181/136/83 177/132/83
f 105/137/88 182/138/88 98/139/88
f 105/137/88 98/139/88 101/140/88
f 101/140/88 103/141/88 105/137/88
f 183/142/89 181/137/89 180/141/89
f 183/142/89 180/141/89 179/140/89
f 183/142/89 179/140/89 178/139/89
g fastener_left
usemtl mat
f 184/143/82 185/144/82 186/145/82
f 184/143/82 186/145/82 187/146/82
f 184/143/82 187/146/82 188/147/82
f 184/143/82 188/147/82 189/148/82
f 184/143/82 189/148/82 190/149/82
f 190/149/82 191/150/82 184/143/82
f 192/151/82 193/152/82 194/153/82
f 192/151/82 194/153/82 195/154/82
f 192/151/82 195/154/82 196/155/82
f 192/151/82 196/155/82 197/156/82
f 192/151/82 197/156/82 198/157/82
f 198/157/82 199/158/82 192/151/82
f 200/159/82 201/160/82 202/161/82
f 200/159/82 202/161/82 203/162/82
f 200/159/82 203/162/82 204/163/82
f 200/159/82 204/163/82 205/164/82
f 200/159/82 205/164/82 206/165/82
f 206/165/82 207/166/82 200/159/82
f 208/167/82 209/168/82 210/169/82 211/170/82
f 209/167/90 212/168/90 213/169/90 210/170/90
f 212/167/82 214/168/82 215/169/82 213/170/82
f 214/167/91 216/168/91 217/169/91 215/170/91
f 218/171/82 219/172/82 220/173/82
f 218/171/82 220/173/82 221/174/82
f 218/171/82 221/174/82 222/175/82
f 222/175/82 223/176/82 218/171/82
f 224/171/82 225/177/82 226/178/82
f 224/171/82 226/178/82 227/179/82
f 224/171/82 227/179/82 228/174/82
f 224/171/82 228/174/82 229/180/82
f 224/171/82 229/180/82 230/181/82
f 230/181/82 231/182/82 224/171/82
f 232/171/82 233/172/82 234/173/82
f 232/171/82 234/173/82 235/174/82
f 232/171/82 235/174/82 236/175/82
f 236/175/82 237/176/82 232/171/82
f 238/171/82 239/172/82 240/173/82
f 238/171/82 240/173/82 241/174/82
f 238/171/82 241/174/82 242/175/82
f 242/175/82 243/176/82 238/171/82
f 244/151/82 245/152/82 246/153/82
f 244/151/82 246/153/82 247/154/82
f 244/151/82 247/154/82 248/155/82
f 244/151/82 248/155/82 249/156/82
f 244/151/82 249/156/82 250/157/82
f 250/157/82 251/158/82 244/151/82
f 252/159/82 253/160/82 254/161/82
f 252/159/82 254/161/82 255/162/82
f 252/159/82 255/162/82 256/163/82
f 252/159/82 256/163/82 257/164/82
f 252/159/82 257/164/82 258/165/82
f 258/165/82 259/166/82 252/159/82
f 260/170/82 261/169/82 262/168/82 263/167/82
f 261/170/92 264/169/92 265/168/92 262/167/92
f 264/170/82 266/169/82 267/168/82 265/167/82
f 266/170/93 268/169/93 269/168/93 267/167/93
f 270/171/82 271/172/82 272/173/82
f 270/171/82 272/173/82 273/174/82
f 270/171/82 273/174/82 274/175/82
f 274/175/82 275/176/82 270/171/82
f 276/171/82 277/177/82 278/178/82
f 276/171/82 278/178/82 279/179/82
f 276/171/82 279/179/82 280/174/82
f 276/171/82 280/174/82 281/180/82
f 276/171/82 281/180/82 282/181/82
f 282/181/82 283/182/82 276/171/82
f 284/171/82 285/172/82 286/173/82
f 284/171/82 286/173/82 287/174/82
f 284/171/82 287/174/82 288/175/82
f 288/175/82 289/176/82 284/171/82
f 290/171/82 291/172/82 292/173/82
f 290/171/82 292/173/82 293/174/82
f 290/171/82 293/174/82 294/175/82
f 294/175/82 295/176/82 290/171/82
g rail_left
usemtl mat
f 296/183/89 297/184/89 298/185/89 299/186/89
f 297/184/94 300/187/94 301/188/94 298/185/94
f 300/187/95 302/189/95 303/190/95 301/188/95
f 302/189/96 304/191/96 305/192/96 303/190/96
f 304/191/97 306/193/97 307/194/97 305/192/97
f 306/193/89 308/195/89 309/196/89 307/194/89
f 308/195/98 310/197/98 311/198/98 309/196/98
f 310/197/99 312/199/99 313/200/99 311/198/99
f 312/199/100 314/201/100 315/202/100 313/200/100
f 314/201/101 316/203/101 317/204/101 315/202/101
f 316/203/89 318/205/89 319/206/89 317/204/89
f 318/205/102 320/207/102 321/208/102 319/206/102
f 320/209/103 322/210/103 323/211/103 321/212/103
f 322/210/82 324/213/82 325/214/82 323/211/82
f 324/213/104 326/215/104 327/216/104 325/214/104
f 326/207/105 328/205/105 329/206/105 327/208/105
f 328/205/88 330/203/88 331/204/88 329/206/88
f 330/203/106 332/201/106 333/202/106 331/204/106
f 332/201/107 334/199/107 335/200/107 333/202/107
f 334/199/108 336/197/108 337/198/108 335/200/108
f 336/197/109 338/195/109 339/196/109 337/198/109
f 338/195/88 340/193/88 341/194/88 339/196/88
f 340/193/110 342/191/110 343/192/110 341/194/110
f 342/191/111 344/189/111 345/190/111 343/192/111
f 344/189/112 346/187/112 347/188/112 345/190/112
f 346/187/113 348/184/113 349/185/113 347/188/113
f 348/184/88 350/183/88 351/186/88 349/185/88
f 350/183/114 296/217/114 299/218/114 351/186/114
g rail_left_end
usemtl mat
f 296/219/33 350/220/33 348/221/33
f 296/219/33 348/221/33 346/222/33
f 296/219/33 346/222/33 344/223/33
f 296/219/33 344/223/33 342/224/33
f 336/225/33 334/226/33 332/227/33
f 336/225/33 332/227/33 330/228/33
f 336/225/33 330/228/33 328/229/33
f 336/225/33 328/229/33 326/230/33
f 336/225/33 326/230/33 324/231/33
f 338/232/33 336/225/33 324/231/33
f 338/232/33 324/231/33 322/233/33
f 338/232/33 322/233/33 320/234/33
f 338/232/33 320/234/33 318/235/33
f 338/232/33 318/235/33 316/236/33
f 338/232/33 316/236/33 314/237/33
f 314/237/33 312/238/33 310/239/33
f 338/232/33 314/237/33 310/239/33
f 338/232/33 310/239/33 308/240/33
f 340/241/33 338/232/33 308/240/33
f 342/224/33 340/241/33 308/240/33
f 342/224/33 308/240/33 306/242/33
f 342/224/33 306/242/33 304/243/33
f 342/224/33 304/243/33 302/244/33
f 296/219/33 342/224/33 302/244/33
f 296/219/33 302/244/33 300/245/33
f 300/245/33 297/246/33 296/219/33
f 351/220/34 299/219/34 298/246/34
f 351/220/34 298/246/34 301/245/34
f 351/220/34 301/245/34 303/244/34
f 351/220/34 303/244/34 305/243/34
f 311/239/34 313/238/34 315/237/34
f 311/239/34 315/237/34 317/236/34
f 311/239/34 317/236/34 319/235/34
f 311/239/34 319/235/34 321/234/34
f 311/239/34 321/234/34 323/233/34
f 309/240/34 311/239/34 323/233/34
f 309/240/34 323/233/34 325/231/34
f 309/240/34 325/231/34 327/230/34
f 309/240/34 327/230/34 329/229/34
f 309/240/34 329/229/34 331/228/34
f 309/240/34 331/228/34 333/227/34
f 333/227/34 335/226/34 337/225/34
f 309/240/34 333/227/34 337/225/34
f 309/240/34 337/225/34 339/232/34
f 307/242/34 309/240/34 339/232/34
f 305/243/34 307/242/34 339/232/34
f 305/243/34 339/232/34 341/241/34
f 305/243/34 341/241/34 343/224/34
f 305/243/34 343/224/34 345/223/34
f 351/220/34 305/243/34 345/223/34
f 351/220/34 345/223/34 347/222/34
f 347/222/34 349/221/34 351/220/34
g fastener_right
usemtl mat
f 352/143/82 353/144/82 354/145/82
f 352/143/82 354/145/82 355/146/82
f 352/143/82 355/146/82 356/147/82
f 352/143/82 356/147/82 357/148/82
f 352/143/82 357/148/82 358/149/82
f 358/149/82 359/150/82 352/143/82
f 360/151/82 361/152/82 362/153/82
f 360/151/82 362/153/82 363/154/82
f 360/151/82 363/154/82 364/155/82
f 360/151/82 364/155/82 365/156/82
f 360/151/82 365/156/82 366/157/82
f 366/157/82 367/158/82 360/151/82
f 368/159/82 369/160/82 370/161/82
f 368/159/82 370/161/82 371/162/82
f 368/159/82 371/162/82 372/163/82
f 368/159/82 372/163/82 373/164/82
f 368/159/82 373/164/82 374/165/82
f 374/165/82 375/166/82 368/159/82
f 376/167/82 377/168/82 378/169/82 379/170/82
f 377/167/90 380/168/90 381/169/90 378/170/90
f 380/167/82 382/168/82 383/169/82 381/170/82
f 382/167/91 384/168/91 385/169/91 383/170/91
f 386/171/82 387/172/82 388/173/82
f 386/171/82 388/173/82 389/174/82
f 386/171/82 389/174/82 390/175/82
f 390/175/82 391/176/82 386/171/82
f 392/171/82 393/177/82 394/178/82
f 392/171/82 394/178/82 395/179/82
f 392/171/82 395/179/82 396/174/82
f 392/171/82 396/174/82 397/180/82
f 392/171/82 397/180/82 398/181/82
f 398/181/82 399/182/82 392/171/82
f 400/171/82 401/172/82 402/173/82
f 400/171/82 402/173/82 403/174/82
f 400/171/82 403/174/82 404/175/82
f 404/175/82 405/176/82 400/171/82
f 406/171/82 407/172/82 408/173/82
f 406/171/82 408/173/82 409/174/82
f 406/171/82 409/174/82 410/175/82
f 410/175/82 411/176/82 406/171/82
f 412/151/82 413/152/82 414/153/82
f 412/151/82 414/153/82 415/154/82
f 412/151/82 415/154/82 416/155/82
f 412/151/82 416/155/82 417/156/82
f 412/151/82 417/156/82 418/157/82
f 418/157/82 419/158/82 412/151/82
f 420/159/82 421/160/82 422/161/82
f 420/159/82 422/161/82 423/162/82
f 420/159/82 423/162/82 424/163/82
f 420/159/82 424/163/82 425/164/82
f 420/159/82 425/164/82 426/165/82
f 426/165/82 427/166/82 420/159/82
f 428/170/82 429/169/82 430/168/82 431/167/82
f 429/170/92 432/169/92 433/168/92 430/167/92
f 432/170/82 434/169/82 435/168/82 433/167/82
f 434/170/93 436/169/93 437/168/93 435/167/93
f 438/171/82 439/172/82 440/173/82
f 438/171/82 440/173/82 441/174/82
f 438/171/82 441/174/82 442/175/82
f 442/175/82 443/176/82 438/171/82
f 444/171/82 445/177/82 446/178/82
f 444/171/82 446/178/82 447/179/82
f 444/171/82 447/179/82 448/174/82
f 444/171/82 448/174/82 449/180/82
f 444/171/82 449/180/82 450/181/82
f 450/181/82 451/182/82 444/171/82
f 452/171/82 453/172/82 454/173/82
f 452/171/82 454/173/82 455/174/82
f 452/171/82 455/174/82 456/175/82
f 456/175/82 457/176/82 452/171/82
f 458/171/82 459/172/82 460/173/82
f 458/171/82 460/173/82 461/174/82
f 458/171/82 461/174/82 462/175/82
f 462/175/82 463/176/82 458/171/82
g rail_right
usemtl mat
f 464/183/89 465/184/89 466/185/89 467/186/89
f 465/184/94 468/187/94 469/188/94 466/185/94
f 468/187/95 470/189/95 471/190/95 469/188/95
f 470/189/96 472/191/96 473/192/96 471/190/96
f 472/191/97 474/193/97 475/194/97 473/192/97
f 474/193/89 476/195/89 477/196/89 475/194/89
f 476/195/98 478/197/98 479/198/98 477/196/98
f 478/197/99 480/199/99 481/200/99 479/198/99
f 480/199/100 482/201/100 483/202/100 481/200/100
f 482/201/101 484/203/101 485/204/101 483/202/101
f 484/203/89 486/205/89 487/206/89 485/204/89
f 486/205/102 488/207/102 489/208/102 487/206/102
f 488/209/103 490/210/103 491/211/103 489/212/103
f 490/210/82 492/213/82 493/214/82 491/211/82
f 492/213/104 494/215/104 495/216/104 493/214/104
f 494/207/105 496/205/105 497/206/105 495/208/105
f 496/205/88 498/203/88 499/204/88 497/206/88
f 498/203/106 500/201/106 501/202/106 499/204/106
f 500/201/107 502/199/107 503/200/107 501/202/107
f 502/199/108 504/197/108 505/198/108 503/200/108
f 504/197/109 506/195/109 507/196/109 505/198/109
f 506/195/88 508/193/88 509/194/88 507/196/88
f 508/193/110 510/191/110 511/192/110 509/194/110
f 510/191/111 512/189/111 513/190/111 511/192/111
f 512/189/112 514/187/112 515/188/112 513/190/112
f 514/187/113 516/184/113 517/185/113 515/188/113
f 516/184/88 518/183/88 519/186/88 517/185/88
f 518/183/114 464/217/114 467/218/114 519/186/114
g rail_right_end
usemtl mat
f 464/219/33 518/220/33 516/221/33
f 464/219/33 516/221/33 514/222/33
f 464/219/33 514/222/33 512/223/33
f 464/219/33 512/223/33 510/224/33
f 504/225/33 502/226/33 500/227/33
f 504/225/33 500/227/33 498/228/33
f 504/225/33 498/228/33 496/229/33
f 504/225/33 496/229/33 494/230/33
f 504/225/33 494/230/33 492/231/33
f 506/232/33 504/225/33 492/231/33
f 506/232/33 492/231/33 490/233/33
f 506/232/33 490/233/33 488/234/33
f 506/232/33 488/234/33 486/235/33
f 506/232/33 486/235/33 484/236/33
f 506/232/33 484/236/33 482/237/33
f 482/237/33 480/238/33 478/239/33
f 506/232/33 482/237/33 478/239/33
f 506/232/33 478/239/33 476/240/33
f 508/241/33 506/232/33 476/240/33
f 510/224/33 508/241/33 476/240/33
f 510/224/33 476/240/33 474/242/33
f 510/224/33 474/242/33 472/243/33
f 510/224/33 472/243/33 470/244/33
f 464/219/33 510/224/33 470/244/33
f 464/219/33 470/244/33 468/245/33
f 468/245/33 465/246/33 464/219/33
f 519/220/34 467/219/34 466/246/34
f 519/220/34 466/246/34 469/245/34
f 519/220/34 469/245/34 471/244/34
f 519/220/34 471/244/34 473/243/34
f 479/239/34 481/238/34 483/237/34
f 479/239/34 483/237/34 485/236/34
f 479/239/34 485/236/34 487/235/34
f 479/239/34 487/235/34 489/234/34
f 479/239/34 489/234/34 491/233/34
f 477/240/34 479/239/34 491/233/34
f 477/240/34 491/233/34 493/231/34
f 477/240/34 493/231/34 495/230/34
f 477/240/34 495/230/34 497/229/34
f 477/240/34 497/229/34 499/228/34
f 477/240/34 499/228/34 501/227/34
f 501/227/34 503/226/34 505/225/34
f 477/240/34 501/227/34 505/225/34
f 477/240/34 505/225/34 507/232/34
f 475/242/34 477/240/34 507/232/34
f 473/243/34 475/242/34 507/232/34
f 473/243/34 507/232/34 509/241/34
f 473/243/34 509/241/34 511/224/34
f 473/243/34 511/224/34 513/223/34
f 519/220/34 473/243/34 513/223/34
f 519/220/34 513/223/34 515/222/34
f 515/222/34 517/221/34 519/220/34
g center_fastener_left
usemtl mat
f 520/247/82 521/248/82 522/249/82
f 520/247/82 522/249/82 523/250/82
f 520/247/82 523/250/82 524/251/82
f 520/247/82 524/251/82 525/252/82
f 520/247/82 525/252/82 526/253/82
f 526/253/82 527/254/82 520/247/82
f 528/143/82 529/255/82 530/256/82
f 528/143/82 530/256/82 531/146/82
f 528/143/82 531/146/82 532/147/82
f 528/143/82 532/147/82 533/257/82
f 528/143/82 533/257/82 534/258/82
f 534/258/82 535/150/82 528/143/82
f 536/259/82 537/260/82 538/261/82
f 536/259/82 538/261/82 539/262/82
f 536/259/82 539/262/82 540/263/82
f 536/259/82 540/263/82 541/264/82
f 536/259/82 541/264/82 542/265/82
f 542/265/82 543/266/82 536/259/82
f 544/171/82 545/172/82 546/173/82
f 544/171/82 546/173/82 547/174/82
f 544/171/82 547/174/82 548/175/82
f 548/175/82 549/176/82 544/171/82
f 550/259/82 551/260/82 552/261/82
f 550/259/82 552/261/82 553/262/82
f 550/259/82 553/262/82 554/263/82
f 550/259/82 554/263/82 555/264/82
f 550/259/82 555/264/82 556/265/82
f 556/265/82 557/266/82 550/259/82
f 558/171/82 559/172/82 560/173/82
f 558/171/82 560/173/82 561/174/82
f 558/171/82 561/174/82 562/175/82
f 562/175/82 563/176/82 558/171/82
g center_guard_left
usemtl mat
f 564/183/89 565/184/89 566/185/89 567/186/89
f 565/184/94 568/187/94 569/188/94 566/185/94
f 568/187/95 570/189/95 571/190/95 569/188/95
f 570/189/96 572/191/96 573/192/96 571/190/96
f 572/191/97 574/193/97 575/194/97 573/192/97
f 574/193/89 576/195/89 577/196/89 575/194/89
f 576/195/98 578/197/98 579/198/98 577/196/98
f 578/197/99 580/199/99 581/200/99 579/198/99
f 580/199/100 582/201/100 583/202/100 581/200/100
f 582/201/101 584/203/101 585/204/101 583/202/101
f 584/203/89 586/205/89 587/206/89 585/204/89
f 586/205/102 588/207/102 589/208/102 587/206/102
f 588/207/103 590/267/103 591/268/103 589/208/103
f 590/183/82 592/217/82 593/218/82 591/186/82
f 592/267/104 594/207/104 595/208/104 593/268/104
f 594/207/105 596/205/105 597/206/105 595/208/105
f 596/205/88 598/203/88 599/204/88 597/206/88
f 598/203/106 600/201/106 601/202/106 599/204/106
f 600/201/107 602/199/107 603/200/107 601/202/107
f 602/199/108 604/197/108 605/198/108 603/200/108
f 604/197/109 606/195/109 607/196/109 605/198/109
f 606/195/88 608/193/88 609/194/88 607/196/88
f 608/193/110 610/191/110 611/192/110 609/194/110
f 610/191/111 612/189/111 613/190/111 611/192/111
f 612/189/112 614/187/112 615/188/112 613/190/112
f 614/187/113 616/184/113 617/185/113 615/188/113
f 616/184/88 618/183/88 619/186/88 617/185/88
f 618/183/114 564/217/114 567/218/114 619/186/114
g center_fastener_right
usemtl mat
f 620/247/82 621/248/82 622/249/82
f 620/247/82 622/249/82 623/250/82
f 620/247/82 623/250/82 624/251/82
f 620/247/82 624/251/82 625/252/82
f 620/247/82 625/252/82 626/253/82
f 626/253/82 627/254/82 620/247/82
f 628/143/82 629/255/82 630/256/82
f 628/143/82 630/256/82 631/146/82
f 628/143/82 631/146/82 632/147/82
f 628/143/82 632/147/82 633/257/82
f 628/143/82 633/257/82 634/258/82
f 634/258/82 635/150/82 628/143/82
f 636/259/82 637/260/82 638/261/82
f 636/259/82 638/261/82 639/262/82
f 636/259/82 639/262/82 640/263/82
f 636/259/82 640/263/82 641/264/82
f 636/259/82 641/264/82 642/265/82
f 642/265/82 643/266/82 636/259/82
f 644/171/82 645/172/82 646/173/82
f 644/171/82 646/173/82 647/174/82
f 644/171/82 647/174/82 648/175/82
f 648/175/82 649/176/82 644/171/82
f 650/259/82 651/260/82 652/261/82
f 650/259/82 652/261/82 653/262/82
f 650/259/82 653/262/82 654/263/82
f 650/259/82 654/263/82 655/264/82
f 650/259/82 655/264/82 656/265/82
f 656/265/82 657/266/82 650/259/82
f 658/171/82 659/172/82 660/173/82
f 658/171/82 660/173/82 661/174/82
f 658/171/82 661/174/82 662/175/82
f 662/175/82 663/176/82 658/171/82
g center_guard_right
usemtl mat
f 664/183/89 665/184/89 666/185/89 667/186/89
f 665/184/94 668/187/94 669/188/94 666/185/94
f 668/187/95 670/189/95 671/190/95 669/188/95
f 670/189/96 672/191/96 673/192/96 671/190/96
f 672/191/97 674/193/97 675/194/97 673/192/97
f 674/193/89 676/195/89 677/196/89 675/194/89
f 676/195/98 678/197/98 679/198/98 677/196/98
f 678/197/99 680/199/99 681/200/99 679/198/99
f 680/199/100 682/201/100 683/202/100 681/200/100
f 682/201/101 684/203/101 685/204/101 683/202/101
f 684/203/89 686/205/89 687/206/89 685/204/89
f 686/205/102 688/207/102 689/208/102 687/206/102
f 688/207/103 690/267/103 691/268/103 689/208/103
f 690/183/82 692/217/82 693/218/82 691/186/82
f 692/267/104 694/207/104 695/208/104 693/268/104
f 694/207/105 696/205/105 697/206/105 695/208/105
f 696/205/88 698/203/88 699/204/88 697/206/88
f 698/203/106 700/201/106 701/202/106 699/204/106
f 700/201/107 702/199/107 703/200/107 701/202/107
f 702/199/108 704/197/108 705/198/108 703/200/108
f 704/197/109 706/195/109 707/196/109 705/198/109
f 706/195/88 708/193/88 709/194/88 707/196/88
f 708/193/110 710/191/110 711/192/110 709/194/110
f 710/191/111 712/189/111 713/190/111 711/192/111
f 712/189/112 714/187/112 715/188/112 713/190/112
f 714/187/113 716/184/113 717/185/113 715/188/113
f 716/184/88 718/183/88 719/186/88 717/185/88
f 718/183/114 664/217/114 667/218/114 719/186/114
