# metres; Y up; CCW outward; repeat 0.6 m
mtllib center_guard_low.mtl
v -1.850000 -0.304000 -0.300000
v -1.850000 -0.304000 0.000000
v -1.800000 -0.258131 0.000000
v -1.800000 -0.258885 -0.300000
v -1.850000 -0.304000 0.300000
v -1.800000 -0.258885 0.300000
v -1.783750 -0.243412 0.000000
v -1.783750 -0.244412 -0.300000
v -1.783750 -0.244412 0.300000
v -1.717500 -0.185387 0.000000
v -1.717500 -0.187387 -0.300000
v -1.717500 -0.187387 0.300000
v -1.651250 -0.132099 0.000000
v -1.651250 -0.135099 -0.300000
v -1.651250 -0.135099 0.300000
v -1.585000 -0.085000 0.000000
v -1.585000 -0.089000 -0.300000
v -1.585000 -0.089000 0.300000
v -1.518750 -0.044599 0.000000
v -1.518750 -0.049599 -0.300000
v -1.518750 -0.049599 0.300000
v -1.452500 -0.010387 0.000000
v -1.452500 -0.016387 -0.300000
v -1.452500 -0.016387 0.300000
v -1.386250 0.019088 0.000000
v -1.386250 0.012088 -0.300000
v -1.386250 0.012088 0.300000
v -1.320000 0.046000 0.000000
v -1.320000 0.038000 -0.300000
v -1.320000 0.038000 0.300000
v -1.200000 0.034000 0.000000
v -1.200000 0.026000 -0.300000
v -1.200000 0.026000 0.300000
v -0.600000 0.034000 0.000000
v -0.600000 0.026000 -0.300000
v -0.600000 0.026000 0.300000
v 0.000000 0.034000 0.000000
v 0.000000 0.026000 -0.300000
v 0.000000 0.026000 0.300000
v 0.600000 0.034000 0.000000
v 0.600000 0.026000 -0.300000
v 0.600000 0.026000 0.300000
v 1.200000 0.034000 0.000000
v 1.200000 0.026000 -0.300000
v 1.200000 0.026000 0.300000
v 1.320000 0.046000 0.000000
v 1.320000 0.038000 -0.300000
v 1.320000 0.038000 0.300000
v 1.386250 0.019088 0.000000
v 1.386250 0.012088 -0.300000
v 1.386250 0.012088 0.300000
v 1.452500 -0.010387 0.000000
v 1.452500 -0.016387 -0.300000
v 1.452500 -0.016387 0.300000
v 1.518750 -0.044599 0.000000
v 1.518750 -0.049599 -0.300000
v 1.518750 -0.049599 0.300000
v 1.585000 -0.085000 0.000000
v 1.585000 -0.089000 -0.300000
v 1.585000 -0.089000 0.300000
v 1.651250 -0.132099 0.000000
v 1.651250 -0.135099 -0.300000
v 1.651250 -0.135099 0.300000
v 1.717500 -0.185387 0.000000
v 1.717500 -0.187387 -0.300000
v 1.717500 -0.187387 0.300000
v 1.783750 -0.243412 0.000000
v 1.783750 -0.244412 -0.300000
v 1.783750 -0.244412 0.300000
v 1.800000 -0.258131 0.000000
v 1.800000 -0.258885 -0.300000
v 1.800000 -0.258885 0.300000
v 1.850000 -0.304000 0.000000
v 1.850000 -0.304000 -0.300000
v 1.850000 -0.304000 0.300000
v -1.250000 0.077422 0.096000
v -1.200000 0.077422 0.111000
v -1.200000 0.085422 0.101000
v -1.250000 0.085422 0.086000
v -1.200000 0.085422 -0.101000
v -1.250000 0.085422 -0.086000
v -1.200000 0.077422 -0.111000
v -1.250000 0.077422 -0.096000
v -0.930000 0.077422 0.111000
v -0.930000 0.085422 0.101000
v -0.930000 0.085422 -0.101000
v -0.930000 0.077422 -0.111000
v -0.600000 0.077422 0.111000
v -0.600000 0.085422 0.101000
v -0.600000 0.085422 -0.101000
v -0.600000 0.077422 -0.111000
v -0.530000 0.077422 0.111000
v -0.530000 0.085422 0.101000
v -0.530000 0.085422 -0.101000
v -0.530000 0.077422 -0.111000
v 0.000000 0.077422 0.111000
v 0.000000 0.085422 0.101000
v 0.000000 0.085422 -0.101000
v 0.000000 0.077422 -0.111000
v 0.530000 0.077422 0.111000
v 0.530000 0.085422 0.101000
v 0.530000 0.085422 -0.101000
v 0.530000 0.077422 -0.111000
v 0.600000 0.077422 0.111000
v 0.600000 0.085422 0.101000
v 0.600000 0.085422 -0.101000
v 0.600000 0.077422 -0.111000
v 0.930000 0.077422 0.111000
v 0.930000 0.085422 0.101000
v 0.930000 0.085422 -0.101000
v 0.930000 0.077422 -0.111000
v 1.200000 0.077422 0.111000
v 1.200000 0.085422 0.101000
v 1.200000 0.085422 -0.101000
v 1.200000 0.077422 -0.111000
v 1.250000 0.077422 0.096000
v 1.250000 0.085422 0.086000
v 1.250000 0.085422 -0.086000
v 1.250000 0.077422 -0.096000
v -1.250000 -0.034578 0.105000
v 1.250000 -0.034578 -0.105000
v -0.826500 0.099422 0.106000
v -0.676500 0.099422 0.106000
v -0.676500 0.099422 -0.106000
v -0.826500 0.099422 -0.106000
v -0.896500 0.109422 0.105000
v -0.606500 0.109422 0.105000
v -0.606500 0.109422 -0.105000
v -0.896500 0.109422 -0.105000
v -0.946500 0.095422 0.103000
v -0.820500 0.095422 0.103000
v -0.820500 0.095422 -0.103000
v -0.946500 0.095422 -0.103000
v -0.950500 0.126422 0.107000
v -0.934500 0.126422 0.107000
v -0.934500 0.126422 -0.107000
v -0.950500 0.126422 -0.107000
v -0.682500 0.095422 0.103000
v -0.556500 0.095422 0.103000
v -0.556500 0.095422 -0.103000
v -0.682500 0.095422 -0.103000
v -0.568500 0.126422 0.107000
v -0.552500 0.126422 0.107000
v -0.552500 0.126422 -0.107000
v -0.568500 0.126422 -0.107000
v -0.681500 0.099422 -0.300000
v -0.681500 0.108000 -0.300000
v -0.681500 0.108000 0.300000
v -0.681500 0.099422 0.300000
v -0.687500 0.113000 -0.300000
v -0.687500 0.113000 0.300000
v -0.725500 0.124000 -0.300000
v -0.725500 0.124000 0.300000
v -0.739500 0.134000 -0.300000
v -0.739500 0.134000 0.300000
v -0.742500 0.145000 -0.300000
v -0.742500 0.145000 0.300000
v -0.742500 0.207000 -0.300000
v -0.742500 0.207000 0.300000
v -0.738500 0.219000 -0.300000
v -0.738500 0.219000 0.300000
v -0.724500 0.225000 -0.300000
v -0.724500 0.225000 0.300000
v -0.718500 0.231000 -0.300000
v -0.718500 0.231000 0.300000
v -0.717500 0.239000 -0.300000
v -0.717500 0.239000 0.300000
v -0.717500 0.254000 -0.300000
v -0.717500 0.254000 0.300000
v -0.719500 0.260000 -0.300000
v -0.719500 0.260000 0.300000
v -0.725500 0.264280 -0.300000
v -0.725500 0.264280 0.300000
v -0.777500 0.264280 -0.300000
v -0.777500 0.264280 0.300000
v -0.783500 0.260000 -0.300000
v -0.783500 0.260000 0.300000
v -0.785500 0.254000 -0.300000
v -0.785500 0.254000 0.300000
v -0.785500 0.239000 -0.300000
v -0.785500 0.239000 0.300000
v -0.784500 0.231000 -0.300000
v -0.784500 0.231000 0.300000
v -0.778500 0.225000 -0.300000
v -0.778500 0.225000 0.300000
v -0.764500 0.219000 -0.300000
v -0.764500 0.219000 0.300000
v -0.760500 0.207000 -0.300000
v -0.760500 0.207000 0.300000
v -0.760500 0.145000 -0.300000
v -0.760500 0.145000 0.300000
v -0.763500 0.134000 -0.300000
v -0.763500 0.134000 0.300000
v -0.777500 0.124000 -0.300000
v -0.777500 0.124000 0.300000
v -0.815500 0.113000 -0.300000
v -0.815500 0.113000 0.300000
v -0.821500 0.108000 -0.300000
v -0.821500 0.108000 0.300000
v -0.821500 0.099422 -0.300000
v -0.821500 0.099422 0.300000
v 0.676500 0.099422 0.106000
v 0.826500 0.099422 0.106000
v 0.826500 0.099422 -0.106000
v 0.676500 0.099422 -0.106000
v 0.606500 0.109422 0.105000
v 0.896500 0.109422 0.105000
v 0.896500 0.109422 -0.105000
v 0.606500 0.109422 -0.105000
v 0.556500 0.095422 0.103000
v 0.682500 0.095422 0.103000
v 0.682500 0.095422 -0.103000
v 0.556500 0.095422 -0.103000
v 0.552500 0.126422 0.107000
v 0.568500 0.126422 0.107000
v 0.568500 0.126422 -0.107000
v 0.552500 0.126422 -0.107000
v 0.820500 0.095422 0.103000
v 0.946500 0.095422 0.103000
v 0.946500 0.095422 -0.103000
v 0.820500 0.095422 -0.103000
v 0.934500 0.126422 0.107000
v 0.950500 0.126422 0.107000
v 0.950500 0.126422 -0.107000
v 0.934500 0.126422 -0.107000
v 0.821500 0.099422 -0.300000
v 0.821500 0.108000 -0.300000
v 0.821500 0.108000 0.300000
v 0.821500 0.099422 0.300000
v 0.815500 0.113000 -0.300000
v 0.815500 0.113000 0.300000
v 0.777500 0.124000 -0.300000
v 0.777500 0.124000 0.300000
v 0.763500 0.134000 -0.300000
v 0.763500 0.134000 0.300000
v 0.760500 0.145000 -0.300000
v 0.760500 0.145000 0.300000
v 0.760500 0.207000 -0.300000
v 0.760500 0.207000 0.300000
v 0.764500 0.219000 -0.300000
v 0.764500 0.219000 0.300000
v 0.778500 0.225000 -0.300000
v 0.778500 0.225000 0.300000
v 0.784500 0.231000 -0.300000
v 0.784500 0.231000 0.300000
v 0.785500 0.239000 -0.300000
v 0.785500 0.239000 0.300000
v 0.785500 0.254000 -0.300000
v 0.785500 0.254000 0.300000
v 0.783500 0.260000 -0.300000
v 0.783500 0.260000 0.300000
v 0.777500 0.264280 -0.300000
v 0.777500 0.264280 0.300000
v 0.725500 0.264280 -0.300000
v 0.725500 0.264280 0.300000
v 0.719500 0.260000 -0.300000
v 0.719500 0.260000 0.300000
v 0.717500 0.254000 -0.300000
v 0.717500 0.254000 0.300000
v 0.717500 0.239000 -0.300000
v 0.717500 0.239000 0.300000
v 0.718500 0.231000 -0.300000
v 0.718500 0.231000 0.300000
v 0.724500 0.225000 -0.300000
v 0.724500 0.225000 0.300000
v 0.738500 0.219000 -0.300000
v 0.738500 0.219000 0.300000
v 0.742500 0.207000 -0.300000
v 0.742500 0.207000 0.300000
v 0.742500 0.145000 -0.300000
v 0.742500 0.145000 0.300000
v 0.739500 0.134000 -0.300000
v 0.739500 0.134000 0.300000
v 0.725500 0.124000 -0.300000
v 0.725500 0.124000 0.300000
v 0.687500 0.113000 -0.300000
v 0.687500 0.113000 0.300000
v 0.681500 0.108000 -0.300000
v 0.681500 0.108000 0.300000
v 0.681500 0.099422 -0.300000
v 0.681500 0.099422 0.300000
v -0.482000 0.095422 -0.105000
v -0.488000 0.095422 -0.099000
v -0.488000 0.095422 0.099000
v -0.482000 0.095422 0.105000
v -0.230000 0.095422 0.105000
v -0.224000 0.095422 0.099000
v -0.224000 0.095422 -0.099000
v -0.230000 0.095422 -0.105000
v -0.425000 0.099422 -0.102000
v -0.431000 0.099422 -0.096000
v -0.431000 0.099422 0.096000
v -0.425000 0.099422 0.102000
v -0.287000 0.099422 0.102000
v -0.281000 0.099422 0.096000
v -0.281000 0.099422 -0.096000
v -0.287000 0.099422 -0.102000
v -0.481000 0.124422 -0.075000
v -0.484000 0.124422 -0.072000
v -0.484000 0.124422 0.072000
v -0.481000 0.124422 0.075000
v -0.409000 0.124422 0.075000
v -0.406000 0.124422 0.072000
v -0.406000 0.124422 -0.072000
v -0.409000 0.124422 -0.075000
v -0.303000 0.124422 -0.075000
v -0.306000 0.124422 -0.072000
v -0.306000 0.124422 0.072000
v -0.303000 0.124422 0.075000
v -0.231000 0.124422 0.075000
v -0.228000 0.124422 0.072000
v -0.228000 0.124422 -0.072000
v -0.231000 0.124422 -0.075000
v -0.286000 0.099422 -0.300000
v -0.286000 0.108000 -0.300000
v -0.286000 0.108000 0.300000
v -0.286000 0.099422 0.300000
v -0.292000 0.113000 -0.300000
v -0.292000 0.113000 0.300000
v -0.330000 0.124000 -0.300000
v -0.330000 0.124000 0.300000
v -0.344000 0.134000 -0.300000
v -0.344000 0.134000 0.300000
v -0.347000 0.145000 -0.300000
v -0.347000 0.145000 0.300000
v -0.347000 0.207000 -0.300000
v -0.347000 0.207000 0.300000
v -0.343000 0.219000 -0.300000
v -0.343000 0.219000 0.300000
v -0.329000 0.225000 -0.300000
v -0.329000 0.225000 0.300000
v -0.323000 0.231000 -0.300000
v -0.323000 0.231000 0.300000
v -0.322000 0.239000 -0.300000
v -0.322000 0.239000 0.300000
v -0.322000 0.254000 -0.300000
v -0.322000 0.254000 0.300000
v -0.324000 0.260000 -0.300000
v -0.324000 0.260000 0.300000
v -0.330000 0.264280 -0.300000
v -0.330000 0.264280 0.300000
v -0.382000 0.264280 -0.300000
v -0.382000 0.264280 0.300000
v -0.388000 0.260000 -0.300000
v -0.388000 0.260000 0.300000
v -0.390000 0.254000 -0.300000
v -0.390000 0.254000 0.300000
v -0.390000 0.239000 -0.300000
v -0.390000 0.239000 0.300000
v -0.389000 0.231000 -0.300000
v -0.389000 0.231000 0.300000
v -0.383000 0.225000 -0.300000
v -0.383000 0.225000 0.300000
v -0.369000 0.219000 -0.300000
v -0.369000 0.219000 0.300000
v -0.365000 0.207000 -0.300000
v -0.365000 0.207000 0.300000
v -0.365000 0.145000 -0.300000
v -0.365000 0.145000 0.300000
v -0.368000 0.134000 -0.300000
v -0.368000 0.134000 0.300000
v -0.382000 0.124000 -0.300000
v -0.382000 0.124000 0.300000
v -0.420000 0.113000 -0.300000
v -0.420000 0.113000 0.300000
v -0.426000 0.108000 -0.300000
v -0.426000 0.108000 0.300000
v -0.426000 0.099422 -0.300000
v -0.426000 0.099422 0.300000
v 0.230000 0.095422 -0.105000
v 0.224000 0.095422 -0.099000
v 0.224000 0.095422 0.099000
v 0.230000 0.095422 0.105000
v 0.482000 0.095422 0.105000
v 0.488000 0.095422 0.099000
v 0.488000 0.095422 -0.099000
v 0.482000 0.095422 -0.105000
v 0.287000 0.099422 -0.102000
v 0.281000 0.099422 -0.096000
v 0.281000 0.099422 0.096000
v 0.287000 0.099422 0.102000
v 0.425000 0.099422 0.102000
v 0.431000 0.099422 0.096000
v 0.431000 0.099422 -0.096000
v 0.425000 0.099422 -0.102000
v 0.231000 0.124422 -0.075000
v 0.228000 0.124422 -0.072000
v 0.228000 0.124422 0.072000
v 0.231000 0.124422 0.075000
v 0.303000 0.124422 0.075000
v 0.306000 0.124422 0.072000
v 0.306000 0.124422 -0.072000
v 0.303000 0.124422 -0.075000
v 0.409000 0.124422 -0.075000
v 0.406000 0.124422 -0.072000
v 0.406000 0.124422 0.072000
v 0.409000 0.124422 0.075000
v 0.481000 0.124422 0.075000
v 0.484000 0.124422 0.072000
v 0.484000 0.124422 -0.072000
v 0.481000 0.124422 -0.075000
v 0.426000 0.099422 -0.300000
v 0.426000 0.108000 -0.300000
v 0.426000 0.108000 0.300000
v 0.426000 0.099422 0.300000
v 0.420000 0.113000 -0.300000
v 0.420000 0.113000 0.300000
v 0.382000 0.124000 -0.300000
v 0.382000 0.124000 0.300000
v 0.368000 0.134000 -0.300000
v 0.368000 0.134000 0.300000
v 0.365000 0.145000 -0.300000
v 0.365000 0.145000 0.300000
v 0.365000 0.207000 -0.300000
v 0.365000 0.207000 0.300000
v 0.369000 0.219000 -0.300000
v 0.369000 0.219000 0.300000
v 0.383000 0.225000 -0.300000
v 0.383000 0.225000 0.300000
v 0.389000 0.231000 -0.300000
v 0.389000 0.231000 0.300000
v 0.390000 0.239000 -0.300000
v 0.390000 0.239000 0.300000
v 0.390000 0.254000 -0.300000
v 0.390000 0.254000 0.300000
v 0.388000 0.260000 -0.300000
v 0.388000 0.260000 0.300000
v 0.382000 0.264280 -0.300000
v 0.382000 0.264280 0.300000
v 0.330000 0.264280 -0.300000
v 0.330000 0.264280 0.300000
v 0.324000 0.260000 -0.300000
v 0.324000 0.260000 0.300000
v 0.322000 0.254000 -0.300000
v 0.322000 0.254000 0.300000
v 0.322000 0.239000 -0.300000
v 0.322000 0.239000 0.300000
v 0.323000 0.231000 -0.300000
v 0.323000 0.231000 0.300000
v 0.329000 0.225000 -0.300000
v 0.329000 0.225000 0.300000
v 0.343000 0.219000 -0.300000
v 0.343000 0.219000 0.300000
v 0.347000 0.207000 -0.300000
v 0.347000 0.207000 0.300000
v 0.347000 0.145000 -0.300000
v 0.347000 0.145000 0.300000
v 0.344000 0.134000 -0.300000
v 0.344000 0.134000 0.300000
v 0.330000 0.124000 -0.300000
v 0.330000 0.124000 0.300000
v 0.292000 0.113000 -0.300000
v 0.292000 0.113000 0.300000
v 0.286000 0.108000 -0.300000
v 0.286000 0.108000 0.300000
v 0.286000 0.099422 -0.300000
v 0.286000 0.099422 0.300000
vt 0.96281250 0.01585821
vt 0.96281250 0.25373134
vt 0.98937500 0.25373134
vt 0.98937500 0.01585821
vt 0.96281250 0.49160448
vt 0.98937500 0.49160448
vt 0.67062500 0.01585821
vt 0.67062500 0.25373134
vt 0.67925781 0.25373134
vt 0.67925781 0.01585821
vt 0.67062500 0.49160448
vt 0.67925781 0.49160448
vt 0.71445312 0.25373134
vt 0.71445312 0.01585821
vt 0.71445312 0.49160448
vt 0.74964844 0.25373134
vt 0.74964844 0.01585821
vt 0.74964844 0.49160448
vt 0.78484375 0.25373134
vt 0.78484375 0.01585821
vt 0.78484375 0.49160448
vt 0.82003906 0.25373134
vt 0.82003906 0.01585821
vt 0.82003906 0.49160448
vt 0.85523437 0.25373134
vt 0.85523437 0.01585821
vt 0.85523437 0.49160448
vt 0.89042969 0.25373134
vt 0.89042969 0.01585821
vt 0.89042969 0.49160448
vt 0.92562500 0.25373134
vt 0.92562500 0.01585821
vt 0.92562500 0.49160448
vt 0.73437500 0.25373134
vt 0.73437500 0.01585821
vt 0.73437500 0.49160448
vt 0.76957031 0.25373134
vt 0.76957031 0.01585821
vt 0.76957031 0.49160448
vt 0.80476563 0.25373134
vt 0.80476563 0.01585821
vt 0.80476563 0.49160448
vt 0.83996094 0.25373134
vt 0.83996094 0.01585821
vt 0.83996094 0.49160448
vt 0.87515625 0.25373134
vt 0.87515625 0.01585821
vt 0.87515625 0.49160448
vt 0.91035156 0.25373134
vt 0.91035156 0.01585821
vt 0.91035156 0.49160448
vt 0.94554688 0.25373134
vt 0.94554688 0.01585821
vt 0.94554688 0.49160448
vt 0.98074219 0.25373134
vt 0.98074219 0.01585821
vt 0.98074219 0.49160448
vt 0.69718750 0.25373134
vt 0.69718750 0.01585821
vt 0.69718750 0.49160448
vt 0.30281250 0.32985075
vt 0.32937500 0.34174440
vt 0.32937500 0.33381530
vt 0.30281250 0.32192164
vt 0.32937500 0.17364739
vt 0.30281250 0.18554104
vt 0.32937500 0.16571828
vt 0.30281250 0.17761194
vt 0.01062500 0.34174440
vt 0.15406250 0.34174440
vt 0.15406250 0.33381530
vt 0.01062500 0.33381530
vt 0.15406250 0.17364739
vt 0.01062500 0.17364739
vt 0.15406250 0.16571828
vt 0.01062500 0.16571828
vt 0.04781250 0.34174440
vt 0.04781250 0.33381530
vt 0.04781250 0.17364739
vt 0.04781250 0.16571828
vt 0.29218750 0.34174440
vt 0.29218750 0.33381530
vt 0.29218750 0.17364739
vt 0.29218750 0.16571828
vt 0.18593750 0.34174440
vt 0.18593750 0.33381530
vt 0.18593750 0.17364739
vt 0.18593750 0.16571828
vt 0.03718750 0.32985075
vt 0.03718750 0.32192164
vt 0.03718750 0.18554104
vt 0.03718750 0.17761194
vt 0.04250000 0.45988806
vt 0.30945312 0.01585821
vt 0.29750000 0.45988806
vt 0.28421875 0.49160448
vt 0.05578125 0.49160448
vt 0.03054688 0.01585821
vt 0.60837500 0.48208955
vt 0.65300000 0.48208955
vt 0.65300000 0.31082090
vt 0.60837500 0.31082090
vt 0.34062500 0.49160448
vt 0.57968750 0.49160448
vt 0.57968750 0.01585821
vt 0.34062500 0.01585821
vt 0.60837500 0.19664179
vt 0.65300000 0.19664179
vt 0.65300000 0.02537313
vt 0.60837500 0.02537313
vt 0.01062500 0.50839552
vt 0.01062500 0.53314987
vt 0.32937500 0.53314987
vt 0.32937500 0.50839552
vt 0.01062500 0.54757884
vt 0.32937500 0.54757884
vt 0.01062500 0.57932257
vt 0.32937500 0.57932257
vt 0.01062500 0.60818052
vt 0.32937500 0.60818052
vt 0.01062500 0.63992425
vt 0.32937500 0.63992425
vt 0.01062500 0.81884350
vt 0.32937500 0.81884350
vt 0.01062500 0.85347303
vt 0.32937500 0.85347303
vt 0.01062500 0.87078779
vt 0.32937500 0.87078779
vt 0.01062500 0.88810256
vt 0.32937500 0.88810256
vt 0.01062500 0.91118891
vt 0.32937500 0.91118891
vt 0.01062500 0.95447583
vt 0.32937500 0.95447583
vt 0.01062500 0.97179059
vt 0.32937500 0.97179059
vt 0.34062500 0.97014925
vt 0.34062500 0.92817164
vt 0.65937500 0.92817164
vt 0.65937500 0.97014925
vt 0.34062500 0.56436567
vt 0.65937500 0.56436567
vt 0.34062500 0.52238806
vt 0.65937500 0.52238806
vt 0.01062500 0.57500000
vt 0.32937500 0.57500000
vt 0.98937500 0.50839552
vt 0.67062500 0.50839552
vt 0.67062500 0.53314987
vt 0.68428571 0.54757884
vt 0.77080357 0.57932257
vt 0.80267857 0.60818052
vt 0.80040179 0.85347303
vt 0.76852679 0.87078779
vt 0.75486607 0.88810256
vt 0.75258929 0.91118891
vt 0.75258929 0.95447583
vt 0.75714286 0.97179059
vt 0.77080357 0.98414179
vt 0.80950893 0.81884350
vt 0.88919643 0.98414179
vt 0.90285714 0.97179059
vt 0.90741071 0.95447583
vt 0.90741071 0.91118891
vt 0.90513393 0.88810256
vt 0.89147321 0.87078779
vt 0.85959821 0.85347303
vt 0.85049107 0.81884350
vt 0.80950893 0.63992425
vt 0.85049107 0.63992425
vt 0.85732143 0.60818052
vt 0.88919643 0.57932257
vt 0.97571429 0.54757884
vt 0.98937500 0.53314987
vt 0.34605824 0.01585821
vt 0.34062500 0.02945096
vt 0.34062500 0.47801173
vt 0.34605824 0.49160448
vt 0.57425426 0.49160448
vt 0.57968750 0.47801173
vt 0.57968750 0.02945096
vt 0.57425426 0.01585821
vt 0.61016000 0.31082090
vt 0.60837500 0.31585821
vt 0.60837500 0.47705224
vt 0.61016000 0.48208955
vt 0.65121500 0.48208955
vt 0.65300000 0.47705224
vt 0.65300000 0.31585821
vt 0.65121500 0.31082090
vt 0.34981971 0.01585821
vt 0.34062500 0.02537313
vt 0.34062500 0.48208955
vt 0.34981971 0.49160448
vt 0.57049279 0.49160448
vt 0.57968750 0.48208955
vt 0.57968750 0.02537313
vt 0.57049279 0.01585821
vt 0.01062500 0.98414179
vt 0.32937500 0.98414179
vn -0.67601314 0.73688957 0.00000000
vn -0.66990359 0.74244575 -0.00186779
vn -0.66990476 0.74244705 0.00000000
vn -0.67601198 0.73688830 0.00185381
vn -0.67132147 0.74116396 -0.00186456
vn -0.66510533 0.74674541 -0.00248915
vn -0.66510621 0.74674641 0.00187861
vn -0.67132058 0.74116299 0.00247054
vn -0.65886181 0.75225981 -0.00250753
vn -0.65235724 0.75789478 -0.00505263
vn -0.65236349 0.75790204 0.00252634
vn -0.65885560 0.75225272 0.00501502
vn -0.62674989 0.77920318 -0.00519469
vn -0.61951841 0.78494288 -0.00784943
vn -0.61952901 0.78495632 0.00523304
vn -0.62673932 0.77919004 0.00779190
vn -0.57940804 0.81499687 -0.00814997
vn -0.57113334 0.82078434 -0.01094379
vn -0.57114831 0.82080585 0.00820806
vn -0.57939307 0.81497582 0.01086634
vn -0.52061463 0.85371590 -0.01138288
vn -0.51110737 0.85939752 -0.01432329
vn -0.51112625 0.85942926 0.01145906
vn -0.52059566 0.85368479 0.01422808
vn -0.45878801 0.88842238 -0.01480704
vn -0.44808089 0.89381427 -0.01787629
vn -0.44810276 0.89385792 0.01489763
vn -0.45876588 0.88837953 0.01776759
vn -0.40642676 0.91350068 -0.01827001
vn -0.39479511 0.91851918 -0.02143211
vn -0.39481917 0.91857515 0.01837150
vn -0.40640227 0.91344563 0.02131373
vn -0.37626353 0.92626057 -0.02161275
vn -0.36414097 0.93101287 -0.02482701
vn -0.36416728 0.93108013 0.02172520
vn -0.37623663 0.92619435 0.02469852
vn 0.09946871 0.99468709 -0.02652499
vn 0.09946871 0.99468709 0.02652499
vn 0.00000000 0.99964463 -0.02665719
vn -0.00000000 0.99964463 0.02665719
vn -0.09946871 0.99468709 -0.02652499
vn -0.09946871 0.99468709 0.02652499
vn 0.37623663 0.92619435 -0.02469852
vn 0.36416728 0.93108013 -0.02172520
vn 0.36414097 0.93101287 0.02482701
vn 0.37626353 0.92626057 0.02161275
vn 0.40640227 0.91344563 -0.02131373
vn 0.39481917 0.91857515 -0.01837150
vn 0.39479511 0.91851918 0.02143211
vn 0.40642676 0.91350068 0.01827001
vn 0.45876588 0.88837953 -0.01776759
vn 0.44810276 0.89385792 -0.01489763
vn 0.44808089 0.89381427 0.01787629
vn 0.45878801 0.88842238 0.01480704
vn 0.52059566 0.85368479 -0.01422808
vn 0.51112625 0.85942926 -0.01145906
vn 0.51110737 0.85939752 0.01432329
vn 0.52061463 0.85371590 0.01138288
vn 0.57939307 0.81497582 -0.01086634
vn 0.57114831 0.82080585 -0.00820806
vn 0.57113334 0.82078434 0.01094379
vn 0.57940804 0.81499687 0.00814997
vn 0.62673932 0.77919004 -0.00779190
vn 0.61952901 0.78495632 -0.00523304
vn 0.61951841 0.78494288 0.00784943
vn 0.62674989 0.77920318 0.00519469
vn 0.65885560 0.75225272 -0.00501502
vn 0.65236349 0.75790204 -0.00252634
vn 0.65235724 0.75789478 0.00505263
vn 0.65886181 0.75225981 0.00250753
vn 0.67132058 0.74116299 -0.00247054
vn 0.66510621 0.74674641 -0.00187861
vn 0.66510533 0.74674541 0.00248915
vn 0.67132147 0.74116396 0.00186456
vn 0.67601198 0.73688830 -0.00185381
vn 0.66990476 0.74244705 0.00000000
vn 0.66990359 0.74244575 0.00186779
vn 0.67601314 0.73688957 0.00000000
vn -0.18420167 0.76750695 0.61400556
vn -0.00000000 1.00000000 0.00000000
vn -0.18420167 0.76750695 -0.61400556
vn -0.00000000 0.78086881 0.62469505
vn 0.00000000 0.78086881 -0.62469505
vn 0.18420167 0.76750695 0.61400556
vn 0.18420167 0.76750695 -0.61400556
vn -1.00000000 0.00000000 0.00000000
vn 1.00000000 0.00000000 0.00000000
vn 0.64018440 0.76822128 0.00000000
vn 0.27805808 0.96056426 0.00000000
vn 0.58123819 0.81373347 0.00000000
vn 0.96476382 0.26311741 0.00000000
vn 0.94868330 -0.31622777 0.00000000
vn 0.39391930 -0.91914503 0.00000000
vn 0.70710678 -0.70710678 0.00000000
vn 0.99227788 -0.12403473 0.00000000
vn 0.94868330 0.31622777 0.00000000
vn 0.58072468 0.81410002 0.00000000
vn -0.58072468 0.81410002 0.00000000
vn -0.94868330 0.31622777 0.00000000
vn -0.99227788 -0.12403473 0.00000000
vn -0.70710678 -0.70710678 0.00000000
vn -0.39391930 -0.91914503 0.00000000
vn -0.94868330 -0.31622777 0.00000000
vn -0.96476382 0.26311741 0.00000000
vn -0.58123819 0.81373347 0.00000000
vn -0.27805808 0.96056426 0.00000000
vn -0.64018440 0.76822128 0.00000000
vn 0.00000000 -1.00000000 0.00000000
vn 0.00000000 0.00000000 -1.00000000
vn 0.00000000 0.00000000 1.00000000
g ballast
usemtl mat
f 1/1/1 2/2/1 3/3/1
f 3/3/2 4/4/2 1/1/2
f 2/2/3 5/5/3 6/6/3
f 6/6/4 3/3/4 2/2/4
f 4/7/5 3/8/5 7/9/5
f 7/9/6 8/10/6 4/7/6
f 3/8/7 6/11/7 9/12/7
f 9/12/8 7/9/8 3/8/8
f 8/10/9 7/9/9 10/13/9
f 10/13/10 11/14/10 8/10/10
f 7/9/11 9/12/11 12/15/11
f 12/15/12 10/13/12 7/9/12
f 11/14/13 10/13/13 13/16/13
f 13/16/14 14/17/14 11/14/14
f 10/13/15 12/15/15 15/18/15
f 15/18/16 13/16/16 10/13/16
f 14/17/17 13/16/17 16/19/17
f 16/19/18 17/20/18 14/17/18
f 13/16/19 15/18/19 18/21/19
f 18/21/20 16/19/20 13/16/20
f 17/20/21 16/19/21 19/22/21
f 19/22/22 20/23/22 17/20/22
f 16/19/23 18/21/23 21/24/23
f 21/24/24 19/22/24 16/19/24
f 20/23/25 19/22/25 22/25/25
f 22/25/26 23/26/26 20/23/26
f 19/22/27 21/24/27 24/27/27
f 24/27/28 22/25/28 19/22/28
f 23/26/29 22/25/29 25/28/29
f 25/28/30 26/29/30 23/26/30
f 22/25/31 24/27/31 27/30/31
f 27/30/32 25/28/32 22/25/32
f 26/29/33 25/28/33 28/31/33
f 28/31/34 29/32/34 26/29/34
f 25/28/35 27/30/35 30/33/35
f 30/33/36 28/31/36 25/28/36
f 28/31/37 31/3/37 32/4/37 29/32/37
f 30/33/38 33/6/38 31/3/38 28/31/38
f 31/8/39 34/3/39 35/4/39 32/7/39
f 33/11/40 36/6/40 34/3/40 31/8/40
f 34/8/39 37/3/39 38/4/39 35/7/39
f 36/11/40 39/6/40 37/3/40 34/8/40
f 37/8/39 40/3/39 41/4/39 38/7/39
f 39/11/40 42/6/40 40/3/40 37/8/40
f 40/8/39 43/3/39 44/4/39 41/7/39
f 42/11/40 45/6/40 43/3/40 40/8/40
f 43/8/41 46/34/41 47/35/41 44/7/41
f 45/11/42 48/36/42 46/34/42 43/8/42
f 47/35/43 46/34/43 49/37/43
f 49/37/44 50/38/44 47/35/44
f 46/34/45 48/36/45 51/39/45
f 51/39/46 49/37/46 46/34/46
f 50/38/47 49/37/47 52/40/47
f 52/40/48 53/41/48 50/38/48
f 49/37/49 51/39/49 54/42/49
f 54/42/50 52/40/50 49/37/50
f 53/41/51 52/40/51 55/43/51
f 55/43/52 56/44/52 53/41/52
f 52/40/53 54/42/53 57/45/53
f 57/45/54 55/43/54 52/40/54
f 56/44/55 55/43/55 58/46/55
f 58/46/56 59/47/56 56/44/56
f 55/43/57 57/45/57 60/48/57
f 60/48/58 58/46/58 55/43/58
f 59/47/59 58/46/59 61/49/59
f 61/49/60 62/50/60 59/47/60
f 58/46/61 60/48/61 63/51/61
f 63/51/62 61/49/62 58/46/62
f 62/50/63 61/49/63 64/52/63
f 64/52/64 65/53/64 62/50/64
f 61/49/65 63/51/65 66/54/65
f 66/54/66 64/52/66 61/49/66
f 65/53/67 64/52/67 67/55/67
f 67/55/68 68/56/68 65/53/68
f 64/52/69 66/54/69 69/57/69
f 69/57/70 67/55/70 64/52/70
f 68/56/71 67/55/71 70/3/71
f 70/3/72 71/4/72 68/56/72
f 67/55/73 69/57/73 72/6/73
f 72/6/74 70/3/74 67/55/74
f 71/7/75 70/8/75 73/58/75
f 73/58/76 74/59/76 71/7/76
f 70/8/77 72/11/77 75/60/77
f 75/60/78 73/58/78 70/8/78
g sleeper
usemtl mat
f 76/61/79 77/62/79 78/63/79 79/64/79
f 79/64/80 78/63/80 80/65/80 81/66/80
f 81/66/81 80/65/81 82/67/81 83/68/81
f 77/69/82 84/70/82 85/71/82 78/72/82
f 78/72/80 85/71/80 86/73/80 80/74/80
f 80/74/83 86/73/83 87/75/83 82/76/83
f 84/70/82 88/62/82 89/63/82 85/71/82
f 85/71/80 89/63/80 90/65/80 86/73/80
f 86/73/83 90/65/83 91/67/83 87/75/83
f 88/69/82 92/77/82 93/78/82 89/72/82
f 89/72/80 93/78/80 94/79/80 90/74/80
f 90/74/83 94/79/83 95/80/83 91/76/83
f 92/77/82 96/62/82 97/63/82 93/78/82
f 93/78/80 97/63/80 98/65/80 94/79/80
f 94/79/83 98/65/83 99/67/83 95/80/83
f 96/69/82 100/81/82 101/82/82 97/72/82
f 97/72/80 101/82/80 102/83/80 98/74/80
f 98/74/83 102/83/83 103/84/83 99/76/83
f 100/81/82 104/62/82 105/63/82 101/82/82
f 101/82/80 105/63/80 106/65/80 102/83/80
f 102/83/83 106/65/83 107/67/83 103/84/83
f 104/69/82 108/85/82 109/86/82 105/72/82
f 105/72/80 109/86/80 110/87/80 106/74/80
f 106/74/83 110/87/83 111/88/83 107/76/83
f 108/85/82 112/62/82 113/63/82 109/86/82
f 109/86/80 113/63/80 114/65/80 110/87/80
f 110/87/83 114/65/83 115/67/83 111/88/83
f 112/69/84 116/89/84 117/90/84 113/72/84
f 113/72/80 117/90/80 118/91/80 114/74/80
f 114/74/85 118/91/85 119/92/85 115/76/85
f 83/93/86 120/94/86 76/95/86
f 83/93/86 76/95/86 79/96/86
f 79/96/86 81/97/86 83/93/86
f 121/98/87 119/93/87 118/97/87
f 121/98/87 118/97/87 117/96/87
f 121/98/87 117/96/87 116/95/87
g fastener_left
usemtl mat
f 122/99/80 123/100/80 124/101/80 125/102/80
f 126/103/80 127/104/80 128/105/80 129/106/80
f 130/103/80 131/104/80 132/105/80 133/106/80
f 134/107/80 135/108/80 136/109/80 137/110/80
f 138/103/80 139/104/80 140/105/80 141/106/80
f 142/107/80 143/108/80 144/109/80 145/110/80
g rail_left
usemtl mat
f 146/111/87 147/112/87 148/113/87 149/114/87
f 147/112/88 150/115/88 151/116/88 148/113/88
f 150/115/89 152/117/89 153/118/89 151/116/89
f 152/117/90 154/119/90 155/120/90 153/118/90
f 154/119/91 156/121/91 157/122/91 155/120/91
f 156/121/87 158/123/87 159/124/87 157/122/87
f 158/123/92 160/125/92 161/126/92 159/124/92
f 160/125/93 162/127/93 163/128/93 161/126/93
f 162/127/94 164/129/94 165/130/94 163/128/94
f 164/129/95 166/131/95 167/132/95 165/130/95
f 166/131/87 168/133/87 169/134/87 167/132/87
f 168/133/96 170/135/96 171/136/96 169/134/96
f 170/137/97 172/138/97 173/139/97 171/140/97
f 172/138/80 174/141/80 175/142/80 173/139/80
f 174/141/98 176/143/98 177/144/98 175/142/98
f 176/135/99 178/133/99 179/134/99 177/136/99
f 178/133/86 180/131/86 181/132/86 179/134/86
f 180/131/100 182/129/100 183/130/100 181/132/100
f 182/129/101 184/127/101 185/128/101 183/130/101
f 184/127/102 186/125/102 187/126/102 185/128/102
f 186/125/103 188/123/103 189/124/103 187/126/103
f 188/123/86 190/121/86 191/122/86 189/124/86
f 190/121/104 192/119/104 193/120/104 191/122/104
f 192/119/105 194/117/105 195/118/105 193/120/105
f 194/117/106 196/115/106 197/116/106 195/118/106
f 196/115/107 198/112/107 199/113/107 197/116/107
f 198/112/86 200/111/86 201/114/86 199/113/86
f 200/111/108 146/145/108 149/146/108 201/114/108
g rail_left_end
usemtl mat
f 146/147/109 200/148/109 198/149/109
f 146/147/109 198/149/109 196/150/109
f 146/147/109 196/150/109 194/151/109
f 146/147/109 194/151/109 192/152/109
f 186/153/109 184/154/109 182/155/109
f 186/153/109 182/155/109 180/156/109
f 186/153/109 180/156/109 178/157/109
f 186/153/109 178/157/109 176/158/109
f 186/153/109 176/158/109 174/159/109
f 188/160/109 186/153/109 174/159/109
f 188/160/109 174/159/109 172/161/109
f 188/160/109 172/161/109 170/162/109
f 188/160/109 170/162/109 168/163/109
f 188/160/109 168/163/109 166/164/109
f 188/160/109 166/164/109 164/165/109
f 164/165/109 162/166/109 160/167/109
f 188/160/109 164/165/109 160/167/109
f 188/160/109 160/167/109 158/168/109
f 190/169/109 188/160/109 158/168/109
f 192/152/109 190/169/109 158/168/109
f 192/152/109 158/168/109 156/170/109
f 192/152/109 156/170/109 154/171/109
f 192/152/109 154/171/109 152/172/109
f 146/147/109 192/152/109 152/172/109
f 146/147/109 152/172/109 150/173/109
f 150/173/109 147/174/109 146/147/109
f 201/148/110 149/147/110 148/174/110
f 201/148/110 148/174/110 151/173/110
f 201/148/110 151/173/110 153/172/110
f 201/148/110 153/172/110 155/171/110
f 161/167/110 163/166/110 165/165/110
f 161/167/110 165/165/110 167/164/110
f 161/167/110 167/164/110 169/163/110
f 161/167/110 169/163/110 171/162/110
f 161/167/110 171/162/110 173/161/110
f 159/168/110 161/167/110 173/161/110
f 159/168/110 173/161/110 175/159/110
f 159/168/110 175/159/110 177/158/110
f 159/168/110 177/158/110 179/157/110
f 159/168/110 179/157/110 181/156/110
f 159/168/110 181/156/110 183/155/110
f 183/155/110 185/154/110 187/153/110
f 159/168/110 183/155/110 187/153/110
f 159/168/110 187/153/110 189/160/110
f 157/170/110 159/168/110 189/160/110
f 155/171/110 157/170/110 189/160/110
f 155/171/110 189/160/110 191/169/110
f 155/171/110 191/169/110 193/152/110
f 155/171/110 193/152/110 195/151/110
f 201/148/110 155/171/110 195/151/110
f 201/148/110 195/151/110 197/150/110
f 197/150/110 199/149/110 201/148/110
g fastener_right
usemtl mat
f 202/99/80 203/100/80 204/101/80 205/102/80
f 206/103/80 207/104/80 208/105/80 209/106/80
f 210/103/80 211/104/80 212/105/80 213/106/80
f 214/107/80 215/108/80 216/109/80 217/110/80
f 218/103/80 219/104/80 220/105/80 221/106/80
f 222/107/80 223/108/80 224/109/80 225/110/80
g rail_right
usemtl mat
f 226/111/87 227/112/87 228/113/87 229/114/87
f 227/112/88 230/115/88 231/116/88 228/113/88
f 230/115/89 232/117/89 233/118/89 231/116/89
f 232/117/90 234/119/90 235/120/90 233/118/90
f 234/119/91 236/121/91 237/122/91 235/120/91
f 236/121/87 238/123/87 239/124/87 237/122/87
f 238/123/92 240/125/92 241/126/92 239/124/92
f 240/125/93 242/127/93 243/128/93 241/126/93
f 242/127/94 244/129/94 245/130/94 243/128/94
f 244/129/95 246/131/95 247/132/95 245/130/95
f 246/131/87 248/133/87 249/134/87 247/132/87
f 248/133/96 250/135/96 251/136/96 249/134/96
f 250/137/97 252/138/97 253/139/97 251/140/97
f 252/138/80 254/141/80 255/142/80 253/139/80
f 254/141/98 256/143/98 257/144/98 255/142/98
f 256/135/99 258/133/99 259/134/99 257/136/99
f 258/133/86 260/131/86 261/132/86 259/134/86
f 260/131/100 262/129/100 263/130/100 261/132/100
f 262/129/101 264/127/101 265/128/101 263/130/101
f 264/127/102 266/125/102 267/126/102 265/128/102
f 266/125/103 268/123/103 269/124/103 267/126/103
f 268/123/86 270/121/86 271/122/86 269/124/86
f 270/121/104 272/119/104 273/120/104 271/122/104
f 272/119/105 274/117/105 275/118/105 273/120/105
f 274/117/106 276/115/106 277/116/106 275/118/106
f 276/115/107 278/112/107 279/113/107 277/116/107
f 278/112/86 280/111/86 281/114/86 279/113/86
f 280/111/108 226/145/108 229/146/108 281/114/108
g rail_right_end
usemtl mat
f 226/147/109 280/148/109 278/149/109
f 226/147/109 278/149/109 276/150/109
f 226/147/109 276/150/109 274/151/109
f 226/147/109 274/151/109 272/152/109
f 266/153/109 264/154/109 262/155/109
f 266/153/109 262/155/109 260/156/109
f 266/153/109 260/156/109 258/157/109
f 266/153/109 258/157/109 256/158/109
f 266/153/109 256/158/109 254/159/109
f 268/160/109 266/153/109 254/159/109
f 268/160/109 254/159/109 252/161/109
f 268/160/109 252/161/109 250/162/109
f 268/160/109 250/162/109 248/163/109
f 268/160/109 248/163/109 246/164/109
f 268/160/109 246/164/109 244/165/109
f 244/165/109 242/166/109 240/167/109
f 268/160/109 244/165/109 240/167/109
f 268/160/109 240/167/109 238/168/109
f 270/169/109 268/160/109 238/168/109
f 272/152/109 270/169/109 238/168/109
f 272/152/109 238/168/109 236/170/109
f 272/152/109 236/170/109 234/171/109
f 272/152/109 234/171/109 232/172/109
f 226/147/109 272/152/109 232/172/109
f 226/147/109 232/172/109 230/173/109
f 230/173/109 227/174/109 226/147/109
f 281/148/110 229/147/110 228/174/110
f 281/148/110 228/174/110 231/173/110
f 281/148/110 231/173/110 233/172/110
f 281/148/110 233/172/110 235/171/110
f 241/167/110 243/166/110 245/165/110
f 241/167/110 245/165/110 247/164/110
f 241/167/110 247/164/110 249/163/110
f 241/167/110 249/163/110 251/162/110
f 241/167/110 251/162/110 253/161/110
f 239/168/110 241/167/110 253/161/110
f 239/168/110 253/161/110 255/159/110
f 239/168/110 255/159/110 257/158/110
f 239/168/110 257/158/110 259/157/110
f 239/168/110 259/157/110 261/156/110
f 239/168/110 261/156/110 263/155/110
f 263/155/110 265/154/110 267/153/110
f 239/168/110 263/155/110 267/153/110
f 239/168/110 267/153/110 269/160/110
f 237/170/110 239/168/110 269/160/110
f 235/171/110 237/170/110 269/160/110
f 235/171/110 269/160/110 271/169/110
f 235/171/110 271/169/110 273/152/110
f 235/171/110 273/152/110 275/151/110
f 281/148/110 235/171/110 275/151/110
f 281/148/110 275/151/110 277/150/110
f 277/150/110 279/149/110 281/148/110
g center_fastener_left
usemtl mat
f 282/175/80 283/176/80 284/177/80
f 282/175/80 284/177/80 285/178/80
f 282/175/80 285/178/80 286/179/80
f 282/175/80 286/179/80 287/180/80
f 282/175/80 287/180/80 288/181/80
f 288/181/80 289/182/80 282/175/80
f 290/183/80 291/184/80 292/185/80
f 290/183/80 292/185/80 293/186/80
f 290/183/80 293/186/80 294/187/80
f 290/183/80 294/187/80 295/188/80
f 290/183/80 295/188/80 296/189/80
f 296/189/80 297/190/80 290/183/80
f 298/191/80 299/192/80 300/193/80
f 298/191/80 300/193/80 301/194/80
f 298/191/80 301/194/80 302/195/80
f 298/191/80 302/195/80 303/196/80
f 298/191/80 303/196/80 304/197/80
f 304/197/80 305/198/80 298/191/80
f 306/191/80 307/192/80 308/193/80
f 306/191/80 308/193/80 309/194/80
f 306/191/80 309/194/80 310/195/80
f 306/191/80 310/195/80 311/196/80
f 306/191/80 311/196/80 312/197/80
f 312/197/80 313/198/80 306/191/80
g center_guard_left
usemtl mat
f 314/111/87 315/112/87 316/113/87 317/114/87
f 315/112/88 318/115/88 319/116/88 316/113/88
f 318/115/89 320/117/89 321/118/89 319/116/89
f 320/117/90 322/119/90 323/120/90 321/118/90
f 322/119/91 324/121/91 325/122/91 323/120/91
f 324/121/87 326/123/87 327/124/87 325/122/87
f 326/123/92 328/125/92 329/126/92 327/124/92
f 328/125/93 330/127/93 331/128/93 329/126/93
f 330/127/94 332/129/94 333/130/94 331/128/94
f 332/129/95 334/131/95 335/132/95 333/130/95
f 334/131/87 336/133/87 337/134/87 335/132/87
f 336/133/96 338/135/96 339/136/96 337/134/96
f 338/135/97 340/199/97 341/200/97 339/136/97
f 340/111/80 342/145/80 343/146/80 341/114/80
f 342/199/98 344/135/98 345/136/98 343/200/98
f 344/135/99 346/133/99 347/134/99 345/136/99
f 346/133/86 348/131/86 349/132/86 347/134/86
f 348/131/100 350/129/100 351/130/100 349/132/100
f 350/129/101 352/127/101 353/128/101 351/130/101
f 352/127/102 354/125/102 355/126/102 353/128/102
f 354/125/103 356/123/103 357/124/103 355/126/103
f 356/123/86 358/121/86 359/122/86 357/124/86
f 358/121/104 360/119/104 361/120/104 359/122/104
f 360/119/105 362/117/105 363/118/105 361/120/105
f 362/117/106 364/115/106 365/116/106 363/118/106
f 364/115/107 366/112/107 367/113/107 365/116/107
f 366/112/86 368/111/86 369/114/86 367/113/86
f 368/111/108 314/145/108 317/146/108 369/114/108
g center_fastener_right
usemtl mat
f 370/175/80 371/176/80 372/177/80
f 370/175/80 372/177/80 373/178/80
f 370/175/80 373/178/80 374/179/80
f 370/175/80 374/179/80 375/180/80
f 370/175/80 375/180/80 376/181/80
f 376/181/80 377/182/80 370/175/80
f 378/183/80 379/184/80 380/185/80
f 378/183/80 380/185/80 381/186/80
f 378/183/80 381/186/80 382/187/80
f 378/183/80 382/187/80 383/188/80
f 378/183/80 383/188/80 384/189/80
f 384/189/80 385/190/80 378/183/80
f 386/191/80 387/192/80 388/193/80
f 386/191/80 388/193/80 389/194/80
f 386/191/80 389/194/80 390/195/80
f 386/191/80 390/195/80 391/196/80
f 386/191/80 391/196/80 392/197/80
f 392/197/80 393/198/80 386/191/80
f 394/191/80 395/192/80 396/193/80
f 394/191/80 396/193/80 397/194/80
f 394/191/80 397/194/80 398/195/80
f 394/191/80 398/195/80 399/196/80
f 394/191/80 399/196/80 400/197/80
f 400/197/80 401/198/80 394/191/80
g center_guard_right
usemtl mat
f 402/111/87 403/112/87 404/113/87 405/114/87
f 403/112/88 406/115/88 407/116/88 404/113/88
f 406/115/89 408/117/89 409/118/89 407/116/89
f 408/117/90 410/119/90 411/120/90 409/118/90
f 410/119/91 412/121/91 413/122/91 411/120/91
f 412/121/87 414/123/87 415/124/87 413/122/87
f 414/123/92 416/125/92 417/126/92 415/124/92
f 416/125/93 418/127/93 419/128/93 417/126/93
f 418/127/94 420/129/94 421/130/94 419/128/94
f 420/129/95 422/131/95 423/132/95 421/130/95
f 422/131/87 424/133/87 425/134/87 423/132/87
f 424/133/96 426/135/96 427/136/96 425/134/96
f 426/135/97 428/199/97 429/200/97 427/136/97
f 428/111/80 430/145/80 431/146/80 429/114/80
f 430/199/98 432/135/98 433/136/98 431/200/98
f 432/135/99 434/133/99 435/134/99 433/136/99
f 434/133/86 436/131/86 437/132/86 435/134/86
f 436/131/100 438/129/100 439/130/100 437/132/100
f 438/129/101 440/127/101 441/128/101 439/130/101
f 440/127/102 442/125/102 443/126/102 441/128/102
f 442/125/103 444/123/103 445/124/103 443/126/103
f 444/123/86 446/121/86 447/122/86 445/124/86
f 446/121/104 448/119/104 449/120/104 447/122/104
f 448/119/105 450/117/105 451/118/105 449/120/105
f 450/117/106 452/115/106 453/116/106 451/118/106
f 452/115/107 454/112/107 455/113/107 453/116/107
f 454/112/86 456/111/86 457/114/86 455/113/86
f 456/111/108 402/145/108 405/146/108 457/114/108
