# metres; Y up; CCW outward; repeat 0.6 m
mtllib center_guard_endpoint.mtl
v -0.087389 0.099422 0.550000
v -0.087389 0.108000 0.550000
v -0.102667 0.108000 0.646154
v -0.102667 0.099422 0.646154
v -0.093389 0.113000 0.550000
v -0.108667 0.113000 0.646154
v -0.131389 0.124000 0.550000
v -0.146667 0.124000 0.646154
v -0.145389 0.134000 0.550000
v -0.160667 0.134000 0.646154
v -0.148389 0.145000 0.550000
v -0.163667 0.145000 0.646154
v -0.148389 0.207000 0.550000
v -0.163667 0.207000 0.646154
v -0.144389 0.219000 0.550000
v -0.159667 0.219000 0.646154
v -0.130389 0.225000 0.550000
v -0.145667 0.225000 0.646154
v -0.124389 0.231000 0.550000
v -0.139667 0.231000 0.646154
v -0.123389 0.239000 0.550000
v -0.138667 0.239000 0.646154
v -0.123389 0.254000 0.550000
v -0.138667 0.254000 0.646154
v -0.125389 0.260000 0.550000
v -0.140667 0.260000 0.646154
v -0.131389 0.264280 0.550000
v -0.146667 0.264280 0.646154
v -0.183389 0.264280 0.550000
v -0.198667 0.264280 0.646154
v -0.189389 0.260000 0.550000
v -0.204667 0.260000 0.646154
v -0.191389 0.254000 0.550000
v -0.206667 0.254000 0.646154
v -0.191389 0.239000 0.550000
v -0.206667 0.239000 0.646154
v -0.190389 0.231000 0.550000
v -0.205667 0.231000 0.646154
v -0.184389 0.225000 0.550000
v -0.199667 0.225000 0.646154
v -0.170389 0.219000 0.550000
v -0.185667 0.219000 0.646154
v -0.166389 0.207000 0.550000
v -0.181667 0.207000 0.646154
v -0.166389 0.145000 0.550000
v -0.181667 0.145000 0.646154
v -0.169389 0.134000 0.550000
v -0.184667 0.134000 0.646154
v -0.183389 0.124000 0.550000
v -0.198667 0.124000 0.646154
v -0.221389 0.113000 0.550000
v -0.236667 0.113000 0.646154
v -0.227389 0.108000 0.550000
v -0.242667 0.108000 0.646154
v -0.227389 0.099422 0.550000
v -0.242667 0.099422 0.646154
v -0.117944 0.108000 0.742308
v -0.117944 0.099422 0.742308
v -0.123944 0.113000 0.742308
v -0.161944 0.124000 0.742308
v -0.175944 0.134000 0.742308
v -0.178944 0.145000 0.742308
v -0.178944 0.207000 0.742308
v -0.174944 0.219000 0.742308
v -0.160944 0.225000 0.742308
v -0.154944 0.231000 0.742308
v -0.153944 0.239000 0.742308
v -0.153944 0.254000 0.742308
v -0.155944 0.260000 0.742308
v -0.161944 0.264280 0.742308
v -0.213944 0.264280 0.742308
v -0.219944 0.260000 0.742308
v -0.221944 0.254000 0.742308
v -0.221944 0.239000 0.742308
v -0.220944 0.231000 0.742308
v -0.214944 0.225000 0.742308
v -0.200944 0.219000 0.742308
v -0.196944 0.207000 0.742308
v -0.196944 0.145000 0.742308
v -0.199944 0.134000 0.742308
v -0.213944 0.124000 0.742308
v -0.251944 0.113000 0.742308
v -0.257944 0.108000 0.742308
v -0.257944 0.099422 0.742308
v -0.133222 0.108000 0.838462
v -0.133222 0.099422 0.838462
v -0.139222 0.113000 0.838462
v -0.177222 0.124000 0.838462
v -0.191222 0.134000 0.838462
v -0.194222 0.145000 0.838462
v -0.194222 0.207000 0.838462
v -0.190222 0.219000 0.838462
v -0.176222 0.225000 0.838462
v -0.170222 0.231000 0.838462
v -0.169222 0.239000 0.838462
v -0.169222 0.254000 0.838462
v -0.171222 0.260000 0.838462
v -0.177222 0.264280 0.838462
v -0.229222 0.264280 0.838462
v -0.235222 0.260000 0.838462
v -0.237222 0.254000 0.838462
v -0.237222 0.239000 0.838462
v -0.236222 0.231000 0.838462
v -0.230222 0.225000 0.838462
v -0.216222 0.219000 0.838462
v -0.212222 0.207000 0.838462
v -0.212222 0.145000 0.838462
v -0.215222 0.134000 0.838462
v -0.229222 0.124000 0.838462
v -0.267222 0.113000 0.838462
v -0.273222 0.108000 0.838462
v -0.273222 0.099422 0.838462
v -0.148500 0.108000 0.934615
v -0.148500 0.099422 0.934615
v -0.154500 0.113000 0.934615
v -0.192500 0.124000 0.934615
v -0.206500 0.134000 0.934615
v -0.209500 0.145000 0.934615
v -0.209500 0.207000 0.934615
v -0.205500 0.219000 0.934615
v -0.191500 0.225000 0.934615
v -0.185500 0.231000 0.934615
v -0.184500 0.239000 0.934615
v -0.184500 0.254000 0.934615
v -0.186500 0.260000 0.934615
v -0.192500 0.264280 0.934615
v -0.244500 0.264280 0.934615
v -0.250500 0.260000 0.934615
v -0.252500 0.254000 0.934615
v -0.252500 0.239000 0.934615
v -0.251500 0.231000 0.934615
v -0.245500 0.225000 0.934615
v -0.231500 0.219000 0.934615
v -0.227500 0.207000 0.934615
v -0.227500 0.145000 0.934615
v -0.230500 0.134000 0.934615
v -0.244500 0.124000 0.934615
v -0.282500 0.113000 0.934615
v -0.288500 0.108000 0.934615
v -0.288500 0.099422 0.934615
v -0.163778 0.108000 1.030769
v -0.163778 0.099422 1.030769
v -0.169778 0.113000 1.030769
v -0.207778 0.124000 1.030769
v -0.221778 0.134000 1.030769
v -0.224778 0.145000 1.030769
v -0.224778 0.207000 1.030769
v -0.220778 0.219000 1.030769
v -0.206778 0.225000 1.030769
v -0.200778 0.231000 1.030769
v -0.199778 0.239000 1.030769
v -0.199778 0.254000 1.030769
v -0.201778 0.260000 1.030769
v -0.207778 0.264280 1.030769
v -0.259778 0.264280 1.030769
v -0.265778 0.260000 1.030769
v -0.267778 0.254000 1.030769
v -0.267778 0.239000 1.030769
v -0.266778 0.231000 1.030769
v -0.260778 0.225000 1.030769
v -0.246778 0.219000 1.030769
v -0.242778 0.207000 1.030769
v -0.242778 0.145000 1.030769
v -0.245778 0.134000 1.030769
v -0.259778 0.124000 1.030769
v -0.297778 0.113000 1.030769
v -0.303778 0.108000 1.030769
v -0.303778 0.099422 1.030769
v -0.179056 0.108000 1.126923
v -0.179056 0.099422 1.126923
v -0.185056 0.113000 1.126923
v -0.223056 0.124000 1.126923
v -0.237056 0.134000 1.126923
v -0.240056 0.145000 1.126923
v -0.240056 0.207000 1.126923
v -0.236056 0.219000 1.126923
v -0.222056 0.225000 1.126923
v -0.216056 0.231000 1.126923
v -0.215056 0.239000 1.126923
v -0.215056 0.254000 1.126923
v -0.217056 0.260000 1.126923
v -0.223056 0.264280 1.126923
v -0.275056 0.264280 1.126923
v -0.281056 0.260000 1.126923
v -0.283056 0.254000 1.126923
v -0.283056 0.239000 1.126923
v -0.282056 0.231000 1.126923
v -0.276056 0.225000 1.126923
v -0.262056 0.219000 1.126923
v -0.258056 0.207000 1.126923
v -0.258056 0.145000 1.126923
v -0.261056 0.134000 1.126923
v -0.275056 0.124000 1.126923
v -0.313056 0.113000 1.126923
v -0.319056 0.108000 1.126923
v -0.319056 0.099422 1.126923
v -0.194333 0.108000 1.223077
v -0.194333 0.099422 1.223077
v -0.200333 0.113000 1.223077
v -0.238333 0.124000 1.223077
v -0.252333 0.134000 1.223077
v -0.255333 0.145000 1.223077
v -0.255333 0.207000 1.223077
v -0.251333 0.219000 1.223077
v -0.237333 0.225000 1.223077
v -0.231333 0.231000 1.223077
v -0.230333 0.239000 1.223077
v -0.230333 0.254000 1.223077
v -0.232333 0.260000 1.223077
v -0.238333 0.264280 1.223077
v -0.290333 0.264280 1.223077
v -0.296333 0.260000 1.223077
v -0.298333 0.254000 1.223077
v -0.298333 0.239000 1.223077
v -0.297333 0.231000 1.223077
v -0.291333 0.225000 1.223077
v -0.277333 0.219000 1.223077
v -0.273333 0.207000 1.223077
v -0.273333 0.145000 1.223077
v -0.276333 0.134000 1.223077
v -0.290333 0.124000 1.223077
v -0.328333 0.113000 1.223077
v -0.334333 0.108000 1.223077
v -0.334333 0.099422 1.223077
v -0.209611 0.108000 1.319231
v -0.209611 0.099422 1.319231
v -0.215611 0.113000 1.319231
v -0.253611 0.124000 1.319231
v -0.267611 0.134000 1.319231
v -0.270611 0.145000 1.319231
v -0.270611 0.207000 1.319231
v -0.266611 0.219000 1.319231
v -0.252611 0.225000 1.319231
v -0.246611 0.231000 1.319231
v -0.245611 0.239000 1.319231
v -0.245611 0.254000 1.319231
v -0.247611 0.260000 1.319231
v -0.253611 0.264280 1.319231
v -0.305611 0.264280 1.319231
v -0.311611 0.260000 1.319231
v -0.313611 0.254000 1.319231
v -0.313611 0.239000 1.319231
v -0.312611 0.231000 1.319231
v -0.306611 0.225000 1.319231
v -0.292611 0.219000 1.319231
v -0.288611 0.207000 1.319231
v -0.288611 0.145000 1.319231
v -0.291611 0.134000 1.319231
v -0.305611 0.124000 1.319231
v -0.343611 0.113000 1.319231
v -0.349611 0.108000 1.319231
v -0.349611 0.099422 1.319231
v -0.224889 0.108000 1.415385
v -0.224889 0.099422 1.415385
v -0.230889 0.113000 1.415385
v -0.268889 0.124000 1.415385
v -0.282889 0.134000 1.415385
v -0.285889 0.145000 1.415385
v -0.285889 0.207000 1.415385
v -0.281889 0.219000 1.415385
v -0.267889 0.225000 1.415385
v -0.261889 0.231000 1.415385
v -0.260889 0.239000 1.415385
v -0.260889 0.254000 1.415385
v -0.262889 0.260000 1.415385
v -0.268889 0.264280 1.415385
v -0.320889 0.264280 1.415385
v -0.326889 0.260000 1.415385
v -0.328889 0.254000 1.415385
v -0.328889 0.239000 1.415385
v -0.327889 0.231000 1.415385
v -0.321889 0.225000 1.415385
v -0.307889 0.219000 1.415385
v -0.303889 0.207000 1.415385
v -0.303889 0.145000 1.415385
v -0.306889 0.134000 1.415385
v -0.320889 0.124000 1.415385
v -0.358889 0.113000 1.415385
v -0.364889 0.108000 1.415385
v -0.364889 0.099422 1.415385
v -0.240167 0.108000 1.511538
v -0.240167 0.099422 1.511538
v -0.246167 0.113000 1.511538
v -0.284167 0.124000 1.511538
v -0.298167 0.134000 1.511538
v -0.301167 0.145000 1.511538
v -0.301167 0.207000 1.511538
v -0.297167 0.219000 1.511538
v -0.283167 0.225000 1.511538
v -0.277167 0.231000 1.511538
v -0.276167 0.239000 1.511538
v -0.276167 0.254000 1.511538
v -0.278167 0.260000 1.511538
v -0.284167 0.264280 1.511538
v -0.336167 0.264280 1.511538
v -0.342167 0.260000 1.511538
v -0.344167 0.254000 1.511538
v -0.344167 0.239000 1.511538
v -0.343167 0.231000 1.511538
v -0.337167 0.225000 1.511538
v -0.323167 0.219000 1.511538
v -0.319167 0.207000 1.511538
v -0.319167 0.145000 1.511538
v -0.322167 0.134000 1.511538
v -0.336167 0.124000 1.511538
v -0.374167 0.113000 1.511538
v -0.380167 0.108000 1.511538
v -0.380167 0.099422 1.511538
v -0.255444 0.108000 1.607692
v -0.255444 0.099422 1.607692
v -0.261444 0.113000 1.607692
v -0.299444 0.124000 1.607692
v -0.313444 0.134000 1.607692
v -0.316444 0.145000 1.607692
v -0.316444 0.207000 1.607692
v -0.312444 0.219000 1.607692
v -0.298444 0.225000 1.607692
v -0.292444 0.231000 1.607692
v -0.291444 0.239000 1.607692
v -0.291444 0.254000 1.607692
v -0.293444 0.260000 1.607692
v -0.299444 0.264280 1.607692
v -0.351444 0.264280 1.607692
v -0.357444 0.260000 1.607692
v -0.359444 0.254000 1.607692
v -0.359444 0.239000 1.607692
v -0.358444 0.231000 1.607692
v -0.352444 0.225000 1.607692
v -0.338444 0.219000 1.607692
v -0.334444 0.207000 1.607692
v -0.334444 0.145000 1.607692
v -0.337444 0.134000 1.607692
v -0.351444 0.124000 1.607692
v -0.389444 0.113000 1.607692
v -0.395444 0.108000 1.607692
v -0.395444 0.099422 1.607692
v -0.270722 0.108000 1.703846
v -0.270722 0.099422 1.703846
v -0.276722 0.113000 1.703846
v -0.314722 0.124000 1.703846
v -0.328722 0.134000 1.703846
v -0.331722 0.145000 1.703846
v -0.331722 0.207000 1.703846
v -0.327722 0.219000 1.703846
v -0.313722 0.225000 1.703846
v -0.307722 0.231000 1.703846
v -0.306722 0.239000 1.703846
v -0.306722 0.254000 1.703846
v -0.308722 0.260000 1.703846
v -0.314722 0.264280 1.703846
v -0.366722 0.264280 1.703846
v -0.372722 0.260000 1.703846
v -0.374722 0.254000 1.703846
v -0.374722 0.239000 1.703846
v -0.373722 0.231000 1.703846
v -0.367722 0.225000 1.703846
v -0.353722 0.219000 1.703846
v -0.349722 0.207000 1.703846
v -0.349722 0.145000 1.703846
v -0.352722 0.134000 1.703846
v -0.366722 0.124000 1.703846
v -0.404722 0.113000 1.703846
v -0.410722 0.108000 1.703846
v -0.410722 0.099422 1.703846
v -0.286000 0.108000 1.800000
v -0.286000 0.099422 1.800000
v -0.292000 0.113000 1.800000
v -0.330000 0.124000 1.800000
v -0.344000 0.134000 1.800000
v -0.347000 0.145000 1.800000
v -0.347000 0.207000 1.800000
v -0.343000 0.219000 1.800000
v -0.329000 0.225000 1.800000
v -0.323000 0.231000 1.800000
v -0.322000 0.239000 1.800000
v -0.322000 0.254000 1.800000
v -0.324000 0.260000 1.800000
v -0.330000 0.264280 1.800000
v -0.382000 0.264280 1.800000
v -0.388000 0.260000 1.800000
v -0.390000 0.254000 1.800000
v -0.390000 0.239000 1.800000
v -0.389000 0.231000 1.800000
v -0.383000 0.225000 1.800000
v -0.369000 0.219000 1.800000
v -0.365000 0.207000 1.800000
v -0.365000 0.145000 1.800000
v -0.368000 0.134000 1.800000
v -0.382000 0.124000 1.800000
v -0.420000 0.113000 1.800000
v -0.426000 0.108000 1.800000
v -0.426000 0.099422 1.800000
v 0.227389 0.099422 0.550000
v 0.227389 0.108000 0.550000
v 0.242667 0.108000 0.646154
v 0.242667 0.099422 0.646154
v 0.221389 0.113000 0.550000
v 0.236667 0.113000 0.646154
v 0.183389 0.124000 0.550000
v 0.198667 0.124000 0.646154
v 0.169389 0.134000 0.550000
v 0.184667 0.134000 0.646154
v 0.166389 0.145000 0.550000
v 0.181667 0.145000 0.646154
v 0.166389 0.207000 0.550000
v 0.181667 0.207000 0.646154
v 0.170389 0.219000 0.550000
v 0.185667 0.219000 0.646154
v 0.184389 0.225000 0.550000
v 0.199667 0.225000 0.646154
v 0.190389 0.231000 0.550000
v 0.205667 0.231000 0.646154
v 0.191389 0.239000 0.550000
v 0.206667 0.239000 0.646154
v 0.191389 0.254000 0.550000
v 0.206667 0.254000 0.646154
v 0.189389 0.260000 0.550000
v 0.204667 0.260000 0.646154
v 0.183389 0.264280 0.550000
v 0.198667 0.264280 0.646154
v 0.131389 0.264280 0.550000
v 0.146667 0.264280 0.646154
v 0.125389 0.260000 0.550000
v 0.140667 0.260000 0.646154
v 0.123389 0.254000 0.550000
v 0.138667 0.254000 0.646154
v 0.123389 0.239000 0.550000
v 0.138667 0.239000 0.646154
v 0.124389 0.231000 0.550000
v 0.139667 0.231000 0.646154
v 0.130389 0.225000 0.550000
v 0.145667 0.225000 0.646154
v 0.144389 0.219000 0.550000
v 0.159667 0.219000 0.646154
v 0.148389 0.207000 0.550000
v 0.163667 0.207000 0.646154
v 0.148389 0.145000 0.550000
v 0.163667 0.145000 0.646154
v 0.145389 0.134000 0.550000
v 0.160667 0.134000 0.646154
v 0.131389 0.124000 0.550000
v 0.146667 0.124000 0.646154
v 0.093389 0.113000 0.550000
v 0.108667 0.113000 0.646154
v 0.087389 0.108000 0.550000
v 0.102667 0.108000 0.646154
v 0.087389 0.099422 0.550000
v 0.102667 0.099422 0.646154
v 0.257944 0.108000 0.742308
v 0.257944 0.099422 0.742308
v 0.251944 0.113000 0.742308
v 0.213944 0.124000 0.742308
v 0.199944 0.134000 0.742308
v 0.196944 0.145000 0.742308
v 0.196944 0.207000 0.742308
v 0.200944 0.219000 0.742308
v 0.214944 0.225000 0.742308
v 0.220944 0.231000 0.742308
v 0.221944 0.239000 0.742308
v 0.221944 0.254000 0.742308
v 0.219944 0.260000 0.742308
v 0.213944 0.264280 0.742308
v 0.161944 0.264280 0.742308
v 0.155944 0.260000 0.742308
v 0.153944 0.254000 0.742308
v 0.153944 0.239000 0.742308
v 0.154944 0.231000 0.742308
v 0.160944 0.225000 0.742308
v 0.174944 0.219000 0.742308
v 0.178944 0.207000 0.742308
v 0.178944 0.145000 0.742308
v 0.175944 0.134000 0.742308
v 0.161944 0.124000 0.742308
v 0.123944 0.113000 0.742308
v 0.117944 0.108000 0.742308
v 0.117944 0.099422 0.742308
v 0.273222 0.108000 0.838462
v 0.273222 0.099422 0.838462
v 0.267222 0.113000 0.838462
v 0.229222 0.124000 0.838462
v 0.215222 0.134000 0.838462
v 0.212222 0.145000 0.838462
v 0.212222 0.207000 0.838462
v 0.216222 0.219000 0.838462
v 0.230222 0.225000 0.838462
v 0.236222 0.231000 0.838462
v 0.237222 0.239000 0.838462
v 0.237222 0.254000 0.838462
v 0.235222 0.260000 0.838462
v 0.229222 0.264280 0.838462
v 0.177222 0.264280 0.838462
v 0.171222 0.260000 0.838462
v 0.169222 0.254000 0.838462
v 0.169222 0.239000 0.838462
v 0.170222 0.231000 0.838462
v 0.176222 0.225000 0.838462
v 0.190222 0.219000 0.838462
v 0.194222 0.207000 0.838462
v 0.194222 0.145000 0.838462
v 0.191222 0.134000 0.838462
v 0.177222 0.124000 0.838462
v 0.139222 0.113000 0.838462
v 0.133222 0.108000 0.838462
v 0.133222 0.099422 0.838462
v 0.288500 0.108000 0.934615
v 0.288500 0.099422 0.934615
v 0.282500 0.113000 0.934615
v 0.244500 0.124000 0.934615
v 0.230500 0.134000 0.934615
v 0.227500 0.145000 0.934615
v 0.227500 0.207000 0.934615
v 0.231500 0.219000 0.934615
v 0.245500 0.225000 0.934615
v 0.251500 0.231000 0.934615
v 0.252500 0.239000 0.934615
v 0.252500 0.254000 0.934615
v 0.250500 0.260000 0.934615
v 0.244500 0.264280 0.934615
v 0.192500 0.264280 0.934615
v 0.186500 0.260000 0.934615
v 0.184500 0.254000 0.934615
v 0.184500 0.239000 0.934615
v 0.185500 0.231000 0.934615
v 0.191500 0.225000 0.934615
v 0.205500 0.219000 0.934615
v 0.209500 0.207000 0.934615
v 0.209500 0.145000 0.934615
v 0.206500 0.134000 0.934615
v 0.192500 0.124000 0.934615
v 0.154500 0.113000 0.934615
v 0.148500 0.108000 0.934615
v 0.148500 0.099422 0.934615
v 0.303778 0.108000 1.030769
v 0.303778 0.099422 1.030769
v 0.297778 0.113000 1.030769
v 0.259778 0.124000 1.030769
v 0.245778 0.134000 1.030769
v 0.242778 0.145000 1.030769
v 0.242778 0.207000 1.030769
v 0.246778 0.219000 1.030769
v 0.260778 0.225000 1.030769
v 0.266778 0.231000 1.030769
v 0.267778 0.239000 1.030769
v 0.267778 0.254000 1.030769
v 0.265778 0.260000 1.030769
v 0.259778 0.264280 1.030769
v 0.207778 0.264280 1.030769
v 0.201778 0.260000 1.030769
v 0.199778 0.254000 1.030769
v 0.199778 0.239000 1.030769
v 0.200778 0.231000 1.030769
v 0.206778 0.225000 1.030769
v 0.220778 0.219000 1.030769
v 0.224778 0.207000 1.030769
v 0.224778 0.145000 1.030769
v 0.221778 0.134000 1.030769
v 0.207778 0.124000 1.030769
v 0.169778 0.113000 1.030769
v 0.163778 0.108000 1.030769
v 0.163778 0.099422 1.030769
v 0.319056 0.108000 1.126923
v 0.319056 0.099422 1.126923
v 0.313056 0.113000 1.126923
v 0.275056 0.124000 1.126923
v 0.261056 0.134000 1.126923
v 0.258056 0.145000 1.126923
v 0.258056 0.207000 1.126923
v 0.262056 0.219000 1.126923
v 0.276056 0.225000 1.126923
v 0.282056 0.231000 1.126923
v 0.283056 0.239000 1.126923
v 0.283056 0.254000 1.126923
v 0.281056 0.260000 1.126923
v 0.275056 0.264280 1.126923
v 0.223056 0.264280 1.126923
v 0.217056 0.260000 1.126923
v 0.215056 0.254000 1.126923
v 0.215056 0.239000 1.126923
v 0.216056 0.231000 1.126923
v 0.222056 0.225000 1.126923
v 0.236056 0.219000 1.126923
v 0.240056 0.207000 1.126923
v 0.240056 0.145000 1.126923
v 0.237056 0.134000 1.126923
v 0.223056 0.124000 1.126923
v 0.185056 0.113000 1.126923
v 0.179056 0.108000 1.126923
v 0.179056 0.099422 1.126923
v 0.334333 0.108000 1.223077
v 0.334333 0.099422 1.223077
v 0.328333 0.113000 1.223077
v 0.290333 0.124000 1.223077
v 0.276333 0.134000 1.223077
v 0.273333 0.145000 1.223077
v 0.273333 0.207000 1.223077
v 0.277333 0.219000 1.223077
v 0.291333 0.225000 1.223077
v 0.297333 0.231000 1.223077
v 0.298333 0.239000 1.223077
v 0.298333 0.254000 1.223077
v 0.296333 0.260000 1.223077
v 0.290333 0.264280 1.223077
v 0.238333 0.264280 1.223077
v 0.232333 0.260000 1.223077
v 0.230333 0.254000 1.223077
v 0.230333 0.239000 1.223077
v 0.231333 0.231000 1.223077
v 0.237333 0.225000 1.223077
v 0.251333 0.219000 1.223077
v 0.255333 0.207000 1.223077
v 0.255333 0.145000 1.223077
v 0.252333 0.134000 1.223077
v 0.238333 0.124000 1.223077
v 0.200333 0.113000 1.223077
v 0.194333 0.108000 1.223077
v 0.194333 0.099422 1.223077
v 0.349611 0.108000 1.319231
v 0.349611 0.099422 1.319231
v 0.343611 0.113000 1.319231
v 0.305611 0.124000 1.319231
v 0.291611 0.134000 1.319231
v 0.288611 0.145000 1.319231
v 0.288611 0.207000 1.319231
v 0.292611 0.219000 1.319231
v 0.306611 0.225000 1.319231
v 0.312611 0.231000 1.319231
v 0.313611 0.239000 1.319231
v 0.313611 0.254000 1.319231
v 0.311611 0.260000 1.319231
v 0.305611 0.264280 1.319231
v 0.253611 0.264280 1.319231
v 0.247611 0.260000 1.319231
v 0.245611 0.254000 1.319231
v 0.245611 0.239000 1.319231
v 0.246611 0.231000 1.319231
v 0.252611 0.225000 1.319231
v 0.266611 0.219000 1.319231
v 0.270611 0.207000 1.319231
v 0.270611 0.145000 1.319231
v 0.267611 0.134000 1.319231
v 0.253611 0.124000 1.319231
v 0.215611 0.113000 1.319231
v 0.209611 0.108000 1.319231
v 0.209611 0.099422 1.319231
v 0.364889 0.108000 1.415385
v 0.364889 0.099422 1.415385
v 0.358889 0.113000 1.415385
v 0.320889 0.124000 1.415385
v 0.306889 0.134000 1.415385
v 0.303889 0.145000 1.415385
v 0.303889 0.207000 1.415385
v 0.307889 0.219000 1.415385
v 0.321889 0.225000 1.415385
v 0.327889 0.231000 1.415385
v 0.328889 0.239000 1.415385
v 0.328889 0.254000 1.415385
v 0.326889 0.260000 1.415385
v 0.320889 0.264280 1.415385
v 0.268889 0.264280 1.415385
v 0.262889 0.260000 1.415385
v 0.260889 0.254000 1.415385
v 0.260889 0.239000 1.415385
v 0.261889 0.231000 1.415385
v 0.267889 0.225000 1.415385
v 0.281889 0.219000 1.415385
v 0.285889 0.207000 1.415385
v 0.285889 0.145000 1.415385
v 0.282889 0.134000 1.415385
v 0.268889 0.124000 1.415385
v 0.230889 0.113000 1.415385
v 0.224889 0.108000 1.415385
v 0.224889 0.099422 1.415385
v 0.380167 0.108000 1.511538
v 0.380167 0.099422 1.511538
v 0.374167 0.113000 1.511538
v 0.336167 0.124000 1.511538
v 0.322167 0.134000 1.511538
v 0.319167 0.145000 1.511538
v 0.319167 0.207000 1.511538
v 0.323167 0.219000 1.511538
v 0.337167 0.225000 1.511538
v 0.343167 0.231000 1.511538
v 0.344167 0.239000 1.511538
v 0.344167 0.254000 1.511538
v 0.342167 0.260000 1.511538
v 0.336167 0.264280 1.511538
v 0.284167 0.264280 1.511538
v 0.278167 0.260000 1.511538
v 0.276167 0.254000 1.511538
v 0.276167 0.239000 1.511538
v 0.277167 0.231000 1.511538
v 0.283167 0.225000 1.511538
v 0.297167 0.219000 1.511538
v 0.301167 0.207000 1.511538
v 0.301167 0.145000 1.511538
v 0.298167 0.134000 1.511538
v 0.284167 0.124000 1.511538
v 0.246167 0.113000 1.511538
v 0.240167 0.108000 1.511538
v 0.240167 0.099422 1.511538
v 0.395444 0.108000 1.607692
v 0.395444 0.099422 1.607692
v 0.389444 0.113000 1.607692
v 0.351444 0.124000 1.607692
v 0.337444 0.134000 1.607692
v 0.334444 0.145000 1.607692
v 0.334444 0.207000 1.607692
v 0.338444 0.219000 1.607692
v 0.352444 0.225000 1.607692
v 0.358444 0.231000 1.607692
v 0.359444 0.239000 1.607692
v 0.359444 0.254000 1.607692
v 0.357444 0.260000 1.607692
v 0.351444 0.264280 1.607692
v 0.299444 0.264280 1.607692
v 0.293444 0.260000 1.607692
v 0.291444 0.254000 1.607692
v 0.291444 0.239000 1.607692
v 0.292444 0.231000 1.607692
v 0.298444 0.225000 1.607692
v 0.312444 0.219000 1.607692
v 0.316444 0.207000 1.607692
v 0.316444 0.145000 1.607692
v 0.313444 0.134000 1.607692
v 0.299444 0.124000 1.607692
v 0.261444 0.113000 1.607692
v 0.255444 0.108000 1.607692
v 0.255444 0.099422 1.607692
v 0.410722 0.108000 1.703846
v 0.410722 0.099422 1.703846
v 0.404722 0.113000 1.703846
v 0.366722 0.124000 1.703846
v 0.352722 0.134000 1.703846
v 0.349722 0.145000 1.703846
v 0.349722 0.207000 1.703846
v 0.353722 0.219000 1.703846
v 0.367722 0.225000 1.703846
v 0.373722 0.231000 1.703846
v 0.374722 0.239000 1.703846
v 0.374722 0.254000 1.703846
v 0.372722 0.260000 1.703846
v 0.366722 0.264280 1.703846
v 0.314722 0.264280 1.703846
v 0.308722 0.260000 1.703846
v 0.306722 0.254000 1.703846
v 0.306722 0.239000 1.703846
v 0.307722 0.231000 1.703846
v 0.313722 0.225000 1.703846
v 0.327722 0.219000 1.703846
v 0.331722 0.207000 1.703846
v 0.331722 0.145000 1.703846
v 0.328722 0.134000 1.703846
v 0.314722 0.124000 1.703846
v 0.276722 0.113000 1.703846
v 0.270722 0.108000 1.703846
v 0.270722 0.099422 1.703846
v 0.426000 0.108000 1.800000
v 0.426000 0.099422 1.800000
v 0.420000 0.113000 1.800000
v 0.382000 0.124000 1.800000
v 0.368000 0.134000 1.800000
v 0.365000 0.145000 1.800000
v 0.365000 0.207000 1.800000
v 0.369000 0.219000 1.800000
v 0.383000 0.225000 1.800000
v 0.389000 0.231000 1.800000
v 0.390000 0.239000 1.800000
v 0.390000 0.254000 1.800000
v 0.388000 0.260000 1.800000
v 0.382000 0.264280 1.800000
v 0.330000 0.264280 1.800000
v 0.324000 0.260000 1.800000
v 0.322000 0.254000 1.800000
v 0.322000 0.239000 1.800000
v 0.323000 0.231000 1.800000
v 0.329000 0.225000 1.800000
v 0.343000 0.219000 1.800000
v 0.347000 0.207000 1.800000
v 0.347000 0.145000 1.800000
v 0.344000 0.134000 1.800000
v 0.330000 0.124000 1.800000
v 0.292000 0.113000 1.800000
v 0.286000 0.108000 1.800000
v 0.286000 0.099422 1.800000
v -0.055000 0.085422 0.000000
v 0.055000 0.085422 0.000000
v 0.238000 0.085422 0.550000
v -0.238000 0.085422 0.550000
v 0.045000 0.100422 0.000000
v 0.230000 0.264280 0.550000
v -0.045000 0.100422 0.000000
v -0.230000 0.264280 0.550000
v -0.121000 0.225508 0.424412
v -0.112000 0.225508 0.440000
v -0.121000 0.225508 0.455588
v -0.139000 0.225508 0.455588
v -0.148000 0.225508 0.440000
v -0.139000 0.225508 0.424412
v -0.112000 0.240508 0.440000
v -0.121000 0.240508 0.424412
v -0.139000 0.240508 0.424412
v -0.148000 0.240508 0.440000
v -0.139000 0.240508 0.455588
v -0.121000 0.240508 0.455588
v 0.139000 0.225508 0.424412
v 0.148000 0.225508 0.440000
v 0.139000 0.225508 0.455588
v 0.121000 0.225508 0.455588
v 0.112000 0.225508 0.440000
v 0.121000 0.225508 0.424412
v 0.148000 0.240508 0.440000
v 0.139000 0.240508 0.424412
v 0.121000 0.240508 0.424412
v 0.112000 0.240508 0.440000
v 0.121000 0.240508 0.455588
v 0.139000 0.240508 0.455588
vt 0.01062500 0.50839552
vt 0.01062500 0.53314987
vt 0.32937500 0.53314987
vt 0.32937500 0.50839552
vt 0.01062500 0.54757884
vt 0.32937500 0.54757884
vt 0.01062500 0.57932257
vt 0.32937500 0.57932257
vt 0.01062500 0.60818052
vt 0.32937500 0.60818052
vt 0.01062500 0.63992425
vt 0.32937500 0.63992425
vt 0.01062500 0.81884350
vt 0.32937500 0.81884350
vt 0.01062500 0.85347303
vt 0.32937500 0.85347303
vt 0.01062500 0.87078779
vt 0.32937500 0.87078779
vt 0.01062500 0.88810256
vt 0.32937500 0.88810256
vt 0.01062500 0.91118891
vt 0.32937500 0.91118891
vt 0.01062500 0.95447583
vt 0.32937500 0.95447583
vt 0.01062500 0.97179059
vt 0.32937500 0.97179059
vt 0.01062500 0.98414179
vt 0.32937500 0.98414179
vt 0.01062500 0.57500000
vt 0.32937500 0.57500000
vt 0.98937500 0.50839552
vt 0.67062500 0.50839552
vt 0.67062500 0.53314987
vt 0.68428571 0.54757884
vt 0.77080357 0.57932257
vt 0.80267857 0.60818052
vt 0.80040179 0.85347303
vt 0.76852679 0.87078779
vt 0.75486607 0.88810256
vt 0.75258929 0.91118891
vt 0.75258929 0.95447583
vt 0.75714286 0.97179059
vt 0.77080357 0.98414179
vt 0.80950893 0.81884350
vt 0.88919643 0.98414179
vt 0.90285714 0.97179059
vt 0.90741071 0.95447583
vt 0.90741071 0.91118891
vt 0.90513393 0.88810256
vt 0.89147321 0.87078779
vt 0.85959821 0.85347303
vt 0.85049107 0.81884350
vt 0.80950893 0.63992425
vt 0.85049107 0.63992425
vt 0.85732143 0.60818052
vt 0.88919643 0.57932257
vt 0.97571429 0.54757884
vt 0.98937500 0.53314987
vt 0.01062500 0.01585821
vt 0.32937500 0.01585821
vt 0.32937500 0.49160448
vt 0.01062500 0.49160448
vt 0.51992188 0.04772717
vt 0.57968750 0.25373134
vt 0.51992188 0.45973552
vt 0.40039062 0.45973552
vt 0.34062500 0.25373134
vt 0.40039062 0.04772717
vt 0.34062500 0.49160448
vt 0.38046875 0.49160448
vt 0.38046875 0.01585821
vt 0.34062500 0.01585821
vt 0.42031250 0.49160448
vt 0.42031250 0.01585821
vt 0.46015625 0.49160448
vt 0.46015625 0.01585821
vt 0.50000000 0.49160448
vt 0.50000000 0.01585821
vt 0.53984375 0.49160448
vt 0.53984375 0.01585821
vt 0.57968750 0.49160448
vt 0.57968750 0.01585821
vn 0.98761125 -0.00000000 0.15692045
vn 0.63689802 0.76427762 0.10119602
vn 0.27778710 0.95962817 0.04413728
vn 0.57877526 0.81028537 0.09196096
vn 0.95362479 0.26007949 0.15152038
vn 0.93808598 -0.31269533 0.14905144
vn 0.39314998 -0.91734996 0.06246716
vn 0.70268574 -0.70268574 0.11164896
vn 0.98017047 -0.12252131 0.15573820
vn 0.93808598 0.31269533 0.14905144
vn 0.57826825 0.81065642 0.09188040
vn 0.00000000 1.00000000 0.00000000
vn -0.57826825 0.81065642 -0.09188040
vn -0.93808598 0.31269533 -0.14905144
vn -0.98761125 -0.00000000 -0.15692045
vn -0.98017047 -0.12252131 -0.15573820
vn -0.70268574 -0.70268574 -0.11164896
vn -0.39314998 -0.91734996 -0.06246716
vn -0.93808598 -0.31269533 -0.14905144
vn -0.95362479 0.26007949 -0.15152038
vn -0.57877526 0.81028537 -0.09196096
vn -0.27778710 0.95962817 -0.04413728
vn -0.63689802 0.76427762 -0.10119602
vn 0.00000000 -1.00000000 0.00000000
vn 0.00000000 0.00000000 -1.00000000
vn 0.98761125 0.00000000 -0.15692045
vn 0.63689802 0.76427762 -0.10119602
vn 0.27778710 0.95962817 -0.04413728
vn 0.57877526 0.81028537 -0.09196096
vn 0.95362479 0.26007949 -0.15152038
vn 0.93808598 -0.31269533 -0.14905144
vn 0.39314998 -0.91734996 -0.06246716
vn 0.70268574 -0.70268574 -0.11164896
vn 0.98017047 -0.12252131 -0.15573820
vn 0.93808598 0.31269533 -0.14905144
vn 0.57826825 0.81065642 -0.09188040
vn -0.57826825 0.81065642 0.09188040
vn -0.93808598 0.31269533 0.14905144
vn -0.98761125 0.00000000 0.15692045
vn -0.98017047 -0.12252131 0.15573820
vn -0.70268574 -0.70268574 0.11164896
vn -0.39314998 -0.91734996 0.06246716
vn -0.93808598 -0.31269533 0.14905144
vn -0.95362479 0.26007949 0.15152038
vn -0.57877526 0.81028537 0.09196096
vn -0.27778710 0.95962817 0.04413728
vn -0.63689802 0.76427762 0.10119602
vn 0.80188778 0.53459185 -0.26680993
vn 0.94310956 0.04218361 -0.32979525
vn 0.00000000 0.95837223 -0.28552174
vn -0.76014371 0.50676247 -0.40666122
vn -0.94800229 0.04240245 -0.31542622
vn 0.00000000 0.00000000 1.00000000
vn 0.86602540 0.00000000 0.50000000
vn -0.86602540 0.00000000 0.50000000
vn -0.86602540 0.00000000 -0.50000000
vn 0.86602540 0.00000000 -0.50000000
g terminal_left
usemtl mat
f 1/1/1 2/2/1 3/3/1 4/4/1
f 2/2/2 5/5/2 6/6/2 3/3/2
f 5/5/3 7/7/3 8/8/3 6/6/3
f 7/7/4 9/9/4 10/10/4 8/8/4
f 9/9/5 11/11/5 12/12/5 10/10/5
f 11/11/1 13/13/1 14/14/1 12/12/1
f 13/13/6 15/15/6 16/16/6 14/14/6
f 15/15/7 17/17/7 18/18/7 16/16/7
f 17/17/8 19/19/8 20/20/8 18/18/8
f 19/19/9 21/21/9 22/22/9 20/20/9
f 21/21/1 23/23/1 24/24/1 22/22/1
f 23/23/10 25/25/10 26/26/10 24/24/10
f 25/25/11 27/27/11 28/28/11 26/26/11
f 27/1/12 29/29/12 30/30/12 28/4/12
f 29/27/13 31/25/13 32/26/13 30/28/13
f 31/25/14 33/23/14 34/24/14 32/26/14
f 33/23/15 35/21/15 36/22/15 34/24/15
f 35/21/16 37/19/16 38/20/16 36/22/16
f 37/19/17 39/17/17 40/18/17 38/20/17
f 39/17/18 41/15/18 42/16/18 40/18/18
f 41/15/19 43/13/19 44/14/19 42/16/19
f 43/13/15 45/11/15 46/12/15 44/14/15
f 45/11/20 47/9/20 48/10/20 46/12/20
f 47/9/21 49/7/21 50/8/21 48/10/21
f 49/7/22 51/5/22 52/6/22 50/8/22
f 51/5/23 53/2/23 54/3/23 52/6/23
f 53/2/15 55/1/15 56/4/15 54/3/15
f 55/1/24 1/29/24 4/30/24 56/4/24
f 4/1/1 3/2/1 57/3/1 58/4/1
f 3/2/2 6/5/2 59/6/2 57/3/2
f 6/5/3 8/7/3 60/8/3 59/6/3
f 8/7/4 10/9/4 61/10/4 60/8/4
f 10/9/5 12/11/5 62/12/5 61/10/5
f 12/11/1 14/13/1 63/14/1 62/12/1
f 14/13/6 16/15/6 64/16/6 63/14/6
f 16/15/7 18/17/7 65/18/7 64/16/7
f 18/17/8 20/19/8 66/20/8 65/18/8
f 20/19/9 22/21/9 67/22/9 66/20/9
f 22/21/1 24/23/1 68/24/1 67/22/1
f 24/23/10 26/25/10 69/26/10 68/24/10
f 26/25/11 28/27/11 70/28/11 69/26/11
f 28/1/12 30/29/12 71/30/12 70/4/12
f 30/27/13 32/25/13 72/26/13 71/28/13
f 32/25/14 34/23/14 73/24/14 72/26/14
f 34/23/15 36/21/15 74/22/15 73/24/15
f 36/21/16 38/19/16 75/20/16 74/22/16
f 38/19/17 40/17/17 76/18/17 75/20/17
f 40/17/18 42/15/18 77/16/18 76/18/18
f 42/15/19 44/13/19 78/14/19 77/16/19
f 44/13/15 46/11/15 79/12/15 78/14/15
f 46/11/20 48/9/20 80/10/20 79/12/20
f 48/9/21 50/7/21 81/8/21 80/10/21
f 50/7/22 52/5/22 82/6/22 81/8/22
f 52/5/23 54/2/23 83/3/23 82/6/23
f 54/2/15 56/1/15 84/4/15 83/3/15
f 56/1/24 4/29/24 58/30/24 84/4/24
f 58/1/1 57/2/1 85/3/1 86/4/1
f 57/2/2 59/5/2 87/6/2 85/3/2
f 59/5/3 60/7/3 88/8/3 87/6/3
f 60/7/4 61/9/4 89/10/4 88/8/4
f 61/9/5 62/11/5 90/12/5 89/10/5
f 62/11/1 63/13/1 91/14/1 90/12/1
f 63/13/6 64/15/6 92/16/6 91/14/6
f 64/15/7 65/17/7 93/18/7 92/16/7
f 65/17/8 66/19/8 94/20/8 93/18/8
f 66/19/9 67/21/9 95/22/9 94/20/9
f 67/21/1 68/23/1 96/24/1 95/22/1
f 68/23/10 69/25/10 97/26/10 96/24/10
f 69/25/11 70/27/11 98/28/11 97/26/11
f 70/1/12 71/29/12 99/30/12 98/4/12
f 71/27/13 72/25/13 100/26/13 99/28/13
f 72/25/14 73/23/14 101/24/14 100/26/14
f 73/23/15 74/21/15 102/22/15 101/24/15
f 74/21/16 75/19/16 103/20/16 102/22/16
f 75/19/17 76/17/17 104/18/17 103/20/17
f 76/17/18 77/15/18 105/16/18 104/18/18
f 77/15/19 78/13/19 106/14/19 105/16/19
f 78/13/15 79/11/15 107/12/15 106/14/15
f 79/11/20 80/9/20 108/10/20 107/12/20
f 80/9/21 81/7/21 109/8/21 108/10/21
f 81/7/22 82/5/22 110/6/22 109/8/22
f 82/5/23 83/2/23 111/3/23 110/6/23
f 83/2/15 84/1/15 112/4/15 111/3/15
f 84/1/24 58/29/24 86/30/24 112/4/24
f 86/1/1 85/2/1 113/3/1 114/4/1
f 85/2/2 87/5/2 115/6/2 113/3/2
f 87/5/3 88/7/3 116/8/3 115/6/3
f 88/7/4 89/9/4 117/10/4 116/8/4
f 89/9/5 90/11/5 118/12/5 117/10/5
f 90/11/1 91/13/1 119/14/1 118/12/1
f 91/13/6 92/15/6 120/16/6 119/14/6
f 92/15/7 93/17/7 121/18/7 120/16/7
f 93/17/8 94/19/8 122/20/8 121/18/8
f 94/19/9 95/21/9 123/22/9 122/20/9
f 95/21/1 96/23/1 124/24/1 123/22/1
f 96/23/10 97/25/10 125/26/10 124/24/10
f 97/25/11 98/27/11 126/28/11 125/26/11
f 98/1/12 99/29/12 127/30/12 126/4/12
f 99/27/13 100/25/13 128/26/13 127/28/13
f 100/25/14 101/23/14 129/24/14 128/26/14
f 101/23/15 102/21/15 130/22/15 129/24/15
f 102/21/16 103/19/16 131/20/16 130/22/16
f 103/19/17 104/17/17 132/18/17 131/20/17
f 104/17/18 105/15/18 133/16/18 132/18/18
f 105/15/19 106/13/19 134/14/19 133/16/19
f 106/13/15 107/11/15 135/12/15 134/14/15
f 107/11/20 108/9/20 136/10/20 135/12/20
f 108/9/21 109/7/21 137/8/21 136/10/21
f 109/7/22 110/5/22 138/6/22 137/8/22
f 110/5/23 111/2/23 139/3/23 138/6/23
f 111/2/15 112/1/15 140/4/15 139/3/15
f 112/1/24 86/29/24 114/30/24 140/4/24
f 114/1/1 113/2/1 141/3/1 142/4/1
f 113/2/2 115/5/2 143/6/2 141/3/2
f 115/5/3 116/7/3 144/8/3 143/6/3
f 116/7/4 117/9/4 145/10/4 144/8/4
f 117/9/5 118/11/5 146/12/5 145/10/5
f 118/11/1 119/13/1 147/14/1 146/12/1
f 119/13/6 120/15/6 148/16/6 147/14/6
f 120/15/7 121/17/7 149/18/7 148/16/7
f 121/17/8 122/19/8 150/20/8 149/18/8
f 122/19/9 123/21/9 151/22/9 150/20/9
f 123/21/1 124/23/1 152/24/1 151/22/1
f 124/23/10 125/25/10 153/26/10 152/24/10
f 125/25/11 126/27/11 154/28/11 153/26/11
f 126/1/12 127/29/12 155/30/12 154/4/12
f 127/27/13 128/25/13 156/26/13 155/28/13
f 128/25/14 129/23/14 157/24/14 156/26/14
f 129/23/15 130/21/15 158/22/15 157/24/15
f 130/21/16 131/19/16 159/20/16 158/22/16
f 131/19/17 132/17/17 160/18/17 159/20/17
f 132/17/18 133/15/18 161/16/18 160/18/18
f 133/15/19 134/13/19 162/14/19 161/16/19
f 134/13/15 135/11/15 163/12/15 162/14/15
f 135/11/20 136/9/20 164/10/20 163/12/20
f 136/9/21 137/7/21 165/8/21 164/10/21
f 137/7/22 138/5/22 166/6/22 165/8/22
f 138/5/23 139/2/23 167/3/23 166/6/23
f 139/2/15 140/1/15 168/4/15 167/3/15
f 140/1/24 114/29/24 142/30/24 168/4/24
f 142/1/1 141/2/1 169/3/1 170/4/1
f 141/2/2 143/5/2 171/6/2 169/3/2
f 143/5/3 144/7/3 172/8/3 171/6/3
f 144/7/4 145/9/4 173/10/4 172/8/4
f 145/9/5 146/11/5 174/12/5 173/10/5
f 146/11/1 147/13/1 175/14/1 174/12/1
f 147/13/6 148/15/6 176/16/6 175/14/6
f 148/15/7 149/17/7 177/18/7 176/16/7
f 149/17/8 150/19/8 178/20/8 177/18/8
f 150/19/9 151/21/9 179/22/9 178/20/9
f 151/21/1 152/23/1 180/24/1 179/22/1
f 152/23/10 153/25/10 181/26/10 180/24/10
f 153/25/11 154/27/11 182/28/11 181/26/11
f 154/1/12 155/29/12 183/30/12 182/4/12
f 155/27/13 156/25/13 184/26/13 183/28/13
f 156/25/14 157/23/14 185/24/14 184/26/14
f 157/23/15 158/21/15 186/22/15 185/24/15
f 158/21/16 159/19/16 187/20/16 186/22/16
f 159/19/17 160/17/17 188/18/17 187/20/17
f 160/17/18 161/15/18 189/16/18 188/18/18
f 161/15/19 162/13/19 190/14/19 189/16/19
f 162/13/15 163/11/15 191/12/15 190/14/15
f 163/11/20 164/9/20 192/10/20 191/12/20
f 164/9/21 165/7/21 193/8/21 192/10/21
f 165/7/22 166/5/22 194/6/22 193/8/22
f 166/5/23 167/2/23 195/3/23 194/6/23
f 167/2/15 168/1/15 196/4/15 195/3/15
f 168/1/24 142/29/24 170/30/24 196/4/24
f 170/1/1 169/2/1 197/3/1 198/4/1
f 169/2/2 171/5/2 199/6/2 197/3/2
f 171/5/3 172/7/3 200/8/3 199/6/3
f 172/7/4 173/9/4 201/10/4 200/8/4
f 173/9/5 174/11/5 202/12/5 201/10/5
f 174/11/1 175/13/1 203/14/1 202/12/1
f 175/13/6 176/15/6 204/16/6 203/14/6
f 176/15/7 177/17/7 205/18/7 204/16/7
f 177/17/8 178/19/8 206/20/8 205/18/8
f 178/19/9 179/21/9 207/22/9 206/20/9
f 179/21/1 180/23/1 208/24/1 207/22/1
f 180/23/10 181/25/10 209/26/10 208/24/10
f 181/25/11 182/27/11 210/28/11 209/26/11
f 182/1/12 183/29/12 211/30/12 210/4/12
f 183/27/13 184/25/13 212/26/13 211/28/13
f 184/25/14 185/23/14 213/24/14 212/26/14
f 185/23/15 186/21/15 214/22/15 213/24/15
f 186/21/16 187/19/16 215/20/16 214/22/16
f 187/19/17 188/17/17 216/18/17 215/20/17
f 188/17/18 189/15/18 217/16/18 216/18/18
f 189/15/19 190/13/19 218/14/19 217/16/19
f 190/13/15 191/11/15 219/12/15 218/14/15
f 191/11/20 192/9/20 220/10/20 219/12/20
f 192/9/21 193/7/21 221/8/21 220/10/21
f 193/7/22 194/5/22 222/6/22 221/8/22
f 194/5/23 195/2/23 223/3/23 222/6/23
f 195/2/15 196/1/15 224/4/15 223/3/15
f 196/1/24 170/29/24 198/30/24 224/4/24
f 198/1/1 197/2/1 225/3/1 226/4/1
f 197/2/2 199/5/2 227/6/2 225/3/2
f 199/5/3 200/7/3 228/8/3 227/6/3
f 200/7/4 201/9/4 229/10/4 228/8/4
f 201/9/5 202/11/5 230/12/5 229/10/5
f 202/11/1 203/13/1 231/14/1 230/12/1
f 203/13/6 204/15/6 232/16/6 231/14/6
f 204/15/7 205/17/7 233/18/7 232/16/7
f 205/17/8 206/19/8 234/20/8 233/18/8
f 206/19/9 207/21/9 235/22/9 234/20/9
f 207/21/1 208/23/1 236/24/1 235/22/1
f 208/23/10 209/25/10 237/26/10 236/24/10
f 209/25/11 210/27/11 238/28/11 237/26/11
f 210/1/12 211/29/12 239/30/12 238/4/12
f 211/27/13 212/25/13 240/26/13 239/28/13
f 212/25/14 213/23/14 241/24/14 240/26/14
f 213/23/15 214/21/15 242/22/15 241/24/15
f 214/21/16 215/19/16 243/20/16 242/22/16
f 215/19/17 216/17/17 244/18/17 243/20/17
f 216/17/18 217/15/18 245/16/18 244/18/18
f 217/15/19 218/13/19 246/14/19 245/16/19
f 218/13/15 219/11/15 247/12/15 246/14/15
f 219/11/20 220/9/20 248/10/20 247/12/20
f 220/9/21 221/7/21 249/8/21 248/10/21
f 221/7/22 222/5/22 250/6/22 249/8/22
f 222/5/23 223/2/23 251/3/23 250/6/23
f 223/2/15 224/1/15 252/4/15 251/3/15
f 224/1/24 198/29/24 226/30/24 252/4/24
f 226/1/1 225/2/1 253/3/1 254/4/1
f 225/2/2 227/5/2 255/6/2 253/3/2
f 227/5/3 228/7/3 256/8/3 255/6/3
f 228/7/4 229/9/4 257/10/4 256/8/4
f 229/9/5 230/11/5 258/12/5 257/10/5
f 230/11/1 231/13/1 259/14/1 258/12/1
f 231/13/6 232/15/6 260/16/6 259/14/6
f 232/15/7 233/17/7 261/18/7 260/16/7
f 233/17/8 234/19/8 262/20/8 261/18/8
f 234/19/9 235/21/9 263/22/9 262/20/9
f 235/21/1 236/23/1 264/24/1 263/22/1
f 236/23/10 237/25/10 265/26/10 264/24/10
f 237/25/11 238/27/11 266/28/11 265/26/11
f 238/1/12 239/29/12 267/30/12 266/4/12
f 239/27/13 240/25/13 268/26/13 267/28/13
f 240/25/14 241/23/14 269/24/14 268/26/14
f 241/23/15 242/21/15 270/22/15 269/24/15
f 242/21/16 243/19/16 271/20/16 270/22/16
f 243/19/17 244/17/17 272/18/17 271/20/17
f 244/17/18 245/15/18 273/16/18 272/18/18
f 245/15/19 246/13/19 274/14/19 273/16/19
f 246/13/15 247/11/15 275/12/15 274/14/15
f 247/11/20 248/9/20 276/10/20 275/12/20
f 248/9/21 249/7/21 277/8/21 276/10/21
f 249/7/22 250/5/22 278/6/22 277/8/22
f 250/5/23 251/2/23 279/3/23 278/6/23
f 251/2/15 252/1/15 280/4/15 279/3/15
f 252/1/24 226/29/24 254/30/24 280/4/24
f 254/1/1 253/2/1 281/3/1 282/4/1
f 253/2/2 255/5/2 283/6/2 281/3/2
f 255/5/3 256/7/3 284/8/3 283/6/3
f 256/7/4 257/9/4 285/10/4 284/8/4
f 257/9/5 258/11/5 286/12/5 285/10/5
f 258/11/1 259/13/1 287/14/1 286/12/1
f 259/13/6 260/15/6 288/16/6 287/14/6
f 260/15/7 261/17/7 289/18/7 288/16/7
f 261/17/8 262/19/8 290/20/8 289/18/8
f 262/19/9 263/21/9 291/22/9 290/20/9
f 263/21/1 264/23/1 292/24/1 291/22/1
f 264/23/10 265/25/10 293/26/10 292/24/10
f 265/25/11 266/27/11 294/28/11 293/26/11
f 266/1/12 267/29/12 295/30/12 294/4/12
f 267/27/13 268/25/13 296/26/13 295/28/13
f 268/25/14 269/23/14 297/24/14 296/26/14
f 269/23/15 270/21/15 298/22/15 297/24/15
f 270/21/16 271/19/16 299/20/16 298/22/16
f 271/19/17 272/17/17 300/18/17 299/20/17
f 272/17/18 273/15/18 301/16/18 300/18/18
f 273/15/19 274/13/19 302/14/19 301/16/19
f 274/13/15 275/11/15 303/12/15 302/14/15
f 275/11/20 276/9/20 304/10/20 303/12/20
f 276/9/21 277/7/21 305/8/21 304/10/21
f 277/7/22 278/5/22 306/6/22 305/8/22
f 278/5/23 279/2/23 307/3/23 306/6/23
f 279/2/15 280/1/15 308/4/15 307/3/15
f 280/1/24 254/29/24 282/30/24 308/4/24
f 282/1/1 281/2/1 309/3/1 310/4/1
f 281/2/2 283/5/2 311/6/2 309/3/2
f 283/5/3 284/7/3 312/8/3 311/6/3
f 284/7/4 285/9/4 313/10/4 312/8/4
f 285/9/5 286/11/5 314/12/5 313/10/5
f 286/11/1 287/13/1 315/14/1 314/12/1
f 287/13/6 288/15/6 316/16/6 315/14/6
f 288/15/7 289/17/7 317/18/7 316/16/7
f 289/17/8 290/19/8 318/20/8 317/18/8
f 290/19/9 291/21/9 319/22/9 318/20/9
f 291/21/1 292/23/1 320/24/1 319/22/1
f 292/23/10 293/25/10 321/26/10 320/24/10
f 293/25/11 294/27/11 322/28/11 321/26/11
f 294/1/12 295/29/12 323/30/12 322/4/12
f 295/27/13 296/25/13 324/26/13 323/28/13
f 296/25/14 297/23/14 325/24/14 324/26/14
f 297/23/15 298/21/15 326/22/15 325/24/15
f 298/21/16 299/19/16 327/20/16 326/22/16
f 299/19/17 300/17/17 328/18/17 327/20/17
f 300/17/18 301/15/18 329/16/18 328/18/18
f 301/15/19 302/13/19 330/14/19 329/16/19
f 302/13/15 303/11/15 331/12/15 330/14/15
f 303/11/20 304/9/20 332/10/20 331/12/20
f 304/9/21 305/7/21 333/8/21 332/10/21
f 305/7/22 306/5/22 334/6/22 333/8/22
f 306/5/23 307/2/23 335/3/23 334/6/23
f 307/2/15 308/1/15 336/4/15 335/3/15
f 308/1/24 282/29/24 310/30/24 336/4/24
f 310/1/1 309/2/1 337/3/1 338/4/1
f 309/2/2 311/5/2 339/6/2 337/3/2
f 311/5/3 312/7/3 340/8/3 339/6/3
f 312/7/4 313/9/4 341/10/4 340/8/4
f 313/9/5 314/11/5 342/12/5 341/10/5
f 314/11/1 315/13/1 343/14/1 342/12/1
f 315/13/6 316/15/6 344/16/6 343/14/6
f 316/15/7 317/17/7 345/18/7 344/16/7
f 317/17/8 318/19/8 346/20/8 345/18/8
f 318/19/9 319/21/9 347/22/9 346/20/9
f 319/21/1 320/23/1 348/24/1 347/22/1
f 320/23/10 321/25/10 349/26/10 348/24/10
f 321/25/11 322/27/11 350/28/11 349/26/11
f 322/1/12 323/29/12 351/30/12 350/4/12
f 323/27/13 324/25/13 352/26/13 351/28/13
f 324/25/14 325/23/14 353/24/14 352/26/14
f 325/23/15 326/21/15 354/22/15 353/24/15
f 326/21/16 327/19/16 355/20/16 354/22/16
f 327/19/17 328/17/17 356/18/17 355/20/17
f 328/17/18 329/15/18 357/16/18 356/18/18
f 329/15/19 330/13/19 358/14/19 357/16/19
f 330/13/15 331/11/15 359/12/15 358/14/15
f 331/11/20 332/9/20 360/10/20 359/12/20
f 332/9/21 333/7/21 361/8/21 360/10/21
f 333/7/22 334/5/22 362/6/22 361/8/22
f 334/5/23 335/2/23 363/3/23 362/6/23
f 335/2/15 336/1/15 364/4/15 363/3/15
f 336/1/24 310/29/24 338/30/24 364/4/24
f 338/1/1 337/2/1 365/3/1 366/4/1
f 337/2/2 339/5/2 367/6/2 365/3/2
f 339/5/3 340/7/3 368/8/3 367/6/3
f 340/7/4 341/9/4 369/10/4 368/8/4
f 341/9/5 342/11/5 370/12/5 369/10/5
f 342/11/1 343/13/1 371/14/1 370/12/1
f 343/13/6 344/15/6 372/16/6 371/14/6
f 344/15/7 345/17/7 373/18/7 372/16/7
f 345/17/8 346/19/8 374/20/8 373/18/8
f 346/19/9 347/21/9 375/22/9 374/20/9
f 347/21/1 348/23/1 376/24/1 375/22/1
f 348/23/10 349/25/10 377/26/10 376/24/10
f 349/25/11 350/27/11 378/28/11 377/26/11
f 350/1/12 351/29/12 379/30/12 378/4/12
f 351/27/13 352/25/13 380/26/13 379/28/13
f 352/25/14 353/23/14 381/24/14 380/26/14
f 353/23/15 354/21/15 382/22/15 381/24/15
f 354/21/16 355/19/16 383/20/16 382/22/16
f 355/19/17 356/17/17 384/18/17 383/20/17
f 356/17/18 357/15/18 385/16/18 384/18/18
f 357/15/19 358/13/19 386/14/19 385/16/19
f 358/13/15 359/11/15 387/12/15 386/14/15
f 359/11/20 360/9/20 388/10/20 387/12/20
f 360/9/21 361/7/21 389/8/21 388/10/21
f 361/7/22 362/5/22 390/6/22 389/8/22
f 362/5/23 363/2/23 391/3/23 390/6/23
f 363/2/15 364/1/15 392/4/15 391/3/15
f 364/1/24 338/29/24 366/30/24 392/4/24
f 1/31/25 55/32/25 53/33/25
f 1/31/25 53/33/25 51/34/25
f 1/31/25 51/34/25 49/35/25
f 1/31/25 49/35/25 47/36/25
f 41/37/25 39/38/25 37/39/25
f 41/37/25 37/39/25 35/40/25
f 41/37/25 35/40/25 33/41/25
f 41/37/25 33/41/25 31/42/25
f 41/37/25 31/42/25 29/43/25
f 43/44/25 41/37/25 29/43/25
f 43/44/25 29/43/25 27/45/25
f 43/44/25 27/45/25 25/46/25
f 43/44/25 25/46/25 23/47/25
f 43/44/25 23/47/25 21/48/25
f 43/44/25 21/48/25 19/49/25
f 19/49/25 17/50/25 15/51/25
f 43/44/25 19/49/25 15/51/25
f 43/44/25 15/51/25 13/52/25
f 45/53/25 43/44/25 13/52/25
f 47/36/25 45/53/25 13/52/25
f 47/36/25 13/52/25 11/54/25
f 47/36/25 11/54/25 9/55/25
f 47/36/25 9/55/25 7/56/25
f 1/31/25 47/36/25 7/56/25
f 1/31/25 7/56/25 5/57/25
f 5/57/25 2/58/25 1/31/25
g terminal_right
usemtl mat
f 393/1/26 394/2/26 395/3/26 396/4/26
f 394/2/27 397/5/27 398/6/27 395/3/27
f 397/5/28 399/7/28 400/8/28 398/6/28
f 399/7/29 401/9/29 402/10/29 400/8/29
f 401/9/30 403/11/30 404/12/30 402/10/30
f 403/11/26 405/13/26 406/14/26 404/12/26
f 405/13/31 407/15/31 408/16/31 406/14/31
f 407/15/32 409/17/32 410/18/32 408/16/32
f 409/17/33 411/19/33 412/20/33 410/18/33
f 411/19/34 413/21/34 414/22/34 412/20/34
f 413/21/26 415/23/26 416/24/26 414/22/26
f 415/23/35 417/25/35 418/26/35 416/24/35
f 417/25/36 419/27/36 420/28/36 418/26/36
f 419/1/12 421/29/12 422/30/12 420/4/12
f 421/27/37 423/25/37 424/26/37 422/28/37
f 423/25/38 425/23/38 426/24/38 424/26/38
f 425/23/39 427/21/39 428/22/39 426/24/39
f 427/21/40 429/19/40 430/20/40 428/22/40
f 429/19/41 431/17/41 432/18/41 430/20/41
f 431/17/42 433/15/42 434/16/42 432/18/42
f 433/15/43 435/13/43 436/14/43 434/16/43
f 435/13/39 437/11/39 438/12/39 436/14/39
f 437/11/44 439/9/44 440/10/44 438/12/44
f 439/9/45 441/7/45 442/8/45 440/10/45
f 441/7/46 443/5/46 444/6/46 442/8/46
f 443/5/47 445/2/47 446/3/47 444/6/47
f 445/2/39 447/1/39 448/4/39 446/3/39
f 447/1/24 393/29/24 396/30/24 448/4/24
f 396/1/26 395/2/26 449/3/26 450/4/26
f 395/2/27 398/5/27 451/6/27 449/3/27
f 398/5/28 400/7/28 452/8/28 451/6/28
f 400/7/29 402/9/29 453/10/29 452/8/29
f 402/9/30 404/11/30 454/12/30 453/10/30
f 404/11/26 406/13/26 455/14/26 454/12/26
f 406/13/31 408/15/31 456/16/31 455/14/31
f 408/15/32 410/17/32 457/18/32 456/16/32
f 410/17/33 412/19/33 458/20/33 457/18/33
f 412/19/34 414/21/34 459/22/34 458/20/34
f 414/21/26 416/23/26 460/24/26 459/22/26
f 416/23/35 418/25/35 461/26/35 460/24/35
f 418/25/36 420/27/36 462/28/36 461/26/36
f 420/1/12 422/29/12 463/30/12 462/4/12
f 422/27/37 424/25/37 464/26/37 463/28/37
f 424/25/38 426/23/38 465/24/38 464/26/38
f 426/23/39 428/21/39 466/22/39 465/24/39
f 428/21/40 430/19/40 467/20/40 466/22/40
f 430/19/41 432/17/41 468/18/41 467/20/41
f 432/17/42 434/15/42 469/16/42 468/18/42
f 434/15/43 436/13/43 470/14/43 469/16/43
f 436/13/39 438/11/39 471/12/39 470/14/39
f 438/11/44 440/9/44 472/10/44 471/12/44
f 440/9/45 442/7/45 473/8/45 472/10/45
f 442/7/46 444/5/46 474/6/46 473/8/46
f 444/5/47 446/2/47 475/3/47 474/6/47
f 446/2/39 448/1/39 476/4/39 475/3/39
f 448/1/24 396/29/24 450/30/24 476/4/24
f 450/1/26 449/2/26 477/3/26 478/4/26
f 449/2/27 451/5/27 479/6/27 477/3/27
f 451/5/28 452/7/28 480/8/28 479/6/28
f 452/7/29 453/9/29 481/10/29 480/8/29
f 453/9/30 454/11/30 482/12/30 481/10/30
f 454/11/26 455/13/26 483/14/26 482/12/26
f 455/13/31 456/15/31 484/16/31 483/14/31
f 456/15/32 457/17/32 485/18/32 484/16/32
f 457/17/33 458/19/33 486/20/33 485/18/33
f 458/19/34 459/21/34 487/22/34 486/20/34
f 459/21/26 460/23/26 488/24/26 487/22/26
f 460/23/35 461/25/35 489/26/35 488/24/35
f 461/25/36 462/27/36 490/28/36 489/26/36
f 462/1/12 463/29/12 491/30/12 490/4/12
f 463/27/37 464/25/37 492/26/37 491/28/37
f 464/25/38 465/23/38 493/24/38 492/26/38
f 465/23/39 466/21/39 494/22/39 493/24/39
f 466/21/40 467/19/40 495/20/40 494/22/40
f 467/19/41 468/17/41 496/18/41 495/20/41
f 468/17/42 469/15/42 497/16/42 496/18/42
f 469/15/43 470/13/43 498/14/43 497/16/43
f 470/13/39 471/11/39 499/12/39 498/14/39
f 471/11/44 472/9/44 500/10/44 499/12/44
f 472/9/45 473/7/45 501/8/45 500/10/45
f 473/7/46 474/5/46 502/6/46 501/8/46
f 474/5/47 475/2/47 503/3/47 502/6/47
f 475/2/39 476/1/39 504/4/39 503/3/39
f 476/1/24 450/29/24 478/30/24 504/4/24
f 478/1/26 477/2/26 505/3/26 506/4/26
f 477/2/27 479/5/27 507/6/27 505/3/27
f 479/5/28 480/7/28 508/8/28 507/6/28
f 480/7/29 481/9/29 509/10/29 508/8/29
f 481/9/30 482/11/30 510/12/30 509/10/30
f 482/11/26 483/13/26 511/14/26 510/12/26
f 483/13/31 484/15/31 512/16/31 511/14/31
f 484/15/32 485/17/32 513/18/32 512/16/32
f 485/17/33 486/19/33 514/20/33 513/18/33
f 486/19/34 487/21/34 515/22/34 514/20/34
f 487/21/26 488/23/26 516/24/26 515/22/26
f 488/23/35 489/25/35 517/26/35 516/24/35
f 489/25/36 490/27/36 518/28/36 517/26/36
f 490/1/12 491/29/12 519/30/12 518/4/12
f 491/27/37 492/25/37 520/26/37 519/28/37
f 492/25/38 493/23/38 521/24/38 520/26/38
f 493/23/39 494/21/39 522/22/39 521/24/39
f 494/21/40 495/19/40 523/20/40 522/22/40
f 495/19/41 496/17/41 524/18/41 523/20/41
f 496/17/42 497/15/42 525/16/42 524/18/42
f 497/15/43 498/13/43 526/14/43 525/16/43
f 498/13/39 499/11/39 527/12/39 526/14/39
f 499/11/44 500/9/44 528/10/44 527/12/44
f 500/9/45 501/7/45 529/8/45 528/10/45
f 501/7/46 502/5/46 530/6/46 529/8/46
f 502/5/47 503/2/47 531/3/47 530/6/47
f 503/2/39 504/1/39 532/4/39 531/3/39
f 504/1/24 478/29/24 506/30/24 532/4/24
f 506/1/26 505/2/26 533/3/26 534/4/26
f 505/2/27 507/5/27 535/6/27 533/3/27
f 507/5/28 508/7/28 536/8/28 535/6/28
f 508/7/29 509/9/29 537/10/29 536/8/29
f 509/9/30 510/11/30 538/12/30 537/10/30
f 510/11/26 511/13/26 539/14/26 538/12/26
f 511/13/31 512/15/31 540/16/31 539/14/31
f 512/15/32 513/17/32 541/18/32 540/16/32
f 513/17/33 514/19/33 542/20/33 541/18/33
f 514/19/34 515/21/34 543/22/34 542/20/34
f 515/21/26 516/23/26 544/24/26 543/22/26
f 516/23/35 517/25/35 545/26/35 544/24/35
f 517/25/36 518/27/36 546/28/36 545/26/36
f 518/1/12 519/29/12 547/30/12 546/4/12
f 519/27/37 520/25/37 548/26/37 547/28/37
f 520/25/38 521/23/38 549/24/38 548/26/38
f 521/23/39 522/21/39 550/22/39 549/24/39
f 522/21/40 523/19/40 551/20/40 550/22/40
f 523/19/41 524/17/41 552/18/41 551/20/41
f 524/17/42 525/15/42 553/16/42 552/18/42
f 525/15/43 526/13/43 554/14/43 553/16/43
f 526/13/39 527/11/39 555/12/39 554/14/39
f 527/11/44 528/9/44 556/10/44 555/12/44
f 528/9/45 529/7/45 557/8/45 556/10/45
f 529/7/46 530/5/46 558/6/46 557/8/46
f 530/5/47 531/2/47 559/3/47 558/6/47
f 531/2/39 532/1/39 560/4/39 559/3/39
f 532/1/24 506/29/24 534/30/24 560/4/24
f 534/1/26 533/2/26 561/3/26 562/4/26
f 533/2/27 535/5/27 563/6/27 561/3/27
f 535/5/28 536/7/28 564/8/28 563/6/28
f 536/7/29 537/9/29 565/10/29 564/8/29
f 537/9/30 538/11/30 566/12/30 565/10/30
f 538/11/26 539/13/26 567/14/26 566/12/26
f 539/13/31 540/15/31 568/16/31 567/14/31
f 540/15/32 541/17/32 569/18/32 568/16/32
f 541/17/33 542/19/33 570/20/33 569/18/33
f 542/19/34 543/21/34 571/22/34 570/20/34
f 543/21/26 544/23/26 572/24/26 571/22/26
f 544/23/35 545/25/35 573/26/35 572/24/35
f 545/25/36 546/27/36 574/28/36 573/26/36
f 546/1/12 547/29/12 575/30/12 574/4/12
f 547/27/37 548/25/37 576/26/37 575/28/37
f 548/25/38 549/23/38 577/24/38 576/26/38
f 549/23/39 550/21/39 578/22/39 577/24/39
f 550/21/40 551/19/40 579/20/40 578/22/40
f 551/19/41 552/17/41 580/18/41 579/20/41
f 552/17/42 553/15/42 581/16/42 580/18/42
f 553/15/43 554/13/43 582/14/43 581/16/43
f 554/13/39 555/11/39 583/12/39 582/14/39
f 555/11/44 556/9/44 584/10/44 583/12/44
f 556/9/45 557/7/45 585/8/45 584/10/45
f 557/7/46 558/5/46 586/6/46 585/8/46
f 558/5/47 559/2/47 587/3/47 586/6/47
f 559/2/39 560/1/39 588/4/39 587/3/39
f 560/1/24 534/29/24 562/30/24 588/4/24
f 562/1/26 561/2/26 589/3/26 590/4/26
f 561/2/27 563/5/27 591/6/27 589/3/27
f 563/5/28 564/7/28 592/8/28 591/6/28
f 564/7/29 565/9/29 593/10/29 592/8/29
f 565/9/30 566/11/30 594/12/30 593/10/30
f 566/11/26 567/13/26 595/14/26 594/12/26
f 567/13/31 568/15/31 596/16/31 595/14/31
f 568/15/32 569/17/32 597/18/32 596/16/32
f 569/17/33 570/19/33 598/20/33 597/18/33
f 570/19/34 571/21/34 599/22/34 598/20/34
f 571/21/26 572/23/26 600/24/26 599/22/26
f 572/23/35 573/25/35 601/26/35 600/24/35
f 573/25/36 574/27/36 602/28/36 601/26/36
f 574/1/12 575/29/12 603/30/12 602/4/12
f 575/27/37 576/25/37 604/26/37 603/28/37
f 576/25/38 577/23/38 605/24/38 604/26/38
f 577/23/39 578/21/39 606/22/39 605/24/39
f 578/21/40 579/19/40 607/20/40 606/22/40
f 579/19/41 580/17/41 608/18/41 607/20/41
f 580/17/42 581/15/42 609/16/42 608/18/42
f 581/15/43 582/13/43 610/14/43 609/16/43
f 582/13/39 583/11/39 611/12/39 610/14/39
f 583/11/44 584/9/44 612/10/44 611/12/44
f 584/9/45 585/7/45 613/8/45 612/10/45
f 585/7/46 586/5/46 614/6/46 613/8/46
f 586/5/47 587/2/47 615/3/47 614/6/47
f 587/2/39 588/1/39 616/4/39 615/3/39
f 588/1/24 562/29/24 590/30/24 616/4/24
f 590/1/26 589/2/26 617/3/26 618/4/26
f 589/2/27 591/5/27 619/6/27 617/3/27
f 591/5/28 592/7/28 620/8/28 619/6/28
f 592/7/29 593/9/29 621/10/29 620/8/29
f 593/9/30 594/11/30 622/12/30 621/10/30
f 594/11/26 595/13/26 623/14/26 622/12/26
f 595/13/31 596/15/31 624/16/31 623/14/31
f 596/15/32 597/17/32 625/18/32 624/16/32
f 597/17/33 598/19/33 626/20/33 625/18/33
f 598/19/34 599/21/34 627/22/34 626/20/34
f 599/21/26 600/23/26 628/24/26 627/22/26
f 600/23/35 601/25/35 629/26/35 628/24/35
f 601/25/36 602/27/36 630/28/36 629/26/36
f 602/1/12 603/29/12 631/30/12 630/4/12
f 603/27/37 604/25/37 632/26/37 631/28/37
f 604/25/38 605/23/38 633/24/38 632/26/38
f 605/23/39 606/21/39 634/22/39 633/24/39
f 606/21/40 607/19/40 635/20/40 634/22/40
f 607/19/41 608/17/41 636/18/41 635/20/41
f 608/17/42 609/15/42 637/16/42 636/18/42
f 609/15/43 610/13/43 638/14/43 637/16/43
f 610/13/39 611/11/39 639/12/39 638/14/39
f 611/11/44 612/9/44 640/10/44 639/12/44
f 612/9/45 613/7/45 641/8/45 640/10/45
f 613/7/46 614/5/46 642/6/46 641/8/46
f 614/5/47 615/2/47 643/3/47 642/6/47
f 615/2/39 616/1/39 644/4/39 643/3/39
f 616/1/24 590/29/24 618/30/24 644/4/24
f 618/1/26 617/2/26 645/3/26 646/4/26
f 617/2/27 619/5/27 647/6/27 645/3/27
f 619/5/28 620/7/28 648/8/28 647/6/28
f 620/7/29 621/9/29 649/10/29 648/8/29
f 621/9/30 622/11/30 650/12/30 649/10/30
f 622/11/26 623/13/26 651/14/26 650/12/26
f 623/13/31 624/15/31 652/16/31 651/14/31
f 624/15/32 625/17/32 653/18/32 652/16/32
f 625/17/33 626/19/33 654/20/33 653/18/33
f 626/19/34 627/21/34 655/22/34 654/20/34
f 627/21/26 628/23/26 656/24/26 655/22/26
f 628/23/35 629/25/35 657/26/35 656/24/35
f 629/25/36 630/27/36 658/28/36 657/26/36
f 630/1/12 631/29/12 659/30/12 658/4/12
f 631/27/37 632/25/37 660/26/37 659/28/37
f 632/25/38 633/23/38 661/24/38 660/26/38
f 633/23/39 634/21/39 662/22/39 661/24/39
f 634/21/40 635/19/40 663/20/40 662/22/40
f 635/19/41 636/17/41 664/18/41 663/20/41
f 636/17/42 637/15/42 665/16/42 664/18/42
f 637/15/43 638/13/43 666/14/43 665/16/43
f 638/13/39 639/11/39 667/12/39 666/14/39
f 639/11/44 640/9/44 668/10/44 667/12/44
f 640/9/45 641/7/45 669/8/45 668/10/45
f 641/7/46 642/5/46 670/6/46 669/8/46
f 642/5/47 643/2/47 671/3/47 670/6/47
f 643/2/39 644/1/39 672/4/39 671/3/39
f 644/1/24 618/29/24 646/30/24 672/4/24
f 646/1/26 645/2/26 673/3/26 674/4/26
f 645/2/27 647/5/27 675/6/27 673/3/27
f 647/5/28 648/7/28 676/8/28 675/6/28
f 648/7/29 649/9/29 677/10/29 676/8/29
f 649/9/30 650/11/30 678/12/30 677/10/30
f 650/11/26 651/13/26 679/14/26 678/12/26
f 651/13/31 652/15/31 680/16/31 679/14/31
f 652/15/32 653/17/32 681/18/32 680/16/32
f 653/17/33 654/19/33 682/20/33 681/18/33
f 654/19/34 655/21/34 683/22/34 682/20/34
f 655/21/26 656/23/26 684/24/26 683/22/26
f 656/23/35 657/25/35 685/26/35 684/24/35
f 657/25/36 658/27/36 686/28/36 685/26/36
f 658/1/12 659/29/12 687/30/12 686/4/12
f 659/27/37 660/25/37 688/26/37 687/28/37
f 660/25/38 661/23/38 689/24/38 688/26/38
f 661/23/39 662/21/39 690/22/39 689/24/39
f 662/21/40 663/19/40 691/20/40 690/22/40
f 663/19/41 664/17/41 692/18/41 691/20/41
f 664/17/42 665/15/42 693/16/42 692/18/42
f 665/15/43 666/13/43 694/14/43 693/16/43
f 666/13/39 667/11/39 695/12/39 694/14/39
f 667/11/44 668/9/44 696/10/44 695/12/44
f 668/9/45 669/7/45 697/8/45 696/10/45
f 669/7/46 670/5/46 698/6/46 697/8/46
f 670/5/47 671/2/47 699/3/47 698/6/47
f 671/2/39 672/1/39 700/4/39 699/3/39
f 672/1/24 646/29/24 674/30/24 700/4/24
f 674/1/26 673/2/26 701/3/26 702/4/26
f 673/2/27 675/5/27 703/6/27 701/3/27
f 675/5/28 676/7/28 704/8/28 703/6/28
f 676/7/29 677/9/29 705/10/29 704/8/29
f 677/9/30 678/11/30 706/12/30 705/10/30
f 678/11/26 679/13/26 707/14/26 706/12/26
f 679/13/31 680/15/31 708/16/31 707/14/31
f 680/15/32 681/17/32 709/18/32 708/16/32
f 681/17/33 682/19/33 710/20/33 709/18/33
f 682/19/34 683/21/34 711/22/34 710/20/34
f 683/21/26 684/23/26 712/24/26 711/22/26
f 684/23/35 685/25/35 713/26/35 712/24/35
f 685/25/36 686/27/36 714/28/36 713/26/36
f 686/1/12 687/29/12 715/30/12 714/4/12
f 687/27/37 688/25/37 716/26/37 715/28/37
f 688/25/38 689/23/38 717/24/38 716/26/38
f 689/23/39 690/21/39 718/22/39 717/24/39
f 690/21/40 691/19/40 719/20/40 718/22/40
f 691/19/41 692/17/41 720/18/41 719/20/41
f 692/17/42 693/15/42 721/16/42 720/18/42
f 693/15/43 694/13/43 722/14/43 721/16/43
f 694/13/39 695/11/39 723/12/39 722/14/39
f 695/11/44 696/9/44 724/10/44 723/12/44
f 696/9/45 697/7/45 725/8/45 724/10/45
f 697/7/46 698/5/46 726/6/46 725/8/46
f 698/5/47 699/2/47 727/3/47 726/6/47
f 699/2/39 700/1/39 728/4/39 727/3/39
f 700/1/24 674/29/24 702/30/24 728/4/24
f 702/1/26 701/2/26 729/3/26 730/4/26
f 701/2/27 703/5/27 731/6/27 729/3/27
f 703/5/28 704/7/28 732/8/28 731/6/28
f 704/7/29 705/9/29 733/10/29 732/8/29
f 705/9/30 706/11/30 734/12/30 733/10/30
f 706/11/26 707/13/26 735/14/26 734/12/26
f 707/13/31 708/15/31 736/16/31 735/14/31
f 708/15/32 709/17/32 737/18/32 736/16/32
f 709/17/33 710/19/33 738/20/33 737/18/33
f 710/19/34 711/21/34 739/22/34 738/20/34
f 711/21/26 712/23/26 740/24/26 739/22/26
f 712/23/35 713/25/35 741/26/35 740/24/35
f 713/25/36 714/27/36 742/28/36 741/26/36
f 714/1/12 715/29/12 743/30/12 742/4/12
f 715/27/37 716/25/37 744/26/37 743/28/37
f 716/25/38 717/23/38 745/24/38 744/26/38
f 717/23/39 718/21/39 746/22/39 745/24/39
f 718/21/40 719/19/40 747/20/40 746/22/40
f 719/19/41 720/17/41 748/18/41 747/20/41
f 720/17/42 721/15/42 749/16/42 748/18/42
f 721/15/43 722/13/43 750/14/43 749/16/43
f 722/13/39 723/11/39 751/12/39 750/14/39
f 723/11/44 724/9/44 752/10/44 751/12/44
f 724/9/45 725/7/45 753/8/45 752/10/45
f 725/7/46 726/5/46 754/6/46 753/8/46
f 726/5/47 727/2/47 755/3/47 754/6/47
f 727/2/39 728/1/39 756/4/39 755/3/39
f 728/1/24 702/29/24 730/30/24 756/4/24
f 730/1/26 729/2/26 757/3/26 758/4/26
f 729/2/27 731/5/27 759/6/27 757/3/27
f 731/5/28 732/7/28 760/8/28 759/6/28
f 732/7/29 733/9/29 761/10/29 760/8/29
f 733/9/30 734/11/30 762/12/30 761/10/30
f 734/11/26 735/13/26 763/14/26 762/12/26
f 735/13/31 736/15/31 764/16/31 763/14/31
f 736/15/32 737/17/32 765/18/32 764/16/32
f 737/17/33 738/19/33 766/20/33 765/18/33
f 738/19/34 739/21/34 767/22/34 766/20/34
f 739/21/26 740/23/26 768/24/26 767/22/26
f 740/23/35 741/25/35 769/26/35 768/24/35
f 741/25/36 742/27/36 770/28/36 769/26/36
f 742/1/12 743/29/12 771/30/12 770/4/12
f 743/27/37 744/25/37 772/26/37 771/28/37
f 744/25/38 745/23/38 773/24/38 772/26/38
f 745/23/39 746/21/39 774/22/39 773/24/39
f 746/21/40 747/19/40 775/20/40 774/22/40
f 747/19/41 748/17/41 776/18/41 775/20/41
f 748/17/42 749/15/42 777/16/42 776/18/42
f 749/15/43 750/13/43 778/14/43 777/16/43
f 750/13/39 751/11/39 779/12/39 778/14/39
f 751/11/44 752/9/44 780/10/44 779/12/44
f 752/9/45 753/7/45 781/8/45 780/10/45
f 753/7/46 754/5/46 782/6/46 781/8/46
f 754/5/47 755/2/47 783/3/47 782/6/47
f 755/2/39 756/1/39 784/4/39 783/3/39
f 756/1/24 730/29/24 758/30/24 784/4/24
f 393/31/25 447/32/25 445/33/25
f 393/31/25 445/33/25 443/34/25
f 393/31/25 443/34/25 441/35/25
f 393/31/25 441/35/25 439/36/25
f 433/37/25 431/38/25 429/39/25
f 433/37/25 429/39/25 427/40/25
f 433/37/25 427/40/25 425/41/25
f 433/37/25 425/41/25 423/42/25
f 433/37/25 423/42/25 421/43/25
f 435/44/25 433/37/25 421/43/25
f 435/44/25 421/43/25 419/45/25
f 435/44/25 419/45/25 417/46/25
f 435/44/25 417/46/25 415/47/25
f 435/44/25 415/47/25 413/48/25
f 435/44/25 413/48/25 411/49/25
f 411/49/25 409/50/25 407/51/25
f 435/44/25 411/49/25 407/51/25
f 435/44/25 407/51/25 405/52/25
f 437/53/25 435/44/25 405/52/25
f 439/36/25 437/53/25 405/52/25
f 439/36/25 405/52/25 403/54/25
f 439/36/25 403/54/25 401/55/25
f 439/36/25 401/55/25 399/56/25
f 393/31/25 439/36/25 399/56/25
f 393/31/25 399/56/25 397/57/25
f 397/57/25 394/58/25 393/31/25
g terminal_nose
usemtl mat
f 785/59/24 786/60/24 787/61/24 788/62/24
f 787/62/48 786/59/48 789/60/48
f 789/60/49 790/61/49 787/62/49
f 789/59/50 791/60/50 792/61/50 790/62/50
f 792/62/51 791/59/51 785/60/51
f 785/60/52 788/61/52 792/62/52
f 791/62/25 789/61/25 786/60/25 785/59/25
f 788/59/53 787/60/53 790/61/53 792/62/53
f 793/63/24 794/64/24 795/65/24
f 793/63/24 795/65/24 796/66/24
f 793/63/24 796/66/24 797/67/24
f 797/67/24 798/68/24 793/63/24
f 799/64/12 800/63/12 801/68/12
f 799/64/12 801/68/12 802/67/12
f 799/64/12 802/67/12 803/66/12
f 803/66/12 804/65/12 799/64/12
f 799/69/54 804/70/54 795/71/54 794/72/54
f 804/70/53 803/73/53 796/74/53 795/71/53
f 803/73/55 802/75/55 797/76/55 796/74/55
f 802/75/56 801/77/56 798/78/56 797/76/56
f 801/77/25 800/79/25 793/80/25 798/78/25
f 800/79/57 799/81/57 794/82/57 793/80/57
f 805/63/24 806/64/24 807/65/24
f 805/63/24 807/65/24 808/66/24
f 805/63/24 808/66/24 809/67/24
f 809/67/24 810/68/24 805/63/24
f 811/64/12 812/63/12 813/68/12
f 811/64/12 813/68/12 814/67/12
f 811/64/12 814/67/12 815/66/12
f 815/66/12 816/65/12 811/64/12
f 811/69/54 816/70/54 807/71/54 806/72/54
f 816/70/53 815/73/53 808/74/53 807/71/53
f 815/73/55 814/75/55 809/76/55 808/74/55
f 814/75/56 813/77/56 810/78/56 809/76/56
f 813/77/25 812/79/25 805/80/25 810/78/25
f 812/79/57 811/81/57 806/82/57 805/80/57
