# metres; Y up; CCW outward; repeat 0.6 m
mtllib direct_low.mtl
v -1.012500 0.091422 0.300000
v -0.490500 0.091422 0.300000
v -0.490500 0.091422 -0.300000
v -1.012500 0.091422 -0.300000
v -0.490500 -0.268078 -0.300000
v -1.012500 -0.268078 -0.300000
v -0.490500 -0.268078 0.300000
v -1.012500 -0.268078 0.300000
v 0.490500 0.091422 0.300000
v 1.012500 0.091422 0.300000
v 1.012500 0.091422 -0.300000
v 0.490500 0.091422 -0.300000
v 1.012500 -0.268078 -0.300000
v 0.490500 -0.268078 -0.300000
v 1.012500 -0.268078 0.300000
v 0.490500 -0.268078 0.300000
v -0.826500 0.099422 0.106000
v -0.676500 0.099422 0.106000
v -0.676500 0.099422 -0.106000
v -0.826500 0.099422 -0.106000
v -0.896500 0.109422 0.105000
v -0.606500 0.109422 0.105000
v -0.606500 0.109422 -0.105000
v -0.896500 0.109422 -0.105000
v -0.946500 0.095422 0.103000
v -0.820500 0.095422 0.103000
v -0.820500 0.095422 -0.103000
v -0.946500 0.095422 -0.103000
v -0.950500 0.126422 0.107000
v -0.934500 0.126422 0.107000
v -0.934500 0.126422 -0.107000
v -0.950500 0.126422 -0.107000
v -0.682500 0.095422 0.103000
v -0.556500 0.095422 0.103000
v -0.556500 0.095422 -0.103000
v -0.682500 0.095422 -0.103000
v -0.568500 0.126422 0.107000
v -0.552500 0.126422 0.107000
v -0.552500 0.126422 -0.107000
v -0.568500 0.126422 -0.107000
v -0.681500 0.099422 -0.300000
v -0.681500 0.108000 -0.300000
v -0.681500 0.108000 0.300000
v -0.681500 0.099422 0.300000
v -0.687500 0.113000 -0.300000
v -0.687500 0.113000 0.300000
v -0.725500 0.124000 -0.300000
v -0.725500 0.124000 0.300000
v -0.739500 0.134000 -0.300000
v -0.739500 0.134000 0.300000
v -0.742500 0.145000 -0.300000
v -0.742500 0.145000 0.300000
v -0.742500 0.207000 -0.300000
v -0.742500 0.207000 0.300000
v -0.738500 0.219000 -0.300000
v -0.738500 0.219000 0.300000
v -0.724500 0.225000 -0.300000
v -0.724500 0.225000 0.300000
v -0.718500 0.231000 -0.300000
v -0.718500 0.231000 0.300000
v -0.717500 0.239000 -0.300000
v -0.717500 0.239000 0.300000
v -0.717500 0.254000 -0.300000
v -0.717500 0.254000 0.300000
v -0.719500 0.260000 -0.300000
v -0.719500 0.260000 0.300000
v -0.725500 0.264280 -0.300000
v -0.725500 0.264280 0.300000
v -0.777500 0.264280 -0.300000
v -0.777500 0.264280 0.300000
v -0.783500 0.260000 -0.300000
v -0.783500 0.260000 0.300000
v -0.785500 0.254000 -0.300000
v -0.785500 0.254000 0.300000
v -0.785500 0.239000 -0.300000
v -0.785500 0.239000 0.300000
v -0.784500 0.231000 -0.300000
v -0.784500 0.231000 0.300000
v -0.778500 0.225000 -0.300000
v -0.778500 0.225000 0.300000
v -0.764500 0.219000 -0.300000
v -0.764500 0.219000 0.300000
v -0.760500 0.207000 -0.300000
v -0.760500 0.207000 0.300000
v -0.760500 0.145000 -0.300000
v -0.760500 0.145000 0.300000
v -0.763500 0.134000 -0.300000
v -0.763500 0.134000 0.300000
v -0.777500 0.124000 -0.300000
v -0.777500 0.124000 0.300000
v -0.815500 0.113000 -0.300000
v -0.815500 0.113000 0.300000
v -0.821500 0.108000 -0.300000
v -0.821500 0.108000 0.300000
v -0.821500 0.099422 -0.300000
v -0.821500 0.099422 0.300000
v 0.676500 0.099422 0.106000
v 0.826500 0.099422 0.106000
v 0.826500 0.099422 -0.106000
v 0.676500 0.099422 -0.106000
v 0.606500 0.109422 0.105000
v 0.896500 0.109422 0.105000
v 0.896500 0.109422 -0.105000
v 0.606500 0.109422 -0.105000
v 0.556500 0.095422 0.103000
v 0.682500 0.095422 0.103000
v 0.682500 0.095422 -0.103000
v 0.556500 0.095422 -0.103000
v 0.552500 0.126422 0.107000
v 0.568500 0.126422 0.107000
v 0.568500 0.126422 -0.107000
v 0.552500 0.126422 -0.107000
v 0.820500 0.095422 0.103000
v 0.946500 0.095422 0.103000
v 0.946500 0.095422 -0.103000
v 0.820500 0.095422 -0.103000
v 0.934500 0.126422 0.107000
v 0.950500 0.126422 0.107000
v 0.950500 0.126422 -0.107000
v 0.934500 0.126422 -0.107000
v 0.821500 0.099422 -0.300000
v 0.821500 0.108000 -0.300000
v 0.821500 0.108000 0.300000
v 0.821500 0.099422 0.300000
v 0.815500 0.113000 -0.300000
v 0.815500 0.113000 0.300000
v 0.777500 0.124000 -0.300000
v 0.777500 0.124000 0.300000
v 0.763500 0.134000 -0.300000
v 0.763500 0.134000 0.300000
v 0.760500 0.145000 -0.300000
v 0.760500 0.145000 0.300000
v 0.760500 0.207000 -0.300000
v 0.760500 0.207000 0.300000
v 0.764500 0.219000 -0.300000
v 0.764500 0.219000 0.300000
v 0.778500 0.225000 -0.300000
v 0.778500 0.225000 0.300000
v 0.784500 0.231000 -0.300000
v 0.784500 0.231000 0.300000
v 0.785500 0.239000 -0.300000
v 0.785500 0.239000 0.300000
v 0.785500 0.254000 -0.300000
v 0.785500 0.254000 0.300000
v 0.783500 0.260000 -0.300000
v 0.783500 0.260000 0.300000
v 0.777500 0.264280 -0.300000
v 0.777500 0.264280 0.300000
v 0.725500 0.264280 -0.300000
v 0.725500 0.264280 0.300000
v 0.719500 0.260000 -0.300000
v 0.719500 0.260000 0.300000
v 0.717500 0.254000 -0.300000
v 0.717500 0.254000 0.300000
v 0.717500 0.239000 -0.300000
v 0.717500 0.239000 0.300000
v 0.718500 0.231000 -0.300000
v 0.718500 0.231000 0.300000
v 0.724500 0.225000 -0.300000
v 0.724500 0.225000 0.300000
v 0.738500 0.219000 -0.300000
v 0.738500 0.219000 0.300000
v 0.742500 0.207000 -0.300000
v 0.742500 0.207000 0.300000
v 0.742500 0.145000 -0.300000
v 0.742500 0.145000 0.300000
v 0.739500 0.134000 -0.300000
v 0.739500 0.134000 0.300000
v 0.725500 0.124000 -0.300000
v 0.725500 0.124000 0.300000
v 0.687500 0.113000 -0.300000
v 0.687500 0.113000 0.300000
v 0.681500 0.108000 -0.300000
v 0.681500 0.108000 0.300000
v 0.681500 0.099422 -0.300000
v 0.681500 0.099422 0.300000
vt 0.01062500 0.49160448
vt 0.32937500 0.49160448
vt 0.32937500 0.01585821
vt 0.01062500 0.01585821
vt 0.60837500 0.48208955
vt 0.65300000 0.48208955
vt 0.65300000 0.31082090
vt 0.60837500 0.31082090
vt 0.34062500 0.49160448
vt 0.57968750 0.49160448
vt 0.57968750 0.01585821
vt 0.34062500 0.01585821
vt 0.60837500 0.19664179
vt 0.65300000 0.19664179
vt 0.65300000 0.02537313
vt 0.60837500 0.02537313
vt 0.01062500 0.50839552
vt 0.01062500 0.53314987
vt 0.32937500 0.53314987
vt 0.32937500 0.50839552
vt 0.01062500 0.54757884
vt 0.32937500 0.54757884
vt 0.01062500 0.57932257
vt 0.32937500 0.57932257
vt 0.01062500 0.60818052
vt 0.32937500 0.60818052
vt 0.01062500 0.63992425
vt 0.32937500 0.63992425
vt 0.01062500 0.81884350
vt 0.32937500 0.81884350
vt 0.01062500 0.85347303
vt 0.32937500 0.85347303
vt 0.01062500 0.87078779
vt 0.32937500 0.87078779
vt 0.01062500 0.88810256
vt 0.32937500 0.88810256
vt 0.01062500 0.91118891
vt 0.32937500 0.91118891
vt 0.01062500 0.95447583
vt 0.32937500 0.95447583
vt 0.01062500 0.97179059
vt 0.32937500 0.97179059
vt 0.34062500 0.97014925
vt 0.34062500 0.92817164
vt 0.65937500 0.92817164
vt 0.65937500 0.97014925
vt 0.34062500 0.56436567
vt 0.65937500 0.56436567
vt 0.34062500 0.52238806
vt 0.65937500 0.52238806
vt 0.01062500 0.57500000
vt 0.32937500 0.57500000
vt 0.98937500 0.50839552
vt 0.67062500 0.50839552
vt 0.67062500 0.53314987
vt 0.68428571 0.54757884
vt 0.77080357 0.57932257
vt 0.80267857 0.60818052
vt 0.80040179 0.85347303
vt 0.76852679 0.87078779
vt 0.75486607 0.88810256
vt 0.75258929 0.91118891
vt 0.75258929 0.95447583
vt 0.75714286 0.97179059
vt 0.77080357 0.98414179
vt 0.80950893 0.81884350
vt 0.88919643 0.98414179
vt 0.90285714 0.97179059
vt 0.90741071 0.95447583
vt 0.90741071 0.91118891
vt 0.90513393 0.88810256
vt 0.89147321 0.87078779
vt 0.85959821 0.85347303
vt 0.85049107 0.81884350
vt 0.80950893 0.63992425
vt 0.85049107 0.63992425
vt 0.85732143 0.60818052
vt 0.88919643 0.57932257
vt 0.97571429 0.54757884
vt 0.98937500 0.53314987
vn -0.00000000 1.00000000 0.00000000
vn 0.00000000 0.00000000 -1.00000000
vn 1.00000000 0.00000000 -0.00000000
vn 0.00000000 0.00000000 1.00000000
vn -1.00000000 0.00000000 -0.00000000
vn 0.64018440 0.76822128 0.00000000
vn 0.27805808 0.96056426 0.00000000
vn 0.58123819 0.81373347 0.00000000
vn 0.96476382 0.26311741 0.00000000
vn 0.94868330 -0.31622777 0.00000000
vn 0.39391930 -0.91914503 0.00000000
vn 0.70710678 -0.70710678 0.00000000
vn 0.99227788 -0.12403473 0.00000000
vn 0.94868330 0.31622777 0.00000000
vn 0.58072468 0.81410002 0.00000000
vn -0.58072468 0.81410002 0.00000000
vn -0.94868330 0.31622777 0.00000000
vn -0.99227788 -0.12403473 0.00000000
vn -0.70710678 -0.70710678 0.00000000
vn -0.39391930 -0.91914503 0.00000000
vn -0.94868330 -0.31622777 0.00000000
vn -0.96476382 0.26311741 0.00000000
vn -0.58123819 0.81373347 0.00000000
vn -0.27805808 0.96056426 0.00000000
vn -0.64018440 0.76822128 0.00000000
vn 0.00000000 -1.00000000 0.00000000
g direct_bearer
usemtl mat
f 1/1/1 2/2/1 3/3/1 4/4/1
f 4/1/2 3/2/2 5/3/2 6/4/2
f 3/1/3 2/2/3 7/3/3 5/4/3
f 2/1/4 1/2/4 8/3/4 7/4/4
f 1/1/5 4/2/5 6/3/5 8/4/5
f 9/1/1 10/2/1 11/3/1 12/4/1
f 12/1/2 11/2/2 13/3/2 14/4/2
f 11/1/3 10/2/3 15/3/3 13/4/3
f 10/1/4 9/2/4 16/3/4 15/4/4
f 9/1/5 12/2/5 14/3/5 16/4/5
g fastener_left
usemtl mat
f 17/5/1 18/6/1 19/7/1 20/8/1
f 21/9/1 22/10/1 23/11/1 24/12/1
f 25/9/1 26/10/1 27/11/1 28/12/1
f 29/13/1 30/14/1 31/15/1 32/16/1
f 33/9/1 34/10/1 35/11/1 36/12/1
f 37/13/1 38/14/1 39/15/1 40/16/1
g rail_left
usemtl mat
f 41/17/3 42/18/3 43/19/3 44/20/3
f 42/18/6 45/21/6 46/22/6 43/19/6
f 45/21/7 47/23/7 48/24/7 46/22/7
f 47/23/8 49/25/8 50/26/8 48/24/8
f 49/25/9 51/27/9 52/28/9 50/26/9
f 51/27/3 53/29/3 54/30/3 52/28/3
f 53/29/10 55/31/10 56/32/10 54/30/10
f 55/31/11 57/33/11 58/34/11 56/32/11
f 57/33/12 59/35/12 60/36/12 58/34/12
f 59/35/13 61/37/13 62/38/13 60/36/13
f 61/37/3 63/39/3 64/40/3 62/38/3
f 63/39/14 65/41/14 66/42/14 64/40/14
f 65/43/15 67/44/15 68/45/15 66/46/15
f 67/44/1 69/47/1 70/48/1 68/45/1
f 69/47/16 71/49/16 72/50/16 70/48/16
f 71/41/17 73/39/17 74/40/17 72/42/17
f 73/39/5 75/37/5 76/38/5 74/40/5
f 75/37/18 77/35/18 78/36/18 76/38/18
f 77/35/19 79/33/19 80/34/19 78/36/19
f 79/33/20 81/31/20 82/32/20 80/34/20
f 81/31/21 83/29/21 84/30/21 82/32/21
f 83/29/5 85/27/5 86/28/5 84/30/5
f 85/27/22 87/25/22 88/26/22 86/28/22
f 87/25/23 89/23/23 90/24/23 88/26/23
f 89/23/24 91/21/24 92/22/24 90/24/24
f 91/21/25 93/18/25 94/19/25 92/22/25
f 93/18/5 95/17/5 96/20/5 94/19/5
f 95/17/26 41/51/26 44/52/26 96/20/26
g rail_left_end
usemtl mat
f 41/53/2 95/54/2 93/55/2
f 41/53/2 93/55/2 91/56/2
f 41/53/2 91/56/2 89/57/2
f 41/53/2 89/57/2 87/58/2
f 81/59/2 79/60/2 77/61/2
f 81/59/2 77/61/2 75/62/2
f 81/59/2 75/62/2 73/63/2
f 81/59/2 73/63/2 71/64/2
f 81/59/2 71/64/2 69/65/2
f 83/66/2 81/59/2 69/65/2
f 83/66/2 69/65/2 67/67/2
f 83/66/2 67/67/2 65/68/2
f 83/66/2 65/68/2 63/69/2
f 83/66/2 63/69/2 61/70/2
f 83/66/2 61/70/2 59/71/2
f 59/71/2 57/72/2 55/73/2
f 83/66/2 59/71/2 55/73/2
f 83/66/2 55/73/2 53/74/2
f 85/75/2 83/66/2 53/74/2
f 87/58/2 85/75/2 53/74/2
f 87/58/2 53/74/2 51/76/2
f 87/58/2 51/76/2 49/77/2
f 87/58/2 49/77/2 47/78/2
f 41/53/2 87/58/2 47/78/2
f 41/53/2 47/78/2 45/79/2
f 45/79/2 42/80/2 41/53/2
f 96/54/4 44/53/4 43/80/4
f 96/54/4 43/80/4 46/79/4
f 96/54/4 46/79/4 48/78/4
f 96/54/4 48/78/4 50/77/4
f 56/73/4 58/72/4 60/71/4
f 56/73/4 60/71/4 62/70/4
f 56/73/4 62/70/4 64/69/4
f 56/73/4 64/69/4 66/68/4
f 56/73/4 66/68/4 68/67/4
f 54/74/4 56/73/4 68/67/4
f 54/74/4 68/67/4 70/65/4
f 54/74/4 70/65/4 72/64/4
f 54/74/4 72/64/4 74/63/4
f 54/74/4 74/63/4 76/62/4
f 54/74/4 76/62/4 78/61/4
f 78/61/4 80/60/4 82/59/4
f 54/74/4 78/61/4 82/59/4
f 54/74/4 82/59/4 84/66/4
f 52/76/4 54/74/4 84/66/4
f 50/77/4 52/76/4 84/66/4
f 50/77/4 84/66/4 86/75/4
f 50/77/4 86/75/4 88/58/4
f 50/77/4 88/58/4 90/57/4
f 96/54/4 50/77/4 90/57/4
f 96/54/4 90/57/4 92/56/4
f 92/56/4 94/55/4 96/54/4
g fastener_right
usemtl mat
f 97/5/1 98/6/1 99/7/1 100/8/1
f 101/9/1 102/10/1 103/11/1 104/12/1
f 105/9/1 106/10/1 107/11/1 108/12/1
f 109/13/1 110/14/1 111/15/1 112/16/1
f 113/9/1 114/10/1 115/11/1 116/12/1
f 117/13/1 118/14/1 119/15/1 120/16/1
g rail_right
usemtl mat
f 121/17/3 122/18/3 123/19/3 124/20/3
f 122/18/6 125/21/6 126/22/6 123/19/6
f 125/21/7 127/23/7 128/24/7 126/22/7
f 127/23/8 129/25/8 130/26/8 128/24/8
f 129/25/9 131/27/9 132/28/9 130/26/9
f 131/27/3 133/29/3 134/30/3 132/28/3
f 133/29/10 135/31/10 136/32/10 134/30/10
f 135/31/11 137/33/11 138/34/11 136/32/11
f 137/33/12 139/35/12 140/36/12 138/34/12
f 139/35/13 141/37/13 142/38/13 140/36/13
f 141/37/3 143/39/3 144/40/3 142/38/3
f 143/39/14 145/41/14 146/42/14 144/40/14
f 145/43/15 147/44/15 148/45/15 146/46/15
f 147/44/1 149/47/1 150/48/1 148/45/1
f 149/47/16 151/49/16 152/50/16 150/48/16
f 151/41/17 153/39/17 154/40/17 152/42/17
f 153/39/5 155/37/5 156/38/5 154/40/5
f 155/37/18 157/35/18 158/36/18 156/38/18
f 157/35/19 159/33/19 160/34/19 158/36/19
f 159/33/20 161/31/20 162/32/20 160/34/20
f 161/31/21 163/29/21 164/30/21 162/32/21
f 163/29/5 165/27/5 166/28/5 164/30/5
f 165/27/22 167/25/22 168/26/22 166/28/22
f 167/25/23 169/23/23 170/24/23 168/26/23
f 169/23/24 171/21/24 172/22/24 170/24/24
f 171/21/25 173/18/25 174/19/25 172/22/25
f 173/18/5 175/17/5 176/20/5 174/19/5
f 175/17/26 121/51/26 124/52/26 176/20/26
g rail_right_end
usemtl mat
f 121/53/2 175/54/2 173/55/2
f 121/53/2 173/55/2 171/56/2
f 121/53/2 171/56/2 169/57/2
f 121/53/2 169/57/2 167/58/2
f 161/59/2 159/60/2 157/61/2
f 161/59/2 157/61/2 155/62/2
f 161/59/2 155/62/2 153/63/2
f 161/59/2 153/63/2 151/64/2
f 161/59/2 151/64/2 149/65/2
f 163/66/2 161/59/2 149/65/2
f 163/66/2 149/65/2 147/67/2
f 163/66/2 147/67/2 145/68/2
f 163/66/2 145/68/2 143/69/2
f 163/66/2 143/69/2 141/70/2
f 163/66/2 141/70/2 139/71/2
f 139/71/2 137/72/2 135/73/2
f 163/66/2 139/71/2 135/73/2
f 163/66/2 135/73/2 133/74/2
f 165/75/2 163/66/2 133/74/2
f 167/58/2 165/75/2 133/74/2
f 167/58/2 133/74/2 131/76/2
f 167/58/2 131/76/2 129/77/2
f 167/58/2 129/77/2 127/78/2
f 121/53/2 167/58/2 127/78/2
f 121/53/2 127/78/2 125/79/2
f 125/79/2 122/80/2 121/53/2
f 176/54/4 124/53/4 123/80/4
f 176/54/4 123/80/4 126/79/4
f 176/54/4 126/79/4 128/78/4
f 176/54/4 128/78/4 130/77/4
f 136/73/4 138/72/4 140/71/4
f 136/73/4 140/71/4 142/70/4
f 136/73/4 142/70/4 144/69/4
f 136/73/4 144/69/4 146/68/4
f 136/73/4 146/68/4 148/67/4
f 134/74/4 136/73/4 148/67/4
f 134/74/4 148/67/4 150/65/4
f 134/74/4 150/65/4 152/64/4
f 134/74/4 152/64/4 154/63/4
f 134/74/4 154/63/4 156/62/4
f 134/74/4 156/62/4 158/61/4
f 158/61/4 160/60/4 162/59/4
f 134/74/4 158/61/4 162/59/4
f 134/74/4 162/59/4 164/66/4
f 132/76/4 134/74/4 164/66/4
f 130/77/4 132/76/4 164/66/4
f 130/77/4 164/66/4 166/75/4
f 130/77/4 166/75/4 168/58/4
f 130/77/4 168/58/4 170/57/4
f 176/54/4 130/77/4 170/57/4
f 176/54/4 170/57/4 172/56/4
f 172/56/4 174/55/4 176/54/4
