# metres; Y up; CCW outward; repeat 0.6 m
mtllib direct_mid.mtl
v -1.012500 0.091422 0.300000
v -0.490500 0.091422 0.300000
v -0.490500 0.091422 -0.300000
v -1.012500 0.091422 -0.300000
v -0.490500 -0.268078 -0.300000
v -1.012500 -0.268078 -0.300000
v -0.490500 -0.268078 0.300000
v -1.012500 -0.268078 0.300000
v 0.490500 0.091422 0.300000
v 1.012500 0.091422 0.300000
v 1.012500 0.091422 -0.300000
v 0.490500 0.091422 -0.300000
v 1.012500 -0.268078 -0.300000
v 0.490500 -0.268078 -0.300000
v 1.012500 -0.268078 0.300000
v 0.490500 -0.268078 0.300000
v -0.820500 0.099422 -0.106000
v -0.826500 0.099422 -0.100000
v -0.826500 0.099422 0.100000
v -0.820500 0.099422 0.106000
v -0.682500 0.099422 0.106000
v -0.676500 0.099422 0.100000
v -0.676500 0.099422 -0.100000
v -0.682500 0.099422 -0.106000
v -0.943500 0.095422 -0.103000
v -0.946500 0.095422 -0.100000
v -0.946500 0.095422 0.100000
v -0.943500 0.095422 0.103000
v -0.823500 0.095422 0.103000
v -0.820500 0.095422 0.100000
v -0.820500 0.095422 -0.100000
v -0.823500 0.095422 -0.103000
v -0.948500 0.126422 -0.107000
v -0.950500 0.126422 -0.105000
v -0.950500 0.126422 0.105000
v -0.948500 0.126422 0.107000
v -0.936500 0.126422 0.107000
v -0.934500 0.126422 0.105000
v -0.934500 0.126422 -0.105000
v -0.936500 0.126422 -0.107000
v -0.939500 0.109500 0.105000
v -0.901500 0.109500 0.105000
v -0.901500 0.109500 -0.105000
v -0.939500 0.109500 -0.105000
v -0.827500 0.123500 0.105000
v -0.827500 0.123500 -0.105000
v -0.819500 0.123500 0.105000
v -0.819500 0.123500 -0.105000
v -0.793500 0.129000 0.105000
v -0.793500 0.129000 -0.105000
v -0.874500 0.192000 0.000000
v -0.879500 0.192000 -0.008660
v -0.889500 0.192000 -0.008660
v -0.894500 0.192000 0.000000
v -0.889500 0.192000 0.008660
v -0.879500 0.192000 0.008660
v -0.854500 0.168000 0.000000
v -0.863287 0.168000 -0.021213
v -0.884500 0.168000 -0.030000
v -0.905713 0.168000 -0.021213
v -0.914500 0.168000 0.000000
v -0.905713 0.168000 0.021213
v -0.884500 0.168000 0.030000
v -0.863287 0.168000 0.021213
v -0.864500 0.186000 0.000000
v -0.874500 0.186000 -0.017321
v -0.894500 0.186000 -0.017321
v -0.904500 0.186000 0.000000
v -0.894500 0.186000 0.017321
v -0.874500 0.186000 0.017321
v -0.866500 0.189000 0.000000
v -0.875500 0.189000 -0.015588
v -0.893500 0.189000 -0.015588
v -0.902500 0.189000 0.000000
v -0.893500 0.189000 0.015588
v -0.875500 0.189000 0.015588
v -0.679500 0.095422 -0.103000
v -0.682500 0.095422 -0.100000
v -0.682500 0.095422 0.100000
v -0.679500 0.095422 0.103000
v -0.559500 0.095422 0.103000
v -0.556500 0.095422 0.100000
v -0.556500 0.095422 -0.100000
v -0.559500 0.095422 -0.103000
v -0.566500 0.126422 -0.107000
v -0.568500 0.126422 -0.105000
v -0.568500 0.126422 0.105000
v -0.566500 0.126422 0.107000
v -0.554500 0.126422 0.107000
v -0.552500 0.126422 0.105000
v -0.552500 0.126422 -0.105000
v -0.554500 0.126422 -0.107000
v -0.563500 0.109500 -0.105000
v -0.601500 0.109500 -0.105000
v -0.601500 0.109500 0.105000
v -0.563500 0.109500 0.105000
v -0.675500 0.123500 -0.105000
v -0.675500 0.123500 0.105000
v -0.683500 0.123500 -0.105000
v -0.683500 0.123500 0.105000
v -0.709500 0.129000 -0.105000
v -0.709500 0.129000 0.105000
v -0.608500 0.192000 0.000000
v -0.613500 0.192000 -0.008660
v -0.623500 0.192000 -0.008660
v -0.628500 0.192000 0.000000
v -0.623500 0.192000 0.008660
v -0.613500 0.192000 0.008660
v -0.588500 0.168000 0.000000
v -0.597287 0.168000 -0.021213
v -0.618500 0.168000 -0.030000
v -0.639713 0.168000 -0.021213
v -0.648500 0.168000 0.000000
v -0.639713 0.168000 0.021213
v -0.618500 0.168000 0.030000
v -0.597287 0.168000 0.021213
v -0.598500 0.186000 0.000000
v -0.608500 0.186000 -0.017321
v -0.628500 0.186000 -0.017321
v -0.638500 0.186000 0.000000
v -0.628500 0.186000 0.017321
v -0.608500 0.186000 0.017321
v -0.600500 0.189000 0.000000
v -0.609500 0.189000 -0.015588
v -0.627500 0.189000 -0.015588
v -0.636500 0.189000 0.000000
v -0.627500 0.189000 0.015588
v -0.609500 0.189000 0.015588
v -0.681500 0.099422 -0.300000
v -0.681500 0.108000 -0.300000
v -0.681500 0.108000 0.300000
v -0.681500 0.099422 0.300000
v -0.687500 0.113000 -0.300000
v -0.687500 0.113000 0.300000
v -0.725500 0.124000 -0.300000
v -0.725500 0.124000 0.300000
v -0.739500 0.134000 -0.300000
v -0.739500 0.134000 0.300000
v -0.742500 0.145000 -0.300000
v -0.742500 0.145000 0.300000
v -0.742500 0.207000 -0.300000
v -0.742500 0.207000 0.300000
v -0.738500 0.219000 -0.300000
v -0.738500 0.219000 0.300000
v -0.724500 0.225000 -0.300000
v -0.724500 0.225000 0.300000
v -0.718500 0.231000 -0.300000
v -0.718500 0.231000 0.300000
v -0.717500 0.239000 -0.300000
v -0.717500 0.239000 0.300000
v -0.717500 0.254000 -0.300000
v -0.717500 0.254000 0.300000
v -0.719500 0.260000 -0.300000
v -0.719500 0.260000 0.300000
v -0.725500 0.264280 -0.300000
v -0.725500 0.264280 0.300000
v -0.777500 0.264280 -0.300000
v -0.777500 0.264280 0.300000
v -0.783500 0.260000 -0.300000
v -0.783500 0.260000 0.300000
v -0.785500 0.254000 -0.300000
v -0.785500 0.254000 0.300000
v -0.785500 0.239000 -0.300000
v -0.785500 0.239000 0.300000
v -0.784500 0.231000 -0.300000
v -0.784500 0.231000 0.300000
v -0.778500 0.225000 -0.300000
v -0.778500 0.225000 0.300000
v -0.764500 0.219000 -0.300000
v -0.764500 0.219000 0.300000
v -0.760500 0.207000 -0.300000
v -0.760500 0.207000 0.300000
v -0.760500 0.145000 -0.300000
v -0.760500 0.145000 0.300000
v -0.763500 0.134000 -0.300000
v -0.763500 0.134000 0.300000
v -0.777500 0.124000 -0.300000
v -0.777500 0.124000 0.300000
v -0.815500 0.113000 -0.300000
v -0.815500 0.113000 0.300000
v -0.821500 0.108000 -0.300000
v -0.821500 0.108000 0.300000
v -0.821500 0.099422 -0.300000
v -0.821500 0.099422 0.300000
v 0.682500 0.099422 -0.106000
v 0.676500 0.099422 -0.100000
v 0.676500 0.099422 0.100000
v 0.682500 0.099422 0.106000
v 0.820500 0.099422 0.106000
v 0.826500 0.099422 0.100000
v 0.826500 0.099422 -0.100000
v 0.820500 0.099422 -0.106000
v 0.559500 0.095422 -0.103000
v 0.556500 0.095422 -0.100000
v 0.556500 0.095422 0.100000
v 0.559500 0.095422 0.103000
v 0.679500 0.095422 0.103000
v 0.682500 0.095422 0.100000
v 0.682500 0.095422 -0.100000
v 0.679500 0.095422 -0.103000
v 0.554500 0.126422 -0.107000
v 0.552500 0.126422 -0.105000
v 0.552500 0.126422 0.105000
v 0.554500 0.126422 0.107000
v 0.566500 0.126422 0.107000
v 0.568500 0.126422 0.105000
v 0.568500 0.126422 -0.105000
v 0.566500 0.126422 -0.107000
v 0.563500 0.109500 0.105000
v 0.601500 0.109500 0.105000
v 0.601500 0.109500 -0.105000
v 0.563500 0.109500 -0.105000
v 0.675500 0.123500 0.105000
v 0.675500 0.123500 -0.105000
v 0.683500 0.123500 0.105000
v 0.683500 0.123500 -0.105000
v 0.709500 0.129000 0.105000
v 0.709500 0.129000 -0.105000
v 0.628500 0.192000 0.000000
v 0.623500 0.192000 -0.008660
v 0.613500 0.192000 -0.008660
v 0.608500 0.192000 0.000000
v 0.613500 0.192000 0.008660
v 0.623500 0.192000 0.008660
v 0.648500 0.168000 0.000000
v 0.639713 0.168000 -0.021213
v 0.618500 0.168000 -0.030000
v 0.597287 0.168000 -0.021213
v 0.588500 0.168000 0.000000
v 0.597287 0.168000 0.021213
v 0.618500 0.168000 0.030000
v 0.639713 0.168000 0.021213
v 0.638500 0.186000 0.000000
v 0.628500 0.186000 -0.017321
v 0.608500 0.186000 -0.017321
v 0.598500 0.186000 0.000000
v 0.608500 0.186000 0.017321
v 0.628500 0.186000 0.017321
v 0.636500 0.189000 0.000000
v 0.627500 0.189000 -0.015588
v 0.609500 0.189000 -0.015588
v 0.600500 0.189000 0.000000
v 0.609500 0.189000 0.015588
v 0.627500 0.189000 0.015588
v 0.823500 0.095422 -0.103000
v 0.820500 0.095422 -0.100000
v 0.820500 0.095422 0.100000
v 0.823500 0.095422 0.103000
v 0.943500 0.095422 0.103000
v 0.946500 0.095422 0.100000
v 0.946500 0.095422 -0.100000
v 0.943500 0.095422 -0.103000
v 0.936500 0.126422 -0.107000
v 0.934500 0.126422 -0.105000
v 0.934500 0.126422 0.105000
v 0.936500 0.126422 0.107000
v 0.948500 0.126422 0.107000
v 0.950500 0.126422 0.105000
v 0.950500 0.126422 -0.105000
v 0.948500 0.126422 -0.107000
v 0.939500 0.109500 -0.105000
v 0.901500 0.109500 -0.105000
v 0.901500 0.109500 0.105000
v 0.939500 0.109500 0.105000
v 0.827500 0.123500 -0.105000
v 0.827500 0.123500 0.105000
v 0.819500 0.123500 -0.105000
v 0.819500 0.123500 0.105000
v 0.793500 0.129000 -0.105000
v 0.793500 0.129000 0.105000
v 0.894500 0.192000 0.000000
v 0.889500 0.192000 -0.008660
v 0.879500 0.192000 -0.008660
v 0.874500 0.192000 0.000000
v 0.879500 0.192000 0.008660
v 0.889500 0.192000 0.008660
v 0.914500 0.168000 0.000000
v 0.905713 0.168000 -0.021213
v 0.884500 0.168000 -0.030000
v 0.863287 0.168000 -0.021213
v 0.854500 0.168000 0.000000
v 0.863287 0.168000 0.021213
v 0.884500 0.168000 0.030000
v 0.905713 0.168000 0.021213
v 0.904500 0.186000 0.000000
v 0.894500 0.186000 -0.017321
v 0.874500 0.186000 -0.017321
v 0.864500 0.186000 0.000000
v 0.874500 0.186000 0.017321
v 0.894500 0.186000 0.017321
v 0.902500 0.189000 0.000000
v 0.893500 0.189000 -0.015588
v 0.875500 0.189000 -0.015588
v 0.866500 0.189000 0.000000
v 0.875500 0.189000 0.015588
v 0.893500 0.189000 0.015588
v 0.821500 0.099422 -0.300000
v 0.821500 0.108000 -0.300000
v 0.821500 0.108000 0.300000
v 0.821500 0.099422 0.300000
v 0.815500 0.113000 -0.300000
v 0.815500 0.113000 0.300000
v 0.777500 0.124000 -0.300000
v 0.777500 0.124000 0.300000
v 0.763500 0.134000 -0.300000
v 0.763500 0.134000 0.300000
v 0.760500 0.145000 -0.300000
v 0.760500 0.145000 0.300000
v 0.760500 0.207000 -0.300000
v 0.760500 0.207000 0.300000
v 0.764500 0.219000 -0.300000
v 0.764500 0.219000 0.300000
v 0.778500 0.225000 -0.300000
v 0.778500 0.225000 0.300000
v 0.784500 0.231000 -0.300000
v 0.784500 0.231000 0.300000
v 0.785500 0.239000 -0.300000
v 0.785500 0.239000 0.300000
v 0.785500 0.254000 -0.300000
v 0.785500 0.254000 0.300000
v 0.783500 0.260000 -0.300000
v 0.783500 0.260000 0.300000
v 0.777500 0.264280 -0.300000
v 0.777500 0.264280 0.300000
v 0.725500 0.264280 -0.300000
v 0.725500 0.264280 0.300000
v 0.719500 0.260000 -0.300000
v 0.719500 0.260000 0.300000
v 0.717500 0.254000 -0.300000
v 0.717500 0.254000 0.300000
v 0.717500 0.239000 -0.300000
v 0.717500 0.239000 0.300000
v 0.718500 0.231000 -0.300000
v 0.718500 0.231000 0.300000
v 0.724500 0.225000 -0.300000
v 0.724500 0.225000 0.300000
v 0.738500 0.219000 -0.300000
v 0.738500 0.219000 0.300000
v 0.742500 0.207000 -0.300000
v 0.742500 0.207000 0.300000
v 0.742500 0.145000 -0.300000
v 0.742500 0.145000 0.300000
v 0.739500 0.134000 -0.300000
v 0.739500 0.134000 0.300000
v 0.725500 0.124000 -0.300000
v 0.725500 0.124000 0.300000
v 0.687500 0.113000 -0.300000
v 0.687500 0.113000 0.300000
v 0.681500 0.108000 -0.300000
v 0.681500 0.108000 0.300000
v 0.681500 0.099422 -0.300000
v 0.681500 0.099422 0.300000
vt 0.01062500 0.49160448
vt 0.32937500 0.49160448
vt 0.32937500 0.01585821
vt 0.01062500 0.01585821
vt 0.61016000 0.31082090
vt 0.60837500 0.31566812
vt 0.60837500 0.47724233
vt 0.61016000 0.48208955
vt 0.65121500 0.48208955
vt 0.65300000 0.47724233
vt 0.65300000 0.31566812
vt 0.65121500 0.31082090
vt 0.34631696 0.01585821
vt 0.34062500 0.02278655
vt 0.34062500 0.48467613
vt 0.34631696 0.49160448
vt 0.57399554 0.49160448
vt 0.57968750 0.48467613
vt 0.57968750 0.02278655
vt 0.57399554 0.01585821
vt 0.61395312 0.02537313
vt 0.60837500 0.02697378
vt 0.60837500 0.19504115
vt 0.61395312 0.19664179
vt 0.64742188 0.19664179
vt 0.65300000 0.19504115
vt 0.65300000 0.02697378
vt 0.64742188 0.02537313
vt 0.34062500 0.49160448
vt 0.57968750 0.49160448
vt 0.57968750 0.01585821
vt 0.34062500 0.01585821
vt 0.57968750 0.25373134
vt 0.51992188 0.04772717
vt 0.40039062 0.04772717
vt 0.34062500 0.25373134
vt 0.40039062 0.45973552
vt 0.51992188 0.45973552
vt 0.54467761 0.08552964
vt 0.46015625 0.01585821
vt 0.37563489 0.08552964
vt 0.37563489 0.42193305
vt 0.46015625 0.49160448
vt 0.54467761 0.42193305
vt 0.01062500 0.50839552
vt 0.01062500 0.53314987
vt 0.32937500 0.53314987
vt 0.32937500 0.50839552
vt 0.01062500 0.54757884
vt 0.32937500 0.54757884
vt 0.01062500 0.57932257
vt 0.32937500 0.57932257
vt 0.01062500 0.60818052
vt 0.32937500 0.60818052
vt 0.01062500 0.63992425
vt 0.32937500 0.63992425
vt 0.01062500 0.81884350
vt 0.32937500 0.81884350
vt 0.01062500 0.85347303
vt 0.32937500 0.85347303
vt 0.01062500 0.87078779
vt 0.32937500 0.87078779
vt 0.01062500 0.88810256
vt 0.32937500 0.88810256
vt 0.01062500 0.91118891
vt 0.32937500 0.91118891
vt 0.01062500 0.95447583
vt 0.32937500 0.95447583
vt 0.01062500 0.97179059
vt 0.32937500 0.97179059
vt 0.34062500 0.97014925
vt 0.34062500 0.92817164
vt 0.65937500 0.92817164
vt 0.65937500 0.97014925
vt 0.34062500 0.56436567
vt 0.65937500 0.56436567
vt 0.34062500 0.52238806
vt 0.65937500 0.52238806
vt 0.01062500 0.57500000
vt 0.32937500 0.57500000
vt 0.98937500 0.50839552
vt 0.67062500 0.50839552
vt 0.67062500 0.53314987
vt 0.68428571 0.54757884
vt 0.77080357 0.57932257
vt 0.80267857 0.60818052
vt 0.80040179 0.85347303
vt 0.76852679 0.87078779
vt 0.75486607 0.88810256
vt 0.75258929 0.91118891
vt 0.75258929 0.95447583
vt 0.75714286 0.97179059
vt 0.77080357 0.98414179
vt 0.80950893 0.81884350
vt 0.88919643 0.98414179
vt 0.90285714 0.97179059
vt 0.90741071 0.95447583
vt 0.90741071 0.91118891
vt 0.90513393 0.88810256
vt 0.89147321 0.87078779
vt 0.85959821 0.85347303
vt 0.85049107 0.81884350
vt 0.80950893 0.63992425
vt 0.85049107 0.63992425
vt 0.85732143 0.60818052
vt 0.88919643 0.57932257
vt 0.97571429 0.54757884
vt 0.98937500 0.53314987
vn -0.00000000 1.00000000 0.00000000
vn 0.00000000 0.00000000 -1.00000000
vn 1.00000000 0.00000000 -0.00000000
vn 0.00000000 0.00000000 1.00000000
vn -1.00000000 0.00000000 -0.00000000
vn -0.18589167 0.98257025 0.00000000
vn -0.20695859 0.97834970 0.00000000
vn 0.18589167 0.98257025 0.00000000
vn 0.20695859 0.97834970 0.00000000
vn 0.64018440 0.76822128 0.00000000
vn 0.27805808 0.96056426 0.00000000
vn 0.58123819 0.81373347 0.00000000
vn 0.96476382 0.26311741 0.00000000
vn 0.94868330 -0.31622777 0.00000000
vn 0.39391930 -0.91914503 0.00000000
vn 0.70710678 -0.70710678 0.00000000
vn 0.99227788 -0.12403473 0.00000000
vn 0.94868330 0.31622777 0.00000000
vn 0.58072468 0.81410002 0.00000000
vn -0.58072468 0.81410002 0.00000000
vn -0.94868330 0.31622777 0.00000000
vn -0.99227788 -0.12403473 0.00000000
vn -0.70710678 -0.70710678 0.00000000
vn -0.39391930 -0.91914503 0.00000000
vn -0.94868330 -0.31622777 0.00000000
vn -0.96476382 0.26311741 0.00000000
vn -0.58123819 0.81373347 0.00000000
vn -0.27805808 0.96056426 0.00000000
vn -0.64018440 0.76822128 0.00000000
vn 0.00000000 -1.00000000 0.00000000
g direct_bearer
usemtl mat
f 1/1/1 2/2/1 3/3/1 4/4/1
f 4/1/2 3/2/2 5/3/2 6/4/2
f 3/1/3 2/2/3 7/3/3 5/4/3
f 2/1/4 1/2/4 8/3/4 7/4/4
f 1/1/5 4/2/5 6/3/5 8/4/5
f 9/1/1 10/2/1 11/3/1 12/4/1
f 12/1/2 11/2/2 13/3/2 14/4/2
f 11/1/3 10/2/3 15/3/3 13/4/3
f 10/1/4 9/2/4 16/3/4 15/4/4
f 9/1/5 12/2/5 14/3/5 16/4/5
g fastener_left
usemtl mat
f 17/5/1 18/6/1 19/7/1
f 17/5/1 19/7/1 20/8/1
f 17/5/1 20/8/1 21/9/1
f 17/5/1 21/9/1 22/10/1
f 17/5/1 22/10/1 23/11/1
f 23/11/1 24/12/1 17/5/1
f 25/13/1 26/14/1 27/15/1
f 25/13/1 27/15/1 28/16/1
f 25/13/1 28/16/1 29/17/1
f 25/13/1 29/17/1 30/18/1
f 25/13/1 30/18/1 31/19/1
f 31/19/1 32/20/1 25/13/1
f 33/21/1 34/22/1 35/23/1
f 33/21/1 35/23/1 36/24/1
f 33/21/1 36/24/1 37/25/1
f 33/21/1 37/25/1 38/26/1
f 33/21/1 38/26/1 39/27/1
f 39/27/1 40/28/1 33/21/1
f 41/29/1 42/30/1 43/31/1 44/32/1
f 42/29/6 45/30/6 46/31/6 43/32/6
f 45/29/1 47/30/1 48/31/1 46/32/1
f 47/29/7 49/30/7 50/31/7 48/32/7
f 51/33/1 52/34/1 53/35/1
f 51/33/1 53/35/1 54/36/1
f 51/33/1 54/36/1 55/37/1
f 55/37/1 56/38/1 51/33/1
f 57/33/1 58/39/1 59/40/1
f 57/33/1 59/40/1 60/41/1
f 57/33/1 60/41/1 61/36/1
f 57/33/1 61/36/1 62/42/1
f 57/33/1 62/42/1 63/43/1
f 63/43/1 64/44/1 57/33/1
f 65/33/1 66/34/1 67/35/1
f 65/33/1 67/35/1 68/36/1
f 65/33/1 68/36/1 69/37/1
f 69/37/1 70/38/1 65/33/1
f 71/33/1 72/34/1 73/35/1
f 71/33/1 73/35/1 74/36/1
f 71/33/1 74/36/1 75/37/1
f 75/37/1 76/38/1 71/33/1
f 77/13/1 78/14/1 79/15/1
f 77/13/1 79/15/1 80/16/1
f 77/13/1 80/16/1 81/17/1
f 77/13/1 81/17/1 82/18/1
f 77/13/1 82/18/1 83/19/1
f 83/19/1 84/20/1 77/13/1
f 85/21/1 86/22/1 87/23/1
f 85/21/1 87/23/1 88/24/1
f 85/21/1 88/24/1 89/25/1
f 85/21/1 89/25/1 90/26/1
f 85/21/1 90/26/1 91/27/1
f 91/27/1 92/28/1 85/21/1
f 93/32/1 94/31/1 95/30/1 96/29/1
f 94/32/8 97/31/8 98/30/8 95/29/8
f 97/32/1 99/31/1 100/30/1 98/29/1
f 99/32/9 101/31/9 102/30/9 100/29/9
f 103/33/1 104/34/1 105/35/1
f 103/33/1 105/35/1 106/36/1
f 103/33/1 106/36/1 107/37/1
f 107/37/1 108/38/1 103/33/1
f 109/33/1 110/39/1 111/40/1
f 109/33/1 111/40/1 112/41/1
f 109/33/1 112/41/1 113/36/1
f 109/33/1 113/36/1 114/42/1
f 109/33/1 114/42/1 115/43/1
f 115/43/1 116/44/1 109/33/1
f 117/33/1 118/34/1 119/35/1
f 117/33/1 119/35/1 120/36/1
f 117/33/1 120/36/1 121/37/1
f 121/37/1 122/38/1 117/33/1
f 123/33/1 124/34/1 125/35/1
f 123/33/1 125/35/1 126/36/1
f 123/33/1 126/36/1 127/37/1
f 127/37/1 128/38/1 123/33/1
g rail_left
usemtl mat
f 129/45/3 130/46/3 131/47/3 132/48/3
f 130/46/10 133/49/10 134/50/10 131/47/10
f 133/49/11 135/51/11 136/52/11 134/50/11
f 135/51/12 137/53/12 138/54/12 136/52/12
f 137/53/13 139/55/13 140/56/13 138/54/13
f 139/55/3 141/57/3 142/58/3 140/56/3
f 141/57/14 143/59/14 144/60/14 142/58/14
f 143/59/15 145/61/15 146/62/15 144/60/15
f 145/61/16 147/63/16 148/64/16 146/62/16
f 147/63/17 149/65/17 150/66/17 148/64/17
f 149/65/3 151/67/3 152/68/3 150/66/3
f 151/67/18 153/69/18 154/70/18 152/68/18
f 153/71/19 155/72/19 156/73/19 154/74/19
f 155/72/1 157/75/1 158/76/1 156/73/1
f 157/75/20 159/77/20 160/78/20 158/76/20
f 159/69/21 161/67/21 162/68/21 160/70/21
f 161/67/5 163/65/5 164/66/5 162/68/5
f 163/65/22 165/63/22 166/64/22 164/66/22
f 165/63/23 167/61/23 168/62/23 166/64/23
f 167/61/24 169/59/24 170/60/24 168/62/24
f 169/59/25 171/57/25 172/58/25 170/60/25
f 171/57/5 173/55/5 174/56/5 172/58/5
f 173/55/26 175/53/26 176/54/26 174/56/26
f 175/53/27 177/51/27 178/52/27 176/54/27
f 177/51/28 179/49/28 180/50/28 178/52/28
f 179/49/29 181/46/29 182/47/29 180/50/29
f 181/46/5 183/45/5 184/48/5 182/47/5
f 183/45/30 129/79/30 132/80/30 184/48/30
g rail_left_end
usemtl mat
f 129/81/2 183/82/2 181/83/2
f 129/81/2 181/83/2 179/84/2
f 129/81/2 179/84/2 177/85/2
f 129/81/2 177/85/2 175/86/2
f 169/87/2 167/88/2 165/89/2
f 169/87/2 165/89/2 163/90/2
f 169/87/2 163/90/2 161/91/2
f 169/87/2 161/91/2 159/92/2
f 169/87/2 159/92/2 157/93/2
f 171/94/2 169/87/2 157/93/2
f 171/94/2 157/93/2 155/95/2
f 171/94/2 155/95/2 153/96/2
f 171/94/2 153/96/2 151/97/2
f 171/94/2 151/97/2 149/98/2
f 171/94/2 149/98/2 147/99/2
f 147/99/2 145/100/2 143/101/2
f 171/94/2 147/99/2 143/101/2
f 171/94/2 143/101/2 141/102/2
f 173/103/2 171/94/2 141/102/2
f 175/86/2 173/103/2 141/102/2
f 175/86/2 141/102/2 139/104/2
f 175/86/2 139/104/2 137/105/2
f 175/86/2 137/105/2 135/106/2
f 129/81/2 175/86/2 135/106/2
f 129/81/2 135/106/2 133/107/2
f 133/107/2 130/108/2 129/81/2
f 184/82/4 132/81/4 131/108/4
f 184/82/4 131/108/4 134/107/4
f 184/82/4 134/107/4 136/106/4
f 184/82/4 136/106/4 138/105/4
f 144/101/4 146/100/4 148/99/4
f 144/101/4 148/99/4 150/98/4
f 144/101/4 150/98/4 152/97/4
f 144/101/4 152/97/4 154/96/4
f 144/101/4 154/96/4 156/95/4
f 142/102/4 144/101/4 156/95/4
f 142/102/4 156/95/4 158/93/4
f 142/102/4 158/93/4 160/92/4
f 142/102/4 160/92/4 162/91/4
f 142/102/4 162/91/4 164/90/4
f 142/102/4 164/90/4 166/89/4
f 166/89/4 168/88/4 170/87/4
f 142/102/4 166/89/4 170/87/4
f 142/102/4 170/87/4 172/94/4
f 140/104/4 142/102/4 172/94/4
f 138/105/4 140/104/4 172/94/4
f 138/105/4 172/94/4 174/103/4
f 138/105/4 174/103/4 176/86/4
f 138/105/4 176/86/4 178/85/4
f 184/82/4 138/105/4 178/85/4
f 184/82/4 178/85/4 180/84/4
f 180/84/4 182/83/4 184/82/4
g fastener_right
usemtl mat
f 185/5/1 186/6/1 187/7/1
f 185/5/1 187/7/1 188/8/1
f 185/5/1 188/8/1 189/9/1
f 185/5/1 189/9/1 190/10/1
f 185/5/1 190/10/1 191/11/1
f 191/11/1 192/12/1 185/5/1
f 193/13/1 194/14/1 195/15/1
f 193/13/1 195/15/1 196/16/1
f 193/13/1 196/16/1 197/17/1
f 193/13/1 197/17/1 198/18/1
f 193/13/1 198/18/1 199/19/1
f 199/19/1 200/20/1 193/13/1
f 201/21/1 202/22/1 203/23/1
f 201/21/1 203/23/1 204/24/1
f 201/21/1 204/24/1 205/25/1
f 201/21/1 205/25/1 206/26/1
f 201/21/1 206/26/1 207/27/1
f 207/27/1 208/28/1 201/21/1
f 209/29/1 210/30/1 211/31/1 212/32/1
f 210/29/6 213/30/6 214/31/6 211/32/6
f 213/29/1 215/30/1 216/31/1 214/32/1
f 215/29/7 217/30/7 218/31/7 216/32/7
f 219/33/1 220/34/1 221/35/1
f 219/33/1 221/35/1 222/36/1
f 219/33/1 222/36/1 223/37/1
f 223/37/1 224/38/1 219/33/1
f 225/33/1 226/39/1 227/40/1
f 225/33/1 227/40/1 228/41/1
f 225/33/1 228/41/1 229/36/1
f 225/33/1 229/36/1 230/42/1
f 225/33/1 230/42/1 231/43/1
f 231/43/1 232/44/1 225/33/1
f 233/33/1 234/34/1 235/35/1
f 233/33/1 235/35/1 236/36/1
f 233/33/1 236/36/1 237/37/1
f 237/37/1 238/38/1 233/33/1
f 239/33/1 240/34/1 241/35/1
f 239/33/1 241/35/1 242/36/1
f 239/33/1 242/36/1 243/37/1
f 243/37/1 244/38/1 239/33/1
f 245/13/1 246/14/1 247/15/1
f 245/13/1 247/15/1 248/16/1
f 245/13/1 248/16/1 249/17/1
f 245/13/1 249/17/1 250/18/1
f 245/13/1 250/18/1 251/19/1
f 251/19/1 252/20/1 245/13/1
f 253/21/1 254/22/1 255/23/1
f 253/21/1 255/23/1 256/24/1
f 253/21/1 256/24/1 257/25/1
f 253/21/1 257/25/1 258/26/1
f 253/21/1 258/26/1 259/27/1
f 259/27/1 260/28/1 253/21/1
f 261/32/1 262/31/1 263/30/1 264/29/1
f 262/32/8 265/31/8 266/30/8 263/29/8
f 265/32/1 267/31/1 268/30/1 266/29/1
f 267/32/9 269/31/9 270/30/9 268/29/9
f 271/33/1 272/34/1 273/35/1
f 271/33/1 273/35/1 274/36/1
f 271/33/1 274/36/1 275/37/1
f 275/37/1 276/38/1 271/33/1
f 277/33/1 278/39/1 279/40/1
f 277/33/1 279/40/1 280/41/1
f 277/33/1 280/41/1 281/36/1
f 277/33/1 281/36/1 282/42/1
f 277/33/1 282/42/1 283/43/1
f 283/43/1 284/44/1 277/33/1
f 285/33/1 286/34/1 287/35/1
f 285/33/1 287/35/1 288/36/1
f 285/33/1 288/36/1 289/37/1
f 289/37/1 290/38/1 285/33/1
f 291/33/1 292/34/1 293/35/1
f 291/33/1 293/35/1 294/36/1
f 291/33/1 294/36/1 295/37/1
f 295/37/1 296/38/1 291/33/1
g rail_right
usemtl mat
f 297/45/3 298/46/3 299/47/3 300/48/3
f 298/46/10 301/49/10 302/50/10 299/47/10
f 301/49/11 303/51/11 304/52/11 302/50/11
f 303/51/12 305/53/12 306/54/12 304/52/12
f 305/53/13 307/55/13 308/56/13 306/54/13
f 307/55/3 309/57/3 310/58/3 308/56/3
f 309/57/14 311/59/14 312/60/14 310/58/14
f 311/59/15 313/61/15 314/62/15 312/60/15
f 313/61/16 315/63/16 316/64/16 314/62/16
f 315/63/17 317/65/17 318/66/17 316/64/17
f 317/65/3 319/67/3 320/68/3 318/66/3
f 319/67/18 321/69/18 322/70/18 320/68/18
f 321/71/19 323/72/19 324/73/19 322/74/19
f 323/72/1 325/75/1 326/76/1 324/73/1
f 325/75/20 327/77/20 328/78/20 326/76/20
f 327/69/21 329/67/21 330/68/21 328/70/21
f 329/67/5 331/65/5 332/66/5 330/68/5
f 331/65/22 333/63/22 334/64/22 332/66/22
f 333/63/23 335/61/23 336/62/23 334/64/23
f 335/61/24 337/59/24 338/60/24 336/62/24
f 337/59/25 339/57/25 340/58/25 338/60/25
f 339/57/5 341/55/5 342/56/5 340/58/5
f 341/55/26 343/53/26 344/54/26 342/56/26
f 343/53/27 345/51/27 346/52/27 344/54/27
f 345/51/28 347/49/28 348/50/28 346/52/28
f 347/49/29 349/46/29 350/47/29 348/50/29
f 349/46/5 351/45/5 352/48/5 350/47/5
f 351/45/30 297/79/30 300/80/30 352/48/30
g rail_right_end
usemtl mat
f 297/81/2 351/82/2 349/83/2
f 297/81/2 349/83/2 347/84/2
f 297/81/2 347/84/2 345/85/2
f 297/81/2 345/85/2 343/86/2
f 337/87/2 335/88/2 333/89/2
f 337/87/2 333/89/2 331/90/2
f 337/87/2 331/90/2 329/91/2
f 337/87/2 329/91/2 327/92/2
f 337/87/2 327/92/2 325/93/2
f 339/94/2 337/87/2 325/93/2
f 339/94/2 325/93/2 323/95/2
f 339/94/2 323/95/2 321/96/2
f 339/94/2 321/96/2 319/97/2
f 339/94/2 319/97/2 317/98/2
f 339/94/2 317/98/2 315/99/2
f 315/99/2 313/100/2 311/101/2
f 339/94/2 315/99/2 311/101/2
f 339/94/2 311/101/2 309/102/2
f 341/103/2 339/94/2 309/102/2
f 343/86/2 341/103/2 309/102/2
f 343/86/2 309/102/2 307/104/2
f 343/86/2 307/104/2 305/105/2
f 343/86/2 305/105/2 303/106/2
f 297/81/2 343/86/2 303/106/2
f 297/81/2 303/106/2 301/107/2
f 301/107/2 298/108/2 297/81/2
f 352/82/4 300/81/4 299/108/4
f 352/82/4 299/108/4 302/107/4
f 352/82/4 302/107/4 304/106/4
f 352/82/4 304/106/4 306/105/4
f 312/101/4 314/100/4 316/99/4
f 312/101/4 316/99/4 318/98/4
f 312/101/4 318/98/4 320/97/4
f 312/101/4 320/97/4 322/96/4
f 312/101/4 322/96/4 324/95/4
f 310/102/4 312/101/4 324/95/4
f 310/102/4 324/95/4 326/93/4
f 310/102/4 326/93/4 328/92/4
f 310/102/4 328/92/4 330/91/4
f 310/102/4 330/91/4 332/90/4
f 310/102/4 332/90/4 334/89/4
f 334/89/4 336/88/4 338/87/4
f 310/102/4 334/89/4 338/87/4
f 310/102/4 338/87/4 340/94/4
f 308/104/4 310/102/4 340/94/4
f 306/105/4 308/104/4 340/94/4
f 306/105/4 340/94/4 342/103/4
f 306/105/4 342/103/4 344/86/4
f 306/105/4 344/86/4 346/85/4
f 352/82/4 306/105/4 346/85/4
f 352/82/4 346/85/4 348/84/4
f 348/84/4 350/83/4 352/82/4
