# metres; Y up; CCW outward; repeat 0.6 m
mtllib outer_guard_mid.mtl
v -1.850000 -0.304000 -0.300000
v -1.850000 -0.304000 0.000000
v -1.800000 -0.258131 0.000000
v -1.800000 -0.258885 -0.300000
v -1.850000 -0.304000 0.300000
v -1.800000 -0.258885 0.300000
v -1.783750 -0.243412 0.000000
v -1.783750 -0.244412 -0.300000
v -1.783750 -0.244412 0.300000
v -1.717500 -0.185387 0.000000
v -1.717500 -0.187387 -0.300000
v -1.717500 -0.187387 0.300000
v -1.651250 -0.132099 0.000000
v -1.651250 -0.135099 -0.300000
v -1.651250 -0.135099 0.300000
v -1.585000 -0.085000 0.000000
v -1.585000 -0.089000 -0.300000
v -1.585000 -0.089000 0.300000
v -1.518750 -0.044599 0.000000
v -1.518750 -0.049599 -0.300000
v -1.518750 -0.049599 0.300000
v -1.452500 -0.010387 0.000000
v -1.452500 -0.016387 -0.300000
v -1.452500 -0.016387 0.300000
v -1.386250 0.019088 0.000000
v -1.386250 0.012088 -0.300000
v -1.386250 0.012088 0.300000
v -1.414374 0.000000 -0.300000
v -1.386250 0.000000 -0.300000
v -1.386250 0.000000 0.300000
v -1.414374 0.000000 0.300000
v -1.320000 0.046000 0.000000
v -1.320000 0.038000 -0.300000
v -1.320000 0.038000 0.300000
v -1.320000 0.000000 -0.300000
v -1.320000 0.000000 0.300000
v -1.200000 0.034000 0.000000
v -1.200000 0.026000 -0.300000
v -1.200000 0.026000 0.300000
v -1.200000 0.000000 -0.300000
v -1.200000 0.000000 0.300000
v -0.600000 0.034000 0.000000
v -0.600000 0.026000 -0.300000
v -0.600000 0.026000 0.300000
v -0.600000 0.000000 -0.300000
v -0.600000 0.000000 0.300000
v 0.000000 0.034000 0.000000
v 0.000000 0.026000 -0.300000
v 0.000000 0.026000 0.300000
v 0.000000 0.000000 -0.300000
v 0.000000 0.000000 0.300000
v 0.600000 0.034000 0.000000
v 0.600000 0.026000 -0.300000
v 0.600000 0.026000 0.300000
v 0.600000 0.000000 -0.300000
v 0.600000 0.000000 0.300000
v 1.200000 0.034000 0.000000
v 1.200000 0.026000 -0.300000
v 1.200000 0.026000 0.300000
v 1.200000 0.000000 -0.300000
v 1.200000 0.000000 0.300000
v 1.320000 0.046000 0.000000
v 1.320000 0.038000 -0.300000
v 1.320000 0.038000 0.300000
v 1.320000 0.000000 -0.300000
v 1.320000 0.000000 0.300000
v 1.386250 0.019088 0.000000
v 1.386250 0.012088 -0.300000
v 1.386250 0.012088 0.300000
v 1.386250 0.000000 -0.300000
v 1.386250 0.000000 0.300000
v 1.452500 -0.010387 0.000000
v 1.452500 -0.016387 -0.300000
v 1.452500 -0.016387 0.300000
v 1.414374 0.000000 -0.300000
v 1.414374 0.000000 0.300000
v 1.518750 -0.044599 0.000000
v 1.518750 -0.049599 -0.300000
v 1.518750 -0.049599 0.300000
v 1.585000 -0.085000 0.000000
v 1.585000 -0.089000 -0.300000
v 1.585000 -0.089000 0.300000
v 1.651250 -0.132099 0.000000
v 1.651250 -0.135099 -0.300000
v 1.651250 -0.135099 0.300000
v 1.717500 -0.185387 0.000000
v 1.717500 -0.187387 -0.300000
v 1.717500 -0.187387 0.300000
v 1.783750 -0.243412 0.000000
v 1.783750 -0.244412 -0.300000
v 1.783750 -0.244412 0.300000
v 1.800000 -0.258131 0.000000
v 1.800000 -0.258885 -0.300000
v 1.800000 -0.258885 0.300000
v 1.850000 -0.304000 0.000000
v 1.850000 -0.304000 -0.300000
v 1.850000 -0.304000 0.300000
v -1.250000 0.065422 0.096000
v -1.220000 0.066547 0.096000
v -1.220000 0.074547 0.086000
v -1.250000 0.073422 0.086000
v -1.220000 0.074547 -0.086000
v -1.250000 0.073422 -0.086000
v -1.220000 0.066547 -0.096000
v -1.250000 0.065422 -0.096000
v -1.200000 0.067297 0.111000
v -1.200000 0.075297 0.101000
v -1.200000 0.075297 -0.101000
v -1.200000 0.067297 -0.111000
v -0.930000 0.077422 0.111000
v -0.930000 0.085422 0.101000
v -0.930000 0.085422 -0.101000
v -0.930000 0.077422 -0.111000
v -0.751500 0.077422 0.111000
v -0.751500 0.085422 0.101000
v -0.751500 0.085422 -0.101000
v -0.751500 0.077422 -0.111000
v -0.600000 0.077422 0.111000
v -0.600000 0.085422 0.101000
v -0.600000 0.085422 -0.101000
v -0.600000 0.077422 -0.111000
v -0.530000 0.077422 0.111000
v -0.530000 0.085422 0.101000
v -0.530000 0.085422 -0.101000
v -0.530000 0.077422 -0.111000
v -0.400000 0.072463 0.111000
v -0.400000 0.080463 0.101000
v -0.400000 0.080463 -0.101000
v -0.400000 0.072463 -0.111000
v -0.270000 0.060387 0.111000
v -0.270000 0.068387 0.101000
v -0.270000 0.068387 -0.101000
v -0.270000 0.060387 -0.111000
v -0.130000 0.047270 0.111000
v -0.130000 0.055270 0.101000
v -0.130000 0.055270 -0.101000
v -0.130000 0.047270 -0.111000
v 0.000000 0.042311 0.111000
v 0.000000 0.050311 0.101000
v 0.000000 0.050311 -0.101000
v 0.000000 0.042311 -0.111000
v 0.130000 0.047270 0.111000
v 0.130000 0.055270 0.101000
v 0.130000 0.055270 -0.101000
v 0.130000 0.047270 -0.111000
v 0.270000 0.060387 0.111000
v 0.270000 0.068387 0.101000
v 0.270000 0.068387 -0.101000
v 0.270000 0.060387 -0.111000
v 0.400000 0.072463 0.111000
v 0.400000 0.080463 0.101000
v 0.400000 0.080463 -0.101000
v 0.400000 0.072463 -0.111000
v 0.530000 0.077422 0.111000
v 0.530000 0.085422 0.101000
v 0.530000 0.085422 -0.101000
v 0.530000 0.077422 -0.111000
v 0.600000 0.077422 0.111000
v 0.600000 0.085422 0.101000
v 0.600000 0.085422 -0.101000
v 0.600000 0.077422 -0.111000
v 0.751500 0.077422 0.111000
v 0.751500 0.085422 0.101000
v 0.751500 0.085422 -0.101000
v 0.751500 0.077422 -0.111000
v 0.930000 0.077422 0.111000
v 0.930000 0.085422 0.101000
v 0.930000 0.085422 -0.101000
v 0.930000 0.077422 -0.111000
v 1.200000 0.067297 0.111000
v 1.200000 0.075297 0.101000
v 1.200000 0.075297 -0.101000
v 1.200000 0.067297 -0.111000
v 1.220000 0.066547 0.096000
v 1.220000 0.074547 0.086000
v 1.220000 0.074547 -0.086000
v 1.220000 0.066547 -0.096000
v 1.250000 0.065422 0.096000
v 1.250000 0.073422 0.086000
v 1.250000 0.073422 -0.086000
v 1.250000 0.065422 -0.096000
v -0.820500 0.099422 -0.106000
v -0.826500 0.099422 -0.100000
v -0.826500 0.099422 0.100000
v -0.820500 0.099422 0.106000
v -0.790700 0.099422 0.106000
v -0.790700 0.099422 -0.060220
v -0.790700 0.099422 -0.063369
v -0.790700 0.099422 -0.104758
v -0.790700 0.099422 -0.106000
v -0.943500 0.095422 -0.103000
v -0.946500 0.095422 -0.100000
v -0.946500 0.095422 0.100000
v -0.943500 0.095422 0.103000
v -0.823500 0.095422 0.103000
v -0.820500 0.095422 0.100000
v -0.820500 0.095422 -0.100000
v -0.823500 0.095422 -0.103000
v -0.948500 0.126422 -0.107000
v -0.950500 0.126422 -0.105000
v -0.950500 0.126422 0.105000
v -0.948500 0.126422 0.107000
v -0.936500 0.126422 0.107000
v -0.934500 0.126422 0.105000
v -0.934500 0.126422 -0.105000
v -0.936500 0.126422 -0.107000
v -0.939500 0.109500 0.105000
v -0.901500 0.109500 0.105000
v -0.901500 0.109500 -0.105000
v -0.939500 0.109500 -0.105000
v -0.827500 0.123500 0.105000
v -0.827500 0.123500 -0.105000
v -0.819500 0.123500 0.105000
v -0.819500 0.123500 -0.105000
v -0.793500 0.129000 0.105000
v -0.793500 0.129000 -0.105000
v -0.874500 0.192000 0.000000
v -0.879500 0.192000 -0.008660
v -0.889500 0.192000 -0.008660
v -0.894500 0.192000 0.000000
v -0.889500 0.192000 0.008660
v -0.879500 0.192000 0.008660
v -0.854500 0.168000 0.000000
v -0.863287 0.168000 -0.021213
v -0.884500 0.168000 -0.030000
v -0.905713 0.168000 -0.021213
v -0.914500 0.168000 0.000000
v -0.905713 0.168000 0.021213
v -0.884500 0.168000 0.030000
v -0.863287 0.168000 0.021213
v -0.864500 0.186000 0.000000
v -0.874500 0.186000 -0.017321
v -0.894500 0.186000 -0.017321
v -0.904500 0.186000 0.000000
v -0.894500 0.186000 0.017321
v -0.874500 0.186000 0.017321
v -0.866500 0.189000 0.000000
v -0.875500 0.189000 -0.015588
v -0.893500 0.189000 -0.015588
v -0.902500 0.189000 0.000000
v -0.893500 0.189000 0.015588
v -0.875500 0.189000 0.015588
v -0.681500 0.099422 -0.300000
v -0.681500 0.108000 -0.300000
v -0.681500 0.108000 0.300000
v -0.681500 0.099422 0.300000
v -0.687500 0.113000 -0.300000
v -0.687500 0.113000 0.300000
v -0.725500 0.124000 -0.300000
v -0.725500 0.124000 0.300000
v -0.739500 0.134000 -0.300000
v -0.739500 0.134000 0.300000
v -0.742500 0.145000 -0.300000
v -0.742500 0.145000 0.300000
v -0.742500 0.207000 -0.300000
v -0.742500 0.207000 0.300000
v -0.738500 0.219000 -0.300000
v -0.738500 0.219000 0.300000
v -0.724500 0.225000 -0.300000
v -0.724500 0.225000 0.300000
v -0.718500 0.231000 -0.300000
v -0.718500 0.231000 0.300000
v -0.717500 0.239000 -0.300000
v -0.717500 0.239000 0.300000
v -0.717500 0.254000 -0.300000
v -0.717500 0.254000 0.300000
v -0.719500 0.260000 -0.300000
v -0.719500 0.260000 0.300000
v -0.725500 0.264280 -0.300000
v -0.725500 0.264280 0.300000
v -0.777500 0.264280 -0.300000
v -0.777500 0.264280 0.300000
v -0.783500 0.260000 -0.300000
v -0.783500 0.260000 0.300000
v -0.785500 0.254000 -0.300000
v -0.785500 0.254000 0.300000
v -0.785500 0.239000 -0.300000
v -0.785500 0.239000 0.300000
v -0.784500 0.231000 -0.300000
v -0.784500 0.231000 0.300000
v -0.778500 0.225000 -0.300000
v -0.778500 0.225000 0.300000
v -0.764500 0.219000 -0.300000
v -0.764500 0.219000 0.300000
v -0.760500 0.207000 -0.300000
v -0.760500 0.207000 0.300000
v -0.760500 0.145000 -0.300000
v -0.760500 0.145000 0.300000
v -0.763500 0.134000 -0.300000
v -0.763500 0.134000 0.300000
v -0.777500 0.124000 -0.300000
v -0.777500 0.124000 0.300000
v -0.815500 0.113000 -0.300000
v -0.815500 0.113000 0.300000
v -0.821500 0.108000 -0.300000
v -0.821500 0.108000 0.300000
v -0.821500 0.099422 -0.300000
v -0.821500 0.099422 0.300000
v 0.790700 0.099422 0.106000
v 0.820500 0.099422 0.106000
v 0.790700 0.099422 0.060220
v 0.826500 0.099422 0.100000
v 0.790700 0.099422 0.048786
v 0.826500 0.099422 -0.100000
v 0.790700 0.099422 -0.101492
v 0.820500 0.099422 -0.106000
v 0.790700 0.099422 -0.106000
v 0.823500 0.095422 -0.103000
v 0.820500 0.095422 -0.100000
v 0.820500 0.095422 0.100000
v 0.823500 0.095422 0.103000
v 0.943500 0.095422 0.103000
v 0.946500 0.095422 0.100000
v 0.946500 0.095422 -0.100000
v 0.943500 0.095422 -0.103000
v 0.936500 0.126422 -0.107000
v 0.934500 0.126422 -0.105000
v 0.934500 0.126422 0.105000
v 0.936500 0.126422 0.107000
v 0.948500 0.126422 0.107000
v 0.950500 0.126422 0.105000
v 0.950500 0.126422 -0.105000
v 0.948500 0.126422 -0.107000
v 0.939500 0.109500 -0.105000
v 0.901500 0.109500 -0.105000
v 0.901500 0.109500 0.105000
v 0.939500 0.109500 0.105000
v 0.827500 0.123500 -0.105000
v 0.827500 0.123500 0.105000
v 0.819500 0.123500 -0.105000
v 0.819500 0.123500 0.105000
v 0.793500 0.129000 -0.105000
v 0.793500 0.129000 0.105000
v 0.894500 0.192000 0.000000
v 0.889500 0.192000 -0.008660
v 0.879500 0.192000 -0.008660
v 0.874500 0.192000 0.000000
v 0.879500 0.192000 0.008660
v 0.889500 0.192000 0.008660
v 0.914500 0.168000 0.000000
v 0.905713 0.168000 -0.021213
v 0.884500 0.168000 -0.030000
v 0.863287 0.168000 -0.021213
v 0.854500 0.168000 0.000000
v 0.863287 0.168000 0.021213
v 0.884500 0.168000 0.030000
v 0.905713 0.168000 0.021213
v 0.904500 0.186000 0.000000
v 0.894500 0.186000 -0.017321
v 0.874500 0.186000 -0.017321
v 0.864500 0.186000 0.000000
v 0.874500 0.186000 0.017321
v 0.894500 0.186000 0.017321
v 0.902500 0.189000 0.000000
v 0.893500 0.189000 -0.015588
v 0.875500 0.189000 -0.015588
v 0.866500 0.189000 0.000000
v 0.875500 0.189000 0.015588
v 0.893500 0.189000 0.015588
v 0.821500 0.099422 -0.300000
v 0.821500 0.108000 -0.300000
v 0.821500 0.108000 0.300000
v 0.821500 0.099422 0.300000
v 0.815500 0.113000 -0.300000
v 0.815500 0.113000 0.300000
v 0.777500 0.124000 -0.300000
v 0.777500 0.124000 0.300000
v 0.763500 0.134000 -0.300000
v 0.763500 0.134000 0.300000
v 0.760500 0.145000 -0.300000
v 0.760500 0.145000 0.300000
v 0.760500 0.207000 -0.300000
v 0.760500 0.207000 0.300000
v 0.764500 0.219000 -0.300000
v 0.764500 0.219000 0.300000
v 0.778500 0.225000 -0.300000
v 0.778500 0.225000 0.300000
v 0.784500 0.231000 -0.300000
v 0.784500 0.231000 0.300000
v 0.785500 0.239000 -0.300000
v 0.785500 0.239000 0.300000
v 0.785500 0.254000 -0.300000
v 0.785500 0.254000 0.300000
v 0.783500 0.260000 -0.300000
v 0.783500 0.260000 0.300000
v 0.777500 0.264280 -0.300000
v 0.777500 0.264280 0.300000
v 0.725500 0.264280 -0.300000
v 0.725500 0.264280 0.300000
v 0.719500 0.260000 -0.300000
v 0.719500 0.260000 0.300000
v 0.717500 0.254000 -0.300000
v 0.717500 0.254000 0.300000
v 0.717500 0.239000 -0.300000
v 0.717500 0.239000 0.300000
v 0.718500 0.231000 -0.300000
v 0.718500 0.231000 0.300000
v 0.724500 0.225000 -0.300000
v 0.724500 0.225000 0.300000
v 0.738500 0.219000 -0.300000
v 0.738500 0.219000 0.300000
v 0.742500 0.207000 -0.300000
v 0.742500 0.207000 0.300000
v 0.742500 0.145000 -0.300000
v 0.742500 0.145000 0.300000
v 0.739500 0.134000 -0.300000
v 0.739500 0.134000 0.300000
v 0.725500 0.124000 -0.300000
v 0.725500 0.124000 0.300000
v 0.687500 0.113000 -0.300000
v 0.687500 0.113000 0.300000
v 0.681500 0.108000 -0.300000
v 0.681500 0.108000 0.300000
v 0.681500 0.099422 -0.300000
v 0.681500 0.099422 0.300000
v -0.961500 0.099422 0.108000
v -0.428500 0.099422 0.108000
v -0.428500 0.099422 -0.108000
v -0.961500 0.099422 -0.108000
v -0.615500 0.199422 0.080000
v -0.604500 0.199422 0.080000
v -0.604500 0.199422 -0.080000
v -0.615500 0.199422 -0.080000
v -0.483500 0.111422 -0.009000
v -0.604500 0.194422 -0.009000
v -0.604500 0.194422 0.009000
v -0.483500 0.111422 0.009000
v -0.456500 0.126422 0.000000
v -0.465000 0.126422 -0.014722
v -0.482000 0.126422 -0.014722
v -0.490500 0.126422 0.000000
v -0.482000 0.126422 0.014722
v -0.465000 0.126422 0.014722
v -0.558500 0.099422 -0.300000
v -0.558500 0.108000 -0.300000
v -0.558500 0.108000 0.300000
v -0.558500 0.099422 0.300000
v -0.564500 0.113000 -0.300000
v -0.564500 0.113000 0.300000
v -0.602500 0.124000 -0.300000
v -0.602500 0.124000 0.300000
v -0.616500 0.134000 -0.300000
v -0.616500 0.134000 0.300000
v -0.619500 0.145000 -0.300000
v -0.619500 0.145000 0.300000
v -0.619500 0.207000 -0.300000
v -0.619500 0.207000 0.300000
v -0.615500 0.219000 -0.300000
v -0.615500 0.219000 0.300000
v -0.601500 0.225000 -0.300000
v -0.601500 0.225000 0.300000
v -0.595500 0.231000 -0.300000
v -0.595500 0.231000 0.300000
v -0.594500 0.239000 -0.300000
v -0.594500 0.239000 0.300000
v -0.594500 0.254000 -0.300000
v -0.594500 0.254000 0.300000
v -0.596500 0.260000 -0.300000
v -0.596500 0.260000 0.300000
v -0.602500 0.264280 -0.300000
v -0.602500 0.264280 0.300000
v -0.654500 0.264280 -0.300000
v -0.654500 0.264280 0.300000
v -0.660500 0.260000 -0.300000
v -0.660500 0.260000 0.300000
v -0.662500 0.254000 -0.300000
v -0.662500 0.254000 0.300000
v -0.662500 0.239000 -0.300000
v -0.662500 0.239000 0.300000
v -0.661500 0.231000 -0.300000
v -0.661500 0.231000 0.300000
v -0.655500 0.225000 -0.300000
v -0.655500 0.225000 0.300000
v -0.641500 0.219000 -0.300000
v -0.641500 0.219000 0.300000
v -0.637500 0.207000 -0.300000
v -0.637500 0.207000 0.300000
v -0.637500 0.145000 -0.300000
v -0.637500 0.145000 0.300000
v -0.640500 0.134000 -0.300000
v -0.640500 0.134000 0.300000
v -0.654500 0.124000 -0.300000
v -0.654500 0.124000 0.300000
v -0.692500 0.113000 -0.300000
v -0.692500 0.113000 0.300000
v -0.698500 0.108000 -0.300000
v -0.698500 0.108000 0.300000
v -0.698500 0.099422 -0.300000
v -0.698500 0.099422 0.300000
v 0.428500 0.099422 0.108000
v 0.961500 0.099422 0.108000
v 0.961500 0.099422 -0.108000
v 0.428500 0.099422 -0.108000
v 0.604500 0.199422 0.080000
v 0.615500 0.199422 0.080000
v 0.615500 0.199422 -0.080000
v 0.604500 0.199422 -0.080000
v 0.483500 0.111422 0.009000
v 0.604500 0.194422 0.009000
v 0.604500 0.194422 -0.009000
v 0.483500 0.111422 -0.009000
v 0.490500 0.126422 0.000000
v 0.482000 0.126422 -0.014722
v 0.465000 0.126422 -0.014722
v 0.456500 0.126422 0.000000
v 0.465000 0.126422 0.014722
v 0.482000 0.126422 0.014722
v 0.698500 0.099422 -0.300000
v 0.698500 0.108000 -0.300000
v 0.698500 0.108000 0.300000
v 0.698500 0.099422 0.300000
v 0.692500 0.113000 -0.300000
v 0.692500 0.113000 0.300000
v 0.654500 0.124000 -0.300000
v 0.654500 0.124000 0.300000
v 0.640500 0.134000 -0.300000
v 0.640500 0.134000 0.300000
v 0.637500 0.145000 -0.300000
v 0.637500 0.145000 0.300000
v 0.637500 0.207000 -0.300000
v 0.637500 0.207000 0.300000
v 0.641500 0.219000 -0.300000
v 0.641500 0.219000 0.300000
v 0.655500 0.225000 -0.300000
v 0.655500 0.225000 0.300000
v 0.661500 0.231000 -0.300000
v 0.661500 0.231000 0.300000
v 0.662500 0.239000 -0.300000
v 0.662500 0.239000 0.300000
v 0.662500 0.254000 -0.300000
v 0.662500 0.254000 0.300000
v 0.660500 0.260000 -0.300000
v 0.660500 0.260000 0.300000
v 0.654500 0.264280 -0.300000
v 0.654500 0.264280 0.300000
v 0.602500 0.264280 -0.300000
v 0.602500 0.264280 0.300000
v 0.596500 0.260000 -0.300000
v 0.596500 0.260000 0.300000
v 0.594500 0.254000 -0.300000
v 0.594500 0.254000 0.300000
v 0.594500 0.239000 -0.300000
v 0.594500 0.239000 0.300000
v 0.595500 0.231000 -0.300000
v 0.595500 0.231000 0.300000
v 0.601500 0.225000 -0.300000
v 0.601500 0.225000 0.300000
v 0.615500 0.219000 -0.300000
v 0.615500 0.219000 0.300000
v 0.619500 0.207000 -0.300000
v 0.619500 0.207000 0.300000
v 0.619500 0.145000 -0.300000
v 0.619500 0.145000 0.300000
v 0.616500 0.134000 -0.300000
v 0.616500 0.134000 0.300000
v 0.602500 0.124000 -0.300000
v 0.602500 0.124000 0.300000
v 0.564500 0.113000 -0.300000
v 0.564500 0.113000 0.300000
v 0.558500 0.108000 -0.300000
v 0.558500 0.108000 0.300000
v 0.558500 0.099422 -0.300000
v 0.558500 0.099422 0.300000
vt 0.96281250 0.01585821
vt 0.96281250 0.25373134
vt 0.98937500 0.25373134
vt 0.98937500 0.01585821
vt 0.96281250 0.49160448
vt 0.98937500 0.49160448
vt 0.67062500 0.01585821
vt 0.67062500 0.25373134
vt 0.67925781 0.25373134
vt 0.67925781 0.01585821
vt 0.67062500 0.49160448
vt 0.67925781 0.49160448
vt 0.71445312 0.25373134
vt 0.71445312 0.01585821
vt 0.71445312 0.49160448
vt 0.74964844 0.25373134
vt 0.74964844 0.01585821
vt 0.74964844 0.49160448
vt 0.78484375 0.25373134
vt 0.78484375 0.01585821
vt 0.78484375 0.49160448
vt 0.82003906 0.25373134
vt 0.82003906 0.01585821
vt 0.82003906 0.49160448
vt 0.85523437 0.25373134
vt 0.85523437 0.01585821
vt 0.85523437 0.49160448
vt 0.89042969 0.25373134
vt 0.89042969 0.01585821
vt 0.89042969 0.49160448
vt 0.87548894 0.01585821
vt 0.89042969 0.02544297
vt 0.87548894 0.49160448
vt 0.85523437 0.47861081
vt 0.92562500 0.25373134
vt 0.92562500 0.01585821
vt 0.92562500 0.49160448
vt 0.92562500 0.04598881
vt 0.98937500 0.03647388
vt 0.67062500 0.03647388
vt 0.73437500 0.25373134
vt 0.73437500 0.01585821
vt 0.73437500 0.49160448
vt 0.73437500 0.04598881
vt 0.76957031 0.25373134
vt 0.76957031 0.01585821
vt 0.76957031 0.49160448
vt 0.76957031 0.02544297
vt 0.80476563 0.25373134
vt 0.80476563 0.01585821
vt 0.80476563 0.49160448
vt 0.78451106 0.01585821
vt 0.80476563 0.47861081
vt 0.78451106 0.49160448
vt 0.83996094 0.25373134
vt 0.83996094 0.01585821
vt 0.83996094 0.49160448
vt 0.87515625 0.25373134
vt 0.87515625 0.01585821
vt 0.87515625 0.49160448
vt 0.91035156 0.25373134
vt 0.91035156 0.01585821
vt 0.91035156 0.49160448
vt 0.94554688 0.25373134
vt 0.94554688 0.01585821
vt 0.94554688 0.49160448
vt 0.98074219 0.25373134
vt 0.98074219 0.01585821
vt 0.98074219 0.49160448
vt 0.69718750 0.25373134
vt 0.69718750 0.01585821
vt 0.69718750 0.49160448
vt 0.30281250 0.32985075
vt 0.31875000 0.32985075
vt 0.31875000 0.32192164
vt 0.30281250 0.32192164
vt 0.31875000 0.18554104
vt 0.30281250 0.18554104
vt 0.31875000 0.17761194
vt 0.30281250 0.17761194
vt 0.32937500 0.34174440
vt 0.32937500 0.33381530
vt 0.32937500 0.17364739
vt 0.32937500 0.16571828
vt 0.01062500 0.34174440
vt 0.15406250 0.34174440
vt 0.15406250 0.33381530
vt 0.01062500 0.33381530
vt 0.15406250 0.17364739
vt 0.01062500 0.17364739
vt 0.15406250 0.16571828
vt 0.01062500 0.16571828
vt 0.24889063 0.34174440
vt 0.24889063 0.33381530
vt 0.24889063 0.17364739
vt 0.24889063 0.16571828
vt 0.04781250 0.34174440
vt 0.04781250 0.33381530
vt 0.04781250 0.17364739
vt 0.04781250 0.16571828
vt 0.11687500 0.34174440
vt 0.11687500 0.33381530
vt 0.11687500 0.17364739
vt 0.11687500 0.16571828
vt 0.18593750 0.34174440
vt 0.18593750 0.33381530
vt 0.18593750 0.17364739
vt 0.18593750 0.16571828
vt 0.26031250 0.34174440
vt 0.26031250 0.33381530
vt 0.26031250 0.17364739
vt 0.26031250 0.16571828
vt 0.07968750 0.34174440
vt 0.07968750 0.33381530
vt 0.07968750 0.17364739
vt 0.07968750 0.16571828
vt 0.22312500 0.34174440
vt 0.22312500 0.33381530
vt 0.22312500 0.17364739
vt 0.22312500 0.16571828
vt 0.29218750 0.34174440
vt 0.29218750 0.33381530
vt 0.29218750 0.17364739
vt 0.29218750 0.16571828
vt 0.09110937 0.34174440
vt 0.09110937 0.33381530
vt 0.09110937 0.17364739
vt 0.09110937 0.16571828
vt 0.02125000 0.32985075
vt 0.02125000 0.32192164
vt 0.02125000 0.18554104
vt 0.02125000 0.17761194
vt 0.03718750 0.32985075
vt 0.03718750 0.32192164
vt 0.03718750 0.18554104
vt 0.03718750 0.17761194
vt 0.04250000 0.41231343
vt 0.29750000 0.41231343
vt 0.28421875 0.44402985
vt 0.05578125 0.44402985
vt 0.61016000 0.31082090
vt 0.60837500 0.31566812
vt 0.60837500 0.47724233
vt 0.61016000 0.48208955
vt 0.61902550 0.48208955
vt 0.61902550 0.34780500
vt 0.61902550 0.34526089
vt 0.61902550 0.31182400
vt 0.61902550 0.31082090
vt 0.34631696 0.01585821
vt 0.34062500 0.02278655
vt 0.34062500 0.48467613
vt 0.34631696 0.49160448
vt 0.57399554 0.49160448
vt 0.57968750 0.48467613
vt 0.57968750 0.02278655
vt 0.57399554 0.01585821
vt 0.61395312 0.02537313
vt 0.60837500 0.02697378
vt 0.60837500 0.19504115
vt 0.61395312 0.19664179
vt 0.64742188 0.19664179
vt 0.65300000 0.19504115
vt 0.65300000 0.02697378
vt 0.64742188 0.02537313
vt 0.34062500 0.49160448
vt 0.57968750 0.49160448
vt 0.57968750 0.01585821
vt 0.34062500 0.01585821
vt 0.57968750 0.25373134
vt 0.51992188 0.04772717
vt 0.40039062 0.04772717
vt 0.34062500 0.25373134
vt 0.40039062 0.45973552
vt 0.51992188 0.45973552
vt 0.54467761 0.08552964
vt 0.46015625 0.01585821
vt 0.37563489 0.08552964
vt 0.37563489 0.42193305
vt 0.46015625 0.49160448
vt 0.54467761 0.42193305
vt 0.01062500 0.50839552
vt 0.01062500 0.53314987
vt 0.32937500 0.53314987
vt 0.32937500 0.50839552
vt 0.01062500 0.54757884
vt 0.32937500 0.54757884
vt 0.01062500 0.57932257
vt 0.32937500 0.57932257
vt 0.01062500 0.60818052
vt 0.32937500 0.60818052
vt 0.01062500 0.63992425
vt 0.32937500 0.63992425
vt 0.01062500 0.81884350
vt 0.32937500 0.81884350
vt 0.01062500 0.85347303
vt 0.32937500 0.85347303
vt 0.01062500 0.87078779
vt 0.32937500 0.87078779
vt 0.01062500 0.88810256
vt 0.32937500 0.88810256
vt 0.01062500 0.91118891
vt 0.32937500 0.91118891
vt 0.01062500 0.95447583
vt 0.32937500 0.95447583
vt 0.01062500 0.97179059
vt 0.32937500 0.97179059
vt 0.34062500 0.97014925
vt 0.34062500 0.92817164
vt 0.65937500 0.92817164
vt 0.65937500 0.97014925
vt 0.34062500 0.56436567
vt 0.65937500 0.56436567
vt 0.34062500 0.52238806
vt 0.65937500 0.52238806
vt 0.01062500 0.57500000
vt 0.32937500 0.57500000
vt 0.98937500 0.50839552
vt 0.67062500 0.50839552
vt 0.67062500 0.53314987
vt 0.68428571 0.54757884
vt 0.77080357 0.57932257
vt 0.80267857 0.60818052
vt 0.80040179 0.85347303
vt 0.76852679 0.87078779
vt 0.75486607 0.88810256
vt 0.75258929 0.91118891
vt 0.75258929 0.95447583
vt 0.75714286 0.97179059
vt 0.77080357 0.98414179
vt 0.80950893 0.81884350
vt 0.88919643 0.98414179
vt 0.90285714 0.97179059
vt 0.90741071 0.95447583
vt 0.90741071 0.91118891
vt 0.90513393 0.88810256
vt 0.89147321 0.87078779
vt 0.85959821 0.85347303
vt 0.85049107 0.81884350
vt 0.80950893 0.63992425
vt 0.85049107 0.63992425
vt 0.85732143 0.60818052
vt 0.88919643 0.57932257
vt 0.97571429 0.54757884
vt 0.98937500 0.53314987
vt 0.64234950 0.48208955
vt 0.65121500 0.48208955
vt 0.64234950 0.44510545
vt 0.65300000 0.47724233
vt 0.64234950 0.43586811
vt 0.65300000 0.31566812
vt 0.64234950 0.31446305
vt 0.65121500 0.31082090
vt 0.64234950 0.31082090
vn -0.67601314 0.73688957 0.00000000
vn -0.66990359 0.74244575 -0.00186779
vn -0.66990476 0.74244705 0.00000000
vn -0.67601198 0.73688830 0.00185381
vn -0.67132147 0.74116396 -0.00186456
vn -0.66510533 0.74674541 -0.00248915
vn -0.66510621 0.74674641 0.00187861
vn -0.67132058 0.74116299 0.00247054
vn -0.65886181 0.75225981 -0.00250753
vn -0.65235724 0.75789478 -0.00505263
vn -0.65236349 0.75790204 0.00252634
vn -0.65885560 0.75225272 0.00501502
vn -0.62674989 0.77920318 -0.00519469
vn -0.61951841 0.78494288 -0.00784943
vn -0.61952901 0.78495632 0.00523304
vn -0.62673932 0.77919004 0.00779190
vn -0.57940804 0.81499687 -0.00814997
vn -0.57113334 0.82078434 -0.01094379
vn -0.57114831 0.82080585 0.00820806
vn -0.57939307 0.81497582 0.01086634
vn -0.52061463 0.85371590 -0.01138288
vn -0.51110737 0.85939752 -0.01432329
vn -0.51112625 0.85942926 0.01145906
vn -0.52059566 0.85368479 0.01422808
vn -0.45878801 0.88842238 -0.01480704
vn -0.44808089 0.89381427 -0.01787629
vn -0.44810276 0.89385792 0.01489763
vn -0.45876588 0.88837953 0.01776759
vn -0.40642676 0.91350068 -0.01827001
vn -0.39479511 0.91851918 -0.02143211
vn -0.39481917 0.91857515 0.01837150
vn -0.40640227 0.91344563 0.02131373
vn 0.00000000 0.00000000 -1.00000000
vn 0.00000000 0.00000000 1.00000000
vn -0.37626353 0.92626057 -0.02161275
vn -0.36414097 0.93101287 -0.02482701
vn -0.36416728 0.93108013 0.02172520
vn -0.37623663 0.92619435 0.02469852
vn 0.09946871 0.99468709 -0.02652499
vn 0.09946871 0.99468709 0.02652499
vn 0.00000000 0.99964463 -0.02665719
vn -0.00000000 0.99964463 0.02665719
vn -0.09946871 0.99468709 -0.02652499
vn -0.09946871 0.99468709 0.02652499
vn 0.37623663 0.92619435 -0.02469852
vn 0.36416728 0.93108013 -0.02172520
vn 0.36414097 0.93101287 0.02482701
vn 0.37626353 0.92626057 0.02161275
vn 0.40640227 0.91344563 -0.02131373
vn 0.39481917 0.91857515 -0.01837150
vn 0.39479511 0.91851918 0.02143211
vn 0.40642676 0.91350068 0.01827001
vn 0.45876588 0.88837953 -0.01776759
vn 0.44810276 0.89385792 -0.01489763
vn 0.44808089 0.89381427 0.01787629
vn 0.45878801 0.88842238 0.01480704
vn 0.52059566 0.85368479 -0.01422808
vn 0.51112625 0.85942926 -0.01145906
vn 0.51110737 0.85939752 0.01432329
vn 0.52061463 0.85371590 0.01138288
vn 0.57939307 0.81497582 -0.01086634
vn 0.57114831 0.82080585 -0.00820806
vn 0.57113334 0.82078434 0.01094379
vn 0.57940804 0.81499687 0.00814997
vn 0.62673932 0.77919004 -0.00779190
vn 0.61952901 0.78495632 -0.00523304
vn 0.61951841 0.78494288 0.00784943
vn 0.62674989 0.77920318 0.00519469
vn 0.65885560 0.75225272 -0.00501502
vn 0.65236349 0.75790204 -0.00252634
vn 0.65235724 0.75789478 0.00505263
vn 0.65886181 0.75225981 0.00250753
vn 0.67132058 0.74116299 -0.00247054
vn 0.66510621 0.74674641 -0.00187861
vn 0.66510533 0.74674541 0.00248915
vn 0.67132147 0.74116396 0.00186456
vn 0.67601198 0.73688830 -0.00185381
vn 0.66990476 0.74244705 0.00000000
vn 0.66990359 0.74244575 0.00186779
vn 0.67601314 0.73688957 0.00000000
vn -0.02927003 0.78053424 0.62442739
vn -0.03747366 0.99929762 0.00000000
vn -0.02927003 0.78053424 -0.62442739
vn -0.44564010 0.69904329 0.55923463
vn -0.44564010 0.69904329 -0.55923463
vn -0.00000000 0.78086881 0.62469505
vn -0.00000000 1.00000000 0.00000000
vn 0.00000000 0.78086881 -0.62469505
vn 0.02977574 0.78052258 0.62441806
vn 0.03812074 0.99927314 0.00000000
vn 0.02977574 0.78052258 -0.62441806
vn 0.07234645 0.77882259 0.62305807
vn 0.09249388 0.99571325 0.00000000
vn 0.07234645 0.77882259 -0.62305807
vn 0.07296363 0.77878748 0.62302999
vn 0.09328027 0.99563989 0.00000000
vn 0.07296363 0.77878748 -0.62302999
vn -0.02977574 0.78052258 0.62441806
vn -0.03812074 0.99927314 0.00000000
vn -0.02977574 0.78052258 -0.62441806
vn -0.07296363 0.77878748 0.62302999
vn -0.09328027 0.99563989 0.00000000
vn -0.07296363 0.77878748 -0.62302999
vn -0.07234645 0.77882259 0.62305807
vn -0.09249388 0.99571325 0.00000000
vn -0.07234645 0.77882259 -0.62305807
vn 0.02927003 0.78053424 0.62442739
vn 0.03747366 0.99929762 0.00000000
vn 0.02927003 0.78053424 -0.62442739
vn 0.44564010 0.69904329 0.55923463
vn 0.44564010 0.69904329 -0.55923463
vn -1.00000000 0.00000000 0.00000000
vn -0.18589167 0.98257025 0.00000000
vn -0.20695859 0.97834970 0.00000000
vn 1.00000000 0.00000000 0.00000000
vn 0.64018440 0.76822128 0.00000000
vn 0.27805808 0.96056426 0.00000000
vn 0.58123819 0.81373347 0.00000000
vn 0.96476382 0.26311741 0.00000000
vn 0.94868330 -0.31622777 0.00000000
vn 0.39391930 -0.91914503 0.00000000
vn 0.70710678 -0.70710678 0.00000000
vn 0.99227788 -0.12403473 0.00000000
vn 0.94868330 0.31622777 0.00000000
vn 0.58072468 0.81410002 0.00000000
vn -0.58072468 0.81410002 0.00000000
vn -0.94868330 0.31622777 0.00000000
vn -0.99227788 -0.12403473 0.00000000
vn -0.70710678 -0.70710678 0.00000000
vn -0.39391930 -0.91914503 0.00000000
vn -0.94868330 -0.31622777 0.00000000
vn -0.96476382 0.26311741 0.00000000
vn -0.58123819 0.81373347 0.00000000
vn -0.27805808 0.96056426 0.00000000
vn -0.64018440 0.76822128 0.00000000
vn 0.00000000 -1.00000000 0.00000000
vn 0.18589167 0.98257025 0.00000000
vn 0.20695859 0.97834970 0.00000000
vn 0.56566079 0.82463802 0.00000000
vn -0.56566079 0.82463802 0.00000000
g ballast
usemtl mat
f 1/1/1 2/2/1 3/3/1
f 3/3/2 4/4/2 1/1/2
f 2/2/3 5/5/3 6/6/3
f 6/6/4 3/3/4 2/2/4
f 4/7/5 3/8/5 7/9/5
f 7/9/6 8/10/6 4/7/6
f 3/8/7 6/11/7 9/12/7
f 9/12/8 7/9/8 3/8/8
f 8/10/9 7/9/9 10/13/9
f 10/13/10 11/14/10 8/10/10
f 7/9/11 9/12/11 12/15/11
f 12/15/12 10/13/12 7/9/12
f 11/14/13 10/13/13 13/16/13
f 13/16/14 14/17/14 11/14/14
f 10/13/15 12/15/15 15/18/15
f 15/18/16 13/16/16 10/13/16
f 14/17/17 13/16/17 16/19/17
f 16/19/18 17/20/18 14/17/18
f 13/16/19 15/18/19 18/21/19
f 18/21/20 16/19/20 13/16/20
f 17/20/21 16/19/21 19/22/21
f 19/22/22 20/23/22 17/20/22
f 16/19/23 18/21/23 21/24/23
f 21/24/24 19/22/24 16/19/24
f 20/23/25 19/22/25 22/25/25
f 22/25/26 23/26/26 20/23/26
f 19/22/27 21/24/27 24/27/27
f 24/27/28 22/25/28 19/22/28
f 23/26/29 22/25/29 25/28/29
f 25/28/30 26/29/30 23/26/30
f 22/25/31 24/27/31 27/30/31
f 27/30/32 25/28/32 22/25/32
f 28/31/33 26/32/33 29/29/33
f 30/30/34 31/33/34 24/34/34
f 30/29/34 27/32/34 31/31/34
f 26/29/35 25/28/35 32/35/35
f 32/35/36 33/36/36 26/29/36
f 25/28/37 27/30/37 34/37/37
f 34/37/38 32/35/38 25/28/38
f 29/29/33 26/32/33 33/38/33 35/36/33
f 36/36/34 34/38/34 27/32/34 30/29/34
f 32/35/39 37/3/39 38/4/39 33/36/39
f 34/37/40 39/6/40 37/3/40 32/35/40
f 35/36/33 33/38/33 38/39/33 40/4/33
f 41/4/34 39/39/34 34/38/34 36/36/34
f 37/8/41 42/3/41 43/4/41 38/7/41
f 39/11/42 44/6/42 42/3/42 37/8/42
f 40/7/33 38/40/33 43/39/33 45/4/33
f 46/4/34 44/39/34 39/40/34 41/7/34
f 42/8/41 47/3/41 48/4/41 43/7/41
f 44/11/42 49/6/42 47/3/42 42/8/42
f 45/7/33 43/40/33 48/39/33 50/4/33
f 51/4/34 49/39/34 44/40/34 46/7/34
f 47/8/41 52/3/41 53/4/41 48/7/41
f 49/11/42 54/6/42 52/3/42 47/8/42
f 50/7/33 48/40/33 53/39/33 55/4/33
f 56/4/34 54/39/34 49/40/34 51/7/34
f 52/8/41 57/3/41 58/4/41 53/7/41
f 54/11/42 59/6/42 57/3/42 52/8/42
f 55/7/33 53/40/33 58/39/33 60/4/33
f 61/4/34 59/39/34 54/40/34 56/7/34
f 57/8/43 62/41/43 63/42/43 58/7/43
f 59/11/44 64/43/44 62/41/44 57/8/44
f 60/7/33 58/40/33 63/44/33 65/42/33
f 66/42/34 64/44/34 59/40/34 61/7/34
f 63/42/45 62/41/45 67/45/45
f 67/45/46 68/46/46 63/42/46
f 62/41/47 64/43/47 69/47/47
f 69/47/48 67/45/48 62/41/48
f 65/42/33 63/44/33 68/48/33 70/46/33
f 71/46/34 69/48/34 64/44/34 66/42/34
f 68/46/49 67/45/49 72/49/49
f 72/49/50 73/50/50 68/46/50
f 67/45/51 69/47/51 74/51/51
f 74/51/52 72/49/52 67/45/52
f 70/46/33 68/48/33 75/52/33
f 74/53/34 76/54/34 71/47/34
f 76/52/34 69/48/34 71/46/34
f 73/50/53 72/49/53 77/55/53
f 77/55/54 78/56/54 73/50/54
f 72/49/55 74/51/55 79/57/55
f 79/57/56 77/55/56 72/49/56
f 78/56/57 77/55/57 80/58/57
f 80/58/58 81/59/58 78/56/58
f 77/55/59 79/57/59 82/60/59
f 82/60/60 80/58/60 77/55/60
f 81/59/61 80/58/61 83/61/61
f 83/61/62 84/62/62 81/59/62
f 80/58/63 82/60/63 85/63/63
f 85/63/64 83/61/64 80/58/64
f 84/62/65 83/61/65 86/64/65
f 86/64/66 87/65/66 84/62/66
f 83/61/67 85/63/67 88/66/67
f 88/66/68 86/64/68 83/61/68
f 87/65/69 86/64/69 89/67/69
f 89/67/70 90/68/70 87/65/70
f 86/64/71 88/66/71 91/69/71
f 91/69/72 89/67/72 86/64/72
f 90/68/73 89/67/73 92/3/73
f 92/3/74 93/4/74 90/68/74
f 89/67/75 91/69/75 94/6/75
f 94/6/76 92/3/76 89/67/76
f 93/7/77 92/8/77 95/70/77
f 95/70/78 96/71/78 93/7/78
f 92/8/79 94/11/79 97/72/79
f 97/72/80 95/70/80 92/8/80
g sleeper
usemtl mat
f 98/73/81 99/74/81 100/75/81 101/76/81
f 101/76/82 100/75/82 102/77/82 103/78/82
f 103/78/83 102/77/83 104/79/83 105/80/83
f 99/74/84 106/81/84 107/82/84 100/75/84
f 100/75/82 107/82/82 108/83/82 102/77/82
f 102/77/85 108/83/85 109/84/85 104/79/85
f 106/85/81 110/86/81 111/87/81 107/88/81
f 107/88/82 111/87/82 112/89/82 108/90/82
f 108/90/83 112/89/83 113/91/83 109/92/83
f 110/86/86 114/93/86 115/94/86 111/87/86
f 111/87/87 115/94/87 116/95/87 112/89/87
f 112/89/88 116/95/88 117/96/88 113/91/88
f 114/93/86 118/81/86 119/82/86 115/94/86
f 115/94/87 119/82/87 120/83/87 116/95/87
f 116/95/88 120/83/88 121/84/88 117/96/88
f 118/85/86 122/97/86 123/98/86 119/88/86
f 119/88/87 123/98/87 124/99/87 120/90/87
f 120/90/88 124/99/88 125/100/88 121/92/88
f 122/97/89 126/101/89 127/102/89 123/98/89
f 123/98/90 127/102/90 128/103/90 124/99/90
f 124/99/91 128/103/91 129/104/91 125/100/91
f 126/101/92 130/105/92 131/106/92 127/102/92
f 127/102/93 131/106/93 132/107/93 128/103/93
f 128/103/94 132/107/94 133/108/94 129/104/94
f 130/105/95 134/109/95 135/110/95 131/106/95
f 131/106/96 135/110/96 136/111/96 132/107/96
f 132/107/97 136/111/97 137/112/97 133/108/97
f 134/109/89 138/81/89 139/82/89 135/110/89
f 135/110/90 139/82/90 140/83/90 136/111/90
f 136/111/91 140/83/91 141/84/91 137/112/91
f 138/85/98 142/113/98 143/114/98 139/88/98
f 139/88/99 143/114/99 144/115/99 140/90/99
f 140/90/100 144/115/100 145/116/100 141/92/100
f 142/113/101 146/86/101 147/87/101 143/114/101
f 143/114/102 147/87/102 148/89/102 144/115/102
f 144/115/103 148/89/103 149/91/103 145/116/103
f 146/86/104 150/117/104 151/118/104 147/87/104
f 147/87/105 151/118/105 152/119/105 148/89/105
f 148/89/106 152/119/106 153/120/106 149/91/106
f 150/117/98 154/121/98 155/122/98 151/118/98
f 151/118/99 155/122/99 156/123/99 152/119/99
f 152/119/100 156/123/100 157/124/100 153/120/100
f 154/121/86 158/81/86 159/82/86 155/122/86
f 155/122/87 159/82/87 160/83/87 156/123/87
f 156/123/88 160/83/88 161/84/88 157/124/88
f 158/85/86 162/125/86 163/126/86 159/88/86
f 159/88/87 163/126/87 164/127/87 160/90/87
f 160/90/88 164/127/88 165/128/88 161/92/88
f 162/125/86 166/105/86 167/106/86 163/126/86
f 163/126/87 167/106/87 168/107/87 164/127/87
f 164/127/88 168/107/88 169/108/88 165/128/88
f 166/105/107 170/81/107 171/82/107 167/106/107
f 167/106/108 171/82/108 172/83/108 168/107/108
f 168/107/109 172/83/109 173/84/109 169/108/109
f 170/85/110 174/129/110 175/130/110 171/88/110
f 171/88/108 175/130/108 176/131/108 172/90/108
f 172/90/111 176/131/111 177/132/111 173/92/111
f 174/129/107 178/133/107 179/134/107 175/130/107
f 175/130/108 179/134/108 180/135/108 176/131/108
f 176/131/109 180/135/109 181/136/109 177/132/109
f 105/137/112 98/138/112 101/139/112
f 101/139/112 103/140/112 105/137/112
g fastener_left
usemtl mat
f 182/141/87 183/142/87 184/143/87
f 182/141/87 184/143/87 185/144/87
f 182/141/87 185/144/87 186/145/87 187/146/87
f 182/141/87 187/146/87 188/147/87
f 182/141/87 188/147/87 189/148/87
f 190/149/87 182/141/87 189/148/87
f 191/150/87 192/151/87 193/152/87
f 191/150/87 193/152/87 194/153/87
f 191/150/87 194/153/87 195/154/87
f 191/150/87 195/154/87 196/155/87
f 191/150/87 196/155/87 197/156/87
f 197/156/87 198/157/87 191/150/87
f 199/158/87 200/159/87 201/160/87
f 199/158/87 201/160/87 202/161/87
f 199/158/87 202/161/87 203/162/87
f 199/158/87 203/162/87 204/163/87
f 199/158/87 204/163/87 205/164/87
f 205/164/87 206/165/87 199/158/87
f 207/166/87 208/167/87 209/168/87 210/169/87
f 208/166/113 211/167/113 212/168/113 209/169/113
f 211/166/87 213/167/87 214/168/87 212/169/87
f 213/166/114 215/167/114 216/168/114 214/169/114
f 217/170/87 218/171/87 219/172/87
f 217/170/87 219/172/87 220/173/87
f 217/170/87 220/173/87 221/174/87
f 221/174/87 222/175/87 217/170/87
f 223/170/87 224/176/87 225/177/87
f 223/170/87 225/177/87 226/178/87
f 223/170/87 226/178/87 227/173/87
f 223/170/87 227/173/87 228/179/87
f 223/170/87 228/179/87 229/180/87
f 229/180/87 230/181/87 223/170/87
f 231/170/87 232/171/87 233/172/87
f 231/170/87 233/172/87 234/173/87
f 231/170/87 234/173/87 235/174/87
f 235/174/87 236/175/87 231/170/87
f 237/170/87 238/171/87 239/172/87
f 237/170/87 239/172/87 240/173/87
f 237/170/87 240/173/87 241/174/87
f 241/174/87 242/175/87 237/170/87
g rail_left
usemtl mat
f 243/182/115 244/183/115 245/184/115 246/185/115
f 244/183/116 247/186/116 248/187/116 245/184/116
f 247/186/117 249/188/117 250/189/117 248/187/117
f 249/188/118 251/190/118 252/191/118 250/189/118
f 251/190/119 253/192/119 254/193/119 252/191/119
f 253/192/115 255/194/115 256/195/115 254/193/115
f 255/194/120 257/196/120 258/197/120 256/195/120
f 257/196/121 259/198/121 260/199/121 258/197/121
f 259/198/122 261/200/122 262/201/122 260/199/122
f 261/200/123 263/202/123 264/203/123 262/201/123
f 263/202/115 265/204/115 266/205/115 264/203/115
f 265/204/124 267/206/124 268/207/124 266/205/124
f 267/208/125 269/209/125 270/210/125 268/211/125
f 269/209/87 271/212/87 272/213/87 270/210/87
f 271/212/126 273/214/126 274/215/126 272/213/126
f 273/206/127 275/204/127 276/205/127 274/207/127
f 275/204/112 277/202/112 278/203/112 276/205/112
f 277/202/128 279/200/128 280/201/128 278/203/128
f 279/200/129 281/198/129 282/199/129 280/201/129
f 281/198/130 283/196/130 284/197/130 282/199/130
f 283/196/131 285/194/131 286/195/131 284/197/131
f 285/194/112 287/192/112 288/193/112 286/195/112
f 287/192/132 289/190/132 290/191/132 288/193/132
f 289/190/133 291/188/133 292/189/133 290/191/133
f 291/188/134 293/186/134 294/187/134 292/189/134
f 293/186/135 295/183/135 296/184/135 294/187/135
f 295/183/112 297/182/112 298/185/112 296/184/112
f 297/182/136 243/216/136 246/217/136 298/185/136
g rail_left_end
usemtl mat
f 243/218/33 297/219/33 295/220/33
f 243/218/33 295/220/33 293/221/33
f 243/218/33 293/221/33 291/222/33
f 243/218/33 291/222/33 289/223/33
f 283/224/33 281/225/33 279/226/33
f 283/224/33 279/226/33 277/227/33
f 283/224/33 277/227/33 275/228/33
f 283/224/33 275/228/33 273/229/33
f 283/224/33 273/229/33 271/230/33
f 285/231/33 283/224/33 271/230/33
f 285/231/33 271/230/33 269/232/33
f 285/231/33 269/232/33 267/233/33
f 285/231/33 267/233/33 265/234/33
f 285/231/33 265/234/33 263/235/33
f 285/231/33 263/235/33 261/236/33
f 261/236/33 259/237/33 257/238/33
f 285/231/33 261/236/33 257/238/33
f 285/231/33 257/238/33 255/239/33
f 287/240/33 285/231/33 255/239/33
f 289/223/33 287/240/33 255/239/33
f 289/223/33 255/239/33 253/241/33
f 289/223/33 253/241/33 251/242/33
f 289/223/33 251/242/33 249/243/33
f 243/218/33 289/223/33 249/243/33
f 243/218/33 249/243/33 247/244/33
f 247/244/33 244/245/33 243/218/33
f 298/219/34 246/218/34 245/245/34
f 298/219/34 245/245/34 248/244/34
f 298/219/34 248/244/34 250/243/34
f 298/219/34 250/243/34 252/242/34
f 258/238/34 260/237/34 262/236/34
f 258/238/34 262/236/34 264/235/34
f 258/238/34 264/235/34 266/234/34
f 258/238/34 266/234/34 268/233/34
f 258/238/34 268/233/34 270/232/34
f 256/239/34 258/238/34 270/232/34
f 256/239/34 270/232/34 272/230/34
f 256/239/34 272/230/34 274/229/34
f 256/239/34 274/229/34 276/228/34
f 256/239/34 276/228/34 278/227/34
f 256/239/34 278/227/34 280/226/34
f 280/226/34 282/225/34 284/224/34
f 256/239/34 280/226/34 284/224/34
f 256/239/34 284/224/34 286/231/34
f 254/241/34 256/239/34 286/231/34
f 252/242/34 254/241/34 286/231/34
f 252/242/34 286/231/34 288/240/34
f 252/242/34 288/240/34 290/223/34
f 252/242/34 290/223/34 292/222/34
f 298/219/34 252/242/34 292/222/34
f 298/219/34 292/222/34 294/221/34
f 294/221/34 296/220/34 298/219/34
g fastener_right
usemtl mat
f 299/246/87 300/247/87 301/248/87
f 301/248/87 300/247/87 302/249/87 303/250/87
f 303/250/87 302/249/87 304/251/87 305/252/87
f 304/251/87 306/253/87 307/254/87 305/252/87
f 308/150/87 309/151/87 310/152/87
f 308/150/87 310/152/87 311/153/87
f 308/150/87 311/153/87 312/154/87
f 308/150/87 312/154/87 313/155/87
f 308/150/87 313/155/87 314/156/87
f 314/156/87 315/157/87 308/150/87
f 316/158/87 317/159/87 318/160/87
f 316/158/87 318/160/87 319/161/87
f 316/158/87 319/161/87 320/162/87
f 316/158/87 320/162/87 321/163/87
f 316/158/87 321/163/87 322/164/87
f 322/164/87 323/165/87 316/158/87
f 324/169/87 325/168/87 326/167/87 327/166/87
f 325/169/137 328/168/137 329/167/137 326/166/137
f 328/169/87 330/168/87 331/167/87 329/166/87
f 330/169/138 332/168/138 333/167/138 331/166/138
f 334/170/87 335/171/87 336/172/87
f 334/170/87 336/172/87 337/173/87
f 334/170/87 337/173/87 338/174/87
f 338/174/87 339/175/87 334/170/87
f 340/170/87 341/176/87 342/177/87
f 340/170/87 342/177/87 343/178/87
f 340/170/87 343/178/87 344/173/87
f 340/170/87 344/173/87 345/179/87
f 340/170/87 345/179/87 346/180/87
f 346/180/87 347/181/87 340/170/87
f 348/170/87 349/171/87 350/172/87
f 348/170/87 350/172/87 351/173/87
f 348/170/87 351/173/87 352/174/87
f 352/174/87 353/175/87 348/170/87
f 354/170/87 355/171/87 356/172/87
f 354/170/87 356/172/87 357/173/87
f 354/170/87 357/173/87 358/174/87
f 358/174/87 359/175/87 354/170/87
g rail_right
usemtl mat
f 360/182/115 361/183/115 362/184/115 363/185/115
f 361/183/116 364/186/116 365/187/116 362/184/116
f 364/186/117 366/188/117 367/189/117 365/187/117
f 366/188/118 368/190/118 369/191/118 367/189/118
f 368/190/119 370/192/119 371/193/119 369/191/119
f 370/192/115 372/194/115 373/195/115 371/193/115
f 372/194/120 374/196/120 375/197/120 373/195/120
f 374/196/121 376/198/121 377/199/121 375/197/121
f 376/198/122 378/200/122 379/201/122 377/199/122
f 378/200/123 380/202/123 381/203/123 379/201/123
f 380/202/115 382/204/115 383/205/115 381/203/115
f 382/204/124 384/206/124 385/207/124 383/205/124
f 384/208/125 386/209/125 387/210/125 385/211/125
f 386/209/87 388/212/87 389/213/87 387/210/87
f 388/212/126 390/214/126 391/215/126 389/213/126
f 390/206/127 392/204/127 393/205/127 391/207/127
f 392/204/112 394/202/112 395/203/112 393/205/112
f 394/202/128 396/200/128 397/201/128 395/203/128
f 396/200/129 398/198/129 399/199/129 397/201/129
f 398/198/130 400/196/130 401/197/130 399/199/130
f 400/196/131 402/194/131 403/195/131 401/197/131
f 402/194/112 404/192/112 405/193/112 403/195/112
f 404/192/132 406/190/132 407/191/132 405/193/132
f 406/190/133 408/188/133 409/189/133 407/191/133
f 408/188/134 410/186/134 411/187/134 409/189/134
f 410/186/135 412/183/135 413/184/135 411/187/135
f 412/183/112 414/182/112 415/185/112 413/184/112
f 414/182/136 360/216/136 363/217/136 415/185/136
g rail_right_end
usemtl mat
f 360/218/33 414/219/33 412/220/33
f 360/218/33 412/220/33 410/221/33
f 360/218/33 410/221/33 408/222/33
f 360/218/33 408/222/33 406/223/33
f 400/224/33 398/225/33 396/226/33
f 400/224/33 396/226/33 394/227/33
f 400/224/33 394/227/33 392/228/33
f 400/224/33 392/228/33 390/229/33
f 400/224/33 390/229/33 388/230/33
f 402/231/33 400/224/33 388/230/33
f 402/231/33 388/230/33 386/232/33
f 402/231/33 386/232/33 384/233/33
f 402/231/33 384/233/33 382/234/33
f 402/231/33 382/234/33 380/235/33
f 402/231/33 380/235/33 378/236/33
f 378/236/33 376/237/33 374/238/33
f 402/231/33 378/236/33 374/238/33
f 402/231/33 374/238/33 372/239/33
f 404/240/33 402/231/33 372/239/33
f 406/223/33 404/240/33 372/239/33
f 406/223/33 372/239/33 370/241/33
f 406/223/33 370/241/33 368/242/33
f 406/223/33 368/242/33 366/243/33
f 360/218/33 406/223/33 366/243/33
f 360/218/33 366/243/33 364/244/33
f 364/244/33 361/245/33 360/218/33
f 415/219/34 363/218/34 362/245/34
f 415/219/34 362/245/34 365/244/34
f 415/219/34 365/244/34 367/243/34
f 415/219/34 367/243/34 369/242/34
f 375/238/34 377/237/34 379/236/34
f 375/238/34 379/236/34 381/235/34
f 375/238/34 381/235/34 383/234/34
f 375/238/34 383/234/34 385/233/34
f 375/238/34 385/233/34 387/232/34
f 373/239/34 375/238/34 387/232/34
f 373/239/34 387/232/34 389/230/34
f 373/239/34 389/230/34 391/229/34
f 373/239/34 391/229/34 393/228/34
f 373/239/34 393/228/34 395/227/34
f 373/239/34 395/227/34 397/226/34
f 397/226/34 399/225/34 401/224/34
f 373/239/34 397/226/34 401/224/34
f 373/239/34 401/224/34 403/231/34
f 371/241/34 373/239/34 403/231/34
f 369/242/34 371/241/34 403/231/34
f 369/242/34 403/231/34 405/240/34
f 369/242/34 405/240/34 407/223/34
f 369/242/34 407/223/34 409/222/34
f 415/219/34 369/242/34 409/222/34
f 415/219/34 409/222/34 411/221/34
f 411/221/34 413/220/34 415/219/34
g outer_fastener_left
usemtl mat
f 416/166/87 417/167/87 418/168/87 419/169/87
f 420/166/87 421/167/87 422/168/87 423/169/87
f 424/169/139 425/168/139 426/167/139 427/166/139
f 428/170/87 429/171/87 430/172/87
f 428/170/87 430/172/87 431/173/87
f 428/170/87 431/173/87 432/174/87
f 432/174/87 433/175/87 428/170/87
g outer_guard_left
usemtl mat
f 434/182/115 435/183/115 436/184/115 437/185/115
f 435/183/116 438/186/116 439/187/116 436/184/116
f 438/186/117 440/188/117 441/189/117 439/187/117
f 440/188/118 442/190/118 443/191/118 441/189/118
f 442/190/119 444/192/119 445/193/119 443/191/119
f 444/192/115 446/194/115 447/195/115 445/193/115
f 446/194/120 448/196/120 449/197/120 447/195/120
f 448/196/121 450/198/121 451/199/121 449/197/121
f 450/198/122 452/200/122 453/201/122 451/199/122
f 452/200/123 454/202/123 455/203/123 453/201/123
f 454/202/115 456/204/115 457/205/115 455/203/115
f 456/204/124 458/206/124 459/207/124 457/205/124
f 458/208/125 460/209/125 461/210/125 459/211/125
f 460/209/87 462/212/87 463/213/87 461/210/87
f 462/212/126 464/214/126 465/215/126 463/213/126
f 464/206/127 466/204/127 467/205/127 465/207/127
f 466/204/112 468/202/112 469/203/112 467/205/112
f 468/202/128 470/200/128 471/201/128 469/203/128
f 470/200/129 472/198/129 473/199/129 471/201/129
f 472/198/130 474/196/130 475/197/130 473/199/130
f 474/196/131 476/194/131 477/195/131 475/197/131
f 476/194/112 478/192/112 479/193/112 477/195/112
f 478/192/132 480/190/132 481/191/132 479/193/132
f 480/190/133 482/188/133 483/189/133 481/191/133
f 482/188/134 484/186/134 485/187/134 483/189/134
f 484/186/135 486/183/135 487/184/135 485/187/135
f 486/183/112 488/182/112 489/185/112 487/184/112
f 488/182/136 434/216/136 437/217/136 489/185/136
g outer_fastener_right
usemtl mat
f 490/166/87 491/167/87 492/168/87 493/169/87
f 494/166/87 495/167/87 496/168/87 497/169/87
f 498/166/140 499/167/140 500/168/140 501/169/140
f 502/170/87 503/171/87 504/172/87
f 502/170/87 504/172/87 505/173/87
f 502/170/87 505/173/87 506/174/87
f 506/174/87 507/175/87 502/170/87
g outer_guard_right
usemtl mat
f 508/182/115 509/183/115 510/184/115 511/185/115
f 509/183/116 512/186/116 513/187/116 510/184/116
f 512/186/117 514/188/117 515/189/117 513/187/117
f 514/188/118 516/190/118 517/191/118 515/189/118
f 516/190/119 518/192/119 519/193/119 517/191/119
f 518/192/115 520/194/115 521/195/115 519/193/115
f 520/194/120 522/196/120 523/197/120 521/195/120
f 522/196/121 524/198/121 525/199/121 523/197/121
f 524/198/122 526/200/122 527/201/122 525/199/122
f 526/200/123 528/202/123 529/203/123 527/201/123
f 528/202/115 530/204/115 531/205/115 529/203/115
f 530/204/124 532/206/124 533/207/124 531/205/124
f 532/208/125 534/209/125 535/210/125 533/211/125
f 534/209/87 536/212/87 537/213/87 535/210/87
f 536/212/126 538/214/126 539/215/126 537/213/126
f 538/206/127 540/204/127 541/205/127 539/207/127
f 540/204/112 542/202/112 543/203/112 541/205/112
f 542/202/128 544/200/128 545/201/128 543/203/128
f 544/200/129 546/198/129 547/199/129 545/201/129
f 546/198/130 548/196/130 549/197/130 547/199/130
f 548/196/131 550/194/131 551/195/131 549/197/131
f 550/194/112 552/192/112 553/193/112 551/195/112
f 552/192/132 554/190/132 555/191/132 553/193/132
f 554/190/133 556/188/133 557/189/133 555/191/133
f 556/188/134 558/186/134 559/187/134 557/189/134
f 558/186/135 560/183/135 561/184/135 559/187/135
f 560/183/112 562/182/112 563/185/112 561/184/112
f 562/182/136 508/216/136 511/217/136 563/185/136
