# metres; Y up; CCW outward; repeat 0.6 m
mtllib outer_guard_low.mtl
v -1.850000 -0.304000 -0.300000
v -1.850000 -0.304000 0.000000
v -1.800000 -0.258131 0.000000
v -1.800000 -0.258885 -0.300000
v -1.850000 -0.304000 0.300000
v -1.800000 -0.258885 0.300000
v -1.783750 -0.243412 0.000000
v -1.783750 -0.244412 -0.300000
v -1.783750 -0.244412 0.300000
v -1.717500 -0.185387 0.000000
v -1.717500 -0.187387 -0.300000
v -1.717500 -0.187387 0.300000
v -1.651250 -0.132099 0.000000
v -1.651250 -0.135099 -0.300000
v -1.651250 -0.135099 0.300000
v -1.585000 -0.085000 0.000000
v -1.585000 -0.089000 -0.300000
v -1.585000 -0.089000 0.300000
v -1.518750 -0.044599 0.000000
v -1.518750 -0.049599 -0.300000
v -1.518750 -0.049599 0.300000
v -1.452500 -0.010387 0.000000
v -1.452500 -0.016387 -0.300000
v -1.452500 -0.016387 0.300000
v -1.386250 0.019088 0.000000
v -1.386250 0.012088 -0.300000
v -1.386250 0.012088 0.300000
v -1.320000 0.046000 0.000000
v -1.320000 0.038000 -0.300000
v -1.320000 0.038000 0.300000
v -1.200000 0.034000 0.000000
v -1.200000 0.026000 -0.300000
v -1.200000 0.026000 0.300000
v -0.600000 0.034000 0.000000
v -0.600000 0.026000 -0.300000
v -0.600000 0.026000 0.300000
v 0.000000 0.034000 0.000000
v 0.000000 0.026000 -0.300000
v 0.000000 0.026000 0.300000
v 0.600000 0.034000 0.000000
v 0.600000 0.026000 -0.300000
v 0.600000 0.026000 0.300000
v 1.200000 0.034000 0.000000
v 1.200000 0.026000 -0.300000
v 1.200000 0.026000 0.300000
v 1.320000 0.046000 0.000000
v 1.320000 0.038000 -0.300000
v 1.320000 0.038000 0.300000
v 1.386250 0.019088 0.000000
v 1.386250 0.012088 -0.300000
v 1.386250 0.012088 0.300000
v 1.452500 -0.010387 0.000000
v 1.452500 -0.016387 -0.300000
v 1.452500 -0.016387 0.300000
v 1.518750 -0.044599 0.000000
v 1.518750 -0.049599 -0.300000
v 1.518750 -0.049599 0.300000
v 1.585000 -0.085000 0.000000
v 1.585000 -0.089000 -0.300000
v 1.585000 -0.089000 0.300000
v 1.651250 -0.132099 0.000000
v 1.651250 -0.135099 -0.300000
v 1.651250 -0.135099 0.300000
v 1.717500 -0.185387 0.000000
v 1.717500 -0.187387 -0.300000
v 1.717500 -0.187387 0.300000
v 1.783750 -0.243412 0.000000
v 1.783750 -0.244412 -0.300000
v 1.783750 -0.244412 0.300000
v 1.800000 -0.258131 0.000000
v 1.800000 -0.258885 -0.300000
v 1.800000 -0.258885 0.300000
v 1.850000 -0.304000 0.000000
v 1.850000 -0.304000 -0.300000
v 1.850000 -0.304000 0.300000
v -1.250000 0.065422 0.096000
v -1.200000 0.067297 0.111000
v -1.200000 0.075297 0.101000
v -1.250000 0.073422 0.086000
v -1.200000 0.075297 -0.101000
v -1.250000 0.073422 -0.086000
v -1.200000 0.067297 -0.111000
v -1.250000 0.065422 -0.096000
v -0.930000 0.077422 0.111000
v -0.930000 0.085422 0.101000
v -0.930000 0.085422 -0.101000
v -0.930000 0.077422 -0.111000
v -0.600000 0.077422 0.111000
v -0.600000 0.085422 0.101000
v -0.600000 0.085422 -0.101000
v -0.600000 0.077422 -0.111000
v -0.530000 0.077422 0.111000
v -0.530000 0.085422 0.101000
v -0.530000 0.085422 -0.101000
v -0.530000 0.077422 -0.111000
v 0.000000 0.042311 0.111000
v 0.000000 0.050311 0.101000
v 0.000000 0.050311 -0.101000
v 0.000000 0.042311 -0.111000
v 0.530000 0.077422 0.111000
v 0.530000 0.085422 0.101000
v 0.530000 0.085422 -0.101000
v 0.530000 0.077422 -0.111000
v 0.600000 0.077422 0.111000
v 0.600000 0.085422 0.101000
v 0.600000 0.085422 -0.101000
v 0.600000 0.077422 -0.111000
v 0.930000 0.077422 0.111000
v 0.930000 0.085422 0.101000
v 0.930000 0.085422 -0.101000
v 0.930000 0.077422 -0.111000
v 1.200000 0.067297 0.111000
v 1.200000 0.075297 0.101000
v 1.200000 0.075297 -0.101000
v 1.200000 0.067297 -0.111000
v 1.250000 0.065422 0.096000
v 1.250000 0.073422 0.086000
v 1.250000 0.073422 -0.086000
v 1.250000 0.065422 -0.096000
v -0.826500 0.099422 0.106000
v -0.790700 0.099422 0.106000
v -0.790700 0.099422 -0.106000
v -0.826500 0.099422 -0.106000
v -0.896500 0.109422 0.105000
v -0.790700 0.109422 0.105000
v -0.790700 0.109422 -0.105000
v -0.896500 0.109422 -0.105000
v -0.946500 0.095422 0.103000
v -0.820500 0.095422 0.103000
v -0.820500 0.095422 -0.103000
v -0.946500 0.095422 -0.103000
v -0.950500 0.126422 0.107000
v -0.934500 0.126422 0.107000
v -0.934500 0.126422 -0.107000
v -0.950500 0.126422 -0.107000
v -0.681500 0.099422 -0.300000
v -0.681500 0.108000 -0.300000
v -0.681500 0.108000 0.300000
v -0.681500 0.099422 0.300000
v -0.687500 0.113000 -0.300000
v -0.687500 0.113000 0.300000
v -0.725500 0.124000 -0.300000
v -0.725500 0.124000 0.300000
v -0.739500 0.134000 -0.300000
v -0.739500 0.134000 0.300000
v -0.742500 0.145000 -0.300000
v -0.742500 0.145000 0.300000
v -0.742500 0.207000 -0.300000
v -0.742500 0.207000 0.300000
v -0.738500 0.219000 -0.300000
v -0.738500 0.219000 0.300000
v -0.724500 0.225000 -0.300000
v -0.724500 0.225000 0.300000
v -0.718500 0.231000 -0.300000
v -0.718500 0.231000 0.300000
v -0.717500 0.239000 -0.300000
v -0.717500 0.239000 0.300000
v -0.717500 0.254000 -0.300000
v -0.717500 0.254000 0.300000
v -0.719500 0.260000 -0.300000
v -0.719500 0.260000 0.300000
v -0.725500 0.264280 -0.300000
v -0.725500 0.264280 0.300000
v -0.777500 0.264280 -0.300000
v -0.777500 0.264280 0.300000
v -0.783500 0.260000 -0.300000
v -0.783500 0.260000 0.300000
v -0.785500 0.254000 -0.300000
v -0.785500 0.254000 0.300000
v -0.785500 0.239000 -0.300000
v -0.785500 0.239000 0.300000
v -0.784500 0.231000 -0.300000
v -0.784500 0.231000 0.300000
v -0.778500 0.225000 -0.300000
v -0.778500 0.225000 0.300000
v -0.764500 0.219000 -0.300000
v -0.764500 0.219000 0.300000
v -0.760500 0.207000 -0.300000
v -0.760500 0.207000 0.300000
v -0.760500 0.145000 -0.300000
v -0.760500 0.145000 0.300000
v -0.763500 0.134000 -0.300000
v -0.763500 0.134000 0.300000
v -0.777500 0.124000 -0.300000
v -0.777500 0.124000 0.300000
v -0.815500 0.113000 -0.300000
v -0.815500 0.113000 0.300000
v -0.821500 0.108000 -0.300000
v -0.821500 0.108000 0.300000
v -0.821500 0.099422 -0.300000
v -0.821500 0.099422 0.300000
v 0.790700 0.099422 0.106000
v 0.826500 0.099422 0.106000
v 0.826500 0.099422 -0.106000
v 0.790700 0.099422 -0.106000
v 0.790700 0.109422 0.105000
v 0.896500 0.109422 0.105000
v 0.896500 0.109422 -0.105000
v 0.790700 0.109422 -0.105000
v 0.820500 0.095422 0.103000
v 0.946500 0.095422 0.103000
v 0.946500 0.095422 -0.103000
v 0.820500 0.095422 -0.103000
v 0.934500 0.126422 0.107000
v 0.950500 0.126422 0.107000
v 0.950500 0.126422 -0.107000
v 0.934500 0.126422 -0.107000
v 0.821500 0.099422 -0.300000
v 0.821500 0.108000 -0.300000
v 0.821500 0.108000 0.300000
v 0.821500 0.099422 0.300000
v 0.815500 0.113000 -0.300000
v 0.815500 0.113000 0.300000
v 0.777500 0.124000 -0.300000
v 0.777500 0.124000 0.300000
v 0.763500 0.134000 -0.300000
v 0.763500 0.134000 0.300000
v 0.760500 0.145000 -0.300000
v 0.760500 0.145000 0.300000
v 0.760500 0.207000 -0.300000
v 0.760500 0.207000 0.300000
v 0.764500 0.219000 -0.300000
v 0.764500 0.219000 0.300000
v 0.778500 0.225000 -0.300000
v 0.778500 0.225000 0.300000
v 0.784500 0.231000 -0.300000
v 0.784500 0.231000 0.300000
v 0.785500 0.239000 -0.300000
v 0.785500 0.239000 0.300000
v 0.785500 0.254000 -0.300000
v 0.785500 0.254000 0.300000
v 0.783500 0.260000 -0.300000
v 0.783500 0.260000 0.300000
v 0.777500 0.264280 -0.300000
v 0.777500 0.264280 0.300000
v 0.725500 0.264280 -0.300000
v 0.725500 0.264280 0.300000
v 0.719500 0.260000 -0.300000
v 0.719500 0.260000 0.300000
v 0.717500 0.254000 -0.300000
v 0.717500 0.254000 0.300000
v 0.717500 0.239000 -0.300000
v 0.717500 0.239000 0.300000
v 0.718500 0.231000 -0.300000
v 0.718500 0.231000 0.300000
v 0.724500 0.225000 -0.300000
v 0.724500 0.225000 0.300000
v 0.738500 0.219000 -0.300000
v 0.738500 0.219000 0.300000
v 0.742500 0.207000 -0.300000
v 0.742500 0.207000 0.300000
v 0.742500 0.145000 -0.300000
v 0.742500 0.145000 0.300000
v 0.739500 0.134000 -0.300000
v 0.739500 0.134000 0.300000
v 0.725500 0.124000 -0.300000
v 0.725500 0.124000 0.300000
v 0.687500 0.113000 -0.300000
v 0.687500 0.113000 0.300000
v 0.681500 0.108000 -0.300000
v 0.681500 0.108000 0.300000
v 0.681500 0.099422 -0.300000
v 0.681500 0.099422 0.300000
v -0.961500 0.099422 0.108000
v -0.428500 0.099422 0.108000
v -0.428500 0.099422 -0.108000
v -0.961500 0.099422 -0.108000
v -0.615500 0.199422 0.080000
v -0.604500 0.199422 0.080000
v -0.604500 0.199422 -0.080000
v -0.615500 0.199422 -0.080000
v -0.483500 0.111422 -0.009000
v -0.604500 0.194422 -0.009000
v -0.604500 0.194422 0.009000
v -0.483500 0.111422 0.009000
v -0.558500 0.099422 -0.300000
v -0.558500 0.108000 -0.300000
v -0.558500 0.108000 0.300000
v -0.558500 0.099422 0.300000
v -0.564500 0.113000 -0.300000
v -0.564500 0.113000 0.300000
v -0.602500 0.124000 -0.300000
v -0.602500 0.124000 0.300000
v -0.616500 0.134000 -0.300000
v -0.616500 0.134000 0.300000
v -0.619500 0.145000 -0.300000
v -0.619500 0.145000 0.300000
v -0.619500 0.207000 -0.300000
v -0.619500 0.207000 0.300000
v -0.615500 0.219000 -0.300000
v -0.615500 0.219000 0.300000
v -0.601500 0.225000 -0.300000
v -0.601500 0.225000 0.300000
v -0.595500 0.231000 -0.300000
v -0.595500 0.231000 0.300000
v -0.594500 0.239000 -0.300000
v -0.594500 0.239000 0.300000
v -0.594500 0.254000 -0.300000
v -0.594500 0.254000 0.300000
v -0.596500 0.260000 -0.300000
v -0.596500 0.260000 0.300000
v -0.602500 0.264280 -0.300000
v -0.602500 0.264280 0.300000
v -0.654500 0.264280 -0.300000
v -0.654500 0.264280 0.300000
v -0.660500 0.260000 -0.300000
v -0.660500 0.260000 0.300000
v -0.662500 0.254000 -0.300000
v -0.662500 0.254000 0.300000
v -0.662500 0.239000 -0.300000
v -0.662500 0.239000 0.300000
v -0.661500 0.231000 -0.300000
v -0.661500 0.231000 0.300000
v -0.655500 0.225000 -0.300000
v -0.655500 0.225000 0.300000
v -0.641500 0.219000 -0.300000
v -0.641500 0.219000 0.300000
v -0.637500 0.207000 -0.300000
v -0.637500 0.207000 0.300000
v -0.637500 0.145000 -0.300000
v -0.637500 0.145000 0.300000
v -0.640500 0.134000 -0.300000
v -0.640500 0.134000 0.300000
v -0.654500 0.124000 -0.300000
v -0.654500 0.124000 0.300000
v -0.692500 0.113000 -0.300000
v -0.692500 0.113000 0.300000
v -0.698500 0.108000 -0.300000
v -0.698500 0.108000 0.300000
v -0.698500 0.099422 -0.300000
v -0.698500 0.099422 0.300000
v 0.428500 0.099422 0.108000
v 0.961500 0.099422 0.108000
v 0.961500 0.099422 -0.108000
v 0.428500 0.099422 -0.108000
v 0.604500 0.199422 0.080000
v 0.615500 0.199422 0.080000
v 0.615500 0.199422 -0.080000
v 0.604500 0.199422 -0.080000
v 0.483500 0.111422 0.009000
v 0.604500 0.194422 0.009000
v 0.604500 0.194422 -0.009000
v 0.483500 0.111422 -0.009000
v 0.698500 0.099422 -0.300000
v 0.698500 0.108000 -0.300000
v 0.698500 0.108000 0.300000
v 0.698500 0.099422 0.300000
v 0.692500 0.113000 -0.300000
v 0.692500 0.113000 0.300000
v 0.654500 0.124000 -0.300000
v 0.654500 0.124000 0.300000
v 0.640500 0.134000 -0.300000
v 0.640500 0.134000 0.300000
v 0.637500 0.145000 -0.300000
v 0.637500 0.145000 0.300000
v 0.637500 0.207000 -0.300000
v 0.637500 0.207000 0.300000
v 0.641500 0.219000 -0.300000
v 0.641500 0.219000 0.300000
v 0.655500 0.225000 -0.300000
v 0.655500 0.225000 0.300000
v 0.661500 0.231000 -0.300000
v 0.661500 0.231000 0.300000
v 0.662500 0.239000 -0.300000
v 0.662500 0.239000 0.300000
v 0.662500 0.254000 -0.300000
v 0.662500 0.254000 0.300000
v 0.660500 0.260000 -0.300000
v 0.660500 0.260000 0.300000
v 0.654500 0.264280 -0.300000
v 0.654500 0.264280 0.300000
v 0.602500 0.264280 -0.300000
v 0.602500 0.264280 0.300000
v 0.596500 0.260000 -0.300000
v 0.596500 0.260000 0.300000
v 0.594500 0.254000 -0.300000
v 0.594500 0.254000 0.300000
v 0.594500 0.239000 -0.300000
v 0.594500 0.239000 0.300000
v 0.595500 0.231000 -0.300000
v 0.595500 0.231000 0.300000
v 0.601500 0.225000 -0.300000
v 0.601500 0.225000 0.300000
v 0.615500 0.219000 -0.300000
v 0.615500 0.219000 0.300000
v 0.619500 0.207000 -0.300000
v 0.619500 0.207000 0.300000
v 0.619500 0.145000 -0.300000
v 0.619500 0.145000 0.300000
v 0.616500 0.134000 -0.300000
v 0.616500 0.134000 0.300000
v 0.602500 0.124000 -0.300000
v 0.602500 0.124000 0.300000
v 0.564500 0.113000 -0.300000
v 0.564500 0.113000 0.300000
v 0.558500 0.108000 -0.300000
v 0.558500 0.108000 0.300000
v 0.558500 0.099422 -0.300000
v 0.558500 0.099422 0.300000
vt 0.96281250 0.01585821
vt 0.96281250 0.25373134
vt 0.98937500 0.25373134
vt 0.98937500 0.01585821
vt 0.96281250 0.49160448
vt 0.98937500 0.49160448
vt 0.67062500 0.01585821
vt 0.67062500 0.25373134
vt 0.67925781 0.25373134
vt 0.67925781 0.01585821
vt 0.67062500 0.49160448
vt 0.67925781 0.49160448
vt 0.71445312 0.25373134
vt 0.71445312 0.01585821
vt 0.71445312 0.49160448
vt 0.74964844 0.25373134
vt 0.74964844 0.01585821
vt 0.74964844 0.49160448
vt 0.78484375 0.25373134
vt 0.78484375 0.01585821
vt 0.78484375 0.49160448
vt 0.82003906 0.25373134
vt 0.82003906 0.01585821
vt 0.82003906 0.49160448
vt 0.85523437 0.25373134
vt 0.85523437 0.01585821
vt 0.85523437 0.49160448
vt 0.89042969 0.25373134
vt 0.89042969 0.01585821
vt 0.89042969 0.49160448
vt 0.92562500 0.25373134
vt 0.92562500 0.01585821
vt 0.92562500 0.49160448
vt 0.73437500 0.25373134
vt 0.73437500 0.01585821
vt 0.73437500 0.49160448
vt 0.76957031 0.25373134
vt 0.76957031 0.01585821
vt 0.76957031 0.49160448
vt 0.80476563 0.25373134
vt 0.80476563 0.01585821
vt 0.80476563 0.49160448
vt 0.83996094 0.25373134
vt 0.83996094 0.01585821
vt 0.83996094 0.49160448
vt 0.87515625 0.25373134
vt 0.87515625 0.01585821
vt 0.87515625 0.49160448
vt 0.91035156 0.25373134
vt 0.91035156 0.01585821
vt 0.91035156 0.49160448
vt 0.94554688 0.25373134
vt 0.94554688 0.01585821
vt 0.94554688 0.49160448
vt 0.98074219 0.25373134
vt 0.98074219 0.01585821
vt 0.98074219 0.49160448
vt 0.69718750 0.25373134
vt 0.69718750 0.01585821
vt 0.69718750 0.49160448
vt 0.30281250 0.32985075
vt 0.32937500 0.34174440
vt 0.32937500 0.33381530
vt 0.30281250 0.32192164
vt 0.32937500 0.17364739
vt 0.30281250 0.18554104
vt 0.32937500 0.16571828
vt 0.30281250 0.17761194
vt 0.01062500 0.34174440
vt 0.15406250 0.34174440
vt 0.15406250 0.33381530
vt 0.01062500 0.33381530
vt 0.15406250 0.17364739
vt 0.01062500 0.17364739
vt 0.15406250 0.16571828
vt 0.01062500 0.16571828
vt 0.04781250 0.34174440
vt 0.04781250 0.33381530
vt 0.04781250 0.17364739
vt 0.04781250 0.16571828
vt 0.29218750 0.34174440
vt 0.29218750 0.33381530
vt 0.29218750 0.17364739
vt 0.29218750 0.16571828
vt 0.18593750 0.34174440
vt 0.18593750 0.33381530
vt 0.18593750 0.17364739
vt 0.18593750 0.16571828
vt 0.03718750 0.32985075
vt 0.03718750 0.32192164
vt 0.03718750 0.18554104
vt 0.03718750 0.17761194
vt 0.04250000 0.41231343
vt 0.29750000 0.41231343
vt 0.28421875 0.44402985
vt 0.05578125 0.44402985
vt 0.60837500 0.48208955
vt 0.61902550 0.48208955
vt 0.61902550 0.31082090
vt 0.60837500 0.31082090
vt 0.34062500 0.49160448
vt 0.42784159 0.49160448
vt 0.42784159 0.01585821
vt 0.34062500 0.01585821
vt 0.57968750 0.49160448
vt 0.57968750 0.01585821
vt 0.60837500 0.19664179
vt 0.65300000 0.19664179
vt 0.65300000 0.02537313
vt 0.60837500 0.02537313
vt 0.01062500 0.50839552
vt 0.01062500 0.53314987
vt 0.32937500 0.53314987
vt 0.32937500 0.50839552
vt 0.01062500 0.54757884
vt 0.32937500 0.54757884
vt 0.01062500 0.57932257
vt 0.32937500 0.57932257
vt 0.01062500 0.60818052
vt 0.32937500 0.60818052
vt 0.01062500 0.63992425
vt 0.32937500 0.63992425
vt 0.01062500 0.81884350
vt 0.32937500 0.81884350
vt 0.01062500 0.85347303
vt 0.32937500 0.85347303
vt 0.01062500 0.87078779
vt 0.32937500 0.87078779
vt 0.01062500 0.88810256
vt 0.32937500 0.88810256
vt 0.01062500 0.91118891
vt 0.32937500 0.91118891
vt 0.01062500 0.95447583
vt 0.32937500 0.95447583
vt 0.01062500 0.97179059
vt 0.32937500 0.97179059
vt 0.34062500 0.97014925
vt 0.34062500 0.92817164
vt 0.65937500 0.92817164
vt 0.65937500 0.97014925
vt 0.34062500 0.56436567
vt 0.65937500 0.56436567
vt 0.34062500 0.52238806
vt 0.65937500 0.52238806
vt 0.01062500 0.57500000
vt 0.32937500 0.57500000
vt 0.98937500 0.50839552
vt 0.67062500 0.50839552
vt 0.67062500 0.53314987
vt 0.68428571 0.54757884
vt 0.77080357 0.57932257
vt 0.80267857 0.60818052
vt 0.80040179 0.85347303
vt 0.76852679 0.87078779
vt 0.75486607 0.88810256
vt 0.75258929 0.91118891
vt 0.75258929 0.95447583
vt 0.75714286 0.97179059
vt 0.77080357 0.98414179
vt 0.80950893 0.81884350
vt 0.88919643 0.98414179
vt 0.90285714 0.97179059
vt 0.90741071 0.95447583
vt 0.90741071 0.91118891
vt 0.90513393 0.88810256
vt 0.89147321 0.87078779
vt 0.85959821 0.85347303
vt 0.85049107 0.81884350
vt 0.80950893 0.63992425
vt 0.85049107 0.63992425
vt 0.85732143 0.60818052
vt 0.88919643 0.57932257
vt 0.97571429 0.54757884
vt 0.98937500 0.53314987
vt 0.64234950 0.48208955
vt 0.65300000 0.48208955
vt 0.65300000 0.31082090
vt 0.64234950 0.31082090
vt 0.49247091 0.49160448
vt 0.49247091 0.01585821
vn -0.67601314 0.73688957 0.00000000
vn -0.66990359 0.74244575 -0.00186779
vn -0.66990476 0.74244705 0.00000000
vn -0.67601198 0.73688830 0.00185381
vn -0.67132147 0.74116396 -0.00186456
vn -0.66510533 0.74674541 -0.00248915
vn -0.66510621 0.74674641 0.00187861
vn -0.67132058 0.74116299 0.00247054
vn -0.65886181 0.75225981 -0.00250753
vn -0.65235724 0.75789478 -0.00505263
vn -0.65236349 0.75790204 0.00252634
vn -0.65885560 0.75225272 0.00501502
vn -0.62674989 0.77920318 -0.00519469
vn -0.61951841 0.78494288 -0.00784943
vn -0.61952901 0.78495632 0.00523304
vn -0.62673932 0.77919004 0.00779190
vn -0.57940804 0.81499687 -0.00814997
vn -0.57113334 0.82078434 -0.01094379
vn -0.57114831 0.82080585 0.00820806
vn -0.57939307 0.81497582 0.01086634
vn -0.52061463 0.85371590 -0.01138288
vn -0.51110737 0.85939752 -0.01432329
vn -0.51112625 0.85942926 0.01145906
vn -0.52059566 0.85368479 0.01422808
vn -0.45878801 0.88842238 -0.01480704
vn -0.44808089 0.89381427 -0.01787629
vn -0.44810276 0.89385792 0.01489763
vn -0.45876588 0.88837953 0.01776759
vn -0.40642676 0.91350068 -0.01827001
vn -0.39479511 0.91851918 -0.02143211
vn -0.39481917 0.91857515 0.01837150
vn -0.40640227 0.91344563 0.02131373
vn -0.37626353 0.92626057 -0.02161275
vn -0.36414097 0.93101287 -0.02482701
vn -0.36416728 0.93108013 0.02172520
vn -0.37623663 0.92619435 0.02469852
vn 0.09946871 0.99468709 -0.02652499
vn 0.09946871 0.99468709 0.02652499
vn 0.00000000 0.99964463 -0.02665719
vn -0.00000000 0.99964463 0.02665719
vn -0.09946871 0.99468709 -0.02652499
vn -0.09946871 0.99468709 0.02652499
vn 0.37623663 0.92619435 -0.02469852
vn 0.36416728 0.93108013 -0.02172520
vn 0.36414097 0.93101287 0.02482701
vn 0.37626353 0.92626057 0.02161275
vn 0.40640227 0.91344563 -0.02131373
vn 0.39481917 0.91857515 -0.01837150
vn 0.39479511 0.91851918 0.02143211
vn 0.40642676 0.91350068 0.01827001
vn 0.45876588 0.88837953 -0.01776759
vn 0.44810276 0.89385792 -0.01489763
vn 0.44808089 0.89381427 0.01787629
vn 0.45878801 0.88842238 0.01480704
vn 0.52059566 0.85368479 -0.01422808
vn 0.51112625 0.85942926 -0.01145906
vn 0.51110737 0.85939752 0.01432329
vn 0.52061463 0.85371590 0.01138288
vn 0.57939307 0.81497582 -0.01086634
vn 0.57114831 0.82080585 -0.00820806
vn 0.57113334 0.82078434 0.01094379
vn 0.57940804 0.81499687 0.00814997
vn 0.62673932 0.77919004 -0.00779190
vn 0.61952901 0.78495632 -0.00523304
vn 0.61951841 0.78494288 0.00784943
vn 0.62674989 0.77920318 0.00519469
vn 0.65885560 0.75225272 -0.00501502
vn 0.65236349 0.75790204 -0.00252634
vn 0.65235724 0.75789478 0.00505263
vn 0.65886181 0.75225981 0.00250753
vn 0.67132058 0.74116299 -0.00247054
vn 0.66510621 0.74674641 -0.00187861
vn 0.66510533 0.74674541 0.00248915
vn 0.67132147 0.74116396 0.00186456
vn 0.67601198 0.73688830 -0.00185381
vn 0.66990476 0.74244705 0.00000000
vn 0.66990359 0.74244575 0.00186779
vn 0.67601314 0.73688957 0.00000000
vn -0.21177615 0.76315730 0.61052584
vn -0.03747366 0.99929762 0.00000000
vn -0.21177615 0.76315730 -0.61052584
vn -0.02927003 0.78053424 0.62442739
vn -0.02927003 0.78053424 -0.62442739
vn -0.00000000 0.78086881 0.62469505
vn -0.00000000 1.00000000 0.00000000
vn 0.00000000 0.78086881 -0.62469505
vn 0.05166127 0.77982609 0.62386087
vn 0.06610228 0.99781285 0.00000000
vn 0.05166127 0.77982609 -0.62386087
vn -0.05166127 0.77982609 0.62386087
vn -0.06610228 0.99781285 0.00000000
vn -0.05166127 0.77982609 -0.62386087
vn 0.02927003 0.78053424 0.62442739
vn 0.03747366 0.99929762 0.00000000
vn 0.02927003 0.78053424 -0.62442739
vn 0.21177615 0.76315730 0.61052584
vn 0.21177615 0.76315730 -0.61052584
vn -1.00000000 0.00000000 0.00000000
vn 1.00000000 0.00000000 0.00000000
vn 0.64018440 0.76822128 0.00000000
vn 0.27805808 0.96056426 0.00000000
vn 0.58123819 0.81373347 0.00000000
vn 0.96476382 0.26311741 0.00000000
vn 0.94868330 -0.31622777 0.00000000
vn 0.39391930 -0.91914503 0.00000000
vn 0.70710678 -0.70710678 0.00000000
vn 0.99227788 -0.12403473 0.00000000
vn 0.94868330 0.31622777 0.00000000
vn 0.58072468 0.81410002 0.00000000
vn -0.58072468 0.81410002 0.00000000
vn -0.94868330 0.31622777 0.00000000
vn -0.99227788 -0.12403473 0.00000000
vn -0.70710678 -0.70710678 0.00000000
vn -0.39391930 -0.91914503 0.00000000
vn -0.94868330 -0.31622777 0.00000000
vn -0.96476382 0.26311741 0.00000000
vn -0.58123819 0.81373347 0.00000000
vn -0.27805808 0.96056426 0.00000000
vn -0.64018440 0.76822128 0.00000000
vn 0.00000000 -1.00000000 0.00000000
vn 0.00000000 0.00000000 -1.00000000
vn 0.00000000 0.00000000 1.00000000
vn 0.56566079 0.82463802 0.00000000
vn -0.56566079 0.82463802 0.00000000
g ballast
usemtl mat
f 1/1/1 2/2/1 3/3/1
f 3/3/2 4/4/2 1/1/2
f 2/2/3 5/5/3 6/6/3
f 6/6/4 3/3/4 2/2/4
f 4/7/5 3/8/5 7/9/5
f 7/9/6 8/10/6 4/7/6
f 3/8/7 6/11/7 9/12/7
f 9/12/8 7/9/8 3/8/8
f 8/10/9 7/9/9 10/13/9
f 10/13/10 11/14/10 8/10/10
f 7/9/11 9/12/11 12/15/11
f 12/15/12 10/13/12 7/9/12
f 11/14/13 10/13/13 13/16/13
f 13/16/14 14/17/14 11/14/14
f 10/13/15 12/15/15 15/18/15
f 15/18/16 13/16/16 10/13/16
f 14/17/17 13/16/17 16/19/17
f 16/19/18 17/20/18 14/17/18
f 13/16/19 15/18/19 18/21/19
f 18/21/20 16/19/20 13/16/20
f 17/20/21 16/19/21 19/22/21
f 19/22/22 20/23/22 17/20/22
f 16/19/23 18/21/23 21/24/23
f 21/24/24 19/22/24 16/19/24
f 20/23/25 19/22/25 22/25/25
f 22/25/26 23/26/26 20/23/26
f 19/22/27 21/24/27 24/27/27
f 24/27/28 22/25/28 19/22/28
f 23/26/29 22/25/29 25/28/29
f 25/28/30 26/29/30 23/26/30
f 22/25/31 24/27/31 27/30/31
f 27/30/32 25/28/32 22/25/32
f 26/29/33 25/28/33 28/31/33
f 28/31/34 29/32/34 26/29/34
f 25/28/35 27/30/35 30/33/35
f 30/33/36 28/31/36 25/28/36
f 28/31/37 31/3/37 32/4/37 29/32/37
f 30/33/38 33/6/38 31/3/38 28/31/38
f 31/8/39 34/3/39 35/4/39 32/7/39
f 33/11/40 36/6/40 34/3/40 31/8/40
f 34/8/39 37/3/39 38/4/39 35/7/39
f 36/11/40 39/6/40 37/3/40 34/8/40
f 37/8/39 40/3/39 41/4/39 38/7/39
f 39/11/40 42/6/40 40/3/40 37/8/40
f 40/8/39 43/3/39 44/4/39 41/7/39
f 42/11/40 45/6/40 43/3/40 40/8/40
f 43/8/41 46/34/41 47/35/41 44/7/41
f 45/11/42 48/36/42 46/34/42 43/8/42
f 47/35/43 46/34/43 49/37/43
f 49/37/44 50/38/44 47/35/44
f 46/34/45 48/36/45 51/39/45
f 51/39/46 49/37/46 46/34/46
f 50/38/47 49/37/47 52/40/47
f 52/40/48 53/41/48 50/38/48
f 49/37/49 51/39/49 54/42/49
f 54/42/50 52/40/50 49/37/50
f 53/41/51 52/40/51 55/43/51
f 55/43/52 56/44/52 53/41/52
f 52/40/53 54/42/53 57/45/53
f 57/45/54 55/43/54 52/40/54
f 56/44/55 55/43/55 58/46/55
f 58/46/56 59/47/56 56/44/56
f 55/43/57 57/45/57 60/48/57
f 60/48/58 58/46/58 55/43/58
f 59/47/59 58/46/59 61/49/59
f 61/49/60 62/50/60 59/47/60
f 58/46/61 60/48/61 63/51/61
f 63/51/62 61/49/62 58/46/62
f 62/50/63 61/49/63 64/52/63
f 64/52/64 65/53/64 62/50/64
f 61/49/65 63/51/65 66/54/65
f 66/54/66 64/52/66 61/49/66
f 65/53/67 64/52/67 67/55/67
f 67/55/68 68/56/68 65/53/68
f 64/52/69 66/54/69 69/57/69
f 69/57/70 67/55/70 64/52/70
f 68/56/71 67/55/71 70/3/71
f 70/3/72 71/4/72 68/56/72
f 67/55/73 69/57/73 72/6/73
f 72/6/74 70/3/74 67/55/74
f 71/7/75 70/8/75 73/58/75
f 73/58/76 74/59/76 71/7/76
f 70/8/77 72/11/77 75/60/77
f 75/60/78 73/58/78 70/8/78
g sleeper
usemtl mat
f 76/61/79 77/62/79 78/63/79 79/64/79
f 79/64/80 78/63/80 80/65/80 81/66/80
f 81/66/81 80/65/81 82/67/81 83/68/81
f 77/69/82 84/70/82 85/71/82 78/72/82
f 78/72/80 85/71/80 86/73/80 80/74/80
f 80/74/83 86/73/83 87/75/83 82/76/83
f 84/70/84 88/62/84 89/63/84 85/71/84
f 85/71/85 89/63/85 90/65/85 86/73/85
f 86/73/86 90/65/86 91/67/86 87/75/86
f 88/69/84 92/77/84 93/78/84 89/72/84
f 89/72/85 93/78/85 94/79/85 90/74/85
f 90/74/86 94/79/86 95/80/86 91/76/86
f 92/77/87 96/62/87 97/63/87 93/78/87
f 93/78/88 97/63/88 98/65/88 94/79/88
f 94/79/89 98/65/89 99/67/89 95/80/89
f 96/69/90 100/81/90 101/82/90 97/72/90
f 97/72/91 101/82/91 102/83/91 98/74/91
f 98/74/92 102/83/92 103/84/92 99/76/92
f 100/81/84 104/62/84 105/63/84 101/82/84
f 101/82/85 105/63/85 106/65/85 102/83/85
f 102/83/86 106/65/86 107/67/86 103/84/86
f 104/69/84 108/85/84 109/86/84 105/72/84
f 105/72/85 109/86/85 110/87/85 106/74/85
f 106/74/86 110/87/86 111/88/86 107/76/86
f 108/85/93 112/62/93 113/63/93 109/86/93
f 109/86/94 113/63/94 114/65/94 110/87/94
f 110/87/95 114/65/95 115/67/95 111/88/95
f 112/69/96 116/89/96 117/90/96 113/72/96
f 113/72/94 117/90/94 118/91/94 114/74/94
f 114/74/97 118/91/97 119/92/97 115/76/97
f 83/93/98 76/94/98 79/95/98
f 79/95/98 81/96/98 83/93/98
g fastener_left
usemtl mat
f 120/97/85 121/98/85 122/99/85 123/100/85
f 124/101/85 125/102/85 126/103/85 127/104/85
f 128/101/85 129/105/85 130/106/85 131/104/85
f 132/107/85 133/108/85 134/109/85 135/110/85
g rail_left
usemtl mat
f 136/111/99 137/112/99 138/113/99 139/114/99
f 137/112/100 140/115/100 141/116/100 138/113/100
f 140/115/101 142/117/101 143/118/101 141/116/101
f 142/117/102 144/119/102 145/120/102 143/118/102
f 144/119/103 146/121/103 147/122/103 145/120/103
f 146/121/99 148/123/99 149/124/99 147/122/99
f 148/123/104 150/125/104 151/126/104 149/124/104
f 150/125/105 152/127/105 153/128/105 151/126/105
f 152/127/106 154/129/106 155/130/106 153/128/106
f 154/129/107 156/131/107 157/132/107 155/130/107
f 156/131/99 158/133/99 159/134/99 157/132/99
f 158/133/108 160/135/108 161/136/108 159/134/108
f 160/137/109 162/138/109 163/139/109 161/140/109
f 162/138/85 164/141/85 165/142/85 163/139/85
f 164/141/110 166/143/110 167/144/110 165/142/110
f 166/135/111 168/133/111 169/134/111 167/136/111
f 168/133/98 170/131/98 171/132/98 169/134/98
f 170/131/112 172/129/112 173/130/112 171/132/112
f 172/129/113 174/127/113 175/128/113 173/130/113
f 174/127/114 176/125/114 177/126/114 175/128/114
f 176/125/115 178/123/115 179/124/115 177/126/115
f 178/123/98 180/121/98 181/122/98 179/124/98
f 180/121/116 182/119/116 183/120/116 181/122/116
f 182/119/117 184/117/117 185/118/117 183/120/117
f 184/117/118 186/115/118 187/116/118 185/118/118
f 186/115/119 188/112/119 189/113/119 187/116/119
f 188/112/98 190/111/98 191/114/98 189/113/98
f 190/111/120 136/145/120 139/146/120 191/114/120
g rail_left_end
usemtl mat
f 136/147/121 190/148/121 188/149/121
f 136/147/121 188/149/121 186/150/121
f 136/147/121 186/150/121 184/151/121
f 136/147/121 184/151/121 182/152/121
f 176/153/121 174/154/121 172/155/121
f 176/153/121 172/155/121 170/156/121
f 176/153/121 170/156/121 168/157/121
f 176/153/121 168/157/121 166/158/121
f 176/153/121 166/158/121 164/159/121
f 178/160/121 176/153/121 164/159/121
f 178/160/121 164/159/121 162/161/121
f 178/160/121 162/161/121 160/162/121
f 178/160/121 160/162/121 158/163/121
f 178/160/121 158/163/121 156/164/121
f 178/160/121 156/164/121 154/165/121
f 154/165/121 152/166/121 150/167/121
f 178/160/121 154/165/121 150/167/121
f 178/160/121 150/167/121 148/168/121
f 180/169/121 178/160/121 148/168/121
f 182/152/121 180/169/121 148/168/121
f 182/152/121 148/168/121 146/170/121
f 182/152/121 146/170/121 144/171/121
f 182/152/121 144/171/121 142/172/121
f 136/147/121 182/152/121 142/172/121
f 136/147/121 142/172/121 140/173/121
f 140/173/121 137/174/121 136/147/121
f 191/148/122 139/147/122 138/174/122
f 191/148/122 138/174/122 141/173/122
f 191/148/122 141/173/122 143/172/122
f 191/148/122 143/172/122 145/171/122
f 151/167/122 153/166/122 155/165/122
f 151/167/122 155/165/122 157/164/122
f 151/167/122 157/164/122 159/163/122
f 151/167/122 159/163/122 161/162/122
f 151/167/122 161/162/122 163/161/122
f 149/168/122 151/167/122 163/161/122
f 149/168/122 163/161/122 165/159/122
f 149/168/122 165/159/122 167/158/122
f 149/168/122 167/158/122 169/157/122
f 149/168/122 169/157/122 171/156/122
f 149/168/122 171/156/122 173/155/122
f 173/155/122 175/154/122 177/153/122
f 149/168/122 173/155/122 177/153/122
f 149/168/122 177/153/122 179/160/122
f 147/170/122 149/168/122 179/160/122
f 145/171/122 147/170/122 179/160/122
f 145/171/122 179/160/122 181/169/122
f 145/171/122 181/169/122 183/152/122
f 145/171/122 183/152/122 185/151/122
f 191/148/122 145/171/122 185/151/122
f 191/148/122 185/151/122 187/150/122
f 187/150/122 189/149/122 191/148/122
g fastener_right
usemtl mat
f 192/175/85 193/176/85 194/177/85 195/178/85
f 196/179/85 197/105/85 198/106/85 199/180/85
f 200/101/85 201/105/85 202/106/85 203/104/85
f 204/107/85 205/108/85 206/109/85 207/110/85
g rail_right
usemtl mat
f 208/111/99 209/112/99 210/113/99 211/114/99
f 209/112/100 212/115/100 213/116/100 210/113/100
f 212/115/101 214/117/101 215/118/101 213/116/101
f 214/117/102 216/119/102 217/120/102 215/118/102
f 216/119/103 218/121/103 219/122/103 217/120/103
f 218/121/99 220/123/99 221/124/99 219/122/99
f 220/123/104 222/125/104 223/126/104 221/124/104
f 222/125/105 224/127/105 225/128/105 223/126/105
f 224/127/106 226/129/106 227/130/106 225/128/106
f 226/129/107 228/131/107 229/132/107 227/130/107
f 228/131/99 230/133/99 231/134/99 229/132/99
f 230/133/108 232/135/108 233/136/108 231/134/108
f 232/137/109 234/138/109 235/139/109 233/140/109
f 234/138/85 236/141/85 237/142/85 235/139/85
f 236/141/110 238/143/110 239/144/110 237/142/110
f 238/135/111 240/133/111 241/134/111 239/136/111
f 240/133/98 242/131/98 243/132/98 241/134/98
f 242/131/112 244/129/112 245/130/112 243/132/112
f 244/129/113 246/127/113 247/128/113 245/130/113
f 246/127/114 248/125/114 249/126/114 247/128/114
f 248/125/115 250/123/115 251/124/115 249/126/115
f 250/123/98 252/121/98 253/122/98 251/124/98
f 252/121/116 254/119/116 255/120/116 253/122/116
f 254/119/117 256/117/117 257/118/117 255/120/117
f 256/117/118 258/115/118 259/116/118 257/118/118
f 258/115/119 260/112/119 261/113/119 259/116/119
f 260/112/98 262/111/98 263/114/98 261/113/98
f 262/111/120 208/145/120 211/146/120 263/114/120
g rail_right_end
usemtl mat
f 208/147/121 262/148/121 260/149/121
f 208/147/121 260/149/121 258/150/121
f 208/147/121 258/150/121 256/151/121
f 208/147/121 256/151/121 254/152/121
f 248/153/121 246/154/121 244/155/121
f 248/153/121 244/155/121 242/156/121
f 248/153/121 242/156/121 240/157/121
f 248/153/121 240/157/121 238/158/121
f 248/153/121 238/158/121 236/159/121
f 250/160/121 248/153/121 236/159/121
f 250/160/121 236/159/121 234/161/121
f 250/160/121 234/161/121 232/162/121
f 250/160/121 232/162/121 230/163/121
f 250/160/121 230/163/121 228/164/121
f 250/160/121 228/164/121 226/165/121
f 226/165/121 224/166/121 222/167/121
f 250/160/121 226/165/121 222/167/121
f 250/160/121 222/167/121 220/168/121
f 252/169/121 250/160/121 220/168/121
f 254/152/121 252/169/121 220/168/121
f 254/152/121 220/168/121 218/170/121
f 254/152/121 218/170/121 216/171/121
f 254/152/121 216/171/121 214/172/121
f 208/147/121 254/152/121 214/172/121
f 208/147/121 214/172/121 212/173/121
f 212/173/121 209/174/121 208/147/121
f 263/148/122 211/147/122 210/174/122
f 263/148/122 210/174/122 213/173/122
f 263/148/122 213/173/122 215/172/122
f 263/148/122 215/172/122 217/171/122
f 223/167/122 225/166/122 227/165/122
f 223/167/122 227/165/122 229/164/122
f 223/167/122 229/164/122 231/163/122
f 223/167/122 231/163/122 233/162/122
f 223/167/122 233/162/122 235/161/122
f 221/168/122 223/167/122 235/161/122
f 221/168/122 235/161/122 237/159/122
f 221/168/122 237/159/122 239/158/122
f 221/168/122 239/158/122 241/157/122
f 221/168/122 241/157/122 243/156/122
f 221/168/122 243/156/122 245/155/122
f 245/155/122 247/154/122 249/153/122
f 221/168/122 245/155/122 249/153/122
f 221/168/122 249/153/122 251/160/122
f 219/170/122 221/168/122 251/160/122
f 217/171/122 219/170/122 251/160/122
f 217/171/122 251/160/122 253/169/122
f 217/171/122 253/169/122 255/152/122
f 217/171/122 255/152/122 257/151/122
f 263/148/122 217/171/122 257/151/122
f 263/148/122 257/151/122 259/150/122
f 259/150/122 261/149/122 263/148/122
g outer_fastener_left
usemtl mat
f 264/101/85 265/105/85 266/106/85 267/104/85
f 268/101/85 269/105/85 270/106/85 271/104/85
f 272/104/123 273/106/123 274/105/123 275/101/123
g outer_guard_left
usemtl mat
f 276/111/99 277/112/99 278/113/99 279/114/99
f 277/112/100 280/115/100 281/116/100 278/113/100
f 280/115/101 282/117/101 283/118/101 281/116/101
f 282/117/102 284/119/102 285/120/102 283/118/102
f 284/119/103 286/121/103 287/122/103 285/120/103
f 286/121/99 288/123/99 289/124/99 287/122/99
f 288/123/104 290/125/104 291/126/104 289/124/104
f 290/125/105 292/127/105 293/128/105 291/126/105
f 292/127/106 294/129/106 295/130/106 293/128/106
f 294/129/107 296/131/107 297/132/107 295/130/107
f 296/131/99 298/133/99 299/134/99 297/132/99
f 298/133/108 300/135/108 301/136/108 299/134/108
f 300/137/109 302/138/109 303/139/109 301/140/109
f 302/138/85 304/141/85 305/142/85 303/139/85
f 304/141/110 306/143/110 307/144/110 305/142/110
f 306/135/111 308/133/111 309/134/111 307/136/111
f 308/133/98 310/131/98 311/132/98 309/134/98
f 310/131/112 312/129/112 313/130/112 311/132/112
f 312/129/113 314/127/113 315/128/113 313/130/113
f 314/127/114 316/125/114 317/126/114 315/128/114
f 316/125/115 318/123/115 319/124/115 317/126/115
f 318/123/98 320/121/98 321/122/98 319/124/98
f 320/121/116 322/119/116 323/120/116 321/122/116
f 322/119/117 324/117/117 325/118/117 323/120/117
f 324/117/118 326/115/118 327/116/118 325/118/118
f 326/115/119 328/112/119 329/113/119 327/116/119
f 328/112/98 330/111/98 331/114/98 329/113/98
f 330/111/120 276/145/120 279/146/120 331/114/120
g outer_fastener_right
usemtl mat
f 332/101/85 333/105/85 334/106/85 335/104/85
f 336/101/85 337/105/85 338/106/85 339/104/85
f 340/101/124 341/105/124 342/106/124 343/104/124
g outer_guard_right
usemtl mat
f 344/111/99 345/112/99 346/113/99 347/114/99
f 345/112/100 348/115/100 349/116/100 346/113/100
f 348/115/101 350/117/101 351/118/101 349/116/101
f 350/117/102 352/119/102 353/120/102 351/118/102
f 352/119/103 354/121/103 355/122/103 353/120/103
f 354/121/99 356/123/99 357/124/99 355/122/99
f 356/123/104 358/125/104 359/126/104 357/124/104
f 358/125/105 360/127/105 361/128/105 359/126/105
f 360/127/106 362/129/106 363/130/106 361/128/106
f 362/129/107 364/131/107 365/132/107 363/130/107
f 364/131/99 366/133/99 367/134/99 365/132/99
f 366/133/108 368/135/108 369/136/108 367/134/108
f 368/137/109 370/138/109 371/139/109 369/140/109
f 370/138/85 372/141/85 373/142/85 371/139/85
f 372/141/110 374/143/110 375/144/110 373/142/110
f 374/135/111 376/133/111 377/134/111 375/136/111
f 376/133/98 378/131/98 379/132/98 377/134/98
f 378/131/112 380/129/112 381/130/112 379/132/112
f 380/129/113 382/127/113 383/128/113 381/130/113
f 382/127/114 384/125/114 385/126/114 383/128/114
f 384/125/115 386/123/115 387/124/115 385/126/115
f 386/123/98 388/121/98 389/122/98 387/124/98
f 388/121/116 390/119/116 391/120/116 389/122/116
f 390/119/117 392/117/117 393/118/117 391/120/117
f 392/117/118 394/115/118 395/116/118 393/118/118
f 394/115/119 396/112/119 397/113/119 395/116/119
f 396/112/98 398/111/98 399/114/98 397/113/98
f 398/111/120 344/145/120 347/146/120 399/114/120
