# metres; Y up; CCW outward; repeat 0.6 m
mtllib outer_guard_endpoint.mtl
v -0.458500 0.099422 0.000000
v -0.458500 0.108000 0.000000
v -0.483500 0.108000 0.100000
v -0.483500 0.099422 0.100000
v -0.464500 0.113000 0.000000
v -0.489500 0.113000 0.100000
v -0.502500 0.124000 0.000000
v -0.527500 0.124000 0.100000
v -0.516500 0.134000 0.000000
v -0.541500 0.134000 0.100000
v -0.519500 0.145000 0.000000
v -0.544500 0.145000 0.100000
v -0.519500 0.207000 0.000000
v -0.544500 0.207000 0.100000
v -0.515500 0.219000 0.000000
v -0.540500 0.219000 0.100000
v -0.501500 0.225000 0.000000
v -0.526500 0.225000 0.100000
v -0.495500 0.231000 0.000000
v -0.520500 0.231000 0.100000
v -0.494500 0.239000 0.000000
v -0.519500 0.239000 0.100000
v -0.494500 0.254000 0.000000
v -0.519500 0.254000 0.100000
v -0.496500 0.260000 0.000000
v -0.521500 0.260000 0.100000
v -0.502500 0.264280 0.000000
v -0.527500 0.264280 0.100000
v -0.554500 0.264280 0.000000
v -0.579500 0.264280 0.100000
v -0.560500 0.260000 0.000000
v -0.585500 0.260000 0.100000
v -0.562500 0.254000 0.000000
v -0.587500 0.254000 0.100000
v -0.562500 0.239000 0.000000
v -0.587500 0.239000 0.100000
v -0.561500 0.231000 0.000000
v -0.586500 0.231000 0.100000
v -0.555500 0.225000 0.000000
v -0.580500 0.225000 0.100000
v -0.541500 0.219000 0.000000
v -0.566500 0.219000 0.100000
v -0.537500 0.207000 0.000000
v -0.562500 0.207000 0.100000
v -0.537500 0.145000 0.000000
v -0.562500 0.145000 0.100000
v -0.540500 0.134000 0.000000
v -0.565500 0.134000 0.100000
v -0.554500 0.124000 0.000000
v -0.579500 0.124000 0.100000
v -0.592500 0.113000 0.000000
v -0.617500 0.113000 0.100000
v -0.598500 0.108000 0.000000
v -0.623500 0.108000 0.100000
v -0.598500 0.099422 0.000000
v -0.623500 0.099422 0.100000
v -0.508500 0.108000 0.200000
v -0.508500 0.099422 0.200000
v -0.514500 0.113000 0.200000
v -0.552500 0.124000 0.200000
v -0.566500 0.134000 0.200000
v -0.569500 0.145000 0.200000
v -0.569500 0.207000 0.200000
v -0.565500 0.219000 0.200000
v -0.551500 0.225000 0.200000
v -0.545500 0.231000 0.200000
v -0.544500 0.239000 0.200000
v -0.544500 0.254000 0.200000
v -0.546500 0.260000 0.200000
v -0.552500 0.264280 0.200000
v -0.604500 0.264280 0.200000
v -0.610500 0.260000 0.200000
v -0.612500 0.254000 0.200000
v -0.612500 0.239000 0.200000
v -0.611500 0.231000 0.200000
v -0.605500 0.225000 0.200000
v -0.591500 0.219000 0.200000
v -0.587500 0.207000 0.200000
v -0.587500 0.145000 0.200000
v -0.590500 0.134000 0.200000
v -0.604500 0.124000 0.200000
v -0.642500 0.113000 0.200000
v -0.648500 0.108000 0.200000
v -0.648500 0.099422 0.200000
v -0.533500 0.108000 0.300000
v -0.533500 0.099422 0.300000
v -0.539500 0.113000 0.300000
v -0.577500 0.124000 0.300000
v -0.591500 0.134000 0.300000
v -0.594500 0.145000 0.300000
v -0.594500 0.207000 0.300000
v -0.590500 0.219000 0.300000
v -0.576500 0.225000 0.300000
v -0.570500 0.231000 0.300000
v -0.569500 0.239000 0.300000
v -0.569500 0.254000 0.300000
v -0.571500 0.260000 0.300000
v -0.577500 0.264280 0.300000
v -0.629500 0.264280 0.300000
v -0.635500 0.260000 0.300000
v -0.637500 0.254000 0.300000
v -0.637500 0.239000 0.300000
v -0.636500 0.231000 0.300000
v -0.630500 0.225000 0.300000
v -0.616500 0.219000 0.300000
v -0.612500 0.207000 0.300000
v -0.612500 0.145000 0.300000
v -0.615500 0.134000 0.300000
v -0.629500 0.124000 0.300000
v -0.667500 0.113000 0.300000
v -0.673500 0.108000 0.300000
v -0.673500 0.099422 0.300000
v -0.558500 0.108000 0.400000
v -0.558500 0.099422 0.400000
v -0.564500 0.113000 0.400000
v -0.602500 0.124000 0.400000
v -0.616500 0.134000 0.400000
v -0.619500 0.145000 0.400000
v -0.619500 0.207000 0.400000
v -0.615500 0.219000 0.400000
v -0.601500 0.225000 0.400000
v -0.595500 0.231000 0.400000
v -0.594500 0.239000 0.400000
v -0.594500 0.254000 0.400000
v -0.596500 0.260000 0.400000
v -0.602500 0.264280 0.400000
v -0.654500 0.264280 0.400000
v -0.660500 0.260000 0.400000
v -0.662500 0.254000 0.400000
v -0.662500 0.239000 0.400000
v -0.661500 0.231000 0.400000
v -0.655500 0.225000 0.400000
v -0.641500 0.219000 0.400000
v -0.637500 0.207000 0.400000
v -0.637500 0.145000 0.400000
v -0.640500 0.134000 0.400000
v -0.654500 0.124000 0.400000
v -0.692500 0.113000 0.400000
v -0.698500 0.108000 0.400000
v -0.698500 0.099422 0.400000
v 0.598500 0.099422 0.000000
v 0.598500 0.108000 0.000000
v 0.623500 0.108000 0.100000
v 0.623500 0.099422 0.100000
v 0.592500 0.113000 0.000000
v 0.617500 0.113000 0.100000
v 0.554500 0.124000 0.000000
v 0.579500 0.124000 0.100000
v 0.540500 0.134000 0.000000
v 0.565500 0.134000 0.100000
v 0.537500 0.145000 0.000000
v 0.562500 0.145000 0.100000
v 0.537500 0.207000 0.000000
v 0.562500 0.207000 0.100000
v 0.541500 0.219000 0.000000
v 0.566500 0.219000 0.100000
v 0.555500 0.225000 0.000000
v 0.580500 0.225000 0.100000
v 0.561500 0.231000 0.000000
v 0.586500 0.231000 0.100000
v 0.562500 0.239000 0.000000
v 0.587500 0.239000 0.100000
v 0.562500 0.254000 0.000000
v 0.587500 0.254000 0.100000
v 0.560500 0.260000 0.000000
v 0.585500 0.260000 0.100000
v 0.554500 0.264280 0.000000
v 0.579500 0.264280 0.100000
v 0.502500 0.264280 0.000000
v 0.527500 0.264280 0.100000
v 0.496500 0.260000 0.000000
v 0.521500 0.260000 0.100000
v 0.494500 0.254000 0.000000
v 0.519500 0.254000 0.100000
v 0.494500 0.239000 0.000000
v 0.519500 0.239000 0.100000
v 0.495500 0.231000 0.000000
v 0.520500 0.231000 0.100000
v 0.501500 0.225000 0.000000
v 0.526500 0.225000 0.100000
v 0.515500 0.219000 0.000000
v 0.540500 0.219000 0.100000
v 0.519500 0.207000 0.000000
v 0.544500 0.207000 0.100000
v 0.519500 0.145000 0.000000
v 0.544500 0.145000 0.100000
v 0.516500 0.134000 0.000000
v 0.541500 0.134000 0.100000
v 0.502500 0.124000 0.000000
v 0.527500 0.124000 0.100000
v 0.464500 0.113000 0.000000
v 0.489500 0.113000 0.100000
v 0.458500 0.108000 0.000000
v 0.483500 0.108000 0.100000
v 0.458500 0.099422 0.000000
v 0.483500 0.099422 0.100000
v 0.648500 0.108000 0.200000
v 0.648500 0.099422 0.200000
v 0.642500 0.113000 0.200000
v 0.604500 0.124000 0.200000
v 0.590500 0.134000 0.200000
v 0.587500 0.145000 0.200000
v 0.587500 0.207000 0.200000
v 0.591500 0.219000 0.200000
v 0.605500 0.225000 0.200000
v 0.611500 0.231000 0.200000
v 0.612500 0.239000 0.200000
v 0.612500 0.254000 0.200000
v 0.610500 0.260000 0.200000
v 0.604500 0.264280 0.200000
v 0.552500 0.264280 0.200000
v 0.546500 0.260000 0.200000
v 0.544500 0.254000 0.200000
v 0.544500 0.239000 0.200000
v 0.545500 0.231000 0.200000
v 0.551500 0.225000 0.200000
v 0.565500 0.219000 0.200000
v 0.569500 0.207000 0.200000
v 0.569500 0.145000 0.200000
v 0.566500 0.134000 0.200000
v 0.552500 0.124000 0.200000
v 0.514500 0.113000 0.200000
v 0.508500 0.108000 0.200000
v 0.508500 0.099422 0.200000
v 0.673500 0.108000 0.300000
v 0.673500 0.099422 0.300000
v 0.667500 0.113000 0.300000
v 0.629500 0.124000 0.300000
v 0.615500 0.134000 0.300000
v 0.612500 0.145000 0.300000
v 0.612500 0.207000 0.300000
v 0.616500 0.219000 0.300000
v 0.630500 0.225000 0.300000
v 0.636500 0.231000 0.300000
v 0.637500 0.239000 0.300000
v 0.637500 0.254000 0.300000
v 0.635500 0.260000 0.300000
v 0.629500 0.264280 0.300000
v 0.577500 0.264280 0.300000
v 0.571500 0.260000 0.300000
v 0.569500 0.254000 0.300000
v 0.569500 0.239000 0.300000
v 0.570500 0.231000 0.300000
v 0.576500 0.225000 0.300000
v 0.590500 0.219000 0.300000
v 0.594500 0.207000 0.300000
v 0.594500 0.145000 0.300000
v 0.591500 0.134000 0.300000
v 0.577500 0.124000 0.300000
v 0.539500 0.113000 0.300000
v 0.533500 0.108000 0.300000
v 0.533500 0.099422 0.300000
v 0.698500 0.108000 0.400000
v 0.698500 0.099422 0.400000
v 0.692500 0.113000 0.400000
v 0.654500 0.124000 0.400000
v 0.640500 0.134000 0.400000
v 0.637500 0.145000 0.400000
v 0.637500 0.207000 0.400000
v 0.641500 0.219000 0.400000
v 0.655500 0.225000 0.400000
v 0.661500 0.231000 0.400000
v 0.662500 0.239000 0.400000
v 0.662500 0.254000 0.400000
v 0.660500 0.260000 0.400000
v 0.654500 0.264280 0.400000
v 0.602500 0.264280 0.400000
v 0.596500 0.260000 0.400000
v 0.594500 0.254000 0.400000
v 0.594500 0.239000 0.400000
v 0.595500 0.231000 0.400000
v 0.601500 0.225000 0.400000
v 0.615500 0.219000 0.400000
v 0.619500 0.207000 0.400000
v 0.619500 0.145000 0.400000
v 0.616500 0.134000 0.400000
v 0.602500 0.124000 0.400000
v 0.564500 0.113000 0.400000
v 0.558500 0.108000 0.400000
v 0.558500 0.099422 0.400000
vt 0.01062500 0.50839552
vt 0.01062500 0.53314987
vt 0.32937500 0.53314987
vt 0.32937500 0.50839552
vt 0.01062500 0.54757884
vt 0.32937500 0.54757884
vt 0.01062500 0.57932257
vt 0.32937500 0.57932257
vt 0.01062500 0.60818052
vt 0.32937500 0.60818052
vt 0.01062500 0.63992425
vt 0.32937500 0.63992425
vt 0.01062500 0.81884350
vt 0.32937500 0.81884350
vt 0.01062500 0.85347303
vt 0.32937500 0.85347303
vt 0.01062500 0.87078779
vt 0.32937500 0.87078779
vt 0.01062500 0.88810256
vt 0.32937500 0.88810256
vt 0.01062500 0.91118891
vt 0.32937500 0.91118891
vt 0.01062500 0.95447583
vt 0.32937500 0.95447583
vt 0.01062500 0.97179059
vt 0.32937500 0.97179059
vt 0.34062500 0.97014925
vt 0.34062500 0.92817164
vt 0.65937500 0.92817164
vt 0.65937500 0.97014925
vt 0.34062500 0.56436567
vt 0.65937500 0.56436567
vt 0.34062500 0.52238806
vt 0.65937500 0.52238806
vt 0.01062500 0.57500000
vt 0.32937500 0.57500000
vt 0.98937500 0.50839552
vt 0.67062500 0.50839552
vt 0.67062500 0.53314987
vt 0.68428571 0.54757884
vt 0.77080357 0.57932257
vt 0.80267857 0.60818052
vt 0.80040179 0.85347303
vt 0.76852679 0.87078779
vt 0.75486607 0.88810256
vt 0.75258929 0.91118891
vt 0.75258929 0.95447583
vt 0.75714286 0.97179059
vt 0.77080357 0.98414179
vt 0.80950893 0.81884350
vt 0.88919643 0.98414179
vt 0.90285714 0.97179059
vt 0.90741071 0.95447583
vt 0.90741071 0.91118891
vt 0.90513393 0.88810256
vt 0.89147321 0.87078779
vt 0.85959821 0.85347303
vt 0.85049107 0.81884350
vt 0.80950893 0.63992425
vt 0.85049107 0.63992425
vt 0.85732143 0.60818052
vt 0.88919643 0.57932257
vt 0.97571429 0.54757884
vt 0.98937500 0.53314987
vn 0.97014250 -0.00000000 0.24253563
vn 0.63213954 0.75856745 0.15803489
vn 0.27738868 0.95825179 0.06934717
vn 0.57519731 0.80527623 0.14379933
vn 0.93787002 0.25578273 0.23446751
vn 0.92307692 -0.30769231 0.23076923
vn 0.39202291 -0.91472013 0.09800573
vn 0.69631062 -0.69631062 0.17407766
vn 0.96308682 -0.12038585 0.24077171
vn 0.92307692 0.30769231 0.23076923
vn 0.57469963 0.80565368 0.14367491
vn 0.00000000 1.00000000 0.00000000
vn -0.57469963 0.80565368 -0.14367491
vn -0.92307692 0.30769231 -0.23076923
vn -0.97014250 -0.00000000 -0.24253563
vn -0.96308682 -0.12038585 -0.24077171
vn -0.69631062 -0.69631062 -0.17407766
vn -0.39202291 -0.91472013 -0.09800573
vn -0.92307692 -0.30769231 -0.23076923
vn -0.93787002 0.25578273 -0.23446751
vn -0.57519731 0.80527623 -0.14379933
vn -0.27738868 0.95825179 -0.06934717
vn -0.63213954 0.75856745 -0.15803489
vn 0.00000000 -1.00000000 0.00000000
vn 0.00000000 0.00000000 -1.00000000
vn 0.97014250 0.00000000 -0.24253563
vn 0.63213954 0.75856745 -0.15803489
vn 0.27738868 0.95825179 -0.06934717
vn 0.57519731 0.80527623 -0.14379933
vn 0.93787002 0.25578273 -0.23446751
vn 0.92307692 -0.30769231 -0.23076923
vn 0.39202291 -0.91472013 -0.09800573
vn 0.69631062 -0.69631062 -0.17407766
vn 0.96308682 -0.12038585 -0.24077171
vn 0.92307692 0.30769231 -0.23076923
vn 0.57469963 0.80565368 -0.14367491
vn -0.57469963 0.80565368 0.14367491
vn -0.92307692 0.30769231 0.23076923
vn -0.97014250 0.00000000 0.24253563
vn -0.96308682 -0.12038585 0.24077171
vn -0.69631062 -0.69631062 0.17407766
vn -0.39202291 -0.91472013 0.09800573
vn -0.92307692 -0.30769231 0.23076923
vn -0.93787002 0.25578273 0.23446751
vn -0.57519731 0.80527623 0.14379933
vn -0.27738868 0.95825179 0.06934717
vn -0.63213954 0.75856745 0.15803489
g terminal_left
usemtl mat
f 1/1/1 2/2/1 3/3/1 4/4/1
f 2/2/2 5/5/2 6/6/2 3/3/2
f 5/5/3 7/7/3 8/8/3 6/6/3
f 7/7/4 9/9/4 10/10/4 8/8/4
f 9/9/5 11/11/5 12/12/5 10/10/5
f 11/11/1 13/13/1 14/14/1 12/12/1
f 13/13/6 15/15/6 16/16/6 14/14/6
f 15/15/7 17/17/7 18/18/7 16/16/7
f 17/17/8 19/19/8 20/20/8 18/18/8
f 19/19/9 21/21/9 22/22/9 20/20/9
f 21/21/1 23/23/1 24/24/1 22/22/1
f 23/23/10 25/25/10 26/26/10 24/24/10
f 25/27/11 27/28/11 28/29/11 26/30/11
f 27/28/12 29/31/12 30/32/12 28/29/12
f 29/31/13 31/33/13 32/34/13 30/32/13
f 31/25/14 33/23/14 34/24/14 32/26/14
f 33/23/15 35/21/15 36/22/15 34/24/15
f 35/21/16 37/19/16 38/20/16 36/22/16
f 37/19/17 39/17/17 40/18/17 38/20/17
f 39/17/18 41/15/18 42/16/18 40/18/18
f 41/15/19 43/13/19 44/14/19 42/16/19
f 43/13/15 45/11/15 46/12/15 44/14/15
f 45/11/20 47/9/20 48/10/20 46/12/20
f 47/9/21 49/7/21 50/8/21 48/10/21
f 49/7/22 51/5/22 52/6/22 50/8/22
f 51/5/23 53/2/23 54/3/23 52/6/23
f 53/2/15 55/1/15 56/4/15 54/3/15
f 55/1/24 1/35/24 4/36/24 56/4/24
f 4/1/1 3/2/1 57/3/1 58/4/1
f 3/2/2 6/5/2 59/6/2 57/3/2
f 6/5/3 8/7/3 60/8/3 59/6/3
f 8/7/4 10/9/4 61/10/4 60/8/4
f 10/9/5 12/11/5 62/12/5 61/10/5
f 12/11/1 14/13/1 63/14/1 62/12/1
f 14/13/6 16/15/6 64/16/6 63/14/6
f 16/15/7 18/17/7 65/18/7 64/16/7
f 18/17/8 20/19/8 66/20/8 65/18/8
f 20/19/9 22/21/9 67/22/9 66/20/9
f 22/21/1 24/23/1 68/24/1 67/22/1
f 24/23/10 26/25/10 69/26/10 68/24/10
f 26/27/11 28/28/11 70/29/11 69/30/11
f 28/28/12 30/31/12 71/32/12 70/29/12
f 30/31/13 32/33/13 72/34/13 71/32/13
f 32/25/14 34/23/14 73/24/14 72/26/14
f 34/23/15 36/21/15 74/22/15 73/24/15
f 36/21/16 38/19/16 75/20/16 74/22/16
f 38/19/17 40/17/17 76/18/17 75/20/17
f 40/17/18 42/15/18 77/16/18 76/18/18
f 42/15/19 44/13/19 78/14/19 77/16/19
f 44/13/15 46/11/15 79/12/15 78/14/15
f 46/11/20 48/9/20 80/10/20 79/12/20
f 48/9/21 50/7/21 81/8/21 80/10/21
f 50/7/22 52/5/22 82/6/22 81/8/22
f 52/5/23 54/2/23 83/3/23 82/6/23
f 54/2/15 56/1/15 84/4/15 83/3/15
f 56/1/24 4/35/24 58/36/24 84/4/24
f 58/1/1 57/2/1 85/3/1 86/4/1
f 57/2/2 59/5/2 87/6/2 85/3/2
f 59/5/3 60/7/3 88/8/3 87/6/3
f 60/7/4 61/9/4 89/10/4 88/8/4
f 61/9/5 62/11/5 90/12/5 89/10/5
f 62/11/1 63/13/1 91/14/1 90/12/1
f 63/13/6 64/15/6 92/16/6 91/14/6
f 64/15/7 65/17/7 93/18/7 92/16/7
f 65/17/8 66/19/8 94/20/8 93/18/8
f 66/19/9 67/21/9 95/22/9 94/20/9
f 67/21/1 68/23/1 96/24/1 95/22/1
f 68/23/10 69/25/10 97/26/10 96/24/10
f 69/27/11 70/28/11 98/29/11 97/30/11
f 70/28/12 71/31/12 99/32/12 98/29/12
f 71/31/13 72/33/13 100/34/13 99/32/13
f 72/25/14 73/23/14 101/24/14 100/26/14
f 73/23/15 74/21/15 102/22/15 101/24/15
f 74/21/16 75/19/16 103/20/16 102/22/16
f 75/19/17 76/17/17 104/18/17 103/20/17
f 76/17/18 77/15/18 105/16/18 104/18/18
f 77/15/19 78/13/19 106/14/19 105/16/19
f 78/13/15 79/11/15 107/12/15 106/14/15
f 79/11/20 80/9/20 108/10/20 107/12/20
f 80/9/21 81/7/21 109/8/21 108/10/21
f 81/7/22 82/5/22 110/6/22 109/8/22
f 82/5/23 83/2/23 111/3/23 110/6/23
f 83/2/15 84/1/15 112/4/15 111/3/15
f 84/1/24 58/35/24 86/36/24 112/4/24
f 86/1/1 85/2/1 113/3/1 114/4/1
f 85/2/2 87/5/2 115/6/2 113/3/2
f 87/5/3 88/7/3 116/8/3 115/6/3
f 88/7/4 89/9/4 117/10/4 116/8/4
f 89/9/5 90/11/5 118/12/5 117/10/5
f 90/11/1 91/13/1 119/14/1 118/12/1
f 91/13/6 92/15/6 120/16/6 119/14/6
f 92/15/7 93/17/7 121/18/7 120/16/7
f 93/17/8 94/19/8 122/20/8 121/18/8
f 94/19/9 95/21/9 123/22/9 122/20/9
f 95/21/1 96/23/1 124/24/1 123/22/1
f 96/23/10 97/25/10 125/26/10 124/24/10
f 97/27/11 98/28/11 126/29/11 125/30/11
f 98/28/12 99/31/12 127/32/12 126/29/12
f 99/31/13 100/33/13 128/34/13 127/32/13
f 100/25/14 101/23/14 129/24/14 128/26/14
f 101/23/15 102/21/15 130/22/15 129/24/15
f 102/21/16 103/19/16 131/20/16 130/22/16
f 103/19/17 104/17/17 132/18/17 131/20/17
f 104/17/18 105/15/18 133/16/18 132/18/18
f 105/15/19 106/13/19 134/14/19 133/16/19
f 106/13/15 107/11/15 135/12/15 134/14/15
f 107/11/20 108/9/20 136/10/20 135/12/20
f 108/9/21 109/7/21 137/8/21 136/10/21
f 109/7/22 110/5/22 138/6/22 137/8/22
f 110/5/23 111/2/23 139/3/23 138/6/23
f 111/2/15 112/1/15 140/4/15 139/3/15
f 112/1/24 86/35/24 114/36/24 140/4/24
f 1/37/25 55/38/25 53/39/25
f 1/37/25 53/39/25 51/40/25
f 1/37/25 51/40/25 49/41/25
f 1/37/25 49/41/25 47/42/25
f 41/43/25 39/44/25 37/45/25
f 41/43/25 37/45/25 35/46/25
f 41/43/25 35/46/25 33/47/25
f 41/43/25 33/47/25 31/48/25
f 41/43/25 31/48/25 29/49/25
f 43/50/25 41/43/25 29/49/25
f 43/50/25 29/49/25 27/51/25
f 43/50/25 27/51/25 25/52/25
f 43/50/25 25/52/25 23/53/25
f 43/50/25 23/53/25 21/54/25
f 43/50/25 21/54/25 19/55/25
f 19/55/25 17/56/25 15/57/25
f 43/50/25 19/55/25 15/57/25
f 43/50/25 15/57/25 13/58/25
f 45/59/25 43/50/25 13/58/25
f 47/42/25 45/59/25 13/58/25
f 47/42/25 13/58/25 11/60/25
f 47/42/25 11/60/25 9/61/25
f 47/42/25 9/61/25 7/62/25
f 1/37/25 47/42/25 7/62/25
f 1/37/25 7/62/25 5/63/25
f 5/63/25 2/64/25 1/37/25
g terminal_right
usemtl mat
f 141/1/26 142/2/26 143/3/26 144/4/26
f 142/2/27 145/5/27 146/6/27 143/3/27
f 145/5/28 147/7/28 148/8/28 146/6/28
f 147/7/29 149/9/29 150/10/29 148/8/29
f 149/9/30 151/11/30 152/12/30 150/10/30
f 151/11/26 153/13/26 154/14/26 152/12/26
f 153/13/31 155/15/31 156/16/31 154/14/31
f 155/15/32 157/17/32 158/18/32 156/16/32
f 157/17/33 159/19/33 160/20/33 158/18/33
f 159/19/34 161/21/34 162/22/34 160/20/34
f 161/21/26 163/23/26 164/24/26 162/22/26
f 163/23/35 165/25/35 166/26/35 164/24/35
f 165/27/36 167/28/36 168/29/36 166/30/36
f 167/28/12 169/31/12 170/32/12 168/29/12
f 169/31/37 171/33/37 172/34/37 170/32/37
f 171/25/38 173/23/38 174/24/38 172/26/38
f 173/23/39 175/21/39 176/22/39 174/24/39
f 175/21/40 177/19/40 178/20/40 176/22/40
f 177/19/41 179/17/41 180/18/41 178/20/41
f 179/17/42 181/15/42 182/16/42 180/18/42
f 181/15/43 183/13/43 184/14/43 182/16/43
f 183/13/39 185/11/39 186/12/39 184/14/39
f 185/11/44 187/9/44 188/10/44 186/12/44
f 187/9/45 189/7/45 190/8/45 188/10/45
f 189/7/46 191/5/46 192/6/46 190/8/46
f 191/5/47 193/2/47 194/3/47 192/6/47
f 193/2/39 195/1/39 196/4/39 194/3/39
f 195/1/24 141/35/24 144/36/24 196/4/24
f 144/1/26 143/2/26 197/3/26 198/4/26
f 143/2/27 146/5/27 199/6/27 197/3/27
f 146/5/28 148/7/28 200/8/28 199/6/28
f 148/7/29 150/9/29 201/10/29 200/8/29
f 150/9/30 152/11/30 202/12/30 201/10/30
f 152/11/26 154/13/26 203/14/26 202/12/26
f 154/13/31 156/15/31 204/16/31 203/14/31
f 156/15/32 158/17/32 205/18/32 204/16/32
f 158/17/33 160/19/33 206/20/33 205/18/33
f 160/19/34 162/21/34 207/22/34 206/20/34
f 162/21/26 164/23/26 208/24/26 207/22/26
f 164/23/35 166/25/35 209/26/35 208/24/35
f 166/27/36 168/28/36 210/29/36 209/30/36
f 168/28/12 170/31/12 211/32/12 210/29/12
f 170/31/37 172/33/37 212/34/37 211/32/37
f 172/25/38 174/23/38 213/24/38 212/26/38
f 174/23/39 176/21/39 214/22/39 213/24/39
f 176/21/40 178/19/40 215/20/40 214/22/40
f 178/19/41 180/17/41 216/18/41 215/20/41
f 180/17/42 182/15/42 217/16/42 216/18/42
f 182/15/43 184/13/43 218/14/43 217/16/43
f 184/13/39 186/11/39 219/12/39 218/14/39
f 186/11/44 188/9/44 220/10/44 219/12/44
f 188/9/45 190/7/45 221/8/45 220/10/45
f 190/7/46 192/5/46 222/6/46 221/8/46
f 192/5/47 194/2/47 223/3/47 222/6/47
f 194/2/39 196/1/39 224/4/39 223/3/39
f 196/1/24 144/35/24 198/36/24 224/4/24
f 198/1/26 197/2/26 225/3/26 226/4/26
f 197/2/27 199/5/27 227/6/27 225/3/27
f 199/5/28 200/7/28 228/8/28 227/6/28
f 200/7/29 201/9/29 229/10/29 228/8/29
f 201/9/30 202/11/30 230/12/30 229/10/30
f 202/11/26 203/13/26 231/14/26 230/12/26
f 203/13/31 204/15/31 232/16/31 231/14/31
f 204/15/32 205/17/32 233/18/32 232/16/32
f 205/17/33 206/19/33 234/20/33 233/18/33
f 206/19/34 207/21/34 235/22/34 234/20/34
f 207/21/26 208/23/26 236/24/26 235/22/26
f 208/23/35 209/25/35 237/26/35 236/24/35
f 209/27/36 210/28/36 238/29/36 237/30/36
f 210/28/12 211/31/12 239/32/12 238/29/12
f 211/31/37 212/33/37 240/34/37 239/32/37
f 212/25/38 213/23/38 241/24/38 240/26/38
f 213/23/39 214/21/39 242/22/39 241/24/39
f 214/21/40 215/19/40 243/20/40 242/22/40
f 215/19/41 216/17/41 244/18/41 243/20/41
f 216/17/42 217/15/42 245/16/42 244/18/42
f 217/15/43 218/13/43 246/14/43 245/16/43
f 218/13/39 219/11/39 247/12/39 246/14/39
f 219/11/44 220/9/44 248/10/44 247/12/44
f 220/9/45 221/7/45 249/8/45 248/10/45
f 221/7/46 222/5/46 250/6/46 249/8/46
f 222/5/47 223/2/47 251/3/47 250/6/47
f 223/2/39 224/1/39 252/4/39 251/3/39
f 224/1/24 198/35/24 226/36/24 252/4/24
f 226/1/26 225/2/26 253/3/26 254/4/26
f 225/2/27 227/5/27 255/6/27 253/3/27
f 227/5/28 228/7/28 256/8/28 255/6/28
f 228/7/29 229/9/29 257/10/29 256/8/29
f 229/9/30 230/11/30 258/12/30 257/10/30
f 230/11/26 231/13/26 259/14/26 258/12/26
f 231/13/31 232/15/31 260/16/31 259/14/31
f 232/15/32 233/17/32 261/18/32 260/16/32
f 233/17/33 234/19/33 262/20/33 261/18/33
f 234/19/34 235/21/34 263/22/34 262/20/34
f 235/21/26 236/23/26 264/24/26 263/22/26
f 236/23/35 237/25/35 265/26/35 264/24/35
f 237/27/36 238/28/36 266/29/36 265/30/36
f 238/28/12 239/31/12 267/32/12 266/29/12
f 239/31/37 240/33/37 268/34/37 267/32/37
f 240/25/38 241/23/38 269/24/38 268/26/38
f 241/23/39 242/21/39 270/22/39 269/24/39
f 242/21/40 243/19/40 271/20/40 270/22/40
f 243/19/41 244/17/41 272/18/41 271/20/41
f 244/17/42 245/15/42 273/16/42 272/18/42
f 245/15/43 246/13/43 274/14/43 273/16/43
f 246/13/39 247/11/39 275/12/39 274/14/39
f 247/11/44 248/9/44 276/10/44 275/12/44
f 248/9/45 249/7/45 277/8/45 276/10/45
f 249/7/46 250/5/46 278/6/46 277/8/46
f 250/5/47 251/2/47 279/3/47 278/6/47
f 251/2/39 252/1/39 280/4/39 279/3/39
f 252/1/24 226/35/24 254/36/24 280/4/24
f 141/37/25 195/38/25 193/39/25
f 141/37/25 193/39/25 191/40/25
f 141/37/25 191/40/25 189/41/25
f 141/37/25 189/41/25 187/42/25
f 181/43/25 179/44/25 177/45/25
f 181/43/25 177/45/25 175/46/25
f 181/43/25 175/46/25 173/47/25
f 181/43/25 173/47/25 171/48/25
f 181/43/25 171/48/25 169/49/25
f 183/50/25 181/43/25 169/49/25
f 183/50/25 169/49/25 167/51/25
f 183/50/25 167/51/25 165/52/25
f 183/50/25 165/52/25 163/53/25
f 183/50/25 163/53/25 161/54/25
f 183/50/25 161/54/25 159/55/25
f 159/55/25 157/56/25 155/57/25
f 183/50/25 159/55/25 155/57/25
f 183/50/25 155/57/25 153/58/25
f 185/59/25 183/50/25 153/58/25
f 187/42/25 185/59/25 153/58/25
f 187/42/25 153/58/25 151/60/25
f 187/42/25 151/60/25 149/61/25
f 187/42/25 149/61/25 147/62/25
f 141/37/25 187/42/25 147/62/25
f 141/37/25 147/62/25 145/63/25
f 145/63/25 142/64/25 141/37/25
