# metres; Y up; CCW outward; repeat 0.6 m
mtllib rail_mid.mtl
v -1.850000 -0.304000 -0.300000
v -1.850000 -0.304000 0.000000
v -1.800000 -0.258131 0.000000
v -1.800000 -0.258885 -0.300000
v -1.850000 -0.304000 0.300000
v -1.800000 -0.258885 0.300000
v -1.783750 -0.243412 0.000000
v -1.783750 -0.244412 -0.300000
v -1.783750 -0.244412 0.300000
v -1.717500 -0.185387 0.000000
v -1.717500 -0.187387 -0.300000
v -1.717500 -0.187387 0.300000
v -1.651250 -0.132099 0.000000
v -1.651250 -0.135099 -0.300000
v -1.651250 -0.135099 0.300000
v -1.585000 -0.085000 0.000000
v -1.585000 -0.089000 -0.300000
v -1.585000 -0.089000 0.300000
v -1.518750 -0.044599 0.000000
v -1.518750 -0.049599 -0.300000
v -1.518750 -0.049599 0.300000
v -1.452500 -0.010387 0.000000
v -1.452500 -0.016387 -0.300000
v -1.452500 -0.016387 0.300000
v -1.386250 0.019088 0.000000
v -1.386250 0.012088 -0.300000
v -1.386250 0.012088 0.300000
v -1.414374 0.000000 -0.300000
v -1.386250 0.000000 -0.300000
v -1.386250 0.000000 0.300000
v -1.414374 0.000000 0.300000
v -1.320000 0.046000 0.000000
v -1.320000 0.038000 -0.300000
v -1.320000 0.038000 0.300000
v -1.320000 0.000000 -0.300000
v -1.320000 0.000000 0.300000
v -1.200000 0.034000 0.000000
v -1.200000 0.026000 -0.300000
v -1.200000 0.026000 0.300000
v -1.200000 0.000000 -0.300000
v -1.200000 0.000000 0.300000
v -0.600000 0.034000 0.000000
v -0.600000 0.026000 -0.300000
v -0.600000 0.026000 0.300000
v -0.600000 0.000000 -0.300000
v -0.600000 0.000000 0.300000
v 0.000000 0.034000 0.000000
v 0.000000 0.026000 -0.300000
v 0.000000 0.026000 0.300000
v 0.000000 0.000000 -0.300000
v 0.000000 0.000000 0.300000
v 0.600000 0.034000 0.000000
v 0.600000 0.026000 -0.300000
v 0.600000 0.026000 0.300000
v 0.600000 0.000000 -0.300000
v 0.600000 0.000000 0.300000
v 1.200000 0.034000 0.000000
v 1.200000 0.026000 -0.300000
v 1.200000 0.026000 0.300000
v 1.200000 0.000000 -0.300000
v 1.200000 0.000000 0.300000
v 1.320000 0.046000 0.000000
v 1.320000 0.038000 -0.300000
v 1.320000 0.038000 0.300000
v 1.320000 0.000000 -0.300000
v 1.320000 0.000000 0.300000
v 1.386250 0.019088 0.000000
v 1.386250 0.012088 -0.300000
v 1.386250 0.012088 0.300000
v 1.386250 0.000000 -0.300000
v 1.386250 0.000000 0.300000
v 1.452500 -0.010387 0.000000
v 1.452500 -0.016387 -0.300000
v 1.452500 -0.016387 0.300000
v 1.414374 0.000000 -0.300000
v 1.414374 0.000000 0.300000
v 1.518750 -0.044599 0.000000
v 1.518750 -0.049599 -0.300000
v 1.518750 -0.049599 0.300000
v 1.585000 -0.085000 0.000000
v 1.585000 -0.089000 -0.300000
v 1.585000 -0.089000 0.300000
v 1.651250 -0.132099 0.000000
v 1.651250 -0.135099 -0.300000
v 1.651250 -0.135099 0.300000
v 1.717500 -0.185387 0.000000
v 1.717500 -0.187387 -0.300000
v 1.717500 -0.187387 0.300000
v 1.783750 -0.243412 0.000000
v 1.783750 -0.244412 -0.300000
v 1.783750 -0.244412 0.300000
v 1.800000 -0.258131 0.000000
v 1.800000 -0.258885 -0.300000
v 1.800000 -0.258885 0.300000
v 1.850000 -0.304000 0.000000
v 1.850000 -0.304000 -0.300000
v 1.850000 -0.304000 0.300000
v -1.250000 0.065422 0.096000
v -1.220000 0.066547 0.096000
v -1.220000 0.074547 0.086000
v -1.250000 0.073422 0.086000
v -1.220000 0.074547 -0.086000
v -1.250000 0.073422 -0.086000
v -1.220000 0.066547 -0.096000
v -1.250000 0.065422 -0.096000
v -1.200000 0.067297 0.111000
v -1.200000 0.075297 0.101000
v -1.200000 0.075297 -0.101000
v -1.200000 0.067297 -0.111000
v -0.930000 0.077422 0.111000
v -0.930000 0.085422 0.101000
v -0.930000 0.085422 -0.101000
v -0.930000 0.077422 -0.111000
v -0.751500 0.077422 0.111000
v -0.751500 0.085422 0.101000
v -0.751500 0.085422 -0.101000
v -0.751500 0.077422 -0.111000
v -0.600000 0.077422 0.111000
v -0.600000 0.085422 0.101000
v -0.600000 0.085422 -0.101000
v -0.600000 0.077422 -0.111000
v -0.530000 0.077422 0.111000
v -0.530000 0.085422 0.101000
v -0.530000 0.085422 -0.101000
v -0.530000 0.077422 -0.111000
v -0.400000 0.072463 0.111000
v -0.400000 0.080463 0.101000
v -0.400000 0.080463 -0.101000
v -0.400000 0.072463 -0.111000
v -0.270000 0.060387 0.111000
v -0.270000 0.068387 0.101000
v -0.270000 0.068387 -0.101000
v -0.270000 0.060387 -0.111000
v -0.130000 0.047270 0.111000
v -0.130000 0.055270 0.101000
v -0.130000 0.055270 -0.101000
v -0.130000 0.047270 -0.111000
v 0.000000 0.042311 0.111000
v 0.000000 0.050311 0.101000
v 0.000000 0.050311 -0.101000
v 0.000000 0.042311 -0.111000
v 0.130000 0.047270 0.111000
v 0.130000 0.055270 0.101000
v 0.130000 0.055270 -0.101000
v 0.130000 0.047270 -0.111000
v 0.270000 0.060387 0.111000
v 0.270000 0.068387 0.101000
v 0.270000 0.068387 -0.101000
v 0.270000 0.060387 -0.111000
v 0.400000 0.072463 0.111000
v 0.400000 0.080463 0.101000
v 0.400000 0.080463 -0.101000
v 0.400000 0.072463 -0.111000
v 0.530000 0.077422 0.111000
v 0.530000 0.085422 0.101000
v 0.530000 0.085422 -0.101000
v 0.530000 0.077422 -0.111000
v 0.600000 0.077422 0.111000
v 0.600000 0.085422 0.101000
v 0.600000 0.085422 -0.101000
v 0.600000 0.077422 -0.111000
v 0.751500 0.077422 0.111000
v 0.751500 0.085422 0.101000
v 0.751500 0.085422 -0.101000
v 0.751500 0.077422 -0.111000
v 0.930000 0.077422 0.111000
v 0.930000 0.085422 0.101000
v 0.930000 0.085422 -0.101000
v 0.930000 0.077422 -0.111000
v 1.200000 0.067297 0.111000
v 1.200000 0.075297 0.101000
v 1.200000 0.075297 -0.101000
v 1.200000 0.067297 -0.111000
v 1.220000 0.066547 0.096000
v 1.220000 0.074547 0.086000
v 1.220000 0.074547 -0.086000
v 1.220000 0.066547 -0.096000
v 1.250000 0.065422 0.096000
v 1.250000 0.073422 0.086000
v 1.250000 0.073422 -0.086000
v 1.250000 0.065422 -0.096000
v -0.820500 0.099422 -0.106000
v -0.826500 0.099422 -0.100000
v -0.826500 0.099422 0.100000
v -0.820500 0.099422 0.106000
v -0.682500 0.099422 0.106000
v -0.676500 0.099422 0.100000
v -0.676500 0.099422 -0.100000
v -0.682500 0.099422 -0.106000
v -0.943500 0.095422 -0.103000
v -0.946500 0.095422 -0.100000
v -0.946500 0.095422 0.100000
v -0.943500 0.095422 0.103000
v -0.823500 0.095422 0.103000
v -0.820500 0.095422 0.100000
v -0.820500 0.095422 -0.100000
v -0.823500 0.095422 -0.103000
v -0.948500 0.126422 -0.107000
v -0.950500 0.126422 -0.105000
v -0.950500 0.126422 0.105000
v -0.948500 0.126422 0.107000
v -0.936500 0.126422 0.107000
v -0.934500 0.126422 0.105000
v -0.934500 0.126422 -0.105000
v -0.936500 0.126422 -0.107000
v -0.939500 0.109500 0.105000
v -0.901500 0.109500 0.105000
v -0.901500 0.109500 -0.105000
v -0.939500 0.109500 -0.105000
v -0.827500 0.123500 0.105000
v -0.827500 0.123500 -0.105000
v -0.819500 0.123500 0.105000
v -0.819500 0.123500 -0.105000
v -0.793500 0.129000 0.105000
v -0.793500 0.129000 -0.105000
v -0.874500 0.192000 0.000000
v -0.879500 0.192000 -0.008660
v -0.889500 0.192000 -0.008660
v -0.894500 0.192000 0.000000
v -0.889500 0.192000 0.008660
v -0.879500 0.192000 0.008660
v -0.854500 0.168000 0.000000
v -0.863287 0.168000 -0.021213
v -0.884500 0.168000 -0.030000
v -0.905713 0.168000 -0.021213
v -0.914500 0.168000 0.000000
v -0.905713 0.168000 0.021213
v -0.884500 0.168000 0.030000
v -0.863287 0.168000 0.021213
v -0.864500 0.186000 0.000000
v -0.874500 0.186000 -0.017321
v -0.894500 0.186000 -0.017321
v -0.904500 0.186000 0.000000
v -0.894500 0.186000 0.017321
v -0.874500 0.186000 0.017321
v -0.866500 0.189000 0.000000
v -0.875500 0.189000 -0.015588
v -0.893500 0.189000 -0.015588
v -0.902500 0.189000 0.000000
v -0.893500 0.189000 0.015588
v -0.875500 0.189000 0.015588
v -0.679500 0.095422 -0.103000
v -0.682500 0.095422 -0.100000
v -0.682500 0.095422 0.100000
v -0.679500 0.095422 0.103000
v -0.559500 0.095422 0.103000
v -0.556500 0.095422 0.100000
v -0.556500 0.095422 -0.100000
v -0.559500 0.095422 -0.103000
v -0.566500 0.126422 -0.107000
v -0.568500 0.126422 -0.105000
v -0.568500 0.126422 0.105000
v -0.566500 0.126422 0.107000
v -0.554500 0.126422 0.107000
v -0.552500 0.126422 0.105000
v -0.552500 0.126422 -0.105000
v -0.554500 0.126422 -0.107000
v -0.563500 0.109500 -0.105000
v -0.601500 0.109500 -0.105000
v -0.601500 0.109500 0.105000
v -0.563500 0.109500 0.105000
v -0.675500 0.123500 -0.105000
v -0.675500 0.123500 0.105000
v -0.683500 0.123500 -0.105000
v -0.683500 0.123500 0.105000
v -0.709500 0.129000 -0.105000
v -0.709500 0.129000 0.105000
v -0.608500 0.192000 0.000000
v -0.613500 0.192000 -0.008660
v -0.623500 0.192000 -0.008660
v -0.628500 0.192000 0.000000
v -0.623500 0.192000 0.008660
v -0.613500 0.192000 0.008660
v -0.588500 0.168000 0.000000
v -0.597287 0.168000 -0.021213
v -0.618500 0.168000 -0.030000
v -0.639713 0.168000 -0.021213
v -0.648500 0.168000 0.000000
v -0.639713 0.168000 0.021213
v -0.618500 0.168000 0.030000
v -0.597287 0.168000 0.021213
v -0.598500 0.186000 0.000000
v -0.608500 0.186000 -0.017321
v -0.628500 0.186000 -0.017321
v -0.638500 0.186000 0.000000
v -0.628500 0.186000 0.017321
v -0.608500 0.186000 0.017321
v -0.600500 0.189000 0.000000
v -0.609500 0.189000 -0.015588
v -0.627500 0.189000 -0.015588
v -0.636500 0.189000 0.000000
v -0.627500 0.189000 0.015588
v -0.609500 0.189000 0.015588
v -0.681500 0.099422 -0.300000
v -0.681500 0.108000 -0.300000
v -0.681500 0.108000 0.300000
v -0.681500 0.099422 0.300000
v -0.687500 0.113000 -0.300000
v -0.687500 0.113000 0.300000
v -0.725500 0.124000 -0.300000
v -0.725500 0.124000 0.300000
v -0.739500 0.134000 -0.300000
v -0.739500 0.134000 0.300000
v -0.742500 0.145000 -0.300000
v -0.742500 0.145000 0.300000
v -0.742500 0.207000 -0.300000
v -0.742500 0.207000 0.300000
v -0.738500 0.219000 -0.300000
v -0.738500 0.219000 0.300000
v -0.724500 0.225000 -0.300000
v -0.724500 0.225000 0.300000
v -0.718500 0.231000 -0.300000
v -0.718500 0.231000 0.300000
v -0.717500 0.239000 -0.300000
v -0.717500 0.239000 0.300000
v -0.717500 0.254000 -0.300000
v -0.717500 0.254000 0.300000
v -0.719500 0.260000 -0.300000
v -0.719500 0.260000 0.300000
v -0.725500 0.264280 -0.300000
v -0.725500 0.264280 0.300000
v -0.777500 0.264280 -0.300000
v -0.777500 0.264280 0.300000
v -0.783500 0.260000 -0.300000
v -0.783500 0.260000 0.300000
v -0.785500 0.254000 -0.300000
v -0.785500 0.254000 0.300000
v -0.785500 0.239000 -0.300000
v -0.785500 0.239000 0.300000
v -0.784500 0.231000 -0.300000
v -0.784500 0.231000 0.300000
v -0.778500 0.225000 -0.300000
v -0.778500 0.225000 0.300000
v -0.764500 0.219000 -0.300000
v -0.764500 0.219000 0.300000
v -0.760500 0.207000 -0.300000
v -0.760500 0.207000 0.300000
v -0.760500 0.145000 -0.300000
v -0.760500 0.145000 0.300000
v -0.763500 0.134000 -0.300000
v -0.763500 0.134000 0.300000
v -0.777500 0.124000 -0.300000
v -0.777500 0.124000 0.300000
v -0.815500 0.113000 -0.300000
v -0.815500 0.113000 0.300000
v -0.821500 0.108000 -0.300000
v -0.821500 0.108000 0.300000
v -0.821500 0.099422 -0.300000
v -0.821500 0.099422 0.300000
v 0.682500 0.099422 -0.106000
v 0.676500 0.099422 -0.100000
v 0.676500 0.099422 0.100000
v 0.682500 0.099422 0.106000
v 0.820500 0.099422 0.106000
v 0.826500 0.099422 0.100000
v 0.826500 0.099422 -0.100000
v 0.820500 0.099422 -0.106000
v 0.559500 0.095422 -0.103000
v 0.556500 0.095422 -0.100000
v 0.556500 0.095422 0.100000
v 0.559500 0.095422 0.103000
v 0.679500 0.095422 0.103000
v 0.682500 0.095422 0.100000
v 0.682500 0.095422 -0.100000
v 0.679500 0.095422 -0.103000
v 0.554500 0.126422 -0.107000
v 0.552500 0.126422 -0.105000
v 0.552500 0.126422 0.105000
v 0.554500 0.126422 0.107000
v 0.566500 0.126422 0.107000
v 0.568500 0.126422 0.105000
v 0.568500 0.126422 -0.105000
v 0.566500 0.126422 -0.107000
v 0.563500 0.109500 0.105000
v 0.601500 0.109500 0.105000
v 0.601500 0.109500 -0.105000
v 0.563500 0.109500 -0.105000
v 0.675500 0.123500 0.105000
v 0.675500 0.123500 -0.105000
v 0.683500 0.123500 0.105000
v 0.683500 0.123500 -0.105000
v 0.709500 0.129000 0.105000
v 0.709500 0.129000 -0.105000
v 0.628500 0.192000 0.000000
v 0.623500 0.192000 -0.008660
v 0.613500 0.192000 -0.008660
v 0.608500 0.192000 0.000000
v 0.613500 0.192000 0.008660
v 0.623500 0.192000 0.008660
v 0.648500 0.168000 0.000000
v 0.639713 0.168000 -0.021213
v 0.618500 0.168000 -0.030000
v 0.597287 0.168000 -0.021213
v 0.588500 0.168000 0.000000
v 0.597287 0.168000 0.021213
v 0.618500 0.168000 0.030000
v 0.639713 0.168000 0.021213
v 0.638500 0.186000 0.000000
v 0.628500 0.186000 -0.017321
v 0.608500 0.186000 -0.017321
v 0.598500 0.186000 0.000000
v 0.608500 0.186000 0.017321
v 0.628500 0.186000 0.017321
v 0.636500 0.189000 0.000000
v 0.627500 0.189000 -0.015588
v 0.609500 0.189000 -0.015588
v 0.600500 0.189000 0.000000
v 0.609500 0.189000 0.015588
v 0.627500 0.189000 0.015588
v 0.823500 0.095422 -0.103000
v 0.820500 0.095422 -0.100000
v 0.820500 0.095422 0.100000
v 0.823500 0.095422 0.103000
v 0.943500 0.095422 0.103000
v 0.946500 0.095422 0.100000
v 0.946500 0.095422 -0.100000
v 0.943500 0.095422 -0.103000
v 0.936500 0.126422 -0.107000
v 0.934500 0.126422 -0.105000
v 0.934500 0.126422 0.105000
v 0.936500 0.126422 0.107000
v 0.948500 0.126422 0.107000
v 0.950500 0.126422 0.105000
v 0.950500 0.126422 -0.105000
v 0.948500 0.126422 -0.107000
v 0.939500 0.109500 -0.105000
v 0.901500 0.109500 -0.105000
v 0.901500 0.109500 0.105000
v 0.939500 0.109500 0.105000
v 0.827500 0.123500 -0.105000
v 0.827500 0.123500 0.105000
v 0.819500 0.123500 -0.105000
v 0.819500 0.123500 0.105000
v 0.793500 0.129000 -0.105000
v 0.793500 0.129000 0.105000
v 0.894500 0.192000 0.000000
v 0.889500 0.192000 -0.008660
v 0.879500 0.192000 -0.008660
v 0.874500 0.192000 0.000000
v 0.879500 0.192000 0.008660
v 0.889500 0.192000 0.008660
v 0.914500 0.168000 0.000000
v 0.905713 0.168000 -0.021213
v 0.884500 0.168000 -0.030000
v 0.863287 0.168000 -0.021213
v 0.854500 0.168000 0.000000
v 0.863287 0.168000 0.021213
v 0.884500 0.168000 0.030000
v 0.905713 0.168000 0.021213
v 0.904500 0.186000 0.000000
v 0.894500 0.186000 -0.017321
v 0.874500 0.186000 -0.017321
v 0.864500 0.186000 0.000000
v 0.874500 0.186000 0.017321
v 0.894500 0.186000 0.017321
v 0.902500 0.189000 0.000000
v 0.893500 0.189000 -0.015588
v 0.875500 0.189000 -0.015588
v 0.866500 0.189000 0.000000
v 0.875500 0.189000 0.015588
v 0.893500 0.189000 0.015588
v 0.821500 0.099422 -0.300000
v 0.821500 0.108000 -0.300000
v 0.821500 0.108000 0.300000
v 0.821500 0.099422 0.300000
v 0.815500 0.113000 -0.300000
v 0.815500 0.113000 0.300000
v 0.777500 0.124000 -0.300000
v 0.777500 0.124000 0.300000
v 0.763500 0.134000 -0.300000
v 0.763500 0.134000 0.300000
v 0.760500 0.145000 -0.300000
v 0.760500 0.145000 0.300000
v 0.760500 0.207000 -0.300000
v 0.760500 0.207000 0.300000
v 0.764500 0.219000 -0.300000
v 0.764500 0.219000 0.300000
v 0.778500 0.225000 -0.300000
v 0.778500 0.225000 0.300000
v 0.784500 0.231000 -0.300000
v 0.784500 0.231000 0.300000
v 0.785500 0.239000 -0.300000
v 0.785500 0.239000 0.300000
v 0.785500 0.254000 -0.300000
v 0.785500 0.254000 0.300000
v 0.783500 0.260000 -0.300000
v 0.783500 0.260000 0.300000
v 0.777500 0.264280 -0.300000
v 0.777500 0.264280 0.300000
v 0.725500 0.264280 -0.300000
v 0.725500 0.264280 0.300000
v 0.719500 0.260000 -0.300000
v 0.719500 0.260000 0.300000
v 0.717500 0.254000 -0.300000
v 0.717500 0.254000 0.300000
v 0.717500 0.239000 -0.300000
v 0.717500 0.239000 0.300000
v 0.718500 0.231000 -0.300000
v 0.718500 0.231000 0.300000
v 0.724500 0.225000 -0.300000
v 0.724500 0.225000 0.300000
v 0.738500 0.219000 -0.300000
v 0.738500 0.219000 0.300000
v 0.742500 0.207000 -0.300000
v 0.742500 0.207000 0.300000
v 0.742500 0.145000 -0.300000
v 0.742500 0.145000 0.300000
v 0.739500 0.134000 -0.300000
v 0.739500 0.134000 0.300000
v 0.725500 0.124000 -0.300000
v 0.725500 0.124000 0.300000
v 0.687500 0.113000 -0.300000
v 0.687500 0.113000 0.300000
v 0.681500 0.108000 -0.300000
v 0.681500 0.108000 0.300000
v 0.681500 0.099422 -0.300000
v 0.681500 0.099422 0.300000
vt 0.96281250 0.01585821
vt 0.96281250 0.25373134
vt 0.98937500 0.25373134
vt 0.98937500 0.01585821
vt 0.96281250 0.49160448
vt 0.98937500 0.49160448
vt 0.67062500 0.01585821
vt 0.67062500 0.25373134
vt 0.67925781 0.25373134
vt 0.67925781 0.01585821
vt 0.67062500 0.49160448
vt 0.67925781 0.49160448
vt 0.71445312 0.25373134
vt 0.71445312 0.01585821
vt 0.71445312 0.49160448
vt 0.74964844 0.25373134
vt 0.74964844 0.01585821
vt 0.74964844 0.49160448
vt 0.78484375 0.25373134
vt 0.78484375 0.01585821
vt 0.78484375 0.49160448
vt 0.82003906 0.25373134
vt 0.82003906 0.01585821
vt 0.82003906 0.49160448
vt 0.85523437 0.25373134
vt 0.85523437 0.01585821
vt 0.85523437 0.49160448
vt 0.89042969 0.25373134
vt 0.89042969 0.01585821
vt 0.89042969 0.49160448
vt 0.87548894 0.01585821
vt 0.89042969 0.02544297
vt 0.87548894 0.49160448
vt 0.85523437 0.47861081
vt 0.92562500 0.25373134
vt 0.92562500 0.01585821
vt 0.92562500 0.49160448
vt 0.92562500 0.04598881
vt 0.98937500 0.03647388
vt 0.67062500 0.03647388
vt 0.73437500 0.25373134
vt 0.73437500 0.01585821
vt 0.73437500 0.49160448
vt 0.73437500 0.04598881
vt 0.76957031 0.25373134
vt 0.76957031 0.01585821
vt 0.76957031 0.49160448
vt 0.76957031 0.02544297
vt 0.80476563 0.25373134
vt 0.80476563 0.01585821
vt 0.80476563 0.49160448
vt 0.78451106 0.01585821
vt 0.80476563 0.47861081
vt 0.78451106 0.49160448
vt 0.83996094 0.25373134
vt 0.83996094 0.01585821
vt 0.83996094 0.49160448
vt 0.87515625 0.25373134
vt 0.87515625 0.01585821
vt 0.87515625 0.49160448
vt 0.91035156 0.25373134
vt 0.91035156 0.01585821
vt 0.91035156 0.49160448
vt 0.94554688 0.25373134
vt 0.94554688 0.01585821
vt 0.94554688 0.49160448
vt 0.98074219 0.25373134
vt 0.98074219 0.01585821
vt 0.98074219 0.49160448
vt 0.69718750 0.25373134
vt 0.69718750 0.01585821
vt 0.69718750 0.49160448
vt 0.30281250 0.32985075
vt 0.31875000 0.32985075
vt 0.31875000 0.32192164
vt 0.30281250 0.32192164
vt 0.31875000 0.18554104
vt 0.30281250 0.18554104
vt 0.31875000 0.17761194
vt 0.30281250 0.17761194
vt 0.32937500 0.34174440
vt 0.32937500 0.33381530
vt 0.32937500 0.17364739
vt 0.32937500 0.16571828
vt 0.01062500 0.34174440
vt 0.15406250 0.34174440
vt 0.15406250 0.33381530
vt 0.01062500 0.33381530
vt 0.15406250 0.17364739
vt 0.01062500 0.17364739
vt 0.15406250 0.16571828
vt 0.01062500 0.16571828
vt 0.24889063 0.34174440
vt 0.24889063 0.33381530
vt 0.24889063 0.17364739
vt 0.24889063 0.16571828
vt 0.04781250 0.34174440
vt 0.04781250 0.33381530
vt 0.04781250 0.17364739
vt 0.04781250 0.16571828
vt 0.11687500 0.34174440
vt 0.11687500 0.33381530
vt 0.11687500 0.17364739
vt 0.11687500 0.16571828
vt 0.18593750 0.34174440
vt 0.18593750 0.33381530
vt 0.18593750 0.17364739
vt 0.18593750 0.16571828
vt 0.26031250 0.34174440
vt 0.26031250 0.33381530
vt 0.26031250 0.17364739
vt 0.26031250 0.16571828
vt 0.07968750 0.34174440
vt 0.07968750 0.33381530
vt 0.07968750 0.17364739
vt 0.07968750 0.16571828
vt 0.22312500 0.34174440
vt 0.22312500 0.33381530
vt 0.22312500 0.17364739
vt 0.22312500 0.16571828
vt 0.29218750 0.34174440
vt 0.29218750 0.33381530
vt 0.29218750 0.17364739
vt 0.29218750 0.16571828
vt 0.09110937 0.34174440
vt 0.09110937 0.33381530
vt 0.09110937 0.17364739
vt 0.09110937 0.16571828
vt 0.02125000 0.32985075
vt 0.02125000 0.32192164
vt 0.02125000 0.18554104
vt 0.02125000 0.17761194
vt 0.03718750 0.32985075
vt 0.03718750 0.32192164
vt 0.03718750 0.18554104
vt 0.03718750 0.17761194
vt 0.04250000 0.41231343
vt 0.29750000 0.41231343
vt 0.28421875 0.44402985
vt 0.05578125 0.44402985
vt 0.61016000 0.31082090
vt 0.60837500 0.31566812
vt 0.60837500 0.47724233
vt 0.61016000 0.48208955
vt 0.65121500 0.48208955
vt 0.65300000 0.47724233
vt 0.65300000 0.31566812
vt 0.65121500 0.31082090
vt 0.34631696 0.01585821
vt 0.34062500 0.02278655
vt 0.34062500 0.48467613
vt 0.34631696 0.49160448
vt 0.57399554 0.49160448
vt 0.57968750 0.48467613
vt 0.57968750 0.02278655
vt 0.57399554 0.01585821
vt 0.61395312 0.02537313
vt 0.60837500 0.02697378
vt 0.60837500 0.19504115
vt 0.61395312 0.19664179
vt 0.64742188 0.19664179
vt 0.65300000 0.19504115
vt 0.65300000 0.02697378
vt 0.64742188 0.02537313
vt 0.34062500 0.49160448
vt 0.57968750 0.49160448
vt 0.57968750 0.01585821
vt 0.34062500 0.01585821
vt 0.57968750 0.25373134
vt 0.51992188 0.04772717
vt 0.40039062 0.04772717
vt 0.34062500 0.25373134
vt 0.40039062 0.45973552
vt 0.51992188 0.45973552
vt 0.54467761 0.08552964
vt 0.46015625 0.01585821
vt 0.37563489 0.08552964
vt 0.37563489 0.42193305
vt 0.46015625 0.49160448
vt 0.54467761 0.42193305
vt 0.01062500 0.50839552
vt 0.01062500 0.53314987
vt 0.32937500 0.53314987
vt 0.32937500 0.50839552
vt 0.01062500 0.54757884
vt 0.32937500 0.54757884
vt 0.01062500 0.57932257
vt 0.32937500 0.57932257
vt 0.01062500 0.60818052
vt 0.32937500 0.60818052
vt 0.01062500 0.63992425
vt 0.32937500 0.63992425
vt 0.01062500 0.81884350
vt 0.32937500 0.81884350
vt 0.01062500 0.85347303
vt 0.32937500 0.85347303
vt 0.01062500 0.87078779
vt 0.32937500 0.87078779
vt 0.01062500 0.88810256
vt 0.32937500 0.88810256
vt 0.01062500 0.91118891
vt 0.32937500 0.91118891
vt 0.01062500 0.95447583
vt 0.32937500 0.95447583
vt 0.01062500 0.97179059
vt 0.32937500 0.97179059
vt 0.34062500 0.97014925
vt 0.34062500 0.92817164
vt 0.65937500 0.92817164
vt 0.65937500 0.97014925
vt 0.34062500 0.56436567
vt 0.65937500 0.56436567
vt 0.34062500 0.52238806
vt 0.65937500 0.52238806
vt 0.01062500 0.57500000
vt 0.32937500 0.57500000
vt 0.98937500 0.50839552
vt 0.67062500 0.50839552
vt 0.67062500 0.53314987
vt 0.68428571 0.54757884
vt 0.77080357 0.57932257
vt 0.80267857 0.60818052
vt 0.80040179 0.85347303
vt 0.76852679 0.87078779
vt 0.75486607 0.88810256
vt 0.75258929 0.91118891
vt 0.75258929 0.95447583
vt 0.75714286 0.97179059
vt 0.77080357 0.98414179
vt 0.80950893 0.81884350
vt 0.88919643 0.98414179
vt 0.90285714 0.97179059
vt 0.90741071 0.95447583
vt 0.90741071 0.91118891
vt 0.90513393 0.88810256
vt 0.89147321 0.87078779
vt 0.85959821 0.85347303
vt 0.85049107 0.81884350
vt 0.80950893 0.63992425
vt 0.85049107 0.63992425
vt 0.85732143 0.60818052
vt 0.88919643 0.57932257
vt 0.97571429 0.54757884
vt 0.98937500 0.53314987
vn -0.67601314 0.73688957 0.00000000
vn -0.66990359 0.74244575 -0.00186779
vn -0.66990476 0.74244705 0.00000000
vn -0.67601198 0.73688830 0.00185381
vn -0.67132147 0.74116396 -0.00186456
vn -0.66510533 0.74674541 -0.00248915
vn -0.66510621 0.74674641 0.00187861
vn -0.67132058 0.74116299 0.00247054
vn -0.65886181 0.75225981 -0.00250753
vn -0.65235724 0.75789478 -0.00505263
vn -0.65236349 0.75790204 0.00252634
vn -0.65885560 0.75225272 0.00501502
vn -0.62674989 0.77920318 -0.00519469
vn -0.61951841 0.78494288 -0.00784943
vn -0.61952901 0.78495632 0.00523304
vn -0.62673932 0.77919004 0.00779190
vn -0.57940804 0.81499687 -0.00814997
vn -0.57113334 0.82078434 -0.01094379
vn -0.57114831 0.82080585 0.00820806
vn -0.57939307 0.81497582 0.01086634
vn -0.52061463 0.85371590 -0.01138288
vn -0.51110737 0.85939752 -0.01432329
vn -0.51112625 0.85942926 0.01145906
vn -0.52059566 0.85368479 0.01422808
vn -0.45878801 0.88842238 -0.01480704
vn -0.44808089 0.89381427 -0.01787629
vn -0.44810276 0.89385792 0.01489763
vn -0.45876588 0.88837953 0.01776759
vn -0.40642676 0.91350068 -0.01827001
vn -0.39479511 0.91851918 -0.02143211
vn -0.39481917 0.91857515 0.01837150
vn -0.40640227 0.91344563 0.02131373
vn 0.00000000 0.00000000 -1.00000000
vn 0.00000000 0.00000000 1.00000000
vn -0.37626353 0.92626057 -0.02161275
vn -0.36414097 0.93101287 -0.02482701
vn -0.36416728 0.93108013 0.02172520
vn -0.37623663 0.92619435 0.02469852
vn 0.09946871 0.99468709 -0.02652499
vn 0.09946871 0.99468709 0.02652499
vn 0.00000000 0.99964463 -0.02665719
vn -0.00000000 0.99964463 0.02665719
vn -0.09946871 0.99468709 -0.02652499
vn -0.09946871 0.99468709 0.02652499
vn 0.37623663 0.92619435 -0.02469852
vn 0.36416728 0.93108013 -0.02172520
vn 0.36414097 0.93101287 0.02482701
vn 0.37626353 0.92626057 0.02161275
vn 0.40640227 0.91344563 -0.02131373
vn 0.39481917 0.91857515 -0.01837150
vn 0.39479511 0.91851918 0.02143211
vn 0.40642676 0.91350068 0.01827001
vn 0.45876588 0.88837953 -0.01776759
vn 0.44810276 0.89385792 -0.01489763
vn 0.44808089 0.89381427 0.01787629
vn 0.45878801 0.88842238 0.01480704
vn 0.52059566 0.85368479 -0.01422808
vn 0.51112625 0.85942926 -0.01145906
vn 0.51110737 0.85939752 0.01432329
vn 0.52061463 0.85371590 0.01138288
vn 0.57939307 0.81497582 -0.01086634
vn 0.57114831 0.82080585 -0.00820806
vn 0.57113334 0.82078434 0.01094379
vn 0.57940804 0.81499687 0.00814997
vn 0.62673932 0.77919004 -0.00779190
vn 0.61952901 0.78495632 -0.00523304
vn 0.61951841 0.78494288 0.00784943
vn 0.62674989 0.77920318 0.00519469
vn 0.65885560 0.75225272 -0.00501502
vn 0.65236349 0.75790204 -0.00252634
vn 0.65235724 0.75789478 0.00505263
vn 0.65886181 0.75225981 0.00250753
vn 0.67132058 0.74116299 -0.00247054
vn 0.66510621 0.74674641 -0.00187861
vn 0.66510533 0.74674541 0.00248915
vn 0.67132147 0.74116396 0.00186456
vn 0.67601198 0.73688830 -0.00185381
vn 0.66990476 0.74244705 0.00000000
vn 0.66990359 0.74244575 0.00186779
vn 0.67601314 0.73688957 0.00000000
vn -0.02927003 0.78053424 0.62442739
vn -0.03747366 0.99929762 0.00000000
vn -0.02927003 0.78053424 -0.62442739
vn -0.44564010 0.69904329 0.55923463
vn -0.44564010 0.69904329 -0.55923463
vn -0.00000000 0.78086881 0.62469505
vn -0.00000000 1.00000000 0.00000000
vn 0.00000000 0.78086881 -0.62469505
vn 0.02977574 0.78052258 0.62441806
vn 0.03812074 0.99927314 0.00000000
vn 0.02977574 0.78052258 -0.62441806
vn 0.07234645 0.77882259 0.62305807
vn 0.09249388 0.99571325 0.00000000
vn 0.07234645 0.77882259 -0.62305807
vn 0.07296363 0.77878748 0.62302999
vn 0.09328027 0.99563989 0.00000000
vn 0.07296363 0.77878748 -0.62302999
vn -0.02977574 0.78052258 0.62441806
vn -0.03812074 0.99927314 0.00000000
vn -0.02977574 0.78052258 -0.62441806
vn -0.07296363 0.77878748 0.62302999
vn -0.09328027 0.99563989 0.00000000
vn -0.07296363 0.77878748 -0.62302999
vn -0.07234645 0.77882259 0.62305807
vn -0.09249388 0.99571325 0.00000000
vn -0.07234645 0.77882259 -0.62305807
vn 0.02927003 0.78053424 0.62442739
vn 0.03747366 0.99929762 0.00000000
vn 0.02927003 0.78053424 -0.62442739
vn 0.44564010 0.69904329 0.55923463
vn 0.44564010 0.69904329 -0.55923463
vn -1.00000000 0.00000000 0.00000000
vn -0.18589167 0.98257025 0.00000000
vn -0.20695859 0.97834970 0.00000000
vn 0.18589167 0.98257025 0.00000000
vn 0.20695859 0.97834970 0.00000000
vn 1.00000000 0.00000000 0.00000000
vn 0.64018440 0.76822128 0.00000000
vn 0.27805808 0.96056426 0.00000000
vn 0.58123819 0.81373347 0.00000000
vn 0.96476382 0.26311741 0.00000000
vn 0.94868330 -0.31622777 0.00000000
vn 0.39391930 -0.91914503 0.00000000
vn 0.70710678 -0.70710678 0.00000000
vn 0.99227788 -0.12403473 0.00000000
vn 0.94868330 0.31622777 0.00000000
vn 0.58072468 0.81410002 0.00000000
vn -0.58072468 0.81410002 0.00000000
vn -0.94868330 0.31622777 0.00000000
vn -0.99227788 -0.12403473 0.00000000
vn -0.70710678 -0.70710678 0.00000000
vn -0.39391930 -0.91914503 0.00000000
vn -0.94868330 -0.31622777 0.00000000
vn -0.96476382 0.26311741 0.00000000
vn -0.58123819 0.81373347 0.00000000
vn -0.27805808 0.96056426 0.00000000
vn -0.64018440 0.76822128 0.00000000
vn 0.00000000 -1.00000000 0.00000000
g ballast
usemtl mat
f 1/1/1 2/2/1 3/3/1
f 3/3/2 4/4/2 1/1/2
f 2/2/3 5/5/3 6/6/3
f 6/6/4 3/3/4 2/2/4
f 4/7/5 3/8/5 7/9/5
f 7/9/6 8/10/6 4/7/6
f 3/8/7 6/11/7 9/12/7
f 9/12/8 7/9/8 3/8/8
f 8/10/9 7/9/9 10/13/9
f 10/13/10 11/14/10 8/10/10
f 7/9/11 9/12/11 12/15/11
f 12/15/12 10/13/12 7/9/12
f 11/14/13 10/13/13 13/16/13
f 13/16/14 14/17/14 11/14/14
f 10/13/15 12/15/15 15/18/15
f 15/18/16 13/16/16 10/13/16
f 14/17/17 13/16/17 16/19/17
f 16/19/18 17/20/18 14/17/18
f 13/16/19 15/18/19 18/21/19
f 18/21/20 16/19/20 13/16/20
f 17/20/21 16/19/21 19/22/21
f 19/22/22 20/23/22 17/20/22
f 16/19/23 18/21/23 21/24/23
f 21/24/24 19/22/24 16/19/24
f 20/23/25 19/22/25 22/25/25
f 22/25/26 23/26/26 20/23/26
f 19/22/27 21/24/27 24/27/27
f 24/27/28 22/25/28 19/22/28
f 23/26/29 22/25/29 25/28/29
f 25/28/30 26/29/30 23/26/30
f 22/25/31 24/27/31 27/30/31
f 27/30/32 25/28/32 22/25/32
f 28/31/33 26/32/33 29/29/33
f 30/30/34 31/33/34 24/34/34
f 30/29/34 27/32/34 31/31/34
f 26/29/35 25/28/35 32/35/35
f 32/35/36 33/36/36 26/29/36
f 25/28/37 27/30/37 34/37/37
f 34/37/38 32/35/38 25/28/38
f 29/29/33 26/32/33 33/38/33 35/36/33
f 36/36/34 34/38/34 27/32/34 30/29/34
f 32/35/39 37/3/39 38/4/39 33/36/39
f 34/37/40 39/6/40 37/3/40 32/35/40
f 35/36/33 33/38/33 38/39/33 40/4/33
f 41/4/34 39/39/34 34/38/34 36/36/34
f 37/8/41 42/3/41 43/4/41 38/7/41
f 39/11/42 44/6/42 42/3/42 37/8/42
f 40/7/33 38/40/33 43/39/33 45/4/33
f 46/4/34 44/39/34 39/40/34 41/7/34
f 42/8/41 47/3/41 48/4/41 43/7/41
f 44/11/42 49/6/42 47/3/42 42/8/42
f 45/7/33 43/40/33 48/39/33 50/4/33
f 51/4/34 49/39/34 44/40/34 46/7/34
f 47/8/41 52/3/41 53/4/41 48/7/41
f 49/11/42 54/6/42 52/3/42 47/8/42
f 50/7/33 48/40/33 53/39/33 55/4/33
f 56/4/34 54/39/34 49/40/34 51/7/34
f 52/8/41 57/3/41 58/4/41 53/7/41
f 54/11/42 59/6/42 57/3/42 52/8/42
f 55/7/33 53/40/33 58/39/33 60/4/33
f 61/4/34 59/39/34 54/40/34 56/7/34
f 57/8/43 62/41/43 63/42/43 58/7/43
f 59/11/44 64/43/44 62/41/44 57/8/44
f 60/7/33 58/40/33 63/44/33 65/42/33
f 66/42/34 64/44/34 59/40/34 61/7/34
f 63/42/45 62/41/45 67/45/45
f 67/45/46 68/46/46 63/42/46
f 62/41/47 64/43/47 69/47/47
f 69/47/48 67/45/48 62/41/48
f 65/42/33 63/44/33 68/48/33 70/46/33
f 71/46/34 69/48/34 64/44/34 66/42/34
f 68/46/49 67/45/49 72/49/49
f 72/49/50 73/50/50 68/46/50
f 67/45/51 69/47/51 74/51/51
f 74/51/52 72/49/52 67/45/52
f 70/46/33 68/48/33 75/52/33
f 74/53/34 76/54/34 71/47/34
f 76/52/34 69/48/34 71/46/34
f 73/50/53 72/49/53 77/55/53
f 77/55/54 78/56/54 73/50/54
f 72/49/55 74/51/55 79/57/55
f 79/57/56 77/55/56 72/49/56
f 78/56/57 77/55/57 80/58/57
f 80/58/58 81/59/58 78/56/58
f 77/55/59 79/57/59 82/60/59
f 82/60/60 80/58/60 77/55/60
f 81/59/61 80/58/61 83/61/61
f 83/61/62 84/62/62 81/59/62
f 80/58/63 82/60/63 85/63/63
f 85/63/64 83/61/64 80/58/64
f 84/62/65 83/61/65 86/64/65
f 86/64/66 87/65/66 84/62/66
f 83/61/67 85/63/67 88/66/67
f 88/66/68 86/64/68 83/61/68
f 87/65/69 86/64/69 89/67/69
f 89/67/70 90/68/70 87/65/70
f 86/64/71 88/66/71 91/69/71
f 91/69/72 89/67/72 86/64/72
f 90/68/73 89/67/73 92/3/73
f 92/3/74 93/4/74 90/68/74
f 89/67/75 91/69/75 94/6/75
f 94/6/76 92/3/76 89/67/76
f 93/7/77 92/8/77 95/70/77
f 95/70/78 96/71/78 93/7/78
f 92/8/79 94/11/79 97/72/79
f 97/72/80 95/70/80 92/8/80
g sleeper
usemtl mat
f 98/73/81 99/74/81 100/75/81 101/76/81
f 101/76/82 100/75/82 102/77/82 103/78/82
f 103/78/83 102/77/83 104/79/83 105/80/83
f 99/74/84 106/81/84 107/82/84 100/75/84
f 100/75/82 107/82/82 108/83/82 102/77/82
f 102/77/85 108/83/85 109/84/85 104/79/85
f 106/85/81 110/86/81 111/87/81 107/88/81
f 107/88/82 111/87/82 112/89/82 108/90/82
f 108/90/83 112/89/83 113/91/83 109/92/83
f 110/86/86 114/93/86 115/94/86 111/87/86
f 111/87/87 115/94/87 116/95/87 112/89/87
f 112/89/88 116/95/88 117/96/88 113/91/88
f 114/93/86 118/81/86 119/82/86 115/94/86
f 115/94/87 119/82/87 120/83/87 116/95/87
f 116/95/88 120/83/88 121/84/88 117/96/88
f 118/85/86 122/97/86 123/98/86 119/88/86
f 119/88/87 123/98/87 124/99/87 120/90/87
f 120/90/88 124/99/88 125/100/88 121/92/88
f 122/97/89 126/101/89 127/102/89 123/98/89
f 123/98/90 127/102/90 128/103/90 124/99/90
f 124/99/91 128/103/91 129/104/91 125/100/91
f 126/101/92 130/105/92 131/106/92 127/102/92
f 127/102/93 131/106/93 132/107/93 128/103/93
f 128/103/94 132/107/94 133/108/94 129/104/94
f 130/105/95 134/109/95 135/110/95 131/106/95
f 131/106/96 135/110/96 136/111/96 132/107/96
f 132/107/97 136/111/97 137/112/97 133/108/97
f 134/109/89 138/81/89 139/82/89 135/110/89
f 135/110/90 139/82/90 140/83/90 136/111/90
f 136/111/91 140/83/91 141/84/91 137/112/91
f 138/85/98 142/113/98 143/114/98 139/88/98
f 139/88/99 143/114/99 144/115/99 140/90/99
f 140/90/100 144/115/100 145/116/100 141/92/100
f 142/113/101 146/86/101 147/87/101 143/114/101
f 143/114/102 147/87/102 148/89/102 144/115/102
f 144/115/103 148/89/103 149/91/103 145/116/103
f 146/86/104 150/117/104 151/118/104 147/87/104
f 147/87/105 151/118/105 152/119/105 148/89/105
f 148/89/106 152/119/106 153/120/106 149/91/106
f 150/117/98 154/121/98 155/122/98 151/118/98
f 151/118/99 155/122/99 156/123/99 152/119/99
f 152/119/100 156/123/100 157/124/100 153/120/100
f 154/121/86 158/81/86 159/82/86 155/122/86
f 155/122/87 159/82/87 160/83/87 156/123/87
f 156/123/88 160/83/88 161/84/88 157/124/88
f 158/85/86 162/125/86 163/126/86 159/88/86
f 159/88/87 163/126/87 164/127/87 160/90/87
f 160/90/88 164/127/88 165/128/88 161/92/88
f 162/125/86 166/105/86 167/106/86 163/126/86
f 163/126/87 167/106/87 168/107/87 164/127/87
f 164/127/88 168/107/88 169/108/88 165/128/88
f 166/105/107 170/81/107 171/82/107 167/106/107
f 167/106/108 171/82/108 172/83/108 168/107/108
f 168/107/109 172/83/109 173/84/109 169/108/109
f 170/85/110 174/129/110 175/130/110 171/88/110
f 171/88/108 175/130/108 176/131/108 172/90/108
f 172/90/111 176/131/111 177/132/111 173/92/111
f 174/129/107 178/133/107 179/134/107 175/130/107
f 175/130/108 179/134/108 180/135/108 176/131/108
f 176/131/109 180/135/109 181/136/109 177/132/109
f 105/137/112 98/138/112 101/139/112
f 101/139/112 103/140/112 105/137/112
g fastener_left
usemtl mat
f 182/141/87 183/142/87 184/143/87
f 182/141/87 184/143/87 185/144/87
f 182/141/87 185/144/87 186/145/87
f 182/141/87 186/145/87 187/146/87
f 182/141/87 187/146/87 188/147/87
f 188/147/87 189/148/87 182/141/87
f 190/149/87 191/150/87 192/151/87
f 190/149/87 192/151/87 193/152/87
f 190/149/87 193/152/87 194/153/87
f 190/149/87 194/153/87 195/154/87
f 190/149/87 195/154/87 196/155/87
f 196/155/87 197/156/87 190/149/87
f 198/157/87 199/158/87 200/159/87
f 198/157/87 200/159/87 201/160/87
f 198/157/87 201/160/87 202/161/87
f 198/157/87 202/161/87 203/162/87
f 198/157/87 203/162/87 204/163/87
f 204/163/87 205/164/87 198/157/87
f 206/165/87 207/166/87 208/167/87 209/168/87
f 207/165/113 210/166/113 211/167/113 208/168/113
f 210/165/87 212/166/87 213/167/87 211/168/87
f 212/165/114 214/166/114 215/167/114 213/168/114
f 216/169/87 217/170/87 218/171/87
f 216/169/87 218/171/87 219/172/87
f 216/169/87 219/172/87 220/173/87
f 220/173/87 221/174/87 216/169/87
f 222/169/87 223/175/87 224/176/87
f 222/169/87 224/176/87 225/177/87
f 222/169/87 225/177/87 226/172/87
f 222/169/87 226/172/87 227/178/87
f 222/169/87 227/178/87 228/179/87
f 228/179/87 229/180/87 222/169/87
f 230/169/87 231/170/87 232/171/87
f 230/169/87 232/171/87 233/172/87
f 230/169/87 233/172/87 234/173/87
f 234/173/87 235/174/87 230/169/87
f 236/169/87 237/170/87 238/171/87
f 236/169/87 238/171/87 239/172/87
f 236/169/87 239/172/87 240/173/87
f 240/173/87 241/174/87 236/169/87
f 242/149/87 243/150/87 244/151/87
f 242/149/87 244/151/87 245/152/87
f 242/149/87 245/152/87 246/153/87
f 242/149/87 246/153/87 247/154/87
f 242/149/87 247/154/87 248/155/87
f 248/155/87 249/156/87 242/149/87
f 250/157/87 251/158/87 252/159/87
f 250/157/87 252/159/87 253/160/87
f 250/157/87 253/160/87 254/161/87
f 250/157/87 254/161/87 255/162/87
f 250/157/87 255/162/87 256/163/87
f 256/163/87 257/164/87 250/157/87
f 258/168/87 259/167/87 260/166/87 261/165/87
f 259/168/115 262/167/115 263/166/115 260/165/115
f 262/168/87 264/167/87 265/166/87 263/165/87
f 264/168/116 266/167/116 267/166/116 265/165/116
f 268/169/87 269/170/87 270/171/87
f 268/169/87 270/171/87 271/172/87
f 268/169/87 271/172/87 272/173/87
f 272/173/87 273/174/87 268/169/87
f 274/169/87 275/175/87 276/176/87
f 274/169/87 276/176/87 277/177/87
f 274/169/87 277/177/87 278/172/87
f 274/169/87 278/172/87 279/178/87
f 274/169/87 279/178/87 280/179/87
f 280/179/87 281/180/87 274/169/87
f 282/169/87 283/170/87 284/171/87
f 282/169/87 284/171/87 285/172/87
f 282/169/87 285/172/87 286/173/87
f 286/173/87 287/174/87 282/169/87
f 288/169/87 289/170/87 290/171/87
f 288/169/87 290/171/87 291/172/87
f 288/169/87 291/172/87 292/173/87
f 292/173/87 293/174/87 288/169/87
g rail_left
usemtl mat
f 294/181/117 295/182/117 296/183/117 297/184/117
f 295/182/118 298/185/118 299/186/118 296/183/118
f 298/185/119 300/187/119 301/188/119 299/186/119
f 300/187/120 302/189/120 303/190/120 301/188/120
f 302/189/121 304/191/121 305/192/121 303/190/121
f 304/191/117 306/193/117 307/194/117 305/192/117
f 306/193/122 308/195/122 309/196/122 307/194/122
f 308/195/123 310/197/123 311/198/123 309/196/123
f 310/197/124 312/199/124 313/200/124 311/198/124
f 312/199/125 314/201/125 315/202/125 313/200/125
f 314/201/117 316/203/117 317/204/117 315/202/117
f 316/203/126 318/205/126 319/206/126 317/204/126
f 318/207/127 320/208/127 321/209/127 319/210/127
f 320/208/87 322/211/87 323/212/87 321/209/87
f 322/211/128 324/213/128 325/214/128 323/212/128
f 324/205/129 326/203/129 327/204/129 325/206/129
f 326/203/112 328/201/112 329/202/112 327/204/112
f 328/201/130 330/199/130 331/200/130 329/202/130
f 330/199/131 332/197/131 333/198/131 331/200/131
f 332/197/132 334/195/132 335/196/132 333/198/132
f 334/195/133 336/193/133 337/194/133 335/196/133
f 336/193/112 338/191/112 339/192/112 337/194/112
f 338/191/134 340/189/134 341/190/134 339/192/134
f 340/189/135 342/187/135 343/188/135 341/190/135
f 342/187/136 344/185/136 345/186/136 343/188/136
f 344/185/137 346/182/137 347/183/137 345/186/137
f 346/182/112 348/181/112 349/184/112 347/183/112
f 348/181/138 294/215/138 297/216/138 349/184/138
g rail_left_end
usemtl mat
f 294/217/33 348/218/33 346/219/33
f 294/217/33 346/219/33 344/220/33
f 294/217/33 344/220/33 342/221/33
f 294/217/33 342/221/33 340/222/33
f 334/223/33 332/224/33 330/225/33
f 334/223/33 330/225/33 328/226/33
f 334/223/33 328/226/33 326/227/33
f 334/223/33 326/227/33 324/228/33
f 334/223/33 324/228/33 322/229/33
f 336/230/33 334/223/33 322/229/33
f 336/230/33 322/229/33 320/231/33
f 336/230/33 320/231/33 318/232/33
f 336/230/33 318/232/33 316/233/33
f 336/230/33 316/233/33 314/234/33
f 336/230/33 314/234/33 312/235/33
f 312/235/33 310/236/33 308/237/33
f 336/230/33 312/235/33 308/237/33
f 336/230/33 308/237/33 306/238/33
f 338/239/33 336/230/33 306/238/33
f 340/222/33 338/239/33 306/238/33
f 340/222/33 306/238/33 304/240/33
f 340/222/33 304/240/33 302/241/33
f 340/222/33 302/241/33 300/242/33
f 294/217/33 340/222/33 300/242/33
f 294/217/33 300/242/33 298/243/33
f 298/243/33 295/244/33 294/217/33
f 349/218/34 297/217/34 296/244/34
f 349/218/34 296/244/34 299/243/34
f 349/218/34 299/243/34 301/242/34
f 349/218/34 301/242/34 303/241/34
f 309/237/34 311/236/34 313/235/34
f 309/237/34 313/235/34 315/234/34
f 309/237/34 315/234/34 317/233/34
f 309/237/34 317/233/34 319/232/34
f 309/237/34 319/232/34 321/231/34
f 307/238/34 309/237/34 321/231/34
f 307/238/34 321/231/34 323/229/34
f 307/238/34 323/229/34 325/228/34
f 307/238/34 325/228/34 327/227/34
f 307/238/34 327/227/34 329/226/34
f 307/238/34 329/226/34 331/225/34
f 331/225/34 333/224/34 335/223/34
f 307/238/34 331/225/34 335/223/34
f 307/238/34 335/223/34 337/230/34
f 305/240/34 307/238/34 337/230/34
f 303/241/34 305/240/34 337/230/34
f 303/241/34 337/230/34 339/239/34
f 303/241/34 339/239/34 341/222/34
f 303/241/34 341/222/34 343/221/34
f 349/218/34 303/241/34 343/221/34
f 349/218/34 343/221/34 345/220/34
f 345/220/34 347/219/34 349/218/34
g fastener_right
usemtl mat
f 350/141/87 351/142/87 352/143/87
f 350/141/87 352/143/87 353/144/87
f 350/141/87 353/144/87 354/145/87
f 350/141/87 354/145/87 355/146/87
f 350/141/87 355/146/87 356/147/87
f 356/147/87 357/148/87 350/141/87
f 358/149/87 359/150/87 360/151/87
f 358/149/87 360/151/87 361/152/87
f 358/149/87 361/152/87 362/153/87
f 358/149/87 362/153/87 363/154/87
f 358/149/87 363/154/87 364/155/87
f 364/155/87 365/156/87 358/149/87
f 366/157/87 367/158/87 368/159/87
f 366/157/87 368/159/87 369/160/87
f 366/157/87 369/160/87 370/161/87
f 366/157/87 370/161/87 371/162/87
f 366/157/87 371/162/87 372/163/87
f 372/163/87 373/164/87 366/157/87
f 374/165/87 375/166/87 376/167/87 377/168/87
f 375/165/113 378/166/113 379/167/113 376/168/113
f 378/165/87 380/166/87 381/167/87 379/168/87
f 380/165/114 382/166/114 383/167/114 381/168/114
f 384/169/87 385/170/87 386/171/87
f 384/169/87 386/171/87 387/172/87
f 384/169/87 387/172/87 388/173/87
f 388/173/87 389/174/87 384/169/87
f 390/169/87 391/175/87 392/176/87
f 390/169/87 392/176/87 393/177/87
f 390/169/87 393/177/87 394/172/87
f 390/169/87 394/172/87 395/178/87
f 390/169/87 395/178/87 396/179/87
f 396/179/87 397/180/87 390/169/87
f 398/169/87 399/170/87 400/171/87
f 398/169/87 400/171/87 401/172/87
f 398/169/87 401/172/87 402/173/87
f 402/173/87 403/174/87 398/169/87
f 404/169/87 405/170/87 406/171/87
f 404/169/87 406/171/87 407/172/87
f 404/169/87 407/172/87 408/173/87
f 408/173/87 409/174/87 404/169/87
f 410/149/87 411/150/87 412/151/87
f 410/149/87 412/151/87 413/152/87
f 410/149/87 413/152/87 414/153/87
f 410/149/87 414/153/87 415/154/87
f 410/149/87 415/154/87 416/155/87
f 416/155/87 417/156/87 410/149/87
f 418/157/87 419/158/87 420/159/87
f 418/157/87 420/159/87 421/160/87
f 418/157/87 421/160/87 422/161/87
f 418/157/87 422/161/87 423/162/87
f 418/157/87 423/162/87 424/163/87
f 424/163/87 425/164/87 418/157/87
f 426/168/87 427/167/87 428/166/87 429/165/87
f 427/168/115 430/167/115 431/166/115 428/165/115
f 430/168/87 432/167/87 433/166/87 431/165/87
f 432/168/116 434/167/116 435/166/116 433/165/116
f 436/169/87 437/170/87 438/171/87
f 436/169/87 438/171/87 439/172/87
f 436/169/87 439/172/87 440/173/87
f 440/173/87 441/174/87 436/169/87
f 442/169/87 443/175/87 444/176/87
f 442/169/87 444/176/87 445/177/87
f 442/169/87 445/177/87 446/172/87
f 442/169/87 446/172/87 447/178/87
f 442/169/87 447/178/87 448/179/87
f 448/179/87 449/180/87 442/169/87
f 450/169/87 451/170/87 452/171/87
f 450/169/87 452/171/87 453/172/87
f 450/169/87 453/172/87 454/173/87
f 454/173/87 455/174/87 450/169/87
f 456/169/87 457/170/87 458/171/87
f 456/169/87 458/171/87 459/172/87
f 456/169/87 459/172/87 460/173/87
f 460/173/87 461/174/87 456/169/87
g rail_right
usemtl mat
f 462/181/117 463/182/117 464/183/117 465/184/117
f 463/182/118 466/185/118 467/186/118 464/183/118
f 466/185/119 468/187/119 469/188/119 467/186/119
f 468/187/120 470/189/120 471/190/120 469/188/120
f 470/189/121 472/191/121 473/192/121 471/190/121
f 472/191/117 474/193/117 475/194/117 473/192/117
f 474/193/122 476/195/122 477/196/122 475/194/122
f 476/195/123 478/197/123 479/198/123 477/196/123
f 478/197/124 480/199/124 481/200/124 479/198/124
f 480/199/125 482/201/125 483/202/125 481/200/125
f 482/201/117 484/203/117 485/204/117 483/202/117
f 484/203/126 486/205/126 487/206/126 485/204/126
f 486/207/127 488/208/127 489/209/127 487/210/127
f 488/208/87 490/211/87 491/212/87 489/209/87
f 490/211/128 492/213/128 493/214/128 491/212/128
f 492/205/129 494/203/129 495/204/129 493/206/129
f 494/203/112 496/201/112 497/202/112 495/204/112
f 496/201/130 498/199/130 499/200/130 497/202/130
f 498/199/131 500/197/131 501/198/131 499/200/131
f 500/197/132 502/195/132 503/196/132 501/198/132
f 502/195/133 504/193/133 505/194/133 503/196/133
f 504/193/112 506/191/112 507/192/112 505/194/112
f 506/191/134 508/189/134 509/190/134 507/192/134
f 508/189/135 510/187/135 511/188/135 509/190/135
f 510/187/136 512/185/136 513/186/136 511/188/136
f 512/185/137 514/182/137 515/183/137 513/186/137
f 514/182/112 516/181/112 517/184/112 515/183/112
f 516/181/138 462/215/138 465/216/138 517/184/138
g rail_right_end
usemtl mat
f 462/217/33 516/218/33 514/219/33
f 462/217/33 514/219/33 512/220/33
f 462/217/33 512/220/33 510/221/33
f 462/217/33 510/221/33 508/222/33
f 502/223/33 500/224/33 498/225/33
f 502/223/33 498/225/33 496/226/33
f 502/223/33 496/226/33 494/227/33
f 502/223/33 494/227/33 492/228/33
f 502/223/33 492/228/33 490/229/33
f 504/230/33 502/223/33 490/229/33
f 504/230/33 490/229/33 488/231/33
f 504/230/33 488/231/33 486/232/33
f 504/230/33 486/232/33 484/233/33
f 504/230/33 484/233/33 482/234/33
f 504/230/33 482/234/33 480/235/33
f 480/235/33 478/236/33 476/237/33
f 504/230/33 480/235/33 476/237/33
f 504/230/33 476/237/33 474/238/33
f 506/239/33 504/230/33 474/238/33
f 508/222/33 506/239/33 474/238/33
f 508/222/33 474/238/33 472/240/33
f 508/222/33 472/240/33 470/241/33
f 508/222/33 470/241/33 468/242/33
f 462/217/33 508/222/33 468/242/33
f 462/217/33 468/242/33 466/243/33
f 466/243/33 463/244/33 462/217/33
f 517/218/34 465/217/34 464/244/34
f 517/218/34 464/244/34 467/243/34
f 517/218/34 467/243/34 469/242/34
f 517/218/34 469/242/34 471/241/34
f 477/237/34 479/236/34 481/235/34
f 477/237/34 481/235/34 483/234/34
f 477/237/34 483/234/34 485/233/34
f 477/237/34 485/233/34 487/232/34
f 477/237/34 487/232/34 489/231/34
f 475/238/34 477/237/34 489/231/34
f 475/238/34 489/231/34 491/229/34
f 475/238/34 491/229/34 493/228/34
f 475/238/34 493/228/34 495/227/34
f 475/238/34 495/227/34 497/226/34
f 475/238/34 497/226/34 499/225/34
f 499/225/34 501/224/34 503/223/34
f 475/238/34 499/225/34 503/223/34
f 475/238/34 503/223/34 505/230/34
f 473/240/34 475/238/34 505/230/34
f 471/241/34 473/240/34 505/230/34
f 471/241/34 505/230/34 507/239/34
f 471/241/34 507/239/34 509/222/34
f 471/241/34 509/222/34 511/221/34
f 517/218/34 471/241/34 511/221/34
f 517/218/34 511/221/34 513/220/34
f 513/220/34 515/219/34 517/218/34
