# metres; Y up; CCW outward; repeat 0.6 m
mtllib rail_low.mtl
v -1.850000 -0.304000 -0.300000
v -1.850000 -0.304000 0.000000
v -1.800000 -0.258131 0.000000
v -1.800000 -0.258885 -0.300000
v -1.850000 -0.304000 0.300000
v -1.800000 -0.258885 0.300000
v -1.783750 -0.243412 0.000000
v -1.783750 -0.244412 -0.300000
v -1.783750 -0.244412 0.300000
v -1.717500 -0.185387 0.000000
v -1.717500 -0.187387 -0.300000
v -1.717500 -0.187387 0.300000
v -1.651250 -0.132099 0.000000
v -1.651250 -0.135099 -0.300000
v -1.651250 -0.135099 0.300000
v -1.585000 -0.085000 0.000000
v -1.585000 -0.089000 -0.300000
v -1.585000 -0.089000 0.300000
v -1.518750 -0.044599 0.000000
v -1.518750 -0.049599 -0.300000
v -1.518750 -0.049599 0.300000
v -1.452500 -0.010387 0.000000
v -1.452500 -0.016387 -0.300000
v -1.452500 -0.016387 0.300000
v -1.386250 0.019088 0.000000
v -1.386250 0.012088 -0.300000
v -1.386250 0.012088 0.300000
v -1.320000 0.046000 0.000000
v -1.320000 0.038000 -0.300000
v -1.320000 0.038000 0.300000
v -1.200000 0.034000 0.000000
v -1.200000 0.026000 -0.300000
v -1.200000 0.026000 0.300000
v -0.600000 0.034000 0.000000
v -0.600000 0.026000 -0.300000
v -0.600000 0.026000 0.300000
v 0.000000 0.034000 0.000000
v 0.000000 0.026000 -0.300000
v 0.000000 0.026000 0.300000
v 0.600000 0.034000 0.000000
v 0.600000 0.026000 -0.300000
v 0.600000 0.026000 0.300000
v 1.200000 0.034000 0.000000
v 1.200000 0.026000 -0.300000
v 1.200000 0.026000 0.300000
v 1.320000 0.046000 0.000000
v 1.320000 0.038000 -0.300000
v 1.320000 0.038000 0.300000
v 1.386250 0.019088 0.000000
v 1.386250 0.012088 -0.300000
v 1.386250 0.012088 0.300000
v 1.452500 -0.010387 0.000000
v 1.452500 -0.016387 -0.300000
v 1.452500 -0.016387 0.300000
v 1.518750 -0.044599 0.000000
v 1.518750 -0.049599 -0.300000
v 1.518750 -0.049599 0.300000
v 1.585000 -0.085000 0.000000
v 1.585000 -0.089000 -0.300000
v 1.585000 -0.089000 0.300000
v 1.651250 -0.132099 0.000000
v 1.651250 -0.135099 -0.300000
v 1.651250 -0.135099 0.300000
v 1.717500 -0.185387 0.000000
v 1.717500 -0.187387 -0.300000
v 1.717500 -0.187387 0.300000
v 1.783750 -0.243412 0.000000
v 1.783750 -0.244412 -0.300000
v 1.783750 -0.244412 0.300000
v 1.800000 -0.258131 0.000000
v 1.800000 -0.258885 -0.300000
v 1.800000 -0.258885 0.300000
v 1.850000 -0.304000 0.000000
v 1.850000 -0.304000 -0.300000
v 1.850000 -0.304000 0.300000
v -1.250000 0.065422 0.096000
v -1.200000 0.067297 0.111000
v -1.200000 0.075297 0.101000
v -1.250000 0.073422 0.086000
v -1.200000 0.075297 -0.101000
v -1.250000 0.073422 -0.086000
v -1.200000 0.067297 -0.111000
v -1.250000 0.065422 -0.096000
v -0.930000 0.077422 0.111000
v -0.930000 0.085422 0.101000
v -0.930000 0.085422 -0.101000
v -0.930000 0.077422 -0.111000
v -0.600000 0.077422 0.111000
v -0.600000 0.085422 0.101000
v -0.600000 0.085422 -0.101000
v -0.600000 0.077422 -0.111000
v -0.530000 0.077422 0.111000
v -0.530000 0.085422 0.101000
v -0.530000 0.085422 -0.101000
v -0.530000 0.077422 -0.111000
v 0.000000 0.042311 0.111000
v 0.000000 0.050311 0.101000
v 0.000000 0.050311 -0.101000
v 0.000000 0.042311 -0.111000
v 0.530000 0.077422 0.111000
v 0.530000 0.085422 0.101000
v 0.530000 0.085422 -0.101000
v 0.530000 0.077422 -0.111000
v 0.600000 0.077422 0.111000
v 0.600000 0.085422 0.101000
v 0.600000 0.085422 -0.101000
v 0.600000 0.077422 -0.111000
v 0.930000 0.077422 0.111000
v 0.930000 0.085422 0.101000
v 0.930000 0.085422 -0.101000
v 0.930000 0.077422 -0.111000
v 1.200000 0.067297 0.111000
v 1.200000 0.075297 0.101000
v 1.200000 0.075297 -0.101000
v 1.200000 0.067297 -0.111000
v 1.250000 0.065422 0.096000
v 1.250000 0.073422 0.086000
v 1.250000 0.073422 -0.086000
v 1.250000 0.065422 -0.096000
v -0.826500 0.099422 0.106000
v -0.676500 0.099422 0.106000
v -0.676500 0.099422 -0.106000
v -0.826500 0.099422 -0.106000
v -0.896500 0.109422 0.105000
v -0.606500 0.109422 0.105000
v -0.606500 0.109422 -0.105000
v -0.896500 0.109422 -0.105000
v -0.946500 0.095422 0.103000
v -0.820500 0.095422 0.103000
v -0.820500 0.095422 -0.103000
v -0.946500 0.095422 -0.103000
v -0.950500 0.126422 0.107000
v -0.934500 0.126422 0.107000
v -0.934500 0.126422 -0.107000
v -0.950500 0.126422 -0.107000
v -0.682500 0.095422 0.103000
v -0.556500 0.095422 0.103000
v -0.556500 0.095422 -0.103000
v -0.682500 0.095422 -0.103000
v -0.568500 0.126422 0.107000
v -0.552500 0.126422 0.107000
v -0.552500 0.126422 -0.107000
v -0.568500 0.126422 -0.107000
v -0.681500 0.099422 -0.300000
v -0.681500 0.108000 -0.300000
v -0.681500 0.108000 0.300000
v -0.681500 0.099422 0.300000
v -0.687500 0.113000 -0.300000
v -0.687500 0.113000 0.300000
v -0.725500 0.124000 -0.300000
v -0.725500 0.124000 0.300000
v -0.739500 0.134000 -0.300000
v -0.739500 0.134000 0.300000
v -0.742500 0.145000 -0.300000
v -0.742500 0.145000 0.300000
v -0.742500 0.207000 -0.300000
v -0.742500 0.207000 0.300000
v -0.738500 0.219000 -0.300000
v -0.738500 0.219000 0.300000
v -0.724500 0.225000 -0.300000
v -0.724500 0.225000 0.300000
v -0.718500 0.231000 -0.300000
v -0.718500 0.231000 0.300000
v -0.717500 0.239000 -0.300000
v -0.717500 0.239000 0.300000
v -0.717500 0.254000 -0.300000
v -0.717500 0.254000 0.300000
v -0.719500 0.260000 -0.300000
v -0.719500 0.260000 0.300000
v -0.725500 0.264280 -0.300000
v -0.725500 0.264280 0.300000
v -0.777500 0.264280 -0.300000
v -0.777500 0.264280 0.300000
v -0.783500 0.260000 -0.300000
v -0.783500 0.260000 0.300000
v -0.785500 0.254000 -0.300000
v -0.785500 0.254000 0.300000
v -0.785500 0.239000 -0.300000
v -0.785500 0.239000 0.300000
v -0.784500 0.231000 -0.300000
v -0.784500 0.231000 0.300000
v -0.778500 0.225000 -0.300000
v -0.778500 0.225000 0.300000
v -0.764500 0.219000 -0.300000
v -0.764500 0.219000 0.300000
v -0.760500 0.207000 -0.300000
v -0.760500 0.207000 0.300000
v -0.760500 0.145000 -0.300000
v -0.760500 0.145000 0.300000
v -0.763500 0.134000 -0.300000
v -0.763500 0.134000 0.300000
v -0.777500 0.124000 -0.300000
v -0.777500 0.124000 0.300000
v -0.815500 0.113000 -0.300000
v -0.815500 0.113000 0.300000
v -0.821500 0.108000 -0.300000
v -0.821500 0.108000 0.300000
v -0.821500 0.099422 -0.300000
v -0.821500 0.099422 0.300000
v 0.676500 0.099422 0.106000
v 0.826500 0.099422 0.106000
v 0.826500 0.099422 -0.106000
v 0.676500 0.099422 -0.106000
v 0.606500 0.109422 0.105000
v 0.896500 0.109422 0.105000
v 0.896500 0.109422 -0.105000
v 0.606500 0.109422 -0.105000
v 0.556500 0.095422 0.103000
v 0.682500 0.095422 0.103000
v 0.682500 0.095422 -0.103000
v 0.556500 0.095422 -0.103000
v 0.552500 0.126422 0.107000
v 0.568500 0.126422 0.107000
v 0.568500 0.126422 -0.107000
v 0.552500 0.126422 -0.107000
v 0.820500 0.095422 0.103000
v 0.946500 0.095422 0.103000
v 0.946500 0.095422 -0.103000
v 0.820500 0.095422 -0.103000
v 0.934500 0.126422 0.107000
v 0.950500 0.126422 0.107000
v 0.950500 0.126422 -0.107000
v 0.934500 0.126422 -0.107000
v 0.821500 0.099422 -0.300000
v 0.821500 0.108000 -0.300000
v 0.821500 0.108000 0.300000
v 0.821500 0.099422 0.300000
v 0.815500 0.113000 -0.300000
v 0.815500 0.113000 0.300000
v 0.777500 0.124000 -0.300000
v 0.777500 0.124000 0.300000
v 0.763500 0.134000 -0.300000
v 0.763500 0.134000 0.300000
v 0.760500 0.145000 -0.300000
v 0.760500 0.145000 0.300000
v 0.760500 0.207000 -0.300000
v 0.760500 0.207000 0.300000
v 0.764500 0.219000 -0.300000
v 0.764500 0.219000 0.300000
v 0.778500 0.225000 -0.300000
v 0.778500 0.225000 0.300000
v 0.784500 0.231000 -0.300000
v 0.784500 0.231000 0.300000
v 0.785500 0.239000 -0.300000
v 0.785500 0.239000 0.300000
v 0.785500 0.254000 -0.300000
v 0.785500 0.254000 0.300000
v 0.783500 0.260000 -0.300000
v 0.783500 0.260000 0.300000
v 0.777500 0.264280 -0.300000
v 0.777500 0.264280 0.300000
v 0.725500 0.264280 -0.300000
v 0.725500 0.264280 0.300000
v 0.719500 0.260000 -0.300000
v 0.719500 0.260000 0.300000
v 0.717500 0.254000 -0.300000
v 0.717500 0.254000 0.300000
v 0.717500 0.239000 -0.300000
v 0.717500 0.239000 0.300000
v 0.718500 0.231000 -0.300000
v 0.718500 0.231000 0.300000
v 0.724500 0.225000 -0.300000
v 0.724500 0.225000 0.300000
v 0.738500 0.219000 -0.300000
v 0.738500 0.219000 0.300000
v 0.742500 0.207000 -0.300000
v 0.742500 0.207000 0.300000
v 0.742500 0.145000 -0.300000
v 0.742500 0.145000 0.300000
v 0.739500 0.134000 -0.300000
v 0.739500 0.134000 0.300000
v 0.725500 0.124000 -0.300000
v 0.725500 0.124000 0.300000
v 0.687500 0.113000 -0.300000
v 0.687500 0.113000 0.300000
v 0.681500 0.108000 -0.300000
v 0.681500 0.108000 0.300000
v 0.681500 0.099422 -0.300000
v 0.681500 0.099422 0.300000
vt 0.96281250 0.01585821
vt 0.96281250 0.25373134
vt 0.98937500 0.25373134
vt 0.98937500 0.01585821
vt 0.96281250 0.49160448
vt 0.98937500 0.49160448
vt 0.67062500 0.01585821
vt 0.67062500 0.25373134
vt 0.67925781 0.25373134
vt 0.67925781 0.01585821
vt 0.67062500 0.49160448
vt 0.67925781 0.49160448
vt 0.71445312 0.25373134
vt 0.71445312 0.01585821
vt 0.71445312 0.49160448
vt 0.74964844 0.25373134
vt 0.74964844 0.01585821
vt 0.74964844 0.49160448
vt 0.78484375 0.25373134
vt 0.78484375 0.01585821
vt 0.78484375 0.49160448
vt 0.82003906 0.25373134
vt 0.82003906 0.01585821
vt 0.82003906 0.49160448
vt 0.85523437 0.25373134
vt 0.85523437 0.01585821
vt 0.85523437 0.49160448
vt 0.89042969 0.25373134
vt 0.89042969 0.01585821
vt 0.89042969 0.49160448
vt 0.92562500 0.25373134
vt 0.92562500 0.01585821
vt 0.92562500 0.49160448
vt 0.73437500 0.25373134
vt 0.73437500 0.01585821
vt 0.73437500 0.49160448
vt 0.76957031 0.25373134
vt 0.76957031 0.01585821
vt 0.76957031 0.49160448
vt 0.80476563 0.25373134
vt 0.80476563 0.01585821
vt 0.80476563 0.49160448
vt 0.83996094 0.25373134
vt 0.83996094 0.01585821
vt 0.83996094 0.49160448
vt 0.87515625 0.25373134
vt 0.87515625 0.01585821
vt 0.87515625 0.49160448
vt 0.91035156 0.25373134
vt 0.91035156 0.01585821
vt 0.91035156 0.49160448
vt 0.94554688 0.25373134
vt 0.94554688 0.01585821
vt 0.94554688 0.49160448
vt 0.98074219 0.25373134
vt 0.98074219 0.01585821
vt 0.98074219 0.49160448
vt 0.69718750 0.25373134
vt 0.69718750 0.01585821
vt 0.69718750 0.49160448
vt 0.30281250 0.32985075
vt 0.32937500 0.34174440
vt 0.32937500 0.33381530
vt 0.30281250 0.32192164
vt 0.32937500 0.17364739
vt 0.30281250 0.18554104
vt 0.32937500 0.16571828
vt 0.30281250 0.17761194
vt 0.01062500 0.34174440
vt 0.15406250 0.34174440
vt 0.15406250 0.33381530
vt 0.01062500 0.33381530
vt 0.15406250 0.17364739
vt 0.01062500 0.17364739
vt 0.15406250 0.16571828
vt 0.01062500 0.16571828
vt 0.04781250 0.34174440
vt 0.04781250 0.33381530
vt 0.04781250 0.17364739
vt 0.04781250 0.16571828
vt 0.29218750 0.34174440
vt 0.29218750 0.33381530
vt 0.29218750 0.17364739
vt 0.29218750 0.16571828
vt 0.18593750 0.34174440
vt 0.18593750 0.33381530
vt 0.18593750 0.17364739
vt 0.18593750 0.16571828
vt 0.03718750 0.32985075
vt 0.03718750 0.32192164
vt 0.03718750 0.18554104
vt 0.03718750 0.17761194
vt 0.04250000 0.41231343
vt 0.29750000 0.41231343
vt 0.28421875 0.44402985
vt 0.05578125 0.44402985
vt 0.60837500 0.48208955
vt 0.65300000 0.48208955
vt 0.65300000 0.31082090
vt 0.60837500 0.31082090
vt 0.34062500 0.49160448
vt 0.57968750 0.49160448
vt 0.57968750 0.01585821
vt 0.34062500 0.01585821
vt 0.60837500 0.19664179
vt 0.65300000 0.19664179
vt 0.65300000 0.02537313
vt 0.60837500 0.02537313
vt 0.01062500 0.50839552
vt 0.01062500 0.53314987
vt 0.32937500 0.53314987
vt 0.32937500 0.50839552
vt 0.01062500 0.54757884
vt 0.32937500 0.54757884
vt 0.01062500 0.57932257
vt 0.32937500 0.57932257
vt 0.01062500 0.60818052
vt 0.32937500 0.60818052
vt 0.01062500 0.63992425
vt 0.32937500 0.63992425
vt 0.01062500 0.81884350
vt 0.32937500 0.81884350
vt 0.01062500 0.85347303
vt 0.32937500 0.85347303
vt 0.01062500 0.87078779
vt 0.32937500 0.87078779
vt 0.01062500 0.88810256
vt 0.32937500 0.88810256
vt 0.01062500 0.91118891
vt 0.32937500 0.91118891
vt 0.01062500 0.95447583
vt 0.32937500 0.95447583
vt 0.01062500 0.97179059
vt 0.32937500 0.97179059
vt 0.34062500 0.97014925
vt 0.34062500 0.92817164
vt 0.65937500 0.92817164
vt 0.65937500 0.97014925
vt 0.34062500 0.56436567
vt 0.65937500 0.56436567
vt 0.34062500 0.52238806
vt 0.65937500 0.52238806
vt 0.01062500 0.57500000
vt 0.32937500 0.57500000
vt 0.98937500 0.50839552
vt 0.67062500 0.50839552
vt 0.67062500 0.53314987
vt 0.68428571 0.54757884
vt 0.77080357 0.57932257
vt 0.80267857 0.60818052
vt 0.80040179 0.85347303
vt 0.76852679 0.87078779
vt 0.75486607 0.88810256
vt 0.75258929 0.91118891
vt 0.75258929 0.95447583
vt 0.75714286 0.97179059
vt 0.77080357 0.98414179
vt 0.80950893 0.81884350
vt 0.88919643 0.98414179
vt 0.90285714 0.97179059
vt 0.90741071 0.95447583
vt 0.90741071 0.91118891
vt 0.90513393 0.88810256
vt 0.89147321 0.87078779
vt 0.85959821 0.85347303
vt 0.85049107 0.81884350
vt 0.80950893 0.63992425
vt 0.85049107 0.63992425
vt 0.85732143 0.60818052
vt 0.88919643 0.57932257
vt 0.97571429 0.54757884
vt 0.98937500 0.53314987
vn -0.67601314 0.73688957 0.00000000
vn -0.66990359 0.74244575 -0.00186779
vn -0.66990476 0.74244705 0.00000000
vn -0.67601198 0.73688830 0.00185381
vn -0.67132147 0.74116396 -0.00186456
vn -0.66510533 0.74674541 -0.00248915
vn -0.66510621 0.74674641 0.00187861
vn -0.67132058 0.74116299 0.00247054
vn -0.65886181 0.75225981 -0.00250753
vn -0.65235724 0.75789478 -0.00505263
vn -0.65236349 0.75790204 0.00252634
vn -0.65885560 0.75225272 0.00501502
vn -0.62674989 0.77920318 -0.00519469
vn -0.61951841 0.78494288 -0.00784943
vn -0.61952901 0.78495632 0.00523304
vn -0.62673932 0.77919004 0.00779190
vn -0.57940804 0.81499687 -0.00814997
vn -0.57113334 0.82078434 -0.01094379
vn -0.57114831 0.82080585 0.00820806
vn -0.57939307 0.81497582 0.01086634
vn -0.52061463 0.85371590 -0.01138288
vn -0.51110737 0.85939752 -0.01432329
vn -0.51112625 0.85942926 0.01145906
vn -0.52059566 0.85368479 0.01422808
vn -0.45878801 0.88842238 -0.01480704
vn -0.44808089 0.89381427 -0.01787629
vn -0.44810276 0.89385792 0.01489763
vn -0.45876588 0.88837953 0.01776759
vn -0.40642676 0.91350068 -0.01827001
vn -0.39479511 0.91851918 -0.02143211
vn -0.39481917 0.91857515 0.01837150
vn -0.40640227 0.91344563 0.02131373
vn -0.37626353 0.92626057 -0.02161275
vn -0.36414097 0.93101287 -0.02482701
vn -0.36416728 0.93108013 0.02172520
vn -0.37623663 0.92619435 0.02469852
vn 0.09946871 0.99468709 -0.02652499
vn 0.09946871 0.99468709 0.02652499
vn 0.00000000 0.99964463 -0.02665719
vn -0.00000000 0.99964463 0.02665719
vn -0.09946871 0.99468709 -0.02652499
vn -0.09946871 0.99468709 0.02652499
vn 0.37623663 0.92619435 -0.02469852
vn 0.36416728 0.93108013 -0.02172520
vn 0.36414097 0.93101287 0.02482701
vn 0.37626353 0.92626057 0.02161275
vn 0.40640227 0.91344563 -0.02131373
vn 0.39481917 0.91857515 -0.01837150
vn 0.39479511 0.91851918 0.02143211
vn 0.40642676 0.91350068 0.01827001
vn 0.45876588 0.88837953 -0.01776759
vn 0.44810276 0.89385792 -0.01489763
vn 0.44808089 0.89381427 0.01787629
vn 0.45878801 0.88842238 0.01480704
vn 0.52059566 0.85368479 -0.01422808
vn 0.51112625 0.85942926 -0.01145906
vn 0.51110737 0.85939752 0.01432329
vn 0.52061463 0.85371590 0.01138288
vn 0.57939307 0.81497582 -0.01086634
vn 0.57114831 0.82080585 -0.00820806
vn 0.57113334 0.82078434 0.01094379
vn 0.57940804 0.81499687 0.00814997
vn 0.62673932 0.77919004 -0.00779190
vn 0.61952901 0.78495632 -0.00523304
vn 0.61951841 0.78494288 0.00784943
vn 0.62674989 0.77920318 0.00519469
vn 0.65885560 0.75225272 -0.00501502
vn 0.65236349 0.75790204 -0.00252634
vn 0.65235724 0.75789478 0.00505263
vn 0.65886181 0.75225981 0.00250753
vn 0.67132058 0.74116299 -0.00247054
vn 0.66510621 0.74674641 -0.00187861
vn 0.66510533 0.74674541 0.00248915
vn 0.67132147 0.74116396 0.00186456
vn 0.67601198 0.73688830 -0.00185381
vn 0.66990476 0.74244705 0.00000000
vn 0.66990359 0.74244575 0.00186779
vn 0.67601314 0.73688957 0.00000000
vn -0.21177615 0.76315730 0.61052584
vn -0.03747366 0.99929762 0.00000000
vn -0.21177615 0.76315730 -0.61052584
vn -0.02927003 0.78053424 0.62442739
vn -0.02927003 0.78053424 -0.62442739
vn -0.00000000 0.78086881 0.62469505
vn -0.00000000 1.00000000 0.00000000
vn 0.00000000 0.78086881 -0.62469505
vn 0.05166127 0.77982609 0.62386087
vn 0.06610228 0.99781285 0.00000000
vn 0.05166127 0.77982609 -0.62386087
vn -0.05166127 0.77982609 0.62386087
vn -0.06610228 0.99781285 0.00000000
vn -0.05166127 0.77982609 -0.62386087
vn 0.02927003 0.78053424 0.62442739
vn 0.03747366 0.99929762 0.00000000
vn 0.02927003 0.78053424 -0.62442739
vn 0.21177615 0.76315730 0.61052584
vn 0.21177615 0.76315730 -0.61052584
vn -1.00000000 0.00000000 0.00000000
vn 1.00000000 0.00000000 0.00000000
vn 0.64018440 0.76822128 0.00000000
vn 0.27805808 0.96056426 0.00000000
vn 0.58123819 0.81373347 0.00000000
vn 0.96476382 0.26311741 0.00000000
vn 0.94868330 -0.31622777 0.00000000
vn 0.39391930 -0.91914503 0.00000000
vn 0.70710678 -0.70710678 0.00000000
vn 0.99227788 -0.12403473 0.00000000
vn 0.94868330 0.31622777 0.00000000
vn 0.58072468 0.81410002 0.00000000
vn -0.58072468 0.81410002 0.00000000
vn -0.94868330 0.31622777 0.00000000
vn -0.99227788 -0.12403473 0.00000000
vn -0.70710678 -0.70710678 0.00000000
vn -0.39391930 -0.91914503 0.00000000
vn -0.94868330 -0.31622777 0.00000000
vn -0.96476382 0.26311741 0.00000000
vn -0.58123819 0.81373347 0.00000000
vn -0.27805808 0.96056426 0.00000000
vn -0.64018440 0.76822128 0.00000000
vn 0.00000000 -1.00000000 0.00000000
vn 0.00000000 0.00000000 -1.00000000
vn 0.00000000 0.00000000 1.00000000
g ballast
usemtl mat
f 1/1/1 2/2/1 3/3/1
f 3/3/2 4/4/2 1/1/2
f 2/2/3 5/5/3 6/6/3
f 6/6/4 3/3/4 2/2/4
f 4/7/5 3/8/5 7/9/5
f 7/9/6 8/10/6 4/7/6
f 3/8/7 6/11/7 9/12/7
f 9/12/8 7/9/8 3/8/8
f 8/10/9 7/9/9 10/13/9
f 10/13/10 11/14/10 8/10/10
f 7/9/11 9/12/11 12/15/11
f 12/15/12 10/13/12 7/9/12
f 11/14/13 10/13/13 13/16/13
f 13/16/14 14/17/14 11/14/14
f 10/13/15 12/15/15 15/18/15
f 15/18/16 13/16/16 10/13/16
f 14/17/17 13/16/17 16/19/17
f 16/19/18 17/20/18 14/17/18
f 13/16/19 15/18/19 18/21/19
f 18/21/20 16/19/20 13/16/20
f 17/20/21 16/19/21 19/22/21
f 19/22/22 20/23/22 17/20/22
f 16/19/23 18/21/23 21/24/23
f 21/24/24 19/22/24 16/19/24
f 20/23/25 19/22/25 22/25/25
f 22/25/26 23/26/26 20/23/26
f 19/22/27 21/24/27 24/27/27
f 24/27/28 22/25/28 19/22/28
f 23/26/29 22/25/29 25/28/29
f 25/28/30 26/29/30 23/26/30
f 22/25/31 24/27/31 27/30/31
f 27/30/32 25/28/32 22/25/32
f 26/29/33 25/28/33 28/31/33
f 28/31/34 29/32/34 26/29/34
f 25/28/35 27/30/35 30/33/35
f 30/33/36 28/31/36 25/28/36
f 28/31/37 31/3/37 32/4/37 29/32/37
f 30/33/38 33/6/38 31/3/38 28/31/38
f 31/8/39 34/3/39 35/4/39 32/7/39
f 33/11/40 36/6/40 34/3/40 31/8/40
f 34/8/39 37/3/39 38/4/39 35/7/39
f 36/11/40 39/6/40 37/3/40 34/8/40
f 37/8/39 40/3/39 41/4/39 38/7/39
f 39/11/40 42/6/40 40/3/40 37/8/40
f 40/8/39 43/3/39 44/4/39 41/7/39
f 42/11/40 45/6/40 43/3/40 40/8/40
f 43/8/41 46/34/41 47/35/41 44/7/41
f 45/11/42 48/36/42 46/34/42 43/8/42
f 47/35/43 46/34/43 49/37/43
f 49/37/44 50/38/44 47/35/44
f 46/34/45 48/36/45 51/39/45
f 51/39/46 49/37/46 46/34/46
f 50/38/47 49/37/47 52/40/47
f 52/40/48 53/41/48 50/38/48
f 49/37/49 51/39/49 54/42/49
f 54/42/50 52/40/50 49/37/50
f 53/41/51 52/40/51 55/43/51
f 55/43/52 56/44/52 53/41/52
f 52/40/53 54/42/53 57/45/53
f 57/45/54 55/43/54 52/40/54
f 56/44/55 55/43/55 58/46/55
f 58/46/56 59/47/56 56/44/56
f 55/43/57 57/45/57 60/48/57
f 60/48/58 58/46/58 55/43/58
f 59/47/59 58/46/59 61/49/59
f 61/49/60 62/50/60 59/47/60
f 58/46/61 60/48/61 63/51/61
f 63/51/62 61/49/62 58/46/62
f 62/50/63 61/49/63 64/52/63
f 64/52/64 65/53/64 62/50/64
f 61/49/65 63/51/65 66/54/65
f 66/54/66 64/52/66 61/49/66
f 65/53/67 64/52/67 67/55/67
f 67/55/68 68/56/68 65/53/68
f 64/52/69 66/54/69 69/57/69
f 69/57/70 67/55/70 64/52/70
f 68/56/71 67/55/71 70/3/71
f 70/3/72 71/4/72 68/56/72
f 67/55/73 69/57/73 72/6/73
f 72/6/74 70/3/74 67/55/74
f 71/7/75 70/8/75 73/58/75
f 73/58/76 74/59/76 71/7/76
f 70/8/77 72/11/77 75/60/77
f 75/60/78 73/58/78 70/8/78
g sleeper
usemtl mat
f 76/61/79 77/62/79 78/63/79 79/64/79
f 79/64/80 78/63/80 80/65/80 81/66/80
f 81/66/81 80/65/81 82/67/81 83/68/81
f 77/69/82 84/70/82 85/71/82 78/72/82
f 78/72/80 85/71/80 86/73/80 80/74/80
f 80/74/83 86/73/83 87/75/83 82/76/83
f 84/70/84 88/62/84 89/63/84 85/71/84
f 85/71/85 89/63/85 90/65/85 86/73/85
f 86/73/86 90/65/86 91/67/86 87/75/86
f 88/69/84 92/77/84 93/78/84 89/72/84
f 89/72/85 93/78/85 94/79/85 90/74/85
f 90/74/86 94/79/86 95/80/86 91/76/86
f 92/77/87 96/62/87 97/63/87 93/78/87
f 93/78/88 97/63/88 98/65/88 94/79/88
f 94/79/89 98/65/89 99/67/89 95/80/89
f 96/69/90 100/81/90 101/82/90 97/72/90
f 97/72/91 101/82/91 102/83/91 98/74/91
f 98/74/92 102/83/92 103/84/92 99/76/92
f 100/81/84 104/62/84 105/63/84 101/82/84
f 101/82/85 105/63/85 106/65/85 102/83/85
f 102/83/86 106/65/86 107/67/86 103/84/86
f 104/69/84 108/85/84 109/86/84 105/72/84
f 105/72/85 109/86/85 110/87/85 106/74/85
f 106/74/86 110/87/86 111/88/86 107/76/86
f 108/85/93 112/62/93 113/63/93 109/86/93
f 109/86/94 113/63/94 114/65/94 110/87/94
f 110/87/95 114/65/95 115/67/95 111/88/95
f 112/69/96 116/89/96 117/90/96 113/72/96
f 113/72/94 117/90/94 118/91/94 114/74/94
f 114/74/97 118/91/97 119/92/97 115/76/97
f 83/93/98 76/94/98 79/95/98
f 79/95/98 81/96/98 83/93/98
g fastener_left
usemtl mat
f 120/97/85 121/98/85 122/99/85 123/100/85
f 124/101/85 125/102/85 126/103/85 127/104/85
f 128/101/85 129/102/85 130/103/85 131/104/85
f 132/105/85 133/106/85 134/107/85 135/108/85
f 136/101/85 137/102/85 138/103/85 139/104/85
f 140/105/85 141/106/85 142/107/85 143/108/85
g rail_left
usemtl mat
f 144/109/99 145/110/99 146/111/99 147/112/99
f 145/110/100 148/113/100 149/114/100 146/111/100
f 148/113/101 150/115/101 151/116/101 149/114/101
f 150/115/102 152/117/102 153/118/102 151/116/102
f 152/117/103 154/119/103 155/120/103 153/118/103
f 154/119/99 156/121/99 157/122/99 155/120/99
f 156/121/104 158/123/104 159/124/104 157/122/104
f 158/123/105 160/125/105 161/126/105 159/124/105
f 160/125/106 162/127/106 163/128/106 161/126/106
f 162/127/107 164/129/107 165/130/107 163/128/107
f 164/129/99 166/131/99 167/132/99 165/130/99
f 166/131/108 168/133/108 169/134/108 167/132/108
f 168/135/109 170/136/109 171/137/109 169/138/109
f 170/136/85 172/139/85 173/140/85 171/137/85
f 172/139/110 174/141/110 175/142/110 173/140/110
f 174/133/111 176/131/111 177/132/111 175/134/111
f 176/131/98 178/129/98 179/130/98 177/132/98
f 178/129/112 180/127/112 181/128/112 179/130/112
f 180/127/113 182/125/113 183/126/113 181/128/113
f 182/125/114 184/123/114 185/124/114 183/126/114
f 184/123/115 186/121/115 187/122/115 185/124/115
f 186/121/98 188/119/98 189/120/98 187/122/98
f 188/119/116 190/117/116 191/118/116 189/120/116
f 190/117/117 192/115/117 193/116/117 191/118/117
f 192/115/118 194/113/118 195/114/118 193/116/118
f 194/113/119 196/110/119 197/111/119 195/114/119
f 196/110/98 198/109/98 199/112/98 197/111/98
f 198/109/120 144/143/120 147/144/120 199/112/120
g rail_left_end
usemtl mat
f 144/145/121 198/146/121 196/147/121
f 144/145/121 196/147/121 194/148/121
f 144/145/121 194/148/121 192/149/121
f 144/145/121 192/149/121 190/150/121
f 184/151/121 182/152/121 180/153/121
f 184/151/121 180/153/121 178/154/121
f 184/151/121 178/154/121 176/155/121
f 184/151/121 176/155/121 174/156/121
f 184/151/121 174/156/121 172/157/121
f 186/158/121 184/151/121 172/157/121
f 186/158/121 172/157/121 170/159/121
f 186/158/121 170/159/121 168/160/121
f 186/158/121 168/160/121 166/161/121
f 186/158/121 166/161/121 164/162/121
f 186/158/121 164/162/121 162/163/121
f 162/163/121 160/164/121 158/165/121
f 186/158/121 162/163/121 158/165/121
f 186/158/121 158/165/121 156/166/121
f 188/167/121 186/158/121 156/166/121
f 190/150/121 188/167/121 156/166/121
f 190/150/121 156/166/121 154/168/121
f 190/150/121 154/168/121 152/169/121
f 190/150/121 152/169/121 150/170/121
f 144/145/121 190/150/121 150/170/121
f 144/145/121 150/170/121 148/171/121
f 148/171/121 145/172/121 144/145/121
f 199/146/122 147/145/122 146/172/122
f 199/146/122 146/172/122 149/171/122
f 199/146/122 149/171/122 151/170/122
f 199/146/122 151/170/122 153/169/122
f 159/165/122 161/164/122 163/163/122
f 159/165/122 163/163/122 165/162/122
f 159/165/122 165/162/122 167/161/122
f 159/165/122 167/161/122 169/160/122
f 159/165/122 169/160/122 171/159/122
f 157/166/122 159/165/122 171/159/122
f 157/166/122 171/159/122 173/157/122
f 157/166/122 173/157/122 175/156/122
f 157/166/122 175/156/122 177/155/122
f 157/166/122 177/155/122 179/154/122
f 157/166/122 179/154/122 181/153/122
f 181/153/122 183/152/122 185/151/122
f 157/166/122 181/153/122 185/151/122
f 157/166/122 185/151/122 187/158/122
f 155/168/122 157/166/122 187/158/122
f 153/169/122 155/168/122 187/158/122
f 153/169/122 187/158/122 189/167/122
f 153/169/122 189/167/122 191/150/122
f 153/169/122 191/150/122 193/149/122
f 199/146/122 153/169/122 193/149/122
f 199/146/122 193/149/122 195/148/122
f 195/148/122 197/147/122 199/146/122
g fastener_right
usemtl mat
f 200/97/85 201/98/85 202/99/85 203/100/85
f 204/101/85 205/102/85 206/103/85 207/104/85
f 208/101/85 209/102/85 210/103/85 211/104/85
f 212/105/85 213/106/85 214/107/85 215/108/85
f 216/101/85 217/102/85 218/103/85 219/104/85
f 220/105/85 221/106/85 222/107/85 223/108/85
g rail_right
usemtl mat
f 224/109/99 225/110/99 226/111/99 227/112/99
f 225/110/100 228/113/100 229/114/100 226/111/100
f 228/113/101 230/115/101 231/116/101 229/114/101
f 230/115/102 232/117/102 233/118/102 231/116/102
f 232/117/103 234/119/103 235/120/103 233/118/103
f 234/119/99 236/121/99 237/122/99 235/120/99
f 236/121/104 238/123/104 239/124/104 237/122/104
f 238/123/105 240/125/105 241/126/105 239/124/105
f 240/125/106 242/127/106 243/128/106 241/126/106
f 242/127/107 244/129/107 245/130/107 243/128/107
f 244/129/99 246/131/99 247/132/99 245/130/99
f 246/131/108 248/133/108 249/134/108 247/132/108
f 248/135/109 250/136/109 251/137/109 249/138/109
f 250/136/85 252/139/85 253/140/85 251/137/85
f 252/139/110 254/141/110 255/142/110 253/140/110
f 254/133/111 256/131/111 257/132/111 255/134/111
f 256/131/98 258/129/98 259/130/98 257/132/98
f 258/129/112 260/127/112 261/128/112 259/130/112
f 260/127/113 262/125/113 263/126/113 261/128/113
f 262/125/114 264/123/114 265/124/114 263/126/114
f 264/123/115 266/121/115 267/122/115 265/124/115
f 266/121/98 268/119/98 269/120/98 267/122/98
f 268/119/116 270/117/116 271/118/116 269/120/116
f 270/117/117 272/115/117 273/116/117 271/118/117
f 272/115/118 274/113/118 275/114/118 273/116/118
f 274/113/119 276/110/119 277/111/119 275/114/119
f 276/110/98 278/109/98 279/112/98 277/111/98
f 278/109/120 224/143/120 227/144/120 279/112/120
g rail_right_end
usemtl mat
f 224/145/121 278/146/121 276/147/121
f 224/145/121 276/147/121 274/148/121
f 224/145/121 274/148/121 272/149/121
f 224/145/121 272/149/121 270/150/121
f 264/151/121 262/152/121 260/153/121
f 264/151/121 260/153/121 258/154/121
f 264/151/121 258/154/121 256/155/121
f 264/151/121 256/155/121 254/156/121
f 264/151/121 254/156/121 252/157/121
f 266/158/121 264/151/121 252/157/121
f 266/158/121 252/157/121 250/159/121
f 266/158/121 250/159/121 248/160/121
f 266/158/121 248/160/121 246/161/121
f 266/158/121 246/161/121 244/162/121
f 266/158/121 244/162/121 242/163/121
f 242/163/121 240/164/121 238/165/121
f 266/158/121 242/163/121 238/165/121
f 266/158/121 238/165/121 236/166/121
f 268/167/121 266/158/121 236/166/121
f 270/150/121 268/167/121 236/166/121
f 270/150/121 236/166/121 234/168/121
f 270/150/121 234/168/121 232/169/121
f 270/150/121 232/169/121 230/170/121
f 224/145/121 270/150/121 230/170/121
f 224/145/121 230/170/121 228/171/121
f 228/171/121 225/172/121 224/145/121
f 279/146/122 227/145/122 226/172/122
f 279/146/122 226/172/122 229/171/122
f 279/146/122 229/171/122 231/170/122
f 279/146/122 231/170/122 233/169/122
f 239/165/122 241/164/122 243/163/122
f 239/165/122 243/163/122 245/162/122
f 239/165/122 245/162/122 247/161/122
f 239/165/122 247/161/122 249/160/122
f 239/165/122 249/160/122 251/159/122
f 237/166/122 239/165/122 251/159/122
f 237/166/122 251/159/122 253/157/122
f 237/166/122 253/157/122 255/156/122
f 237/166/122 255/156/122 257/155/122
f 237/166/122 257/155/122 259/154/122
f 237/166/122 259/154/122 261/153/122
f 261/153/122 263/152/122 265/151/122
f 237/166/122 261/153/122 265/151/122
f 237/166/122 265/151/122 267/158/122
f 235/168/122 237/166/122 267/158/122
f 233/169/122 235/168/122 267/158/122
f 233/169/122 267/158/122 269/167/122
f 233/169/122 269/167/122 271/150/122
f 233/169/122 271/150/122 273/149/122
f 279/146/122 233/169/122 273/149/122
f 279/146/122 273/149/122 275/148/122
f 275/148/122 277/147/122 279/146/122
