# metres; Y up; CCW outward; repeat 0.6 m
mtllib slab_mid.mtl
v -1.550000 0.081922 0.300000
v -1.510000 0.081922 0.300000
v -1.510000 0.081922 -0.300000
v -1.550000 0.081922 -0.300000
v -1.510000 -0.268078 -0.300000
v -1.550000 -0.268078 -0.300000
v -1.550000 -0.268078 0.300000
v -1.510000 -0.268078 0.300000
v -1.080000 0.081922 0.300000
v -1.080000 0.081922 -0.300000
v -1.080000 -0.268078 -0.300000
v -1.080000 -0.268078 0.300000
v -1.040000 0.081922 0.300000
v -1.040000 0.081922 -0.300000
v -1.040000 -0.268078 -0.300000
v -1.040000 -0.268078 0.300000
v -0.480000 0.081922 0.300000
v -0.480000 0.081922 -0.300000
v -0.480000 -0.268078 -0.300000
v -0.480000 -0.268078 0.300000
v -0.440000 0.081922 0.300000
v -0.440000 0.081922 -0.300000
v -0.440000 -0.268078 -0.300000
v -0.440000 -0.268078 0.300000
v 0.440000 0.081922 0.300000
v 0.440000 0.081922 -0.300000
v 0.440000 -0.268078 -0.300000
v 0.440000 -0.268078 0.300000
v 0.480000 0.081922 0.300000
v 0.480000 0.081922 -0.300000
v 0.480000 -0.268078 -0.300000
v 0.480000 -0.268078 0.300000
v 1.040000 0.081922 0.300000
v 1.040000 0.081922 -0.300000
v 1.040000 -0.268078 -0.300000
v 1.040000 -0.268078 0.300000
v 1.080000 0.081922 0.300000
v 1.080000 0.081922 -0.300000
v 1.080000 -0.268078 -0.300000
v 1.080000 -0.268078 0.300000
v 1.510000 0.081922 0.300000
v 1.510000 0.081922 -0.300000
v 1.510000 -0.268078 -0.300000
v 1.510000 -0.268078 0.300000
v 1.550000 0.081922 0.300000
v 1.550000 0.081922 -0.300000
v 1.550000 -0.268078 -0.300000
v 1.550000 -0.268078 0.300000
v -1.091500 0.081922 -0.107000
v -1.076500 0.097422 -0.107000
v -1.036500 0.127422 -0.107000
v -0.996500 0.127422 -0.107000
v -0.956500 0.085422 -0.107000
v -0.546500 0.085422 -0.107000
v -0.506500 0.127422 -0.107000
v -0.466500 0.127422 -0.107000
v -0.426500 0.097422 -0.107000
v -0.411500 0.081922 -0.107000
v -0.411500 0.081922 0.107000
v -0.426500 0.097422 0.107000
v -0.466500 0.127422 0.107000
v -0.506500 0.127422 0.107000
v -0.546500 0.085422 0.107000
v -1.091500 0.081922 0.107000
v -0.956500 0.085422 0.107000
v -1.076500 0.097422 0.107000
v -0.996500 0.127422 0.107000
v -1.036500 0.127422 0.107000
v 0.411500 0.081922 -0.107000
v 0.426500 0.097422 -0.107000
v 0.466500 0.127422 -0.107000
v 0.506500 0.127422 -0.107000
v 0.546500 0.085422 -0.107000
v 0.956500 0.085422 -0.107000
v 0.996500 0.127422 -0.107000
v 1.036500 0.127422 -0.107000
v 1.076500 0.097422 -0.107000
v 1.091500 0.081922 -0.107000
v 1.091500 0.081922 0.107000
v 1.076500 0.097422 0.107000
v 1.036500 0.127422 0.107000
v 0.996500 0.127422 0.107000
v 0.956500 0.085422 0.107000
v 0.411500 0.081922 0.107000
v 0.546500 0.085422 0.107000
v 0.426500 0.097422 0.107000
v 0.506500 0.127422 0.107000
v 0.466500 0.127422 0.107000
v -0.820500 0.099422 -0.106000
v -0.826500 0.099422 -0.100000
v -0.826500 0.099422 0.100000
v -0.820500 0.099422 0.106000
v -0.682500 0.099422 0.106000
v -0.676500 0.099422 0.100000
v -0.676500 0.099422 -0.100000
v -0.682500 0.099422 -0.106000
v -0.943500 0.095422 -0.103000
v -0.946500 0.095422 -0.100000
v -0.946500 0.095422 0.100000
v -0.943500 0.095422 0.103000
v -0.823500 0.095422 0.103000
v -0.820500 0.095422 0.100000
v -0.820500 0.095422 -0.100000
v -0.823500 0.095422 -0.103000
v -0.948500 0.126422 -0.107000
v -0.950500 0.126422 -0.105000
v -0.950500 0.126422 0.105000
v -0.948500 0.126422 0.107000
v -0.936500 0.126422 0.107000
v -0.934500 0.126422 0.105000
v -0.934500 0.126422 -0.105000
v -0.936500 0.126422 -0.107000
v -0.939500 0.109500 0.105000
v -0.901500 0.109500 0.105000
v -0.901500 0.109500 -0.105000
v -0.939500 0.109500 -0.105000
v -0.827500 0.123500 0.105000
v -0.827500 0.123500 -0.105000
v -0.819500 0.123500 0.105000
v -0.819500 0.123500 -0.105000
v -0.793500 0.129000 0.105000
v -0.793500 0.129000 -0.105000
v -0.874500 0.192000 0.000000
v -0.879500 0.192000 -0.008660
v -0.889500 0.192000 -0.008660
v -0.894500 0.192000 0.000000
v -0.889500 0.192000 0.008660
v -0.879500 0.192000 0.008660
v -0.854500 0.168000 0.000000
v -0.863287 0.168000 -0.021213
v -0.884500 0.168000 -0.030000
v -0.905713 0.168000 -0.021213
v -0.914500 0.168000 0.000000
v -0.905713 0.168000 0.021213
v -0.884500 0.168000 0.030000
v -0.863287 0.168000 0.021213
v -0.864500 0.186000 0.000000
v -0.874500 0.186000 -0.017321
v -0.894500 0.186000 -0.017321
v -0.904500 0.186000 0.000000
v -0.894500 0.186000 0.017321
v -0.874500 0.186000 0.017321
v -0.866500 0.189000 0.000000
v -0.875500 0.189000 -0.015588
v -0.893500 0.189000 -0.015588
v -0.902500 0.189000 0.000000
v -0.893500 0.189000 0.015588
v -0.875500 0.189000 0.015588
v -0.679500 0.095422 -0.103000
v -0.682500 0.095422 -0.100000
v -0.682500 0.095422 0.100000
v -0.679500 0.095422 0.103000
v -0.559500 0.095422 0.103000
v -0.556500 0.095422 0.100000
v -0.556500 0.095422 -0.100000
v -0.559500 0.095422 -0.103000
v -0.566500 0.126422 -0.107000
v -0.568500 0.126422 -0.105000
v -0.568500 0.126422 0.105000
v -0.566500 0.126422 0.107000
v -0.554500 0.126422 0.107000
v -0.552500 0.126422 0.105000
v -0.552500 0.126422 -0.105000
v -0.554500 0.126422 -0.107000
v -0.563500 0.109500 -0.105000
v -0.601500 0.109500 -0.105000
v -0.601500 0.109500 0.105000
v -0.563500 0.109500 0.105000
v -0.675500 0.123500 -0.105000
v -0.675500 0.123500 0.105000
v -0.683500 0.123500 -0.105000
v -0.683500 0.123500 0.105000
v -0.709500 0.129000 -0.105000
v -0.709500 0.129000 0.105000
v -0.608500 0.192000 0.000000
v -0.613500 0.192000 -0.008660
v -0.623500 0.192000 -0.008660
v -0.628500 0.192000 0.000000
v -0.623500 0.192000 0.008660
v -0.613500 0.192000 0.008660
v -0.588500 0.168000 0.000000
v -0.597287 0.168000 -0.021213
v -0.618500 0.168000 -0.030000
v -0.639713 0.168000 -0.021213
v -0.648500 0.168000 0.000000
v -0.639713 0.168000 0.021213
v -0.618500 0.168000 0.030000
v -0.597287 0.168000 0.021213
v -0.598500 0.186000 0.000000
v -0.608500 0.186000 -0.017321
v -0.628500 0.186000 -0.017321
v -0.638500 0.186000 0.000000
v -0.628500 0.186000 0.017321
v -0.608500 0.186000 0.017321
v -0.600500 0.189000 0.000000
v -0.609500 0.189000 -0.015588
v -0.627500 0.189000 -0.015588
v -0.636500 0.189000 0.000000
v -0.627500 0.189000 0.015588
v -0.609500 0.189000 0.015588
v -0.681500 0.099422 -0.300000
v -0.681500 0.108000 -0.300000
v -0.681500 0.108000 0.300000
v -0.681500 0.099422 0.300000
v -0.687500 0.113000 -0.300000
v -0.687500 0.113000 0.300000
v -0.725500 0.124000 -0.300000
v -0.725500 0.124000 0.300000
v -0.739500 0.134000 -0.300000
v -0.739500 0.134000 0.300000
v -0.742500 0.145000 -0.300000
v -0.742500 0.145000 0.300000
v -0.742500 0.207000 -0.300000
v -0.742500 0.207000 0.300000
v -0.738500 0.219000 -0.300000
v -0.738500 0.219000 0.300000
v -0.724500 0.225000 -0.300000
v -0.724500 0.225000 0.300000
v -0.718500 0.231000 -0.300000
v -0.718500 0.231000 0.300000
v -0.717500 0.239000 -0.300000
v -0.717500 0.239000 0.300000
v -0.717500 0.254000 -0.300000
v -0.717500 0.254000 0.300000
v -0.719500 0.260000 -0.300000
v -0.719500 0.260000 0.300000
v -0.725500 0.264280 -0.300000
v -0.725500 0.264280 0.300000
v -0.777500 0.264280 -0.300000
v -0.777500 0.264280 0.300000
v -0.783500 0.260000 -0.300000
v -0.783500 0.260000 0.300000
v -0.785500 0.254000 -0.300000
v -0.785500 0.254000 0.300000
v -0.785500 0.239000 -0.300000
v -0.785500 0.239000 0.300000
v -0.784500 0.231000 -0.300000
v -0.784500 0.231000 0.300000
v -0.778500 0.225000 -0.300000
v -0.778500 0.225000 0.300000
v -0.764500 0.219000 -0.300000
v -0.764500 0.219000 0.300000
v -0.760500 0.207000 -0.300000
v -0.760500 0.207000 0.300000
v -0.760500 0.145000 -0.300000
v -0.760500 0.145000 0.300000
v -0.763500 0.134000 -0.300000
v -0.763500 0.134000 0.300000
v -0.777500 0.124000 -0.300000
v -0.777500 0.124000 0.300000
v -0.815500 0.113000 -0.300000
v -0.815500 0.113000 0.300000
v -0.821500 0.108000 -0.300000
v -0.821500 0.108000 0.300000
v -0.821500 0.099422 -0.300000
v -0.821500 0.099422 0.300000
v 0.682500 0.099422 -0.106000
v 0.676500 0.099422 -0.100000
v 0.676500 0.099422 0.100000
v 0.682500 0.099422 0.106000
v 0.820500 0.099422 0.106000
v 0.826500 0.099422 0.100000
v 0.826500 0.099422 -0.100000
v 0.820500 0.099422 -0.106000
v 0.559500 0.095422 -0.103000
v 0.556500 0.095422 -0.100000
v 0.556500 0.095422 0.100000
v 0.559500 0.095422 0.103000
v 0.679500 0.095422 0.103000
v 0.682500 0.095422 0.100000
v 0.682500 0.095422 -0.100000
v 0.679500 0.095422 -0.103000
v 0.554500 0.126422 -0.107000
v 0.552500 0.126422 -0.105000
v 0.552500 0.126422 0.105000
v 0.554500 0.126422 0.107000
v 0.566500 0.126422 0.107000
v 0.568500 0.126422 0.105000
v 0.568500 0.126422 -0.105000
v 0.566500 0.126422 -0.107000
v 0.563500 0.109500 0.105000
v 0.601500 0.109500 0.105000
v 0.601500 0.109500 -0.105000
v 0.563500 0.109500 -0.105000
v 0.675500 0.123500 0.105000
v 0.675500 0.123500 -0.105000
v 0.683500 0.123500 0.105000
v 0.683500 0.123500 -0.105000
v 0.709500 0.129000 0.105000
v 0.709500 0.129000 -0.105000
v 0.628500 0.192000 0.000000
v 0.623500 0.192000 -0.008660
v 0.613500 0.192000 -0.008660
v 0.608500 0.192000 0.000000
v 0.613500 0.192000 0.008660
v 0.623500 0.192000 0.008660
v 0.648500 0.168000 0.000000
v 0.639713 0.168000 -0.021213
v 0.618500 0.168000 -0.030000
v 0.597287 0.168000 -0.021213
v 0.588500 0.168000 0.000000
v 0.597287 0.168000 0.021213
v 0.618500 0.168000 0.030000
v 0.639713 0.168000 0.021213
v 0.638500 0.186000 0.000000
v 0.628500 0.186000 -0.017321
v 0.608500 0.186000 -0.017321
v 0.598500 0.186000 0.000000
v 0.608500 0.186000 0.017321
v 0.628500 0.186000 0.017321
v 0.636500 0.189000 0.000000
v 0.627500 0.189000 -0.015588
v 0.609500 0.189000 -0.015588
v 0.600500 0.189000 0.000000
v 0.609500 0.189000 0.015588
v 0.627500 0.189000 0.015588
v 0.823500 0.095422 -0.103000
v 0.820500 0.095422 -0.100000
v 0.820500 0.095422 0.100000
v 0.823500 0.095422 0.103000
v 0.943500 0.095422 0.103000
v 0.946500 0.095422 0.100000
v 0.946500 0.095422 -0.100000
v 0.943500 0.095422 -0.103000
v 0.936500 0.126422 -0.107000
v 0.934500 0.126422 -0.105000
v 0.934500 0.126422 0.105000
v 0.936500 0.126422 0.107000
v 0.948500 0.126422 0.107000
v 0.950500 0.126422 0.105000
v 0.950500 0.126422 -0.105000
v 0.948500 0.126422 -0.107000
v 0.939500 0.109500 -0.105000
v 0.901500 0.109500 -0.105000
v 0.901500 0.109500 0.105000
v 0.939500 0.109500 0.105000
v 0.827500 0.123500 -0.105000
v 0.827500 0.123500 0.105000
v 0.819500 0.123500 -0.105000
v 0.819500 0.123500 0.105000
v 0.793500 0.129000 -0.105000
v 0.793500 0.129000 0.105000
v 0.894500 0.192000 0.000000
v 0.889500 0.192000 -0.008660
v 0.879500 0.192000 -0.008660
v 0.874500 0.192000 0.000000
v 0.879500 0.192000 0.008660
v 0.889500 0.192000 0.008660
v 0.914500 0.168000 0.000000
v 0.905713 0.168000 -0.021213
v 0.884500 0.168000 -0.030000
v 0.863287 0.168000 -0.021213
v 0.854500 0.168000 0.000000
v 0.863287 0.168000 0.021213
v 0.884500 0.168000 0.030000
v 0.905713 0.168000 0.021213
v 0.904500 0.186000 0.000000
v 0.894500 0.186000 -0.017321
v 0.874500 0.186000 -0.017321
v 0.864500 0.186000 0.000000
v 0.874500 0.186000 0.017321
v 0.894500 0.186000 0.017321
v 0.902500 0.189000 0.000000
v 0.893500 0.189000 -0.015588
v 0.875500 0.189000 -0.015588
v 0.866500 0.189000 0.000000
v 0.875500 0.189000 0.015588
v 0.893500 0.189000 0.015588
v 0.821500 0.099422 -0.300000
v 0.821500 0.108000 -0.300000
v 0.821500 0.108000 0.300000
v 0.821500 0.099422 0.300000
v 0.815500 0.113000 -0.300000
v 0.815500 0.113000 0.300000
v 0.777500 0.124000 -0.300000
v 0.777500 0.124000 0.300000
v 0.763500 0.134000 -0.300000
v 0.763500 0.134000 0.300000
v 0.760500 0.145000 -0.300000
v 0.760500 0.145000 0.300000
v 0.760500 0.207000 -0.300000
v 0.760500 0.207000 0.300000
v 0.764500 0.219000 -0.300000
v 0.764500 0.219000 0.300000
v 0.778500 0.225000 -0.300000
v 0.778500 0.225000 0.300000
v 0.784500 0.231000 -0.300000
v 0.784500 0.231000 0.300000
v 0.785500 0.239000 -0.300000
v 0.785500 0.239000 0.300000
v 0.785500 0.254000 -0.300000
v 0.785500 0.254000 0.300000
v 0.783500 0.260000 -0.300000
v 0.783500 0.260000 0.300000
v 0.777500 0.264280 -0.300000
v 0.777500 0.264280 0.300000
v 0.725500 0.264280 -0.300000
v 0.725500 0.264280 0.300000
v 0.719500 0.260000 -0.300000
v 0.719500 0.260000 0.300000
v 0.717500 0.254000 -0.300000
v 0.717500 0.254000 0.300000
v 0.717500 0.239000 -0.300000
v 0.717500 0.239000 0.300000
v 0.718500 0.231000 -0.300000
v 0.718500 0.231000 0.300000
v 0.724500 0.225000 -0.300000
v 0.724500 0.225000 0.300000
v 0.738500 0.219000 -0.300000
v 0.738500 0.219000 0.300000
v 0.742500 0.207000 -0.300000
v 0.742500 0.207000 0.300000
v 0.742500 0.145000 -0.300000
v 0.742500 0.145000 0.300000
v 0.739500 0.134000 -0.300000
v 0.739500 0.134000 0.300000
v 0.725500 0.124000 -0.300000
v 0.725500 0.124000 0.300000
v 0.687500 0.113000 -0.300000
v 0.687500 0.113000 0.300000
v 0.681500 0.108000 -0.300000
v 0.681500 0.108000 0.300000
v 0.681500 0.099422 -0.300000
v 0.681500 0.099422 0.300000
vt 0.01062500 0.49160448
vt 0.32937500 0.49160448
vt 0.32937500 0.01585821
vt 0.01062500 0.01585821
vt 0.01765625 0.17792562
vt 0.03640625 0.49160448
vt 0.05515625 0.49160448
vt 0.07390625 0.05245408
vt 0.26609375 0.05245408
vt 0.28484375 0.49160448
vt 0.30359375 0.49160448
vt 0.32234375 0.17792562
vt 0.61016000 0.31082090
vt 0.60837500 0.31566812
vt 0.60837500 0.47724233
vt 0.61016000 0.48208955
vt 0.65121500 0.48208955
vt 0.65300000 0.47724233
vt 0.65300000 0.31566812
vt 0.65121500 0.31082090
vt 0.34631696 0.01585821
vt 0.34062500 0.02278655
vt 0.34062500 0.48467613
vt 0.34631696 0.49160448
vt 0.57399554 0.49160448
vt 0.57968750 0.48467613
vt 0.57968750 0.02278655
vt 0.57399554 0.01585821
vt 0.61395312 0.02537313
vt 0.60837500 0.02697378
vt 0.60837500 0.19504115
vt 0.61395312 0.19664179
vt 0.64742188 0.19664179
vt 0.65300000 0.19504115
vt 0.65300000 0.02697378
vt 0.64742188 0.02537313
vt 0.34062500 0.49160448
vt 0.57968750 0.49160448
vt 0.57968750 0.01585821
vt 0.34062500 0.01585821
vt 0.57968750 0.25373134
vt 0.51992188 0.04772717
vt 0.40039062 0.04772717
vt 0.34062500 0.25373134
vt 0.40039062 0.45973552
vt 0.51992188 0.45973552
vt 0.54467761 0.08552964
vt 0.46015625 0.01585821
vt 0.37563489 0.08552964
vt 0.37563489 0.42193305
vt 0.46015625 0.49160448
vt 0.54467761 0.42193305
vt 0.01062500 0.50839552
vt 0.01062500 0.53314987
vt 0.32937500 0.53314987
vt 0.32937500 0.50839552
vt 0.01062500 0.54757884
vt 0.32937500 0.54757884
vt 0.01062500 0.57932257
vt 0.32937500 0.57932257
vt 0.01062500 0.60818052
vt 0.32937500 0.60818052
vt 0.01062500 0.63992425
vt 0.32937500 0.63992425
vt 0.01062500 0.81884350
vt 0.32937500 0.81884350
vt 0.01062500 0.85347303
vt 0.32937500 0.85347303
vt 0.01062500 0.87078779
vt 0.32937500 0.87078779
vt 0.01062500 0.88810256
vt 0.32937500 0.88810256
vt 0.01062500 0.91118891
vt 0.32937500 0.91118891
vt 0.01062500 0.95447583
vt 0.32937500 0.95447583
vt 0.01062500 0.97179059
vt 0.32937500 0.97179059
vt 0.34062500 0.97014925
vt 0.34062500 0.92817164
vt 0.65937500 0.92817164
vt 0.65937500 0.97014925
vt 0.34062500 0.56436567
vt 0.65937500 0.56436567
vt 0.34062500 0.52238806
vt 0.65937500 0.52238806
vt 0.01062500 0.57500000
vt 0.32937500 0.57500000
vt 0.98937500 0.50839552
vt 0.67062500 0.50839552
vt 0.67062500 0.53314987
vt 0.68428571 0.54757884
vt 0.77080357 0.57932257
vt 0.80267857 0.60818052
vt 0.80040179 0.85347303
vt 0.76852679 0.87078779
vt 0.75486607 0.88810256
vt 0.75258929 0.91118891
vt 0.75258929 0.95447583
vt 0.75714286 0.97179059
vt 0.77080357 0.98414179
vt 0.80950893 0.81884350
vt 0.88919643 0.98414179
vt 0.90285714 0.97179059
vt 0.90741071 0.95447583
vt 0.90741071 0.91118891
vt 0.90513393 0.88810256
vt 0.89147321 0.87078779
vt 0.85959821 0.85347303
vt 0.85049107 0.81884350
vt 0.80950893 0.63992425
vt 0.85049107 0.63992425
vt 0.85732143 0.60818052
vt 0.88919643 0.57932257
vt 0.97571429 0.54757884
vt 0.98937500 0.53314987
vn -0.00000000 1.00000000 0.00000000
vn 0.00000000 0.00000000 -1.00000000
vn 0.00000000 0.00000000 1.00000000
vn -1.00000000 0.00000000 0.00000000
vn 1.00000000 0.00000000 0.00000000
vn 0.00000000 -1.00000000 0.00000000
vn 0.71860214 0.69542143 0.00000000
vn 0.60000000 0.80000000 0.00000000
vn -0.72413793 0.68965517 0.00000000
vn 0.72413793 0.68965517 0.00000000
vn -0.60000000 0.80000000 0.00000000
vn -0.71860214 0.69542143 0.00000000
vn -0.18589167 0.98257025 0.00000000
vn -0.20695859 0.97834970 0.00000000
vn 0.18589167 0.98257025 0.00000000
vn 0.20695859 0.97834970 0.00000000
vn 0.64018440 0.76822128 0.00000000
vn 0.27805808 0.96056426 0.00000000
vn 0.58123819 0.81373347 0.00000000
vn 0.96476382 0.26311741 0.00000000
vn 0.94868330 -0.31622777 0.00000000
vn 0.39391930 -0.91914503 0.00000000
vn 0.70710678 -0.70710678 0.00000000
vn 0.99227788 -0.12403473 0.00000000
vn 0.94868330 0.31622777 0.00000000
vn 0.58072468 0.81410002 0.00000000
vn -0.58072468 0.81410002 0.00000000
vn -0.94868330 0.31622777 0.00000000
vn -0.99227788 -0.12403473 0.00000000
vn -0.70710678 -0.70710678 0.00000000
vn -0.39391930 -0.91914503 0.00000000
vn -0.94868330 -0.31622777 0.00000000
vn -0.96476382 0.26311741 0.00000000
vn -0.58123819 0.81373347 0.00000000
vn -0.27805808 0.96056426 0.00000000
vn -0.64018440 0.76822128 0.00000000
g slab_bed
usemtl mat
f 1/1/1 2/2/1 3/3/1 4/4/1
f 4/1/2 3/2/2 5/3/2 6/4/2
f 7/4/3 8/3/3 2/2/3 1/1/3
f 2/1/1 9/2/1 10/3/1 3/4/1
f 3/1/2 10/2/2 11/3/2 5/4/2
f 8/4/3 12/3/3 9/2/3 2/1/3
f 9/1/1 13/2/1 14/3/1 10/4/1
f 10/1/2 14/2/2 15/3/2 11/4/2
f 12/4/3 16/3/3 13/2/3 9/1/3
f 13/1/1 17/2/1 18/3/1 14/4/1
f 14/1/2 18/2/2 19/3/2 15/4/2
f 16/4/3 20/3/3 17/2/3 13/1/3
f 17/1/1 21/2/1 22/3/1 18/4/1
f 18/1/2 22/2/2 23/3/2 19/4/2
f 20/4/3 24/3/3 21/2/3 17/1/3
f 21/1/1 25/2/1 26/3/1 22/4/1
f 22/1/2 26/2/2 27/3/2 23/4/2
f 24/4/3 28/3/3 25/2/3 21/1/3
f 25/1/1 29/2/1 30/3/1 26/4/1
f 26/1/2 30/2/2 31/3/2 27/4/2
f 28/4/3 32/3/3 29/2/3 25/1/3
f 29/1/1 33/2/1 34/3/1 30/4/1
f 30/1/2 34/2/2 35/3/2 31/4/2
f 32/4/3 36/3/3 33/2/3 29/1/3
f 33/1/1 37/2/1 38/3/1 34/4/1
f 34/1/2 38/2/2 39/3/2 35/4/2
f 36/4/3 40/3/3 37/2/3 33/1/3
f 37/1/1 41/2/1 42/3/1 38/4/1
f 38/1/2 42/2/2 43/3/2 39/4/2
f 40/4/3 44/3/3 41/2/3 37/1/3
f 41/1/1 45/2/1 46/3/1 42/4/1
f 42/1/2 46/2/2 47/3/2 43/4/2
f 44/4/3 48/3/3 45/2/3 41/1/3
f 7/1/4 1/2/4 4/3/4 6/4/4
f 47/4/5 46/3/5 45/2/5 48/1/5
g sleeper
usemtl mat
f 49/4/2 50/5/2 51/6/2
f 49/4/2 51/6/2 52/7/2
f 49/4/2 52/7/2 53/8/2
f 49/4/2 53/8/2 54/9/2
f 54/9/2 55/10/2 56/11/2
f 54/9/2 56/11/2 57/12/2
f 54/9/2 57/12/2 58/3/2
f 54/9/2 58/3/2 49/4/2
f 59/3/3 60/12/3 61/11/3
f 59/3/3 61/11/3 62/10/3
f 59/3/3 62/10/3 63/9/3
f 64/4/3 59/3/3 63/9/3
f 64/4/3 63/9/3 65/8/3
f 66/5/3 64/4/3 65/8/3
f 66/5/3 65/8/3 67/7/3
f 67/7/3 68/6/3 66/5/3
f 49/4/6 58/3/6 59/2/6 64/1/6
f 58/4/7 57/3/7 60/2/7 59/1/7
f 57/4/8 56/3/8 61/2/8 60/1/8
f 56/4/1 55/3/1 62/2/1 61/1/1
f 55/4/9 54/3/9 63/2/9 62/1/9
f 54/4/1 53/3/1 65/2/1 63/1/1
f 53/4/10 52/3/10 67/2/10 65/1/10
f 52/4/1 51/3/1 68/2/1 67/1/1
f 51/4/11 50/3/11 66/2/11 68/1/11
f 50/4/12 49/3/12 64/2/12 66/1/12
f 69/4/2 70/5/2 71/6/2
f 69/4/2 71/6/2 72/7/2
f 69/4/2 72/7/2 73/8/2
f 69/4/2 73/8/2 74/9/2
f 74/9/2 75/10/2 76/11/2
f 74/9/2 76/11/2 77/12/2
f 74/9/2 77/12/2 78/3/2
f 74/9/2 78/3/2 69/4/2
f 79/3/3 80/12/3 81/11/3
f 79/3/3 81/11/3 82/10/3
f 79/3/3 82/10/3 83/9/3
f 84/4/3 79/3/3 83/9/3
f 84/4/3 83/9/3 85/8/3
f 86/5/3 84/4/3 85/8/3
f 86/5/3 85/8/3 87/7/3
f 87/7/3 88/6/3 86/5/3
f 69/4/6 78/3/6 79/2/6 84/1/6
f 78/4/7 77/3/7 80/2/7 79/1/7
f 77/4/8 76/3/8 81/2/8 80/1/8
f 76/4/1 75/3/1 82/2/1 81/1/1
f 75/4/9 74/3/9 83/2/9 82/1/9
f 74/4/1 73/3/1 85/2/1 83/1/1
f 73/4/10 72/3/10 87/2/10 85/1/10
f 72/4/1 71/3/1 88/2/1 87/1/1
f 71/4/11 70/3/11 86/2/11 88/1/11
f 70/4/12 69/3/12 84/2/12 86/1/12
g fastener_left
usemtl mat
f 89/13/1 90/14/1 91/15/1
f 89/13/1 91/15/1 92/16/1
f 89/13/1 92/16/1 93/17/1
f 89/13/1 93/17/1 94/18/1
f 89/13/1 94/18/1 95/19/1
f 95/19/1 96/20/1 89/13/1
f 97/21/1 98/22/1 99/23/1
f 97/21/1 99/23/1 100/24/1
f 97/21/1 100/24/1 101/25/1
f 97/21/1 101/25/1 102/26/1
f 97/21/1 102/26/1 103/27/1
f 103/27/1 104/28/1 97/21/1
f 105/29/1 106/30/1 107/31/1
f 105/29/1 107/31/1 108/32/1
f 105/29/1 108/32/1 109/33/1
f 105/29/1 109/33/1 110/34/1
f 105/29/1 110/34/1 111/35/1
f 111/35/1 112/36/1 105/29/1
f 113/37/1 114/38/1 115/39/1 116/40/1
f 114/37/13 117/38/13 118/39/13 115/40/13
f 117/37/1 119/38/1 120/39/1 118/40/1
f 119/37/14 121/38/14 122/39/14 120/40/14
f 123/41/1 124/42/1 125/43/1
f 123/41/1 125/43/1 126/44/1
f 123/41/1 126/44/1 127/45/1
f 127/45/1 128/46/1 123/41/1
f 129/41/1 130/47/1 131/48/1
f 129/41/1 131/48/1 132/49/1
f 129/41/1 132/49/1 133/44/1
f 129/41/1 133/44/1 134/50/1
f 129/41/1 134/50/1 135/51/1
f 135/51/1 136/52/1 129/41/1
f 137/41/1 138/42/1 139/43/1
f 137/41/1 139/43/1 140/44/1
f 137/41/1 140/44/1 141/45/1
f 141/45/1 142/46/1 137/41/1
f 143/41/1 144/42/1 145/43/1
f 143/41/1 145/43/1 146/44/1
f 143/41/1 146/44/1 147/45/1
f 147/45/1 148/46/1 143/41/1
f 149/21/1 150/22/1 151/23/1
f 149/21/1 151/23/1 152/24/1
f 149/21/1 152/24/1 153/25/1
f 149/21/1 153/25/1 154/26/1
f 149/21/1 154/26/1 155/27/1
f 155/27/1 156/28/1 149/21/1
f 157/29/1 158/30/1 159/31/1
f 157/29/1 159/31/1 160/32/1
f 157/29/1 160/32/1 161/33/1
f 157/29/1 161/33/1 162/34/1
f 157/29/1 162/34/1 163/35/1
f 163/35/1 164/36/1 157/29/1
f 165/40/1 166/39/1 167/38/1 168/37/1
f 166/40/15 169/39/15 170/38/15 167/37/15
f 169/40/1 171/39/1 172/38/1 170/37/1
f 171/40/16 173/39/16 174/38/16 172/37/16
f 175/41/1 176/42/1 177/43/1
f 175/41/1 177/43/1 178/44/1
f 175/41/1 178/44/1 179/45/1
f 179/45/1 180/46/1 175/41/1
f 181/41/1 182/47/1 183/48/1
f 181/41/1 183/48/1 184/49/1
f 181/41/1 184/49/1 185/44/1
f 181/41/1 185/44/1 186/50/1
f 181/41/1 186/50/1 187/51/1
f 187/51/1 188/52/1 181/41/1
f 189/41/1 190/42/1 191/43/1
f 189/41/1 191/43/1 192/44/1
f 189/41/1 192/44/1 193/45/1
f 193/45/1 194/46/1 189/41/1
f 195/41/1 196/42/1 197/43/1
f 195/41/1 197/43/1 198/44/1
f 195/41/1 198/44/1 199/45/1
f 199/45/1 200/46/1 195/41/1
g rail_left
usemtl mat
f 201/53/5 202/54/5 203/55/5 204/56/5
f 202/54/17 205/57/17 206/58/17 203/55/17
f 205/57/18 207/59/18 208/60/18 206/58/18
f 207/59/19 209/61/19 210/62/19 208/60/19
f 209/61/20 211/63/20 212/64/20 210/62/20
f 211/63/5 213/65/5 214/66/5 212/64/5
f 213/65/21 215/67/21 216/68/21 214/66/21
f 215/67/22 217/69/22 218/70/22 216/68/22
f 217/69/23 219/71/23 220/72/23 218/70/23
f 219/71/24 221/73/24 222/74/24 220/72/24
f 221/73/5 223/75/5 224/76/5 222/74/5
f 223/75/25 225/77/25 226/78/25 224/76/25
f 225/79/26 227/80/26 228/81/26 226/82/26
f 227/80/1 229/83/1 230/84/1 228/81/1
f 229/83/27 231/85/27 232/86/27 230/84/27
f 231/77/28 233/75/28 234/76/28 232/78/28
f 233/75/4 235/73/4 236/74/4 234/76/4
f 235/73/29 237/71/29 238/72/29 236/74/29
f 237/71/30 239/69/30 240/70/30 238/72/30
f 239/69/31 241/67/31 242/68/31 240/70/31
f 241/67/32 243/65/32 244/66/32 242/68/32
f 243/65/4 245/63/4 246/64/4 244/66/4
f 245/63/33 247/61/33 248/62/33 246/64/33
f 247/61/34 249/59/34 250/60/34 248/62/34
f 249/59/35 251/57/35 252/58/35 250/60/35
f 251/57/36 253/54/36 254/55/36 252/58/36
f 253/54/4 255/53/4 256/56/4 254/55/4
f 255/53/6 201/87/6 204/88/6 256/56/6
g rail_left_end
usemtl mat
f 201/89/2 255/90/2 253/91/2
f 201/89/2 253/91/2 251/92/2
f 201/89/2 251/92/2 249/93/2
f 201/89/2 249/93/2 247/94/2
f 241/95/2 239/96/2 237/97/2
f 241/95/2 237/97/2 235/98/2
f 241/95/2 235/98/2 233/99/2
f 241/95/2 233/99/2 231/100/2
f 241/95/2 231/100/2 229/101/2
f 243/102/2 241/95/2 229/101/2
f 243/102/2 229/101/2 227/103/2
f 243/102/2 227/103/2 225/104/2
f 243/102/2 225/104/2 223/105/2
f 243/102/2 223/105/2 221/106/2
f 243/102/2 221/106/2 219/107/2
f 219/107/2 217/108/2 215/109/2
f 243/102/2 219/107/2 215/109/2
f 243/102/2 215/109/2 213/110/2
f 245/111/2 243/102/2 213/110/2
f 247/94/2 245/111/2 213/110/2
f 247/94/2 213/110/2 211/112/2
f 247/94/2 211/112/2 209/113/2
f 247/94/2 209/113/2 207/114/2
f 201/89/2 247/94/2 207/114/2
f 201/89/2 207/114/2 205/115/2
f 205/115/2 202/116/2 201/89/2
f 256/90/3 204/89/3 203/116/3
f 256/90/3 203/116/3 206/115/3
f 256/90/3 206/115/3 208/114/3
f 256/90/3 208/114/3 210/113/3
f 216/109/3 218/108/3 220/107/3
f 216/109/3 220/107/3 222/106/3
f 216/109/3 222/106/3 224/105/3
f 216/109/3 224/105/3 226/104/3
f 216/109/3 226/104/3 228/103/3
f 214/110/3 216/109/3 228/103/3
f 214/110/3 228/103/3 230/101/3
f 214/110/3 230/101/3 232/100/3
f 214/110/3 232/100/3 234/99/3
f 214/110/3 234/99/3 236/98/3
f 214/110/3 236/98/3 238/97/3
f 238/97/3 240/96/3 242/95/3
f 214/110/3 238/97/3 242/95/3
f 214/110/3 242/95/3 244/102/3
f 212/112/3 214/110/3 244/102/3
f 210/113/3 212/112/3 244/102/3
f 210/113/3 244/102/3 246/111/3
f 210/113/3 246/111/3 248/94/3
f 210/113/3 248/94/3 250/93/3
f 256/90/3 210/113/3 250/93/3
f 256/90/3 250/93/3 252/92/3
f 252/92/3 254/91/3 256/90/3
g fastener_right
usemtl mat
f 257/13/1 258/14/1 259/15/1
f 257/13/1 259/15/1 260/16/1
f 257/13/1 260/16/1 261/17/1
f 257/13/1 261/17/1 262/18/1
f 257/13/1 262/18/1 263/19/1
f 263/19/1 264/20/1 257/13/1
f 265/21/1 266/22/1 267/23/1
f 265/21/1 267/23/1 268/24/1
f 265/21/1 268/24/1 269/25/1
f 265/21/1 269/25/1 270/26/1
f 265/21/1 270/26/1 271/27/1
f 271/27/1 272/28/1 265/21/1
f 273/29/1 274/30/1 275/31/1
f 273/29/1 275/31/1 276/32/1
f 273/29/1 276/32/1 277/33/1
f 273/29/1 277/33/1 278/34/1
f 273/29/1 278/34/1 279/35/1
f 279/35/1 280/36/1 273/29/1
f 281/37/1 282/38/1 283/39/1 284/40/1
f 282/37/13 285/38/13 286/39/13 283/40/13
f 285/37/1 287/38/1 288/39/1 286/40/1
f 287/37/14 289/38/14 290/39/14 288/40/14
f 291/41/1 292/42/1 293/43/1
f 291/41/1 293/43/1 294/44/1
f 291/41/1 294/44/1 295/45/1
f 295/45/1 296/46/1 291/41/1
f 297/41/1 298/47/1 299/48/1
f 297/41/1 299/48/1 300/49/1
f 297/41/1 300/49/1 301/44/1
f 297/41/1 301/44/1 302/50/1
f 297/41/1 302/50/1 303/51/1
f 303/51/1 304/52/1 297/41/1
f 305/41/1 306/42/1 307/43/1
f 305/41/1 307/43/1 308/44/1
f 305/41/1 308/44/1 309/45/1
f 309/45/1 310/46/1 305/41/1
f 311/41/1 312/42/1 313/43/1
f 311/41/1 313/43/1 314/44/1
f 311/41/1 314/44/1 315/45/1
f 315/45/1 316/46/1 311/41/1
f 317/21/1 318/22/1 319/23/1
f 317/21/1 319/23/1 320/24/1
f 317/21/1 320/24/1 321/25/1
f 317/21/1 321/25/1 322/26/1
f 317/21/1 322/26/1 323/27/1
f 323/27/1 324/28/1 317/21/1
f 325/29/1 326/30/1 327/31/1
f 325/29/1 327/31/1 328/32/1
f 325/29/1 328/32/1 329/33/1
f 325/29/1 329/33/1 330/34/1
f 325/29/1 330/34/1 331/35/1
f 331/35/1 332/36/1 325/29/1
f 333/40/1 334/39/1 335/38/1 336/37/1
f 334/40/15 337/39/15 338/38/15 335/37/15
f 337/40/1 339/39/1 340/38/1 338/37/1
f 339/40/16 341/39/16 342/38/16 340/37/16
f 343/41/1 344/42/1 345/43/1
f 343/41/1 345/43/1 346/44/1
f 343/41/1 346/44/1 347/45/1
f 347/45/1 348/46/1 343/41/1
f 349/41/1 350/47/1 351/48/1
f 349/41/1 351/48/1 352/49/1
f 349/41/1 352/49/1 353/44/1
f 349/41/1 353/44/1 354/50/1
f 349/41/1 354/50/1 355/51/1
f 355/51/1 356/52/1 349/41/1
f 357/41/1 358/42/1 359/43/1
f 357/41/1 359/43/1 360/44/1
f 357/41/1 360/44/1 361/45/1
f 361/45/1 362/46/1 357/41/1
f 363/41/1 364/42/1 365/43/1
f 363/41/1 365/43/1 366/44/1
f 363/41/1 366/44/1 367/45/1
f 367/45/1 368/46/1 363/41/1
g rail_right
usemtl mat
f 369/53/5 370/54/5 371/55/5 372/56/5
f 370/54/17 373/57/17 374/58/17 371/55/17
f 373/57/18 375/59/18 376/60/18 374/58/18
f 375/59/19 377/61/19 378/62/19 376/60/19
f 377/61/20 379/63/20 380/64/20 378/62/20
f 379/63/5 381/65/5 382/66/5 380/64/5
f 381/65/21 383/67/21 384/68/21 382/66/21
f 383/67/22 385/69/22 386/70/22 384/68/22
f 385/69/23 387/71/23 388/72/23 386/70/23
f 387/71/24 389/73/24 390/74/24 388/72/24
f 389/73/5 391/75/5 392/76/5 390/74/5
f 391/75/25 393/77/25 394/78/25 392/76/25
f 393/79/26 395/80/26 396/81/26 394/82/26
f 395/80/1 397/83/1 398/84/1 396/81/1
f 397/83/27 399/85/27 400/86/27 398/84/27
f 399/77/28 401/75/28 402/76/28 400/78/28
f 401/75/4 403/73/4 404/74/4 402/76/4
f 403/73/29 405/71/29 406/72/29 404/74/29
f 405/71/30 407/69/30 408/70/30 406/72/30
f 407/69/31 409/67/31 410/68/31 408/70/31
f 409/67/32 411/65/32 412/66/32 410/68/32
f 411/65/4 413/63/4 414/64/4 412/66/4
f 413/63/33 415/61/33 416/62/33 414/64/33
f 415/61/34 417/59/34 418/60/34 416/62/34
f 417/59/35 419/57/35 420/58/35 418/60/35
f 419/57/36 421/54/36 422/55/36 420/58/36
f 421/54/4 423/53/4 424/56/4 422/55/4
f 423/53/6 369/87/6 372/88/6 424/56/6
g rail_right_end
usemtl mat
f 369/89/2 423/90/2 421/91/2
f 369/89/2 421/91/2 419/92/2
f 369/89/2 419/92/2 417/93/2
f 369/89/2 417/93/2 415/94/2
f 409/95/2 407/96/2 405/97/2
f 409/95/2 405/97/2 403/98/2
f 409/95/2 403/98/2 401/99/2
f 409/95/2 401/99/2 399/100/2
f 409/95/2 399/100/2 397/101/2
f 411/102/2 409/95/2 397/101/2
f 411/102/2 397/101/2 395/103/2
f 411/102/2 395/103/2 393/104/2
f 411/102/2 393/104/2 391/105/2
f 411/102/2 391/105/2 389/106/2
f 411/102/2 389/106/2 387/107/2
f 387/107/2 385/108/2 383/109/2
f 411/102/2 387/107/2 383/109/2
f 411/102/2 383/109/2 381/110/2
f 413/111/2 411/102/2 381/110/2
f 415/94/2 413/111/2 381/110/2
f 415/94/2 381/110/2 379/112/2
f 415/94/2 379/112/2 377/113/2
f 415/94/2 377/113/2 375/114/2
f 369/89/2 415/94/2 375/114/2
f 369/89/2 375/114/2 373/115/2
f 373/115/2 370/116/2 369/89/2
f 424/90/3 372/89/3 371/116/3
f 424/90/3 371/116/3 374/115/3
f 424/90/3 374/115/3 376/114/3
f 424/90/3 376/114/3 378/113/3
f 384/109/3 386/108/3 388/107/3
f 384/109/3 388/107/3 390/106/3
f 384/109/3 390/106/3 392/105/3
f 384/109/3 392/105/3 394/104/3
f 384/109/3 394/104/3 396/103/3
f 382/110/3 384/109/3 396/103/3
f 382/110/3 396/103/3 398/101/3
f 382/110/3 398/101/3 400/100/3
f 382/110/3 400/100/3 402/99/3
f 382/110/3 402/99/3 404/98/3
f 382/110/3 404/98/3 406/97/3
f 406/97/3 408/96/3 410/95/3
f 382/110/3 406/97/3 410/95/3
f 382/110/3 410/95/3 412/102/3
f 380/112/3 382/110/3 412/102/3
f 378/113/3 380/112/3 412/102/3
f 378/113/3 412/102/3 414/111/3
f 378/113/3 414/111/3 416/94/3
f 378/113/3 416/94/3 418/93/3
f 424/90/3 378/113/3 418/93/3
f 424/90/3 418/93/3 420/92/3
f 420/92/3 422/91/3 424/90/3
