# metres; Y up; CCW outward; repeat 0.6 m
mtllib slab_low.mtl
v -1.550000 0.081922 0.300000
v -1.510000 0.081922 0.300000
v -1.510000 0.081922 -0.300000
v -1.550000 0.081922 -0.300000
v -1.510000 -0.268078 -0.300000
v -1.550000 -0.268078 -0.300000
v -1.550000 -0.268078 0.300000
v -1.510000 -0.268078 0.300000
v -1.080000 0.081922 0.300000
v -1.080000 0.081922 -0.300000
v -1.080000 -0.268078 -0.300000
v -1.080000 -0.268078 0.300000
v -1.040000 0.081922 0.300000
v -1.040000 0.081922 -0.300000
v -1.040000 -0.268078 -0.300000
v -1.040000 -0.268078 0.300000
v -0.480000 0.081922 0.300000
v -0.480000 0.081922 -0.300000
v -0.480000 -0.268078 -0.300000
v -0.480000 -0.268078 0.300000
v -0.440000 0.081922 0.300000
v -0.440000 0.081922 -0.300000
v -0.440000 -0.268078 -0.300000
v -0.440000 -0.268078 0.300000
v 0.440000 0.081922 0.300000
v 0.440000 0.081922 -0.300000
v 0.440000 -0.268078 -0.300000
v 0.440000 -0.268078 0.300000
v 0.480000 0.081922 0.300000
v 0.480000 0.081922 -0.300000
v 0.480000 -0.268078 -0.300000
v 0.480000 -0.268078 0.300000
v 1.040000 0.081922 0.300000
v 1.040000 0.081922 -0.300000
v 1.040000 -0.268078 -0.300000
v 1.040000 -0.268078 0.300000
v 1.080000 0.081922 0.300000
v 1.080000 0.081922 -0.300000
v 1.080000 -0.268078 -0.300000
v 1.080000 -0.268078 0.300000
v 1.510000 0.081922 0.300000
v 1.510000 0.081922 -0.300000
v 1.510000 -0.268078 -0.300000
v 1.510000 -0.268078 0.300000
v 1.550000 0.081922 0.300000
v 1.550000 0.081922 -0.300000
v 1.550000 -0.268078 -0.300000
v 1.550000 -0.268078 0.300000
v -1.091500 0.081922 -0.107000
v -1.076500 0.097422 -0.107000
v -1.036500 0.127422 -0.107000
v -0.996500 0.127422 -0.107000
v -0.956500 0.085422 -0.107000
v -0.546500 0.085422 -0.107000
v -0.506500 0.127422 -0.107000
v -0.466500 0.127422 -0.107000
v -0.426500 0.097422 -0.107000
v -0.411500 0.081922 -0.107000
v -0.411500 0.081922 0.107000
v -0.426500 0.097422 0.107000
v -0.466500 0.127422 0.107000
v -0.506500 0.127422 0.107000
v -0.546500 0.085422 0.107000
v -1.091500 0.081922 0.107000
v -0.956500 0.085422 0.107000
v -1.076500 0.097422 0.107000
v -0.996500 0.127422 0.107000
v -1.036500 0.127422 0.107000
v 0.411500 0.081922 -0.107000
v 0.426500 0.097422 -0.107000
v 0.466500 0.127422 -0.107000
v 0.506500 0.127422 -0.107000
v 0.546500 0.085422 -0.107000
v 0.956500 0.085422 -0.107000
v 0.996500 0.127422 -0.107000
v 1.036500 0.127422 -0.107000
v 1.076500 0.097422 -0.107000
v 1.091500 0.081922 -0.107000
v 1.091500 0.081922 0.107000
v 1.076500 0.097422 0.107000
v 1.036500 0.127422 0.107000
v 0.996500 0.127422 0.107000
v 0.956500 0.085422 0.107000
v 0.411500 0.081922 0.107000
v 0.546500 0.085422 0.107000
v 0.426500 0.097422 0.107000
v 0.506500 0.127422 0.107000
v 0.466500 0.127422 0.107000
v -0.826500 0.099422 0.106000
v -0.676500 0.099422 0.106000
v -0.676500 0.099422 -0.106000
v -0.826500 0.099422 -0.106000
v -0.896500 0.109422 0.105000
v -0.606500 0.109422 0.105000
v -0.606500 0.109422 -0.105000
v -0.896500 0.109422 -0.105000
v -0.946500 0.095422 0.103000
v -0.820500 0.095422 0.103000
v -0.820500 0.095422 -0.103000
v -0.946500 0.095422 -0.103000
v -0.950500 0.126422 0.107000
v -0.934500 0.126422 0.107000
v -0.934500 0.126422 -0.107000
v -0.950500 0.126422 -0.107000
v -0.682500 0.095422 0.103000
v -0.556500 0.095422 0.103000
v -0.556500 0.095422 -0.103000
v -0.682500 0.095422 -0.103000
v -0.568500 0.126422 0.107000
v -0.552500 0.126422 0.107000
v -0.552500 0.126422 -0.107000
v -0.568500 0.126422 -0.107000
v -0.681500 0.099422 -0.300000
v -0.681500 0.108000 -0.300000
v -0.681500 0.108000 0.300000
v -0.681500 0.099422 0.300000
v -0.687500 0.113000 -0.300000
v -0.687500 0.113000 0.300000
v -0.725500 0.124000 -0.300000
v -0.725500 0.124000 0.300000
v -0.739500 0.134000 -0.300000
v -0.739500 0.134000 0.300000
v -0.742500 0.145000 -0.300000
v -0.742500 0.145000 0.300000
v -0.742500 0.207000 -0.300000
v -0.742500 0.207000 0.300000
v -0.738500 0.219000 -0.300000
v -0.738500 0.219000 0.300000
v -0.724500 0.225000 -0.300000
v -0.724500 0.225000 0.300000
v -0.718500 0.231000 -0.300000
v -0.718500 0.231000 0.300000
v -0.717500 0.239000 -0.300000
v -0.717500 0.239000 0.300000
v -0.717500 0.254000 -0.300000
v -0.717500 0.254000 0.300000
v -0.719500 0.260000 -0.300000
v -0.719500 0.260000 0.300000
v -0.725500 0.264280 -0.300000
v -0.725500 0.264280 0.300000
v -0.777500 0.264280 -0.300000
v -0.777500 0.264280 0.300000
v -0.783500 0.260000 -0.300000
v -0.783500 0.260000 0.300000
v -0.785500 0.254000 -0.300000
v -0.785500 0.254000 0.300000
v -0.785500 0.239000 -0.300000
v -0.785500 0.239000 0.300000
v -0.784500 0.231000 -0.300000
v -0.784500 0.231000 0.300000
v -0.778500 0.225000 -0.300000
v -0.778500 0.225000 0.300000
v -0.764500 0.219000 -0.300000
v -0.764500 0.219000 0.300000
v -0.760500 0.207000 -0.300000
v -0.760500 0.207000 0.300000
v -0.760500 0.145000 -0.300000
v -0.760500 0.145000 0.300000
v -0.763500 0.134000 -0.300000
v -0.763500 0.134000 0.300000
v -0.777500 0.124000 -0.300000
v -0.777500 0.124000 0.300000
v -0.815500 0.113000 -0.300000
v -0.815500 0.113000 0.300000
v -0.821500 0.108000 -0.300000
v -0.821500 0.108000 0.300000
v -0.821500 0.099422 -0.300000
v -0.821500 0.099422 0.300000
v 0.676500 0.099422 0.106000
v 0.826500 0.099422 0.106000
v 0.826500 0.099422 -0.106000
v 0.676500 0.099422 -0.106000
v 0.606500 0.109422 0.105000
v 0.896500 0.109422 0.105000
v 0.896500 0.109422 -0.105000
v 0.606500 0.109422 -0.105000
v 0.556500 0.095422 0.103000
v 0.682500 0.095422 0.103000
v 0.682500 0.095422 -0.103000
v 0.556500 0.095422 -0.103000
v 0.552500 0.126422 0.107000
v 0.568500 0.126422 0.107000
v 0.568500 0.126422 -0.107000
v 0.552500 0.126422 -0.107000
v 0.820500 0.095422 0.103000
v 0.946500 0.095422 0.103000
v 0.946500 0.095422 -0.103000
v 0.820500 0.095422 -0.103000
v 0.934500 0.126422 0.107000
v 0.950500 0.126422 0.107000
v 0.950500 0.126422 -0.107000
v 0.934500 0.126422 -0.107000
v 0.821500 0.099422 -0.300000
v 0.821500 0.108000 -0.300000
v 0.821500 0.108000 0.300000
v 0.821500 0.099422 0.300000
v 0.815500 0.113000 -0.300000
v 0.815500 0.113000 0.300000
v 0.777500 0.124000 -0.300000
v 0.777500 0.124000 0.300000
v 0.763500 0.134000 -0.300000
v 0.763500 0.134000 0.300000
v 0.760500 0.145000 -0.300000
v 0.760500 0.145000 0.300000
v 0.760500 0.207000 -0.300000
v 0.760500 0.207000 0.300000
v 0.764500 0.219000 -0.300000
v 0.764500 0.219000 0.300000
v 0.778500 0.225000 -0.300000
v 0.778500 0.225000 0.300000
v 0.784500 0.231000 -0.300000
v 0.784500 0.231000 0.300000
v 0.785500 0.239000 -0.300000
v 0.785500 0.239000 0.300000
v 0.785500 0.254000 -0.300000
v 0.785500 0.254000 0.300000
v 0.783500 0.260000 -0.300000
v 0.783500 0.260000 0.300000
v 0.777500 0.264280 -0.300000
v 0.777500 0.264280 0.300000
v 0.725500 0.264280 -0.300000
v 0.725500 0.264280 0.300000
v 0.719500 0.260000 -0.300000
v 0.719500 0.260000 0.300000
v 0.717500 0.254000 -0.300000
v 0.717500 0.254000 0.300000
v 0.717500 0.239000 -0.300000
v 0.717500 0.239000 0.300000
v 0.718500 0.231000 -0.300000
v 0.718500 0.231000 0.300000
v 0.724500 0.225000 -0.300000
v 0.724500 0.225000 0.300000
v 0.738500 0.219000 -0.300000
v 0.738500 0.219000 0.300000
v 0.742500 0.207000 -0.300000
v 0.742500 0.207000 0.300000
v 0.742500 0.145000 -0.300000
v 0.742500 0.145000 0.300000
v 0.739500 0.134000 -0.300000
v 0.739500 0.134000 0.300000
v 0.725500 0.124000 -0.300000
v 0.725500 0.124000 0.300000
v 0.687500 0.113000 -0.300000
v 0.687500 0.113000 0.300000
v 0.681500 0.108000 -0.300000
v 0.681500 0.108000 0.300000
v 0.681500 0.099422 -0.300000
v 0.681500 0.099422 0.300000
vt 0.01062500 0.49160448
vt 0.32937500 0.49160448
vt 0.32937500 0.01585821
vt 0.01062500 0.01585821
vt 0.01765625 0.17792562
vt 0.03640625 0.49160448
vt 0.05515625 0.49160448
vt 0.07390625 0.05245408
vt 0.26609375 0.05245408
vt 0.28484375 0.49160448
vt 0.30359375 0.49160448
vt 0.32234375 0.17792562
vt 0.60837500 0.48208955
vt 0.65300000 0.48208955
vt 0.65300000 0.31082090
vt 0.60837500 0.31082090
vt 0.34062500 0.49160448
vt 0.57968750 0.49160448
vt 0.57968750 0.01585821
vt 0.34062500 0.01585821
vt 0.60837500 0.19664179
vt 0.65300000 0.19664179
vt 0.65300000 0.02537313
vt 0.60837500 0.02537313
vt 0.01062500 0.50839552
vt 0.01062500 0.53314987
vt 0.32937500 0.53314987
vt 0.32937500 0.50839552
vt 0.01062500 0.54757884
vt 0.32937500 0.54757884
vt 0.01062500 0.57932257
vt 0.32937500 0.57932257
vt 0.01062500 0.60818052
vt 0.32937500 0.60818052
vt 0.01062500 0.63992425
vt 0.32937500 0.63992425
vt 0.01062500 0.81884350
vt 0.32937500 0.81884350
vt 0.01062500 0.85347303
vt 0.32937500 0.85347303
vt 0.01062500 0.87078779
vt 0.32937500 0.87078779
vt 0.01062500 0.88810256
vt 0.32937500 0.88810256
vt 0.01062500 0.91118891
vt 0.32937500 0.91118891
vt 0.01062500 0.95447583
vt 0.32937500 0.95447583
vt 0.01062500 0.97179059
vt 0.32937500 0.97179059
vt 0.34062500 0.97014925
vt 0.34062500 0.92817164
vt 0.65937500 0.92817164
vt 0.65937500 0.97014925
vt 0.34062500 0.56436567
vt 0.65937500 0.56436567
vt 0.34062500 0.52238806
vt 0.65937500 0.52238806
vt 0.01062500 0.57500000
vt 0.32937500 0.57500000
vt 0.98937500 0.50839552
vt 0.67062500 0.50839552
vt 0.67062500 0.53314987
vt 0.68428571 0.54757884
vt 0.77080357 0.57932257
vt 0.80267857 0.60818052
vt 0.80040179 0.85347303
vt 0.76852679 0.87078779
vt 0.75486607 0.88810256
vt 0.75258929 0.91118891
vt 0.75258929 0.95447583
vt 0.75714286 0.97179059
vt 0.77080357 0.98414179
vt 0.80950893 0.81884350
vt 0.88919643 0.98414179
vt 0.90285714 0.97179059
vt 0.90741071 0.95447583
vt 0.90741071 0.91118891
vt 0.90513393 0.88810256
vt 0.89147321 0.87078779
vt 0.85959821 0.85347303
vt 0.85049107 0.81884350
vt 0.80950893 0.63992425
vt 0.85049107 0.63992425
vt 0.85732143 0.60818052
vt 0.88919643 0.57932257
vt 0.97571429 0.54757884
vt 0.98937500 0.53314987
vn -0.00000000 1.00000000 0.00000000
vn 0.00000000 0.00000000 -1.00000000
vn 0.00000000 0.00000000 1.00000000
vn -1.00000000 0.00000000 0.00000000
vn 1.00000000 0.00000000 0.00000000
vn 0.00000000 -1.00000000 0.00000000
vn 0.71860214 0.69542143 0.00000000
vn 0.60000000 0.80000000 0.00000000
vn -0.72413793 0.68965517 0.00000000
vn 0.72413793 0.68965517 0.00000000
vn -0.60000000 0.80000000 0.00000000
vn -0.71860214 0.69542143 0.00000000
vn 0.64018440 0.76822128 0.00000000
vn 0.27805808 0.96056426 0.00000000
vn 0.58123819 0.81373347 0.00000000
vn 0.96476382 0.26311741 0.00000000
vn 0.94868330 -0.31622777 0.00000000
vn 0.39391930 -0.91914503 0.00000000
vn 0.70710678 -0.70710678 0.00000000
vn 0.99227788 -0.12403473 0.00000000
vn 0.94868330 0.31622777 0.00000000
vn 0.58072468 0.81410002 0.00000000
vn -0.58072468 0.81410002 0.00000000
vn -0.94868330 0.31622777 0.00000000
vn -0.99227788 -0.12403473 0.00000000
vn -0.70710678 -0.70710678 0.00000000
vn -0.39391930 -0.91914503 0.00000000
vn -0.94868330 -0.31622777 0.00000000
vn -0.96476382 0.26311741 0.00000000
vn -0.58123819 0.81373347 0.00000000
vn -0.27805808 0.96056426 0.00000000
vn -0.64018440 0.76822128 0.00000000
g slab_bed
usemtl mat
f 1/1/1 2/2/1 3/3/1 4/4/1
f 4/1/2 3/2/2 5/3/2 6/4/2
f 7/4/3 8/3/3 2/2/3 1/1/3
f 2/1/1 9/2/1 10/3/1 3/4/1
f 3/1/2 10/2/2 11/3/2 5/4/2
f 8/4/3 12/3/3 9/2/3 2/1/3
f 9/1/1 13/2/1 14/3/1 10/4/1
f 10/1/2 14/2/2 15/3/2 11/4/2
f 12/4/3 16/3/3 13/2/3 9/1/3
f 13/1/1 17/2/1 18/3/1 14/4/1
f 14/1/2 18/2/2 19/3/2 15/4/2
f 16/4/3 20/3/3 17/2/3 13/1/3
f 17/1/1 21/2/1 22/3/1 18/4/1
f 18/1/2 22/2/2 23/3/2 19/4/2
f 20/4/3 24/3/3 21/2/3 17/1/3
f 21/1/1 25/2/1 26/3/1 22/4/1
f 22/1/2 26/2/2 27/3/2 23/4/2
f 24/4/3 28/3/3 25/2/3 21/1/3
f 25/1/1 29/2/1 30/3/1 26/4/1
f 26/1/2 30/2/2 31/3/2 27/4/2
f 28/4/3 32/3/3 29/2/3 25/1/3
f 29/1/1 33/2/1 34/3/1 30/4/1
f 30/1/2 34/2/2 35/3/2 31/4/2
f 32/4/3 36/3/3 33/2/3 29/1/3
f 33/1/1 37/2/1 38/3/1 34/4/1
f 34/1/2 38/2/2 39/3/2 35/4/2
f 36/4/3 40/3/3 37/2/3 33/1/3
f 37/1/1 41/2/1 42/3/1 38/4/1
f 38/1/2 42/2/2 43/3/2 39/4/2
f 40/4/3 44/3/3 41/2/3 37/1/3
f 41/1/1 45/2/1 46/3/1 42/4/1
f 42/1/2 46/2/2 47/3/2 43/4/2
f 44/4/3 48/3/3 45/2/3 41/1/3
f 7/1/4 1/2/4 4/3/4 6/4/4
f 47/4/5 46/3/5 45/2/5 48/1/5
g sleeper
usemtl mat
f 49/4/2 50/5/2 51/6/2
f 49/4/2 51/6/2 52/7/2
f 49/4/2 52/7/2 53/8/2
f 49/4/2 53/8/2 54/9/2
f 54/9/2 55/10/2 56/11/2
f 54/9/2 56/11/2 57/12/2
f 54/9/2 57/12/2 58/3/2
f 54/9/2 58/3/2 49/4/2
f 59/3/3 60/12/3 61/11/3
f 59/3/3 61/11/3 62/10/3
f 59/3/3 62/10/3 63/9/3
f 64/4/3 59/3/3 63/9/3
f 64/4/3 63/9/3 65/8/3
f 66/5/3 64/4/3 65/8/3
f 66/5/3 65/8/3 67/7/3
f 67/7/3 68/6/3 66/5/3
f 49/4/6 58/3/6 59/2/6 64/1/6
f 58/4/7 57/3/7 60/2/7 59/1/7
f 57/4/8 56/3/8 61/2/8 60/1/8
f 56/4/1 55/3/1 62/2/1 61/1/1
f 55/4/9 54/3/9 63/2/9 62/1/9
f 54/4/1 53/3/1 65/2/1 63/1/1
f 53/4/10 52/3/10 67/2/10 65/1/10
f 52/4/1 51/3/1 68/2/1 67/1/1
f 51/4/11 50/3/11 66/2/11 68/1/11
f 50/4/12 49/3/12 64/2/12 66/1/12
f 69/4/2 70/5/2 71/6/2
f 69/4/2 71/6/2 72/7/2
f 69/4/2 72/7/2 73/8/2
f 69/4/2 73/8/2 74/9/2
f 74/9/2 75/10/2 76/11/2
f 74/9/2 76/11/2 77/12/2
f 74/9/2 77/12/2 78/3/2
f 74/9/2 78/3/2 69/4/2
f 79/3/3 80/12/3 81/11/3
f 79/3/3 81/11/3 82/10/3
f 79/3/3 82/10/3 83/9/3
f 84/4/3 79/3/3 83/9/3
f 84/4/3 83/9/3 85/8/3
f 86/5/3 84/4/3 85/8/3
f 86/5/3 85/8/3 87/7/3
f 87/7/3 88/6/3 86/5/3
f 69/4/6 78/3/6 79/2/6 84/1/6
f 78/4/7 77/3/7 80/2/7 79/1/7
f 77/4/8 76/3/8 81/2/8 80/1/8
f 76/4/1 75/3/1 82/2/1 81/1/1
f 75/4/9 74/3/9 83/2/9 82/1/9
f 74/4/1 73/3/1 85/2/1 83/1/1
f 73/4/10 72/3/10 87/2/10 85/1/10
f 72/4/1 71/3/1 88/2/1 87/1/1
f 71/4/11 70/3/11 86/2/11 88/1/11
f 70/4/12 69/3/12 84/2/12 86/1/12
g fastener_left
usemtl mat
f 89/13/1 90/14/1 91/15/1 92/16/1
f 93/17/1 94/18/1 95/19/1 96/20/1
f 97/17/1 98/18/1 99/19/1 100/20/1
f 101/21/1 102/22/1 103/23/1 104/24/1
f 105/17/1 106/18/1 107/19/1 108/20/1
f 109/21/1 110/22/1 111/23/1 112/24/1
g rail_left
usemtl mat
f 113/25/5 114/26/5 115/27/5 116/28/5
f 114/26/13 117/29/13 118/30/13 115/27/13
f 117/29/14 119/31/14 120/32/14 118/30/14
f 119/31/15 121/33/15 122/34/15 120/32/15
f 121/33/16 123/35/16 124/36/16 122/34/16
f 123/35/5 125/37/5 126/38/5 124/36/5
f 125/37/17 127/39/17 128/40/17 126/38/17
f 127/39/18 129/41/18 130/42/18 128/40/18
f 129/41/19 131/43/19 132/44/19 130/42/19
f 131/43/20 133/45/20 134/46/20 132/44/20
f 133/45/5 135/47/5 136/48/5 134/46/5
f 135/47/21 137/49/21 138/50/21 136/48/21
f 137/51/22 139/52/22 140/53/22 138/54/22
f 139/52/1 141/55/1 142/56/1 140/53/1
f 141/55/23 143/57/23 144/58/23 142/56/23
f 143/49/24 145/47/24 146/48/24 144/50/24
f 145/47/4 147/45/4 148/46/4 146/48/4
f 147/45/25 149/43/25 150/44/25 148/46/25
f 149/43/26 151/41/26 152/42/26 150/44/26
f 151/41/27 153/39/27 154/40/27 152/42/27
f 153/39/28 155/37/28 156/38/28 154/40/28
f 155/37/4 157/35/4 158/36/4 156/38/4
f 157/35/29 159/33/29 160/34/29 158/36/29
f 159/33/30 161/31/30 162/32/30 160/34/30
f 161/31/31 163/29/31 164/30/31 162/32/31
f 163/29/32 165/26/32 166/27/32 164/30/32
f 165/26/4 167/25/4 168/28/4 166/27/4
f 167/25/6 113/59/6 116/60/6 168/28/6
g rail_left_end
usemtl mat
f 113/61/2 167/62/2 165/63/2
f 113/61/2 165/63/2 163/64/2
f 113/61/2 163/64/2 161/65/2
f 113/61/2 161/65/2 159/66/2
f 153/67/2 151/68/2 149/69/2
f 153/67/2 149/69/2 147/70/2
f 153/67/2 147/70/2 145/71/2
f 153/67/2 145/71/2 143/72/2
f 153/67/2 143/72/2 141/73/2
f 155/74/2 153/67/2 141/73/2
f 155/74/2 141/73/2 139/75/2
f 155/74/2 139/75/2 137/76/2
f 155/74/2 137/76/2 135/77/2
f 155/74/2 135/77/2 133/78/2
f 155/74/2 133/78/2 131/79/2
f 131/79/2 129/80/2 127/81/2
f 155/74/2 131/79/2 127/81/2
f 155/74/2 127/81/2 125/82/2
f 157/83/2 155/74/2 125/82/2
f 159/66/2 157/83/2 125/82/2
f 159/66/2 125/82/2 123/84/2
f 159/66/2 123/84/2 121/85/2
f 159/66/2 121/85/2 119/86/2
f 113/61/2 159/66/2 119/86/2
f 113/61/2 119/86/2 117/87/2
f 117/87/2 114/88/2 113/61/2
f 168/62/3 116/61/3 115/88/3
f 168/62/3 115/88/3 118/87/3
f 168/62/3 118/87/3 120/86/3
f 168/62/3 120/86/3 122/85/3
f 128/81/3 130/80/3 132/79/3
f 128/81/3 132/79/3 134/78/3
f 128/81/3 134/78/3 136/77/3
f 128/81/3 136/77/3 138/76/3
f 128/81/3 138/76/3 140/75/3
f 126/82/3 128/81/3 140/75/3
f 126/82/3 140/75/3 142/73/3
f 126/82/3 142/73/3 144/72/3
f 126/82/3 144/72/3 146/71/3
f 126/82/3 146/71/3 148/70/3
f 126/82/3 148/70/3 150/69/3
f 150/69/3 152/68/3 154/67/3
f 126/82/3 150/69/3 154/67/3
f 126/82/3 154/67/3 156/74/3
f 124/84/3 126/82/3 156/74/3
f 122/85/3 124/84/3 156/74/3
f 122/85/3 156/74/3 158/83/3
f 122/85/3 158/83/3 160/66/3
f 122/85/3 160/66/3 162/65/3
f 168/62/3 122/85/3 162/65/3
f 168/62/3 162/65/3 164/64/3
f 164/64/3 166/63/3 168/62/3
g fastener_right
usemtl mat
f 169/13/1 170/14/1 171/15/1 172/16/1
f 173/17/1 174/18/1 175/19/1 176/20/1
f 177/17/1 178/18/1 179/19/1 180/20/1
f 181/21/1 182/22/1 183/23/1 184/24/1
f 185/17/1 186/18/1 187/19/1 188/20/1
f 189/21/1 190/22/1 191/23/1 192/24/1
g rail_right
usemtl mat
f 193/25/5 194/26/5 195/27/5 196/28/5
f 194/26/13 197/29/13 198/30/13 195/27/13
f 197/29/14 199/31/14 200/32/14 198/30/14
f 199/31/15 201/33/15 202/34/15 200/32/15
f 201/33/16 203/35/16 204/36/16 202/34/16
f 203/35/5 205/37/5 206/38/5 204/36/5
f 205/37/17 207/39/17 208/40/17 206/38/17
f 207/39/18 209/41/18 210/42/18 208/40/18
f 209/41/19 211/43/19 212/44/19 210/42/19
f 211/43/20 213/45/20 214/46/20 212/44/20
f 213/45/5 215/47/5 216/48/5 214/46/5
f 215/47/21 217/49/21 218/50/21 216/48/21
f 217/51/22 219/52/22 220/53/22 218/54/22
f 219/52/1 221/55/1 222/56/1 220/53/1
f 221/55/23 223/57/23 224/58/23 222/56/23
f 223/49/24 225/47/24 226/48/24 224/50/24
f 225/47/4 227/45/4 228/46/4 226/48/4
f 227/45/25 229/43/25 230/44/25 228/46/25
f 229/43/26 231/41/26 232/42/26 230/44/26
f 231/41/27 233/39/27 234/40/27 232/42/27
f 233/39/28 235/37/28 236/38/28 234/40/28
f 235/37/4 237/35/4 238/36/4 236/38/4
f 237/35/29 239/33/29 240/34/29 238/36/29
f 239/33/30 241/31/30 242/32/30 240/34/30
f 241/31/31 243/29/31 244/30/31 242/32/31
f 243/29/32 245/26/32 246/27/32 244/30/32
f 245/26/4 247/25/4 248/28/4 246/27/4
f 247/25/6 193/59/6 196/60/6 248/28/6
g rail_right_end
usemtl mat
f 193/61/2 247/62/2 245/63/2
f 193/61/2 245/63/2 243/64/2
f 193/61/2 243/64/2 241/65/2
f 193/61/2 241/65/2 239/66/2
f 233/67/2 231/68/2 229/69/2
f 233/67/2 229/69/2 227/70/2
f 233/67/2 227/70/2 225/71/2
f 233/67/2 225/71/2 223/72/2
f 233/67/2 223/72/2 221/73/2
f 235/74/2 233/67/2 221/73/2
f 235/74/2 221/73/2 219/75/2
f 235/74/2 219/75/2 217/76/2
f 235/74/2 217/76/2 215/77/2
f 235/74/2 215/77/2 213/78/2
f 235/74/2 213/78/2 211/79/2
f 211/79/2 209/80/2 207/81/2
f 235/74/2 211/79/2 207/81/2
f 235/74/2 207/81/2 205/82/2
f 237/83/2 235/74/2 205/82/2
f 239/66/2 237/83/2 205/82/2
f 239/66/2 205/82/2 203/84/2
f 239/66/2 203/84/2 201/85/2
f 239/66/2 201/85/2 199/86/2
f 193/61/2 239/66/2 199/86/2
f 193/61/2 199/86/2 197/87/2
f 197/87/2 194/88/2 193/61/2
f 248/62/3 196/61/3 195/88/3
f 248/62/3 195/88/3 198/87/3
f 248/62/3 198/87/3 200/86/3
f 248/62/3 200/86/3 202/85/3
f 208/81/3 210/80/3 212/79/3
f 208/81/3 212/79/3 214/78/3
f 208/81/3 214/78/3 216/77/3
f 208/81/3 216/77/3 218/76/3
f 208/81/3 218/76/3 220/75/3
f 206/82/3 208/81/3 220/75/3
f 206/82/3 220/75/3 222/73/3
f 206/82/3 222/73/3 224/72/3
f 206/82/3 224/72/3 226/71/3
f 206/82/3 226/71/3 228/70/3
f 206/82/3 228/70/3 230/69/3
f 230/69/3 232/68/3 234/67/3
f 206/82/3 230/69/3 234/67/3
f 206/82/3 234/67/3 236/74/3
f 204/84/3 206/82/3 236/74/3
f 202/85/3 204/84/3 236/74/3
f 202/85/3 236/74/3 238/83/3
f 202/85/3 238/83/3 240/66/3
f 202/85/3 240/66/3 242/65/3
f 248/62/3 202/85/3 242/65/3
f 248/62/3 242/65/3 244/64/3
f 244/64/3 246/63/3 248/62/3
