# metres; Y up; CCW outward; repeat 0.6 m
mtllib sleeper.mtl
v -1.250000 -0.034578 -0.105000
v -1.220000 -0.034578 -0.105000
v -1.220000 -0.034578 0.105000
v -1.250000 -0.034578 0.105000
v -1.250000 0.065422 0.096000
v -1.220000 0.066547 0.096000
v -1.220000 0.074547 0.086000
v -1.250000 0.073422 0.086000
v -1.220000 0.074547 -0.086000
v -1.250000 0.073422 -0.086000
v -1.220000 0.066547 -0.096000
v -1.250000 0.065422 -0.096000
v -1.200000 -0.034578 -0.120000
v -1.200000 -0.034578 0.120000
v -1.200000 0.067297 0.111000
v -1.200000 0.075297 0.101000
v -1.200000 0.075297 -0.101000
v -1.200000 0.067297 -0.111000
v -0.930000 -0.034578 -0.120000
v -0.930000 -0.034578 0.120000
v -0.930000 0.077422 0.111000
v -0.930000 0.085422 0.101000
v -0.930000 0.085422 -0.101000
v -0.930000 0.077422 -0.111000
v -0.751500 -0.034578 -0.120000
v -0.751500 -0.034578 0.120000
v -0.751500 0.077422 0.111000
v -0.751500 0.085422 0.101000
v -0.751500 0.085422 -0.101000
v -0.751500 0.077422 -0.111000
v -0.600000 -0.034578 -0.120000
v -0.600000 -0.034578 0.120000
v -0.600000 0.077422 0.111000
v -0.600000 0.085422 0.101000
v -0.600000 0.085422 -0.101000
v -0.600000 0.077422 -0.111000
v -0.530000 -0.034578 -0.120000
v -0.530000 -0.034578 0.120000
v -0.530000 0.077422 0.111000
v -0.530000 0.085422 0.101000
v -0.530000 0.085422 -0.101000
v -0.530000 0.077422 -0.111000
v -0.400000 -0.034578 -0.120000
v -0.400000 -0.034578 0.120000
v -0.400000 0.072463 0.111000
v -0.400000 0.080463 0.101000
v -0.400000 0.080463 -0.101000
v -0.400000 0.072463 -0.111000
v -0.270000 -0.034578 -0.120000
v -0.270000 -0.034578 0.120000
v -0.270000 0.060387 0.111000
v -0.270000 0.068387 0.101000
v -0.270000 0.068387 -0.101000
v -0.270000 0.060387 -0.111000
v -0.130000 -0.034578 -0.120000
v -0.130000 -0.034578 0.120000
v -0.130000 0.047270 0.111000
v -0.130000 0.055270 0.101000
v -0.130000 0.055270 -0.101000
v -0.130000 0.047270 -0.111000
v 0.000000 -0.034578 -0.120000
v 0.000000 -0.034578 0.120000
v 0.000000 0.042311 0.111000
v 0.000000 0.050311 0.101000
v 0.000000 0.050311 -0.101000
v 0.000000 0.042311 -0.111000
v 0.130000 -0.034578 -0.120000
v 0.130000 -0.034578 0.120000
v 0.130000 0.047270 0.111000
v 0.130000 0.055270 0.101000
v 0.130000 0.055270 -0.101000
v 0.130000 0.047270 -0.111000
v 0.270000 -0.034578 -0.120000
v 0.270000 -0.034578 0.120000
v 0.270000 0.060387 0.111000
v 0.270000 0.068387 0.101000
v 0.270000 0.068387 -0.101000
v 0.270000 0.060387 -0.111000
v 0.400000 -0.034578 -0.120000
v 0.400000 -0.034578 0.120000
v 0.400000 0.072463 0.111000
v 0.400000 0.080463 0.101000
v 0.400000 0.080463 -0.101000
v 0.400000 0.072463 -0.111000
v 0.530000 -0.034578 -0.120000
v 0.530000 -0.034578 0.120000
v 0.530000 0.077422 0.111000
v 0.530000 0.085422 0.101000
v 0.530000 0.085422 -0.101000
v 0.530000 0.077422 -0.111000
v 0.600000 -0.034578 -0.120000
v 0.600000 -0.034578 0.120000
v 0.600000 0.077422 0.111000
v 0.600000 0.085422 0.101000
v 0.600000 0.085422 -0.101000
v 0.600000 0.077422 -0.111000
v 0.751500 -0.034578 -0.120000
v 0.751500 -0.034578 0.120000
v 0.751500 0.077422 0.111000
v 0.751500 0.085422 0.101000
v 0.751500 0.085422 -0.101000
v 0.751500 0.077422 -0.111000
v 0.930000 -0.034578 -0.120000
v 0.930000 -0.034578 0.120000
v 0.930000 0.077422 0.111000
v 0.930000 0.085422 0.101000
v 0.930000 0.085422 -0.101000
v 0.930000 0.077422 -0.111000
v 1.200000 -0.034578 -0.120000
v 1.200000 -0.034578 0.120000
v 1.200000 0.067297 0.111000
v 1.200000 0.075297 0.101000
v 1.200000 0.075297 -0.101000
v 1.200000 0.067297 -0.111000
v 1.220000 -0.034578 -0.105000
v 1.220000 -0.034578 0.105000
v 1.220000 0.066547 0.096000
v 1.220000 0.074547 0.086000
v 1.220000 0.074547 -0.086000
v 1.220000 0.066547 -0.096000
v 1.250000 -0.034578 -0.105000
v 1.250000 -0.034578 0.105000
v 1.250000 0.065422 0.096000
v 1.250000 0.073422 0.086000
v 1.250000 0.073422 -0.086000
v 1.250000 0.065422 -0.096000
vt 0.30281250 0.17047575
vt 0.31875000 0.17047575
vt 0.31875000 0.33698694
vt 0.30281250 0.33698694
vt 0.30281250 0.09514925
vt 0.30281250 0.01585821
vt 0.31875000 0.01585821
vt 0.31875000 0.09604128
vt 0.30281250 0.32985075
vt 0.31875000 0.32985075
vt 0.31875000 0.32192164
vt 0.30281250 0.32192164
vt 0.31875000 0.18554104
vt 0.30281250 0.18554104
vt 0.31875000 0.17761194
vt 0.30281250 0.17761194
vt 0.32937500 0.15858209
vt 0.32937500 0.34888060
vt 0.32937500 0.01585821
vt 0.32937500 0.09663596
vt 0.32937500 0.34174440
vt 0.32937500 0.33381530
vt 0.32937500 0.17364739
vt 0.32937500 0.16571828
vt 0.01062500 0.15858209
vt 0.15406250 0.15858209
vt 0.15406250 0.34888060
vt 0.01062500 0.34888060
vt 0.01062500 0.09663596
vt 0.01062500 0.01585821
vt 0.15406250 0.01585821
vt 0.15406250 0.10466418
vt 0.01062500 0.34174440
vt 0.15406250 0.34174440
vt 0.15406250 0.33381530
vt 0.01062500 0.33381530
vt 0.15406250 0.17364739
vt 0.01062500 0.17364739
vt 0.15406250 0.16571828
vt 0.01062500 0.16571828
vt 0.24889063 0.15858209
vt 0.24889063 0.34888060
vt 0.24889063 0.01585821
vt 0.24889063 0.10466418
vt 0.24889063 0.34174440
vt 0.24889063 0.33381530
vt 0.24889063 0.17364739
vt 0.24889063 0.16571828
vt 0.32937500 0.10466418
vt 0.04781250 0.15858209
vt 0.04781250 0.34888060
vt 0.04781250 0.01585821
vt 0.04781250 0.10466418
vt 0.01062500 0.10466418
vt 0.04781250 0.34174440
vt 0.04781250 0.33381530
vt 0.04781250 0.17364739
vt 0.04781250 0.16571828
vt 0.11687500 0.15858209
vt 0.11687500 0.34888060
vt 0.11687500 0.01585821
vt 0.11687500 0.10073190
vt 0.11687500 0.34174440
vt 0.11687500 0.33381530
vt 0.11687500 0.17364739
vt 0.11687500 0.16571828
vt 0.18593750 0.15858209
vt 0.18593750 0.34888060
vt 0.18593750 0.01585821
vt 0.18593750 0.09115673
vt 0.18593750 0.34174440
vt 0.18593750 0.33381530
vt 0.18593750 0.17364739
vt 0.18593750 0.16571828
vt 0.26031250 0.15858209
vt 0.26031250 0.34888060
vt 0.26031250 0.01585821
vt 0.26031250 0.08075658
vt 0.26031250 0.34174440
vt 0.26031250 0.33381530
vt 0.26031250 0.17364739
vt 0.26031250 0.16571828
vt 0.32937500 0.07682430
vt 0.07968750 0.15858209
vt 0.07968750 0.34888060
vt 0.01062500 0.07682430
vt 0.07968750 0.01585821
vt 0.07968750 0.08075658
vt 0.07968750 0.34174440
vt 0.07968750 0.33381530
vt 0.07968750 0.17364739
vt 0.07968750 0.16571828
vt 0.15406250 0.09115673
vt 0.22312500 0.15858209
vt 0.22312500 0.34888060
vt 0.22312500 0.01585821
vt 0.22312500 0.10073190
vt 0.22312500 0.34174440
vt 0.22312500 0.33381530
vt 0.22312500 0.17364739
vt 0.22312500 0.16571828
vt 0.29218750 0.15858209
vt 0.29218750 0.34888060
vt 0.29218750 0.01585821
vt 0.29218750 0.10466418
vt 0.29218750 0.34174440
vt 0.29218750 0.33381530
vt 0.29218750 0.17364739
vt 0.29218750 0.16571828
vt 0.09110937 0.15858209
vt 0.09110937 0.34888060
vt 0.09110937 0.01585821
vt 0.09110937 0.10466418
vt 0.09110937 0.34174440
vt 0.09110937 0.33381530
vt 0.09110937 0.17364739
vt 0.09110937 0.16571828
vt 0.18593750 0.10466418
vt 0.02125000 0.17047575
vt 0.02125000 0.33698694
vt 0.02125000 0.01585821
vt 0.02125000 0.09604128
vt 0.02125000 0.32985075
vt 0.02125000 0.32192164
vt 0.02125000 0.18554104
vt 0.02125000 0.17761194
vt 0.03718750 0.17047575
vt 0.03718750 0.33698694
vt 0.03718750 0.01585821
vt 0.03718750 0.09514925
vt 0.03718750 0.32985075
vt 0.03718750 0.32192164
vt 0.03718750 0.18554104
vt 0.03718750 0.17761194
vt 0.04250000 0.41231343
vt 0.03054688 0.01585821
vt 0.30945312 0.01585821
vt 0.29750000 0.41231343
vt 0.28421875 0.44402985
vt 0.05578125 0.44402985
vn 0.00000000 -1.00000000 0.00000000
vn 0.00000000 0.08963770 0.99597444
vn -0.00332430 0.08864788 0.99605748
vn -0.02927003 0.78053424 0.62442739
vn -0.03747366 0.99929762 0.00000000
vn -0.02927003 0.78053424 -0.62442739
vn -0.00336139 0.08963719 -0.99596881
vn 0.00000000 0.08864837 -0.99606298
vn -0.59848497 0.07101923 0.79797996
vn -0.60019979 0.07038747 0.79674702
vn -0.44564010 0.69904329 0.55923463
vn -0.44564010 0.69904329 -0.55923463
vn -0.60019018 0.07090605 -0.79670828
vn -0.59850711 0.07049900 -0.79800948
vn 0.00000000 0.08800082 0.99612040
vn -0.00300370 0.08009859 0.99678242
vn -0.00330001 0.08800034 -0.99611498
vn 0.00000000 0.08009895 -0.99678692
vn -0.00000000 0.08009895 0.99678692
vn -0.00000000 0.78086881 0.62469505
vn -0.00000000 1.00000000 0.00000000
vn 0.00000000 0.78086881 -0.62469505
vn 0.00319624 0.08378411 0.99647880
vn 0.02977574 0.78052258 0.62441806
vn 0.03812074 0.99927314 0.00000000
vn 0.02977574 0.78052258 -0.62441806
vn 0.00305564 0.08009857 -0.99678226
vn 0.00000000 0.08378453 -0.99648389
vn 0.00000000 0.08378453 0.99648389
vn 0.00876396 0.09434564 0.99550093
vn 0.07234645 0.77882259 0.62305807
vn 0.09249388 0.99571325 0.00000000
vn 0.07234645 0.77882259 -0.62305807
vn 0.00778268 0.08378200 -0.99645372
vn 0.00000000 0.09434927 -0.99553916
vn 0.00000000 0.09434927 0.99553916
vn 0.01023971 0.10929499 0.99395662
vn 0.07296363 0.77878748 0.62302999
vn 0.09328027 0.99563989 0.00000000
vn 0.07296363 0.77878748 -0.62302999
vn 0.00883912 0.09434558 -0.99550027
vn 0.00000000 0.10930072 -0.99400873
vn 0.00000000 0.10930072 0.99400873
vn 0.00443503 0.11625699 0.99320926
vn 0.00416962 0.10929977 -0.99400009
vn 0.00000000 0.11625813 -0.99321903
vn 0.00000000 0.11625813 0.99321903
vn -0.00416962 0.10929977 0.99400009
vn -0.02977574 0.78052258 0.62441806
vn -0.03812074 0.99927314 0.00000000
vn -0.02977574 0.78052258 -0.62441806
vn -0.00443503 0.11625699 -0.99320926
vn -0.00883912 0.09434558 0.99550027
vn -0.07296363 0.77878748 0.62302999
vn -0.09328027 0.99563989 0.00000000
vn -0.07296363 0.77878748 -0.62302999
vn -0.01023971 0.10929499 -0.99395662
vn -0.00778268 0.08378200 0.99645372
vn -0.07234645 0.77882259 0.62305807
vn -0.09249388 0.99571325 0.00000000
vn -0.07234645 0.77882259 -0.62305807
vn -0.00876396 0.09434564 -0.99550093
vn -0.00305564 0.08009857 0.99678226
vn -0.00319624 0.08378411 -0.99647880
vn 0.00330001 0.08800034 0.99611498
vn 0.02927003 0.78053424 0.62442739
vn 0.03747366 0.99929762 0.00000000
vn 0.02927003 0.78053424 -0.62442739
vn 0.00300370 0.08009859 -0.99678242
vn 0.00000000 0.08800082 -0.99612040
vn 0.59850711 0.07049900 0.79800948
vn 0.60019018 0.07090605 0.79670828
vn 0.44564010 0.69904329 0.55923463
vn 0.44564010 0.69904329 -0.55923463
vn 0.60019979 0.07038747 -0.79674702
vn 0.59848497 0.07101923 -0.79797996
vn 0.00000000 0.08864837 0.99606298
vn 0.00336139 0.08963719 0.99596881
vn 0.00332430 0.08864788 -0.99605748
vn 0.00000000 0.08963770 -0.99597444
vn -1.00000000 -0.00000000 0.00000000
vn 1.00000000 0.00000000 0.00000000
g sleeper
usemtl mat
f 1/1/1 2/2/1 3/3/1 4/4/1
f 5/5/2 4/6/2 3/7/2
f 3/7/3 6/8/3 5/5/3
f 5/9/4 6/10/4 7/11/4 8/12/4
f 8/12/5 7/11/5 9/13/5 10/14/5
f 10/14/6 9/13/6 11/15/6 12/16/6
f 1/6/7 12/5/7 11/8/7
f 11/8/8 2/7/8 1/6/8
f 2/2/1 13/17/1 14/18/1 3/3/1
f 6/8/9 3/7/9 14/19/9
f 14/19/10 15/20/10 6/8/10
f 6/10/11 15/21/11 16/22/11 7/11/11
f 7/11/5 16/22/5 17/23/5 9/13/5
f 9/13/12 17/23/12 18/24/12 11/15/12
f 2/7/13 11/8/13 18/20/13
f 18/20/14 13/19/14 2/7/14
f 13/25/1 19/26/1 20/27/1 14/28/1
f 15/29/15 14/30/15 20/31/15
f 20/31/16 21/32/16 15/29/16
f 15/33/4 21/34/4 22/35/4 16/36/4
f 16/36/5 22/35/5 23/37/5 17/38/5
f 17/38/6 23/37/6 24/39/6 18/40/6
f 13/30/17 18/29/17 24/32/17
f 24/32/18 19/31/18 13/30/18
f 19/26/1 25/41/1 26/42/1 20/27/1
f 20/31/19 26/43/19 27/44/19 21/32/19
f 21/34/20 27/45/20 28/46/20 22/35/20
f 22/35/21 28/46/21 29/47/21 23/37/21
f 23/37/22 29/47/22 30/48/22 24/39/22
f 24/32/18 30/44/18 25/43/18 19/31/18
f 25/41/1 31/17/1 32/18/1 26/42/1
f 26/43/19 32/19/19 33/49/19 27/44/19
f 27/45/20 33/21/20 34/22/20 28/46/20
f 28/46/21 34/22/21 35/23/21 29/47/21
f 29/47/22 35/23/22 36/24/22 30/48/22
f 30/44/18 36/49/18 31/19/18 25/43/18
f 31/25/1 37/50/1 38/51/1 32/28/1
f 32/30/19 38/52/19 39/53/19 33/54/19
f 33/33/20 39/55/20 40/56/20 34/36/20
f 34/36/21 40/56/21 41/57/21 35/38/21
f 35/38/22 41/57/22 42/58/22 36/40/22
f 36/54/18 42/53/18 37/52/18 31/30/18
f 37/50/1 43/59/1 44/60/1 38/51/1
f 39/53/19 38/52/19 44/61/19
f 44/61/23 45/62/23 39/53/23
f 39/55/24 45/63/24 46/64/24 40/56/24
f 40/56/25 46/64/25 47/65/25 41/57/25
f 41/57/26 47/65/26 48/66/26 42/58/26
f 37/52/27 42/53/27 48/62/27
f 48/62/28 43/61/28 37/52/28
f 43/59/1 49/67/1 50/68/1 44/60/1
f 45/62/29 44/61/29 50/69/29
f 50/69/30 51/70/30 45/62/30
f 45/63/31 51/71/31 52/72/31 46/64/31
f 46/64/32 52/72/32 53/73/32 47/65/32
f 47/65/33 53/73/33 54/74/33 48/66/33
f 43/61/34 48/62/34 54/70/34
f 54/70/35 49/69/35 43/61/35
f 49/67/1 55/75/1 56/76/1 50/68/1
f 51/70/36 50/69/36 56/77/36
f 56/77/37 57/78/37 51/70/37
f 51/71/38 57/79/38 58/80/38 52/72/38
f 52/72/39 58/80/39 59/81/39 53/73/39
f 53/73/40 59/81/40 60/82/40 54/74/40
f 49/69/41 54/70/41 60/78/41
f 60/78/42 55/77/42 49/69/42
f 55/75/1 61/17/1 62/18/1 56/76/1
f 57/78/43 56/77/43 62/19/43
f 62/19/44 63/83/44 57/78/44
f 57/79/24 63/21/24 64/22/24 58/80/24
f 58/80/25 64/22/25 65/23/25 59/81/25
f 59/81/26 65/23/26 66/24/26 60/82/26
f 55/77/45 60/78/45 66/83/45
f 66/83/46 61/19/46 55/77/46
f 61/25/1 67/84/1 68/85/1 62/28/1
f 63/86/47 62/30/47 68/87/47
f 68/87/48 69/88/48 63/86/48
f 63/33/49 69/89/49 70/90/49 64/36/49
f 64/36/50 70/90/50 71/91/50 65/38/50
f 65/38/51 71/91/51 72/92/51 66/40/51
f 61/30/52 66/86/52 72/88/52
f 72/88/42 67/87/42 61/30/42
f 67/84/1 73/26/1 74/27/1 68/85/1
f 69/88/43 68/87/43 74/31/43
f 74/31/53 75/93/53 69/88/53
f 69/89/54 75/34/54 76/35/54 70/90/54
f 70/90/55 76/35/55 77/37/55 71/91/55
f 71/91/56 77/37/56 78/39/56 72/92/56
f 67/87/57 72/88/57 78/93/57
f 78/93/35 73/31/35 67/87/35
f 73/26/1 79/94/1 80/95/1 74/27/1
f 75/93/36 74/31/36 80/96/36
f 80/96/58 81/97/58 75/93/58
f 75/34/59 81/98/59 82/99/59 76/35/59
f 76/35/60 82/99/60 83/100/60 77/37/60
f 77/37/61 83/100/61 84/101/61 78/39/61
f 73/31/62 78/93/62 84/97/62
f 84/97/28 79/96/28 73/31/28
f 79/94/1 85/102/1 86/103/1 80/95/1
f 81/97/29 80/96/29 86/104/29
f 86/104/63 87/105/63 81/97/63
f 81/98/49 87/106/49 88/107/49 82/99/49
f 82/99/50 88/107/50 89/108/50 83/100/50
f 83/100/51 89/108/51 90/109/51 84/101/51
f 79/96/64 84/97/64 90/105/64
f 90/105/18 85/104/18 79/96/18
f 85/102/1 91/17/1 92/18/1 86/103/1
f 86/104/19 92/19/19 93/49/19 87/105/19
f 87/106/20 93/21/20 94/22/20 88/107/20
f 88/107/21 94/22/21 95/23/21 89/108/21
f 89/108/22 95/23/22 96/24/22 90/109/22
f 90/105/18 96/49/18 91/19/18 85/104/18
f 91/25/1 97/110/1 98/111/1 92/28/1
f 92/30/19 98/112/19 99/113/19 93/54/19
f 93/33/20 99/114/20 100/115/20 94/36/20
f 94/36/21 100/115/21 101/116/21 95/38/21
f 95/38/22 101/116/22 102/117/22 96/40/22
f 96/54/18 102/113/18 97/112/18 91/30/18
f 97/110/1 103/67/1 104/68/1 98/111/1
f 98/112/19 104/69/19 105/118/19 99/113/19
f 99/114/20 105/71/20 106/72/20 100/115/20
f 100/115/21 106/72/21 107/73/21 101/116/21
f 101/116/22 107/73/22 108/74/22 102/117/22
f 102/113/18 108/118/18 103/69/18 97/112/18
f 103/67/1 109/17/1 110/18/1 104/68/1
f 105/118/19 104/69/19 110/19/19
f 110/19/65 111/20/65 105/118/65
f 105/71/66 111/21/66 112/22/66 106/72/66
f 106/72/67 112/22/67 113/23/67 107/73/67
f 107/73/68 113/23/68 114/24/68 108/74/68
f 103/69/69 108/118/69 114/20/69
f 114/20/70 109/19/70 103/69/70
f 109/25/1 115/119/1 116/120/1 110/28/1
f 111/29/71 110/30/71 116/121/71
f 116/121/72 117/122/72 111/29/72
f 111/33/73 117/123/73 118/124/73 112/36/73
f 112/36/67 118/124/67 119/125/67 113/38/67
f 113/38/74 119/125/74 120/126/74 114/40/74
f 109/30/75 114/29/75 120/122/75
f 120/122/76 115/121/76 109/30/76
f 115/119/1 121/127/1 122/128/1 116/120/1
f 117/122/77 116/121/77 122/129/77
f 122/129/78 123/130/78 117/122/78
f 117/123/66 123/131/66 124/132/66 118/124/66
f 118/124/67 124/132/67 125/133/67 119/125/67
f 119/125/68 125/133/68 126/134/68 120/126/68
f 115/121/79 120/122/79 126/130/79
f 126/130/80 121/129/80 115/121/80
f 12/135/81 1/136/81 4/137/81
f 12/135/81 4/137/81 5/138/81
f 12/135/81 5/138/81 8/139/81
f 8/139/81 10/140/81 12/135/81
f 121/136/82 126/135/82 125/140/82
f 121/136/82 125/140/82 124/139/82
f 121/136/82 124/139/82 123/138/82
f 123/138/82 122/137/82 121/136/82
