# metres; Y up; CCW outward; repeat 0.6 m
mtllib center_guard_low.mtl
v -1.850000 -0.304000 -0.300000
v -1.850000 -0.304000 0.000000
v -1.800000 -0.258131 0.000000
v -1.800000 -0.258885 -0.300000
v -1.850000 -0.304000 0.300000
v -1.800000 -0.258885 0.300000
v -1.800000 -0.304000 -0.300000
v -1.800000 -0.304000 0.300000
v -1.783750 -0.243412 0.000000
v -1.783750 -0.244412 -0.300000
v -1.783750 -0.244412 0.300000
v -1.783750 -0.304000 -0.300000
v -1.783750 -0.304000 0.300000
v -1.717500 -0.185387 0.000000
v -1.717500 -0.187387 -0.300000
v -1.717500 -0.187387 0.300000
v -1.717500 -0.304000 -0.300000
v -1.717500 -0.304000 0.300000
v -1.651250 -0.132099 0.000000
v -1.651250 -0.135099 -0.300000
v -1.651250 -0.135099 0.300000
v -1.651250 -0.304000 -0.300000
v -1.651250 -0.304000 0.300000
v -1.585000 -0.085000 0.000000
v -1.585000 -0.089000 -0.300000
v -1.585000 -0.089000 0.300000
v -1.585000 -0.304000 -0.300000
v -1.585000 -0.304000 0.300000
v -1.518750 -0.044599 0.000000
v -1.518750 -0.049599 -0.300000
v -1.518750 -0.049599 0.300000
v -1.518750 -0.304000 -0.300000
v -1.518750 -0.304000 0.300000
v -1.452500 -0.010387 0.000000
v -1.452500 -0.016387 -0.300000
v -1.452500 -0.016387 0.300000
v -1.452500 -0.304000 -0.300000
v -1.452500 -0.304000 0.300000
v -1.386250 0.019088 0.000000
v -1.386250 0.012088 -0.300000
v -1.386250 0.012088 0.300000
v -1.414374 0.000000 -0.300000
v -1.386250 0.000000 -0.300000
v -1.386250 -0.304000 -0.300000
v -1.386250 -0.304000 0.300000
v -1.386250 0.000000 0.300000
v -1.414374 0.000000 0.300000
v -1.320000 0.046000 0.000000
v -1.320000 0.038000 -0.300000
v -1.320000 0.038000 0.300000
v -1.320000 0.000000 -0.300000
v -1.320000 -0.304000 -0.300000
v -1.320000 -0.304000 0.300000
v -1.320000 0.000000 0.300000
v -1.200000 0.034000 0.000000
v -1.200000 0.026000 -0.300000
v -1.200000 0.026000 0.300000
v -1.200000 0.000000 -0.300000
v -1.200000 -0.304000 -0.300000
v -1.200000 -0.304000 0.300000
v -1.200000 0.000000 0.300000
v -0.600000 0.034000 0.000000
v -0.600000 0.026000 -0.300000
v -0.600000 0.026000 0.300000
v -0.600000 0.000000 -0.300000
v -0.600000 -0.304000 -0.300000
v -0.600000 -0.304000 0.300000
v -0.600000 0.000000 0.300000
v 0.000000 0.034000 0.000000
v 0.000000 0.026000 -0.300000
v 0.000000 0.026000 0.300000
v 0.000000 0.000000 -0.300000
v 0.000000 -0.304000 -0.300000
v 0.000000 -0.304000 0.300000
v 0.000000 0.000000 0.300000
v 0.600000 0.034000 0.000000
v 0.600000 0.026000 -0.300000
v 0.600000 0.026000 0.300000
v 0.600000 0.000000 -0.300000
v 0.600000 -0.304000 -0.300000
v 0.600000 -0.304000 0.300000
v 0.600000 0.000000 0.300000
v 1.200000 0.034000 0.000000
v 1.200000 0.026000 -0.300000
v 1.200000 0.026000 0.300000
v 1.200000 0.000000 -0.300000
v 1.200000 -0.304000 -0.300000
v 1.200000 -0.304000 0.300000
v 1.200000 0.000000 0.300000
v 1.320000 0.046000 0.000000
v 1.320000 0.038000 -0.300000
v 1.320000 0.038000 0.300000
v 1.320000 0.000000 -0.300000
v 1.320000 -0.304000 -0.300000
v 1.320000 -0.304000 0.300000
v 1.320000 0.000000 0.300000
v 1.386250 0.019088 0.000000
v 1.386250 0.012088 -0.300000
v 1.386250 0.012088 0.300000
v 1.386250 0.000000 -0.300000
v 1.386250 -0.304000 -0.300000
v 1.386250 -0.304000 0.300000
v 1.386250 0.000000 0.300000
v 1.452500 -0.010387 0.000000
v 1.452500 -0.016387 -0.300000
v 1.452500 -0.016387 0.300000
v 1.414374 0.000000 -0.300000
v 1.452500 -0.304000 -0.300000
v 1.452500 -0.304000 0.300000
v 1.414374 0.000000 0.300000
v 1.518750 -0.044599 0.000000
v 1.518750 -0.049599 -0.300000
v 1.518750 -0.049599 0.300000
v 1.518750 -0.304000 -0.300000
v 1.518750 -0.304000 0.300000
v 1.585000 -0.085000 0.000000
v 1.585000 -0.089000 -0.300000
v 1.585000 -0.089000 0.300000
v 1.585000 -0.304000 -0.300000
v 1.585000 -0.304000 0.300000
v 1.651250 -0.132099 0.000000
v 1.651250 -0.135099 -0.300000
v 1.651250 -0.135099 0.300000
v 1.651250 -0.304000 -0.300000
v 1.651250 -0.304000 0.300000
v 1.717500 -0.185387 0.000000
v 1.717500 -0.187387 -0.300000
v 1.717500 -0.187387 0.300000
v 1.717500 -0.304000 -0.300000
v 1.717500 -0.304000 0.300000
v 1.783750 -0.243412 0.000000
v 1.783750 -0.244412 -0.300000
v 1.783750 -0.244412 0.300000
v 1.783750 -0.304000 -0.300000
v 1.783750 -0.304000 0.300000
v 1.800000 -0.258131 0.000000
v 1.800000 -0.258885 -0.300000
v 1.800000 -0.258885 0.300000
v 1.800000 -0.304000 -0.300000
v 1.800000 -0.304000 0.300000
v 1.850000 -0.304000 0.000000
v 1.850000 -0.304000 -0.300000
v 1.850000 -0.304000 0.300000
v -1.250000 -0.034578 -0.105000
v -1.200000 -0.034578 -0.120000
v -1.200000 -0.034578 0.120000
v -1.250000 -0.034578 0.105000
v -1.200000 0.077422 0.111000
v -1.250000 0.077422 0.096000
v -1.200000 0.085422 0.101000
v -1.250000 0.085422 0.086000
v -1.200000 0.085422 -0.101000
v -1.250000 0.085422 -0.086000
v -1.200000 0.077422 -0.111000
v -1.250000 0.077422 -0.096000
v -0.930000 -0.034578 -0.120000
v -0.930000 -0.034578 0.120000
v -0.930000 0.077422 0.111000
v -0.930000 0.085422 0.101000
v -0.930000 0.085422 -0.101000
v -0.930000 0.077422 -0.111000
v -0.600000 -0.034578 -0.120000
v -0.600000 -0.034578 0.120000
v -0.600000 0.077422 0.111000
v -0.600000 0.085422 0.101000
v -0.600000 0.085422 -0.101000
v -0.600000 0.077422 -0.111000
v -0.530000 -0.034578 -0.120000
v -0.530000 -0.034578 0.120000
v -0.530000 0.077422 0.111000
v -0.530000 0.085422 0.101000
v -0.530000 0.085422 -0.101000
v -0.530000 0.077422 -0.111000
v 0.000000 -0.034578 -0.120000
v 0.000000 -0.034578 0.120000
v 0.000000 0.077422 0.111000
v 0.000000 0.085422 0.101000
v 0.000000 0.085422 -0.101000
v 0.000000 0.077422 -0.111000
v 0.530000 -0.034578 -0.120000
v 0.530000 -0.034578 0.120000
v 0.530000 0.077422 0.111000
v 0.530000 0.085422 0.101000
v 0.530000 0.085422 -0.101000
v 0.530000 0.077422 -0.111000
v 0.600000 -0.034578 -0.120000
v 0.600000 -0.034578 0.120000
v 0.600000 0.077422 0.111000
v 0.600000 0.085422 0.101000
v 0.600000 0.085422 -0.101000
v 0.600000 0.077422 -0.111000
v 0.930000 -0.034578 -0.120000
v 0.930000 -0.034578 0.120000
v 0.930000 0.077422 0.111000
v 0.930000 0.085422 0.101000
v 0.930000 0.085422 -0.101000
v 0.930000 0.077422 -0.111000
v 1.200000 -0.034578 -0.120000
v 1.200000 -0.034578 0.120000
v 1.200000 0.077422 0.111000
v 1.200000 0.085422 0.101000
v 1.200000 0.085422 -0.101000
v 1.200000 0.077422 -0.111000
v 1.250000 -0.034578 -0.105000
v 1.250000 -0.034578 0.105000
v 1.250000 0.077422 0.096000
v 1.250000 0.085422 0.086000
v 1.250000 0.085422 -0.086000
v 1.250000 0.077422 -0.096000
v -0.827500 0.085422 -0.107000
v -0.675500 0.085422 -0.107000
v -0.675500 0.085422 0.107000
v -0.827500 0.085422 0.107000
v -0.827500 0.095422 -0.107000
v -0.675500 0.095422 -0.107000
v -0.675500 0.095422 0.107000
v -0.827500 0.095422 0.107000
v -0.826500 0.099422 0.106000
v -0.676500 0.099422 0.106000
v -0.676500 0.099422 -0.106000
v -0.826500 0.099422 -0.106000
v -0.676500 0.095422 -0.106000
v -0.826500 0.095422 -0.106000
v -0.676500 0.095422 0.106000
v -0.826500 0.095422 0.106000
v -0.896500 0.109422 0.105000
v -0.606500 0.109422 0.105000
v -0.606500 0.109422 -0.105000
v -0.896500 0.109422 -0.105000
v -0.606500 0.099422 -0.105000
v -0.896500 0.099422 -0.105000
v -0.606500 0.099422 0.105000
v -0.896500 0.099422 0.105000
v -0.946500 0.085422 -0.103000
v -0.820500 0.085422 -0.103000
v -0.820500 0.085422 0.103000
v -0.946500 0.085422 0.103000
v -0.946500 0.095422 0.103000
v -0.820500 0.095422 0.103000
v -0.820500 0.095422 -0.103000
v -0.946500 0.095422 -0.103000
v -0.950500 0.095422 -0.107000
v -0.934500 0.095422 -0.107000
v -0.934500 0.095422 0.107000
v -0.950500 0.095422 0.107000
v -0.950500 0.126422 0.107000
v -0.934500 0.126422 0.107000
v -0.934500 0.126422 -0.107000
v -0.950500 0.126422 -0.107000
v -0.682500 0.085422 -0.103000
v -0.556500 0.085422 -0.103000
v -0.556500 0.085422 0.103000
v -0.682500 0.085422 0.103000
v -0.682500 0.095422 0.103000
v -0.556500 0.095422 0.103000
v -0.556500 0.095422 -0.103000
v -0.682500 0.095422 -0.103000
v -0.568500 0.095422 -0.107000
v -0.552500 0.095422 -0.107000
v -0.552500 0.095422 0.107000
v -0.568500 0.095422 0.107000
v -0.568500 0.126422 0.107000
v -0.552500 0.126422 0.107000
v -0.552500 0.126422 -0.107000
v -0.568500 0.126422 -0.107000
v -0.681500 0.099422 -0.300000
v -0.681500 0.108000 -0.300000
v -0.681500 0.108000 0.300000
v -0.681500 0.099422 0.300000
v -0.687500 0.113000 -0.300000
v -0.687500 0.113000 0.300000
v -0.725500 0.124000 -0.300000
v -0.725500 0.124000 0.300000
v -0.739500 0.134000 -0.300000
v -0.739500 0.134000 0.300000
v -0.742500 0.145000 -0.300000
v -0.742500 0.145000 0.300000
v -0.742500 0.207000 -0.300000
v -0.742500 0.207000 0.300000
v -0.738500 0.219000 -0.300000
v -0.738500 0.219000 0.300000
v -0.724500 0.225000 -0.300000
v -0.724500 0.225000 0.300000
v -0.718500 0.231000 -0.300000
v -0.718500 0.231000 0.300000
v -0.717500 0.239000 -0.300000
v -0.717500 0.239000 0.300000
v -0.717500 0.254000 -0.300000
v -0.717500 0.254000 0.300000
v -0.719500 0.260000 -0.300000
v -0.719500 0.260000 0.300000
v -0.725500 0.264280 -0.300000
v -0.725500 0.264280 0.300000
v -0.777500 0.264280 -0.300000
v -0.777500 0.264280 0.300000
v -0.783500 0.260000 -0.300000
v -0.783500 0.260000 0.300000
v -0.785500 0.254000 -0.300000
v -0.785500 0.254000 0.300000
v -0.785500 0.239000 -0.300000
v -0.785500 0.239000 0.300000
v -0.784500 0.231000 -0.300000
v -0.784500 0.231000 0.300000
v -0.778500 0.225000 -0.300000
v -0.778500 0.225000 0.300000
v -0.764500 0.219000 -0.300000
v -0.764500 0.219000 0.300000
v -0.760500 0.207000 -0.300000
v -0.760500 0.207000 0.300000
v -0.760500 0.145000 -0.300000
v -0.760500 0.145000 0.300000
v -0.763500 0.134000 -0.300000
v -0.763500 0.134000 0.300000
v -0.777500 0.124000 -0.300000
v -0.777500 0.124000 0.300000
v -0.815500 0.113000 -0.300000
v -0.815500 0.113000 0.300000
v -0.821500 0.108000 -0.300000
v -0.821500 0.108000 0.300000
v -0.821500 0.099422 -0.300000
v -0.821500 0.099422 0.300000
v 0.675500 0.085422 -0.107000
v 0.827500 0.085422 -0.107000
v 0.827500 0.085422 0.107000
v 0.675500 0.085422 0.107000
v 0.675500 0.095422 -0.107000
v 0.827500 0.095422 -0.107000
v 0.827500 0.095422 0.107000
v 0.675500 0.095422 0.107000
v 0.676500 0.099422 0.106000
v 0.826500 0.099422 0.106000
v 0.826500 0.099422 -0.106000
v 0.676500 0.099422 -0.106000
v 0.826500 0.095422 -0.106000
v 0.676500 0.095422 -0.106000
v 0.826500 0.095422 0.106000
v 0.676500 0.095422 0.106000
v 0.606500 0.109422 0.105000
v 0.896500 0.109422 0.105000
v 0.896500 0.109422 -0.105000
v 0.606500 0.109422 -0.105000
v 0.896500 0.099422 -0.105000
v 0.606500 0.099422 -0.105000
v 0.896500 0.099422 0.105000
v 0.606500 0.099422 0.105000
v 0.556500 0.085422 -0.103000
v 0.682500 0.085422 -0.103000
v 0.682500 0.085422 0.103000
v 0.556500 0.085422 0.103000
v 0.556500 0.095422 0.103000
v 0.682500 0.095422 0.103000
v 0.682500 0.095422 -0.103000
v 0.556500 0.095422 -0.103000
v 0.552500 0.095422 -0.107000
v 0.568500 0.095422 -0.107000
v 0.568500 0.095422 0.107000
v 0.552500 0.095422 0.107000
v 0.552500 0.126422 0.107000
v 0.568500 0.126422 0.107000
v 0.568500 0.126422 -0.107000
v 0.552500 0.126422 -0.107000
v 0.820500 0.085422 -0.103000
v 0.946500 0.085422 -0.103000
v 0.946500 0.085422 0.103000
v 0.820500 0.085422 0.103000
v 0.820500 0.095422 0.103000
v 0.946500 0.095422 0.103000
v 0.946500 0.095422 -0.103000
v 0.820500 0.095422 -0.103000
v 0.934500 0.095422 -0.107000
v 0.950500 0.095422 -0.107000
v 0.950500 0.095422 0.107000
v 0.934500 0.095422 0.107000
v 0.934500 0.126422 0.107000
v 0.950500 0.126422 0.107000
v 0.950500 0.126422 -0.107000
v 0.934500 0.126422 -0.107000
v 0.821500 0.099422 -0.300000
v 0.821500 0.108000 -0.300000
v 0.821500 0.108000 0.300000
v 0.821500 0.099422 0.300000
v 0.815500 0.113000 -0.300000
v 0.815500 0.113000 0.300000
v 0.777500 0.124000 -0.300000
v 0.777500 0.124000 0.300000
v 0.763500 0.134000 -0.300000
v 0.763500 0.134000 0.300000
v 0.760500 0.145000 -0.300000
v 0.760500 0.145000 0.300000
v 0.760500 0.207000 -0.300000
v 0.760500 0.207000 0.300000
v 0.764500 0.219000 -0.300000
v 0.764500 0.219000 0.300000
v 0.778500 0.225000 -0.300000
v 0.778500 0.225000 0.300000
v 0.784500 0.231000 -0.300000
v 0.784500 0.231000 0.300000
v 0.785500 0.239000 -0.300000
v 0.785500 0.239000 0.300000
v 0.785500 0.254000 -0.300000
v 0.785500 0.254000 0.300000
v 0.783500 0.260000 -0.300000
v 0.783500 0.260000 0.300000
v 0.777500 0.264280 -0.300000
v 0.777500 0.264280 0.300000
v 0.725500 0.264280 -0.300000
v 0.725500 0.264280 0.300000
v 0.719500 0.260000 -0.300000
v 0.719500 0.260000 0.300000
v 0.717500 0.254000 -0.300000
v 0.717500 0.254000 0.300000
v 0.717500 0.239000 -0.300000
v 0.717500 0.239000 0.300000
v 0.718500 0.231000 -0.300000
v 0.718500 0.231000 0.300000
v 0.724500 0.225000 -0.300000
v 0.724500 0.225000 0.300000
v 0.738500 0.219000 -0.300000
v 0.738500 0.219000 0.300000
v 0.742500 0.207000 -0.300000
v 0.742500 0.207000 0.300000
v 0.742500 0.145000 -0.300000
v 0.742500 0.145000 0.300000
v 0.739500 0.134000 -0.300000
v 0.739500 0.134000 0.300000
v 0.725500 0.124000 -0.300000
v 0.725500 0.124000 0.300000
v 0.687500 0.113000 -0.300000
v 0.687500 0.113000 0.300000
v 0.681500 0.108000 -0.300000
v 0.681500 0.108000 0.300000
v 0.681500 0.099422 -0.300000
v 0.681500 0.099422 0.300000
v -0.488000 0.085422 -0.099000
v -0.482000 0.085422 -0.105000
v -0.230000 0.085422 -0.105000
v -0.224000 0.085422 -0.099000
v -0.224000 0.085422 0.099000
v -0.230000 0.085422 0.105000
v -0.482000 0.085422 0.105000
v -0.488000 0.085422 0.099000
v -0.482000 0.095422 -0.105000
v -0.488000 0.095422 -0.099000
v -0.488000 0.095422 0.099000
v -0.482000 0.095422 0.105000
v -0.230000 0.095422 0.105000
v -0.224000 0.095422 0.099000
v -0.224000 0.095422 -0.099000
v -0.230000 0.095422 -0.105000
v -0.425000 0.099422 -0.102000
v -0.431000 0.099422 -0.096000
v -0.431000 0.099422 0.096000
v -0.425000 0.099422 0.102000
v -0.287000 0.099422 0.102000
v -0.281000 0.099422 0.096000
v -0.281000 0.099422 -0.096000
v -0.287000 0.099422 -0.102000
v -0.287000 0.095422 -0.102000
v -0.425000 0.095422 -0.102000
v -0.281000 0.095422 -0.096000
v -0.281000 0.095422 0.096000
v -0.287000 0.095422 0.102000
v -0.425000 0.095422 0.102000
v -0.431000 0.095422 0.096000
v -0.431000 0.095422 -0.096000
v -0.484000 0.113422 -0.072000
v -0.481000 0.113422 -0.075000
v -0.409000 0.113422 -0.075000
v -0.406000 0.113422 -0.072000
v -0.406000 0.113422 0.072000
v -0.409000 0.113422 0.075000
v -0.481000 0.113422 0.075000
v -0.484000 0.113422 0.072000
v -0.481000 0.124422 -0.075000
v -0.484000 0.124422 -0.072000
v -0.484000 0.124422 0.072000
v -0.481000 0.124422 0.075000
v -0.409000 0.124422 0.075000
v -0.406000 0.124422 0.072000
v -0.406000 0.124422 -0.072000
v -0.409000 0.124422 -0.075000
v -0.306000 0.113422 -0.072000
v -0.303000 0.113422 -0.075000
v -0.231000 0.113422 -0.075000
v -0.228000 0.113422 -0.072000
v -0.228000 0.113422 0.072000
v -0.231000 0.113422 0.075000
v -0.303000 0.113422 0.075000
v -0.306000 0.113422 0.072000
v -0.303000 0.124422 -0.075000
v -0.306000 0.124422 -0.072000
v -0.306000 0.124422 0.072000
v -0.303000 0.124422 0.075000
v -0.231000 0.124422 0.075000
v -0.228000 0.124422 0.072000
v -0.228000 0.124422 -0.072000
v -0.231000 0.124422 -0.075000
v -0.286000 0.099422 -0.300000
v -0.286000 0.108000 -0.300000
v -0.286000 0.108000 0.300000
v -0.286000 0.099422 0.300000
v -0.292000 0.113000 -0.300000
v -0.292000 0.113000 0.300000
v -0.330000 0.124000 -0.300000
v -0.330000 0.124000 0.300000
v -0.344000 0.134000 -0.300000
v -0.344000 0.134000 0.300000
v -0.347000 0.145000 -0.300000
v -0.347000 0.145000 0.300000
v -0.347000 0.207000 -0.300000
v -0.347000 0.207000 0.300000
v -0.343000 0.219000 -0.300000
v -0.343000 0.219000 0.300000
v -0.329000 0.225000 -0.300000
v -0.329000 0.225000 0.300000
v -0.323000 0.231000 -0.300000
v -0.323000 0.231000 0.300000
v -0.322000 0.239000 -0.300000
v -0.322000 0.239000 0.300000
v -0.322000 0.254000 -0.300000
v -0.322000 0.254000 0.300000
v -0.324000 0.260000 -0.300000
v -0.324000 0.260000 0.300000
v -0.330000 0.264280 -0.300000
v -0.330000 0.264280 0.300000
v -0.382000 0.264280 -0.300000
v -0.382000 0.264280 0.300000
v -0.388000 0.260000 -0.300000
v -0.388000 0.260000 0.300000
v -0.390000 0.254000 -0.300000
v -0.390000 0.254000 0.300000
v -0.390000 0.239000 -0.300000
v -0.390000 0.239000 0.300000
v -0.389000 0.231000 -0.300000
v -0.389000 0.231000 0.300000
v -0.383000 0.225000 -0.300000
v -0.383000 0.225000 0.300000
v -0.369000 0.219000 -0.300000
v -0.369000 0.219000 0.300000
v -0.365000 0.207000 -0.300000
v -0.365000 0.207000 0.300000
v -0.365000 0.145000 -0.300000
v -0.365000 0.145000 0.300000
v -0.368000 0.134000 -0.300000
v -0.368000 0.134000 0.300000
v -0.382000 0.124000 -0.300000
v -0.382000 0.124000 0.300000
v -0.420000 0.113000 -0.300000
v -0.420000 0.113000 0.300000
v -0.426000 0.108000 -0.300000
v -0.426000 0.108000 0.300000
v -0.426000 0.099422 -0.300000
v -0.426000 0.099422 0.300000
v 0.224000 0.085422 -0.099000
v 0.230000 0.085422 -0.105000
v 0.482000 0.085422 -0.105000
v 0.488000 0.085422 -0.099000
v 0.488000 0.085422 0.099000
v 0.482000 0.085422 0.105000
v 0.230000 0.085422 0.105000
v 0.224000 0.085422 0.099000
v 0.230000 0.095422 -0.105000
v 0.224000 0.095422 -0.099000
v 0.224000 0.095422 0.099000
v 0.230000 0.095422 0.105000
v 0.482000 0.095422 0.105000
v 0.488000 0.095422 0.099000
v 0.488000 0.095422 -0.099000
v 0.482000 0.095422 -0.105000
v 0.287000 0.099422 -0.102000
v 0.281000 0.099422 -0.096000
v 0.281000 0.099422 0.096000
v 0.287000 0.099422 0.102000
v 0.425000 0.099422 0.102000
v 0.431000 0.099422 0.096000
v 0.431000 0.099422 -0.096000
v 0.425000 0.099422 -0.102000
v 0.425000 0.095422 -0.102000
v 0.287000 0.095422 -0.102000
v 0.431000 0.095422 -0.096000
v 0.431000 0.095422 0.096000
v 0.425000 0.095422 0.102000
v 0.287000 0.095422 0.102000
v 0.281000 0.095422 0.096000
v 0.281000 0.095422 -0.096000
v 0.228000 0.113422 -0.072000
v 0.231000 0.113422 -0.075000
v 0.303000 0.113422 -0.075000
v 0.306000 0.113422 -0.072000
v 0.306000 0.113422 0.072000
v 0.303000 0.113422 0.075000
v 0.231000 0.113422 0.075000
v 0.228000 0.113422 0.072000
v 0.231000 0.124422 -0.075000
v 0.228000 0.124422 -0.072000
v 0.228000 0.124422 0.072000
v 0.231000 0.124422 0.075000
v 0.303000 0.124422 0.075000
v 0.306000 0.124422 0.072000
v 0.306000 0.124422 -0.072000
v 0.303000 0.124422 -0.075000
v 0.406000 0.113422 -0.072000
v 0.409000 0.113422 -0.075000
v 0.481000 0.113422 -0.075000
v 0.484000 0.113422 -0.072000
v 0.484000 0.113422 0.072000
v 0.481000 0.113422 0.075000
v 0.409000 0.113422 0.075000
v 0.406000 0.113422 0.072000
v 0.409000 0.124422 -0.075000
v 0.406000 0.124422 -0.072000
v 0.406000 0.124422 0.072000
v 0.409000 0.124422 0.075000
v 0.481000 0.124422 0.075000
v 0.484000 0.124422 0.072000
v 0.484000 0.124422 -0.072000
v 0.481000 0.124422 -0.075000
v 0.426000 0.099422 -0.300000
v 0.426000 0.108000 -0.300000
v 0.426000 0.108000 0.300000
v 0.426000 0.099422 0.300000
v 0.420000 0.113000 -0.300000
v 0.420000 0.113000 0.300000
v 0.382000 0.124000 -0.300000
v 0.382000 0.124000 0.300000
v 0.368000 0.134000 -0.300000
v 0.368000 0.134000 0.300000
v 0.365000 0.145000 -0.300000
v 0.365000 0.145000 0.300000
v 0.365000 0.207000 -0.300000
v 0.365000 0.207000 0.300000
v 0.369000 0.219000 -0.300000
v 0.369000 0.219000 0.300000
v 0.383000 0.225000 -0.300000
v 0.383000 0.225000 0.300000
v 0.389000 0.231000 -0.300000
v 0.389000 0.231000 0.300000
v 0.390000 0.239000 -0.300000
v 0.390000 0.239000 0.300000
v 0.390000 0.254000 -0.300000
v 0.390000 0.254000 0.300000
v 0.388000 0.260000 -0.300000
v 0.388000 0.260000 0.300000
v 0.382000 0.264280 -0.300000
v 0.382000 0.264280 0.300000
v 0.330000 0.264280 -0.300000
v 0.330000 0.264280 0.300000
v 0.324000 0.260000 -0.300000
v 0.324000 0.260000 0.300000
v 0.322000 0.254000 -0.300000
v 0.322000 0.254000 0.300000
v 0.322000 0.239000 -0.300000
v 0.322000 0.239000 0.300000
v 0.323000 0.231000 -0.300000
v 0.323000 0.231000 0.300000
v 0.329000 0.225000 -0.300000
v 0.329000 0.225000 0.300000
v 0.343000 0.219000 -0.300000
v 0.343000 0.219000 0.300000
v 0.347000 0.207000 -0.300000
v 0.347000 0.207000 0.300000
v 0.347000 0.145000 -0.300000
v 0.347000 0.145000 0.300000
v 0.344000 0.134000 -0.300000
v 0.344000 0.134000 0.300000
v 0.330000 0.124000 -0.300000
v 0.330000 0.124000 0.300000
v 0.292000 0.113000 -0.300000
v 0.292000 0.113000 0.300000
v 0.286000 0.108000 -0.300000
v 0.286000 0.108000 0.300000
v 0.286000 0.099422 -0.300000
v 0.286000 0.099422 0.300000
vt 0.96281250 0.01585821
vt 0.96281250 0.25373134
vt 0.98937500 0.25373134
vt 0.98937500 0.01585821
vt 0.96281250 0.49160448
vt 0.98937500 0.49160448
vt 0.96281250 0.25055970
vt 0.98937500 0.28633158
vt 0.98937500 0.25055970
vt 0.67062500 0.01585821
vt 0.67062500 0.49160448
vt 0.67062500 0.25373134
vt 0.67925781 0.25373134
vt 0.67925781 0.01585821
vt 0.67925781 0.49160448
vt 0.67062500 0.28633158
vt 0.67925781 0.29780771
vt 0.67925781 0.25055970
vt 0.67062500 0.25055970
vt 0.71445312 0.25373134
vt 0.71445312 0.01585821
vt 0.71445312 0.49160448
vt 0.71445312 0.34302313
vt 0.71445312 0.25055970
vt 0.74964844 0.25373134
vt 0.74964844 0.01585821
vt 0.74964844 0.49160448
vt 0.74964844 0.38448283
vt 0.74964844 0.25055970
vt 0.78484375 0.25373134
vt 0.78484375 0.01585821
vt 0.78484375 0.49160448
vt 0.78484375 0.42103545
vt 0.78484375 0.25055970
vt 0.82003906 0.25373134
vt 0.82003906 0.01585821
vt 0.82003906 0.49160448
vt 0.82003906 0.45227667
vt 0.82003906 0.25055970
vt 0.85523437 0.25373134
vt 0.85523437 0.01585821
vt 0.85523437 0.49160448
vt 0.85523437 0.47861081
vt 0.85523437 0.25055970
vt 0.89042969 0.25373134
vt 0.89042969 0.01585821
vt 0.89042969 0.49160448
vt 0.87548894 0.49160448
vt 0.89042969 0.25055970
vt 0.87548894 0.01585821
vt 0.89042969 0.02544297
vt 0.92562500 0.25373134
vt 0.92562500 0.01585821
vt 0.92562500 0.49160448
vt 0.92562500 0.25055970
vt 0.92562500 0.04598881
vt 0.98937500 0.03647388
vt 0.67062500 0.03647388
vt 0.73437500 0.25373134
vt 0.73437500 0.01585821
vt 0.73437500 0.49160448
vt 0.73437500 0.25055970
vt 0.73437500 0.04598881
vt 0.76957031 0.25373134
vt 0.76957031 0.01585821
vt 0.76957031 0.49160448
vt 0.76957031 0.25055970
vt 0.76957031 0.02544297
vt 0.80476563 0.25373134
vt 0.80476563 0.01585821
vt 0.80476563 0.49160448
vt 0.78451106 0.49160448
vt 0.80476563 0.47861081
vt 0.80476563 0.25055970
vt 0.78451106 0.01585821
vt 0.83996094 0.25373134
vt 0.83996094 0.01585821
vt 0.83996094 0.49160448
vt 0.83996094 0.45227667
vt 0.83996094 0.25055970
vt 0.87515625 0.25373134
vt 0.87515625 0.01585821
vt 0.87515625 0.49160448
vt 0.87515625 0.42103545
vt 0.87515625 0.25055970
vt 0.91035156 0.25373134
vt 0.91035156 0.01585821
vt 0.91035156 0.49160448
vt 0.91035156 0.38448283
vt 0.91035156 0.25055970
vt 0.94554688 0.25373134
vt 0.94554688 0.01585821
vt 0.94554688 0.49160448
vt 0.94554688 0.34302313
vt 0.94554688 0.25055970
vt 0.98074219 0.25373134
vt 0.98074219 0.01585821
vt 0.98074219 0.49160448
vt 0.98074219 0.29780771
vt 0.98074219 0.25055970
vt 0.69718750 0.25373134
vt 0.69718750 0.01585821
vt 0.69718750 0.49160448
vt 0.69718750 0.25055970
vt 0.30281250 0.17047575
vt 0.32937500 0.15858209
vt 0.32937500 0.34888060
vt 0.30281250 0.33698694
vt 0.30281250 0.01585821
vt 0.32937500 0.01585821
vt 0.32937500 0.10466418
vt 0.30281250 0.10466418
vt 0.30281250 0.32985075
vt 0.32937500 0.34174440
vt 0.32937500 0.33381530
vt 0.30281250 0.32192164
vt 0.32937500 0.17364739
vt 0.30281250 0.18554104
vt 0.32937500 0.16571828
vt 0.30281250 0.17761194
vt 0.01062500 0.15858209
vt 0.15406250 0.15858209
vt 0.15406250 0.34888060
vt 0.01062500 0.34888060
vt 0.01062500 0.01585821
vt 0.15406250 0.01585821
vt 0.15406250 0.10466418
vt 0.01062500 0.10466418
vt 0.01062500 0.34174440
vt 0.15406250 0.34174440
vt 0.15406250 0.33381530
vt 0.01062500 0.33381530
vt 0.15406250 0.17364739
vt 0.01062500 0.17364739
vt 0.15406250 0.16571828
vt 0.01062500 0.16571828
vt 0.04781250 0.15858209
vt 0.04781250 0.34888060
vt 0.04781250 0.01585821
vt 0.04781250 0.10466418
vt 0.04781250 0.34174440
vt 0.04781250 0.33381530
vt 0.04781250 0.17364739
vt 0.04781250 0.16571828
vt 0.29218750 0.15858209
vt 0.29218750 0.34888060
vt 0.29218750 0.01585821
vt 0.29218750 0.10466418
vt 0.29218750 0.34174440
vt 0.29218750 0.33381530
vt 0.29218750 0.17364739
vt 0.29218750 0.16571828
vt 0.18593750 0.15858209
vt 0.18593750 0.34888060
vt 0.18593750 0.01585821
vt 0.18593750 0.10466418
vt 0.18593750 0.34174440
vt 0.18593750 0.33381530
vt 0.18593750 0.17364739
vt 0.18593750 0.16571828
vt 0.03718750 0.17047575
vt 0.03718750 0.33698694
vt 0.03718750 0.01585821
vt 0.03718750 0.10466418
vt 0.03718750 0.32985075
vt 0.03718750 0.32192164
vt 0.03718750 0.18554104
vt 0.03718750 0.17761194
vt 0.04250000 0.45988806
vt 0.03054688 0.01585821
vt 0.30945312 0.01585821
vt 0.29750000 0.45988806
vt 0.28421875 0.49160448
vt 0.05578125 0.49160448
vt 0.60837500 0.02537313
vt 0.65300000 0.02537313
vt 0.65300000 0.19664179
vt 0.60837500 0.19664179
vt 0.60837500 0.48208955
vt 0.65300000 0.48208955
vt 0.65300000 0.31082090
vt 0.60837500 0.31082090
vt 0.34062500 0.49160448
vt 0.57968750 0.49160448
vt 0.57968750 0.01585821
vt 0.34062500 0.01585821
vt 0.01062500 0.50839552
vt 0.01062500 0.53314987
vt 0.32937500 0.53314987
vt 0.32937500 0.50839552
vt 0.01062500 0.54757884
vt 0.32937500 0.54757884
vt 0.01062500 0.57932257
vt 0.32937500 0.57932257
vt 0.01062500 0.60818052
vt 0.32937500 0.60818052
vt 0.01062500 0.63992425
vt 0.32937500 0.63992425
vt 0.01062500 0.81884350
vt 0.32937500 0.81884350
vt 0.01062500 0.85347303
vt 0.32937500 0.85347303
vt 0.01062500 0.87078779
vt 0.32937500 0.87078779
vt 0.01062500 0.88810256
vt 0.32937500 0.88810256
vt 0.01062500 0.91118891
vt 0.32937500 0.91118891
vt 0.01062500 0.95447583
vt 0.32937500 0.95447583
vt 0.01062500 0.97179059
vt 0.32937500 0.97179059
vt 0.34062500 0.97014925
vt 0.34062500 0.92817164
vt 0.65937500 0.92817164
vt 0.65937500 0.97014925
vt 0.34062500 0.56436567
vt 0.65937500 0.56436567
vt 0.34062500 0.52238806
vt 0.65937500 0.52238806
vt 0.01062500 0.57500000
vt 0.32937500 0.57500000
vt 0.98937500 0.50839552
vt 0.67062500 0.50839552
vt 0.67062500 0.53314987
vt 0.68428571 0.54757884
vt 0.77080357 0.57932257
vt 0.80267857 0.60818052
vt 0.80040179 0.85347303
vt 0.76852679 0.87078779
vt 0.75486607 0.88810256
vt 0.75258929 0.91118891
vt 0.75258929 0.95447583
vt 0.75714286 0.97179059
vt 0.77080357 0.98414179
vt 0.80950893 0.81884350
vt 0.88919643 0.98414179
vt 0.90285714 0.97179059
vt 0.90741071 0.95447583
vt 0.90741071 0.91118891
vt 0.90513393 0.88810256
vt 0.89147321 0.87078779
vt 0.85959821 0.85347303
vt 0.85049107 0.81884350
vt 0.80950893 0.63992425
vt 0.85049107 0.63992425
vt 0.85732143 0.60818052
vt 0.88919643 0.57932257
vt 0.97571429 0.54757884
vt 0.98937500 0.53314987
vt 0.34062500 0.02945096
vt 0.34605824 0.01585821
vt 0.57425426 0.01585821
vt 0.57968750 0.02945096
vt 0.57968750 0.47801173
vt 0.57425426 0.49160448
vt 0.34605824 0.49160448
vt 0.34062500 0.47801173
vt 0.61016000 0.31082090
vt 0.60837500 0.31585821
vt 0.60837500 0.47705224
vt 0.61016000 0.48208955
vt 0.65121500 0.48208955
vt 0.65300000 0.47705224
vt 0.65300000 0.31585821
vt 0.65121500 0.31082090
vt 0.34062500 0.02537313
vt 0.34981971 0.01585821
vt 0.57049279 0.01585821
vt 0.57968750 0.02537313
vt 0.57968750 0.48208955
vt 0.57049279 0.49160448
vt 0.34981971 0.49160448
vt 0.34062500 0.48208955
vt 0.01062500 0.98414179
vt 0.32937500 0.98414179
vn -0.67601314 0.73688957 0.00000000
vn -0.66990359 0.74244575 -0.00186779
vn -0.66990476 0.74244705 0.00000000
vn -0.67601198 0.73688830 0.00185381
vn 0.00000000 0.00000000 -1.00000000
vn 0.00000000 -0.00000000 1.00000000
vn 0.00000000 -1.00000000 0.00000000
vn -0.67132147 0.74116396 -0.00186456
vn -0.66510533 0.74674541 -0.00248915
vn -0.66510621 0.74674641 0.00187861
vn -0.67132058 0.74116299 0.00247054
vn -0.65886181 0.75225981 -0.00250753
vn -0.65235724 0.75789478 -0.00505263
vn -0.65236349 0.75790204 0.00252634
vn -0.65885560 0.75225272 0.00501502
vn -0.62674989 0.77920318 -0.00519469
vn -0.61951841 0.78494288 -0.00784943
vn -0.61952901 0.78495632 0.00523304
vn -0.62673932 0.77919004 0.00779190
vn -0.57940804 0.81499687 -0.00814997
vn -0.57113334 0.82078434 -0.01094379
vn -0.57114831 0.82080585 0.00820806
vn -0.57939307 0.81497582 0.01086634
vn -0.52061463 0.85371590 -0.01138288
vn -0.51110737 0.85939752 -0.01432329
vn -0.51112625 0.85942926 0.01145906
vn -0.52059566 0.85368479 0.01422808
vn -0.45878801 0.88842238 -0.01480704
vn -0.44808089 0.89381427 -0.01787629
vn -0.44810276 0.89385792 0.01489763
vn -0.45876588 0.88837953 0.01776759
vn -0.40642676 0.91350068 -0.01827001
vn -0.39479511 0.91851918 -0.02143211
vn -0.39481917 0.91857515 0.01837150
vn -0.40640227 0.91344563 0.02131373
vn -0.37626353 0.92626057 -0.02161275
vn -0.36414097 0.93101287 -0.02482701
vn -0.36416728 0.93108013 0.02172520
vn -0.37623663 0.92619435 0.02469852
vn 0.09946871 0.99468709 -0.02652499
vn 0.09946871 0.99468709 0.02652499
vn 0.00000000 0.99964463 -0.02665719
vn -0.00000000 0.99964463 0.02665719
vn -0.09946871 0.99468709 -0.02652499
vn -0.09946871 0.99468709 0.02652499
vn 0.37623663 0.92619435 -0.02469852
vn 0.36416728 0.93108013 -0.02172520
vn 0.36414097 0.93101287 0.02482701
vn 0.37626353 0.92626057 0.02161275
vn 0.40640227 0.91344563 -0.02131373
vn 0.39481917 0.91857515 -0.01837150
vn 0.39479511 0.91851918 0.02143211
vn 0.40642676 0.91350068 0.01827001
vn 0.45876588 0.88837953 -0.01776759
vn 0.44810276 0.89385792 -0.01489763
vn 0.44808089 0.89381427 0.01787629
vn 0.45878801 0.88842238 0.01480704
vn 0.52059566 0.85368479 -0.01422808
vn 0.51112625 0.85942926 -0.01145906
vn 0.51110737 0.85939752 0.01432329
vn 0.52061463 0.85371590 0.01138288
vn 0.57939307 0.81497582 -0.01086634
vn 0.57114831 0.82080585 -0.00820806
vn 0.57113334 0.82078434 0.01094379
vn 0.57940804 0.81499687 0.00814997
vn 0.62673932 0.77919004 -0.00779190
vn 0.61952901 0.78495632 -0.00523304
vn 0.61951841 0.78494288 0.00784943
vn 0.62674989 0.77920318 0.00519469
vn 0.65885560 0.75225272 -0.00501502
vn 0.65236349 0.75790204 -0.00252634
vn 0.65235724 0.75789478 0.00505263
vn 0.65886181 0.75225981 0.00250753
vn 0.67132058 0.74116299 -0.00247054
vn 0.66510621 0.74674641 -0.00187861
vn 0.66510533 0.74674541 0.00248915
vn 0.67132147 0.74116396 0.00186456
vn 0.67601198 0.73688830 -0.00185381
vn 0.66990476 0.74244705 0.00000000
vn 0.66990359 0.74244575 0.00186779
vn 0.67601314 0.73688957 0.00000000
vn -0.28650051 0.07674121 0.95500170
vn -0.18420167 0.76750695 0.61400556
vn -0.00000000 1.00000000 0.00000000
vn -0.18420167 0.76750695 -0.61400556
vn -0.28650051 0.07674121 -0.95500170
vn -0.00000000 0.08009895 0.99678692
vn -0.00000000 0.78086881 0.62469505
vn 0.00000000 0.78086881 -0.62469505
vn 0.00000000 0.08009895 -0.99678692
vn 0.28650051 0.07674121 0.95500170
vn 0.18420167 0.76750695 0.61400556
vn 0.18420167 0.76750695 -0.61400556
vn 0.28650051 0.07674121 -0.95500170
vn -1.00000000 -0.00000000 0.00000000
vn 1.00000000 0.00000000 0.00000000
vn 0.64018440 0.76822128 0.00000000
vn 0.27805808 0.96056426 0.00000000
vn 0.58123819 0.81373347 0.00000000
vn 0.96476382 0.26311741 0.00000000
vn 0.94868330 -0.31622777 0.00000000
vn 0.39391930 -0.91914503 0.00000000
vn 0.70710678 -0.70710678 0.00000000
vn 0.99227788 -0.12403473 0.00000000
vn 0.94868330 0.31622777 0.00000000
vn 0.58072468 0.81410002 0.00000000
vn -0.58072468 0.81410002 0.00000000
vn -0.94868330 0.31622777 0.00000000
vn -0.99227788 -0.12403473 0.00000000
vn -0.70710678 -0.70710678 0.00000000
vn -0.39391930 -0.91914503 0.00000000
vn -0.94868330 -0.31622777 0.00000000
vn -0.96476382 0.26311741 0.00000000
vn -0.58123819 0.81373347 0.00000000
vn -0.27805808 0.96056426 0.00000000
vn -0.64018440 0.76822128 0.00000000
vn 0.70710678 0.00000000 -0.70710678
vn 0.70710678 0.00000000 0.70710678
vn -0.70710678 0.00000000 0.70710678
vn -0.70710678 0.00000000 -0.70710678
g ballast
usemtl mat
f 1/1/1 2/2/1 3/3/1
f 3/3/2 4/4/2 1/1/2
f 2/2/3 5/5/3 6/6/3
f 6/6/4 3/3/4 2/2/4
f 1/7/5 4/8/5 7/9/5
f 8/9/6 6/8/6 5/7/6
f 1/10/7 7/4/7 8/6/7 5/11/7
f 4/10/8 3/12/8 9/13/8
f 9/13/9 10/14/9 4/10/9
f 3/12/10 6/11/10 11/15/10
f 11/15/11 9/13/11 3/12/11
f 4/16/5 10/17/5 12/18/5 7/19/5
f 8/19/6 13/18/6 11/17/6 6/16/6
f 7/10/7 12/4/7 13/6/7 8/11/7
f 10/14/12 9/13/12 14/20/12
f 14/20/13 15/21/13 10/14/13
f 9/13/14 11/15/14 16/22/14
f 16/22/15 14/20/15 9/13/15
f 10/17/5 15/23/5 17/24/5 12/18/5
f 13/18/6 18/24/6 16/23/6 11/17/6
f 12/10/7 17/4/7 18/6/7 13/11/7
f 15/21/16 14/20/16 19/25/16
f 19/25/17 20/26/17 15/21/17
f 14/20/18 16/22/18 21/27/18
f 21/27/19 19/25/19 14/20/19
f 15/23/5 20/28/5 22/29/5 17/24/5
f 18/24/6 23/29/6 21/28/6 16/23/6
f 17/10/7 22/4/7 23/6/7 18/11/7
f 20/26/20 19/25/20 24/30/20
f 24/30/21 25/31/21 20/26/21
f 19/25/22 21/27/22 26/32/22
f 26/32/23 24/30/23 19/25/23
f 20/28/5 25/33/5 27/34/5 22/29/5
f 23/29/6 28/34/6 26/33/6 21/28/6
f 22/10/7 27/4/7 28/6/7 23/11/7
f 25/31/24 24/30/24 29/35/24
f 29/35/25 30/36/25 25/31/25
f 24/30/26 26/32/26 31/37/26
f 31/37/27 29/35/27 24/30/27
f 25/33/5 30/38/5 32/39/5 27/34/5
f 28/34/6 33/39/6 31/38/6 26/33/6
f 27/10/7 32/4/7 33/6/7 28/11/7
f 30/36/28 29/35/28 34/40/28
f 34/40/29 35/41/29 30/36/29
f 29/35/30 31/37/30 36/42/30
f 36/42/31 34/40/31 29/35/31
f 30/38/5 35/43/5 37/44/5 32/39/5
f 33/39/6 38/44/6 36/43/6 31/38/6
f 32/10/7 37/4/7 38/6/7 33/11/7
f 35/41/32 34/40/32 39/45/32
f 39/45/33 40/46/33 35/41/33
f 34/40/34 36/42/34 41/47/34
f 41/47/35 39/45/35 34/40/35
f 37/44/5 35/43/5 42/48/5
f 37/44/5 42/48/5 43/47/5
f 43/47/5 44/49/5 37/44/5
f 42/50/5 40/51/5 43/46/5
f 36/43/6 38/44/6 45/49/6
f 36/43/6 45/49/6 46/47/6
f 46/47/6 47/48/6 36/43/6
f 46/46/6 41/51/6 47/50/6
f 37/10/7 44/4/7 45/6/7 38/11/7
f 40/46/36 39/45/36 48/52/36
f 48/52/37 49/53/37 40/46/37
f 39/45/38 41/47/38 50/54/38
f 50/54/39 48/52/39 39/45/39
f 43/47/5 51/54/5 52/55/5 44/49/5
f 43/46/5 40/51/5 49/56/5 51/53/5
f 45/49/6 53/55/6 54/54/6 46/47/6
f 54/53/6 50/56/6 41/51/6 46/46/6
f 44/10/7 52/4/7 53/6/7 45/11/7
f 48/52/40 55/3/40 56/4/40 49/53/40
f 50/54/41 57/6/41 55/3/41 48/52/41
f 51/54/5 58/6/5 59/9/5 52/55/5
f 51/53/5 49/56/5 56/57/5 58/4/5
f 53/55/6 60/9/6 61/6/6 54/54/6
f 61/4/6 57/57/6 50/56/6 54/53/6
f 52/10/7 59/4/7 60/6/7 53/11/7
f 55/12/42 62/3/42 63/4/42 56/10/42
f 57/11/43 64/6/43 62/3/43 55/12/43
f 58/11/5 65/6/5 66/9/5 59/19/5
f 58/10/5 56/58/5 63/57/5 65/4/5
f 60/19/6 67/9/6 68/6/6 61/11/6
f 68/4/6 64/57/6 57/58/6 61/10/6
f 59/10/7 66/4/7 67/6/7 60/11/7
f 62/12/42 69/3/42 70/4/42 63/10/42
f 64/11/43 71/6/43 69/3/43 62/12/43
f 65/11/5 72/6/5 73/9/5 66/19/5
f 65/10/5 63/58/5 70/57/5 72/4/5
f 67/19/6 74/9/6 75/6/6 68/11/6
f 75/4/6 71/57/6 64/58/6 68/10/6
f 66/10/7 73/4/7 74/6/7 67/11/7
f 69/12/42 76/3/42 77/4/42 70/10/42
f 71/11/43 78/6/43 76/3/43 69/12/43
f 72/11/5 79/6/5 80/9/5 73/19/5
f 72/10/5 70/58/5 77/57/5 79/4/5
f 74/19/6 81/9/6 82/6/6 75/11/6
f 82/4/6 78/57/6 71/58/6 75/10/6
f 73/10/7 80/4/7 81/6/7 74/11/7
f 76/12/42 83/3/42 84/4/42 77/10/42
f 78/11/43 85/6/43 83/3/43 76/12/43
f 79/11/5 86/6/5 87/9/5 80/19/5
f 79/10/5 77/58/5 84/57/5 86/4/5
f 81/19/6 88/9/6 89/6/6 82/11/6
f 89/4/6 85/57/6 78/58/6 82/10/6
f 80/10/7 87/4/7 88/6/7 81/11/7
f 83/12/44 90/59/44 91/60/44 84/10/44
f 85/11/45 92/61/45 90/59/45 83/12/45
f 86/11/5 93/61/5 94/62/5 87/19/5
f 86/10/5 84/58/5 91/63/5 93/60/5
f 88/19/6 95/62/6 96/61/6 89/11/6
f 96/60/6 92/63/6 85/58/6 89/10/6
f 87/10/7 94/4/7 95/6/7 88/11/7
f 91/60/46 90/59/46 97/64/46
f 97/64/47 98/65/47 91/60/47
f 90/59/48 92/61/48 99/66/48
f 99/66/49 97/64/49 90/59/49
f 93/61/5 100/66/5 101/67/5 94/62/5
f 93/60/5 91/63/5 98/68/5 100/65/5
f 95/62/6 102/67/6 103/66/6 96/61/6
f 103/65/6 99/68/6 92/63/6 96/60/6
f 94/10/7 101/4/7 102/6/7 95/11/7
f 98/65/50 97/64/50 104/69/50
f 104/69/51 105/70/51 98/65/51
f 97/64/52 99/66/52 106/71/52
f 106/71/53 104/69/53 97/64/53
f 101/67/5 100/66/5 107/72/5
f 101/67/5 107/72/5 105/73/5
f 105/73/5 108/74/5 101/67/5
f 100/65/5 98/68/5 107/75/5
f 103/66/6 102/67/6 109/74/6
f 103/66/6 109/74/6 106/73/6
f 106/73/6 110/72/6 103/66/6
f 110/75/6 99/68/6 103/65/6
f 101/10/7 108/4/7 109/6/7 102/11/7
f 105/70/54 104/69/54 111/76/54
f 111/76/55 112/77/55 105/70/55
f 104/69/56 106/71/56 113/78/56
f 113/78/57 111/76/57 104/69/57
f 105/73/5 112/79/5 114/80/5 108/74/5
f 109/74/6 115/80/6 113/79/6 106/73/6
f 108/10/7 114/4/7 115/6/7 109/11/7
f 112/77/58 111/76/58 116/81/58
f 116/81/59 117/82/59 112/77/59
f 111/76/60 113/78/60 118/83/60
f 118/83/61 116/81/61 111/76/61
f 112/79/5 117/84/5 119/85/5 114/80/5
f 115/80/6 120/85/6 118/84/6 113/79/6
f 114/10/7 119/4/7 120/6/7 115/11/7
f 117/82/62 116/81/62 121/86/62
f 121/86/63 122/87/63 117/82/63
f 116/81/64 118/83/64 123/88/64
f 123/88/65 121/86/65 116/81/65
f 117/84/5 122/89/5 124/90/5 119/85/5
f 120/85/6 125/90/6 123/89/6 118/84/6
f 119/10/7 124/4/7 125/6/7 120/11/7
f 122/87/66 121/86/66 126/91/66
f 126/91/67 127/92/67 122/87/67
f 121/86/68 123/88/68 128/93/68
f 128/93/69 126/91/69 121/86/69
f 122/89/5 127/94/5 129/95/5 124/90/5
f 125/90/6 130/95/6 128/94/6 123/89/6
f 124/10/7 129/4/7 130/6/7 125/11/7
f 127/92/70 126/91/70 131/96/70
f 131/96/71 132/97/71 127/92/71
f 126/91/72 128/93/72 133/98/72
f 133/98/73 131/96/73 126/91/73
f 127/94/5 132/99/5 134/100/5 129/95/5
f 130/95/6 135/100/6 133/99/6 128/94/6
f 129/10/7 134/4/7 135/6/7 130/11/7
f 132/97/74 131/96/74 136/3/74
f 136/3/75 137/4/75 132/97/75
f 131/96/76 133/98/76 138/6/76
f 138/6/77 136/3/77 131/96/77
f 132/99/5 137/8/5 139/9/5 134/100/5
f 135/100/6 140/9/6 138/8/6 133/99/6
f 134/10/7 139/4/7 140/6/7 135/11/7
f 137/10/78 136/12/78 141/101/78
f 141/101/79 142/102/79 137/10/79
f 136/12/80 138/11/80 143/103/80
f 143/103/81 141/101/81 136/12/81
f 137/16/5 142/104/5 139/19/5
f 140/19/6 143/104/6 138/16/6
f 139/10/7 142/4/7 143/6/7 140/11/7
g sleeper
usemtl mat
f 144/105/7 145/106/7 146/107/7 147/108/7
f 147/109/82 146/110/82 148/111/82 149/112/82
f 149/113/83 148/114/83 150/115/83 151/116/83
f 151/116/84 150/115/84 152/117/84 153/118/84
f 153/118/85 152/117/85 154/119/85 155/120/85
f 155/112/86 154/111/86 145/110/86 144/109/86
f 145/121/7 156/122/7 157/123/7 146/124/7
f 146/125/87 157/126/87 158/127/87 148/128/87
f 148/129/88 158/130/88 159/131/88 150/132/88
f 150/132/84 159/131/84 160/133/84 152/134/84
f 152/134/89 160/133/89 161/135/89 154/136/89
f 154/128/90 161/127/90 156/126/90 145/125/90
f 156/122/7 162/106/7 163/107/7 157/123/7
f 157/126/87 163/110/87 164/111/87 158/127/87
f 158/130/88 164/114/88 165/115/88 159/131/88
f 159/131/84 165/115/84 166/117/84 160/133/84
f 160/133/89 166/117/89 167/119/89 161/135/89
f 161/127/90 167/111/90 162/110/90 156/126/90
f 162/121/7 168/137/7 169/138/7 163/124/7
f 163/125/87 169/139/87 170/140/87 164/128/87
f 164/129/88 170/141/88 171/142/88 165/132/88
f 165/132/84 171/142/84 172/143/84 166/134/84
f 166/134/89 172/143/89 173/144/89 167/136/89
f 167/128/90 173/140/90 168/139/90 162/125/90
f 168/137/7 174/106/7 175/107/7 169/138/7
f 169/139/87 175/110/87 176/111/87 170/140/87
f 170/141/88 176/114/88 177/115/88 171/142/88
f 171/142/84 177/115/84 178/117/84 172/143/84
f 172/143/89 178/117/89 179/119/89 173/144/89
f 173/140/90 179/111/90 174/110/90 168/139/90
f 174/121/7 180/145/7 181/146/7 175/124/7
f 175/125/87 181/147/87 182/148/87 176/128/87
f 176/129/88 182/149/88 183/150/88 177/132/88
f 177/132/84 183/150/84 184/151/84 178/134/84
f 178/134/89 184/151/89 185/152/89 179/136/89
f 179/128/90 185/148/90 180/147/90 174/125/90
f 180/145/7 186/106/7 187/107/7 181/146/7
f 181/147/87 187/110/87 188/111/87 182/148/87
f 182/149/88 188/114/88 189/115/88 183/150/88
f 183/150/84 189/115/84 190/117/84 184/151/84
f 184/151/89 190/117/89 191/119/89 185/152/89
f 185/148/90 191/111/90 186/110/90 180/147/90
f 186/121/7 192/153/7 193/154/7 187/124/7
f 187/125/87 193/155/87 194/156/87 188/128/87
f 188/129/88 194/157/88 195/158/88 189/132/88
f 189/132/84 195/158/84 196/159/84 190/134/84
f 190/134/89 196/159/89 197/160/89 191/136/89
f 191/128/90 197/156/90 192/155/90 186/125/90
f 192/153/7 198/106/7 199/107/7 193/154/7
f 193/155/87 199/110/87 200/111/87 194/156/87
f 194/157/88 200/114/88 201/115/88 195/158/88
f 195/158/84 201/115/84 202/117/84 196/159/84
f 196/159/89 202/117/89 203/119/89 197/160/89
f 197/156/90 203/111/90 198/110/90 192/155/90
f 198/121/7 204/161/7 205/162/7 199/124/7
f 199/125/91 205/163/91 206/164/91 200/128/91
f 200/129/92 206/165/92 207/166/92 201/132/92
f 201/132/84 207/166/84 208/167/84 202/134/84
f 202/134/93 208/167/93 209/168/93 203/136/93
f 203/128/94 209/164/94 204/163/94 198/125/94
f 155/169/95 144/170/95 147/171/95
f 155/169/95 147/171/95 149/172/95
f 155/169/95 149/172/95 151/173/95
f 151/173/95 153/174/95 155/169/95
f 204/170/96 209/169/96 208/174/96
f 204/170/96 208/174/96 207/173/96
f 204/170/96 207/173/96 206/172/96
f 206/172/96 205/171/96 204/170/96
g fastener_left
usemtl mat
f 210/175/7 211/176/7 212/177/7 213/178/7
f 214/178/5 215/177/5 211/176/5 210/175/5
f 215/178/96 216/177/96 212/176/96 211/175/96
f 216/178/6 217/177/6 213/176/6 212/175/6
f 217/178/95 214/177/95 210/176/95 213/175/95
f 218/179/84 219/180/84 220/181/84 221/182/84
f 221/179/5 220/180/5 222/181/5 223/182/5
f 220/179/96 219/180/96 224/181/96 222/182/96
f 219/179/6 218/180/6 225/181/6 224/182/6
f 218/179/95 221/180/95 223/181/95 225/182/95
f 226/183/84 227/184/84 228/185/84 229/186/84
f 229/183/5 228/184/5 230/185/5 231/186/5
f 228/183/96 227/184/96 232/185/96 230/186/96
f 227/183/6 226/184/6 233/185/6 232/186/6
f 226/183/95 229/184/95 231/185/95 233/186/95
f 234/186/7 235/185/7 236/184/7 237/183/7
f 238/183/84 239/184/84 240/185/84 241/186/84
f 241/183/5 240/184/5 235/185/5 234/186/5
f 240/183/96 239/184/96 236/185/96 235/186/96
f 239/183/6 238/184/6 237/185/6 236/186/6
f 238/183/95 241/184/95 234/185/95 237/186/95
f 242/175/7 243/176/7 244/177/7 245/178/7
f 246/178/84 247/177/84 248/176/84 249/175/84
f 249/178/5 248/177/5 243/176/5 242/175/5
f 248/178/96 247/177/96 244/176/96 243/175/96
f 247/178/6 246/177/6 245/176/6 244/175/6
f 246/178/95 249/177/95 242/176/95 245/175/95
f 250/186/7 251/185/7 252/184/7 253/183/7
f 254/183/84 255/184/84 256/185/84 257/186/84
f 257/183/5 256/184/5 251/185/5 250/186/5
f 256/183/96 255/184/96 252/185/96 251/186/96
f 255/183/6 254/184/6 253/185/6 252/186/6
f 254/183/95 257/184/95 250/185/95 253/186/95
f 258/175/7 259/176/7 260/177/7 261/178/7
f 262/178/84 263/177/84 264/176/84 265/175/84
f 265/178/5 264/177/5 259/176/5 258/175/5
f 264/178/96 263/177/96 260/176/96 259/175/96
f 263/178/6 262/177/6 261/176/6 260/175/6
f 262/178/95 265/177/95 258/176/95 261/175/95
g rail_left
usemtl mat
f 266/187/96 267/188/96 268/189/96 269/190/96
f 267/188/97 270/191/97 271/192/97 268/189/97
f 270/191/98 272/193/98 273/194/98 271/192/98
f 272/193/99 274/195/99 275/196/99 273/194/99
f 274/195/100 276/197/100 277/198/100 275/196/100
f 276/197/96 278/199/96 279/200/96 277/198/96
f 278/199/101 280/201/101 281/202/101 279/200/101
f 280/201/102 282/203/102 283/204/102 281/202/102
f 282/203/103 284/205/103 285/206/103 283/204/103
f 284/205/104 286/207/104 287/208/104 285/206/104
f 286/207/96 288/209/96 289/210/96 287/208/96
f 288/209/105 290/211/105 291/212/105 289/210/105
f 290/213/106 292/214/106 293/215/106 291/216/106
f 292/214/84 294/217/84 295/218/84 293/215/84
f 294/217/107 296/219/107 297/220/107 295/218/107
f 296/211/108 298/209/108 299/210/108 297/212/108
f 298/209/95 300/207/95 301/208/95 299/210/95
f 300/207/109 302/205/109 303/206/109 301/208/109
f 302/205/110 304/203/110 305/204/110 303/206/110
f 304/203/111 306/201/111 307/202/111 305/204/111
f 306/201/112 308/199/112 309/200/112 307/202/112
f 308/199/95 310/197/95 311/198/95 309/200/95
f 310/197/113 312/195/113 313/196/113 311/198/113
f 312/195/114 314/193/114 315/194/114 313/196/114
f 314/193/115 316/191/115 317/192/115 315/194/115
f 316/191/116 318/188/116 319/189/116 317/192/116
f 318/188/95 320/187/95 321/190/95 319/189/95
f 320/187/7 266/221/7 269/222/7 321/190/7
g rail_left_end
usemtl mat
f 266/223/5 320/224/5 318/225/5
f 266/223/5 318/225/5 316/226/5
f 266/223/5 316/226/5 314/227/5
f 266/223/5 314/227/5 312/228/5
f 306/229/5 304/230/5 302/231/5
f 306/229/5 302/231/5 300/232/5
f 306/229/5 300/232/5 298/233/5
f 306/229/5 298/233/5 296/234/5
f 306/229/5 296/234/5 294/235/5
f 308/236/5 306/229/5 294/235/5
f 308/236/5 294/235/5 292/237/5
f 308/236/5 292/237/5 290/238/5
f 308/236/5 290/238/5 288/239/5
f 308/236/5 288/239/5 286/240/5
f 308/236/5 286/240/5 284/241/5
f 284/241/5 282/242/5 280/243/5
f 308/236/5 284/241/5 280/243/5
f 308/236/5 280/243/5 278/244/5
f 310/245/5 308/236/5 278/244/5
f 312/228/5 310/245/5 278/244/5
f 312/228/5 278/244/5 276/246/5
f 312/228/5 276/246/5 274/247/5
f 312/228/5 274/247/5 272/248/5
f 266/223/5 312/228/5 272/248/5
f 266/223/5 272/248/5 270/249/5
f 270/249/5 267/250/5 266/223/5
f 321/224/6 269/223/6 268/250/6
f 321/224/6 268/250/6 271/249/6
f 321/224/6 271/249/6 273/248/6
f 321/224/6 273/248/6 275/247/6
f 281/243/6 283/242/6 285/241/6
f 281/243/6 285/241/6 287/240/6
f 281/243/6 287/240/6 289/239/6
f 281/243/6 289/239/6 291/238/6
f 281/243/6 291/238/6 293/237/6
f 279/244/6 281/243/6 293/237/6
f 279/244/6 293/237/6 295/235/6
f 279/244/6 295/235/6 297/234/6
f 279/244/6 297/234/6 299/233/6
f 279/244/6 299/233/6 301/232/6
f 279/244/6 301/232/6 303/231/6
f 303/231/6 305/230/6 307/229/6
f 279/244/6 303/231/6 307/229/6
f 279/244/6 307/229/6 309/236/6
f 277/246/6 279/244/6 309/236/6
f 275/247/6 277/246/6 309/236/6
f 275/247/6 309/236/6 311/245/6
f 275/247/6 311/245/6 313/228/6
f 275/247/6 313/228/6 315/227/6
f 321/224/6 275/247/6 315/227/6
f 321/224/6 315/227/6 317/226/6
f 317/226/6 319/225/6 321/224/6
g fastener_right
usemtl mat
f 322/175/7 323/176/7 324/177/7 325/178/7
f 326/178/5 327/177/5 323/176/5 322/175/5
f 327/178/96 328/177/96 324/176/96 323/175/96
f 328/178/6 329/177/6 325/176/6 324/175/6
f 329/178/95 326/177/95 322/176/95 325/175/95
f 330/179/84 331/180/84 332/181/84 333/182/84
f 333/179/5 332/180/5 334/181/5 335/182/5
f 332/179/96 331/180/96 336/181/96 334/182/96
f 331/179/6 330/180/6 337/181/6 336/182/6
f 330/179/95 333/180/95 335/181/95 337/182/95
f 338/183/84 339/184/84 340/185/84 341/186/84
f 341/183/5 340/184/5 342/185/5 343/186/5
f 340/183/96 339/184/96 344/185/96 342/186/96
f 339/183/6 338/184/6 345/185/6 344/186/6
f 338/183/95 341/184/95 343/185/95 345/186/95
f 346/186/7 347/185/7 348/184/7 349/183/7
f 350/183/84 351/184/84 352/185/84 353/186/84
f 353/183/5 352/184/5 347/185/5 346/186/5
f 352/183/96 351/184/96 348/185/96 347/186/96
f 351/183/6 350/184/6 349/185/6 348/186/6
f 350/183/95 353/184/95 346/185/95 349/186/95
f 354/175/7 355/176/7 356/177/7 357/178/7
f 358/178/84 359/177/84 360/176/84 361/175/84
f 361/178/5 360/177/5 355/176/5 354/175/5
f 360/178/96 359/177/96 356/176/96 355/175/96
f 359/178/6 358/177/6 357/176/6 356/175/6
f 358/178/95 361/177/95 354/176/95 357/175/95
f 362/186/7 363/185/7 364/184/7 365/183/7
f 366/183/84 367/184/84 368/185/84 369/186/84
f 369/183/5 368/184/5 363/185/5 362/186/5
f 368/183/96 367/184/96 364/185/96 363/186/96
f 367/183/6 366/184/6 365/185/6 364/186/6
f 366/183/95 369/184/95 362/185/95 365/186/95
f 370/175/7 371/176/7 372/177/7 373/178/7
f 374/178/84 375/177/84 376/176/84 377/175/84
f 377/178/5 376/177/5 371/176/5 370/175/5
f 376/178/96 375/177/96 372/176/96 371/175/96
f 375/178/6 374/177/6 373/176/6 372/175/6
f 374/178/95 377/177/95 370/176/95 373/175/95
g rail_right
usemtl mat
f 378/187/96 379/188/96 380/189/96 381/190/96
f 379/188/97 382/191/97 383/192/97 380/189/97
f 382/191/98 384/193/98 385/194/98 383/192/98
f 384/193/99 386/195/99 387/196/99 385/194/99
f 386/195/100 388/197/100 389/198/100 387/196/100
f 388/197/96 390/199/96 391/200/96 389/198/96
f 390/199/101 392/201/101 393/202/101 391/200/101
f 392/201/102 394/203/102 395/204/102 393/202/102
f 394/203/103 396/205/103 397/206/103 395/204/103
f 396/205/104 398/207/104 399/208/104 397/206/104
f 398/207/96 400/209/96 401/210/96 399/208/96
f 400/209/105 402/211/105 403/212/105 401/210/105
f 402/213/106 404/214/106 405/215/106 403/216/106
f 404/214/84 406/217/84 407/218/84 405/215/84
f 406/217/107 408/219/107 409/220/107 407/218/107
f 408/211/108 410/209/108 411/210/108 409/212/108
f 410/209/95 412/207/95 413/208/95 411/210/95
f 412/207/109 414/205/109 415/206/109 413/208/109
f 414/205/110 416/203/110 417/204/110 415/206/110
f 416/203/111 418/201/111 419/202/111 417/204/111
f 418/201/112 420/199/112 421/200/112 419/202/112
f 420/199/95 422/197/95 423/198/95 421/200/95
f 422/197/113 424/195/113 425/196/113 423/198/113
f 424/195/114 426/193/114 427/194/114 425/196/114
f 426/193/115 428/191/115 429/192/115 427/194/115
f 428/191/116 430/188/116 431/189/116 429/192/116
f 430/188/95 432/187/95 433/190/95 431/189/95
f 432/187/7 378/221/7 381/222/7 433/190/7
g rail_right_end
usemtl mat
f 378/223/5 432/224/5 430/225/5
f 378/223/5 430/225/5 428/226/5
f 378/223/5 428/226/5 426/227/5
f 378/223/5 426/227/5 424/228/5
f 418/229/5 416/230/5 414/231/5
f 418/229/5 414/231/5 412/232/5
f 418/229/5 412/232/5 410/233/5
f 418/229/5 410/233/5 408/234/5
f 418/229/5 408/234/5 406/235/5
f 420/236/5 418/229/5 406/235/5
f 420/236/5 406/235/5 404/237/5
f 420/236/5 404/237/5 402/238/5
f 420/236/5 402/238/5 400/239/5
f 420/236/5 400/239/5 398/240/5
f 420/236/5 398/240/5 396/241/5
f 396/241/5 394/242/5 392/243/5
f 420/236/5 396/241/5 392/243/5
f 420/236/5 392/243/5 390/244/5
f 422/245/5 420/236/5 390/244/5
f 424/228/5 422/245/5 390/244/5
f 424/228/5 390/244/5 388/246/5
f 424/228/5 388/246/5 386/247/5
f 424/228/5 386/247/5 384/248/5
f 378/223/5 424/228/5 384/248/5
f 378/223/5 384/248/5 382/249/5
f 382/249/5 379/250/5 378/223/5
f 433/224/6 381/223/6 380/250/6
f 433/224/6 380/250/6 383/249/6
f 433/224/6 383/249/6 385/248/6
f 433/224/6 385/248/6 387/247/6
f 393/243/6 395/242/6 397/241/6
f 393/243/6 397/241/6 399/240/6
f 393/243/6 399/240/6 401/239/6
f 393/243/6 401/239/6 403/238/6
f 393/243/6 403/238/6 405/237/6
f 391/244/6 393/243/6 405/237/6
f 391/244/6 405/237/6 407/235/6
f 391/244/6 407/235/6 409/234/6
f 391/244/6 409/234/6 411/233/6
f 391/244/6 411/233/6 413/232/6
f 391/244/6 413/232/6 415/231/6
f 415/231/6 417/230/6 419/229/6
f 391/244/6 415/231/6 419/229/6
f 391/244/6 419/229/6 421/236/6
f 389/246/6 391/244/6 421/236/6
f 387/247/6 389/246/6 421/236/6
f 387/247/6 421/236/6 423/245/6
f 387/247/6 423/245/6 425/228/6
f 387/247/6 425/228/6 427/227/6
f 433/224/6 387/247/6 427/227/6
f 433/224/6 427/227/6 429/226/6
f 429/226/6 431/225/6 433/224/6
g center_fastener_left
usemtl mat
f 434/251/7 435/252/7 436/253/7
f 434/251/7 436/253/7 437/254/7
f 434/251/7 437/254/7 438/255/7
f 434/251/7 438/255/7 439/256/7
f 434/251/7 439/256/7 440/257/7
f 440/257/7 441/258/7 434/251/7
f 442/252/84 443/251/84 444/258/84
f 442/252/84 444/258/84 445/257/84
f 442/252/84 445/257/84 446/256/84
f 442/252/84 446/256/84 447/255/84
f 442/252/84 447/255/84 448/254/84
f 448/254/84 449/253/84 442/252/84
f 442/183/5 449/184/5 436/185/5 435/186/5
f 449/183/117 448/184/117 437/185/117 436/186/117
f 448/183/96 447/184/96 438/185/96 437/186/96
f 447/183/118 446/184/118 439/185/118 438/186/118
f 446/183/6 445/184/6 440/185/6 439/186/6
f 445/183/119 444/184/119 441/185/119 440/186/119
f 444/183/95 443/184/95 434/185/95 441/186/95
f 443/183/120 442/184/120 435/185/120 434/186/120
f 450/259/84 451/260/84 452/261/84
f 450/259/84 452/261/84 453/262/84
f 450/259/84 453/262/84 454/263/84
f 450/259/84 454/263/84 455/264/84
f 450/259/84 455/264/84 456/265/84
f 456/265/84 457/266/84 450/259/84
f 450/179/5 457/180/5 458/181/5 459/182/5
f 457/179/117 456/180/117 460/181/117 458/182/117
f 456/179/96 455/180/96 461/181/96 460/182/96
f 455/179/118 454/180/118 462/181/118 461/182/118
f 454/179/6 453/180/6 463/181/6 462/182/6
f 453/179/119 452/180/119 464/181/119 463/182/119
f 452/179/95 451/180/95 465/181/95 464/182/95
f 451/179/120 450/180/120 459/181/120 465/182/120
f 466/267/7 467/268/7 468/269/7
f 466/267/7 468/269/7 469/270/7
f 466/267/7 469/270/7 470/271/7
f 466/267/7 470/271/7 471/272/7
f 466/267/7 471/272/7 472/273/7
f 472/273/7 473/274/7 466/267/7
f 474/268/84 475/267/84 476/274/84
f 474/268/84 476/274/84 477/273/84
f 474/268/84 477/273/84 478/272/84
f 474/268/84 478/272/84 479/271/84
f 474/268/84 479/271/84 480/270/84
f 480/270/84 481/269/84 474/268/84
f 474/183/5 481/184/5 468/185/5 467/186/5
f 481/183/117 480/184/117 469/185/117 468/186/117
f 480/183/96 479/184/96 470/185/96 469/186/96
f 479/183/118 478/184/118 471/185/118 470/186/118
f 478/183/6 477/184/6 472/185/6 471/186/6
f 477/183/119 476/184/119 473/185/119 472/186/119
f 476/183/95 475/184/95 466/185/95 473/186/95
f 475/183/120 474/184/120 467/185/120 466/186/120
f 482/267/7 483/268/7 484/269/7
f 482/267/7 484/269/7 485/270/7
f 482/267/7 485/270/7 486/271/7
f 482/267/7 486/271/7 487/272/7
f 482/267/7 487/272/7 488/273/7
f 488/273/7 489/274/7 482/267/7
f 490/268/84 491/267/84 492/274/84
f 490/268/84 492/274/84 493/273/84
f 490/268/84 493/273/84 494/272/84
f 490/268/84 494/272/84 495/271/84
f 490/268/84 495/271/84 496/270/84
f 496/270/84 497/269/84 490/268/84
f 490/183/5 497/184/5 484/185/5 483/186/5
f 497/183/117 496/184/117 485/185/117 484/186/117
f 496/183/96 495/184/96 486/185/96 485/186/96
f 495/183/118 494/184/118 487/185/118 486/186/118
f 494/183/6 493/184/6 488/185/6 487/186/6
f 493/183/119 492/184/119 489/185/119 488/186/119
f 492/183/95 491/184/95 482/185/95 489/186/95
f 491/183/120 490/184/120 483/185/120 482/186/120
g center_guard_left
usemtl mat
f 498/187/96 499/188/96 500/189/96 501/190/96
f 499/188/97 502/191/97 503/192/97 500/189/97
f 502/191/98 504/193/98 505/194/98 503/192/98
f 504/193/99 506/195/99 507/196/99 505/194/99
f 506/195/100 508/197/100 509/198/100 507/196/100
f 508/197/96 510/199/96 511/200/96 509/198/96
f 510/199/101 512/201/101 513/202/101 511/200/101
f 512/201/102 514/203/102 515/204/102 513/202/102
f 514/203/103 516/205/103 517/206/103 515/204/103
f 516/205/104 518/207/104 519/208/104 517/206/104
f 518/207/96 520/209/96 521/210/96 519/208/96
f 520/209/105 522/211/105 523/212/105 521/210/105
f 522/211/106 524/275/106 525/276/106 523/212/106
f 524/187/84 526/221/84 527/222/84 525/190/84
f 526/275/107 528/211/107 529/212/107 527/276/107
f 528/211/108 530/209/108 531/210/108 529/212/108
f 530/209/95 532/207/95 533/208/95 531/210/95
f 532/207/109 534/205/109 535/206/109 533/208/109
f 534/205/110 536/203/110 537/204/110 535/206/110
f 536/203/111 538/201/111 539/202/111 537/204/111
f 538/201/112 540/199/112 541/200/112 539/202/112
f 540/199/95 542/197/95 543/198/95 541/200/95
f 542/197/113 544/195/113 545/196/113 543/198/113
f 544/195/114 546/193/114 547/194/114 545/196/114
f 546/193/115 548/191/115 549/192/115 547/194/115
f 548/191/116 550/188/116 551/189/116 549/192/116
f 550/188/95 552/187/95 553/190/95 551/189/95
f 552/187/7 498/221/7 501/222/7 553/190/7
g center_fastener_right
usemtl mat
f 554/251/7 555/252/7 556/253/7
f 554/251/7 556/253/7 557/254/7
f 554/251/7 557/254/7 558/255/7
f 554/251/7 558/255/7 559/256/7
f 554/251/7 559/256/7 560/257/7
f 560/257/7 561/258/7 554/251/7
f 562/252/84 563/251/84 564/258/84
f 562/252/84 564/258/84 565/257/84
f 562/252/84 565/257/84 566/256/84
f 562/252/84 566/256/84 567/255/84
f 562/252/84 567/255/84 568/254/84
f 568/254/84 569/253/84 562/252/84
f 562/183/5 569/184/5 556/185/5 555/186/5
f 569/183/117 568/184/117 557/185/117 556/186/117
f 568/183/96 567/184/96 558/185/96 557/186/96
f 567/183/118 566/184/118 559/185/118 558/186/118
f 566/183/6 565/184/6 560/185/6 559/186/6
f 565/183/119 564/184/119 561/185/119 560/186/119
f 564/183/95 563/184/95 554/185/95 561/186/95
f 563/183/120 562/184/120 555/185/120 554/186/120
f 570/259/84 571/260/84 572/261/84
f 570/259/84 572/261/84 573/262/84
f 570/259/84 573/262/84 574/263/84
f 570/259/84 574/263/84 575/264/84
f 570/259/84 575/264/84 576/265/84
f 576/265/84 577/266/84 570/259/84
f 570/179/5 577/180/5 578/181/5 579/182/5
f 577/179/117 576/180/117 580/181/117 578/182/117
f 576/179/96 575/180/96 581/181/96 580/182/96
f 575/179/118 574/180/118 582/181/118 581/182/118
f 574/179/6 573/180/6 583/181/6 582/182/6
f 573/179/119 572/180/119 584/181/119 583/182/119
f 572/179/95 571/180/95 585/181/95 584/182/95
f 571/179/120 570/180/120 579/181/120 585/182/120
f 586/267/7 587/268/7 588/269/7
f 586/267/7 588/269/7 589/270/7
f 586/267/7 589/270/7 590/271/7
f 586/267/7 590/271/7 591/272/7
f 586/267/7 591/272/7 592/273/7
f 592/273/7 593/274/7 586/267/7
f 594/268/84 595/267/84 596/274/84
f 594/268/84 596/274/84 597/273/84
f 594/268/84 597/273/84 598/272/84
f 594/268/84 598/272/84 599/271/84
f 594/268/84 599/271/84 600/270/84
f 600/270/84 601/269/84 594/268/84
f 594/183/5 601/184/5 588/185/5 587/186/5
f 601/183/117 600/184/117 589/185/117 588/186/117
f 600/183/96 599/184/96 590/185/96 589/186/96
f 599/183/118 598/184/118 591/185/118 590/186/118
f 598/183/6 597/184/6 592/185/6 591/186/6
f 597/183/119 596/184/119 593/185/119 592/186/119
f 596/183/95 595/184/95 586/185/95 593/186/95
f 595/183/120 594/184/120 587/185/120 586/186/120
f 602/267/7 603/268/7 604/269/7
f 602/267/7 604/269/7 605/270/7
f 602/267/7 605/270/7 606/271/7
f 602/267/7 606/271/7 607/272/7
f 602/267/7 607/272/7 608/273/7
f 608/273/7 609/274/7 602/267/7
f 610/268/84 611/267/84 612/274/84
f 610/268/84 612/274/84 613/273/84
f 610/268/84 613/273/84 614/272/84
f 610/268/84 614/272/84 615/271/84
f 610/268/84 615/271/84 616/270/84
f 616/270/84 617/269/84 610/268/84
f 610/183/5 617/184/5 604/185/5 603/186/5
f 617/183/117 616/184/117 605/185/117 604/186/117
f 616/183/96 615/184/96 606/185/96 605/186/96
f 615/183/118 614/184/118 607/185/118 606/186/118
f 614/183/6 613/184/6 608/185/6 607/186/6
f 613/183/119 612/184/119 609/185/119 608/186/119
f 612/183/95 611/184/95 602/185/95 609/186/95
f 611/183/120 610/184/120 603/185/120 602/186/120
g center_guard_right
usemtl mat
f 618/187/96 619/188/96 620/189/96 621/190/96
f 619/188/97 622/191/97 623/192/97 620/189/97
f 622/191/98 624/193/98 625/194/98 623/192/98
f 624/193/99 626/195/99 627/196/99 625/194/99
f 626/195/100 628/197/100 629/198/100 627/196/100
f 628/197/96 630/199/96 631/200/96 629/198/96
f 630/199/101 632/201/101 633/202/101 631/200/101
f 632/201/102 634/203/102 635/204/102 633/202/102
f 634/203/103 636/205/103 637/206/103 635/204/103
f 636/205/104 638/207/104 639/208/104 637/206/104
f 638/207/96 640/209/96 641/210/96 639/208/96
f 640/209/105 642/211/105 643/212/105 641/210/105
f 642/211/106 644/275/106 645/276/106 643/212/106
f 644/187/84 646/221/84 647/222/84 645/190/84
f 646/275/107 648/211/107 649/212/107 647/276/107
f 648/211/108 650/209/108 651/210/108 649/212/108
f 650/209/95 652/207/95 653/208/95 651/210/95
f 652/207/109 654/205/109 655/206/109 653/208/109
f 654/205/110 656/203/110 657/204/110 655/206/110
f 656/203/111 658/201/111 659/202/111 657/204/111
f 658/201/112 660/199/112 661/200/112 659/202/112
f 660/199/95 662/197/95 663/198/95 661/200/95
f 662/197/113 664/195/113 665/196/113 663/198/113
f 664/195/114 666/193/114 667/194/114 665/196/114
f 666/193/115 668/191/115 669/192/115 667/194/115
f 668/191/116 670/188/116 671/189/116 669/192/116
f 670/188/95 672/187/95 673/190/95 671/189/95
f 672/187/7 618/221/7 621/222/7 673/190/7
