# metres; Y up; CCW outward; repeat 0.6 m
mtllib direct_mid.mtl
v -1.012500 -0.268078 -0.300000
v -0.490500 -0.268078 -0.300000
v -0.490500 -0.268078 0.300000
v -1.012500 -0.268078 0.300000
v -1.012500 0.091422 0.300000
v -0.490500 0.091422 0.300000
v -0.490500 0.091422 -0.300000
v -1.012500 0.091422 -0.300000
v 0.490500 -0.268078 -0.300000
v 1.012500 -0.268078 -0.300000
v 1.012500 -0.268078 0.300000
v 0.490500 -0.268078 0.300000
v 0.490500 0.091422 0.300000
v 1.012500 0.091422 0.300000
v 1.012500 0.091422 -0.300000
v 0.490500 0.091422 -0.300000
v -0.827500 0.085422 -0.101000
v -0.821500 0.085422 -0.107000
v -0.681500 0.085422 -0.107000
v -0.675500 0.085422 -0.101000
v -0.675500 0.085422 0.101000
v -0.681500 0.085422 0.107000
v -0.821500 0.085422 0.107000
v -0.827500 0.085422 0.101000
v -0.821500 0.095422 -0.107000
v -0.681500 0.095422 -0.107000
v -0.675500 0.095422 -0.101000
v -0.675500 0.095422 0.101000
v -0.681500 0.095422 0.107000
v -0.821500 0.095422 0.107000
v -0.827500 0.095422 0.101000
v -0.827500 0.095422 -0.101000
v -0.820500 0.099422 -0.106000
v -0.826500 0.099422 -0.100000
v -0.826500 0.099422 0.100000
v -0.820500 0.099422 0.106000
v -0.682500 0.099422 0.106000
v -0.676500 0.099422 0.100000
v -0.676500 0.099422 -0.100000
v -0.682500 0.099422 -0.106000
v -0.682500 0.095422 -0.106000
v -0.820500 0.095422 -0.106000
v -0.676500 0.095422 -0.100000
v -0.676500 0.095422 0.100000
v -0.682500 0.095422 0.106000
v -0.820500 0.095422 0.106000
v -0.826500 0.095422 0.100000
v -0.826500 0.095422 -0.100000
v -0.946500 0.085422 -0.100000
v -0.943500 0.085422 -0.103000
v -0.823500 0.085422 -0.103000
v -0.820500 0.085422 -0.100000
v -0.820500 0.085422 0.100000
v -0.823500 0.085422 0.103000
v -0.943500 0.085422 0.103000
v -0.946500 0.085422 0.100000
v -0.943500 0.095422 -0.103000
v -0.946500 0.095422 -0.100000
v -0.946500 0.095422 0.100000
v -0.943500 0.095422 0.103000
v -0.823500 0.095422 0.103000
v -0.820500 0.095422 0.100000
v -0.820500 0.095422 -0.100000
v -0.823500 0.095422 -0.103000
v -0.950500 0.095422 -0.105000
v -0.948500 0.095422 -0.107000
v -0.936500 0.095422 -0.107000
v -0.934500 0.095422 -0.105000
v -0.934500 0.095422 0.105000
v -0.936500 0.095422 0.107000
v -0.948500 0.095422 0.107000
v -0.950500 0.095422 0.105000
v -0.948500 0.126422 -0.107000
v -0.950500 0.126422 -0.105000
v -0.950500 0.126422 0.105000
v -0.948500 0.126422 0.107000
v -0.936500 0.126422 0.107000
v -0.934500 0.126422 0.105000
v -0.934500 0.126422 -0.105000
v -0.936500 0.126422 -0.107000
v -0.793500 0.119400 -0.105000
v -0.793500 0.129000 -0.105000
v -0.819500 0.123500 -0.105000
v -0.827500 0.123500 -0.105000
v -0.901500 0.109500 -0.105000
v -0.939500 0.109500 -0.105000
v -0.939500 0.095422 -0.105000
v -0.833500 0.095422 -0.105000
v -0.821500 0.108000 -0.105000
v -0.793500 0.129000 0.105000
v -0.793500 0.119400 0.105000
v -0.821500 0.108000 0.105000
v -0.833500 0.095422 0.105000
v -0.939500 0.095422 0.105000
v -0.939500 0.109500 0.105000
v -0.901500 0.109500 0.105000
v -0.827500 0.123500 0.105000
v -0.819500 0.123500 0.105000
v -0.879500 0.095422 -0.008660
v -0.874500 0.095422 0.000000
v -0.879500 0.095422 0.008660
v -0.889500 0.095422 0.008660
v -0.894500 0.095422 0.000000
v -0.889500 0.095422 -0.008660
v -0.874500 0.192000 0.000000
v -0.879500 0.192000 -0.008660
v -0.889500 0.192000 -0.008660
v -0.894500 0.192000 0.000000
v -0.889500 0.192000 0.008660
v -0.879500 0.192000 0.008660
v -0.863287 0.162000 -0.021213
v -0.854500 0.162000 0.000000
v -0.863287 0.162000 0.021213
v -0.884500 0.162000 0.030000
v -0.905713 0.162000 0.021213
v -0.914500 0.162000 0.000000
v -0.905713 0.162000 -0.021213
v -0.884500 0.162000 -0.030000
v -0.854500 0.168000 0.000000
v -0.863287 0.168000 -0.021213
v -0.884500 0.168000 -0.030000
v -0.905713 0.168000 -0.021213
v -0.914500 0.168000 0.000000
v -0.905713 0.168000 0.021213
v -0.884500 0.168000 0.030000
v -0.863287 0.168000 0.021213
v -0.874500 0.168000 -0.017321
v -0.864500 0.168000 0.000000
v -0.874500 0.168000 0.017321
v -0.894500 0.168000 0.017321
v -0.904500 0.168000 0.000000
v -0.894500 0.168000 -0.017321
v -0.864500 0.186000 0.000000
v -0.874500 0.186000 -0.017321
v -0.894500 0.186000 -0.017321
v -0.904500 0.186000 0.000000
v -0.894500 0.186000 0.017321
v -0.874500 0.186000 0.017321
v -0.875500 0.186000 -0.015588
v -0.866500 0.186000 0.000000
v -0.875500 0.186000 0.015588
v -0.893500 0.186000 0.015588
v -0.902500 0.186000 0.000000
v -0.893500 0.186000 -0.015588
v -0.866500 0.189000 0.000000
v -0.875500 0.189000 -0.015588
v -0.893500 0.189000 -0.015588
v -0.902500 0.189000 0.000000
v -0.893500 0.189000 0.015588
v -0.875500 0.189000 0.015588
v -0.682500 0.085422 -0.100000
v -0.679500 0.085422 -0.103000
v -0.559500 0.085422 -0.103000
v -0.556500 0.085422 -0.100000
v -0.556500 0.085422 0.100000
v -0.559500 0.085422 0.103000
v -0.679500 0.085422 0.103000
v -0.682500 0.085422 0.100000
v -0.679500 0.095422 -0.103000
v -0.682500 0.095422 -0.100000
v -0.682500 0.095422 0.100000
v -0.679500 0.095422 0.103000
v -0.559500 0.095422 0.103000
v -0.556500 0.095422 0.100000
v -0.556500 0.095422 -0.100000
v -0.559500 0.095422 -0.103000
v -0.568500 0.095422 -0.105000
v -0.566500 0.095422 -0.107000
v -0.554500 0.095422 -0.107000
v -0.552500 0.095422 -0.105000
v -0.552500 0.095422 0.105000
v -0.554500 0.095422 0.107000
v -0.566500 0.095422 0.107000
v -0.568500 0.095422 0.105000
v -0.566500 0.126422 -0.107000
v -0.568500 0.126422 -0.105000
v -0.568500 0.126422 0.105000
v -0.566500 0.126422 0.107000
v -0.554500 0.126422 0.107000
v -0.552500 0.126422 0.105000
v -0.552500 0.126422 -0.105000
v -0.554500 0.126422 -0.107000
v -0.709500 0.129000 -0.105000
v -0.709500 0.119400 -0.105000
v -0.681500 0.108000 -0.105000
v -0.669500 0.095422 -0.105000
v -0.563500 0.095422 -0.105000
v -0.563500 0.109500 -0.105000
v -0.601500 0.109500 -0.105000
v -0.675500 0.123500 -0.105000
v -0.683500 0.123500 -0.105000
v -0.709500 0.119400 0.105000
v -0.709500 0.129000 0.105000
v -0.683500 0.123500 0.105000
v -0.675500 0.123500 0.105000
v -0.601500 0.109500 0.105000
v -0.563500 0.109500 0.105000
v -0.563500 0.095422 0.105000
v -0.669500 0.095422 0.105000
v -0.681500 0.108000 0.105000
v -0.613500 0.095422 -0.008660
v -0.608500 0.095422 0.000000
v -0.613500 0.095422 0.008660
v -0.623500 0.095422 0.008660
v -0.628500 0.095422 0.000000
v -0.623500 0.095422 -0.008660
v -0.608500 0.192000 0.000000
v -0.613500 0.192000 -0.008660
v -0.623500 0.192000 -0.008660
v -0.628500 0.192000 0.000000
v -0.623500 0.192000 0.008660
v -0.613500 0.192000 0.008660
v -0.597287 0.162000 -0.021213
v -0.588500 0.162000 0.000000
v -0.597287 0.162000 0.021213
v -0.618500 0.162000 0.030000
v -0.639713 0.162000 0.021213
v -0.648500 0.162000 0.000000
v -0.639713 0.162000 -0.021213
v -0.618500 0.162000 -0.030000
v -0.588500 0.168000 0.000000
v -0.597287 0.168000 -0.021213
v -0.618500 0.168000 -0.030000
v -0.639713 0.168000 -0.021213
v -0.648500 0.168000 0.000000
v -0.639713 0.168000 0.021213
v -0.618500 0.168000 0.030000
v -0.597287 0.168000 0.021213
v -0.608500 0.168000 -0.017321
v -0.598500 0.168000 0.000000
v -0.608500 0.168000 0.017321
v -0.628500 0.168000 0.017321
v -0.638500 0.168000 0.000000
v -0.628500 0.168000 -0.017321
v -0.598500 0.186000 0.000000
v -0.608500 0.186000 -0.017321
v -0.628500 0.186000 -0.017321
v -0.638500 0.186000 0.000000
v -0.628500 0.186000 0.017321
v -0.608500 0.186000 0.017321
v -0.609500 0.186000 -0.015588
v -0.600500 0.186000 0.000000
v -0.609500 0.186000 0.015588
v -0.627500 0.186000 0.015588
v -0.636500 0.186000 0.000000
v -0.627500 0.186000 -0.015588
v -0.600500 0.189000 0.000000
v -0.609500 0.189000 -0.015588
v -0.627500 0.189000 -0.015588
v -0.636500 0.189000 0.000000
v -0.627500 0.189000 0.015588
v -0.609500 0.189000 0.015588
v -0.681500 0.099422 -0.300000
v -0.681500 0.108000 -0.300000
v -0.681500 0.108000 0.300000
v -0.681500 0.099422 0.300000
v -0.687500 0.113000 -0.300000
v -0.687500 0.113000 0.300000
v -0.725500 0.124000 -0.300000
v -0.725500 0.124000 0.300000
v -0.739500 0.134000 -0.300000
v -0.739500 0.134000 0.300000
v -0.742500 0.145000 -0.300000
v -0.742500 0.145000 0.300000
v -0.742500 0.207000 -0.300000
v -0.742500 0.207000 0.300000
v -0.738500 0.219000 -0.300000
v -0.738500 0.219000 0.300000
v -0.724500 0.225000 -0.300000
v -0.724500 0.225000 0.300000
v -0.718500 0.231000 -0.300000
v -0.718500 0.231000 0.300000
v -0.717500 0.239000 -0.300000
v -0.717500 0.239000 0.300000
v -0.717500 0.254000 -0.300000
v -0.717500 0.254000 0.300000
v -0.719500 0.260000 -0.300000
v -0.719500 0.260000 0.300000
v -0.725500 0.264280 -0.300000
v -0.725500 0.264280 0.300000
v -0.777500 0.264280 -0.300000
v -0.777500 0.264280 0.300000
v -0.783500 0.260000 -0.300000
v -0.783500 0.260000 0.300000
v -0.785500 0.254000 -0.300000
v -0.785500 0.254000 0.300000
v -0.785500 0.239000 -0.300000
v -0.785500 0.239000 0.300000
v -0.784500 0.231000 -0.300000
v -0.784500 0.231000 0.300000
v -0.778500 0.225000 -0.300000
v -0.778500 0.225000 0.300000
v -0.764500 0.219000 -0.300000
v -0.764500 0.219000 0.300000
v -0.760500 0.207000 -0.300000
v -0.760500 0.207000 0.300000
v -0.760500 0.145000 -0.300000
v -0.760500 0.145000 0.300000
v -0.763500 0.134000 -0.300000
v -0.763500 0.134000 0.300000
v -0.777500 0.124000 -0.300000
v -0.777500 0.124000 0.300000
v -0.815500 0.113000 -0.300000
v -0.815500 0.113000 0.300000
v -0.821500 0.108000 -0.300000
v -0.821500 0.108000 0.300000
v -0.821500 0.099422 -0.300000
v -0.821500 0.099422 0.300000
v 0.675500 0.085422 -0.101000
v 0.681500 0.085422 -0.107000
v 0.821500 0.085422 -0.107000
v 0.827500 0.085422 -0.101000
v 0.827500 0.085422 0.101000
v 0.821500 0.085422 0.107000
v 0.681500 0.085422 0.107000
v 0.675500 0.085422 0.101000
v 0.681500 0.095422 -0.107000
v 0.821500 0.095422 -0.107000
v 0.827500 0.095422 -0.101000
v 0.827500 0.095422 0.101000
v 0.821500 0.095422 0.107000
v 0.681500 0.095422 0.107000
v 0.675500 0.095422 0.101000
v 0.675500 0.095422 -0.101000
v 0.682500 0.099422 -0.106000
v 0.676500 0.099422 -0.100000
v 0.676500 0.099422 0.100000
v 0.682500 0.099422 0.106000
v 0.820500 0.099422 0.106000
v 0.826500 0.099422 0.100000
v 0.826500 0.099422 -0.100000
v 0.820500 0.099422 -0.106000
v 0.820500 0.095422 -0.106000
v 0.682500 0.095422 -0.106000
v 0.826500 0.095422 -0.100000
v 0.826500 0.095422 0.100000
v 0.820500 0.095422 0.106000
v 0.682500 0.095422 0.106000
v 0.676500 0.095422 0.100000
v 0.676500 0.095422 -0.100000
v 0.556500 0.085422 -0.100000
v 0.559500 0.085422 -0.103000
v 0.679500 0.085422 -0.103000
v 0.682500 0.085422 -0.100000
v 0.682500 0.085422 0.100000
v 0.679500 0.085422 0.103000
v 0.559500 0.085422 0.103000
v 0.556500 0.085422 0.100000
v 0.559500 0.095422 -0.103000
v 0.556500 0.095422 -0.100000
v 0.556500 0.095422 0.100000
v 0.559500 0.095422 0.103000
v 0.679500 0.095422 0.103000
v 0.682500 0.095422 0.100000
v 0.682500 0.095422 -0.100000
v 0.679500 0.095422 -0.103000
v 0.552500 0.095422 -0.105000
v 0.554500 0.095422 -0.107000
v 0.566500 0.095422 -0.107000
v 0.568500 0.095422 -0.105000
v 0.568500 0.095422 0.105000
v 0.566500 0.095422 0.107000
v 0.554500 0.095422 0.107000
v 0.552500 0.095422 0.105000
v 0.554500 0.126422 -0.107000
v 0.552500 0.126422 -0.105000
v 0.552500 0.126422 0.105000
v 0.554500 0.126422 0.107000
v 0.566500 0.126422 0.107000
v 0.568500 0.126422 0.105000
v 0.568500 0.126422 -0.105000
v 0.566500 0.126422 -0.107000
v 0.709500 0.119400 -0.105000
v 0.709500 0.129000 -0.105000
v 0.683500 0.123500 -0.105000
v 0.675500 0.123500 -0.105000
v 0.601500 0.109500 -0.105000
v 0.563500 0.109500 -0.105000
v 0.563500 0.095422 -0.105000
v 0.669500 0.095422 -0.105000
v 0.681500 0.108000 -0.105000
v 0.709500 0.129000 0.105000
v 0.709500 0.119400 0.105000
v 0.681500 0.108000 0.105000
v 0.669500 0.095422 0.105000
v 0.563500 0.095422 0.105000
v 0.563500 0.109500 0.105000
v 0.601500 0.109500 0.105000
v 0.675500 0.123500 0.105000
v 0.683500 0.123500 0.105000
v 0.623500 0.095422 -0.008660
v 0.628500 0.095422 0.000000
v 0.623500 0.095422 0.008660
v 0.613500 0.095422 0.008660
v 0.608500 0.095422 0.000000
v 0.613500 0.095422 -0.008660
v 0.628500 0.192000 0.000000
v 0.623500 0.192000 -0.008660
v 0.613500 0.192000 -0.008660
v 0.608500 0.192000 0.000000
v 0.613500 0.192000 0.008660
v 0.623500 0.192000 0.008660
v 0.639713 0.162000 -0.021213
v 0.648500 0.162000 0.000000
v 0.639713 0.162000 0.021213
v 0.618500 0.162000 0.030000
v 0.597287 0.162000 0.021213
v 0.588500 0.162000 0.000000
v 0.597287 0.162000 -0.021213
v 0.618500 0.162000 -0.030000
v 0.648500 0.168000 0.000000
v 0.639713 0.168000 -0.021213
v 0.618500 0.168000 -0.030000
v 0.597287 0.168000 -0.021213
v 0.588500 0.168000 0.000000
v 0.597287 0.168000 0.021213
v 0.618500 0.168000 0.030000
v 0.639713 0.168000 0.021213
v 0.628500 0.168000 -0.017321
v 0.638500 0.168000 0.000000
v 0.628500 0.168000 0.017321
v 0.608500 0.168000 0.017321
v 0.598500 0.168000 0.000000
v 0.608500 0.168000 -0.017321
v 0.638500 0.186000 0.000000
v 0.628500 0.186000 -0.017321
v 0.608500 0.186000 -0.017321
v 0.598500 0.186000 0.000000
v 0.608500 0.186000 0.017321
v 0.628500 0.186000 0.017321
v 0.627500 0.186000 -0.015588
v 0.636500 0.186000 0.000000
v 0.627500 0.186000 0.015588
v 0.609500 0.186000 0.015588
v 0.600500 0.186000 0.000000
v 0.609500 0.186000 -0.015588
v 0.636500 0.189000 0.000000
v 0.627500 0.189000 -0.015588
v 0.609500 0.189000 -0.015588
v 0.600500 0.189000 0.000000
v 0.609500 0.189000 0.015588
v 0.627500 0.189000 0.015588
v 0.820500 0.085422 -0.100000
v 0.823500 0.085422 -0.103000
v 0.943500 0.085422 -0.103000
v 0.946500 0.085422 -0.100000
v 0.946500 0.085422 0.100000
v 0.943500 0.085422 0.103000
v 0.823500 0.085422 0.103000
v 0.820500 0.085422 0.100000
v 0.823500 0.095422 -0.103000
v 0.820500 0.095422 -0.100000
v 0.820500 0.095422 0.100000
v 0.823500 0.095422 0.103000
v 0.943500 0.095422 0.103000
v 0.946500 0.095422 0.100000
v 0.946500 0.095422 -0.100000
v 0.943500 0.095422 -0.103000
v 0.934500 0.095422 -0.105000
v 0.936500 0.095422 -0.107000
v 0.948500 0.095422 -0.107000
v 0.950500 0.095422 -0.105000
v 0.950500 0.095422 0.105000
v 0.948500 0.095422 0.107000
v 0.936500 0.095422 0.107000
v 0.934500 0.095422 0.105000
v 0.936500 0.126422 -0.107000
v 0.934500 0.126422 -0.105000
v 0.934500 0.126422 0.105000
v 0.936500 0.126422 0.107000
v 0.948500 0.126422 0.107000
v 0.950500 0.126422 0.105000
v 0.950500 0.126422 -0.105000
v 0.948500 0.126422 -0.107000
v 0.793500 0.129000 -0.105000
v 0.793500 0.119400 -0.105000
v 0.821500 0.108000 -0.105000
v 0.833500 0.095422 -0.105000
v 0.939500 0.095422 -0.105000
v 0.939500 0.109500 -0.105000
v 0.901500 0.109500 -0.105000
v 0.827500 0.123500 -0.105000
v 0.819500 0.123500 -0.105000
v 0.793500 0.119400 0.105000
v 0.793500 0.129000 0.105000
v 0.819500 0.123500 0.105000
v 0.827500 0.123500 0.105000
v 0.901500 0.109500 0.105000
v 0.939500 0.109500 0.105000
v 0.939500 0.095422 0.105000
v 0.833500 0.095422 0.105000
v 0.821500 0.108000 0.105000
v 0.889500 0.095422 -0.008660
v 0.894500 0.095422 0.000000
v 0.889500 0.095422 0.008660
v 0.879500 0.095422 0.008660
v 0.874500 0.095422 0.000000
v 0.879500 0.095422 -0.008660
v 0.894500 0.192000 0.000000
v 0.889500 0.192000 -0.008660
v 0.879500 0.192000 -0.008660
v 0.874500 0.192000 0.000000
v 0.879500 0.192000 0.008660
v 0.889500 0.192000 0.008660
v 0.905713 0.162000 -0.021213
v 0.914500 0.162000 0.000000
v 0.905713 0.162000 0.021213
v 0.884500 0.162000 0.030000
v 0.863287 0.162000 0.021213
v 0.854500 0.162000 0.000000
v 0.863287 0.162000 -0.021213
v 0.884500 0.162000 -0.030000
v 0.914500 0.168000 0.000000
v 0.905713 0.168000 -0.021213
v 0.884500 0.168000 -0.030000
v 0.863287 0.168000 -0.021213
v 0.854500 0.168000 0.000000
v 0.863287 0.168000 0.021213
v 0.884500 0.168000 0.030000
v 0.905713 0.168000 0.021213
v 0.894500 0.168000 -0.017321
v 0.904500 0.168000 0.000000
v 0.894500 0.168000 0.017321
v 0.874500 0.168000 0.017321
v 0.864500 0.168000 0.000000
v 0.874500 0.168000 -0.017321
v 0.904500 0.186000 0.000000
v 0.894500 0.186000 -0.017321
v 0.874500 0.186000 -0.017321
v 0.864500 0.186000 0.000000
v 0.874500 0.186000 0.017321
v 0.894500 0.186000 0.017321
v 0.893500 0.186000 -0.015588
v 0.902500 0.186000 0.000000
v 0.893500 0.186000 0.015588
v 0.875500 0.186000 0.015588
v 0.866500 0.186000 0.000000
v 0.875500 0.186000 -0.015588
v 0.902500 0.189000 0.000000
v 0.893500 0.189000 -0.015588
v 0.875500 0.189000 -0.015588
v 0.866500 0.189000 0.000000
v 0.875500 0.189000 0.015588
v 0.893500 0.189000 0.015588
v 0.821500 0.099422 -0.300000
v 0.821500 0.108000 -0.300000
v 0.821500 0.108000 0.300000
v 0.821500 0.099422 0.300000
v 0.815500 0.113000 -0.300000
v 0.815500 0.113000 0.300000
v 0.777500 0.124000 -0.300000
v 0.777500 0.124000 0.300000
v 0.763500 0.134000 -0.300000
v 0.763500 0.134000 0.300000
v 0.760500 0.145000 -0.300000
v 0.760500 0.145000 0.300000
v 0.760500 0.207000 -0.300000
v 0.760500 0.207000 0.300000
v 0.764500 0.219000 -0.300000
v 0.764500 0.219000 0.300000
v 0.778500 0.225000 -0.300000
v 0.778500 0.225000 0.300000
v 0.784500 0.231000 -0.300000
v 0.784500 0.231000 0.300000
v 0.785500 0.239000 -0.300000
v 0.785500 0.239000 0.300000
v 0.785500 0.254000 -0.300000
v 0.785500 0.254000 0.300000
v 0.783500 0.260000 -0.300000
v 0.783500 0.260000 0.300000
v 0.777500 0.264280 -0.300000
v 0.777500 0.264280 0.300000
v 0.725500 0.264280 -0.300000
v 0.725500 0.264280 0.300000
v 0.719500 0.260000 -0.300000
v 0.719500 0.260000 0.300000
v 0.717500 0.254000 -0.300000
v 0.717500 0.254000 0.300000
v 0.717500 0.239000 -0.300000
v 0.717500 0.239000 0.300000
v 0.718500 0.231000 -0.300000
v 0.718500 0.231000 0.300000
v 0.724500 0.225000 -0.300000
v 0.724500 0.225000 0.300000
v 0.738500 0.219000 -0.300000
v 0.738500 0.219000 0.300000
v 0.742500 0.207000 -0.300000
v 0.742500 0.207000 0.300000
v 0.742500 0.145000 -0.300000
v 0.742500 0.145000 0.300000
v 0.739500 0.134000 -0.300000
v 0.739500 0.134000 0.300000
v 0.725500 0.124000 -0.300000
v 0.725500 0.124000 0.300000
v 0.687500 0.113000 -0.300000
v 0.687500 0.113000 0.300000
v 0.681500 0.108000 -0.300000
v 0.681500 0.108000 0.300000
v 0.681500 0.099422 -0.300000
v 0.681500 0.099422 0.300000
vt 0.01062500 0.01585821
vt 0.32937500 0.01585821
vt 0.32937500 0.49160448
vt 0.01062500 0.49160448
vt 0.60837500 0.03017506
vt 0.61013651 0.02537313
vt 0.65123849 0.02537313
vt 0.65300000 0.03017506
vt 0.65300000 0.19183987
vt 0.65123849 0.19664179
vt 0.61013651 0.19664179
vt 0.60837500 0.19183987
vt 0.60837500 0.19664179
vt 0.65300000 0.19664179
vt 0.65300000 0.02537313
vt 0.60837500 0.02537313
vt 0.61016000 0.31082090
vt 0.60837500 0.31566812
vt 0.60837500 0.47724233
vt 0.61016000 0.48208955
vt 0.65121500 0.48208955
vt 0.65300000 0.47724233
vt 0.65300000 0.31566812
vt 0.65121500 0.31082090
vt 0.60837500 0.48208955
vt 0.65300000 0.48208955
vt 0.65300000 0.31082090
vt 0.60837500 0.31082090
vt 0.34062500 0.02278655
vt 0.34631696 0.01585821
vt 0.57399554 0.01585821
vt 0.57968750 0.02278655
vt 0.57968750 0.48467613
vt 0.57399554 0.49160448
vt 0.34631696 0.49160448
vt 0.34062500 0.48467613
vt 0.34062500 0.49160448
vt 0.57968750 0.49160448
vt 0.57968750 0.01585821
vt 0.34062500 0.01585821
vt 0.60837500 0.02697378
vt 0.61395312 0.02537313
vt 0.64742188 0.02537313
vt 0.65300000 0.02697378
vt 0.65300000 0.19504115
vt 0.64742188 0.19664179
vt 0.61395312 0.19664179
vt 0.60837500 0.19504115
vt 0.34062500 0.35558791
vt 0.38319777 0.41367832
vt 0.39629709 0.41367832
vt 0.51746575 0.21532083
vt 0.57968750 0.21532083
vt 0.40612158 0.01585821
vt 0.38647260 0.19406824
vt 0.51992188 0.04772717
vt 0.57968750 0.25373134
vt 0.51992188 0.45973552
vt 0.40039062 0.45973552
vt 0.34062500 0.25373134
vt 0.40039062 0.04772717
vt 0.38046875 0.49160448
vt 0.38046875 0.01585821
vt 0.42031250 0.49160448
vt 0.42031250 0.01585821
vt 0.46015625 0.49160448
vt 0.46015625 0.01585821
vt 0.50000000 0.49160448
vt 0.50000000 0.01585821
vt 0.53984375 0.49160448
vt 0.53984375 0.01585821
vt 0.54467761 0.08552964
vt 0.54467761 0.42193305
vt 0.37563489 0.42193305
vt 0.37563489 0.08552964
vt 0.37050781 0.49160448
vt 0.37050781 0.01585821
vt 0.40039062 0.49160448
vt 0.40039062 0.01585821
vt 0.43027344 0.49160448
vt 0.43027344 0.01585821
vt 0.49003906 0.49160448
vt 0.49003906 0.01585821
vt 0.51992187 0.49160448
vt 0.51992187 0.01585821
vt 0.54980469 0.49160448
vt 0.54980469 0.01585821
vt 0.01062500 0.50839552
vt 0.01062500 0.53314987
vt 0.32937500 0.53314987
vt 0.32937500 0.50839552
vt 0.01062500 0.54757884
vt 0.32937500 0.54757884
vt 0.01062500 0.57932257
vt 0.32937500 0.57932257
vt 0.01062500 0.60818052
vt 0.32937500 0.60818052
vt 0.01062500 0.63992425
vt 0.32937500 0.63992425
vt 0.01062500 0.81884350
vt 0.32937500 0.81884350
vt 0.01062500 0.85347303
vt 0.32937500 0.85347303
vt 0.01062500 0.87078779
vt 0.32937500 0.87078779
vt 0.01062500 0.88810256
vt 0.32937500 0.88810256
vt 0.01062500 0.91118891
vt 0.32937500 0.91118891
vt 0.01062500 0.95447583
vt 0.32937500 0.95447583
vt 0.01062500 0.97179059
vt 0.32937500 0.97179059
vt 0.34062500 0.97014925
vt 0.34062500 0.92817164
vt 0.65937500 0.92817164
vt 0.65937500 0.97014925
vt 0.34062500 0.56436567
vt 0.65937500 0.56436567
vt 0.34062500 0.52238806
vt 0.65937500 0.52238806
vt 0.01062500 0.57500000
vt 0.32937500 0.57500000
vt 0.98937500 0.50839552
vt 0.67062500 0.50839552
vt 0.67062500 0.53314987
vt 0.68428571 0.54757884
vt 0.77080357 0.57932257
vt 0.80267857 0.60818052
vt 0.80040179 0.85347303
vt 0.76852679 0.87078779
vt 0.75486607 0.88810256
vt 0.75258929 0.91118891
vt 0.75258929 0.95447583
vt 0.75714286 0.97179059
vt 0.77080357 0.98414179
vt 0.80950893 0.81884350
vt 0.88919643 0.98414179
vt 0.90285714 0.97179059
vt 0.90741071 0.95447583
vt 0.90741071 0.91118891
vt 0.90513393 0.88810256
vt 0.89147321 0.87078779
vt 0.85959821 0.85347303
vt 0.85049107 0.81884350
vt 0.80950893 0.63992425
vt 0.85049107 0.63992425
vt 0.85732143 0.60818052
vt 0.88919643 0.57932257
vt 0.97571429 0.54757884
vt 0.98937500 0.53314987
vn 0.00000000 -1.00000000 0.00000000
vn -0.00000000 1.00000000 0.00000000
vn 0.00000000 0.00000000 -1.00000000
vn 1.00000000 0.00000000 -0.00000000
vn 0.00000000 0.00000000 1.00000000
vn -1.00000000 0.00000000 -0.00000000
vn 0.70710678 0.00000000 -0.70710678
vn 0.70710678 0.00000000 0.70710678
vn -0.70710678 0.00000000 0.70710678
vn -0.70710678 0.00000000 -0.70710678
vn 0.37708674 -0.92617795 0.00000000
vn 0.72353574 -0.69028692 0.00000000
vn -0.18589167 0.98257025 0.00000000
vn -0.20695859 0.97834970 0.00000000
vn 0.86602540 0.00000000 0.50000000
vn -0.86602540 0.00000000 0.50000000
vn -0.86602540 0.00000000 -0.50000000
vn 0.86602540 0.00000000 -0.50000000
vn 0.92387953 0.00000000 0.38268343
vn 0.38268343 0.00000000 0.92387953
vn -0.38268343 0.00000000 0.92387953
vn -0.92387953 0.00000000 0.38268343
vn -0.92387953 0.00000000 -0.38268343
vn -0.38268343 0.00000000 -0.92387953
vn 0.38268343 0.00000000 -0.92387953
vn 0.92387953 0.00000000 -0.38268343
vn -0.37708674 -0.92617795 0.00000000
vn -0.72353574 -0.69028692 0.00000000
vn 0.18589167 0.98257025 0.00000000
vn 0.20695859 0.97834970 0.00000000
vn 0.64018440 0.76822128 0.00000000
vn 0.27805808 0.96056426 0.00000000
vn 0.58123819 0.81373347 0.00000000
vn 0.96476382 0.26311741 0.00000000
vn 0.94868330 -0.31622777 0.00000000
vn 0.39391930 -0.91914503 0.00000000
vn 0.70710678 -0.70710678 0.00000000
vn 0.99227788 -0.12403473 0.00000000
vn 0.94868330 0.31622777 0.00000000
vn 0.58072468 0.81410002 0.00000000
vn -0.58072468 0.81410002 0.00000000
vn -0.94868330 0.31622777 0.00000000
vn -0.99227788 -0.12403473 0.00000000
vn -0.70710678 -0.70710678 0.00000000
vn -0.39391930 -0.91914503 0.00000000
vn -0.94868330 -0.31622777 0.00000000
vn -0.96476382 0.26311741 0.00000000
vn -0.58123819 0.81373347 0.00000000
vn -0.27805808 0.96056426 0.00000000
vn -0.64018440 0.76822128 0.00000000
g direct_bearer
usemtl mat
f 1/1/1 2/2/1 3/3/1 4/4/1
f 5/4/2 6/3/2 7/2/2 8/1/2
f 8/4/3 7/3/3 2/2/3 1/1/3
f 7/4/4 6/3/4 3/2/4 2/1/4
f 6/4/5 5/3/5 4/2/5 3/1/5
f 5/4/6 8/3/6 1/2/6 4/1/6
f 9/1/1 10/2/1 11/3/1 12/4/1
f 13/4/2 14/3/2 15/2/2 16/1/2
f 16/4/3 15/3/3 10/2/3 9/1/3
f 15/4/4 14/3/4 11/2/4 10/1/4
f 14/4/5 13/3/5 12/2/5 11/1/5
f 13/4/6 16/3/6 9/2/6 12/1/6
g fastener_left
usemtl mat
f 17/5/1 18/6/1 19/7/1
f 17/5/1 19/7/1 20/8/1
f 17/5/1 20/8/1 21/9/1
f 17/5/1 21/9/1 22/10/1
f 17/5/1 22/10/1 23/11/1
f 23/11/1 24/12/1 17/5/1
f 25/13/3 26/14/3 19/15/3 18/16/3
f 26/13/7 27/14/7 20/15/7 19/16/7
f 27/13/4 28/14/4 21/15/4 20/16/4
f 28/13/8 29/14/8 22/15/8 21/16/8
f 29/13/5 30/14/5 23/15/5 22/16/5
f 30/13/9 31/14/9 24/15/9 23/16/9
f 31/13/6 32/14/6 17/15/6 24/16/6
f 32/13/10 25/14/10 18/15/10 17/16/10
f 33/17/2 34/18/2 35/19/2
f 33/17/2 35/19/2 36/20/2
f 33/17/2 36/20/2 37/21/2
f 33/17/2 37/21/2 38/22/2
f 33/17/2 38/22/2 39/23/2
f 39/23/2 40/24/2 33/17/2
f 33/25/3 40/26/3 41/27/3 42/28/3
f 40/25/7 39/26/7 43/27/7 41/28/7
f 39/25/4 38/26/4 44/27/4 43/28/4
f 38/25/8 37/26/8 45/27/8 44/28/8
f 37/25/5 36/26/5 46/27/5 45/28/5
f 36/25/9 35/26/9 47/27/9 46/28/9
f 35/25/6 34/26/6 48/27/6 47/28/6
f 34/25/10 33/26/10 42/27/10 48/28/10
f 49/29/1 50/30/1 51/31/1
f 49/29/1 51/31/1 52/32/1
f 49/29/1 52/32/1 53/33/1
f 49/29/1 53/33/1 54/34/1
f 49/29/1 54/34/1 55/35/1
f 55/35/1 56/36/1 49/29/1
f 57/30/2 58/29/2 59/36/2
f 57/30/2 59/36/2 60/35/2
f 57/30/2 60/35/2 61/34/2
f 57/30/2 61/34/2 62/33/2
f 57/30/2 62/33/2 63/32/2
f 63/32/2 64/31/2 57/30/2
f 57/37/3 64/38/3 51/39/3 50/40/3
f 64/37/7 63/38/7 52/39/7 51/40/7
f 63/37/4 62/38/4 53/39/4 52/40/4
f 62/37/8 61/38/8 54/39/8 53/40/8
f 61/37/5 60/38/5 55/39/5 54/40/5
f 60/37/9 59/38/9 56/39/9 55/40/9
f 59/37/6 58/38/6 49/39/6 56/40/6
f 58/37/10 57/38/10 50/39/10 49/40/10
f 65/41/1 66/42/1 67/43/1
f 65/41/1 67/43/1 68/44/1
f 65/41/1 68/44/1 69/45/1
f 65/41/1 69/45/1 70/46/1
f 65/41/1 70/46/1 71/47/1
f 71/47/1 72/48/1 65/41/1
f 73/42/2 74/41/2 75/48/2
f 73/42/2 75/48/2 76/47/2
f 73/42/2 76/47/2 77/46/2
f 73/42/2 77/46/2 78/45/2
f 73/42/2 78/45/2 79/44/2
f 79/44/2 80/43/2 73/42/2
f 73/13/3 80/14/3 67/15/3 66/16/3
f 80/13/7 79/14/7 68/15/7 67/16/7
f 79/13/4 78/14/4 69/15/4 68/16/4
f 78/13/8 77/14/8 70/15/8 69/16/8
f 77/13/5 76/14/5 71/15/5 70/16/5
f 76/13/9 75/14/9 72/15/9 71/16/9
f 75/13/6 74/14/6 65/15/6 72/16/6
f 74/13/10 73/14/10 66/15/10 65/16/10
f 81/49/5 82/37/5 83/50/5
f 81/49/5 83/50/5 84/51/5
f 81/49/5 84/51/5 85/52/5
f 85/52/5 86/53/5 87/39/5
f 81/49/5 85/52/5 87/39/5
f 87/39/5 88/54/5 89/55/5
f 87/39/5 89/55/5 81/49/5
f 90/37/3 91/49/3 92/55/3
f 92/55/3 93/54/3 94/39/3
f 90/37/3 92/55/3 94/39/3
f 94/39/3 95/53/3 96/52/3
f 94/39/3 96/52/3 97/51/3
f 94/39/3 97/51/3 98/50/3
f 94/39/3 98/50/3 90/37/3
f 91/37/11 92/38/11 89/39/11 81/40/11
f 92/37/12 93/38/12 88/39/12 89/40/12
f 93/37/1 94/38/1 87/39/1 88/40/1
f 94/37/6 95/38/6 86/39/6 87/40/6
f 95/37/2 96/38/2 85/39/2 86/40/2
f 96/37/13 97/38/13 84/39/13 85/40/13
f 97/37/2 98/38/2 83/39/2 84/40/2
f 98/37/14 90/38/14 82/39/14 83/40/14
f 90/37/4 91/38/4 81/39/4 82/40/4
f 99/56/1 100/57/1 101/58/1
f 99/56/1 101/58/1 102/59/1
f 99/56/1 102/59/1 103/60/1
f 103/60/1 104/61/1 99/56/1
f 105/57/2 106/56/2 107/61/2
f 105/57/2 107/61/2 108/60/2
f 105/57/2 108/60/2 109/59/2
f 109/59/2 110/58/2 105/57/2
f 105/37/15 110/62/15 101/63/15 100/40/15
f 110/62/5 109/64/5 102/65/5 101/63/5
f 109/64/16 108/66/16 103/67/16 102/65/16
f 108/66/17 107/68/17 104/69/17 103/67/17
f 107/68/3 106/70/3 99/71/3 104/69/3
f 106/70/18 105/38/18 100/39/18 99/71/18
f 111/72/1 112/57/1 113/73/1
f 111/72/1 113/73/1 114/66/1
f 111/72/1 114/66/1 115/74/1
f 111/72/1 115/74/1 116/60/1
f 111/72/1 116/60/1 117/75/1
f 117/75/1 118/67/1 111/72/1
f 119/57/2 120/72/2 121/67/2
f 119/57/2 121/67/2 122/75/2
f 119/57/2 122/75/2 123/60/2
f 119/57/2 123/60/2 124/74/2
f 119/57/2 124/74/2 125/66/2
f 125/66/2 126/73/2 119/57/2
f 119/37/19 126/76/19 113/77/19 112/40/19
f 126/76/20 125/78/20 114/79/20 113/77/20
f 125/78/21 124/80/21 115/81/21 114/79/21
f 124/80/22 123/66/22 116/67/22 115/81/22
f 123/66/23 122/82/23 117/83/23 116/67/23
f 122/82/24 121/84/24 118/85/24 117/83/24
f 121/84/25 120/86/25 111/87/25 118/85/25
f 120/86/26 119/38/26 112/39/26 111/87/26
f 127/56/1 128/57/1 129/58/1
f 127/56/1 129/58/1 130/59/1
f 127/56/1 130/59/1 131/60/1
f 131/60/1 132/61/1 127/56/1
f 133/57/2 134/56/2 135/61/2
f 133/57/2 135/61/2 136/60/2
f 133/57/2 136/60/2 137/59/2
f 137/59/2 138/58/2 133/57/2
f 133/37/15 138/62/15 129/63/15 128/40/15
f 138/62/5 137/64/5 130/65/5 129/63/5
f 137/64/16 136/66/16 131/67/16 130/65/16
f 136/66/17 135/68/17 132/69/17 131/67/17
f 135/68/3 134/70/3 127/71/3 132/69/3
f 134/70/18 133/38/18 128/39/18 127/71/18
f 139/56/1 140/57/1 141/58/1
f 139/56/1 141/58/1 142/59/1
f 139/56/1 142/59/1 143/60/1
f 143/60/1 144/61/1 139/56/1
f 145/57/2 146/56/2 147/61/2
f 145/57/2 147/61/2 148/60/2
f 145/57/2 148/60/2 149/59/2
f 149/59/2 150/58/2 145/57/2
f 145/37/15 150/62/15 141/63/15 140/40/15
f 150/62/5 149/64/5 142/65/5 141/63/5
f 149/64/16 148/66/16 143/67/16 142/65/16
f 148/66/17 147/68/17 144/69/17 143/67/17
f 147/68/3 146/70/3 139/71/3 144/69/3
f 146/70/18 145/38/18 140/39/18 139/71/18
f 151/29/1 152/30/1 153/31/1
f 151/29/1 153/31/1 154/32/1
f 151/29/1 154/32/1 155/33/1
f 151/29/1 155/33/1 156/34/1
f 151/29/1 156/34/1 157/35/1
f 157/35/1 158/36/1 151/29/1
f 159/30/2 160/29/2 161/36/2
f 159/30/2 161/36/2 162/35/2
f 159/30/2 162/35/2 163/34/2
f 159/30/2 163/34/2 164/33/2
f 159/30/2 164/33/2 165/32/2
f 165/32/2 166/31/2 159/30/2
f 159/37/3 166/38/3 153/39/3 152/40/3
f 166/37/7 165/38/7 154/39/7 153/40/7
f 165/37/4 164/38/4 155/39/4 154/40/4
f 164/37/8 163/38/8 156/39/8 155/40/8
f 163/37/5 162/38/5 157/39/5 156/40/5
f 162/37/9 161/38/9 158/39/9 157/40/9
f 161/37/6 160/38/6 151/39/6 158/40/6
f 160/37/10 159/38/10 152/39/10 151/40/10
f 167/41/1 168/42/1 169/43/1
f 167/41/1 169/43/1 170/44/1
f 167/41/1 170/44/1 171/45/1
f 167/41/1 171/45/1 172/46/1
f 167/41/1 172/46/1 173/47/1
f 173/47/1 174/48/1 167/41/1
f 175/42/2 176/41/2 177/48/2
f 175/42/2 177/48/2 178/47/2
f 175/42/2 178/47/2 179/46/2
f 175/42/2 179/46/2 180/45/2
f 175/42/2 180/45/2 181/44/2
f 181/44/2 182/43/2 175/42/2
f 175/13/3 182/14/3 169/15/3 168/16/3
f 182/13/7 181/14/7 170/15/7 169/16/7
f 181/13/4 180/14/4 171/15/4 170/16/4
f 180/13/8 179/14/8 172/15/8 171/16/8
f 179/13/5 178/14/5 173/15/5 172/16/5
f 178/13/9 177/14/9 174/15/9 173/16/9
f 177/13/6 176/14/6 167/15/6 174/16/6
f 176/13/10 175/14/10 168/15/10 167/16/10
f 183/37/5 184/49/5 185/55/5
f 185/55/5 186/54/5 187/39/5
f 183/37/5 185/55/5 187/39/5
f 187/39/5 188/53/5 189/52/5
f 187/39/5 189/52/5 190/51/5
f 187/39/5 190/51/5 191/50/5
f 187/39/5 191/50/5 183/37/5
f 192/49/3 193/37/3 194/50/3
f 192/49/3 194/50/3 195/51/3
f 192/49/3 195/51/3 196/52/3
f 196/52/3 197/53/3 198/39/3
f 192/49/3 196/52/3 198/39/3
f 198/39/3 199/54/3 200/55/3
f 198/39/3 200/55/3 192/49/3
f 184/40/27 185/39/27 200/38/27 192/37/27
f 185/40/28 186/39/28 199/38/28 200/37/28
f 186/40/1 187/39/1 198/38/1 199/37/1
f 187/40/4 188/39/4 197/38/4 198/37/4
f 188/40/2 189/39/2 196/38/2 197/37/2
f 189/40/29 190/39/29 195/38/29 196/37/29
f 190/40/2 191/39/2 194/38/2 195/37/2
f 191/40/30 183/39/30 193/38/30 194/37/30
f 183/40/6 184/39/6 192/38/6 193/37/6
f 201/56/1 202/57/1 203/58/1
f 201/56/1 203/58/1 204/59/1
f 201/56/1 204/59/1 205/60/1
f 205/60/1 206/61/1 201/56/1
f 207/57/2 208/56/2 209/61/2
f 207/57/2 209/61/2 210/60/2
f 207/57/2 210/60/2 211/59/2
f 211/59/2 212/58/2 207/57/2
f 207/37/15 212/62/15 203/63/15 202/40/15
f 212/62/5 211/64/5 204/65/5 203/63/5
f 211/64/16 210/66/16 205/67/16 204/65/16
f 210/66/17 209/68/17 206/69/17 205/67/17
f 209/68/3 208/70/3 201/71/3 206/69/3
f 208/70/18 207/38/18 202/39/18 201/71/18
f 213/72/1 214/57/1 215/73/1
f 213/72/1 215/73/1 216/66/1
f 213/72/1 216/66/1 217/74/1
f 213/72/1 217/74/1 218/60/1
f 213/72/1 218/60/1 219/75/1
f 219/75/1 220/67/1 213/72/1
f 221/57/2 222/72/2 223/67/2
f 221/57/2 223/67/2 224/75/2
f 221/57/2 224/75/2 225/60/2
f 221/57/2 225/60/2 226/74/2
f 221/57/2 226/74/2 227/66/2
f 227/66/2 228/73/2 221/57/2
f 221/37/19 228/76/19 215/77/19 214/40/19
f 228/76/20 227/78/20 216/79/20 215/77/20
f 227/78/21 226/80/21 217/81/21 216/79/21
f 226/80/22 225/66/22 218/67/22 217/81/22
f 225/66/23 224/82/23 219/83/23 218/67/23
f 224/82/24 223/84/24 220/85/24 219/83/24
f 223/84/25 222/86/25 213/87/25 220/85/25
f 222/86/26 221/38/26 214/39/26 213/87/26
f 229/56/1 230/57/1 231/58/1
f 229/56/1 231/58/1 232/59/1
f 229/56/1 232/59/1 233/60/1
f 233/60/1 234/61/1 229/56/1
f 235/57/2 236/56/2 237/61/2
f 235/57/2 237/61/2 238/60/2
f 235/57/2 238/60/2 239/59/2
f 239/59/2 240/58/2 235/57/2
f 235/37/15 240/62/15 231/63/15 230/40/15
f 240/62/5 239/64/5 232/65/5 231/63/5
f 239/64/16 238/66/16 233/67/16 232/65/16
f 238/66/17 237/68/17 234/69/17 233/67/17
f 237/68/3 236/70/3 229/71/3 234/69/3
f 236/70/18 235/38/18 230/39/18 229/71/18
f 241/56/1 242/57/1 243/58/1
f 241/56/1 243/58/1 244/59/1
f 241/56/1 244/59/1 245/60/1
f 245/60/1 246/61/1 241/56/1
f 247/57/2 248/56/2 249/61/2
f 247/57/2 249/61/2 250/60/2
f 247/57/2 250/60/2 251/59/2
f 251/59/2 252/58/2 247/57/2
f 247/37/15 252/62/15 243/63/15 242/40/15
f 252/62/5 251/64/5 244/65/5 243/63/5
f 251/64/16 250/66/16 245/67/16 244/65/16
f 250/66/17 249/68/17 246/69/17 245/67/17
f 249/68/3 248/70/3 241/71/3 246/69/3
f 248/70/18 247/38/18 242/39/18 241/71/18
g rail_left
usemtl mat
f 253/88/4 254/89/4 255/90/4 256/91/4
f 254/89/31 257/92/31 258/93/31 255/90/31
f 257/92/32 259/94/32 260/95/32 258/93/32
f 259/94/33 261/96/33 262/97/33 260/95/33
f 261/96/34 263/98/34 264/99/34 262/97/34
f 263/98/4 265/100/4 266/101/4 264/99/4
f 265/100/35 267/102/35 268/103/35 266/101/35
f 267/102/36 269/104/36 270/105/36 268/103/36
f 269/104/37 271/106/37 272/107/37 270/105/37
f 271/106/38 273/108/38 274/109/38 272/107/38
f 273/108/4 275/110/4 276/111/4 274/109/4
f 275/110/39 277/112/39 278/113/39 276/111/39
f 277/114/40 279/115/40 280/116/40 278/117/40
f 279/115/2 281/118/2 282/119/2 280/116/2
f 281/118/41 283/120/41 284/121/41 282/119/41
f 283/112/42 285/110/42 286/111/42 284/113/42
f 285/110/6 287/108/6 288/109/6 286/111/6
f 287/108/43 289/106/43 290/107/43 288/109/43
f 289/106/44 291/104/44 292/105/44 290/107/44
f 291/104/45 293/102/45 294/103/45 292/105/45
f 293/102/46 295/100/46 296/101/46 294/103/46
f 295/100/6 297/98/6 298/99/6 296/101/6
f 297/98/47 299/96/47 300/97/47 298/99/47
f 299/96/48 301/94/48 302/95/48 300/97/48
f 301/94/49 303/92/49 304/93/49 302/95/49
f 303/92/50 305/89/50 306/90/50 304/93/50
f 305/89/6 307/88/6 308/91/6 306/90/6
f 307/88/1 253/122/1 256/123/1 308/91/1
g rail_left_end
usemtl mat
f 253/124/3 307/125/3 305/126/3
f 253/124/3 305/126/3 303/127/3
f 253/124/3 303/127/3 301/128/3
f 253/124/3 301/128/3 299/129/3
f 293/130/3 291/131/3 289/132/3
f 293/130/3 289/132/3 287/133/3
f 293/130/3 287/133/3 285/134/3
f 293/130/3 285/134/3 283/135/3
f 293/130/3 283/135/3 281/136/3
f 295/137/3 293/130/3 281/136/3
f 295/137/3 281/136/3 279/138/3
f 295/137/3 279/138/3 277/139/3
f 295/137/3 277/139/3 275/140/3
f 295/137/3 275/140/3 273/141/3
f 295/137/3 273/141/3 271/142/3
f 271/142/3 269/143/3 267/144/3
f 295/137/3 271/142/3 267/144/3
f 295/137/3 267/144/3 265/145/3
f 297/146/3 295/137/3 265/145/3
f 299/129/3 297/146/3 265/145/3
f 299/129/3 265/145/3 263/147/3
f 299/129/3 263/147/3 261/148/3
f 299/129/3 261/148/3 259/149/3
f 253/124/3 299/129/3 259/149/3
f 253/124/3 259/149/3 257/150/3
f 257/150/3 254/151/3 253/124/3
f 308/125/5 256/124/5 255/151/5
f 308/125/5 255/151/5 258/150/5
f 308/125/5 258/150/5 260/149/5
f 308/125/5 260/149/5 262/148/5
f 268/144/5 270/143/5 272/142/5
f 268/144/5 272/142/5 274/141/5
f 268/144/5 274/141/5 276/140/5
f 268/144/5 276/140/5 278/139/5
f 268/144/5 278/139/5 280/138/5
f 266/145/5 268/144/5 280/138/5
f 266/145/5 280/138/5 282/136/5
f 266/145/5 282/136/5 284/135/5
f 266/145/5 284/135/5 286/134/5
f 266/145/5 286/134/5 288/133/5
f 266/145/5 288/133/5 290/132/5
f 290/132/5 292/131/5 294/130/5
f 266/145/5 290/132/5 294/130/5
f 266/145/5 294/130/5 296/137/5
f 264/147/5 266/145/5 296/137/5
f 262/148/5 264/147/5 296/137/5
f 262/148/5 296/137/5 298/146/5
f 262/148/5 298/146/5 300/129/5
f 262/148/5 300/129/5 302/128/5
f 308/125/5 262/148/5 302/128/5
f 308/125/5 302/128/5 304/127/5
f 304/127/5 306/126/5 308/125/5
g fastener_right
usemtl mat
f 309/5/1 310/6/1 311/7/1
f 309/5/1 311/7/1 312/8/1
f 309/5/1 312/8/1 313/9/1
f 309/5/1 313/9/1 314/10/1
f 309/5/1 314/10/1 315/11/1
f 315/11/1 316/12/1 309/5/1
f 317/13/3 318/14/3 311/15/3 310/16/3
f 318/13/7 319/14/7 312/15/7 311/16/7
f 319/13/4 320/14/4 313/15/4 312/16/4
f 320/13/8 321/14/8 314/15/8 313/16/8
f 321/13/5 322/14/5 315/15/5 314/16/5
f 322/13/9 323/14/9 316/15/9 315/16/9
f 323/13/6 324/14/6 309/15/6 316/16/6
f 324/13/10 317/14/10 310/15/10 309/16/10
f 325/17/2 326/18/2 327/19/2
f 325/17/2 327/19/2 328/20/2
f 325/17/2 328/20/2 329/21/2
f 325/17/2 329/21/2 330/22/2
f 325/17/2 330/22/2 331/23/2
f 331/23/2 332/24/2 325/17/2
f 325/25/3 332/26/3 333/27/3 334/28/3
f 332/25/7 331/26/7 335/27/7 333/28/7
f 331/25/4 330/26/4 336/27/4 335/28/4
f 330/25/8 329/26/8 337/27/8 336/28/8
f 329/25/5 328/26/5 338/27/5 337/28/5
f 328/25/9 327/26/9 339/27/9 338/28/9
f 327/25/6 326/26/6 340/27/6 339/28/6
f 326/25/10 325/26/10 334/27/10 340/28/10
f 341/29/1 342/30/1 343/31/1
f 341/29/1 343/31/1 344/32/1
f 341/29/1 344/32/1 345/33/1
f 341/29/1 345/33/1 346/34/1
f 341/29/1 346/34/1 347/35/1
f 347/35/1 348/36/1 341/29/1
f 349/30/2 350/29/2 351/36/2
f 349/30/2 351/36/2 352/35/2
f 349/30/2 352/35/2 353/34/2
f 349/30/2 353/34/2 354/33/2
f 349/30/2 354/33/2 355/32/2
f 355/32/2 356/31/2 349/30/2
f 349/37/3 356/38/3 343/39/3 342/40/3
f 356/37/7 355/38/7 344/39/7 343/40/7
f 355/37/4 354/38/4 345/39/4 344/40/4
f 354/37/8 353/38/8 346/39/8 345/40/8
f 353/37/5 352/38/5 347/39/5 346/40/5
f 352/37/9 351/38/9 348/39/9 347/40/9
f 351/37/6 350/38/6 341/39/6 348/40/6
f 350/37/10 349/38/10 342/39/10 341/40/10
f 357/41/1 358/42/1 359/43/1
f 357/41/1 359/43/1 360/44/1
f 357/41/1 360/44/1 361/45/1
f 357/41/1 361/45/1 362/46/1
f 357/41/1 362/46/1 363/47/1
f 363/47/1 364/48/1 357/41/1
f 365/42/2 366/41/2 367/48/2
f 365/42/2 367/48/2 368/47/2
f 365/42/2 368/47/2 369/46/2
f 365/42/2 369/46/2 370/45/2
f 365/42/2 370/45/2 371/44/2
f 371/44/2 372/43/2 365/42/2
f 365/13/3 372/14/3 359/15/3 358/16/3
f 372/13/7 371/14/7 360/15/7 359/16/7
f 371/13/4 370/14/4 361/15/4 360/16/4
f 370/13/8 369/14/8 362/15/8 361/16/8
f 369/13/5 368/14/5 363/15/5 362/16/5
f 368/13/9 367/14/9 364/15/9 363/16/9
f 367/13/6 366/14/6 357/15/6 364/16/6
f 366/13/10 365/14/10 358/15/10 357/16/10
f 373/49/5 374/37/5 375/50/5
f 373/49/5 375/50/5 376/51/5
f 373/49/5 376/51/5 377/52/5
f 377/52/5 378/53/5 379/39/5
f 373/49/5 377/52/5 379/39/5
f 379/39/5 380/54/5 381/55/5
f 379/39/5 381/55/5 373/49/5
f 382/37/3 383/49/3 384/55/3
f 384/55/3 385/54/3 386/39/3
f 382/37/3 384/55/3 386/39/3
f 386/39/3 387/53/3 388/52/3
f 386/39/3 388/52/3 389/51/3
f 386/39/3 389/51/3 390/50/3
f 386/39/3 390/50/3 382/37/3
f 383/37/11 384/38/11 381/39/11 373/40/11
f 384/37/12 385/38/12 380/39/12 381/40/12
f 385/37/1 386/38/1 379/39/1 380/40/1
f 386/37/6 387/38/6 378/39/6 379/40/6
f 387/37/2 388/38/2 377/39/2 378/40/2
f 388/37/13 389/38/13 376/39/13 377/40/13
f 389/37/2 390/38/2 375/39/2 376/40/2
f 390/37/14 382/38/14 374/39/14 375/40/14
f 382/37/4 383/38/4 373/39/4 374/40/4
f 391/56/1 392/57/1 393/58/1
f 391/56/1 393/58/1 394/59/1
f 391/56/1 394/59/1 395/60/1
f 395/60/1 396/61/1 391/56/1
f 397/57/2 398/56/2 399/61/2
f 397/57/2 399/61/2 400/60/2
f 397/57/2 400/60/2 401/59/2
f 401/59/2 402/58/2 397/57/2
f 397/37/15 402/62/15 393/63/15 392/40/15
f 402/62/5 401/64/5 394/65/5 393/63/5
f 401/64/16 400/66/16 395/67/16 394/65/16
f 400/66/17 399/68/17 396/69/17 395/67/17
f 399/68/3 398/70/3 391/71/3 396/69/3
f 398/70/18 397/38/18 392/39/18 391/71/18
f 403/72/1 404/57/1 405/73/1
f 403/72/1 405/73/1 406/66/1
f 403/72/1 406/66/1 407/74/1
f 403/72/1 407/74/1 408/60/1
f 403/72/1 408/60/1 409/75/1
f 409/75/1 410/67/1 403/72/1
f 411/57/2 412/72/2 413/67/2
f 411/57/2 413/67/2 414/75/2
f 411/57/2 414/75/2 415/60/2
f 411/57/2 415/60/2 416/74/2
f 411/57/2 416/74/2 417/66/2
f 417/66/2 418/73/2 411/57/2
f 411/37/19 418/76/19 405/77/19 404/40/19
f 418/76/20 417/78/20 406/79/20 405/77/20
f 417/78/21 416/80/21 407/81/21 406/79/21
f 416/80/22 415/66/22 408/67/22 407/81/22
f 415/66/23 414/82/23 409/83/23 408/67/23
f 414/82/24 413/84/24 410/85/24 409/83/24
f 413/84/25 412/86/25 403/87/25 410/85/25
f 412/86/26 411/38/26 404/39/26 403/87/26
f 419/56/1 420/57/1 421/58/1
f 419/56/1 421/58/1 422/59/1
f 419/56/1 422/59/1 423/60/1
f 423/60/1 424/61/1 419/56/1
f 425/57/2 426/56/2 427/61/2
f 425/57/2 427/61/2 428/60/2
f 425/57/2 428/60/2 429/59/2
f 429/59/2 430/58/2 425/57/2
f 425/37/15 430/62/15 421/63/15 420/40/15
f 430/62/5 429/64/5 422/65/5 421/63/5
f 429/64/16 428/66/16 423/67/16 422/65/16
f 428/66/17 427/68/17 424/69/17 423/67/17
f 427/68/3 426/70/3 419/71/3 424/69/3
f 426/70/18 425/38/18 420/39/18 419/71/18
f 431/56/1 432/57/1 433/58/1
f 431/56/1 433/58/1 434/59/1
f 431/56/1 434/59/1 435/60/1
f 435/60/1 436/61/1 431/56/1
f 437/57/2 438/56/2 439/61/2
f 437/57/2 439/61/2 440/60/2
f 437/57/2 440/60/2 441/59/2
f 441/59/2 442/58/2 437/57/2
f 437/37/15 442/62/15 433/63/15 432/40/15
f 442/62/5 441/64/5 434/65/5 433/63/5
f 441/64/16 440/66/16 435/67/16 434/65/16
f 440/66/17 439/68/17 436/69/17 435/67/17
f 439/68/3 438/70/3 431/71/3 436/69/3
f 438/70/18 437/38/18 432/39/18 431/71/18
f 443/29/1 444/30/1 445/31/1
f 443/29/1 445/31/1 446/32/1
f 443/29/1 446/32/1 447/33/1
f 443/29/1 447/33/1 448/34/1
f 443/29/1 448/34/1 449/35/1
f 449/35/1 450/36/1 443/29/1
f 451/30/2 452/29/2 453/36/2
f 451/30/2 453/36/2 454/35/2
f 451/30/2 454/35/2 455/34/2
f 451/30/2 455/34/2 456/33/2
f 451/30/2 456/33/2 457/32/2
f 457/32/2 458/31/2 451/30/2
f 451/37/3 458/38/3 445/39/3 444/40/3
f 458/37/7 457/38/7 446/39/7 445/40/7
f 457/37/4 456/38/4 447/39/4 446/40/4
f 456/37/8 455/38/8 448/39/8 447/40/8
f 455/37/5 454/38/5 449/39/5 448/40/5
f 454/37/9 453/38/9 450/39/9 449/40/9
f 453/37/6 452/38/6 443/39/6 450/40/6
f 452/37/10 451/38/10 444/39/10 443/40/10
f 459/41/1 460/42/1 461/43/1
f 459/41/1 461/43/1 462/44/1
f 459/41/1 462/44/1 463/45/1
f 459/41/1 463/45/1 464/46/1
f 459/41/1 464/46/1 465/47/1
f 465/47/1 466/48/1 459/41/1
f 467/42/2 468/41/2 469/48/2
f 467/42/2 469/48/2 470/47/2
f 467/42/2 470/47/2 471/46/2
f 467/42/2 471/46/2 472/45/2
f 467/42/2 472/45/2 473/44/2
f 473/44/2 474/43/2 467/42/2
f 467/13/3 474/14/3 461/15/3 460/16/3
f 474/13/7 473/14/7 462/15/7 461/16/7
f 473/13/4 472/14/4 463/15/4 462/16/4
f 472/13/8 471/14/8 464/15/8 463/16/8
f 471/13/5 470/14/5 465/15/5 464/16/5
f 470/13/9 469/14/9 466/15/9 465/16/9
f 469/13/6 468/14/6 459/15/6 466/16/6
f 468/13/10 467/14/10 460/15/10 459/16/10
f 475/37/5 476/49/5 477/55/5
f 477/55/5 478/54/5 479/39/5
f 475/37/5 477/55/5 479/39/5
f 479/39/5 480/53/5 481/52/5
f 479/39/5 481/52/5 482/51/5
f 479/39/5 482/51/5 483/50/5
f 479/39/5 483/50/5 475/37/5
f 484/49/3 485/37/3 486/50/3
f 484/49/3 486/50/3 487/51/3
f 484/49/3 487/51/3 488/52/3
f 488/52/3 489/53/3 490/39/3
f 484/49/3 488/52/3 490/39/3
f 490/39/3 491/54/3 492/55/3
f 490/39/3 492/55/3 484/49/3
f 476/40/27 477/39/27 492/38/27 484/37/27
f 477/40/28 478/39/28 491/38/28 492/37/28
f 478/40/1 479/39/1 490/38/1 491/37/1
f 479/40/4 480/39/4 489/38/4 490/37/4
f 480/40/2 481/39/2 488/38/2 489/37/2
f 481/40/29 482/39/29 487/38/29 488/37/29
f 482/40/2 483/39/2 486/38/2 487/37/2
f 483/40/30 475/39/30 485/38/30 486/37/30
f 475/40/6 476/39/6 484/38/6 485/37/6
f 493/56/1 494/57/1 495/58/1
f 493/56/1 495/58/1 496/59/1
f 493/56/1 496/59/1 497/60/1
f 497/60/1 498/61/1 493/56/1
f 499/57/2 500/56/2 501/61/2
f 499/57/2 501/61/2 502/60/2
f 499/57/2 502/60/2 503/59/2
f 503/59/2 504/58/2 499/57/2
f 499/37/15 504/62/15 495/63/15 494/40/15
f 504/62/5 503/64/5 496/65/5 495/63/5
f 503/64/16 502/66/16 497/67/16 496/65/16
f 502/66/17 501/68/17 498/69/17 497/67/17
f 501/68/3 500/70/3 493/71/3 498/69/3
f 500/70/18 499/38/18 494/39/18 493/71/18
f 505/72/1 506/57/1 507/73/1
f 505/72/1 507/73/1 508/66/1
f 505/72/1 508/66/1 509/74/1
f 505/72/1 509/74/1 510/60/1
f 505/72/1 510/60/1 511/75/1
f 511/75/1 512/67/1 505/72/1
f 513/57/2 514/72/2 515/67/2
f 513/57/2 515/67/2 516/75/2
f 513/57/2 516/75/2 517/60/2
f 513/57/2 517/60/2 518/74/2
f 513/57/2 518/74/2 519/66/2
f 519/66/2 520/73/2 513/57/2
f 513/37/19 520/76/19 507/77/19 506/40/19
f 520/76/20 519/78/20 508/79/20 507/77/20
f 519/78/21 518/80/21 509/81/21 508/79/21
f 518/80/22 517/66/22 510/67/22 509/81/22
f 517/66/23 516/82/23 511/83/23 510/67/23
f 516/82/24 515/84/24 512/85/24 511/83/24
f 515/84/25 514/86/25 505/87/25 512/85/25
f 514/86/26 513/38/26 506/39/26 505/87/26
f 521/56/1 522/57/1 523/58/1
f 521/56/1 523/58/1 524/59/1
f 521/56/1 524/59/1 525/60/1
f 525/60/1 526/61/1 521/56/1
f 527/57/2 528/56/2 529/61/2
f 527/57/2 529/61/2 530/60/2
f 527/57/2 530/60/2 531/59/2
f 531/59/2 532/58/2 527/57/2
f 527/37/15 532/62/15 523/63/15 522/40/15
f 532/62/5 531/64/5 524/65/5 523/63/5
f 531/64/16 530/66/16 525/67/16 524/65/16
f 530/66/17 529/68/17 526/69/17 525/67/17
f 529/68/3 528/70/3 521/71/3 526/69/3
f 528/70/18 527/38/18 522/39/18 521/71/18
f 533/56/1 534/57/1 535/58/1
f 533/56/1 535/58/1 536/59/1
f 533/56/1 536/59/1 537/60/1
f 537/60/1 538/61/1 533/56/1
f 539/57/2 540/56/2 541/61/2
f 539/57/2 541/61/2 542/60/2
f 539/57/2 542/60/2 543/59/2
f 543/59/2 544/58/2 539/57/2
f 539/37/15 544/62/15 535/63/15 534/40/15
f 544/62/5 543/64/5 536/65/5 535/63/5
f 543/64/16 542/66/16 537/67/16 536/65/16
f 542/66/17 541/68/17 538/69/17 537/67/17
f 541/68/3 540/70/3 533/71/3 538/69/3
f 540/70/18 539/38/18 534/39/18 533/71/18
g rail_right
usemtl mat
f 545/88/4 546/89/4 547/90/4 548/91/4
f 546/89/31 549/92/31 550/93/31 547/90/31
f 549/92/32 551/94/32 552/95/32 550/93/32
f 551/94/33 553/96/33 554/97/33 552/95/33
f 553/96/34 555/98/34 556/99/34 554/97/34
f 555/98/4 557/100/4 558/101/4 556/99/4
f 557/100/35 559/102/35 560/103/35 558/101/35
f 559/102/36 561/104/36 562/105/36 560/103/36
f 561/104/37 563/106/37 564/107/37 562/105/37
f 563/106/38 565/108/38 566/109/38 564/107/38
f 565/108/4 567/110/4 568/111/4 566/109/4
f 567/110/39 569/112/39 570/113/39 568/111/39
f 569/114/40 571/115/40 572/116/40 570/117/40
f 571/115/2 573/118/2 574/119/2 572/116/2
f 573/118/41 575/120/41 576/121/41 574/119/41
f 575/112/42 577/110/42 578/111/42 576/113/42
f 577/110/6 579/108/6 580/109/6 578/111/6
f 579/108/43 581/106/43 582/107/43 580/109/43
f 581/106/44 583/104/44 584/105/44 582/107/44
f 583/104/45 585/102/45 586/103/45 584/105/45
f 585/102/46 587/100/46 588/101/46 586/103/46
f 587/100/6 589/98/6 590/99/6 588/101/6
f 589/98/47 591/96/47 592/97/47 590/99/47
f 591/96/48 593/94/48 594/95/48 592/97/48
f 593/94/49 595/92/49 596/93/49 594/95/49
f 595/92/50 597/89/50 598/90/50 596/93/50
f 597/89/6 599/88/6 600/91/6 598/90/6
f 599/88/1 545/122/1 548/123/1 600/91/1
g rail_right_end
usemtl mat
f 545/124/3 599/125/3 597/126/3
f 545/124/3 597/126/3 595/127/3
f 545/124/3 595/127/3 593/128/3
f 545/124/3 593/128/3 591/129/3
f 585/130/3 583/131/3 581/132/3
f 585/130/3 581/132/3 579/133/3
f 585/130/3 579/133/3 577/134/3
f 585/130/3 577/134/3 575/135/3
f 585/130/3 575/135/3 573/136/3
f 587/137/3 585/130/3 573/136/3
f 587/137/3 573/136/3 571/138/3
f 587/137/3 571/138/3 569/139/3
f 587/137/3 569/139/3 567/140/3
f 587/137/3 567/140/3 565/141/3
f 587/137/3 565/141/3 563/142/3
f 563/142/3 561/143/3 559/144/3
f 587/137/3 563/142/3 559/144/3
f 587/137/3 559/144/3 557/145/3
f 589/146/3 587/137/3 557/145/3
f 591/129/3 589/146/3 557/145/3
f 591/129/3 557/145/3 555/147/3
f 591/129/3 555/147/3 553/148/3
f 591/129/3 553/148/3 551/149/3
f 545/124/3 591/129/3 551/149/3
f 545/124/3 551/149/3 549/150/3
f 549/150/3 546/151/3 545/124/3
f 600/125/5 548/124/5 547/151/5
f 600/125/5 547/151/5 550/150/5
f 600/125/5 550/150/5 552/149/5
f 600/125/5 552/149/5 554/148/5
f 560/144/5 562/143/5 564/142/5
f 560/144/5 564/142/5 566/141/5
f 560/144/5 566/141/5 568/140/5
f 560/144/5 568/140/5 570/139/5
f 560/144/5 570/139/5 572/138/5
f 558/145/5 560/144/5 572/138/5
f 558/145/5 572/138/5 574/136/5
f 558/145/5 574/136/5 576/135/5
f 558/145/5 576/135/5 578/134/5
f 558/145/5 578/134/5 580/133/5
f 558/145/5 580/133/5 582/132/5
f 582/132/5 584/131/5 586/130/5
f 558/145/5 582/132/5 586/130/5
f 558/145/5 586/130/5 588/137/5
f 556/147/5 558/145/5 588/137/5
f 554/148/5 556/147/5 588/137/5
f 554/148/5 588/137/5 590/146/5
f 554/148/5 590/146/5 592/129/5
f 554/148/5 592/129/5 594/128/5
f 600/125/5 554/148/5 594/128/5
f 600/125/5 594/128/5 596/127/5
f 596/127/5 598/126/5 600/125/5
