# metres; Y up; CCW outward; repeat 0.6 m
mtllib direct_low.mtl
v -1.012500 -0.268078 -0.300000
v -0.490500 -0.268078 -0.300000
v -0.490500 -0.268078 0.300000
v -1.012500 -0.268078 0.300000
v -1.012500 0.091422 0.300000
v -0.490500 0.091422 0.300000
v -0.490500 0.091422 -0.300000
v -1.012500 0.091422 -0.300000
v 0.490500 -0.268078 -0.300000
v 1.012500 -0.268078 -0.300000
v 1.012500 -0.268078 0.300000
v 0.490500 -0.268078 0.300000
v 0.490500 0.091422 0.300000
v 1.012500 0.091422 0.300000
v 1.012500 0.091422 -0.300000
v 0.490500 0.091422 -0.300000
v -0.827500 0.085422 -0.107000
v -0.675500 0.085422 -0.107000
v -0.675500 0.085422 0.107000
v -0.827500 0.085422 0.107000
v -0.827500 0.095422 -0.107000
v -0.675500 0.095422 -0.107000
v -0.675500 0.095422 0.107000
v -0.827500 0.095422 0.107000
v -0.826500 0.099422 0.106000
v -0.676500 0.099422 0.106000
v -0.676500 0.099422 -0.106000
v -0.826500 0.099422 -0.106000
v -0.676500 0.095422 -0.106000
v -0.826500 0.095422 -0.106000
v -0.676500 0.095422 0.106000
v -0.826500 0.095422 0.106000
v -0.896500 0.109422 0.105000
v -0.606500 0.109422 0.105000
v -0.606500 0.109422 -0.105000
v -0.896500 0.109422 -0.105000
v -0.606500 0.099422 -0.105000
v -0.896500 0.099422 -0.105000
v -0.606500 0.099422 0.105000
v -0.896500 0.099422 0.105000
v -0.946500 0.085422 -0.103000
v -0.820500 0.085422 -0.103000
v -0.820500 0.085422 0.103000
v -0.946500 0.085422 0.103000
v -0.946500 0.095422 0.103000
v -0.820500 0.095422 0.103000
v -0.820500 0.095422 -0.103000
v -0.946500 0.095422 -0.103000
v -0.950500 0.095422 -0.107000
v -0.934500 0.095422 -0.107000
v -0.934500 0.095422 0.107000
v -0.950500 0.095422 0.107000
v -0.950500 0.126422 0.107000
v -0.934500 0.126422 0.107000
v -0.934500 0.126422 -0.107000
v -0.950500 0.126422 -0.107000
v -0.682500 0.085422 -0.103000
v -0.556500 0.085422 -0.103000
v -0.556500 0.085422 0.103000
v -0.682500 0.085422 0.103000
v -0.682500 0.095422 0.103000
v -0.556500 0.095422 0.103000
v -0.556500 0.095422 -0.103000
v -0.682500 0.095422 -0.103000
v -0.568500 0.095422 -0.107000
v -0.552500 0.095422 -0.107000
v -0.552500 0.095422 0.107000
v -0.568500 0.095422 0.107000
v -0.568500 0.126422 0.107000
v -0.552500 0.126422 0.107000
v -0.552500 0.126422 -0.107000
v -0.568500 0.126422 -0.107000
v -0.681500 0.099422 -0.300000
v -0.681500 0.108000 -0.300000
v -0.681500 0.108000 0.300000
v -0.681500 0.099422 0.300000
v -0.687500 0.113000 -0.300000
v -0.687500 0.113000 0.300000
v -0.725500 0.124000 -0.300000
v -0.725500 0.124000 0.300000
v -0.739500 0.134000 -0.300000
v -0.739500 0.134000 0.300000
v -0.742500 0.145000 -0.300000
v -0.742500 0.145000 0.300000
v -0.742500 0.207000 -0.300000
v -0.742500 0.207000 0.300000
v -0.738500 0.219000 -0.300000
v -0.738500 0.219000 0.300000
v -0.724500 0.225000 -0.300000
v -0.724500 0.225000 0.300000
v -0.718500 0.231000 -0.300000
v -0.718500 0.231000 0.300000
v -0.717500 0.239000 -0.300000
v -0.717500 0.239000 0.300000
v -0.717500 0.254000 -0.300000
v -0.717500 0.254000 0.300000
v -0.719500 0.260000 -0.300000
v -0.719500 0.260000 0.300000
v -0.725500 0.264280 -0.300000
v -0.725500 0.264280 0.300000
v -0.777500 0.264280 -0.300000
v -0.777500 0.264280 0.300000
v -0.783500 0.260000 -0.300000
v -0.783500 0.260000 0.300000
v -0.785500 0.254000 -0.300000
v -0.785500 0.254000 0.300000
v -0.785500 0.239000 -0.300000
v -0.785500 0.239000 0.300000
v -0.784500 0.231000 -0.300000
v -0.784500 0.231000 0.300000
v -0.778500 0.225000 -0.300000
v -0.778500 0.225000 0.300000
v -0.764500 0.219000 -0.300000
v -0.764500 0.219000 0.300000
v -0.760500 0.207000 -0.300000
v -0.760500 0.207000 0.300000
v -0.760500 0.145000 -0.300000
v -0.760500 0.145000 0.300000
v -0.763500 0.134000 -0.300000
v -0.763500 0.134000 0.300000
v -0.777500 0.124000 -0.300000
v -0.777500 0.124000 0.300000
v -0.815500 0.113000 -0.300000
v -0.815500 0.113000 0.300000
v -0.821500 0.108000 -0.300000
v -0.821500 0.108000 0.300000
v -0.821500 0.099422 -0.300000
v -0.821500 0.099422 0.300000
v 0.675500 0.085422 -0.107000
v 0.827500 0.085422 -0.107000
v 0.827500 0.085422 0.107000
v 0.675500 0.085422 0.107000
v 0.675500 0.095422 -0.107000
v 0.827500 0.095422 -0.107000
v 0.827500 0.095422 0.107000
v 0.675500 0.095422 0.107000
v 0.676500 0.099422 0.106000
v 0.826500 0.099422 0.106000
v 0.826500 0.099422 -0.106000
v 0.676500 0.099422 -0.106000
v 0.826500 0.095422 -0.106000
v 0.676500 0.095422 -0.106000
v 0.826500 0.095422 0.106000
v 0.676500 0.095422 0.106000
v 0.606500 0.109422 0.105000
v 0.896500 0.109422 0.105000
v 0.896500 0.109422 -0.105000
v 0.606500 0.109422 -0.105000
v 0.896500 0.099422 -0.105000
v 0.606500 0.099422 -0.105000
v 0.896500 0.099422 0.105000
v 0.606500 0.099422 0.105000
v 0.556500 0.085422 -0.103000
v 0.682500 0.085422 -0.103000
v 0.682500 0.085422 0.103000
v 0.556500 0.085422 0.103000
v 0.556500 0.095422 0.103000
v 0.682500 0.095422 0.103000
v 0.682500 0.095422 -0.103000
v 0.556500 0.095422 -0.103000
v 0.552500 0.095422 -0.107000
v 0.568500 0.095422 -0.107000
v 0.568500 0.095422 0.107000
v 0.552500 0.095422 0.107000
v 0.552500 0.126422 0.107000
v 0.568500 0.126422 0.107000
v 0.568500 0.126422 -0.107000
v 0.552500 0.126422 -0.107000
v 0.820500 0.085422 -0.103000
v 0.946500 0.085422 -0.103000
v 0.946500 0.085422 0.103000
v 0.820500 0.085422 0.103000
v 0.820500 0.095422 0.103000
v 0.946500 0.095422 0.103000
v 0.946500 0.095422 -0.103000
v 0.820500 0.095422 -0.103000
v 0.934500 0.095422 -0.107000
v 0.950500 0.095422 -0.107000
v 0.950500 0.095422 0.107000
v 0.934500 0.095422 0.107000
v 0.934500 0.126422 0.107000
v 0.950500 0.126422 0.107000
v 0.950500 0.126422 -0.107000
v 0.934500 0.126422 -0.107000
v 0.821500 0.099422 -0.300000
v 0.821500 0.108000 -0.300000
v 0.821500 0.108000 0.300000
v 0.821500 0.099422 0.300000
v 0.815500 0.113000 -0.300000
v 0.815500 0.113000 0.300000
v 0.777500 0.124000 -0.300000
v 0.777500 0.124000 0.300000
v 0.763500 0.134000 -0.300000
v 0.763500 0.134000 0.300000
v 0.760500 0.145000 -0.300000
v 0.760500 0.145000 0.300000
v 0.760500 0.207000 -0.300000
v 0.760500 0.207000 0.300000
v 0.764500 0.219000 -0.300000
v 0.764500 0.219000 0.300000
v 0.778500 0.225000 -0.300000
v 0.778500 0.225000 0.300000
v 0.784500 0.231000 -0.300000
v 0.784500 0.231000 0.300000
v 0.785500 0.239000 -0.300000
v 0.785500 0.239000 0.300000
v 0.785500 0.254000 -0.300000
v 0.785500 0.254000 0.300000
v 0.783500 0.260000 -0.300000
v 0.783500 0.260000 0.300000
v 0.777500 0.264280 -0.300000
v 0.777500 0.264280 0.300000
v 0.725500 0.264280 -0.300000
v 0.725500 0.264280 0.300000
v 0.719500 0.260000 -0.300000
v 0.719500 0.260000 0.300000
v 0.717500 0.254000 -0.300000
v 0.717500 0.254000 0.300000
v 0.717500 0.239000 -0.300000
v 0.717500 0.239000 0.300000
v 0.718500 0.231000 -0.300000
v 0.718500 0.231000 0.300000
v 0.724500 0.225000 -0.300000
v 0.724500 0.225000 0.300000
v 0.738500 0.219000 -0.300000
v 0.738500 0.219000 0.300000
v 0.742500 0.207000 -0.300000
v 0.742500 0.207000 0.300000
v 0.742500 0.145000 -0.300000
v 0.742500 0.145000 0.300000
v 0.739500 0.134000 -0.300000
v 0.739500 0.134000 0.300000
v 0.725500 0.124000 -0.300000
v 0.725500 0.124000 0.300000
v 0.687500 0.113000 -0.300000
v 0.687500 0.113000 0.300000
v 0.681500 0.108000 -0.300000
v 0.681500 0.108000 0.300000
v 0.681500 0.099422 -0.300000
v 0.681500 0.099422 0.300000
vt 0.01062500 0.01585821
vt 0.32937500 0.01585821
vt 0.32937500 0.49160448
vt 0.01062500 0.49160448
vt 0.60837500 0.02537313
vt 0.65300000 0.02537313
vt 0.65300000 0.19664179
vt 0.60837500 0.19664179
vt 0.60837500 0.48208955
vt 0.65300000 0.48208955
vt 0.65300000 0.31082090
vt 0.60837500 0.31082090
vt 0.34062500 0.49160448
vt 0.57968750 0.49160448
vt 0.57968750 0.01585821
vt 0.34062500 0.01585821
vt 0.01062500 0.50839552
vt 0.01062500 0.53314987
vt 0.32937500 0.53314987
vt 0.32937500 0.50839552
vt 0.01062500 0.54757884
vt 0.32937500 0.54757884
vt 0.01062500 0.57932257
vt 0.32937500 0.57932257
vt 0.01062500 0.60818052
vt 0.32937500 0.60818052
vt 0.01062500 0.63992425
vt 0.32937500 0.63992425
vt 0.01062500 0.81884350
vt 0.32937500 0.81884350
vt 0.01062500 0.85347303
vt 0.32937500 0.85347303
vt 0.01062500 0.87078779
vt 0.32937500 0.87078779
vt 0.01062500 0.88810256
vt 0.32937500 0.88810256
vt 0.01062500 0.91118891
vt 0.32937500 0.91118891
vt 0.01062500 0.95447583
vt 0.32937500 0.95447583
vt 0.01062500 0.97179059
vt 0.32937500 0.97179059
vt 0.34062500 0.97014925
vt 0.34062500 0.92817164
vt 0.65937500 0.92817164
vt 0.65937500 0.97014925
vt 0.34062500 0.56436567
vt 0.65937500 0.56436567
vt 0.34062500 0.52238806
vt 0.65937500 0.52238806
vt 0.01062500 0.57500000
vt 0.32937500 0.57500000
vt 0.98937500 0.50839552
vt 0.67062500 0.50839552
vt 0.67062500 0.53314987
vt 0.68428571 0.54757884
vt 0.77080357 0.57932257
vt 0.80267857 0.60818052
vt 0.80040179 0.85347303
vt 0.76852679 0.87078779
vt 0.75486607 0.88810256
vt 0.75258929 0.91118891
vt 0.75258929 0.95447583
vt 0.75714286 0.97179059
vt 0.77080357 0.98414179
vt 0.80950893 0.81884350
vt 0.88919643 0.98414179
vt 0.90285714 0.97179059
vt 0.90741071 0.95447583
vt 0.90741071 0.91118891
vt 0.90513393 0.88810256
vt 0.89147321 0.87078779
vt 0.85959821 0.85347303
vt 0.85049107 0.81884350
vt 0.80950893 0.63992425
vt 0.85049107 0.63992425
vt 0.85732143 0.60818052
vt 0.88919643 0.57932257
vt 0.97571429 0.54757884
vt 0.98937500 0.53314987
vn 0.00000000 -1.00000000 0.00000000
vn -0.00000000 1.00000000 0.00000000
vn 0.00000000 0.00000000 -1.00000000
vn 1.00000000 0.00000000 -0.00000000
vn 0.00000000 0.00000000 1.00000000
vn -1.00000000 0.00000000 -0.00000000
vn 0.64018440 0.76822128 0.00000000
vn 0.27805808 0.96056426 0.00000000
vn 0.58123819 0.81373347 0.00000000
vn 0.96476382 0.26311741 0.00000000
vn 0.94868330 -0.31622777 0.00000000
vn 0.39391930 -0.91914503 0.00000000
vn 0.70710678 -0.70710678 0.00000000
vn 0.99227788 -0.12403473 0.00000000
vn 0.94868330 0.31622777 0.00000000
vn 0.58072468 0.81410002 0.00000000
vn -0.58072468 0.81410002 0.00000000
vn -0.94868330 0.31622777 0.00000000
vn -0.99227788 -0.12403473 0.00000000
vn -0.70710678 -0.70710678 0.00000000
vn -0.39391930 -0.91914503 0.00000000
vn -0.94868330 -0.31622777 0.00000000
vn -0.96476382 0.26311741 0.00000000
vn -0.58123819 0.81373347 0.00000000
vn -0.27805808 0.96056426 0.00000000
vn -0.64018440 0.76822128 0.00000000
g direct_bearer
usemtl mat
f 1/1/1 2/2/1 3/3/1 4/4/1
f 5/4/2 6/3/2 7/2/2 8/1/2
f 8/4/3 7/3/3 2/2/3 1/1/3
f 7/4/4 6/3/4 3/2/4 2/1/4
f 6/4/5 5/3/5 4/2/5 3/1/5
f 5/4/6 8/3/6 1/2/6 4/1/6
f 9/1/1 10/2/1 11/3/1 12/4/1
f 13/4/2 14/3/2 15/2/2 16/1/2
f 16/4/3 15/3/3 10/2/3 9/1/3
f 15/4/4 14/3/4 11/2/4 10/1/4
f 14/4/5 13/3/5 12/2/5 11/1/5
f 13/4/6 16/3/6 9/2/6 12/1/6
g fastener_left
usemtl mat
f 17/5/1 18/6/1 19/7/1 20/8/1
f 21/8/3 22/7/3 18/6/3 17/5/3
f 22/8/4 23/7/4 19/6/4 18/5/4
f 23/8/5 24/7/5 20/6/5 19/5/5
f 24/8/6 21/7/6 17/6/6 20/5/6
f 25/9/2 26/10/2 27/11/2 28/12/2
f 28/9/3 27/10/3 29/11/3 30/12/3
f 27/9/4 26/10/4 31/11/4 29/12/4
f 26/9/5 25/10/5 32/11/5 31/12/5
f 25/9/6 28/10/6 30/11/6 32/12/6
f 33/13/2 34/14/2 35/15/2 36/16/2
f 36/13/3 35/14/3 37/15/3 38/16/3
f 35/13/4 34/14/4 39/15/4 37/16/4
f 34/13/5 33/14/5 40/15/5 39/16/5
f 33/13/6 36/14/6 38/15/6 40/16/6
f 41/16/1 42/15/1 43/14/1 44/13/1
f 45/13/2 46/14/2 47/15/2 48/16/2
f 48/13/3 47/14/3 42/15/3 41/16/3
f 47/13/4 46/14/4 43/15/4 42/16/4
f 46/13/5 45/14/5 44/15/5 43/16/5
f 45/13/6 48/14/6 41/15/6 44/16/6
f 49/5/1 50/6/1 51/7/1 52/8/1
f 53/8/2 54/7/2 55/6/2 56/5/2
f 56/8/3 55/7/3 50/6/3 49/5/3
f 55/8/4 54/7/4 51/6/4 50/5/4
f 54/8/5 53/7/5 52/6/5 51/5/5
f 53/8/6 56/7/6 49/6/6 52/5/6
f 57/16/1 58/15/1 59/14/1 60/13/1
f 61/13/2 62/14/2 63/15/2 64/16/2
f 64/13/3 63/14/3 58/15/3 57/16/3
f 63/13/4 62/14/4 59/15/4 58/16/4
f 62/13/5 61/14/5 60/15/5 59/16/5
f 61/13/6 64/14/6 57/15/6 60/16/6
f 65/5/1 66/6/1 67/7/1 68/8/1
f 69/8/2 70/7/2 71/6/2 72/5/2
f 72/8/3 71/7/3 66/6/3 65/5/3
f 71/8/4 70/7/4 67/6/4 66/5/4
f 70/8/5 69/7/5 68/6/5 67/5/5
f 69/8/6 72/7/6 65/6/6 68/5/6
g rail_left
usemtl mat
f 73/17/4 74/18/4 75/19/4 76/20/4
f 74/18/7 77/21/7 78/22/7 75/19/7
f 77/21/8 79/23/8 80/24/8 78/22/8
f 79/23/9 81/25/9 82/26/9 80/24/9
f 81/25/10 83/27/10 84/28/10 82/26/10
f 83/27/4 85/29/4 86/30/4 84/28/4
f 85/29/11 87/31/11 88/32/11 86/30/11
f 87/31/12 89/33/12 90/34/12 88/32/12
f 89/33/13 91/35/13 92/36/13 90/34/13
f 91/35/14 93/37/14 94/38/14 92/36/14
f 93/37/4 95/39/4 96/40/4 94/38/4
f 95/39/15 97/41/15 98/42/15 96/40/15
f 97/43/16 99/44/16 100/45/16 98/46/16
f 99/44/2 101/47/2 102/48/2 100/45/2
f 101/47/17 103/49/17 104/50/17 102/48/17
f 103/41/18 105/39/18 106/40/18 104/42/18
f 105/39/6 107/37/6 108/38/6 106/40/6
f 107/37/19 109/35/19 110/36/19 108/38/19
f 109/35/20 111/33/20 112/34/20 110/36/20
f 111/33/21 113/31/21 114/32/21 112/34/21
f 113/31/22 115/29/22 116/30/22 114/32/22
f 115/29/6 117/27/6 118/28/6 116/30/6
f 117/27/23 119/25/23 120/26/23 118/28/23
f 119/25/24 121/23/24 122/24/24 120/26/24
f 121/23/25 123/21/25 124/22/25 122/24/25
f 123/21/26 125/18/26 126/19/26 124/22/26
f 125/18/6 127/17/6 128/20/6 126/19/6
f 127/17/1 73/51/1 76/52/1 128/20/1
g rail_left_end
usemtl mat
f 73/53/3 127/54/3 125/55/3
f 73/53/3 125/55/3 123/56/3
f 73/53/3 123/56/3 121/57/3
f 73/53/3 121/57/3 119/58/3
f 113/59/3 111/60/3 109/61/3
f 113/59/3 109/61/3 107/62/3
f 113/59/3 107/62/3 105/63/3
f 113/59/3 105/63/3 103/64/3
f 113/59/3 103/64/3 101/65/3
f 115/66/3 113/59/3 101/65/3
f 115/66/3 101/65/3 99/67/3
f 115/66/3 99/67/3 97/68/3
f 115/66/3 97/68/3 95/69/3
f 115/66/3 95/69/3 93/70/3
f 115/66/3 93/70/3 91/71/3
f 91/71/3 89/72/3 87/73/3
f 115/66/3 91/71/3 87/73/3
f 115/66/3 87/73/3 85/74/3
f 117/75/3 115/66/3 85/74/3
f 119/58/3 117/75/3 85/74/3
f 119/58/3 85/74/3 83/76/3
f 119/58/3 83/76/3 81/77/3
f 119/58/3 81/77/3 79/78/3
f 73/53/3 119/58/3 79/78/3
f 73/53/3 79/78/3 77/79/3
f 77/79/3 74/80/3 73/53/3
f 128/54/5 76/53/5 75/80/5
f 128/54/5 75/80/5 78/79/5
f 128/54/5 78/79/5 80/78/5
f 128/54/5 80/78/5 82/77/5
f 88/73/5 90/72/5 92/71/5
f 88/73/5 92/71/5 94/70/5
f 88/73/5 94/70/5 96/69/5
f 88/73/5 96/69/5 98/68/5
f 88/73/5 98/68/5 100/67/5
f 86/74/5 88/73/5 100/67/5
f 86/74/5 100/67/5 102/65/5
f 86/74/5 102/65/5 104/64/5
f 86/74/5 104/64/5 106/63/5
f 86/74/5 106/63/5 108/62/5
f 86/74/5 108/62/5 110/61/5
f 110/61/5 112/60/5 114/59/5
f 86/74/5 110/61/5 114/59/5
f 86/74/5 114/59/5 116/66/5
f 84/76/5 86/74/5 116/66/5
f 82/77/5 84/76/5 116/66/5
f 82/77/5 116/66/5 118/75/5
f 82/77/5 118/75/5 120/58/5
f 82/77/5 120/58/5 122/57/5
f 128/54/5 82/77/5 122/57/5
f 128/54/5 122/57/5 124/56/5
f 124/56/5 126/55/5 128/54/5
g fastener_right
usemtl mat
f 129/5/1 130/6/1 131/7/1 132/8/1
f 133/8/3 134/7/3 130/6/3 129/5/3
f 134/8/4 135/7/4 131/6/4 130/5/4
f 135/8/5 136/7/5 132/6/5 131/5/5
f 136/8/6 133/7/6 129/6/6 132/5/6
f 137/9/2 138/10/2 139/11/2 140/12/2
f 140/9/3 139/10/3 141/11/3 142/12/3
f 139/9/4 138/10/4 143/11/4 141/12/4
f 138/9/5 137/10/5 144/11/5 143/12/5
f 137/9/6 140/10/6 142/11/6 144/12/6
f 145/13/2 146/14/2 147/15/2 148/16/2
f 148/13/3 147/14/3 149/15/3 150/16/3
f 147/13/4 146/14/4 151/15/4 149/16/4
f 146/13/5 145/14/5 152/15/5 151/16/5
f 145/13/6 148/14/6 150/15/6 152/16/6
f 153/16/1 154/15/1 155/14/1 156/13/1
f 157/13/2 158/14/2 159/15/2 160/16/2
f 160/13/3 159/14/3 154/15/3 153/16/3
f 159/13/4 158/14/4 155/15/4 154/16/4
f 158/13/5 157/14/5 156/15/5 155/16/5
f 157/13/6 160/14/6 153/15/6 156/16/6
f 161/5/1 162/6/1 163/7/1 164/8/1
f 165/8/2 166/7/2 167/6/2 168/5/2
f 168/8/3 167/7/3 162/6/3 161/5/3
f 167/8/4 166/7/4 163/6/4 162/5/4
f 166/8/5 165/7/5 164/6/5 163/5/5
f 165/8/6 168/7/6 161/6/6 164/5/6
f 169/16/1 170/15/1 171/14/1 172/13/1
f 173/13/2 174/14/2 175/15/2 176/16/2
f 176/13/3 175/14/3 170/15/3 169/16/3
f 175/13/4 174/14/4 171/15/4 170/16/4
f 174/13/5 173/14/5 172/15/5 171/16/5
f 173/13/6 176/14/6 169/15/6 172/16/6
f 177/5/1 178/6/1 179/7/1 180/8/1
f 181/8/2 182/7/2 183/6/2 184/5/2
f 184/8/3 183/7/3 178/6/3 177/5/3
f 183/8/4 182/7/4 179/6/4 178/5/4
f 182/8/5 181/7/5 180/6/5 179/5/5
f 181/8/6 184/7/6 177/6/6 180/5/6
g rail_right
usemtl mat
f 185/17/4 186/18/4 187/19/4 188/20/4
f 186/18/7 189/21/7 190/22/7 187/19/7
f 189/21/8 191/23/8 192/24/8 190/22/8
f 191/23/9 193/25/9 194/26/9 192/24/9
f 193/25/10 195/27/10 196/28/10 194/26/10
f 195/27/4 197/29/4 198/30/4 196/28/4
f 197/29/11 199/31/11 200/32/11 198/30/11
f 199/31/12 201/33/12 202/34/12 200/32/12
f 201/33/13 203/35/13 204/36/13 202/34/13
f 203/35/14 205/37/14 206/38/14 204/36/14
f 205/37/4 207/39/4 208/40/4 206/38/4
f 207/39/15 209/41/15 210/42/15 208/40/15
f 209/43/16 211/44/16 212/45/16 210/46/16
f 211/44/2 213/47/2 214/48/2 212/45/2
f 213/47/17 215/49/17 216/50/17 214/48/17
f 215/41/18 217/39/18 218/40/18 216/42/18
f 217/39/6 219/37/6 220/38/6 218/40/6
f 219/37/19 221/35/19 222/36/19 220/38/19
f 221/35/20 223/33/20 224/34/20 222/36/20
f 223/33/21 225/31/21 226/32/21 224/34/21
f 225/31/22 227/29/22 228/30/22 226/32/22
f 227/29/6 229/27/6 230/28/6 228/30/6
f 229/27/23 231/25/23 232/26/23 230/28/23
f 231/25/24 233/23/24 234/24/24 232/26/24
f 233/23/25 235/21/25 236/22/25 234/24/25
f 235/21/26 237/18/26 238/19/26 236/22/26
f 237/18/6 239/17/6 240/20/6 238/19/6
f 239/17/1 185/51/1 188/52/1 240/20/1
g rail_right_end
usemtl mat
f 185/53/3 239/54/3 237/55/3
f 185/53/3 237/55/3 235/56/3
f 185/53/3 235/56/3 233/57/3
f 185/53/3 233/57/3 231/58/3
f 225/59/3 223/60/3 221/61/3
f 225/59/3 221/61/3 219/62/3
f 225/59/3 219/62/3 217/63/3
f 225/59/3 217/63/3 215/64/3
f 225/59/3 215/64/3 213/65/3
f 227/66/3 225/59/3 213/65/3
f 227/66/3 213/65/3 211/67/3
f 227/66/3 211/67/3 209/68/3
f 227/66/3 209/68/3 207/69/3
f 227/66/3 207/69/3 205/70/3
f 227/66/3 205/70/3 203/71/3
f 203/71/3 201/72/3 199/73/3
f 227/66/3 203/71/3 199/73/3
f 227/66/3 199/73/3 197/74/3
f 229/75/3 227/66/3 197/74/3
f 231/58/3 229/75/3 197/74/3
f 231/58/3 197/74/3 195/76/3
f 231/58/3 195/76/3 193/77/3
f 231/58/3 193/77/3 191/78/3
f 185/53/3 231/58/3 191/78/3
f 185/53/3 191/78/3 189/79/3
f 189/79/3 186/80/3 185/53/3
f 240/54/5 188/53/5 187/80/5
f 240/54/5 187/80/5 190/79/5
f 240/54/5 190/79/5 192/78/5
f 240/54/5 192/78/5 194/77/5
f 200/73/5 202/72/5 204/71/5
f 200/73/5 204/71/5 206/70/5
f 200/73/5 206/70/5 208/69/5
f 200/73/5 208/69/5 210/68/5
f 200/73/5 210/68/5 212/67/5
f 198/74/5 200/73/5 212/67/5
f 198/74/5 212/67/5 214/65/5
f 198/74/5 214/65/5 216/64/5
f 198/74/5 216/64/5 218/63/5
f 198/74/5 218/63/5 220/62/5
f 198/74/5 220/62/5 222/61/5
f 222/61/5 224/60/5 226/59/5
f 198/74/5 222/61/5 226/59/5
f 198/74/5 226/59/5 228/66/5
f 196/76/5 198/74/5 228/66/5
f 194/77/5 196/76/5 228/66/5
f 194/77/5 228/66/5 230/75/5
f 194/77/5 230/75/5 232/58/5
f 194/77/5 232/58/5 234/57/5
f 240/54/5 194/77/5 234/57/5
f 240/54/5 234/57/5 236/56/5
f 236/56/5 238/55/5 240/54/5
