# metres; Y up; CCW outward; repeat 0.6 m
mtllib fastener.mtl
v -0.076000 0.085422 -0.101000
v -0.070000 0.085422 -0.107000
v 0.070000 0.085422 -0.107000
v 0.076000 0.085422 -0.101000
v 0.076000 0.085422 0.101000
v 0.070000 0.085422 0.107000
v -0.070000 0.085422 0.107000
v -0.076000 0.085422 0.101000
v -0.070000 0.095422 -0.107000
v 0.070000 0.095422 -0.107000
v 0.076000 0.095422 -0.101000
v 0.076000 0.095422 0.101000
v 0.070000 0.095422 0.107000
v -0.070000 0.095422 0.107000
v -0.076000 0.095422 0.101000
v -0.076000 0.095422 -0.101000
v -0.069000 0.099422 -0.106000
v -0.075000 0.099422 -0.100000
v -0.075000 0.099422 0.100000
v -0.069000 0.099422 0.106000
v 0.069000 0.099422 0.106000
v 0.075000 0.099422 0.100000
v 0.075000 0.099422 -0.100000
v 0.069000 0.099422 -0.106000
v 0.069000 0.095422 -0.106000
v -0.069000 0.095422 -0.106000
v 0.075000 0.095422 -0.100000
v 0.075000 0.095422 0.100000
v 0.069000 0.095422 0.106000
v -0.069000 0.095422 0.106000
v -0.075000 0.095422 0.100000
v -0.075000 0.095422 -0.100000
v -0.195000 0.085422 -0.100000
v -0.192000 0.085422 -0.103000
v -0.072000 0.085422 -0.103000
v -0.069000 0.085422 -0.100000
v -0.069000 0.085422 0.100000
v -0.072000 0.085422 0.103000
v -0.192000 0.085422 0.103000
v -0.195000 0.085422 0.100000
v -0.192000 0.095422 -0.103000
v -0.195000 0.095422 -0.100000
v -0.195000 0.095422 0.100000
v -0.192000 0.095422 0.103000
v -0.072000 0.095422 0.103000
v -0.069000 0.095422 0.100000
v -0.069000 0.095422 -0.100000
v -0.072000 0.095422 -0.103000
v -0.199000 0.095422 -0.105000
v -0.197000 0.095422 -0.107000
v -0.185000 0.095422 -0.107000
v -0.183000 0.095422 -0.105000
v -0.183000 0.095422 0.105000
v -0.185000 0.095422 0.107000
v -0.197000 0.095422 0.107000
v -0.199000 0.095422 0.105000
v -0.197000 0.126422 -0.107000
v -0.199000 0.126422 -0.105000
v -0.199000 0.126422 0.105000
v -0.197000 0.126422 0.107000
v -0.185000 0.126422 0.107000
v -0.183000 0.126422 0.105000
v -0.183000 0.126422 -0.105000
v -0.185000 0.126422 -0.107000
v -0.042000 0.119400 -0.105000
v -0.042000 0.129000 -0.105000
v -0.068000 0.123500 -0.105000
v -0.076000 0.123500 -0.105000
v -0.150000 0.109500 -0.105000
v -0.188000 0.109500 -0.105000
v -0.188000 0.095422 -0.105000
v -0.082000 0.095422 -0.105000
v -0.070000 0.108000 -0.105000
v -0.042000 0.129000 0.105000
v -0.042000 0.119400 0.105000
v -0.070000 0.108000 0.105000
v -0.082000 0.095422 0.105000
v -0.188000 0.095422 0.105000
v -0.188000 0.109500 0.105000
v -0.150000 0.109500 0.105000
v -0.076000 0.123500 0.105000
v -0.068000 0.123500 0.105000
v -0.124910 0.095422 -0.005878
v -0.123000 0.095422 0.000000
v -0.124910 0.095422 0.005878
v -0.129910 0.095422 0.009511
v -0.136090 0.095422 0.009511
v -0.141090 0.095422 0.005878
v -0.143000 0.095422 0.000000
v -0.141090 0.095422 -0.005878
v -0.136090 0.095422 -0.009511
v -0.129910 0.095422 -0.009511
v -0.123000 0.192000 0.000000
v -0.124910 0.192000 -0.005878
v -0.129910 0.192000 -0.009511
v -0.136090 0.192000 -0.009511
v -0.141090 0.192000 -0.005878
v -0.143000 0.192000 0.000000
v -0.141090 0.192000 0.005878
v -0.136090 0.192000 0.009511
v -0.129910 0.192000 0.009511
v -0.124910 0.192000 0.005878
v -0.107019 0.162000 -0.015000
v -0.103000 0.162000 0.000000
v -0.107019 0.162000 0.015000
v -0.118000 0.162000 0.025981
v -0.133000 0.162000 0.030000
v -0.148000 0.162000 0.025981
v -0.158981 0.162000 0.015000
v -0.163000 0.162000 0.000000
v -0.158981 0.162000 -0.015000
v -0.148000 0.162000 -0.025981
v -0.133000 0.162000 -0.030000
v -0.118000 0.162000 -0.025981
v -0.103000 0.168000 0.000000
v -0.107019 0.168000 -0.015000
v -0.118000 0.168000 -0.025981
v -0.133000 0.168000 -0.030000
v -0.148000 0.168000 -0.025981
v -0.158981 0.168000 -0.015000
v -0.163000 0.168000 0.000000
v -0.158981 0.168000 0.015000
v -0.148000 0.168000 0.025981
v -0.133000 0.168000 0.030000
v -0.118000 0.168000 0.025981
v -0.107019 0.168000 0.015000
v -0.123000 0.168000 -0.017321
v -0.113000 0.168000 0.000000
v -0.123000 0.168000 0.017321
v -0.143000 0.168000 0.017321
v -0.153000 0.168000 0.000000
v -0.143000 0.168000 -0.017321
v -0.113000 0.186000 0.000000
v -0.123000 0.186000 -0.017321
v -0.143000 0.186000 -0.017321
v -0.153000 0.186000 0.000000
v -0.143000 0.186000 0.017321
v -0.123000 0.186000 0.017321
v -0.124000 0.186000 -0.015588
v -0.115000 0.186000 0.000000
v -0.124000 0.186000 0.015588
v -0.142000 0.186000 0.015588
v -0.151000 0.186000 0.000000
v -0.142000 0.186000 -0.015588
v -0.115000 0.189000 0.000000
v -0.124000 0.189000 -0.015588
v -0.142000 0.189000 -0.015588
v -0.151000 0.189000 0.000000
v -0.142000 0.189000 0.015588
v -0.124000 0.189000 0.015588
v -0.070073 0.137000 -0.070926
v -0.059968 0.132000 -0.042780
v -0.064414 0.124757 -0.042634
v -0.074924 0.130039 -0.070415
v -0.072447 0.124757 -0.039854
v -0.081852 0.130039 -0.065489
v -0.076032 0.132000 -0.037220
v -0.083927 0.137000 -0.061074
v -0.071586 0.139243 -0.037366
v -0.079076 0.143961 -0.061585
v -0.063553 0.139243 -0.040146
v -0.072148 0.143961 -0.066511
v -0.096702 0.151000 -0.092834
v -0.100438 0.143996 -0.089796
v -0.103737 0.143996 -0.081962
v -0.103298 0.151000 -0.077166
v -0.099562 0.158004 -0.080204
v -0.096263 0.158004 -0.088038
v -0.134806 0.157000 -0.098462
v -0.134056 0.149647 -0.094264
v -0.133250 0.149647 -0.085802
v -0.133194 0.157000 -0.081538
v -0.133944 0.164353 -0.085736
v -0.134750 0.164353 -0.094198
v -0.168100 0.148000 -0.085800
v -0.162658 0.141587 -0.084569
v -0.157558 0.141587 -0.077769
v -0.157900 0.148000 -0.072200
v -0.163342 0.154413 -0.073431
v -0.168442 0.154413 -0.080231
v -0.186446 0.126000 -0.057960
v -0.181757 0.119906 -0.061582
v -0.173311 0.119906 -0.060622
v -0.169554 0.126000 -0.056040
v -0.174243 0.132094 -0.052418
v -0.182689 0.132094 -0.053378
v -0.173459 0.118000 -0.028485
v -0.170379 0.110653 -0.031449
v -0.164921 0.110653 -0.037964
v -0.162541 0.118000 -0.041515
v -0.165621 0.125347 -0.038551
v -0.171079 0.125347 -0.032036
v -0.143780 0.129000 -0.017968
v -0.138893 0.122637 -0.020773
v -0.136113 0.122637 -0.028806
v -0.138220 0.129000 -0.034032
v -0.143107 0.135363 -0.031227
v -0.145887 0.135363 -0.023194
v -0.121360 0.150000 -0.010403
v -0.115633 0.143773 -0.011226
v -0.110273 0.143773 -0.017822
v -0.110640 0.150000 -0.023597
v -0.116367 0.156227 -0.022774
v -0.121727 0.156227 -0.016178
v -0.117500 0.155000 0.000000
v -0.113250 0.147639 0.000000
v -0.104750 0.147639 0.000000
v -0.100500 0.155000 0.000000
v -0.104750 0.162361 0.000000
v -0.113250 0.162361 0.000000
v -0.121360 0.150000 0.010403
v -0.115633 0.143773 0.011226
v -0.110273 0.143773 0.017822
v -0.110640 0.150000 0.023597
v -0.116367 0.156227 0.022774
v -0.121727 0.156227 0.016178
v -0.143780 0.129000 0.017968
v -0.138893 0.122637 0.020773
v -0.136113 0.122637 0.028806
v -0.138220 0.129000 0.034032
v -0.143107 0.135363 0.031227
v -0.145887 0.135363 0.023194
v -0.173459 0.118000 0.028485
v -0.170379 0.110653 0.031449
v -0.164921 0.110653 0.037964
v -0.162541 0.118000 0.041515
v -0.165621 0.125347 0.038551
v -0.171079 0.125347 0.032036
v -0.186446 0.126000 0.057960
v -0.181757 0.119906 0.061582
v -0.173311 0.119906 0.060622
v -0.169554 0.126000 0.056040
v -0.174243 0.132094 0.052418
v -0.182689 0.132094 0.053378
v -0.168100 0.148000 0.085800
v -0.162658 0.141587 0.084569
v -0.157558 0.141587 0.077769
v -0.157900 0.148000 0.072200
v -0.163342 0.154413 0.073431
v -0.168442 0.154413 0.080231
v -0.134806 0.157000 0.098462
v -0.134056 0.149647 0.094264
v -0.133250 0.149647 0.085802
v -0.133194 0.157000 0.081538
v -0.133944 0.164353 0.085736
v -0.134750 0.164353 0.094198
v -0.096702 0.151000 0.092834
v -0.100438 0.143996 0.089796
v -0.103737 0.143996 0.081962
v -0.103298 0.151000 0.077166
v -0.099562 0.158004 0.080204
v -0.096263 0.158004 0.088038
v -0.070073 0.137000 0.070926
v -0.074924 0.130039 0.070415
v -0.081852 0.130039 0.065489
v -0.083927 0.137000 0.061074
v -0.079076 0.143961 0.061585
v -0.072148 0.143961 0.066511
v -0.059968 0.132000 0.042780
v -0.064414 0.124757 0.042634
v -0.072447 0.124757 0.039854
v -0.076032 0.132000 0.037220
v -0.071586 0.139243 0.037366
v -0.063553 0.139243 0.040146
v 0.069000 0.085422 -0.100000
v 0.072000 0.085422 -0.103000
v 0.192000 0.085422 -0.103000
v 0.195000 0.085422 -0.100000
v 0.195000 0.085422 0.100000
v 0.192000 0.085422 0.103000
v 0.072000 0.085422 0.103000
v 0.069000 0.085422 0.100000
v 0.072000 0.095422 -0.103000
v 0.069000 0.095422 -0.100000
v 0.069000 0.095422 0.100000
v 0.072000 0.095422 0.103000
v 0.192000 0.095422 0.103000
v 0.195000 0.095422 0.100000
v 0.195000 0.095422 -0.100000
v 0.192000 0.095422 -0.103000
v 0.183000 0.095422 -0.105000
v 0.185000 0.095422 -0.107000
v 0.197000 0.095422 -0.107000
v 0.199000 0.095422 -0.105000
v 0.199000 0.095422 0.105000
v 0.197000 0.095422 0.107000
v 0.185000 0.095422 0.107000
v 0.183000 0.095422 0.105000
v 0.185000 0.126422 -0.107000
v 0.183000 0.126422 -0.105000
v 0.183000 0.126422 0.105000
v 0.185000 0.126422 0.107000
v 0.197000 0.126422 0.107000
v 0.199000 0.126422 0.105000
v 0.199000 0.126422 -0.105000
v 0.197000 0.126422 -0.107000
v 0.042000 0.129000 -0.105000
v 0.042000 0.119400 -0.105000
v 0.070000 0.108000 -0.105000
v 0.082000 0.095422 -0.105000
v 0.188000 0.095422 -0.105000
v 0.188000 0.109500 -0.105000
v 0.150000 0.109500 -0.105000
v 0.076000 0.123500 -0.105000
v 0.068000 0.123500 -0.105000
v 0.042000 0.119400 0.105000
v 0.042000 0.129000 0.105000
v 0.068000 0.123500 0.105000
v 0.076000 0.123500 0.105000
v 0.150000 0.109500 0.105000
v 0.188000 0.109500 0.105000
v 0.188000 0.095422 0.105000
v 0.082000 0.095422 0.105000
v 0.070000 0.108000 0.105000
v 0.141090 0.095422 -0.005878
v 0.143000 0.095422 0.000000
v 0.141090 0.095422 0.005878
v 0.136090 0.095422 0.009511
v 0.129910 0.095422 0.009511
v 0.124910 0.095422 0.005878
v 0.123000 0.095422 0.000000
v 0.124910 0.095422 -0.005878
v 0.129910 0.095422 -0.009511
v 0.136090 0.095422 -0.009511
v 0.143000 0.192000 0.000000
v 0.141090 0.192000 -0.005878
v 0.136090 0.192000 -0.009511
v 0.129910 0.192000 -0.009511
v 0.124910 0.192000 -0.005878
v 0.123000 0.192000 0.000000
v 0.124910 0.192000 0.005878
v 0.129910 0.192000 0.009511
v 0.136090 0.192000 0.009511
v 0.141090 0.192000 0.005878
v 0.158981 0.162000 -0.015000
v 0.163000 0.162000 0.000000
v 0.158981 0.162000 0.015000
v 0.148000 0.162000 0.025981
v 0.133000 0.162000 0.030000
v 0.118000 0.162000 0.025981
v 0.107019 0.162000 0.015000
v 0.103000 0.162000 0.000000
v 0.107019 0.162000 -0.015000
v 0.118000 0.162000 -0.025981
v 0.133000 0.162000 -0.030000
v 0.148000 0.162000 -0.025981
v 0.163000 0.168000 0.000000
v 0.158981 0.168000 -0.015000
v 0.148000 0.168000 -0.025981
v 0.133000 0.168000 -0.030000
v 0.118000 0.168000 -0.025981
v 0.107019 0.168000 -0.015000
v 0.103000 0.168000 0.000000
v 0.107019 0.168000 0.015000
v 0.118000 0.168000 0.025981
v 0.133000 0.168000 0.030000
v 0.148000 0.168000 0.025981
v 0.158981 0.168000 0.015000
v 0.143000 0.168000 -0.017321
v 0.153000 0.168000 0.000000
v 0.143000 0.168000 0.017321
v 0.123000 0.168000 0.017321
v 0.113000 0.168000 0.000000
v 0.123000 0.168000 -0.017321
v 0.153000 0.186000 0.000000
v 0.143000 0.186000 -0.017321
v 0.123000 0.186000 -0.017321
v 0.113000 0.186000 0.000000
v 0.123000 0.186000 0.017321
v 0.143000 0.186000 0.017321
v 0.142000 0.186000 -0.015588
v 0.151000 0.186000 0.000000
v 0.142000 0.186000 0.015588
v 0.124000 0.186000 0.015588
v 0.115000 0.186000 0.000000
v 0.124000 0.186000 -0.015588
v 0.151000 0.189000 0.000000
v 0.142000 0.189000 -0.015588
v 0.124000 0.189000 -0.015588
v 0.115000 0.189000 0.000000
v 0.124000 0.189000 0.015588
v 0.142000 0.189000 0.015588
v 0.083927 0.137000 -0.061074
v 0.076032 0.132000 -0.037220
v 0.072447 0.124757 -0.039854
v 0.081852 0.130039 -0.065489
v 0.064414 0.124757 -0.042634
v 0.074924 0.130039 -0.070415
v 0.059968 0.132000 -0.042780
v 0.070073 0.137000 -0.070926
v 0.063553 0.139243 -0.040146
v 0.072148 0.143961 -0.066511
v 0.071586 0.139243 -0.037366
v 0.079076 0.143961 -0.061585
v 0.103298 0.151000 -0.077166
v 0.103737 0.143996 -0.081962
v 0.100438 0.143996 -0.089796
v 0.096702 0.151000 -0.092834
v 0.096263 0.158004 -0.088038
v 0.099562 0.158004 -0.080204
v 0.133194 0.157000 -0.081538
v 0.133250 0.149647 -0.085802
v 0.134056 0.149647 -0.094264
v 0.134806 0.157000 -0.098462
v 0.134750 0.164353 -0.094198
v 0.133944 0.164353 -0.085736
v 0.157900 0.148000 -0.072200
v 0.157558 0.141587 -0.077769
v 0.162658 0.141587 -0.084569
v 0.168100 0.148000 -0.085800
v 0.168442 0.154413 -0.080231
v 0.163342 0.154413 -0.073431
v 0.169554 0.126000 -0.056040
v 0.173311 0.119906 -0.060622
v 0.181757 0.119906 -0.061582
v 0.186446 0.126000 -0.057960
v 0.182689 0.132094 -0.053378
v 0.174243 0.132094 -0.052418
v 0.162541 0.118000 -0.041515
v 0.164921 0.110653 -0.037964
v 0.170379 0.110653 -0.031449
v 0.173459 0.118000 -0.028485
v 0.171079 0.125347 -0.032036
v 0.165621 0.125347 -0.038551
v 0.138220 0.129000 -0.034032
v 0.136113 0.122637 -0.028806
v 0.138893 0.122637 -0.020773
v 0.143780 0.129000 -0.017968
v 0.145887 0.135363 -0.023194
v 0.143107 0.135363 -0.031227
v 0.110640 0.150000 -0.023597
v 0.110273 0.143773 -0.017822
v 0.115633 0.143773 -0.011226
v 0.121360 0.150000 -0.010403
v 0.121727 0.156227 -0.016178
v 0.116367 0.156227 -0.022774
v 0.100500 0.155000 0.000000
v 0.104750 0.147639 0.000000
v 0.113250 0.147639 0.000000
v 0.117500 0.155000 0.000000
v 0.113250 0.162361 0.000000
v 0.104750 0.162361 0.000000
v 0.110640 0.150000 0.023597
v 0.110273 0.143773 0.017822
v 0.115633 0.143773 0.011226
v 0.121360 0.150000 0.010403
v 0.121727 0.156227 0.016178
v 0.116367 0.156227 0.022774
v 0.138220 0.129000 0.034032
v 0.136113 0.122637 0.028806
v 0.138893 0.122637 0.020773
v 0.143780 0.129000 0.017968
v 0.145887 0.135363 0.023194
v 0.143107 0.135363 0.031227
v 0.162541 0.118000 0.041515
v 0.164921 0.110653 0.037964
v 0.170379 0.110653 0.031449
v 0.173459 0.118000 0.028485
v 0.171079 0.125347 0.032036
v 0.165621 0.125347 0.038551
v 0.169554 0.126000 0.056040
v 0.173311 0.119906 0.060622
v 0.181757 0.119906 0.061582
v 0.186446 0.126000 0.057960
v 0.182689 0.132094 0.053378
v 0.174243 0.132094 0.052418
v 0.157900 0.148000 0.072200
v 0.157558 0.141587 0.077769
v 0.162658 0.141587 0.084569
v 0.168100 0.148000 0.085800
v 0.168442 0.154413 0.080231
v 0.163342 0.154413 0.073431
v 0.133194 0.157000 0.081538
v 0.133250 0.149647 0.085802
v 0.134056 0.149647 0.094264
v 0.134806 0.157000 0.098462
v 0.134750 0.164353 0.094198
v 0.133944 0.164353 0.085736
v 0.103298 0.151000 0.077166
v 0.103737 0.143996 0.081962
v 0.100438 0.143996 0.089796
v 0.096702 0.151000 0.092834
v 0.096263 0.158004 0.088038
v 0.099562 0.158004 0.080204
v 0.083927 0.137000 0.061074
v 0.081852 0.130039 0.065489
v 0.074924 0.130039 0.070415
v 0.070073 0.137000 0.070926
v 0.072148 0.143961 0.066511
v 0.079076 0.143961 0.061585
v 0.076032 0.132000 0.037220
v 0.072447 0.124757 0.039854
v 0.064414 0.124757 0.042634
v 0.059968 0.132000 0.042780
v 0.063553 0.139243 0.040146
v 0.071586 0.139243 0.037366
vt 0.60837500 0.03017506
vt 0.61013651 0.02537313
vt 0.65123849 0.02537313
vt 0.65300000 0.03017506
vt 0.65300000 0.19183987
vt 0.65123849 0.19664179
vt 0.61013651 0.19664179
vt 0.60837500 0.19183987
vt 0.60837500 0.19664179
vt 0.65300000 0.19664179
vt 0.65300000 0.02537313
vt 0.60837500 0.02537313
vt 0.61016000 0.31082090
vt 0.60837500 0.31566812
vt 0.60837500 0.47724233
vt 0.61016000 0.48208955
vt 0.65121500 0.48208955
vt 0.65300000 0.47724233
vt 0.65300000 0.31566812
vt 0.65121500 0.31082090
vt 0.60837500 0.48208955
vt 0.65300000 0.48208955
vt 0.65300000 0.31082090
vt 0.60837500 0.31082090
vt 0.34062500 0.02278655
vt 0.34631696 0.01585821
vt 0.57399554 0.01585821
vt 0.57968750 0.02278655
vt 0.57968750 0.48467613
vt 0.57399554 0.49160448
vt 0.34631696 0.49160448
vt 0.34062500 0.48467613
vt 0.34062500 0.49160448
vt 0.57968750 0.49160448
vt 0.57968750 0.01585821
vt 0.34062500 0.01585821
vt 0.60837500 0.02697378
vt 0.61395312 0.02537313
vt 0.64742188 0.02537313
vt 0.65300000 0.02697378
vt 0.65300000 0.19504115
vt 0.64742188 0.19664179
vt 0.61395312 0.19664179
vt 0.60837500 0.19504115
vt 0.34062500 0.35558791
vt 0.38319777 0.41367832
vt 0.39629709 0.41367832
vt 0.51746575 0.21532083
vt 0.57968750 0.21532083
vt 0.40612158 0.01585821
vt 0.38647260 0.19406824
vt 0.55685906 0.11391302
vt 0.57968750 0.25373134
vt 0.55685906 0.39354966
vt 0.49709344 0.47996214
vt 0.42321906 0.47996214
vt 0.36345344 0.39354966
vt 0.34062500 0.25373134
vt 0.36345344 0.11391302
vt 0.42321906 0.02750055
vt 0.49709344 0.02750055
vt 0.36453125 0.49160448
vt 0.36453125 0.01585821
vt 0.38843750 0.49160448
vt 0.38843750 0.01585821
vt 0.41234375 0.49160448
vt 0.41234375 0.01585821
vt 0.43625000 0.49160448
vt 0.43625000 0.01585821
vt 0.46015625 0.49160448
vt 0.46015625 0.01585821
vt 0.48406250 0.49160448
vt 0.48406250 0.01585821
vt 0.50796875 0.49160448
vt 0.50796875 0.01585821
vt 0.53187500 0.49160448
vt 0.53187500 0.01585821
vt 0.55578125 0.49160448
vt 0.55578125 0.01585821
vt 0.56367335 0.13479478
vt 0.56367335 0.37266791
vt 0.51992187 0.45973552
vt 0.40039063 0.45973552
vt 0.35663915 0.37266791
vt 0.35663915 0.13479478
vt 0.40039062 0.04772717
vt 0.51992187 0.04772717
vt 0.36054687 0.49160448
vt 0.36054687 0.01585821
vt 0.38046875 0.49160448
vt 0.38046875 0.01585821
vt 0.40039062 0.49160448
vt 0.40039062 0.01585821
vt 0.42031250 0.49160448
vt 0.42031250 0.01585821
vt 0.44023438 0.49160448
vt 0.44023438 0.01585821
vt 0.48007813 0.49160448
vt 0.48007813 0.01585821
vt 0.50000000 0.49160448
vt 0.50000000 0.01585821
vt 0.51992187 0.49160448
vt 0.51992187 0.01585821
vt 0.53984375 0.49160448
vt 0.53984375 0.01585821
vt 0.55976563 0.49160448
vt 0.55976563 0.01585821
vt 0.51992188 0.04772717
vt 0.51992188 0.45973552
vt 0.40039062 0.45973552
vt 0.34062500 0.04228856
vt 0.38046875 0.04228856
vt 0.42031250 0.04228856
vt 0.46015625 0.04228856
vt 0.50000000 0.04228856
vt 0.53984375 0.04228856
vt 0.57968750 0.04228856
vt 0.34062500 0.06871891
vt 0.38046875 0.06871891
vt 0.42031250 0.06871891
vt 0.46015625 0.06871891
vt 0.50000000 0.06871891
vt 0.53984375 0.06871891
vt 0.57968750 0.06871891
vt 0.34062500 0.09514925
vt 0.38046875 0.09514925
vt 0.42031250 0.09514925
vt 0.46015625 0.09514925
vt 0.50000000 0.09514925
vt 0.53984375 0.09514925
vt 0.57968750 0.09514925
vt 0.34062500 0.12157960
vt 0.38046875 0.12157960
vt 0.42031250 0.12157960
vt 0.46015625 0.12157960
vt 0.50000000 0.12157960
vt 0.53984375 0.12157960
vt 0.57968750 0.12157960
vt 0.34062500 0.14800995
vt 0.38046875 0.14800995
vt 0.42031250 0.14800995
vt 0.46015625 0.14800995
vt 0.50000000 0.14800995
vt 0.53984375 0.14800995
vt 0.57968750 0.14800995
vt 0.34062500 0.17444030
vt 0.38046875 0.17444030
vt 0.42031250 0.17444030
vt 0.46015625 0.17444030
vt 0.50000000 0.17444030
vt 0.53984375 0.17444030
vt 0.57968750 0.17444030
vt 0.34062500 0.20087065
vt 0.38046875 0.20087065
vt 0.42031250 0.20087065
vt 0.46015625 0.20087065
vt 0.50000000 0.20087065
vt 0.53984375 0.20087065
vt 0.57968750 0.20087065
vt 0.34062500 0.22730100
vt 0.38046875 0.22730100
vt 0.42031250 0.22730100
vt 0.46015625 0.22730100
vt 0.50000000 0.22730100
vt 0.53984375 0.22730100
vt 0.57968750 0.22730100
vt 0.38046875 0.25373134
vt 0.42031250 0.25373134
vt 0.46015625 0.25373134
vt 0.50000000 0.25373134
vt 0.53984375 0.25373134
vt 0.34062500 0.28016169
vt 0.38046875 0.28016169
vt 0.42031250 0.28016169
vt 0.46015625 0.28016169
vt 0.50000000 0.28016169
vt 0.53984375 0.28016169
vt 0.57968750 0.28016169
vt 0.34062500 0.30659204
vt 0.38046875 0.30659204
vt 0.42031250 0.30659204
vt 0.46015625 0.30659204
vt 0.50000000 0.30659204
vt 0.53984375 0.30659204
vt 0.57968750 0.30659204
vt 0.34062500 0.33302239
vt 0.38046875 0.33302239
vt 0.42031250 0.33302239
vt 0.46015625 0.33302239
vt 0.50000000 0.33302239
vt 0.53984375 0.33302239
vt 0.57968750 0.33302239
vt 0.34062500 0.35945274
vt 0.38046875 0.35945274
vt 0.42031250 0.35945274
vt 0.46015625 0.35945274
vt 0.50000000 0.35945274
vt 0.53984375 0.35945274
vt 0.57968750 0.35945274
vt 0.34062500 0.38588308
vt 0.38046875 0.38588308
vt 0.42031250 0.38588308
vt 0.46015625 0.38588308
vt 0.50000000 0.38588308
vt 0.53984375 0.38588308
vt 0.57968750 0.38588308
vt 0.34062500 0.41231343
vt 0.38046875 0.41231343
vt 0.42031250 0.41231343
vt 0.46015625 0.41231343
vt 0.50000000 0.41231343
vt 0.53984375 0.41231343
vt 0.57968750 0.41231343
vt 0.34062500 0.43874378
vt 0.38046875 0.43874378
vt 0.42031250 0.43874378
vt 0.46015625 0.43874378
vt 0.50000000 0.43874378
vt 0.53984375 0.43874378
vt 0.57968750 0.43874378
vt 0.34062500 0.46517413
vt 0.38046875 0.46517413
vt 0.42031250 0.46517413
vt 0.46015625 0.46517413
vt 0.50000000 0.46517413
vt 0.53984375 0.46517413
vt 0.57968750 0.46517413
vn 0.00000000 -1.00000000 0.00000000
vn 0.00000000 0.00000000 -1.00000000
vn 0.70710678 0.00000000 -0.70710678
vn 1.00000000 0.00000000 -0.00000000
vn 0.70710678 0.00000000 0.70710678
vn 0.00000000 0.00000000 1.00000000
vn -0.70710678 0.00000000 0.70710678
vn -1.00000000 0.00000000 -0.00000000
vn -0.70710678 0.00000000 -0.70710678
vn 0.00000000 1.00000000 0.00000000
vn 0.37708674 -0.92617795 0.00000000
vn 0.72353574 -0.69028692 0.00000000
vn -0.18589167 0.98257025 0.00000000
vn -0.20695859 0.97834970 0.00000000
vn 0.95105652 0.00000000 0.30901699
vn 0.58778525 0.00000000 0.80901699
vn -0.58778525 0.00000000 0.80901699
vn -0.95105652 0.00000000 0.30901699
vn -0.95105652 0.00000000 -0.30901699
vn -0.58778525 0.00000000 -0.80901699
vn 0.58778525 0.00000000 -0.80901699
vn 0.95105652 0.00000000 -0.30901699
vn 0.96592583 0.00000000 0.25881905
vn 0.25881905 0.00000000 0.96592583
vn -0.25881905 0.00000000 0.96592583
vn -0.96592583 0.00000000 0.25881905
vn -0.96592583 0.00000000 -0.25881905
vn -0.25881905 0.00000000 -0.96592583
vn 0.25881905 0.00000000 -0.96592583
vn 0.96592583 0.00000000 -0.25881905
vn 0.86602540 0.00000000 0.50000000
vn -0.86602540 0.00000000 0.50000000
vn -0.86602540 0.00000000 -0.50000000
vn 0.86602540 0.00000000 -0.50000000
vn 0.82987070 -0.02256954 -0.55749910
vn 0.94139280 0.15465414 -0.29976939
vn 0.55286440 -0.75833983 -0.34534281
vn 0.21474500 -0.83270942 -0.51037202
vn -0.38140167 -0.92335244 -0.04419317
vn -0.60883473 -0.79210139 0.04353912
vn -0.94426104 -0.14992983 0.29307359
vn -0.83645246 0.02636692 0.54740485
vn -0.55837499 0.76108241 0.33010747
vn -0.21456292 0.83185471 0.51184030
vn 0.38042659 0.92359089 0.04749184
vn 0.60567478 0.79461380 -0.04179674
vn 0.38145543 0.01624689 -0.92424445
vn -0.07696492 -0.79864470 -0.59686099
vn -0.46768681 -0.82411526 0.31953575
vn -0.38665941 -0.01561563 0.92209037
vn 0.07114608 0.79765712 0.59890012
vn 0.45428394 0.83032212 -0.32278673
vn -0.15202698 0.02020972 -0.98816970
vn -0.08795545 -0.84248439 -0.53149213
vn 0.06201367 -0.88820796 0.45523721
vn 0.13963151 -0.02039239 0.98999353
vn 0.07120656 0.84423206 0.53122675
vn -0.07910354 0.88650922 -0.45589915
vn -0.64585633 -0.00209221 -0.76345610
vn -0.07945907 -0.78574875 -0.61342086
vn 0.55960549 -0.81914171 0.12589104
vn 0.62631926 -0.01036021 0.77949782
vn 0.04802623 0.77336215 0.63214276
vn -0.58102022 0.80457147 -0.12280169
vn -0.99549658 -0.02938325 -0.09012866
vn -0.39107873 -0.82707907 -0.40372967
vn 0.53593062 -0.78702283 -0.30557069
vn 0.99619124 0.01416903 0.08603629
vn 0.37872770 0.83023329 0.40899634
vn -0.54747220 0.78078120 0.30108953
vn -0.73278527 -0.01749243 0.68023508
vn -0.24941251 -0.90155630 0.35353874
vn 0.46735543 -0.81722676 -0.33722296
vn 0.69998556 0.00610271 -0.71413092
vn 0.19163966 0.90562712 -0.37830379
vn -0.51098312 0.80253017 0.30796360
vn -0.37077982 0.01938099 0.92851855
vn 0.19762752 -0.73389004 0.64988366
vn 0.58093977 -0.75928484 -0.29324992
vn 0.36683764 -0.01632562 -0.93014172
vn -0.19231333 0.73428753 -0.65102796
vn -0.57079181 0.76675638 0.29373689
vn -0.67440493 0.00332895 0.73835419
vn -0.03565561 -0.82071901 0.57021836
vn 0.61262785 -0.77697528 -0.14490178
vn 0.68493274 0.02639209 -0.72812814
vn 0.04972363 0.82088008 -0.56893185
vn -0.58687984 0.79580699 0.14920885
vn -0.99718850 -0.07335081 -0.01532138
vn -0.39894542 -0.91351873 -0.07953671
vn 0.56817983 -0.81341680 -0.12459851
vn 0.99677544 0.06175989 -0.05122924
vn 0.40606619 0.91324396 0.03310152
vn -0.57035240 0.81910980 0.06129662
vn -0.73584706 -0.04737829 -0.67548827
vn -0.01524125 -0.78342047 -0.62130514
vn 0.69772888 -0.71405076 0.05749722
vn 0.72501624 0.03856749 0.68765108
vn 0.00010133 0.77679355 0.62975533
vn -0.71376014 0.69818503 -0.05553498
vn -0.33177750 0.04539592 -0.94226477
vn 0.21532190 -0.72774787 -0.65116781
vn 0.55357009 -0.78109213 0.28888621
vn 0.31946647 -0.05125341 0.94621048
vn -0.24643521 0.71136342 0.65820344
vn -0.56644904 0.77248513 -0.28705785
vn -0.64440959 -0.03477141 -0.76388954
vn -0.28932606 -0.91077774 -0.29457484
vn 0.34092503 -0.82589514 0.44907388
vn 0.64620103 0.03653787 0.76229208
vn 0.29521118 0.91178102 0.28549209
vn -0.31496779 0.82939441 -0.46141109
vn -0.99728564 -0.05627126 0.04748585
vn -0.39437595 -0.76911294 0.50292435
vn 0.58603689 -0.67625626 0.44636110
vn 0.99694454 0.05706736 -0.05333766
vn 0.40571974 0.75939999 -0.50862870
vn -0.57291192 0.68758308 -0.44609578
vn -0.60177992 0.04833772 0.79719784
vn 0.01139102 -0.71154218 0.70255104
vn 0.62468383 -0.77530630 -0.09311417
vn 0.60164128 -0.05323193 -0.79699067
vn -0.00156050 0.70869043 -0.70551785
vn -0.61727076 0.78140565 0.09155339
vn -0.06613754 0.02407676 0.99751999
vn 0.05973012 -0.83691592 0.54406254
vn 0.12643887 -0.88690796 -0.44430563
vn 0.07765951 -0.02541455 -0.99665596
vn -0.04727859 0.83730518 -0.54468777
vn -0.11847837 0.88674258 0.44682264
vn 0.42402392 -0.00283969 0.90564654
vn 0.02303891 -0.83798826 0.54520169
vn -0.39954254 -0.85270153 -0.33654993
vn -0.42000602 0.00218636 -0.90751868
vn -0.01163725 0.83582921 -0.54886619
vn 0.40290626 0.84999043 0.33938594
vn 0.80672197 -0.00306346 0.59092324
vn 0.24600876 -0.85130427 0.46342285
vn -0.55030807 -0.82672544 -0.11698745
vn -0.81490635 0.00754926 -0.57954348
vn -0.25119673 0.85941939 -0.44530722
vn 0.54067976 0.83091422 0.13132767
vn 0.90565225 -0.20707063 0.37002128
vn 0.23392894 -0.93337935 0.27217686
vn -0.68718914 -0.72073072 -0.09120474
vn -0.91649236 0.21308702 -0.33857891
vn -0.24019068 0.93780159 -0.25067233
vn 0.68419901 0.72172585 0.10480228
vn 0.32183934 -0.17879963 0.92975810
vn 0.32183934 -0.17879963 -0.92975810
vn -0.37708674 -0.92617795 0.00000000
vn -0.72353574 -0.69028692 0.00000000
vn 0.18589167 0.98257025 0.00000000
vn 0.20695859 0.97834970 0.00000000
vn 0.81490635 0.00754926 0.57954348
vn 0.91649236 0.21308702 0.33857891
vn 0.68718914 -0.72073072 0.09120474
vn 0.55030807 -0.82672544 0.11698745
vn -0.23392894 -0.93337935 -0.27217686
vn -0.24600876 -0.85130427 -0.46342285
vn -0.90565225 -0.20707063 -0.37002128
vn -0.80672197 -0.00306346 -0.59092324
vn -0.68419901 0.72172585 -0.10480228
vn -0.54067976 0.83091422 -0.13132767
vn 0.24019068 0.93780159 0.25067233
vn 0.25119673 0.85941939 0.44530722
vn 0.42000602 0.00218636 0.90751868
vn 0.39954254 -0.85270153 0.33654993
vn -0.02303891 -0.83798826 -0.54520169
vn -0.42402392 -0.00283969 -0.90564654
vn -0.40290626 0.84999043 -0.33938594
vn 0.01163725 0.83582921 0.54886619
vn -0.07765951 -0.02541455 0.99665596
vn -0.12643887 -0.88690796 0.44430563
vn -0.05973012 -0.83691592 -0.54406254
vn 0.06613754 0.02407676 -0.99751999
vn 0.11847837 0.88674258 -0.44682264
vn 0.04727859 0.83730518 0.54468777
vn -0.60164128 -0.05323193 0.79699067
vn -0.62468383 -0.77530630 0.09311417
vn -0.01139102 -0.71154218 -0.70255104
vn 0.60177992 0.04833772 -0.79719784
vn 0.61727076 0.78140565 -0.09155339
vn 0.00156050 0.70869043 0.70551785
vn -0.99694454 0.05706736 0.05333766
vn -0.58603689 -0.67625626 -0.44636110
vn 0.39437595 -0.76911294 -0.50292435
vn 0.99728564 -0.05627126 -0.04748585
vn 0.57291192 0.68758308 0.44609578
vn -0.40571974 0.75939999 0.50862870
vn -0.64620103 0.03653787 -0.76229208
vn -0.34092503 -0.82589514 -0.44907388
vn 0.28932606 -0.91077774 0.29457484
vn 0.64440959 -0.03477141 0.76388954
vn 0.31496779 0.82939441 0.46141109
vn -0.29521118 0.91178102 -0.28549209
vn -0.31946647 -0.05125341 -0.94621048
vn -0.55357009 -0.78109213 -0.28888621
vn -0.21532190 -0.72774787 0.65116781
vn 0.33177750 0.04539592 0.94226477
vn 0.56644904 0.77248513 0.28705785
vn 0.24643521 0.71136342 -0.65820344
vn -0.72501624 0.03856749 -0.68765108
vn -0.69772888 -0.71405076 -0.05749722
vn 0.01524125 -0.78342047 0.62130514
vn 0.73584706 -0.04737829 0.67548827
vn 0.71376014 0.69818503 0.05553498
vn -0.00010133 0.77679355 -0.62975533
vn -0.99677544 0.06175989 0.05122924
vn -0.56817983 -0.81341680 0.12459851
vn 0.39894542 -0.91351873 0.07953671
vn 0.99718850 -0.07335081 0.01532138
vn 0.57035240 0.81910980 -0.06129662
vn -0.40606619 0.91324396 -0.03310152
vn -0.68493274 0.02639209 0.72812814
vn -0.61262785 -0.77697528 0.14490178
vn 0.03565561 -0.82071901 -0.57021836
vn 0.67440493 0.00332895 -0.73835419
vn 0.58687984 0.79580699 -0.14920885
vn -0.04972363 0.82088008 0.56893185
vn -0.36683764 -0.01632562 0.93014172
vn -0.58093977 -0.75928484 0.29324992
vn -0.19762752 -0.73389004 -0.64988366
vn 0.37077982 0.01938099 -0.92851855
vn 0.57079181 0.76675638 -0.29373689
vn 0.19231333 0.73428753 0.65102796
vn -0.69998556 0.00610271 0.71413092
vn -0.46735543 -0.81722676 0.33722296
vn 0.24941251 -0.90155630 -0.35353874
vn 0.73278527 -0.01749243 -0.68023508
vn 0.51098312 0.80253017 -0.30796360
vn -0.19163966 0.90562712 0.37830379
vn -0.99619124 0.01416903 -0.08603629
vn -0.53593062 -0.78702283 0.30557069
vn 0.39107873 -0.82707907 0.40372967
vn 0.99549658 -0.02938325 0.09012866
vn 0.54747220 0.78078120 -0.30108953
vn -0.37872770 0.83023329 -0.40899634
vn -0.62631926 -0.01036021 -0.77949782
vn -0.55960549 -0.81914171 -0.12589104
vn 0.07945907 -0.78574875 0.61342086
vn 0.64585633 -0.00209221 0.76345610
vn 0.58102022 0.80457147 0.12280169
vn -0.04802623 0.77336215 -0.63214276
vn -0.13963151 -0.02039239 -0.98999353
vn -0.06201367 -0.88820796 -0.45523721
vn 0.08795545 -0.84248439 0.53149213
vn 0.15202698 0.02020972 0.98816970
vn 0.07910354 0.88650922 0.45589915
vn -0.07120656 0.84423206 -0.53122675
vn 0.38665941 -0.01561563 -0.92209037
vn 0.46768681 -0.82411526 -0.31953575
vn 0.07696492 -0.79864470 0.59686099
vn -0.38145543 0.01624689 0.92424445
vn -0.45428394 0.83032212 0.32278673
vn -0.07114608 0.79765712 -0.59890012
vn 0.83645246 0.02636692 -0.54740485
vn 0.60883473 -0.79210139 -0.04353912
vn -0.21474500 -0.83270942 0.51037202
vn -0.82987070 -0.02256954 0.55749910
vn -0.60567478 0.79461380 0.04179674
vn 0.21456292 0.83185471 -0.51184030
vn 0.94426104 -0.14992983 -0.29307359
vn 0.38140167 -0.92335244 0.04419317
vn -0.55286440 -0.75833983 0.34534281
vn -0.94139280 0.15465414 0.29976939
vn -0.38042659 0.92359089 -0.04749184
vn 0.55837499 0.76108241 -0.33010747
vn -0.32183934 -0.17879963 0.92975810
vn -0.32183934 -0.17879963 -0.92975810
g fastener
usemtl mat
f 1/1/1 2/2/1 3/3/1
f 1/1/1 3/3/1 4/4/1
f 1/1/1 4/4/1 5/5/1
f 1/1/1 5/5/1 6/6/1
f 1/1/1 6/6/1 7/7/1
f 7/7/1 8/8/1 1/1/1
f 9/9/2 10/10/2 3/11/2 2/12/2
f 10/9/3 11/10/3 4/11/3 3/12/3
f 11/9/4 12/10/4 5/11/4 4/12/4
f 12/9/5 13/10/5 6/11/5 5/12/5
f 13/9/6 14/10/6 7/11/6 6/12/6
f 14/9/7 15/10/7 8/11/7 7/12/7
f 15/9/8 16/10/8 1/11/8 8/12/8
f 16/9/9 9/10/9 2/11/9 1/12/9
f 17/13/10 18/14/10 19/15/10
f 17/13/10 19/15/10 20/16/10
f 17/13/10 20/16/10 21/17/10
f 17/13/10 21/17/10 22/18/10
f 17/13/10 22/18/10 23/19/10
f 23/19/10 24/20/10 17/13/10
f 17/21/2 24/22/2 25/23/2 26/24/2
f 24/21/3 23/22/3 27/23/3 25/24/3
f 23/21/4 22/22/4 28/23/4 27/24/4
f 22/21/5 21/22/5 29/23/5 28/24/5
f 21/21/6 20/22/6 30/23/6 29/24/6
f 20/21/7 19/22/7 31/23/7 30/24/7
f 19/21/8 18/22/8 32/23/8 31/24/8
f 18/21/9 17/22/9 26/23/9 32/24/9
f 33/25/1 34/26/1 35/27/1
f 33/25/1 35/27/1 36/28/1
f 33/25/1 36/28/1 37/29/1
f 33/25/1 37/29/1 38/30/1
f 33/25/1 38/30/1 39/31/1
f 39/31/1 40/32/1 33/25/1
f 41/26/10 42/25/10 43/32/10
f 41/26/10 43/32/10 44/31/10
f 41/26/10 44/31/10 45/30/10
f 41/26/10 45/30/10 46/29/10
f 41/26/10 46/29/10 47/28/10
f 47/28/10 48/27/10 41/26/10
f 41/33/2 48/34/2 35/35/2 34/36/2
f 48/33/3 47/34/3 36/35/3 35/36/3
f 47/33/4 46/34/4 37/35/4 36/36/4
f 46/33/5 45/34/5 38/35/5 37/36/5
f 45/33/6 44/34/6 39/35/6 38/36/6
f 44/33/7 43/34/7 40/35/7 39/36/7
f 43/33/8 42/34/8 33/35/8 40/36/8
f 42/33/9 41/34/9 34/35/9 33/36/9
f 49/37/1 50/38/1 51/39/1
f 49/37/1 51/39/1 52/40/1
f 49/37/1 52/40/1 53/41/1
f 49/37/1 53/41/1 54/42/1
f 49/37/1 54/42/1 55/43/1
f 55/43/1 56/44/1 49/37/1
f 57/38/10 58/37/10 59/44/10
f 57/38/10 59/44/10 60/43/10
f 57/38/10 60/43/10 61/42/10
f 57/38/10 61/42/10 62/41/10
f 57/38/10 62/41/10 63/40/10
f 63/40/10 64/39/10 57/38/10
f 57/9/2 64/10/2 51/11/2 50/12/2
f 64/9/3 63/10/3 52/11/3 51/12/3
f 63/9/4 62/10/4 53/11/4 52/12/4
f 62/9/5 61/10/5 54/11/5 53/12/5
f 61/9/6 60/10/6 55/11/6 54/12/6
f 60/9/7 59/10/7 56/11/7 55/12/7
f 59/9/8 58/10/8 49/11/8 56/12/8
f 58/9/9 57/10/9 50/11/9 49/12/9
f 65/45/6 66/33/6 67/46/6
f 65/45/6 67/46/6 68/47/6
f 65/45/6 68/47/6 69/48/6
f 69/48/6 70/49/6 71/35/6
f 65/45/6 69/48/6 71/35/6
f 71/35/6 72/50/6 73/51/6
f 71/35/6 73/51/6 65/45/6
f 74/33/2 75/45/2 76/51/2
f 76/51/2 77/50/2 78/35/2
f 74/33/2 76/51/2 78/35/2
f 78/35/2 79/49/2 80/48/2
f 78/35/2 80/48/2 81/47/2
f 78/35/2 81/47/2 82/46/2
f 78/35/2 82/46/2 74/33/2
f 75/33/11 76/34/11 73/35/11 65/36/11
f 76/33/12 77/34/12 72/35/12 73/36/12
f 77/33/1 78/34/1 71/35/1 72/36/1
f 78/33/8 79/34/8 70/35/8 71/36/8
f 79/33/10 80/34/10 69/35/10 70/36/10
f 80/33/13 81/34/13 68/35/13 69/36/13
f 81/33/10 82/34/10 67/35/10 68/36/10
f 82/33/14 74/34/14 66/35/14 67/36/14
f 74/33/4 75/34/4 65/35/4 66/36/4
f 83/52/1 84/53/1 85/54/1
f 83/52/1 85/54/1 86/55/1
f 83/52/1 86/55/1 87/56/1
f 83/52/1 87/56/1 88/57/1
f 83/52/1 88/57/1 89/58/1
f 83/52/1 89/58/1 90/59/1
f 83/52/1 90/59/1 91/60/1
f 91/60/1 92/61/1 83/52/1
f 93/53/10 94/52/10 95/61/10
f 93/53/10 95/61/10 96/60/10
f 93/53/10 96/60/10 97/59/10
f 93/53/10 97/59/10 98/58/10
f 93/53/10 98/58/10 99/57/10
f 93/53/10 99/57/10 100/56/10
f 93/53/10 100/56/10 101/55/10
f 101/55/10 102/54/10 93/53/10
f 93/33/15 102/62/15 85/63/15 84/36/15
f 102/62/16 101/64/16 86/65/16 85/63/16
f 101/64/6 100/66/6 87/67/6 86/65/6
f 100/66/17 99/68/17 88/69/17 87/67/17
f 99/68/18 98/70/18 89/71/18 88/69/18
f 98/70/19 97/72/19 90/73/19 89/71/19
f 97/72/20 96/74/20 91/75/20 90/73/20
f 96/74/2 95/76/2 92/77/2 91/75/2
f 95/76/21 94/78/21 83/79/21 92/77/21
f 94/78/22 93/34/22 84/35/22 83/79/22
f 103/80/1 104/53/1 105/81/1
f 103/80/1 105/81/1 106/82/1
f 103/80/1 106/82/1 107/70/1
f 103/80/1 107/70/1 108/83/1
f 103/80/1 108/83/1 109/84/1
f 103/80/1 109/84/1 110/58/1
f 103/80/1 110/58/1 111/85/1
f 103/80/1 111/85/1 112/86/1
f 103/80/1 112/86/1 113/71/1
f 113/71/1 114/87/1 103/80/1
f 115/53/10 116/80/10 117/87/10
f 115/53/10 117/87/10 118/71/10
f 115/53/10 118/71/10 119/86/10
f 115/53/10 119/86/10 120/85/10
f 115/53/10 120/85/10 121/58/10
f 115/53/10 121/58/10 122/84/10
f 115/53/10 122/84/10 123/83/10
f 115/53/10 123/83/10 124/70/10
f 115/53/10 124/70/10 125/82/10
f 125/82/10 126/81/10 115/53/10
f 115/33/23 126/88/23 105/89/23 104/36/23
f 126/88/5 125/90/5 106/91/5 105/89/5
f 125/90/24 124/92/24 107/93/24 106/91/24
f 124/92/25 123/94/25 108/95/25 107/93/25
f 123/94/7 122/96/7 109/97/7 108/95/7
f 122/96/26 121/70/26 110/71/26 109/97/26
f 121/70/27 120/98/27 111/99/27 110/71/27
f 120/98/9 119/100/9 112/101/9 111/99/9
f 119/100/28 118/102/28 113/103/28 112/101/28
f 118/102/29 117/104/29 114/105/29 113/103/29
f 117/104/3 116/106/3 103/107/3 114/105/3
f 116/106/30 115/34/30 104/35/30 103/107/30
f 127/108/1 128/53/1 129/109/1
f 127/108/1 129/109/1 130/110/1
f 127/108/1 130/110/1 131/58/1
f 131/58/1 132/86/1 127/108/1
f 133/53/10 134/108/10 135/86/10
f 133/53/10 135/86/10 136/58/10
f 133/53/10 136/58/10 137/110/10
f 137/110/10 138/109/10 133/53/10
f 133/33/31 138/90/31 129/91/31 128/36/31
f 138/90/6 137/94/6 130/95/6 129/91/6
f 137/94/32 136/70/32 131/71/32 130/95/32
f 136/70/33 135/100/33 132/101/33 131/71/33
f 135/100/2 134/104/2 127/105/2 132/101/2
f 134/104/34 133/34/34 128/35/34 127/105/34
f 139/108/1 140/53/1 141/109/1
f 139/108/1 141/109/1 142/110/1
f 139/108/1 142/110/1 143/58/1
f 143/58/1 144/86/1 139/108/1
f 145/53/10 146/108/10 147/86/10
f 145/53/10 147/86/10 148/58/10
f 145/53/10 148/58/10 149/110/10
f 149/110/10 150/109/10 145/53/10
f 145/33/31 150/90/31 141/91/31 140/36/31
f 150/90/6 149/94/6 142/95/6 141/91/6
f 149/94/32 148/70/32 143/71/32 142/95/32
f 148/70/33 147/100/33 144/101/33 143/71/33
f 147/100/2 146/104/2 139/105/2 144/101/2
f 146/104/34 145/34/34 140/35/34 139/105/34
f 151/111/35 152/36/36 153/91/37
f 153/91/37 154/112/38 151/111/35
f 154/112/38 153/91/37 155/95/39
f 155/95/39 156/113/40 154/112/38
f 156/113/40 155/95/39 157/71/41
f 157/71/41 158/114/42 156/113/40
f 158/114/42 157/71/41 159/101/43
f 159/101/43 160/115/44 158/114/42
f 160/115/44 159/101/43 161/105/45
f 161/105/45 162/116/46 160/115/44
f 162/116/46 161/105/45 152/35/36
f 152/35/36 151/117/35 162/116/46
f 163/118/47 151/111/35 154/112/38
f 154/112/38 164/119/48 163/118/47
f 164/119/48 154/112/38 156/113/40
f 156/113/40 165/120/49 164/119/48
f 165/120/49 156/113/40 158/114/42
f 158/114/42 166/121/50 165/120/49
f 166/121/50 158/114/42 160/115/44
f 160/115/44 167/122/51 166/121/50
f 167/122/51 160/115/44 162/116/46
f 162/116/46 168/123/52 167/122/51
f 168/123/52 162/116/46 151/117/35
f 151/117/35 163/124/47 168/123/52
f 169/125/53 163/118/47 164/119/48
f 164/119/48 170/126/54 169/125/53
f 170/126/54 164/119/48 165/120/49
f 165/120/49 171/127/55 170/126/54
f 171/127/55 165/120/49 166/121/50
f 166/121/50 172/128/56 171/127/55
f 172/128/56 166/121/50 167/122/51
f 167/122/51 173/129/57 172/128/56
f 173/129/57 167/122/51 168/123/52
f 168/123/52 174/130/58 173/129/57
f 174/130/58 168/123/52 163/124/47
f 163/124/47 169/131/53 174/130/58
f 175/132/59 169/125/53 170/126/54
f 170/126/54 176/133/60 175/132/59
f 176/133/60 170/126/54 171/127/55
f 171/127/55 177/134/61 176/133/60
f 177/134/61 171/127/55 172/128/56
f 172/128/56 178/135/62 177/134/61
f 178/135/62 172/128/56 173/129/57
f 173/129/57 179/136/63 178/135/62
f 179/136/63 173/129/57 174/130/58
f 174/130/58 180/137/64 179/136/63
f 180/137/64 174/130/58 169/131/53
f 169/131/53 175/138/59 180/137/64
f 181/139/65 175/132/59 176/133/60
f 176/133/60 182/140/66 181/139/65
f 182/140/66 176/133/60 177/134/61
f 177/134/61 183/141/67 182/140/66
f 183/141/67 177/134/61 178/135/62
f 178/135/62 184/142/68 183/141/67
f 184/142/68 178/135/62 179/136/63
f 179/136/63 185/143/69 184/142/68
f 185/143/69 179/136/63 180/137/64
f 180/137/64 186/144/70 185/143/69
f 186/144/70 180/137/64 175/138/59
f 175/138/59 181/145/65 186/144/70
f 187/146/71 181/139/65 182/140/66
f 182/140/66 188/147/72 187/146/71
f 188/147/72 182/140/66 183/141/67
f 183/141/67 189/148/73 188/147/72
f 189/148/73 183/141/67 184/142/68
f 184/142/68 190/149/74 189/148/73
f 190/149/74 184/142/68 185/143/69
f 185/143/69 191/150/75 190/149/74
f 191/150/75 185/143/69 186/144/70
f 186/144/70 192/151/76 191/150/75
f 192/151/76 186/144/70 181/145/65
f 181/145/65 187/152/71 192/151/76
f 193/153/77 187/146/71 188/147/72
f 188/147/72 194/154/78 193/153/77
f 194/154/78 188/147/72 189/148/73
f 189/148/73 195/155/79 194/154/78
f 195/155/79 189/148/73 190/149/74
f 190/149/74 196/156/80 195/155/79
f 196/156/80 190/149/74 191/150/75
f 191/150/75 197/157/81 196/156/80
f 197/157/81 191/150/75 192/151/76
f 192/151/76 198/158/82 197/157/81
f 198/158/82 192/151/76 187/152/71
f 187/152/71 193/159/77 198/158/82
f 199/160/83 193/153/77 194/154/78
f 194/154/78 200/161/84 199/160/83
f 200/161/84 194/154/78 195/155/79
f 195/155/79 201/162/85 200/161/84
f 201/162/85 195/155/79 196/156/80
f 196/156/80 202/163/86 201/162/85
f 202/163/86 196/156/80 197/157/81
f 197/157/81 203/164/87 202/163/86
f 203/164/87 197/157/81 198/158/82
f 198/158/82 204/165/88 203/164/87
f 204/165/88 198/158/82 193/159/77
f 193/159/77 199/166/83 204/165/88
f 205/58/89 199/160/83 200/161/84
f 200/161/84 206/167/90 205/58/89
f 206/167/90 200/161/84 201/162/85
f 201/162/85 207/168/91 206/167/90
f 207/168/91 201/162/85 202/163/86
f 202/163/86 208/169/92 207/168/91
f 208/169/92 202/163/86 203/164/87
f 203/164/87 209/170/93 208/169/92
f 209/170/93 203/164/87 204/165/88
f 204/165/88 210/171/94 209/170/93
f 210/171/94 204/165/88 199/166/83
f 199/166/83 205/53/89 210/171/94
f 211/172/95 205/58/89 206/167/90
f 206/167/90 212/173/96 211/172/95
f 212/173/96 206/167/90 207/168/91
f 207/168/91 213/174/97 212/173/96
f 213/174/97 207/168/91 208/169/92
f 208/169/92 214/175/98 213/174/97
f 214/175/98 208/169/92 209/170/93
f 209/170/93 215/176/99 214/175/98
f 215/176/99 209/170/93 210/171/94
f 210/171/94 216/177/100 215/176/99
f 216/177/100 210/171/94 205/53/89
f 205/53/89 211/178/95 216/177/100
f 217/179/101 211/172/95 212/173/96
f 212/173/96 218/180/102 217/179/101
f 218/180/102 212/173/96 213/174/97
f 213/174/97 219/181/103 218/180/102
f 219/181/103 213/174/97 214/175/98
f 214/175/98 220/182/104 219/181/103
f 220/182/104 214/175/98 215/176/99
f 215/176/99 221/183/105 220/182/104
f 221/183/105 215/176/99 216/177/100
f 216/177/100 222/184/106 221/183/105
f 222/184/106 216/177/100 211/178/95
f 211/178/95 217/185/101 222/184/106
f 223/186/107 217/179/101 218/180/102
f 218/180/102 224/187/108 223/186/107
f 224/187/108 218/180/102 219/181/103
f 219/181/103 225/188/109 224/187/108
f 225/188/109 219/181/103 220/182/104
f 220/182/104 226/189/110 225/188/109
f 226/189/110 220/182/104 221/183/105
f 221/183/105 227/190/111 226/189/110
f 227/190/111 221/183/105 222/184/106
f 222/184/106 228/191/112 227/190/111
f 228/191/112 222/184/106 217/185/101
f 217/185/101 223/192/107 228/191/112
f 229/193/113 223/186/107 224/187/108
f 224/187/108 230/194/114 229/193/113
f 230/194/114 224/187/108 225/188/109
f 225/188/109 231/195/115 230/194/114
f 231/195/115 225/188/109 226/189/110
f 226/189/110 232/196/116 231/195/115
f 232/196/116 226/189/110 227/190/111
f 227/190/111 233/197/117 232/196/116
f 233/197/117 227/190/111 228/191/112
f 228/191/112 234/198/118 233/197/117
f 234/198/118 228/191/112 223/192/107
f 223/192/107 229/199/113 234/198/118
f 235/200/119 229/193/113 230/194/114
f 230/194/114 236/201/120 235/200/119
f 236/201/120 230/194/114 231/195/115
f 231/195/115 237/202/121 236/201/120
f 237/202/121 231/195/115 232/196/116
f 232/196/116 238/203/122 237/202/121
f 238/203/122 232/196/116 233/197/117
f 233/197/117 239/204/123 238/203/122
f 239/204/123 233/197/117 234/198/118
f 234/198/118 240/205/124 239/204/123
f 240/205/124 234/198/118 229/199/113
f 229/199/113 235/206/119 240/205/124
f 241/207/125 235/200/119 236/201/120
f 236/201/120 242/208/126 241/207/125
f 242/208/126 236/201/120 237/202/121
f 237/202/121 243/209/127 242/208/126
f 243/209/127 237/202/121 238/203/122
f 238/203/122 244/210/128 243/209/127
f 244/210/128 238/203/122 239/204/123
f 239/204/123 245/211/129 244/210/128
f 245/211/129 239/204/123 240/205/124
f 240/205/124 246/212/130 245/211/129
f 246/212/130 240/205/124 235/206/119
f 235/206/119 241/213/125 246/212/130
f 247/214/131 241/207/125 242/208/126
f 242/208/126 248/215/132 247/214/131
f 248/215/132 242/208/126 243/209/127
f 243/209/127 249/216/133 248/215/132
f 249/216/133 243/209/127 244/210/128
f 244/210/128 250/217/134 249/216/133
f 250/217/134 244/210/128 245/211/129
f 245/211/129 251/218/135 250/217/134
f 251/218/135 245/211/129 246/212/130
f 246/212/130 252/219/136 251/218/135
f 252/219/136 246/212/130 241/213/125
f 241/213/125 247/220/131 252/219/136
f 253/221/137 247/214/131 248/215/132
f 248/215/132 254/222/138 253/221/137
f 254/222/138 248/215/132 249/216/133
f 249/216/133 255/223/139 254/222/138
f 255/223/139 249/216/133 250/217/134
f 250/217/134 256/224/140 255/223/139
f 256/224/140 250/217/134 251/218/135
f 251/218/135 257/225/141 256/224/140
f 257/225/141 251/218/135 252/219/136
f 252/219/136 258/226/142 257/225/141
f 258/226/142 252/219/136 247/220/131
f 247/220/131 253/227/137 258/226/142
f 259/33/143 253/221/137 254/222/138
f 254/222/138 260/90/144 259/33/143
f 260/90/144 254/222/138 255/223/139
f 255/223/139 261/94/145 260/90/144
f 261/94/145 255/223/139 256/224/140
f 256/224/140 262/70/146 261/94/145
f 262/70/146 256/224/140 257/225/141
f 257/225/141 263/100/147 262/70/146
f 263/100/147 257/225/141 258/226/142
f 258/226/142 264/104/148 263/100/147
f 264/104/148 258/226/142 253/227/137
f 253/227/137 259/34/143 264/104/148
f 152/53/149 161/87/149 159/86/149
f 152/53/149 159/86/149 157/58/149
f 152/53/149 157/58/149 155/110/149
f 155/110/149 153/82/149 152/53/149
f 264/87/150 259/53/150 260/82/150
f 264/87/150 260/82/150 261/110/150
f 264/87/150 261/110/150 262/58/150
f 262/58/150 263/86/150 264/87/150
f 265/25/1 266/26/1 267/27/1
f 265/25/1 267/27/1 268/28/1
f 265/25/1 268/28/1 269/29/1
f 265/25/1 269/29/1 270/30/1
f 265/25/1 270/30/1 271/31/1
f 271/31/1 272/32/1 265/25/1
f 273/26/10 274/25/10 275/32/10
f 273/26/10 275/32/10 276/31/10
f 273/26/10 276/31/10 277/30/10
f 273/26/10 277/30/10 278/29/10
f 273/26/10 278/29/10 279/28/10
f 279/28/10 280/27/10 273/26/10
f 273/33/2 280/34/2 267/35/2 266/36/2
f 280/33/3 279/34/3 268/35/3 267/36/3
f 279/33/4 278/34/4 269/35/4 268/36/4
f 278/33/5 277/34/5 270/35/5 269/36/5
f 277/33/6 276/34/6 271/35/6 270/36/6
f 276/33/7 275/34/7 272/35/7 271/36/7
f 275/33/8 274/34/8 265/35/8 272/36/8
f 274/33/9 273/34/9 266/35/9 265/36/9
f 281/37/1 282/38/1 283/39/1
f 281/37/1 283/39/1 284/40/1
f 281/37/1 284/40/1 285/41/1
f 281/37/1 285/41/1 286/42/1
f 281/37/1 286/42/1 287/43/1
f 287/43/1 288/44/1 281/37/1
f 289/38/10 290/37/10 291/44/10
f 289/38/10 291/44/10 292/43/10
f 289/38/10 292/43/10 293/42/10
f 289/38/10 293/42/10 294/41/10
f 289/38/10 294/41/10 295/40/10
f 295/40/10 296/39/10 289/38/10
f 289/9/2 296/10/2 283/11/2 282/12/2
f 296/9/3 295/10/3 284/11/3 283/12/3
f 295/9/4 294/10/4 285/11/4 284/12/4
f 294/9/5 293/10/5 286/11/5 285/12/5
f 293/9/6 292/10/6 287/11/6 286/12/6
f 292/9/7 291/10/7 288/11/7 287/12/7
f 291/9/8 290/10/8 281/11/8 288/12/8
f 290/9/9 289/10/9 282/11/9 281/12/9
f 297/33/6 298/45/6 299/51/6
f 299/51/6 300/50/6 301/35/6
f 297/33/6 299/51/6 301/35/6
f 301/35/6 302/49/6 303/48/6
f 301/35/6 303/48/6 304/47/6
f 301/35/6 304/47/6 305/46/6
f 301/35/6 305/46/6 297/33/6
f 306/45/2 307/33/2 308/46/2
f 306/45/2 308/46/2 309/47/2
f 306/45/2 309/47/2 310/48/2
f 310/48/2 311/49/2 312/35/2
f 306/45/2 310/48/2 312/35/2
f 312/35/2 313/50/2 314/51/2
f 312/35/2 314/51/2 306/45/2
f 298/36/151 299/35/151 314/34/151 306/33/151
f 299/36/152 300/35/152 313/34/152 314/33/152
f 300/36/1 301/35/1 312/34/1 313/33/1
f 301/36/4 302/35/4 311/34/4 312/33/4
f 302/36/10 303/35/10 310/34/10 311/33/10
f 303/36/153 304/35/153 309/34/153 310/33/153
f 304/36/10 305/35/10 308/34/10 309/33/10
f 305/36/154 297/35/154 307/34/154 308/33/154
f 297/36/8 298/35/8 306/34/8 307/33/8
f 315/52/1 316/53/1 317/54/1
f 315/52/1 317/54/1 318/55/1
f 315/52/1 318/55/1 319/56/1
f 315/52/1 319/56/1 320/57/1
f 315/52/1 320/57/1 321/58/1
f 315/52/1 321/58/1 322/59/1
f 315/52/1 322/59/1 323/60/1
f 323/60/1 324/61/1 315/52/1
f 325/53/10 326/52/10 327/61/10
f 325/53/10 327/61/10 328/60/10
f 325/53/10 328/60/10 329/59/10
f 325/53/10 329/59/10 330/58/10
f 325/53/10 330/58/10 331/57/10
f 325/53/10 331/57/10 332/56/10
f 325/53/10 332/56/10 333/55/10
f 333/55/10 334/54/10 325/53/10
f 325/33/15 334/62/15 317/63/15 316/36/15
f 334/62/16 333/64/16 318/65/16 317/63/16
f 333/64/6 332/66/6 319/67/6 318/65/6
f 332/66/17 331/68/17 320/69/17 319/67/17
f 331/68/18 330/70/18 321/71/18 320/69/18
f 330/70/19 329/72/19 322/73/19 321/71/19
f 329/72/20 328/74/20 323/75/20 322/73/20
f 328/74/2 327/76/2 324/77/2 323/75/2
f 327/76/21 326/78/21 315/79/21 324/77/21
f 326/78/22 325/34/22 316/35/22 315/79/22
f 335/80/1 336/53/1 337/81/1
f 335/80/1 337/81/1 338/109/1
f 335/80/1 338/109/1 339/70/1
f 335/80/1 339/70/1 340/83/1
f 335/80/1 340/83/1 341/84/1
f 335/80/1 341/84/1 342/58/1
f 335/80/1 342/58/1 343/85/1
f 335/80/1 343/85/1 344/86/1
f 335/80/1 344/86/1 345/71/1
f 345/71/1 346/108/1 335/80/1
f 347/53/10 348/80/10 349/108/10
f 347/53/10 349/108/10 350/71/10
f 347/53/10 350/71/10 351/86/10
f 347/53/10 351/86/10 352/85/10
f 347/53/10 352/85/10 353/58/10
f 347/53/10 353/58/10 354/84/10
f 347/53/10 354/84/10 355/83/10
f 347/53/10 355/83/10 356/70/10
f 347/53/10 356/70/10 357/109/10
f 357/109/10 358/81/10 347/53/10
f 347/33/23 358/88/23 337/89/23 336/36/23
f 358/88/5 357/90/5 338/91/5 337/89/5
f 357/90/24 356/92/24 339/93/24 338/91/24
f 356/92/25 355/94/25 340/95/25 339/93/25
f 355/94/7 354/96/7 341/97/7 340/95/7
f 354/96/26 353/70/26 342/71/26 341/97/26
f 353/70/27 352/98/27 343/99/27 342/71/27
f 352/98/9 351/100/9 344/101/9 343/99/9
f 351/100/28 350/102/28 345/103/28 344/101/28
f 350/102/29 349/104/29 346/105/29 345/103/29
f 349/104/3 348/106/3 335/107/3 346/105/3
f 348/106/30 347/34/30 336/35/30 335/107/30
f 359/108/1 360/53/1 361/109/1
f 359/108/1 361/109/1 362/110/1
f 359/108/1 362/110/1 363/58/1
f 363/58/1 364/86/1 359/108/1
f 365/53/10 366/108/10 367/86/10
f 365/53/10 367/86/10 368/58/10
f 365/53/10 368/58/10 369/110/10
f 369/110/10 370/109/10 365/53/10
f 365/33/31 370/90/31 361/91/31 360/36/31
f 370/90/6 369/94/6 362/95/6 361/91/6
f 369/94/32 368/70/32 363/71/32 362/95/32
f 368/70/33 367/100/33 364/101/33 363/71/33
f 367/100/2 366/104/2 359/105/2 364/101/2
f 366/104/34 365/34/34 360/35/34 359/105/34
f 371/108/1 372/53/1 373/109/1
f 371/108/1 373/109/1 374/110/1
f 371/108/1 374/110/1 375/58/1
f 375/58/1 376/86/1 371/108/1
f 377/53/10 378/108/10 379/86/10
f 377/53/10 379/86/10 380/58/10
f 377/53/10 380/58/10 381/110/10
f 381/110/10 382/109/10 377/53/10
f 377/33/31 382/90/31 373/91/31 372/36/31
f 382/90/6 381/94/6 374/95/6 373/91/6
f 381/94/32 380/70/32 375/71/32 374/95/32
f 380/70/33 379/100/33 376/101/33 375/71/33
f 379/100/2 378/104/2 371/105/2 376/101/2
f 378/104/34 377/34/34 372/35/34 371/105/34
f 383/111/155 384/36/156 385/91/157
f 385/91/157 386/112/158 383/111/155
f 386/112/158 385/91/157 387/95/159
f 387/95/159 388/113/160 386/112/158
f 388/113/160 387/95/159 389/71/161
f 389/71/161 390/114/162 388/113/160
f 390/114/162 389/71/161 391/101/163
f 391/101/163 392/115/164 390/114/162
f 392/115/164 391/101/163 393/105/165
f 393/105/165 394/116/166 392/115/164
f 394/116/166 393/105/165 384/35/156
f 384/35/156 383/117/155 394/116/166
f 395/118/167 383/111/155 386/112/158
f 386/112/158 396/119/168 395/118/167
f 396/119/168 386/112/158 388/113/160
f 388/113/160 397/120/169 396/119/168
f 397/120/169 388/113/160 390/114/162
f 390/114/162 398/121/170 397/120/169
f 398/121/170 390/114/162 392/115/164
f 392/115/164 399/122/171 398/121/170
f 399/122/171 392/115/164 394/116/166
f 394/116/166 400/123/172 399/122/171
f 400/123/172 394/116/166 383/117/155
f 383/117/155 395/124/167 400/123/172
f 401/125/173 395/118/167 396/119/168
f 396/119/168 402/126/174 401/125/173
f 402/126/174 396/119/168 397/120/169
f 397/120/169 403/127/175 402/126/174
f 403/127/175 397/120/169 398/121/170
f 398/121/170 404/128/176 403/127/175
f 404/128/176 398/121/170 399/122/171
f 399/122/171 405/129/177 404/128/176
f 405/129/177 399/122/171 400/123/172
f 400/123/172 406/130/178 405/129/177
f 406/130/178 400/123/172 395/124/167
f 395/124/167 401/131/173 406/130/178
f 407/132/179 401/125/173 402/126/174
f 402/126/174 408/133/180 407/132/179
f 408/133/180 402/126/174 403/127/175
f 403/127/175 409/134/181 408/133/180
f 409/134/181 403/127/175 404/128/176
f 404/128/176 410/135/182 409/134/181
f 410/135/182 404/128/176 405/129/177
f 405/129/177 411/136/183 410/135/182
f 411/136/183 405/129/177 406/130/178
f 406/130/178 412/137/184 411/136/183
f 412/137/184 406/130/178 401/131/173
f 401/131/173 407/138/179 412/137/184
f 413/139/185 407/132/179 408/133/180
f 408/133/180 414/140/186 413/139/185
f 414/140/186 408/133/180 409/134/181
f 409/134/181 415/141/187 414/140/186
f 415/141/187 409/134/181 410/135/182
f 410/135/182 416/142/188 415/141/187
f 416/142/188 410/135/182 411/136/183
f 411/136/183 417/143/189 416/142/188
f 417/143/189 411/136/183 412/137/184
f 412/137/184 418/144/190 417/143/189
f 418/144/190 412/137/184 407/138/179
f 407/138/179 413/145/185 418/144/190
f 419/146/191 413/139/185 414/140/186
f 414/140/186 420/147/192 419/146/191
f 420/147/192 414/140/186 415/141/187
f 415/141/187 421/148/193 420/147/192
f 421/148/193 415/141/187 416/142/188
f 416/142/188 422/149/194 421/148/193
f 422/149/194 416/142/188 417/143/189
f 417/143/189 423/150/195 422/149/194
f 423/150/195 417/143/189 418/144/190
f 418/144/190 424/151/196 423/150/195
f 424/151/196 418/144/190 413/145/185
f 413/145/185 419/152/191 424/151/196
f 425/153/197 419/146/191 420/147/192
f 420/147/192 426/154/198 425/153/197
f 426/154/198 420/147/192 421/148/193
f 421/148/193 427/155/199 426/154/198
f 427/155/199 421/148/193 422/149/194
f 422/149/194 428/156/200 427/155/199
f 428/156/200 422/149/194 423/150/195
f 423/150/195 429/157/201 428/156/200
f 429/157/201 423/150/195 424/151/196
f 424/151/196 430/158/202 429/157/201
f 430/158/202 424/151/196 419/152/191
f 419/152/191 425/159/197 430/158/202
f 431/160/203 425/153/197 426/154/198
f 426/154/198 432/161/204 431/160/203
f 432/161/204 426/154/198 427/155/199
f 427/155/199 433/162/205 432/161/204
f 433/162/205 427/155/199 428/156/200
f 428/156/200 434/163/206 433/162/205
f 434/163/206 428/156/200 429/157/201
f 429/157/201 435/164/207 434/163/206
f 435/164/207 429/157/201 430/158/202
f 430/158/202 436/165/208 435/164/207
f 436/165/208 430/158/202 425/159/197
f 425/159/197 431/166/203 436/165/208
f 437/58/209 431/160/203 432/161/204
f 432/161/204 438/167/210 437/58/209
f 438/167/210 432/161/204 433/162/205
f 433/162/205 439/168/211 438/167/210
f 439/168/211 433/162/205 434/163/206
f 434/163/206 440/169/212 439/168/211
f 440/169/212 434/163/206 435/164/207
f 435/164/207 441/170/213 440/169/212
f 441/170/213 435/164/207 436/165/208
f 436/165/208 442/171/214 441/170/213
f 442/171/214 436/165/208 431/166/203
f 431/166/203 437/53/209 442/171/214
f 443/172/215 437/58/209 438/167/210
f 438/167/210 444/173/216 443/172/215
f 444/173/216 438/167/210 439/168/211
f 439/168/211 445/174/217 444/173/216
f 445/174/217 439/168/211 440/169/212
f 440/169/212 446/175/218 445/174/217
f 446/175/218 440/169/212 441/170/213
f 441/170/213 447/176/219 446/175/218
f 447/176/219 441/170/213 442/171/214
f 442/171/214 448/177/220 447/176/219
f 448/177/220 442/171/214 437/53/209
f 437/53/209 443/178/215 448/177/220
f 449/179/221 443/172/215 444/173/216
f 444/173/216 450/180/222 449/179/221
f 450/180/222 444/173/216 445/174/217
f 445/174/217 451/181/223 450/180/222
f 451/181/223 445/174/217 446/175/218
f 446/175/218 452/182/224 451/181/223
f 452/182/224 446/175/218 447/176/219
f 447/176/219 453/183/225 452/182/224
f 453/183/225 447/176/219 448/177/220
f 448/177/220 454/184/226 453/183/225
f 454/184/226 448/177/220 443/178/215
f 443/178/215 449/185/221 454/184/226
f 455/186/227 449/179/221 450/180/222
f 450/180/222 456/187/228 455/186/227
f 456/187/228 450/180/222 451/181/223
f 451/181/223 457/188/229 456/187/228
f 457/188/229 451/181/223 452/182/224
f 452/182/224 458/189/230 457/188/229
f 458/189/230 452/182/224 453/183/225
f 453/183/225 459/190/231 458/189/230
f 459/190/231 453/183/225 454/184/226
f 454/184/226 460/191/232 459/190/231
f 460/191/232 454/184/226 449/185/221
f 449/185/221 455/192/227 460/191/232
f 461/193/233 455/186/227 456/187/228
f 456/187/228 462/194/234 461/193/233
f 462/194/234 456/187/228 457/188/229
f 457/188/229 463/195/235 462/194/234
f 463/195/235 457/188/229 458/189/230
f 458/189/230 464/196/236 463/195/235
f 464/196/236 458/189/230 459/190/231
f 459/190/231 465/197/237 464/196/236
f 465/197/237 459/190/231 460/191/232
f 460/191/232 466/198/238 465/197/237
f 466/198/238 460/191/232 455/192/227
f 455/192/227 461/199/233 466/198/238
f 467/200/239 461/193/233 462/194/234
f 462/194/234 468/201/240 467/200/239
f 468/201/240 462/194/234 463/195/235
f 463/195/235 469/202/241 468/201/240
f 469/202/241 463/195/235 464/196/236
f 464/196/236 470/203/242 469/202/241
f 470/203/242 464/196/236 465/197/237
f 465/197/237 471/204/243 470/203/242
f 471/204/243 465/197/237 466/198/238
f 466/198/238 472/205/244 471/204/243
f 472/205/244 466/198/238 461/199/233
f 461/199/233 467/206/239 472/205/244
f 473/207/245 467/200/239 468/201/240
f 468/201/240 474/208/246 473/207/245
f 474/208/246 468/201/240 469/202/241
f 469/202/241 475/209/247 474/208/246
f 475/209/247 469/202/241 470/203/242
f 470/203/242 476/210/248 475/209/247
f 476/210/248 470/203/242 471/204/243
f 471/204/243 477/211/249 476/210/248
f 477/211/249 471/204/243 472/205/244
f 472/205/244 478/212/250 477/211/249
f 478/212/250 472/205/244 467/206/239
f 467/206/239 473/213/245 478/212/250
f 479/214/251 473/207/245 474/208/246
f 474/208/246 480/215/252 479/214/251
f 480/215/252 474/208/246 475/209/247
f 475/209/247 481/216/253 480/215/252
f 481/216/253 475/209/247 476/210/248
f 476/210/248 482/217/254 481/216/253
f 482/217/254 476/210/248 477/211/249
f 477/211/249 483/218/255 482/217/254
f 483/218/255 477/211/249 478/212/250
f 478/212/250 484/219/256 483/218/255
f 484/219/256 478/212/250 473/213/245
f 473/213/245 479/220/251 484/219/256
f 485/221/257 479/214/251 480/215/252
f 480/215/252 486/222/258 485/221/257
f 486/222/258 480/215/252 481/216/253
f 481/216/253 487/223/259 486/222/258
f 487/223/259 481/216/253 482/217/254
f 482/217/254 488/224/260 487/223/259
f 488/224/260 482/217/254 483/218/255
f 483/218/255 489/225/261 488/224/260
f 489/225/261 483/218/255 484/219/256
f 484/219/256 490/226/262 489/225/261
f 490/226/262 484/219/256 479/220/251
f 479/220/251 485/227/257 490/226/262
f 491/33/263 485/221/257 486/222/258
f 486/222/258 492/90/264 491/33/263
f 492/90/264 486/222/258 487/223/259
f 487/223/259 493/94/265 492/90/264
f 493/94/265 487/223/259 488/224/260
f 488/224/260 494/70/266 493/94/265
f 494/70/266 488/224/260 489/225/261
f 489/225/261 495/100/267 494/70/266
f 495/100/267 489/225/261 490/226/262
f 490/226/262 496/104/268 495/100/267
f 496/104/268 490/226/262 485/227/257
f 485/227/257 491/34/263 496/104/268
f 384/53/269 393/87/269 391/86/269
f 384/53/269 391/86/269 389/58/269
f 384/53/269 389/58/269 387/110/269
f 387/110/269 385/82/269 384/53/269
f 496/87/270 491/53/270 492/82/270
f 496/87/270 492/82/270 493/110/270
f 496/87/270 493/110/270 494/58/270
f 494/58/270 495/86/270 496/87/270
