# metres; Y up; CCW outward; repeat 0.6 m
mtllib outer_guard_mid.mtl
v -1.850000 -0.304000 -0.300000
v -1.850000 -0.304000 0.000000
v -1.800000 -0.258131 0.000000
v -1.800000 -0.258885 -0.300000
v -1.850000 -0.304000 0.300000
v -1.800000 -0.258885 0.300000
v -1.800000 -0.304000 -0.300000
v -1.800000 -0.304000 0.300000
v -1.783750 -0.243412 0.000000
v -1.783750 -0.244412 -0.300000
v -1.783750 -0.244412 0.300000
v -1.783750 -0.304000 -0.300000
v -1.783750 -0.304000 0.300000
v -1.717500 -0.185387 0.000000
v -1.717500 -0.187387 -0.300000
v -1.717500 -0.187387 0.300000
v -1.717500 -0.304000 -0.300000
v -1.717500 -0.304000 0.300000
v -1.651250 -0.132099 0.000000
v -1.651250 -0.135099 -0.300000
v -1.651250 -0.135099 0.300000
v -1.651250 -0.304000 -0.300000
v -1.651250 -0.304000 0.300000
v -1.585000 -0.085000 0.000000
v -1.585000 -0.089000 -0.300000
v -1.585000 -0.089000 0.300000
v -1.585000 -0.304000 -0.300000
v -1.585000 -0.304000 0.300000
v -1.518750 -0.044599 0.000000
v -1.518750 -0.049599 -0.300000
v -1.518750 -0.049599 0.300000
v -1.518750 -0.304000 -0.300000
v -1.518750 -0.304000 0.300000
v -1.452500 -0.010387 0.000000
v -1.452500 -0.016387 -0.300000
v -1.452500 -0.016387 0.300000
v -1.452500 -0.304000 -0.300000
v -1.452500 -0.304000 0.300000
v -1.386250 0.019088 0.000000
v -1.386250 0.012088 -0.300000
v -1.386250 0.012088 0.300000
v -1.414374 0.000000 -0.300000
v -1.386250 0.000000 -0.300000
v -1.386250 -0.304000 -0.300000
v -1.386250 -0.304000 0.300000
v -1.386250 0.000000 0.300000
v -1.414374 0.000000 0.300000
v -1.320000 0.046000 0.000000
v -1.320000 0.038000 -0.300000
v -1.320000 0.038000 0.300000
v -1.320000 0.000000 -0.300000
v -1.320000 -0.304000 -0.300000
v -1.320000 -0.304000 0.300000
v -1.320000 0.000000 0.300000
v -1.200000 0.034000 0.000000
v -1.200000 0.026000 -0.300000
v -1.200000 0.026000 0.300000
v -1.200000 0.000000 -0.300000
v -1.200000 -0.304000 -0.300000
v -1.200000 -0.304000 0.300000
v -1.200000 0.000000 0.300000
v -0.600000 0.034000 0.000000
v -0.600000 0.026000 -0.300000
v -0.600000 0.026000 0.300000
v -0.600000 0.000000 -0.300000
v -0.600000 -0.304000 -0.300000
v -0.600000 -0.304000 0.300000
v -0.600000 0.000000 0.300000
v 0.000000 0.034000 0.000000
v 0.000000 0.026000 -0.300000
v 0.000000 0.026000 0.300000
v 0.000000 0.000000 -0.300000
v 0.000000 -0.304000 -0.300000
v 0.000000 -0.304000 0.300000
v 0.000000 0.000000 0.300000
v 0.600000 0.034000 0.000000
v 0.600000 0.026000 -0.300000
v 0.600000 0.026000 0.300000
v 0.600000 0.000000 -0.300000
v 0.600000 -0.304000 -0.300000
v 0.600000 -0.304000 0.300000
v 0.600000 0.000000 0.300000
v 1.200000 0.034000 0.000000
v 1.200000 0.026000 -0.300000
v 1.200000 0.026000 0.300000
v 1.200000 0.000000 -0.300000
v 1.200000 -0.304000 -0.300000
v 1.200000 -0.304000 0.300000
v 1.200000 0.000000 0.300000
v 1.320000 0.046000 0.000000
v 1.320000 0.038000 -0.300000
v 1.320000 0.038000 0.300000
v 1.320000 0.000000 -0.300000
v 1.320000 -0.304000 -0.300000
v 1.320000 -0.304000 0.300000
v 1.320000 0.000000 0.300000
v 1.386250 0.019088 0.000000
v 1.386250 0.012088 -0.300000
v 1.386250 0.012088 0.300000
v 1.386250 0.000000 -0.300000
v 1.386250 -0.304000 -0.300000
v 1.386250 -0.304000 0.300000
v 1.386250 0.000000 0.300000
v 1.452500 -0.010387 0.000000
v 1.452500 -0.016387 -0.300000
v 1.452500 -0.016387 0.300000
v 1.414374 0.000000 -0.300000
v 1.452500 -0.304000 -0.300000
v 1.452500 -0.304000 0.300000
v 1.414374 0.000000 0.300000
v 1.518750 -0.044599 0.000000
v 1.518750 -0.049599 -0.300000
v 1.518750 -0.049599 0.300000
v 1.518750 -0.304000 -0.300000
v 1.518750 -0.304000 0.300000
v 1.585000 -0.085000 0.000000
v 1.585000 -0.089000 -0.300000
v 1.585000 -0.089000 0.300000
v 1.585000 -0.304000 -0.300000
v 1.585000 -0.304000 0.300000
v 1.651250 -0.132099 0.000000
v 1.651250 -0.135099 -0.300000
v 1.651250 -0.135099 0.300000
v 1.651250 -0.304000 -0.300000
v 1.651250 -0.304000 0.300000
v 1.717500 -0.185387 0.000000
v 1.717500 -0.187387 -0.300000
v 1.717500 -0.187387 0.300000
v 1.717500 -0.304000 -0.300000
v 1.717500 -0.304000 0.300000
v 1.783750 -0.243412 0.000000
v 1.783750 -0.244412 -0.300000
v 1.783750 -0.244412 0.300000
v 1.783750 -0.304000 -0.300000
v 1.783750 -0.304000 0.300000
v 1.800000 -0.258131 0.000000
v 1.800000 -0.258885 -0.300000
v 1.800000 -0.258885 0.300000
v 1.800000 -0.304000 -0.300000
v 1.800000 -0.304000 0.300000
v 1.850000 -0.304000 0.000000
v 1.850000 -0.304000 -0.300000
v 1.850000 -0.304000 0.300000
v -1.250000 -0.034578 -0.105000
v -1.220000 -0.034578 -0.105000
v -1.220000 -0.034578 0.105000
v -1.250000 -0.034578 0.105000
v -1.250000 0.065422 0.096000
v -1.220000 0.066547 0.096000
v -1.220000 0.074547 0.086000
v -1.250000 0.073422 0.086000
v -1.220000 0.074547 -0.086000
v -1.250000 0.073422 -0.086000
v -1.220000 0.066547 -0.096000
v -1.250000 0.065422 -0.096000
v -1.200000 -0.034578 -0.120000
v -1.200000 -0.034578 0.120000
v -1.200000 0.067297 0.111000
v -1.200000 0.075297 0.101000
v -1.200000 0.075297 -0.101000
v -1.200000 0.067297 -0.111000
v -0.930000 -0.034578 -0.120000
v -0.930000 -0.034578 0.120000
v -0.930000 0.077422 0.111000
v -0.930000 0.085422 0.101000
v -0.930000 0.085422 -0.101000
v -0.930000 0.077422 -0.111000
v -0.751500 -0.034578 -0.120000
v -0.751500 -0.034578 0.120000
v -0.751500 0.077422 0.111000
v -0.751500 0.085422 0.101000
v -0.751500 0.085422 -0.101000
v -0.751500 0.077422 -0.111000
v -0.600000 -0.034578 -0.120000
v -0.600000 -0.034578 0.120000
v -0.600000 0.077422 0.111000
v -0.600000 0.085422 0.101000
v -0.600000 0.085422 -0.101000
v -0.600000 0.077422 -0.111000
v -0.530000 -0.034578 -0.120000
v -0.530000 -0.034578 0.120000
v -0.530000 0.077422 0.111000
v -0.530000 0.085422 0.101000
v -0.530000 0.085422 -0.101000
v -0.530000 0.077422 -0.111000
v -0.400000 -0.034578 -0.120000
v -0.400000 -0.034578 0.120000
v -0.400000 0.072463 0.111000
v -0.400000 0.080463 0.101000
v -0.400000 0.080463 -0.101000
v -0.400000 0.072463 -0.111000
v -0.270000 -0.034578 -0.120000
v -0.270000 -0.034578 0.120000
v -0.270000 0.060387 0.111000
v -0.270000 0.068387 0.101000
v -0.270000 0.068387 -0.101000
v -0.270000 0.060387 -0.111000
v -0.130000 -0.034578 -0.120000
v -0.130000 -0.034578 0.120000
v -0.130000 0.047270 0.111000
v -0.130000 0.055270 0.101000
v -0.130000 0.055270 -0.101000
v -0.130000 0.047270 -0.111000
v 0.000000 -0.034578 -0.120000
v 0.000000 -0.034578 0.120000
v 0.000000 0.042311 0.111000
v 0.000000 0.050311 0.101000
v 0.000000 0.050311 -0.101000
v 0.000000 0.042311 -0.111000
v 0.130000 -0.034578 -0.120000
v 0.130000 -0.034578 0.120000
v 0.130000 0.047270 0.111000
v 0.130000 0.055270 0.101000
v 0.130000 0.055270 -0.101000
v 0.130000 0.047270 -0.111000
v 0.270000 -0.034578 -0.120000
v 0.270000 -0.034578 0.120000
v 0.270000 0.060387 0.111000
v 0.270000 0.068387 0.101000
v 0.270000 0.068387 -0.101000
v 0.270000 0.060387 -0.111000
v 0.400000 -0.034578 -0.120000
v 0.400000 -0.034578 0.120000
v 0.400000 0.072463 0.111000
v 0.400000 0.080463 0.101000
v 0.400000 0.080463 -0.101000
v 0.400000 0.072463 -0.111000
v 0.530000 -0.034578 -0.120000
v 0.530000 -0.034578 0.120000
v 0.530000 0.077422 0.111000
v 0.530000 0.085422 0.101000
v 0.530000 0.085422 -0.101000
v 0.530000 0.077422 -0.111000
v 0.600000 -0.034578 -0.120000
v 0.600000 -0.034578 0.120000
v 0.600000 0.077422 0.111000
v 0.600000 0.085422 0.101000
v 0.600000 0.085422 -0.101000
v 0.600000 0.077422 -0.111000
v 0.751500 -0.034578 -0.120000
v 0.751500 -0.034578 0.120000
v 0.751500 0.077422 0.111000
v 0.751500 0.085422 0.101000
v 0.751500 0.085422 -0.101000
v 0.751500 0.077422 -0.111000
v 0.930000 -0.034578 -0.120000
v 0.930000 -0.034578 0.120000
v 0.930000 0.077422 0.111000
v 0.930000 0.085422 0.101000
v 0.930000 0.085422 -0.101000
v 0.930000 0.077422 -0.111000
v 1.200000 -0.034578 -0.120000
v 1.200000 -0.034578 0.120000
v 1.200000 0.067297 0.111000
v 1.200000 0.075297 0.101000
v 1.200000 0.075297 -0.101000
v 1.200000 0.067297 -0.111000
v 1.220000 -0.034578 -0.105000
v 1.220000 -0.034578 0.105000
v 1.220000 0.066547 0.096000
v 1.220000 0.074547 0.086000
v 1.220000 0.074547 -0.086000
v 1.220000 0.066547 -0.096000
v 1.250000 -0.034578 -0.105000
v 1.250000 -0.034578 0.105000
v 1.250000 0.065422 0.096000
v 1.250000 0.073422 0.086000
v 1.250000 0.073422 -0.086000
v 1.250000 0.065422 -0.096000
v -0.827500 0.085422 -0.101000
v -0.821500 0.085422 -0.107000
v -0.790700 0.085422 -0.107000
v -0.790700 0.085422 -0.102512
v -0.790700 0.085422 -0.101000
v -0.790700 0.085422 -0.052095
v -0.790700 0.085422 -0.048573
v -0.790700 0.085422 0.107000
v -0.821500 0.085422 0.107000
v -0.827500 0.085422 0.101000
v -0.821500 0.095422 -0.107000
v -0.790700 0.095422 -0.107000
v -0.790700 0.095422 0.107000
v -0.821500 0.095422 0.107000
v -0.827500 0.095422 0.101000
v -0.827500 0.095422 -0.101000
v -0.820500 0.099422 -0.106000
v -0.826500 0.099422 -0.100000
v -0.826500 0.099422 0.100000
v -0.820500 0.099422 0.106000
v -0.790700 0.099422 0.106000
v -0.790700 0.099422 -0.060220
v -0.790700 0.099422 -0.063369
v -0.790700 0.099422 -0.104758
v -0.790700 0.099422 -0.106000
v -0.790700 0.095422 -0.106000
v -0.820500 0.095422 -0.106000
v -0.820500 0.095422 0.106000
v -0.790700 0.095422 0.106000
v -0.826500 0.095422 0.100000
v -0.826500 0.095422 -0.100000
v -0.946500 0.085422 -0.100000
v -0.943500 0.085422 -0.103000
v -0.823500 0.085422 -0.103000
v -0.820500 0.085422 -0.100000
v -0.820500 0.085422 0.100000
v -0.823500 0.085422 0.103000
v -0.943500 0.085422 0.103000
v -0.946500 0.085422 0.100000
v -0.943500 0.095422 -0.103000
v -0.946500 0.095422 -0.100000
v -0.946500 0.095422 0.100000
v -0.943500 0.095422 0.103000
v -0.823500 0.095422 0.103000
v -0.820500 0.095422 0.100000
v -0.820500 0.095422 -0.100000
v -0.823500 0.095422 -0.103000
v -0.950500 0.095422 -0.105000
v -0.948500 0.095422 -0.107000
v -0.936500 0.095422 -0.107000
v -0.934500 0.095422 -0.105000
v -0.934500 0.095422 0.105000
v -0.936500 0.095422 0.107000
v -0.948500 0.095422 0.107000
v -0.950500 0.095422 0.105000
v -0.948500 0.126422 -0.107000
v -0.950500 0.126422 -0.105000
v -0.950500 0.126422 0.105000
v -0.948500 0.126422 0.107000
v -0.936500 0.126422 0.107000
v -0.934500 0.126422 0.105000
v -0.934500 0.126422 -0.105000
v -0.936500 0.126422 -0.107000
v -0.793500 0.119400 -0.105000
v -0.793500 0.129000 -0.105000
v -0.819500 0.123500 -0.105000
v -0.827500 0.123500 -0.105000
v -0.901500 0.109500 -0.105000
v -0.939500 0.109500 -0.105000
v -0.939500 0.095422 -0.105000
v -0.833500 0.095422 -0.105000
v -0.821500 0.108000 -0.105000
v -0.793500 0.129000 0.105000
v -0.793500 0.119400 0.105000
v -0.821500 0.108000 0.105000
v -0.833500 0.095422 0.105000
v -0.939500 0.095422 0.105000
v -0.939500 0.109500 0.105000
v -0.901500 0.109500 0.105000
v -0.827500 0.123500 0.105000
v -0.819500 0.123500 0.105000
v -0.879500 0.095422 -0.008660
v -0.874500 0.095422 0.000000
v -0.879500 0.095422 0.008660
v -0.889500 0.095422 0.008660
v -0.894500 0.095422 0.000000
v -0.889500 0.095422 -0.008660
v -0.874500 0.192000 0.000000
v -0.879500 0.192000 -0.008660
v -0.889500 0.192000 -0.008660
v -0.894500 0.192000 0.000000
v -0.889500 0.192000 0.008660
v -0.879500 0.192000 0.008660
v -0.863287 0.162000 -0.021213
v -0.854500 0.162000 0.000000
v -0.863287 0.162000 0.021213
v -0.884500 0.162000 0.030000
v -0.905713 0.162000 0.021213
v -0.914500 0.162000 0.000000
v -0.905713 0.162000 -0.021213
v -0.884500 0.162000 -0.030000
v -0.854500 0.168000 0.000000
v -0.863287 0.168000 -0.021213
v -0.884500 0.168000 -0.030000
v -0.905713 0.168000 -0.021213
v -0.914500 0.168000 0.000000
v -0.905713 0.168000 0.021213
v -0.884500 0.168000 0.030000
v -0.863287 0.168000 0.021213
v -0.874500 0.168000 -0.017321
v -0.864500 0.168000 0.000000
v -0.874500 0.168000 0.017321
v -0.894500 0.168000 0.017321
v -0.904500 0.168000 0.000000
v -0.894500 0.168000 -0.017321
v -0.864500 0.186000 0.000000
v -0.874500 0.186000 -0.017321
v -0.894500 0.186000 -0.017321
v -0.904500 0.186000 0.000000
v -0.894500 0.186000 0.017321
v -0.874500 0.186000 0.017321
v -0.875500 0.186000 -0.015588
v -0.866500 0.186000 0.000000
v -0.875500 0.186000 0.015588
v -0.893500 0.186000 0.015588
v -0.902500 0.186000 0.000000
v -0.893500 0.186000 -0.015588
v -0.866500 0.189000 0.000000
v -0.875500 0.189000 -0.015588
v -0.893500 0.189000 -0.015588
v -0.902500 0.189000 0.000000
v -0.893500 0.189000 0.015588
v -0.875500 0.189000 0.015588
v -0.681500 0.099422 -0.300000
v -0.681500 0.108000 -0.300000
v -0.681500 0.108000 0.300000
v -0.681500 0.099422 0.300000
v -0.687500 0.113000 -0.300000
v -0.687500 0.113000 0.300000
v -0.725500 0.124000 -0.300000
v -0.725500 0.124000 0.300000
v -0.739500 0.134000 -0.300000
v -0.739500 0.134000 0.300000
v -0.742500 0.145000 -0.300000
v -0.742500 0.145000 0.300000
v -0.742500 0.207000 -0.300000
v -0.742500 0.207000 0.300000
v -0.738500 0.219000 -0.300000
v -0.738500 0.219000 0.300000
v -0.724500 0.225000 -0.300000
v -0.724500 0.225000 0.300000
v -0.718500 0.231000 -0.300000
v -0.718500 0.231000 0.300000
v -0.717500 0.239000 -0.300000
v -0.717500 0.239000 0.300000
v -0.717500 0.254000 -0.300000
v -0.717500 0.254000 0.300000
v -0.719500 0.260000 -0.300000
v -0.719500 0.260000 0.300000
v -0.725500 0.264280 -0.300000
v -0.725500 0.264280 0.300000
v -0.777500 0.264280 -0.300000
v -0.777500 0.264280 0.300000
v -0.783500 0.260000 -0.300000
v -0.783500 0.260000 0.300000
v -0.785500 0.254000 -0.300000
v -0.785500 0.254000 0.300000
v -0.785500 0.239000 -0.300000
v -0.785500 0.239000 0.300000
v -0.784500 0.231000 -0.300000
v -0.784500 0.231000 0.300000
v -0.778500 0.225000 -0.300000
v -0.778500 0.225000 0.300000
v -0.764500 0.219000 -0.300000
v -0.764500 0.219000 0.300000
v -0.760500 0.207000 -0.300000
v -0.760500 0.207000 0.300000
v -0.760500 0.145000 -0.300000
v -0.760500 0.145000 0.300000
v -0.763500 0.134000 -0.300000
v -0.763500 0.134000 0.300000
v -0.777500 0.124000 -0.300000
v -0.777500 0.124000 0.300000
v -0.815500 0.113000 -0.300000
v -0.815500 0.113000 0.300000
v -0.821500 0.108000 -0.300000
v -0.821500 0.108000 0.300000
v -0.821500 0.099422 -0.300000
v -0.821500 0.099422 0.300000
v 0.790700 0.085422 -0.107000
v 0.821500 0.085422 -0.107000
v 0.790700 0.085422 -0.105734
v 0.827500 0.085422 -0.101000
v 0.790700 0.085422 -0.101000
v 0.827500 0.085422 0.101000
v 0.790700 0.085422 0.052095
v 0.821500 0.085422 0.107000
v 0.790700 0.085422 0.063121
v 0.790700 0.085422 0.107000
v 0.790700 0.095422 -0.107000
v 0.821500 0.095422 -0.107000
v 0.827500 0.095422 -0.101000
v 0.827500 0.095422 0.101000
v 0.821500 0.095422 0.107000
v 0.790700 0.095422 0.107000
v 0.790700 0.099422 0.106000
v 0.820500 0.099422 0.106000
v 0.790700 0.099422 0.060220
v 0.826500 0.099422 0.100000
v 0.790700 0.099422 0.048786
v 0.826500 0.099422 -0.100000
v 0.790700 0.099422 -0.101492
v 0.820500 0.099422 -0.106000
v 0.790700 0.099422 -0.106000
v 0.820500 0.095422 -0.106000
v 0.790700 0.095422 -0.106000
v 0.826500 0.095422 -0.100000
v 0.826500 0.095422 0.100000
v 0.820500 0.095422 0.106000
v 0.790700 0.095422 0.106000
v 0.820500 0.085422 -0.100000
v 0.823500 0.085422 -0.103000
v 0.943500 0.085422 -0.103000
v 0.946500 0.085422 -0.100000
v 0.946500 0.085422 0.100000
v 0.943500 0.085422 0.103000
v 0.823500 0.085422 0.103000
v 0.820500 0.085422 0.100000
v 0.823500 0.095422 -0.103000
v 0.820500 0.095422 -0.100000
v 0.820500 0.095422 0.100000
v 0.823500 0.095422 0.103000
v 0.943500 0.095422 0.103000
v 0.946500 0.095422 0.100000
v 0.946500 0.095422 -0.100000
v 0.943500 0.095422 -0.103000
v 0.934500 0.095422 -0.105000
v 0.936500 0.095422 -0.107000
v 0.948500 0.095422 -0.107000
v 0.950500 0.095422 -0.105000
v 0.950500 0.095422 0.105000
v 0.948500 0.095422 0.107000
v 0.936500 0.095422 0.107000
v 0.934500 0.095422 0.105000
v 0.936500 0.126422 -0.107000
v 0.934500 0.126422 -0.105000
v 0.934500 0.126422 0.105000
v 0.936500 0.126422 0.107000
v 0.948500 0.126422 0.107000
v 0.950500 0.126422 0.105000
v 0.950500 0.126422 -0.105000
v 0.948500 0.126422 -0.107000
v 0.793500 0.129000 -0.105000
v 0.793500 0.119400 -0.105000
v 0.821500 0.108000 -0.105000
v 0.833500 0.095422 -0.105000
v 0.939500 0.095422 -0.105000
v 0.939500 0.109500 -0.105000
v 0.901500 0.109500 -0.105000
v 0.827500 0.123500 -0.105000
v 0.819500 0.123500 -0.105000
v 0.793500 0.119400 0.105000
v 0.793500 0.129000 0.105000
v 0.819500 0.123500 0.105000
v 0.827500 0.123500 0.105000
v 0.901500 0.109500 0.105000
v 0.939500 0.109500 0.105000
v 0.939500 0.095422 0.105000
v 0.833500 0.095422 0.105000
v 0.821500 0.108000 0.105000
v 0.889500 0.095422 -0.008660
v 0.894500 0.095422 0.000000
v 0.889500 0.095422 0.008660
v 0.879500 0.095422 0.008660
v 0.874500 0.095422 0.000000
v 0.879500 0.095422 -0.008660
v 0.894500 0.192000 0.000000
v 0.889500 0.192000 -0.008660
v 0.879500 0.192000 -0.008660
v 0.874500 0.192000 0.000000
v 0.879500 0.192000 0.008660
v 0.889500 0.192000 0.008660
v 0.905713 0.162000 -0.021213
v 0.914500 0.162000 0.000000
v 0.905713 0.162000 0.021213
v 0.884500 0.162000 0.030000
v 0.863287 0.162000 0.021213
v 0.854500 0.162000 0.000000
v 0.863287 0.162000 -0.021213
v 0.884500 0.162000 -0.030000
v 0.914500 0.168000 0.000000
v 0.905713 0.168000 -0.021213
v 0.884500 0.168000 -0.030000
v 0.863287 0.168000 -0.021213
v 0.854500 0.168000 0.000000
v 0.863287 0.168000 0.021213
v 0.884500 0.168000 0.030000
v 0.905713 0.168000 0.021213
v 0.894500 0.168000 -0.017321
v 0.904500 0.168000 0.000000
v 0.894500 0.168000 0.017321
v 0.874500 0.168000 0.017321
v 0.864500 0.168000 0.000000
v 0.874500 0.168000 -0.017321
v 0.904500 0.186000 0.000000
v 0.894500 0.186000 -0.017321
v 0.874500 0.186000 -0.017321
v 0.864500 0.186000 0.000000
v 0.874500 0.186000 0.017321
v 0.894500 0.186000 0.017321
v 0.893500 0.186000 -0.015588
v 0.902500 0.186000 0.000000
v 0.893500 0.186000 0.015588
v 0.875500 0.186000 0.015588
v 0.866500 0.186000 0.000000
v 0.875500 0.186000 -0.015588
v 0.902500 0.189000 0.000000
v 0.893500 0.189000 -0.015588
v 0.875500 0.189000 -0.015588
v 0.866500 0.189000 0.000000
v 0.875500 0.189000 0.015588
v 0.893500 0.189000 0.015588
v 0.821500 0.099422 -0.300000
v 0.821500 0.108000 -0.300000
v 0.821500 0.108000 0.300000
v 0.821500 0.099422 0.300000
v 0.815500 0.113000 -0.300000
v 0.815500 0.113000 0.300000
v 0.777500 0.124000 -0.300000
v 0.777500 0.124000 0.300000
v 0.763500 0.134000 -0.300000
v 0.763500 0.134000 0.300000
v 0.760500 0.145000 -0.300000
v 0.760500 0.145000 0.300000
v 0.760500 0.207000 -0.300000
v 0.760500 0.207000 0.300000
v 0.764500 0.219000 -0.300000
v 0.764500 0.219000 0.300000
v 0.778500 0.225000 -0.300000
v 0.778500 0.225000 0.300000
v 0.784500 0.231000 -0.300000
v 0.784500 0.231000 0.300000
v 0.785500 0.239000 -0.300000
v 0.785500 0.239000 0.300000
v 0.785500 0.254000 -0.300000
v 0.785500 0.254000 0.300000
v 0.783500 0.260000 -0.300000
v 0.783500 0.260000 0.300000
v 0.777500 0.264280 -0.300000
v 0.777500 0.264280 0.300000
v 0.725500 0.264280 -0.300000
v 0.725500 0.264280 0.300000
v 0.719500 0.260000 -0.300000
v 0.719500 0.260000 0.300000
v 0.717500 0.254000 -0.300000
v 0.717500 0.254000 0.300000
v 0.717500 0.239000 -0.300000
v 0.717500 0.239000 0.300000
v 0.718500 0.231000 -0.300000
v 0.718500 0.231000 0.300000
v 0.724500 0.225000 -0.300000
v 0.724500 0.225000 0.300000
v 0.738500 0.219000 -0.300000
v 0.738500 0.219000 0.300000
v 0.742500 0.207000 -0.300000
v 0.742500 0.207000 0.300000
v 0.742500 0.145000 -0.300000
v 0.742500 0.145000 0.300000
v 0.739500 0.134000 -0.300000
v 0.739500 0.134000 0.300000
v 0.725500 0.124000 -0.300000
v 0.725500 0.124000 0.300000
v 0.687500 0.113000 -0.300000
v 0.687500 0.113000 0.300000
v 0.681500 0.108000 -0.300000
v 0.681500 0.108000 0.300000
v 0.681500 0.099422 -0.300000
v 0.681500 0.099422 0.300000
v -0.961500 0.085422 -0.108000
v -0.428500 0.085422 -0.108000
v -0.428500 0.085422 0.108000
v -0.961500 0.085422 0.108000
v -0.961500 0.099422 0.108000
v -0.428500 0.099422 0.108000
v -0.428500 0.099422 -0.108000
v -0.961500 0.099422 -0.108000
v -0.615500 0.135422 -0.080000
v -0.604500 0.135422 -0.080000
v -0.604500 0.135422 0.080000
v -0.615500 0.135422 0.080000
v -0.615500 0.199422 0.080000
v -0.604500 0.199422 0.080000
v -0.604500 0.199422 -0.080000
v -0.615500 0.199422 -0.080000
v -0.604500 0.194422 -0.009000
v -0.483500 0.111422 -0.009000
v -0.483500 0.099422 -0.009000
v -0.604500 0.099422 -0.009000
v -0.604500 0.099422 0.009000
v -0.483500 0.099422 0.009000
v -0.483500 0.111422 0.009000
v -0.604500 0.194422 0.009000
v -0.465000 0.105422 -0.014722
v -0.456500 0.105422 0.000000
v -0.465000 0.105422 0.014722
v -0.482000 0.105422 0.014722
v -0.490500 0.105422 0.000000
v -0.482000 0.105422 -0.014722
v -0.456500 0.126422 0.000000
v -0.465000 0.126422 -0.014722
v -0.482000 0.126422 -0.014722
v -0.490500 0.126422 0.000000
v -0.482000 0.126422 0.014722
v -0.465000 0.126422 0.014722
v -0.558500 0.099422 -0.300000
v -0.558500 0.108000 -0.300000
v -0.558500 0.108000 0.300000
v -0.558500 0.099422 0.300000
v -0.564500 0.113000 -0.300000
v -0.564500 0.113000 0.300000
v -0.602500 0.124000 -0.300000
v -0.602500 0.124000 0.300000
v -0.616500 0.134000 -0.300000
v -0.616500 0.134000 0.300000
v -0.619500 0.145000 -0.300000
v -0.619500 0.145000 0.300000
v -0.619500 0.207000 -0.300000
v -0.619500 0.207000 0.300000
v -0.615500 0.219000 -0.300000
v -0.615500 0.219000 0.300000
v -0.601500 0.225000 -0.300000
v -0.601500 0.225000 0.300000
v -0.595500 0.231000 -0.300000
v -0.595500 0.231000 0.300000
v -0.594500 0.239000 -0.300000
v -0.594500 0.239000 0.300000
v -0.594500 0.254000 -0.300000
v -0.594500 0.254000 0.300000
v -0.596500 0.260000 -0.300000
v -0.596500 0.260000 0.300000
v -0.602500 0.264280 -0.300000
v -0.602500 0.264280 0.300000
v -0.654500 0.264280 -0.300000
v -0.654500 0.264280 0.300000
v -0.660500 0.260000 -0.300000
v -0.660500 0.260000 0.300000
v -0.662500 0.254000 -0.300000
v -0.662500 0.254000 0.300000
v -0.662500 0.239000 -0.300000
v -0.662500 0.239000 0.300000
v -0.661500 0.231000 -0.300000
v -0.661500 0.231000 0.300000
v -0.655500 0.225000 -0.300000
v -0.655500 0.225000 0.300000
v -0.641500 0.219000 -0.300000
v -0.641500 0.219000 0.300000
v -0.637500 0.207000 -0.300000
v -0.637500 0.207000 0.300000
v -0.637500 0.145000 -0.300000
v -0.637500 0.145000 0.300000
v -0.640500 0.134000 -0.300000
v -0.640500 0.134000 0.300000
v -0.654500 0.124000 -0.300000
v -0.654500 0.124000 0.300000
v -0.692500 0.113000 -0.300000
v -0.692500 0.113000 0.300000
v -0.698500 0.108000 -0.300000
v -0.698500 0.108000 0.300000
v -0.698500 0.099422 -0.300000
v -0.698500 0.099422 0.300000
v 0.428500 0.085422 -0.108000
v 0.961500 0.085422 -0.108000
v 0.961500 0.085422 0.108000
v 0.428500 0.085422 0.108000
v 0.428500 0.099422 0.108000
v 0.961500 0.099422 0.108000
v 0.961500 0.099422 -0.108000
v 0.428500 0.099422 -0.108000
v 0.604500 0.135422 -0.080000
v 0.615500 0.135422 -0.080000
v 0.615500 0.135422 0.080000
v 0.604500 0.135422 0.080000
v 0.604500 0.199422 0.080000
v 0.615500 0.199422 0.080000
v 0.615500 0.199422 -0.080000
v 0.604500 0.199422 -0.080000
v 0.604500 0.099422 -0.009000
v 0.483500 0.099422 -0.009000
v 0.483500 0.111422 -0.009000
v 0.604500 0.194422 -0.009000
v 0.604500 0.194422 0.009000
v 0.483500 0.111422 0.009000
v 0.483500 0.099422 0.009000
v 0.604500 0.099422 0.009000
v 0.482000 0.105422 -0.014722
v 0.490500 0.105422 0.000000
v 0.482000 0.105422 0.014722
v 0.465000 0.105422 0.014722
v 0.456500 0.105422 0.000000
v 0.465000 0.105422 -0.014722
v 0.490500 0.126422 0.000000
v 0.482000 0.126422 -0.014722
v 0.465000 0.126422 -0.014722
v 0.456500 0.126422 0.000000
v 0.465000 0.126422 0.014722
v 0.482000 0.126422 0.014722
v 0.698500 0.099422 -0.300000
v 0.698500 0.108000 -0.300000
v 0.698500 0.108000 0.300000
v 0.698500 0.099422 0.300000
v 0.692500 0.113000 -0.300000
v 0.692500 0.113000 0.300000
v 0.654500 0.124000 -0.300000
v 0.654500 0.124000 0.300000
v 0.640500 0.134000 -0.300000
v 0.640500 0.134000 0.300000
v 0.637500 0.145000 -0.300000
v 0.637500 0.145000 0.300000
v 0.637500 0.207000 -0.300000
v 0.637500 0.207000 0.300000
v 0.641500 0.219000 -0.300000
v 0.641500 0.219000 0.300000
v 0.655500 0.225000 -0.300000
v 0.655500 0.225000 0.300000
v 0.661500 0.231000 -0.300000
v 0.661500 0.231000 0.300000
v 0.662500 0.239000 -0.300000
v 0.662500 0.239000 0.300000
v 0.662500 0.254000 -0.300000
v 0.662500 0.254000 0.300000
v 0.660500 0.260000 -0.300000
v 0.660500 0.260000 0.300000
v 0.654500 0.264280 -0.300000
v 0.654500 0.264280 0.300000
v 0.602500 0.264280 -0.300000
v 0.602500 0.264280 0.300000
v 0.596500 0.260000 -0.300000
v 0.596500 0.260000 0.300000
v 0.594500 0.254000 -0.300000
v 0.594500 0.254000 0.300000
v 0.594500 0.239000 -0.300000
v 0.594500 0.239000 0.300000
v 0.595500 0.231000 -0.300000
v 0.595500 0.231000 0.300000
v 0.601500 0.225000 -0.300000
v 0.601500 0.225000 0.300000
v 0.615500 0.219000 -0.300000
v 0.615500 0.219000 0.300000
v 0.619500 0.207000 -0.300000
v 0.619500 0.207000 0.300000
v 0.619500 0.145000 -0.300000
v 0.619500 0.145000 0.300000
v 0.616500 0.134000 -0.300000
v 0.616500 0.134000 0.300000
v 0.602500 0.124000 -0.300000
v 0.602500 0.124000 0.300000
v 0.564500 0.113000 -0.300000
v 0.564500 0.113000 0.300000
v 0.558500 0.108000 -0.300000
v 0.558500 0.108000 0.300000
v 0.558500 0.099422 -0.300000
v 0.558500 0.099422 0.300000
vt 0.96281250 0.01585821
vt 0.96281250 0.25373134
vt 0.98937500 0.25373134
vt 0.98937500 0.01585821
vt 0.96281250 0.49160448
vt 0.98937500 0.49160448
vt 0.96281250 0.25055970
vt 0.98937500 0.28633158
vt 0.98937500 0.25055970
vt 0.67062500 0.01585821
vt 0.67062500 0.49160448
vt 0.67062500 0.25373134
vt 0.67925781 0.25373134
vt 0.67925781 0.01585821
vt 0.67925781 0.49160448
vt 0.67062500 0.28633158
vt 0.67925781 0.29780771
vt 0.67925781 0.25055970
vt 0.67062500 0.25055970
vt 0.71445312 0.25373134
vt 0.71445312 0.01585821
vt 0.71445312 0.49160448
vt 0.71445312 0.34302313
vt 0.71445312 0.25055970
vt 0.74964844 0.25373134
vt 0.74964844 0.01585821
vt 0.74964844 0.49160448
vt 0.74964844 0.38448283
vt 0.74964844 0.25055970
vt 0.78484375 0.25373134
vt 0.78484375 0.01585821
vt 0.78484375 0.49160448
vt 0.78484375 0.42103545
vt 0.78484375 0.25055970
vt 0.82003906 0.25373134
vt 0.82003906 0.01585821
vt 0.82003906 0.49160448
vt 0.82003906 0.45227667
vt 0.82003906 0.25055970
vt 0.85523437 0.25373134
vt 0.85523437 0.01585821
vt 0.85523437 0.49160448
vt 0.85523437 0.47861081
vt 0.85523437 0.25055970
vt 0.89042969 0.25373134
vt 0.89042969 0.01585821
vt 0.89042969 0.49160448
vt 0.87548894 0.49160448
vt 0.89042969 0.25055970
vt 0.87548894 0.01585821
vt 0.89042969 0.02544297
vt 0.92562500 0.25373134
vt 0.92562500 0.01585821
vt 0.92562500 0.49160448
vt 0.92562500 0.25055970
vt 0.92562500 0.04598881
vt 0.98937500 0.03647388
vt 0.67062500 0.03647388
vt 0.73437500 0.25373134
vt 0.73437500 0.01585821
vt 0.73437500 0.49160448
vt 0.73437500 0.25055970
vt 0.73437500 0.04598881
vt 0.76957031 0.25373134
vt 0.76957031 0.01585821
vt 0.76957031 0.49160448
vt 0.76957031 0.25055970
vt 0.76957031 0.02544297
vt 0.80476563 0.25373134
vt 0.80476563 0.01585821
vt 0.80476563 0.49160448
vt 0.78451106 0.49160448
vt 0.80476563 0.47861081
vt 0.80476563 0.25055970
vt 0.78451106 0.01585821
vt 0.83996094 0.25373134
vt 0.83996094 0.01585821
vt 0.83996094 0.49160448
vt 0.83996094 0.45227667
vt 0.83996094 0.25055970
vt 0.87515625 0.25373134
vt 0.87515625 0.01585821
vt 0.87515625 0.49160448
vt 0.87515625 0.42103545
vt 0.87515625 0.25055970
vt 0.91035156 0.25373134
vt 0.91035156 0.01585821
vt 0.91035156 0.49160448
vt 0.91035156 0.38448283
vt 0.91035156 0.25055970
vt 0.94554688 0.25373134
vt 0.94554688 0.01585821
vt 0.94554688 0.49160448
vt 0.94554688 0.34302313
vt 0.94554688 0.25055970
vt 0.98074219 0.25373134
vt 0.98074219 0.01585821
vt 0.98074219 0.49160448
vt 0.98074219 0.29780771
vt 0.98074219 0.25055970
vt 0.69718750 0.25373134
vt 0.69718750 0.01585821
vt 0.69718750 0.49160448
vt 0.69718750 0.25055970
vt 0.30281250 0.17047575
vt 0.31875000 0.17047575
vt 0.31875000 0.33698694
vt 0.30281250 0.33698694
vt 0.30281250 0.09514925
vt 0.30281250 0.01585821
vt 0.31875000 0.01585821
vt 0.31875000 0.09604128
vt 0.30281250 0.32985075
vt 0.31875000 0.32985075
vt 0.31875000 0.32192164
vt 0.30281250 0.32192164
vt 0.31875000 0.18554104
vt 0.30281250 0.18554104
vt 0.31875000 0.17761194
vt 0.30281250 0.17761194
vt 0.32937500 0.15858209
vt 0.32937500 0.34888060
vt 0.32937500 0.01585821
vt 0.32937500 0.09663596
vt 0.32937500 0.34174440
vt 0.32937500 0.33381530
vt 0.32937500 0.17364739
vt 0.32937500 0.16571828
vt 0.01062500 0.15858209
vt 0.15406250 0.15858209
vt 0.15406250 0.34888060
vt 0.01062500 0.34888060
vt 0.01062500 0.09663596
vt 0.01062500 0.01585821
vt 0.15406250 0.01585821
vt 0.15406250 0.10466418
vt 0.01062500 0.34174440
vt 0.15406250 0.34174440
vt 0.15406250 0.33381530
vt 0.01062500 0.33381530
vt 0.15406250 0.17364739
vt 0.01062500 0.17364739
vt 0.15406250 0.16571828
vt 0.01062500 0.16571828
vt 0.24889063 0.15858209
vt 0.24889063 0.34888060
vt 0.24889063 0.01585821
vt 0.24889063 0.10466418
vt 0.24889063 0.34174440
vt 0.24889063 0.33381530
vt 0.24889063 0.17364739
vt 0.24889063 0.16571828
vt 0.32937500 0.10466418
vt 0.04781250 0.15858209
vt 0.04781250 0.34888060
vt 0.04781250 0.01585821
vt 0.04781250 0.10466418
vt 0.01062500 0.10466418
vt 0.04781250 0.34174440
vt 0.04781250 0.33381530
vt 0.04781250 0.17364739
vt 0.04781250 0.16571828
vt 0.11687500 0.15858209
vt 0.11687500 0.34888060
vt 0.11687500 0.01585821
vt 0.11687500 0.10073190
vt 0.11687500 0.34174440
vt 0.11687500 0.33381530
vt 0.11687500 0.17364739
vt 0.11687500 0.16571828
vt 0.18593750 0.15858209
vt 0.18593750 0.34888060
vt 0.18593750 0.01585821
vt 0.18593750 0.09115673
vt 0.18593750 0.34174440
vt 0.18593750 0.33381530
vt 0.18593750 0.17364739
vt 0.18593750 0.16571828
vt 0.26031250 0.15858209
vt 0.26031250 0.34888060
vt 0.26031250 0.01585821
vt 0.26031250 0.08075658
vt 0.26031250 0.34174440
vt 0.26031250 0.33381530
vt 0.26031250 0.17364739
vt 0.26031250 0.16571828
vt 0.32937500 0.07682430
vt 0.07968750 0.15858209
vt 0.07968750 0.34888060
vt 0.01062500 0.07682430
vt 0.07968750 0.01585821
vt 0.07968750 0.08075658
vt 0.07968750 0.34174440
vt 0.07968750 0.33381530
vt 0.07968750 0.17364739
vt 0.07968750 0.16571828
vt 0.15406250 0.09115673
vt 0.22312500 0.15858209
vt 0.22312500 0.34888060
vt 0.22312500 0.01585821
vt 0.22312500 0.10073190
vt 0.22312500 0.34174440
vt 0.22312500 0.33381530
vt 0.22312500 0.17364739
vt 0.22312500 0.16571828
vt 0.29218750 0.15858209
vt 0.29218750 0.34888060
vt 0.29218750 0.01585821
vt 0.29218750 0.10466418
vt 0.29218750 0.34174440
vt 0.29218750 0.33381530
vt 0.29218750 0.17364739
vt 0.29218750 0.16571828
vt 0.09110937 0.15858209
vt 0.09110937 0.34888060
vt 0.09110937 0.01585821
vt 0.09110937 0.10466418
vt 0.09110937 0.34174440
vt 0.09110937 0.33381530
vt 0.09110937 0.17364739
vt 0.09110937 0.16571828
vt 0.18593750 0.10466418
vt 0.02125000 0.17047575
vt 0.02125000 0.33698694
vt 0.02125000 0.01585821
vt 0.02125000 0.09604128
vt 0.02125000 0.32985075
vt 0.02125000 0.32192164
vt 0.02125000 0.18554104
vt 0.02125000 0.17761194
vt 0.03718750 0.17047575
vt 0.03718750 0.33698694
vt 0.03718750 0.01585821
vt 0.03718750 0.09514925
vt 0.03718750 0.32985075
vt 0.03718750 0.32192164
vt 0.03718750 0.18554104
vt 0.03718750 0.17761194
vt 0.04250000 0.41231343
vt 0.03054688 0.01585821
vt 0.30945312 0.01585821
vt 0.29750000 0.41231343
vt 0.28421875 0.44402985
vt 0.05578125 0.44402985
vt 0.60837500 0.03017506
vt 0.61013651 0.02537313
vt 0.61917895 0.02537313
vt 0.61917895 0.02896471
vt 0.61917895 0.03017506
vt 0.61917895 0.06931496
vt 0.61917895 0.07213380
vt 0.61917895 0.19664179
vt 0.61013651 0.19664179
vt 0.60837500 0.19183987
vt 0.60837500 0.19664179
vt 0.61819250 0.19664179
vt 0.61819250 0.02537313
vt 0.60837500 0.02537313
vt 0.64318250 0.19664179
vt 0.65300000 0.19664179
vt 0.65300000 0.02537313
vt 0.64318250 0.02537313
vt 0.61016000 0.31082090
vt 0.60837500 0.31566812
vt 0.60837500 0.47724233
vt 0.61016000 0.48208955
vt 0.61902550 0.48208955
vt 0.61902550 0.34780500
vt 0.61902550 0.34526089
vt 0.61902550 0.31182400
vt 0.61902550 0.31082090
vt 0.60837500 0.48208955
vt 0.61801141 0.48208955
vt 0.61801141 0.31082090
vt 0.60837500 0.31082090
vt 0.64336359 0.48208955
vt 0.65300000 0.48208955
vt 0.65300000 0.31082090
vt 0.64336359 0.31082090
vt 0.34062500 0.02278655
vt 0.34631696 0.01585821
vt 0.57399554 0.01585821
vt 0.57968750 0.02278655
vt 0.57968750 0.48467613
vt 0.57399554 0.49160448
vt 0.34631696 0.49160448
vt 0.34062500 0.48467613
vt 0.34062500 0.49160448
vt 0.57968750 0.49160448
vt 0.57968750 0.01585821
vt 0.34062500 0.01585821
vt 0.60837500 0.02697378
vt 0.61395312 0.02537313
vt 0.64742188 0.02537313
vt 0.65300000 0.02697378
vt 0.65300000 0.19504115
vt 0.64742188 0.19664179
vt 0.61395312 0.19664179
vt 0.60837500 0.19504115
vt 0.34062500 0.35558791
vt 0.38319777 0.41367832
vt 0.39629709 0.41367832
vt 0.51746575 0.21532083
vt 0.57968750 0.21532083
vt 0.40612158 0.01585821
vt 0.38647260 0.19406824
vt 0.51992188 0.04772717
vt 0.57968750 0.25373134
vt 0.51992188 0.45973552
vt 0.40039062 0.45973552
vt 0.34062500 0.25373134
vt 0.40039062 0.04772717
vt 0.38046875 0.49160448
vt 0.38046875 0.01585821
vt 0.42031250 0.49160448
vt 0.42031250 0.01585821
vt 0.46015625 0.49160448
vt 0.46015625 0.01585821
vt 0.50000000 0.49160448
vt 0.50000000 0.01585821
vt 0.53984375 0.49160448
vt 0.53984375 0.01585821
vt 0.54467761 0.08552964
vt 0.54467761 0.42193305
vt 0.37563489 0.42193305
vt 0.37563489 0.08552964
vt 0.37050781 0.49160448
vt 0.37050781 0.01585821
vt 0.40039062 0.49160448
vt 0.40039062 0.01585821
vt 0.43027344 0.49160448
vt 0.43027344 0.01585821
vt 0.49003906 0.49160448
vt 0.49003906 0.01585821
vt 0.51992187 0.49160448
vt 0.51992187 0.01585821
vt 0.54980469 0.49160448
vt 0.54980469 0.01585821
vt 0.01062500 0.50839552
vt 0.01062500 0.53314987
vt 0.32937500 0.53314987
vt 0.32937500 0.50839552
vt 0.01062500 0.54757884
vt 0.32937500 0.54757884
vt 0.01062500 0.57932257
vt 0.32937500 0.57932257
vt 0.01062500 0.60818052
vt 0.32937500 0.60818052
vt 0.01062500 0.63992425
vt 0.32937500 0.63992425
vt 0.01062500 0.81884350
vt 0.32937500 0.81884350
vt 0.01062500 0.85347303
vt 0.32937500 0.85347303
vt 0.01062500 0.87078779
vt 0.32937500 0.87078779
vt 0.01062500 0.88810256
vt 0.32937500 0.88810256
vt 0.01062500 0.91118891
vt 0.32937500 0.91118891
vt 0.01062500 0.95447583
vt 0.32937500 0.95447583
vt 0.01062500 0.97179059
vt 0.32937500 0.97179059
vt 0.34062500 0.97014925
vt 0.34062500 0.92817164
vt 0.65937500 0.92817164
vt 0.65937500 0.97014925
vt 0.34062500 0.56436567
vt 0.65937500 0.56436567
vt 0.34062500 0.52238806
vt 0.65937500 0.52238806
vt 0.01062500 0.57500000
vt 0.32937500 0.57500000
vt 0.98937500 0.50839552
vt 0.67062500 0.50839552
vt 0.67062500 0.53314987
vt 0.68428571 0.54757884
vt 0.77080357 0.57932257
vt 0.80267857 0.60818052
vt 0.80040179 0.85347303
vt 0.76852679 0.87078779
vt 0.75486607 0.88810256
vt 0.75258929 0.91118891
vt 0.75258929 0.95447583
vt 0.75714286 0.97179059
vt 0.77080357 0.98414179
vt 0.80950893 0.81884350
vt 0.88919643 0.98414179
vt 0.90285714 0.97179059
vt 0.90741071 0.95447583
vt 0.90741071 0.91118891
vt 0.90513393 0.88810256
vt 0.89147321 0.87078779
vt 0.85959821 0.85347303
vt 0.85049107 0.81884350
vt 0.80950893 0.63992425
vt 0.85049107 0.63992425
vt 0.85732143 0.60818052
vt 0.88919643 0.57932257
vt 0.97571429 0.54757884
vt 0.98937500 0.53314987
vt 0.64219605 0.02537313
vt 0.65123849 0.02537313
vt 0.64219605 0.02638614
vt 0.65300000 0.03017506
vt 0.64219605 0.03017506
vt 0.65300000 0.19183987
vt 0.64219605 0.15269997
vt 0.65123849 0.19664179
vt 0.64219605 0.16152415
vt 0.64219605 0.19664179
vt 0.64234950 0.48208955
vt 0.65121500 0.48208955
vt 0.64234950 0.44510545
vt 0.65300000 0.47724233
vt 0.64234950 0.43586811
vt 0.65300000 0.31566812
vt 0.64234950 0.31446305
vt 0.65121500 0.31082090
vt 0.64234950 0.31082090
vt 0.38019397 0.49160448
vt 0.57968750 0.07595247
vt 0.38019397 0.01585821
vn -0.67601314 0.73688957 0.00000000
vn -0.66990359 0.74244575 -0.00186779
vn -0.66990476 0.74244705 0.00000000
vn -0.67601198 0.73688830 0.00185381
vn 0.00000000 0.00000000 -1.00000000
vn 0.00000000 -0.00000000 1.00000000
vn 0.00000000 -1.00000000 0.00000000
vn -0.67132147 0.74116396 -0.00186456
vn -0.66510533 0.74674541 -0.00248915
vn -0.66510621 0.74674641 0.00187861
vn -0.67132058 0.74116299 0.00247054
vn -0.65886181 0.75225981 -0.00250753
vn -0.65235724 0.75789478 -0.00505263
vn -0.65236349 0.75790204 0.00252634
vn -0.65885560 0.75225272 0.00501502
vn -0.62674989 0.77920318 -0.00519469
vn -0.61951841 0.78494288 -0.00784943
vn -0.61952901 0.78495632 0.00523304
vn -0.62673932 0.77919004 0.00779190
vn -0.57940804 0.81499687 -0.00814997
vn -0.57113334 0.82078434 -0.01094379
vn -0.57114831 0.82080585 0.00820806
vn -0.57939307 0.81497582 0.01086634
vn -0.52061463 0.85371590 -0.01138288
vn -0.51110737 0.85939752 -0.01432329
vn -0.51112625 0.85942926 0.01145906
vn -0.52059566 0.85368479 0.01422808
vn -0.45878801 0.88842238 -0.01480704
vn -0.44808089 0.89381427 -0.01787629
vn -0.44810276 0.89385792 0.01489763
vn -0.45876588 0.88837953 0.01776759
vn -0.40642676 0.91350068 -0.01827001
vn -0.39479511 0.91851918 -0.02143211
vn -0.39481917 0.91857515 0.01837150
vn -0.40640227 0.91344563 0.02131373
vn -0.37626353 0.92626057 -0.02161275
vn -0.36414097 0.93101287 -0.02482701
vn -0.36416728 0.93108013 0.02172520
vn -0.37623663 0.92619435 0.02469852
vn 0.09946871 0.99468709 -0.02652499
vn 0.09946871 0.99468709 0.02652499
vn 0.00000000 0.99964463 -0.02665719
vn -0.00000000 0.99964463 0.02665719
vn -0.09946871 0.99468709 -0.02652499
vn -0.09946871 0.99468709 0.02652499
vn 0.37623663 0.92619435 -0.02469852
vn 0.36416728 0.93108013 -0.02172520
vn 0.36414097 0.93101287 0.02482701
vn 0.37626353 0.92626057 0.02161275
vn 0.40640227 0.91344563 -0.02131373
vn 0.39481917 0.91857515 -0.01837150
vn 0.39479511 0.91851918 0.02143211
vn 0.40642676 0.91350068 0.01827001
vn 0.45876588 0.88837953 -0.01776759
vn 0.44810276 0.89385792 -0.01489763
vn 0.44808089 0.89381427 0.01787629
vn 0.45878801 0.88842238 0.01480704
vn 0.52059566 0.85368479 -0.01422808
vn 0.51112625 0.85942926 -0.01145906
vn 0.51110737 0.85939752 0.01432329
vn 0.52061463 0.85371590 0.01138288
vn 0.57939307 0.81497582 -0.01086634
vn 0.57114831 0.82080585 -0.00820806
vn 0.57113334 0.82078434 0.01094379
vn 0.57940804 0.81499687 0.00814997
vn 0.62673932 0.77919004 -0.00779190
vn 0.61952901 0.78495632 -0.00523304
vn 0.61951841 0.78494288 0.00784943
vn 0.62674989 0.77920318 0.00519469
vn 0.65885560 0.75225272 -0.00501502
vn 0.65236349 0.75790204 -0.00252634
vn 0.65235724 0.75789478 0.00505263
vn 0.65886181 0.75225981 0.00250753
vn 0.67132058 0.74116299 -0.00247054
vn 0.66510621 0.74674641 -0.00187861
vn 0.66510533 0.74674541 0.00248915
vn 0.67132147 0.74116396 0.00186456
vn 0.67601198 0.73688830 -0.00185381
vn 0.66990476 0.74244705 0.00000000
vn 0.66990359 0.74244575 0.00186779
vn 0.67601314 0.73688957 0.00000000
vn 0.00000000 0.08963770 0.99597444
vn -0.00332430 0.08864788 0.99605748
vn -0.02927003 0.78053424 0.62442739
vn -0.03747366 0.99929762 0.00000000
vn -0.02927003 0.78053424 -0.62442739
vn -0.00336139 0.08963719 -0.99596881
vn 0.00000000 0.08864837 -0.99606298
vn -0.59848497 0.07101923 0.79797996
vn -0.60019979 0.07038747 0.79674702
vn -0.44564010 0.69904329 0.55923463
vn -0.44564010 0.69904329 -0.55923463
vn -0.60019018 0.07090605 -0.79670828
vn -0.59850711 0.07049900 -0.79800948
vn 0.00000000 0.08800082 0.99612040
vn -0.00300370 0.08009859 0.99678242
vn -0.00330001 0.08800034 -0.99611498
vn 0.00000000 0.08009895 -0.99678692
vn -0.00000000 0.08009895 0.99678692
vn -0.00000000 0.78086881 0.62469505
vn -0.00000000 1.00000000 0.00000000
vn 0.00000000 0.78086881 -0.62469505
vn 0.00319624 0.08378411 0.99647880
vn 0.02977574 0.78052258 0.62441806
vn 0.03812074 0.99927314 0.00000000
vn 0.02977574 0.78052258 -0.62441806
vn 0.00305564 0.08009857 -0.99678226
vn 0.00000000 0.08378453 -0.99648389
vn 0.00000000 0.08378453 0.99648389
vn 0.00876396 0.09434564 0.99550093
vn 0.07234645 0.77882259 0.62305807
vn 0.09249388 0.99571325 0.00000000
vn 0.07234645 0.77882259 -0.62305807
vn 0.00778268 0.08378200 -0.99645372
vn 0.00000000 0.09434927 -0.99553916
vn 0.00000000 0.09434927 0.99553916
vn 0.01023971 0.10929499 0.99395662
vn 0.07296363 0.77878748 0.62302999
vn 0.09328027 0.99563989 0.00000000
vn 0.07296363 0.77878748 -0.62302999
vn 0.00883912 0.09434558 -0.99550027
vn 0.00000000 0.10930072 -0.99400873
vn 0.00000000 0.10930072 0.99400873
vn 0.00443503 0.11625699 0.99320926
vn 0.00416962 0.10929977 -0.99400009
vn 0.00000000 0.11625813 -0.99321903
vn 0.00000000 0.11625813 0.99321903
vn -0.00416962 0.10929977 0.99400009
vn -0.02977574 0.78052258 0.62441806
vn -0.03812074 0.99927314 0.00000000
vn -0.02977574 0.78052258 -0.62441806
vn -0.00443503 0.11625699 -0.99320926
vn -0.00883912 0.09434558 0.99550027
vn -0.07296363 0.77878748 0.62302999
vn -0.09328027 0.99563989 0.00000000
vn -0.07296363 0.77878748 -0.62302999
vn -0.01023971 0.10929499 -0.99395662
vn -0.00778268 0.08378200 0.99645372
vn -0.07234645 0.77882259 0.62305807
vn -0.09249388 0.99571325 0.00000000
vn -0.07234645 0.77882259 -0.62305807
vn -0.00876396 0.09434564 -0.99550093
vn -0.00305564 0.08009857 0.99678226
vn -0.00319624 0.08378411 -0.99647880
vn 0.00330001 0.08800034 0.99611498
vn 0.02927003 0.78053424 0.62442739
vn 0.03747366 0.99929762 0.00000000
vn 0.02927003 0.78053424 -0.62442739
vn 0.00300370 0.08009859 -0.99678242
vn 0.00000000 0.08800082 -0.99612040
vn 0.59850711 0.07049900 0.79800948
vn 0.60019018 0.07090605 0.79670828
vn 0.44564010 0.69904329 0.55923463
vn 0.44564010 0.69904329 -0.55923463
vn 0.60019979 0.07038747 -0.79674702
vn 0.59848497 0.07101923 -0.79797996
vn 0.00000000 0.08864837 0.99606298
vn 0.00336139 0.08963719 0.99596881
vn 0.00332430 0.08864788 -0.99605748
vn 0.00000000 0.08963770 -0.99597444
vn -1.00000000 -0.00000000 0.00000000
vn 1.00000000 0.00000000 0.00000000
vn -0.70710678 0.00000000 0.70710678
vn -0.70710678 0.00000000 -0.70710678
vn 0.70710678 0.00000000 -0.70710678
vn 0.70710678 0.00000000 0.70710678
vn 0.37708674 -0.92617795 0.00000000
vn 0.72353574 -0.69028692 0.00000000
vn -0.18589167 0.98257025 0.00000000
vn -0.20695859 0.97834970 0.00000000
vn 0.86602540 0.00000000 0.50000000
vn -0.86602540 0.00000000 0.50000000
vn -0.86602540 0.00000000 -0.50000000
vn 0.86602540 0.00000000 -0.50000000
vn 0.92387953 0.00000000 0.38268343
vn 0.38268343 0.00000000 0.92387953
vn -0.38268343 0.00000000 0.92387953
vn -0.92387953 0.00000000 0.38268343
vn -0.92387953 0.00000000 -0.38268343
vn -0.38268343 0.00000000 -0.92387953
vn 0.38268343 0.00000000 -0.92387953
vn 0.92387953 0.00000000 -0.38268343
vn 0.64018440 0.76822128 0.00000000
vn 0.27805808 0.96056426 0.00000000
vn 0.58123819 0.81373347 0.00000000
vn 0.96476382 0.26311741 0.00000000
vn 0.94868330 -0.31622777 0.00000000
vn 0.39391930 -0.91914503 0.00000000
vn 0.70710678 -0.70710678 0.00000000
vn 0.99227788 -0.12403473 0.00000000
vn 0.94868330 0.31622777 0.00000000
vn 0.58072468 0.81410002 0.00000000
vn -0.58072468 0.81410002 0.00000000
vn -0.94868330 0.31622777 0.00000000
vn -0.99227788 -0.12403473 0.00000000
vn -0.70710678 -0.70710678 0.00000000
vn -0.39391930 -0.91914503 0.00000000
vn -0.94868330 -0.31622777 0.00000000
vn -0.96476382 0.26311741 0.00000000
vn -0.58123819 0.81373347 0.00000000
vn -0.27805808 0.96056426 0.00000000
vn -0.64018440 0.76822128 0.00000000
vn -0.37708674 -0.92617795 0.00000000
vn -0.72353574 -0.69028692 0.00000000
vn 0.18589167 0.98257025 0.00000000
vn 0.20695859 0.97834970 0.00000000
vn 0.56566079 0.82463802 0.00000000
vn -0.56566079 0.82463802 0.00000000
g ballast
usemtl mat
f 1/1/1 2/2/1 3/3/1
f 3/3/2 4/4/2 1/1/2
f 2/2/3 5/5/3 6/6/3
f 6/6/4 3/3/4 2/2/4
f 1/7/5 4/8/5 7/9/5
f 8/9/6 6/8/6 5/7/6
f 1/10/7 7/4/7 8/6/7 5/11/7
f 4/10/8 3/12/8 9/13/8
f 9/13/9 10/14/9 4/10/9
f 3/12/10 6/11/10 11/15/10
f 11/15/11 9/13/11 3/12/11
f 4/16/5 10/17/5 12/18/5 7/19/5
f 8/19/6 13/18/6 11/17/6 6/16/6
f 7/10/7 12/4/7 13/6/7 8/11/7
f 10/14/12 9/13/12 14/20/12
f 14/20/13 15/21/13 10/14/13
f 9/13/14 11/15/14 16/22/14
f 16/22/15 14/20/15 9/13/15
f 10/17/5 15/23/5 17/24/5 12/18/5
f 13/18/6 18/24/6 16/23/6 11/17/6
f 12/10/7 17/4/7 18/6/7 13/11/7
f 15/21/16 14/20/16 19/25/16
f 19/25/17 20/26/17 15/21/17
f 14/20/18 16/22/18 21/27/18
f 21/27/19 19/25/19 14/20/19
f 15/23/5 20/28/5 22/29/5 17/24/5
f 18/24/6 23/29/6 21/28/6 16/23/6
f 17/10/7 22/4/7 23/6/7 18/11/7
f 20/26/20 19/25/20 24/30/20
f 24/30/21 25/31/21 20/26/21
f 19/25/22 21/27/22 26/32/22
f 26/32/23 24/30/23 19/25/23
f 20/28/5 25/33/5 27/34/5 22/29/5
f 23/29/6 28/34/6 26/33/6 21/28/6
f 22/10/7 27/4/7 28/6/7 23/11/7
f 25/31/24 24/30/24 29/35/24
f 29/35/25 30/36/25 25/31/25
f 24/30/26 26/32/26 31/37/26
f 31/37/27 29/35/27 24/30/27
f 25/33/5 30/38/5 32/39/5 27/34/5
f 28/34/6 33/39/6 31/38/6 26/33/6
f 27/10/7 32/4/7 33/6/7 28/11/7
f 30/36/28 29/35/28 34/40/28
f 34/40/29 35/41/29 30/36/29
f 29/35/30 31/37/30 36/42/30
f 36/42/31 34/40/31 29/35/31
f 30/38/5 35/43/5 37/44/5 32/39/5
f 33/39/6 38/44/6 36/43/6 31/38/6
f 32/10/7 37/4/7 38/6/7 33/11/7
f 35/41/32 34/40/32 39/45/32
f 39/45/33 40/46/33 35/41/33
f 34/40/34 36/42/34 41/47/34
f 41/47/35 39/45/35 34/40/35
f 37/44/5 35/43/5 42/48/5
f 37/44/5 42/48/5 43/47/5
f 43/47/5 44/49/5 37/44/5
f 42/50/5 40/51/5 43/46/5
f 36/43/6 38/44/6 45/49/6
f 36/43/6 45/49/6 46/47/6
f 46/47/6 47/48/6 36/43/6
f 46/46/6 41/51/6 47/50/6
f 37/10/7 44/4/7 45/6/7 38/11/7
f 40/46/36 39/45/36 48/52/36
f 48/52/37 49/53/37 40/46/37
f 39/45/38 41/47/38 50/54/38
f 50/54/39 48/52/39 39/45/39
f 43/47/5 51/54/5 52/55/5 44/49/5
f 43/46/5 40/51/5 49/56/5 51/53/5
f 45/49/6 53/55/6 54/54/6 46/47/6
f 54/53/6 50/56/6 41/51/6 46/46/6
f 44/10/7 52/4/7 53/6/7 45/11/7
f 48/52/40 55/3/40 56/4/40 49/53/40
f 50/54/41 57/6/41 55/3/41 48/52/41
f 51/54/5 58/6/5 59/9/5 52/55/5
f 51/53/5 49/56/5 56/57/5 58/4/5
f 53/55/6 60/9/6 61/6/6 54/54/6
f 61/4/6 57/57/6 50/56/6 54/53/6
f 52/10/7 59/4/7 60/6/7 53/11/7
f 55/12/42 62/3/42 63/4/42 56/10/42
f 57/11/43 64/6/43 62/3/43 55/12/43
f 58/11/5 65/6/5 66/9/5 59/19/5
f 58/10/5 56/58/5 63/57/5 65/4/5
f 60/19/6 67/9/6 68/6/6 61/11/6
f 68/4/6 64/57/6 57/58/6 61/10/6
f 59/10/7 66/4/7 67/6/7 60/11/7
f 62/12/42 69/3/42 70/4/42 63/10/42
f 64/11/43 71/6/43 69/3/43 62/12/43
f 65/11/5 72/6/5 73/9/5 66/19/5
f 65/10/5 63/58/5 70/57/5 72/4/5
f 67/19/6 74/9/6 75/6/6 68/11/6
f 75/4/6 71/57/6 64/58/6 68/10/6
f 66/10/7 73/4/7 74/6/7 67/11/7
f 69/12/42 76/3/42 77/4/42 70/10/42
f 71/11/43 78/6/43 76/3/43 69/12/43
f 72/11/5 79/6/5 80/9/5 73/19/5
f 72/10/5 70/58/5 77/57/5 79/4/5
f 74/19/6 81/9/6 82/6/6 75/11/6
f 82/4/6 78/57/6 71/58/6 75/10/6
f 73/10/7 80/4/7 81/6/7 74/11/7
f 76/12/42 83/3/42 84/4/42 77/10/42
f 78/11/43 85/6/43 83/3/43 76/12/43
f 79/11/5 86/6/5 87/9/5 80/19/5
f 79/10/5 77/58/5 84/57/5 86/4/5
f 81/19/6 88/9/6 89/6/6 82/11/6
f 89/4/6 85/57/6 78/58/6 82/10/6
f 80/10/7 87/4/7 88/6/7 81/11/7
f 83/12/44 90/59/44 91/60/44 84/10/44
f 85/11/45 92/61/45 90/59/45 83/12/45
f 86/11/5 93/61/5 94/62/5 87/19/5
f 86/10/5 84/58/5 91/63/5 93/60/5
f 88/19/6 95/62/6 96/61/6 89/11/6
f 96/60/6 92/63/6 85/58/6 89/10/6
f 87/10/7 94/4/7 95/6/7 88/11/7
f 91/60/46 90/59/46 97/64/46
f 97/64/47 98/65/47 91/60/47
f 90/59/48 92/61/48 99/66/48
f 99/66/49 97/64/49 90/59/49
f 93/61/5 100/66/5 101/67/5 94/62/5
f 93/60/5 91/63/5 98/68/5 100/65/5
f 95/62/6 102/67/6 103/66/6 96/61/6
f 103/65/6 99/68/6 92/63/6 96/60/6
f 94/10/7 101/4/7 102/6/7 95/11/7
f 98/65/50 97/64/50 104/69/50
f 104/69/51 105/70/51 98/65/51
f 97/64/52 99/66/52 106/71/52
f 106/71/53 104/69/53 97/64/53
f 101/67/5 100/66/5 107/72/5
f 101/67/5 107/72/5 105/73/5
f 105/73/5 108/74/5 101/67/5
f 100/65/5 98/68/5 107/75/5
f 103/66/6 102/67/6 109/74/6
f 103/66/6 109/74/6 106/73/6
f 106/73/6 110/72/6 103/66/6
f 110/75/6 99/68/6 103/65/6
f 101/10/7 108/4/7 109/6/7 102/11/7
f 105/70/54 104/69/54 111/76/54
f 111/76/55 112/77/55 105/70/55
f 104/69/56 106/71/56 113/78/56
f 113/78/57 111/76/57 104/69/57
f 105/73/5 112/79/5 114/80/5 108/74/5
f 109/74/6 115/80/6 113/79/6 106/73/6
f 108/10/7 114/4/7 115/6/7 109/11/7
f 112/77/58 111/76/58 116/81/58
f 116/81/59 117/82/59 112/77/59
f 111/76/60 113/78/60 118/83/60
f 118/83/61 116/81/61 111/76/61
f 112/79/5 117/84/5 119/85/5 114/80/5
f 115/80/6 120/85/6 118/84/6 113/79/6
f 114/10/7 119/4/7 120/6/7 115/11/7
f 117/82/62 116/81/62 121/86/62
f 121/86/63 122/87/63 117/82/63
f 116/81/64 118/83/64 123/88/64
f 123/88/65 121/86/65 116/81/65
f 117/84/5 122/89/5 124/90/5 119/85/5
f 120/85/6 125/90/6 123/89/6 118/84/6
f 119/10/7 124/4/7 125/6/7 120/11/7
f 122/87/66 121/86/66 126/91/66
f 126/91/67 127/92/67 122/87/67
f 121/86/68 123/88/68 128/93/68
f 128/93/69 126/91/69 121/86/69
f 122/89/5 127/94/5 129/95/5 124/90/5
f 125/90/6 130/95/6 128/94/6 123/89/6
f 124/10/7 129/4/7 130/6/7 125/11/7
f 127/92/70 126/91/70 131/96/70
f 131/96/71 132/97/71 127/92/71
f 126/91/72 128/93/72 133/98/72
f 133/98/73 131/96/73 126/91/73
f 127/94/5 132/99/5 134/100/5 129/95/5
f 130/95/6 135/100/6 133/99/6 128/94/6
f 129/10/7 134/4/7 135/6/7 130/11/7
f 132/97/74 131/96/74 136/3/74
f 136/3/75 137/4/75 132/97/75
f 131/96/76 133/98/76 138/6/76
f 138/6/77 136/3/77 131/96/77
f 132/99/5 137/8/5 139/9/5 134/100/5
f 135/100/6 140/9/6 138/8/6 133/99/6
f 134/10/7 139/4/7 140/6/7 135/11/7
f 137/10/78 136/12/78 141/101/78
f 141/101/79 142/102/79 137/10/79
f 136/12/80 138/11/80 143/103/80
f 143/103/81 141/101/81 136/12/81
f 137/16/5 142/104/5 139/19/5
f 140/19/6 143/104/6 138/16/6
f 139/10/7 142/4/7 143/6/7 140/11/7
g sleeper
usemtl mat
f 144/105/7 145/106/7 146/107/7 147/108/7
f 148/109/82 147/110/82 146/111/82
f 146/111/83 149/112/83 148/109/83
f 148/113/84 149/114/84 150/115/84 151/116/84
f 151/116/85 150/115/85 152/117/85 153/118/85
f 153/118/86 152/117/86 154/119/86 155/120/86
f 144/110/87 155/109/87 154/112/87
f 154/112/88 145/111/88 144/110/88
f 145/106/7 156/121/7 157/122/7 146/107/7
f 149/112/89 146/111/89 157/123/89
f 157/123/90 158/124/90 149/112/90
f 149/114/91 158/125/91 159/126/91 150/115/91
f 150/115/85 159/126/85 160/127/85 152/117/85
f 152/117/92 160/127/92 161/128/92 154/119/92
f 145/111/93 154/112/93 161/124/93
f 161/124/94 156/123/94 145/111/94
f 156/129/7 162/130/7 163/131/7 157/132/7
f 158/133/95 157/134/95 163/135/95
f 163/135/96 164/136/96 158/133/96
f 158/137/84 164/138/84 165/139/84 159/140/84
f 159/140/85 165/139/85 166/141/85 160/142/85
f 160/142/86 166/141/86 167/143/86 161/144/86
f 156/134/97 161/133/97 167/136/97
f 167/136/98 162/135/98 156/134/98
f 162/130/7 168/145/7 169/146/7 163/131/7
f 163/135/99 169/147/99 170/148/99 164/136/99
f 164/138/100 170/149/100 171/150/100 165/139/100
f 165/139/101 171/150/101 172/151/101 166/141/101
f 166/141/102 172/151/102 173/152/102 167/143/102
f 167/136/98 173/148/98 168/147/98 162/135/98
f 168/145/7 174/121/7 175/122/7 169/146/7
f 169/147/99 175/123/99 176/153/99 170/148/99
f 170/149/100 176/125/100 177/126/100 171/150/100
f 171/150/101 177/126/101 178/127/101 172/151/101
f 172/151/102 178/127/102 179/128/102 173/152/102
f 173/148/98 179/153/98 174/123/98 168/147/98
f 174/129/7 180/154/7 181/155/7 175/132/7
f 175/134/99 181/156/99 182/157/99 176/158/99
f 176/137/100 182/159/100 183/160/100 177/140/100
f 177/140/101 183/160/101 184/161/101 178/142/101
f 178/142/102 184/161/102 185/162/102 179/144/102
f 179/158/98 185/157/98 180/156/98 174/134/98
f 180/154/7 186/163/7 187/164/7 181/155/7
f 182/157/99 181/156/99 187/165/99
f 187/165/103 188/166/103 182/157/103
f 182/159/104 188/167/104 189/168/104 183/160/104
f 183/160/105 189/168/105 190/169/105 184/161/105
f 184/161/106 190/169/106 191/170/106 185/162/106
f 180/156/107 185/157/107 191/166/107
f 191/166/108 186/165/108 180/156/108
f 186/163/7 192/171/7 193/172/7 187/164/7
f 188/166/109 187/165/109 193/173/109
f 193/173/110 194/174/110 188/166/110
f 188/167/111 194/175/111 195/176/111 189/168/111
f 189/168/112 195/176/112 196/177/112 190/169/112
f 190/169/113 196/177/113 197/178/113 191/170/113
f 186/165/114 191/166/114 197/174/114
f 197/174/115 192/173/115 186/165/115
f 192/171/7 198/179/7 199/180/7 193/172/7
f 194/174/116 193/173/116 199/181/116
f 199/181/117 200/182/117 194/174/117
f 194/175/118 200/183/118 201/184/118 195/176/118
f 195/176/119 201/184/119 202/185/119 196/177/119
f 196/177/120 202/185/120 203/186/120 197/178/120
f 192/173/121 197/174/121 203/182/121
f 203/182/122 198/181/122 192/173/122
f 198/179/7 204/121/7 205/122/7 199/180/7
f 200/182/123 199/181/123 205/123/123
f 205/123/124 206/187/124 200/182/124
f 200/183/104 206/125/104 207/126/104 201/184/104
f 201/184/105 207/126/105 208/127/105 202/185/105
f 202/185/106 208/127/106 209/128/106 203/186/106
f 198/181/125 203/182/125 209/187/125
f 209/187/126 204/123/126 198/181/126
f 204/129/7 210/188/7 211/189/7 205/132/7
f 206/190/127 205/134/127 211/191/127
f 211/191/128 212/192/128 206/190/128
f 206/137/129 212/193/129 213/194/129 207/140/129
f 207/140/130 213/194/130 214/195/130 208/142/130
f 208/142/131 214/195/131 215/196/131 209/144/131
f 204/134/132 209/190/132 215/192/132
f 215/192/122 210/191/122 204/134/122
f 210/188/7 216/130/7 217/131/7 211/189/7
f 212/192/123 211/191/123 217/135/123
f 217/135/133 218/197/133 212/192/133
f 212/193/134 218/138/134 219/139/134 213/194/134
f 213/194/135 219/139/135 220/141/135 214/195/135
f 214/195/136 220/141/136 221/143/136 215/196/136
f 210/191/137 215/192/137 221/197/137
f 221/197/115 216/135/115 210/191/115
f 216/130/7 222/198/7 223/199/7 217/131/7
f 218/197/116 217/135/116 223/200/116
f 223/200/138 224/201/138 218/197/138
f 218/138/139 224/202/139 225/203/139 219/139/139
f 219/139/140 225/203/140 226/204/140 220/141/140
f 220/141/141 226/204/141 227/205/141 221/143/141
f 216/135/142 221/197/142 227/201/142
f 227/201/108 222/200/108 216/135/108
f 222/198/7 228/206/7 229/207/7 223/199/7
f 224/201/109 223/200/109 229/208/109
f 229/208/143 230/209/143 224/201/143
f 224/202/129 230/210/129 231/211/129 225/203/129
f 225/203/130 231/211/130 232/212/130 226/204/130
f 226/204/131 232/212/131 233/213/131 227/205/131
f 222/200/144 227/201/144 233/209/144
f 233/209/98 228/208/98 222/200/98
f 228/206/7 234/121/7 235/122/7 229/207/7
f 229/208/99 235/123/99 236/153/99 230/209/99
f 230/210/100 236/125/100 237/126/100 231/211/100
f 231/211/101 237/126/101 238/127/101 232/212/101
f 232/212/102 238/127/102 239/128/102 233/213/102
f 233/209/98 239/153/98 234/123/98 228/208/98
f 234/129/7 240/214/7 241/215/7 235/132/7
f 235/134/99 241/216/99 242/217/99 236/158/99
f 236/137/100 242/218/100 243/219/100 237/140/100
f 237/140/101 243/219/101 244/220/101 238/142/101
f 238/142/102 244/220/102 245/221/102 239/144/102
f 239/158/98 245/217/98 240/216/98 234/134/98
f 240/214/7 246/171/7 247/172/7 241/215/7
f 241/216/99 247/173/99 248/222/99 242/217/99
f 242/218/100 248/175/100 249/176/100 243/219/100
f 243/219/101 249/176/101 250/177/101 244/220/101
f 244/220/102 250/177/102 251/178/102 245/221/102
f 245/217/98 251/222/98 246/173/98 240/216/98
f 246/171/7 252/121/7 253/122/7 247/172/7
f 248/222/99 247/173/99 253/123/99
f 253/123/145 254/124/145 248/222/145
f 248/175/146 254/125/146 255/126/146 249/176/146
f 249/176/147 255/126/147 256/127/147 250/177/147
f 250/177/148 256/127/148 257/128/148 251/178/148
f 246/173/149 251/222/149 257/124/149
f 257/124/150 252/123/150 246/173/150
f 252/129/7 258/223/7 259/224/7 253/132/7
f 254/133/151 253/134/151 259/225/151
f 259/225/152 260/226/152 254/133/152
f 254/137/153 260/227/153 261/228/153 255/140/153
f 255/140/147 261/228/147 262/229/147 256/142/147
f 256/142/154 262/229/154 263/230/154 257/144/154
f 252/134/155 257/133/155 263/226/155
f 263/226/156 258/225/156 252/134/156
f 258/223/7 264/231/7 265/232/7 259/224/7
f 260/226/157 259/225/157 265/233/157
f 265/233/158 266/234/158 260/226/158
f 260/227/146 266/235/146 267/236/146 261/228/146
f 261/228/147 267/236/147 268/237/147 262/229/147
f 262/229/148 268/237/148 269/238/148 263/230/148
f 258/225/159 263/226/159 269/234/159
f 269/234/160 264/233/160 258/225/160
f 155/239/161 144/240/161 147/241/161
f 155/239/161 147/241/161 148/242/161
f 155/239/161 148/242/161 151/243/161
f 151/243/161 153/244/161 155/239/161
f 264/240/162 269/239/162 268/244/162
f 264/240/162 268/244/162 267/243/162
f 264/240/162 267/243/162 266/242/162
f 266/242/162 265/241/162 264/240/162
g fastener_left
usemtl mat
f 270/245/7 271/246/7 272/247/7 273/248/7
f 270/245/7 273/248/7 274/249/7
f 270/245/7 274/249/7 275/250/7
f 270/245/7 275/250/7 276/251/7
f 270/245/7 276/251/7 277/252/7 278/253/7
f 278/253/7 279/254/7 270/245/7
f 280/255/5 281/256/5 272/257/5 271/258/5
f 282/259/6 283/260/6 278/261/6 277/262/6
f 283/255/163 284/260/163 279/261/163 278/258/163
f 284/255/161 285/260/161 270/261/161 279/258/161
f 285/255/164 280/260/164 271/261/164 270/258/164
f 286/263/101 287/264/101 288/265/101
f 286/263/101 288/265/101 289/266/101
f 286/263/101 289/266/101 290/267/101 291/268/101
f 286/263/101 291/268/101 292/269/101
f 286/263/101 292/269/101 293/270/101
f 294/271/101 286/263/101 293/270/101
f 286/272/5 294/273/5 295/274/5 296/275/5
f 290/276/6 289/277/6 297/278/6 298/279/6
f 289/272/163 288/277/163 299/278/163 297/275/163
f 288/272/161 287/277/161 300/278/161 299/275/161
f 287/272/164 286/277/164 296/278/164 300/275/164
f 301/280/7 302/281/7 303/282/7
f 301/280/7 303/282/7 304/283/7
f 301/280/7 304/283/7 305/284/7
f 301/280/7 305/284/7 306/285/7
f 301/280/7 306/285/7 307/286/7
f 307/286/7 308/287/7 301/280/7
f 309/281/101 310/280/101 311/287/101
f 309/281/101 311/287/101 312/286/101
f 309/281/101 312/286/101 313/285/101
f 309/281/101 313/285/101 314/284/101
f 309/281/101 314/284/101 315/283/101
f 315/283/101 316/282/101 309/281/101
f 309/288/5 316/289/5 303/290/5 302/291/5
f 316/288/165 315/289/165 304/290/165 303/291/165
f 315/288/162 314/289/162 305/290/162 304/291/162
f 314/288/166 313/289/166 306/290/166 305/291/166
f 313/288/6 312/289/6 307/290/6 306/291/6
f 312/288/163 311/289/163 308/290/163 307/291/163
f 311/288/161 310/289/161 301/290/161 308/291/161
f 310/288/164 309/289/164 302/290/164 301/291/164
f 317/292/7 318/293/7 319/294/7
f 317/292/7 319/294/7 320/295/7
f 317/292/7 320/295/7 321/296/7
f 317/292/7 321/296/7 322/297/7
f 317/292/7 322/297/7 323/298/7
f 323/298/7 324/299/7 317/292/7
f 325/293/101 326/292/101 327/299/101
f 325/293/101 327/299/101 328/298/101
f 325/293/101 328/298/101 329/297/101
f 325/293/101 329/297/101 330/296/101
f 325/293/101 330/296/101 331/295/101
f 331/295/101 332/294/101 325/293/101
f 325/255/5 332/260/5 319/261/5 318/258/5
f 332/255/165 331/260/165 320/261/165 319/258/165
f 331/255/162 330/260/162 321/261/162 320/258/162
f 330/255/166 329/260/166 322/261/166 321/258/166
f 329/255/6 328/260/6 323/261/6 322/258/6
f 328/255/163 327/260/163 324/261/163 323/258/163
f 327/255/161 326/260/161 317/261/161 324/258/161
f 326/255/164 325/260/164 318/261/164 317/258/164
f 333/300/6 334/288/6 335/301/6
f 333/300/6 335/301/6 336/302/6
f 333/300/6 336/302/6 337/303/6
f 337/303/6 338/304/6 339/290/6
f 333/300/6 337/303/6 339/290/6
f 339/290/6 340/305/6 341/306/6
f 339/290/6 341/306/6 333/300/6
f 342/288/5 343/300/5 344/306/5
f 344/306/5 345/305/5 346/290/5
f 342/288/5 344/306/5 346/290/5
f 346/290/5 347/304/5 348/303/5
f 346/290/5 348/303/5 349/302/5
f 346/290/5 349/302/5 350/301/5
f 346/290/5 350/301/5 342/288/5
f 343/288/167 344/289/167 341/290/167 333/291/167
f 344/288/168 345/289/168 340/290/168 341/291/168
f 345/288/7 346/289/7 339/290/7 340/291/7
f 346/288/161 347/289/161 338/290/161 339/291/161
f 347/288/101 348/289/101 337/290/101 338/291/101
f 348/288/169 349/289/169 336/290/169 337/291/169
f 349/288/101 350/289/101 335/290/101 336/291/101
f 350/288/170 342/289/170 334/290/170 335/291/170
f 342/288/162 343/289/162 333/290/162 334/291/162
f 351/307/7 352/308/7 353/309/7
f 351/307/7 353/309/7 354/310/7
f 351/307/7 354/310/7 355/311/7
f 355/311/7 356/312/7 351/307/7
f 357/308/101 358/307/101 359/312/101
f 357/308/101 359/312/101 360/311/101
f 357/308/101 360/311/101 361/310/101
f 361/310/101 362/309/101 357/308/101
f 357/288/171 362/313/171 353/314/171 352/291/171
f 362/313/6 361/315/6 354/316/6 353/314/6
f 361/315/172 360/317/172 355/318/172 354/316/172
f 360/317/173 359/319/173 356/320/173 355/318/173
f 359/319/5 358/321/5 351/322/5 356/320/5
f 358/321/174 357/289/174 352/290/174 351/322/174
f 363/323/7 364/308/7 365/324/7
f 363/323/7 365/324/7 366/317/7
f 363/323/7 366/317/7 367/325/7
f 363/323/7 367/325/7 368/311/7
f 363/323/7 368/311/7 369/326/7
f 369/326/7 370/318/7 363/323/7
f 371/308/101 372/323/101 373/318/101
f 371/308/101 373/318/101 374/326/101
f 371/308/101 374/326/101 375/311/101
f 371/308/101 375/311/101 376/325/101
f 371/308/101 376/325/101 377/317/101
f 377/317/101 378/324/101 371/308/101
f 371/288/175 378/327/175 365/328/175 364/291/175
f 378/327/176 377/329/176 366/330/176 365/328/176
f 377/329/177 376/331/177 367/332/177 366/330/177
f 376/331/178 375/317/178 368/318/178 367/332/178
f 375/317/179 374/333/179 369/334/179 368/318/179
f 374/333/180 373/335/180 370/336/180 369/334/180
f 373/335/181 372/337/181 363/338/181 370/336/181
f 372/337/182 371/289/182 364/290/182 363/338/182
f 379/307/7 380/308/7 381/309/7
f 379/307/7 381/309/7 382/310/7
f 379/307/7 382/310/7 383/311/7
f 383/311/7 384/312/7 379/307/7
f 385/308/101 386/307/101 387/312/101
f 385/308/101 387/312/101 388/311/101
f 385/308/101 388/311/101 389/310/101
f 389/310/101 390/309/101 385/308/101
f 385/288/171 390/313/171 381/314/171 380/291/171
f 390/313/6 389/315/6 382/316/6 381/314/6
f 389/315/172 388/317/172 383/318/172 382/316/172
f 388/317/173 387/319/173 384/320/173 383/318/173
f 387/319/5 386/321/5 379/322/5 384/320/5
f 386/321/174 385/289/174 380/290/174 379/322/174
f 391/307/7 392/308/7 393/309/7
f 391/307/7 393/309/7 394/310/7
f 391/307/7 394/310/7 395/311/7
f 395/311/7 396/312/7 391/307/7
f 397/308/101 398/307/101 399/312/101
f 397/308/101 399/312/101 400/311/101
f 397/308/101 400/311/101 401/310/101
f 401/310/101 402/309/101 397/308/101
f 397/288/171 402/313/171 393/314/171 392/291/171
f 402/313/6 401/315/6 394/316/6 393/314/6
f 401/315/172 400/317/172 395/318/172 394/316/172
f 400/317/173 399/319/173 396/320/173 395/318/173
f 399/319/5 398/321/5 391/322/5 396/320/5
f 398/321/174 397/289/174 392/290/174 391/322/174
g rail_left
usemtl mat
f 403/339/162 404/340/162 405/341/162 406/342/162
f 404/340/183 407/343/183 408/344/183 405/341/183
f 407/343/184 409/345/184 410/346/184 408/344/184
f 409/345/185 411/347/185 412/348/185 410/346/185
f 411/347/186 413/349/186 414/350/186 412/348/186
f 413/349/162 415/351/162 416/352/162 414/350/162
f 415/351/187 417/353/187 418/354/187 416/352/187
f 417/353/188 419/355/188 420/356/188 418/354/188
f 419/355/189 421/357/189 422/358/189 420/356/189
f 421/357/190 423/359/190 424/360/190 422/358/190
f 423/359/162 425/361/162 426/362/162 424/360/162
f 425/361/191 427/363/191 428/364/191 426/362/191
f 427/365/192 429/366/192 430/367/192 428/368/192
f 429/366/101 431/369/101 432/370/101 430/367/101
f 431/369/193 433/371/193 434/372/193 432/370/193
f 433/363/194 435/361/194 436/362/194 434/364/194
f 435/361/161 437/359/161 438/360/161 436/362/161
f 437/359/195 439/357/195 440/358/195 438/360/195
f 439/357/196 441/355/196 442/356/196 440/358/196
f 441/355/197 443/353/197 444/354/197 442/356/197
f 443/353/198 445/351/198 446/352/198 444/354/198
f 445/351/161 447/349/161 448/350/161 446/352/161
f 447/349/199 449/347/199 450/348/199 448/350/199
f 449/347/200 451/345/200 452/346/200 450/348/200
f 451/345/201 453/343/201 454/344/201 452/346/201
f 453/343/202 455/340/202 456/341/202 454/344/202
f 455/340/161 457/339/161 458/342/161 456/341/161
f 457/339/7 403/373/7 406/374/7 458/342/7
g rail_left_end
usemtl mat
f 403/375/5 457/376/5 455/377/5
f 403/375/5 455/377/5 453/378/5
f 403/375/5 453/378/5 451/379/5
f 403/375/5 451/379/5 449/380/5
f 443/381/5 441/382/5 439/383/5
f 443/381/5 439/383/5 437/384/5
f 443/381/5 437/384/5 435/385/5
f 443/381/5 435/385/5 433/386/5
f 443/381/5 433/386/5 431/387/5
f 445/388/5 443/381/5 431/387/5
f 445/388/5 431/387/5 429/389/5
f 445/388/5 429/389/5 427/390/5
f 445/388/5 427/390/5 425/391/5
f 445/388/5 425/391/5 423/392/5
f 445/388/5 423/392/5 421/393/5
f 421/393/5 419/394/5 417/395/5
f 445/388/5 421/393/5 417/395/5
f 445/388/5 417/395/5 415/396/5
f 447/397/5 445/388/5 415/396/5
f 449/380/5 447/397/5 415/396/5
f 449/380/5 415/396/5 413/398/5
f 449/380/5 413/398/5 411/399/5
f 449/380/5 411/399/5 409/400/5
f 403/375/5 449/380/5 409/400/5
f 403/375/5 409/400/5 407/401/5
f 407/401/5 404/402/5 403/375/5
f 458/376/6 406/375/6 405/402/6
f 458/376/6 405/402/6 408/401/6
f 458/376/6 408/401/6 410/400/6
f 458/376/6 410/400/6 412/399/6
f 418/395/6 420/394/6 422/393/6
f 418/395/6 422/393/6 424/392/6
f 418/395/6 424/392/6 426/391/6
f 418/395/6 426/391/6 428/390/6
f 418/395/6 428/390/6 430/389/6
f 416/396/6 418/395/6 430/389/6
f 416/396/6 430/389/6 432/387/6
f 416/396/6 432/387/6 434/386/6
f 416/396/6 434/386/6 436/385/6
f 416/396/6 436/385/6 438/384/6
f 416/396/6 438/384/6 440/383/6
f 440/383/6 442/382/6 444/381/6
f 416/396/6 440/383/6 444/381/6
f 416/396/6 444/381/6 446/388/6
f 414/398/6 416/396/6 446/388/6
f 412/399/6 414/398/6 446/388/6
f 412/399/6 446/388/6 448/397/6
f 412/399/6 448/397/6 450/380/6
f 412/399/6 450/380/6 452/379/6
f 458/376/6 412/399/6 452/379/6
f 458/376/6 452/379/6 454/378/6
f 454/378/6 456/377/6 458/376/6
g fastener_right
usemtl mat
f 459/403/7 460/404/7 461/405/7
f 461/405/7 460/404/7 462/406/7 463/407/7
f 463/407/7 462/406/7 464/408/7 465/409/7
f 465/409/7 464/408/7 466/410/7 467/411/7
f 467/411/7 466/410/7 468/412/7
f 469/259/5 470/260/5 460/261/5 459/262/5
f 470/255/165 471/260/165 462/261/165 460/258/165
f 471/255/162 472/260/162 464/261/162 462/258/162
f 472/255/166 473/260/166 466/261/166 464/258/166
f 473/255/6 474/256/6 468/257/6 466/258/6
f 475/413/101 476/414/101 477/415/101
f 477/415/101 476/414/101 478/416/101 479/417/101
f 479/417/101 478/416/101 480/418/101 481/419/101
f 480/418/101 482/420/101 483/421/101 481/419/101
f 483/276/5 482/277/5 484/278/5 485/279/5
f 482/272/165 480/277/165 486/278/165 484/275/165
f 480/272/162 478/277/162 487/278/162 486/275/162
f 478/272/166 476/277/166 488/278/166 487/275/166
f 476/272/6 475/273/6 489/274/6 488/275/6
f 490/280/7 491/281/7 492/282/7
f 490/280/7 492/282/7 493/283/7
f 490/280/7 493/283/7 494/284/7
f 490/280/7 494/284/7 495/285/7
f 490/280/7 495/285/7 496/286/7
f 496/286/7 497/287/7 490/280/7
f 498/281/101 499/280/101 500/287/101
f 498/281/101 500/287/101 501/286/101
f 498/281/101 501/286/101 502/285/101
f 498/281/101 502/285/101 503/284/101
f 498/281/101 503/284/101 504/283/101
f 504/283/101 505/282/101 498/281/101
f 498/288/5 505/289/5 492/290/5 491/291/5
f 505/288/165 504/289/165 493/290/165 492/291/165
f 504/288/162 503/289/162 494/290/162 493/291/162
f 503/288/166 502/289/166 495/290/166 494/291/166
f 502/288/6 501/289/6 496/290/6 495/291/6
f 501/288/163 500/289/163 497/290/163 496/291/163
f 500/288/161 499/289/161 490/290/161 497/291/161
f 499/288/164 498/289/164 491/290/164 490/291/164
f 506/292/7 507/293/7 508/294/7
f 506/292/7 508/294/7 509/295/7
f 506/292/7 509/295/7 510/296/7
f 506/292/7 510/296/7 511/297/7
f 506/292/7 511/297/7 512/298/7
f 512/298/7 513/299/7 506/292/7
f 514/293/101 515/292/101 516/299/101
f 514/293/101 516/299/101 517/298/101
f 514/293/101 517/298/101 518/297/101
f 514/293/101 518/297/101 519/296/101
f 514/293/101 519/296/101 520/295/101
f 520/295/101 521/294/101 514/293/101
f 514/255/5 521/260/5 508/261/5 507/258/5
f 521/255/165 520/260/165 509/261/165 508/258/165
f 520/255/162 519/260/162 510/261/162 509/258/162
f 519/255/166 518/260/166 511/261/166 510/258/166
f 518/255/6 517/260/6 512/261/6 511/258/6
f 517/255/163 516/260/163 513/261/163 512/258/163
f 516/255/161 515/260/161 506/261/161 513/258/161
f 515/255/164 514/260/164 507/261/164 506/258/164
f 522/288/6 523/300/6 524/306/6
f 524/306/6 525/305/6 526/290/6
f 522/288/6 524/306/6 526/290/6
f 526/290/6 527/304/6 528/303/6
f 526/290/6 528/303/6 529/302/6
f 526/290/6 529/302/6 530/301/6
f 526/290/6 530/301/6 522/288/6
f 531/300/5 532/288/5 533/301/5
f 531/300/5 533/301/5 534/302/5
f 531/300/5 534/302/5 535/303/5
f 535/303/5 536/304/5 537/290/5
f 531/300/5 535/303/5 537/290/5
f 537/290/5 538/305/5 539/306/5
f 537/290/5 539/306/5 531/300/5
f 523/291/203 524/290/203 539/289/203 531/288/203
f 524/291/204 525/290/204 538/289/204 539/288/204
f 525/291/7 526/290/7 537/289/7 538/288/7
f 526/291/162 527/290/162 536/289/162 537/288/162
f 527/291/101 528/290/101 535/289/101 536/288/101
f 528/291/205 529/290/205 534/289/205 535/288/205
f 529/291/101 530/290/101 533/289/101 534/288/101
f 530/291/206 522/290/206 532/289/206 533/288/206
f 522/291/161 523/290/161 531/289/161 532/288/161
f 540/307/7 541/308/7 542/309/7
f 540/307/7 542/309/7 543/310/7
f 540/307/7 543/310/7 544/311/7
f 544/311/7 545/312/7 540/307/7
f 546/308/101 547/307/101 548/312/101
f 546/308/101 548/312/101 549/311/101
f 546/308/101 549/311/101 550/310/101
f 550/310/101 551/309/101 546/308/101
f 546/288/171 551/313/171 542/314/171 541/291/171
f 551/313/6 550/315/6 543/316/6 542/314/6
f 550/315/172 549/317/172 544/318/172 543/316/172
f 549/317/173 548/319/173 545/320/173 544/318/173
f 548/319/5 547/321/5 540/322/5 545/320/5
f 547/321/174 546/289/174 541/290/174 540/322/174
f 552/323/7 553/308/7 554/324/7
f 552/323/7 554/324/7 555/317/7
f 552/323/7 555/317/7 556/325/7
f 552/323/7 556/325/7 557/311/7
f 552/323/7 557/311/7 558/326/7
f 558/326/7 559/318/7 552/323/7
f 560/308/101 561/323/101 562/318/101
f 560/308/101 562/318/101 563/326/101
f 560/308/101 563/326/101 564/311/101
f 560/308/101 564/311/101 565/325/101
f 560/308/101 565/325/101 566/317/101
f 566/317/101 567/324/101 560/308/101
f 560/288/175 567/327/175 554/328/175 553/291/175
f 567/327/176 566/329/176 555/330/176 554/328/176
f 566/329/177 565/331/177 556/332/177 555/330/177
f 565/331/178 564/317/178 557/318/178 556/332/178
f 564/317/179 563/333/179 558/334/179 557/318/179
f 563/333/180 562/335/180 559/336/180 558/334/180
f 562/335/181 561/337/181 552/338/181 559/336/181
f 561/337/182 560/289/182 553/290/182 552/338/182
f 568/307/7 569/308/7 570/309/7
f 568/307/7 570/309/7 571/310/7
f 568/307/7 571/310/7 572/311/7
f 572/311/7 573/312/7 568/307/7
f 574/308/101 575/307/101 576/312/101
f 574/308/101 576/312/101 577/311/101
f 574/308/101 577/311/101 578/310/101
f 578/310/101 579/309/101 574/308/101
f 574/288/171 579/313/171 570/314/171 569/291/171
f 579/313/6 578/315/6 571/316/6 570/314/6
f 578/315/172 577/317/172 572/318/172 571/316/172
f 577/317/173 576/319/173 573/320/173 572/318/173
f 576/319/5 575/321/5 568/322/5 573/320/5
f 575/321/174 574/289/174 569/290/174 568/322/174
f 580/307/7 581/308/7 582/309/7
f 580/307/7 582/309/7 583/310/7
f 580/307/7 583/310/7 584/311/7
f 584/311/7 585/312/7 580/307/7
f 586/308/101 587/307/101 588/312/101
f 586/308/101 588/312/101 589/311/101
f 586/308/101 589/311/101 590/310/101
f 590/310/101 591/309/101 586/308/101
f 586/288/171 591/313/171 582/314/171 581/291/171
f 591/313/6 590/315/6 583/316/6 582/314/6
f 590/315/172 589/317/172 584/318/172 583/316/172
f 589/317/173 588/319/173 585/320/173 584/318/173
f 588/319/5 587/321/5 580/322/5 585/320/5
f 587/321/174 586/289/174 581/290/174 580/322/174
g rail_right
usemtl mat
f 592/339/162 593/340/162 594/341/162 595/342/162
f 593/340/183 596/343/183 597/344/183 594/341/183
f 596/343/184 598/345/184 599/346/184 597/344/184
f 598/345/185 600/347/185 601/348/185 599/346/185
f 600/347/186 602/349/186 603/350/186 601/348/186
f 602/349/162 604/351/162 605/352/162 603/350/162
f 604/351/187 606/353/187 607/354/187 605/352/187
f 606/353/188 608/355/188 609/356/188 607/354/188
f 608/355/189 610/357/189 611/358/189 609/356/189
f 610/357/190 612/359/190 613/360/190 611/358/190
f 612/359/162 614/361/162 615/362/162 613/360/162
f 614/361/191 616/363/191 617/364/191 615/362/191
f 616/365/192 618/366/192 619/367/192 617/368/192
f 618/366/101 620/369/101 621/370/101 619/367/101
f 620/369/193 622/371/193 623/372/193 621/370/193
f 622/363/194 624/361/194 625/362/194 623/364/194
f 624/361/161 626/359/161 627/360/161 625/362/161
f 626/359/195 628/357/195 629/358/195 627/360/195
f 628/357/196 630/355/196 631/356/196 629/358/196
f 630/355/197 632/353/197 633/354/197 631/356/197
f 632/353/198 634/351/198 635/352/198 633/354/198
f 634/351/161 636/349/161 637/350/161 635/352/161
f 636/349/199 638/347/199 639/348/199 637/350/199
f 638/347/200 640/345/200 641/346/200 639/348/200
f 640/345/201 642/343/201 643/344/201 641/346/201
f 642/343/202 644/340/202 645/341/202 643/344/202
f 644/340/161 646/339/161 647/342/161 645/341/161
f 646/339/7 592/373/7 595/374/7 647/342/7
g rail_right_end
usemtl mat
f 592/375/5 646/376/5 644/377/5
f 592/375/5 644/377/5 642/378/5
f 592/375/5 642/378/5 640/379/5
f 592/375/5 640/379/5 638/380/5
f 632/381/5 630/382/5 628/383/5
f 632/381/5 628/383/5 626/384/5
f 632/381/5 626/384/5 624/385/5
f 632/381/5 624/385/5 622/386/5
f 632/381/5 622/386/5 620/387/5
f 634/388/5 632/381/5 620/387/5
f 634/388/5 620/387/5 618/389/5
f 634/388/5 618/389/5 616/390/5
f 634/388/5 616/390/5 614/391/5
f 634/388/5 614/391/5 612/392/5
f 634/388/5 612/392/5 610/393/5
f 610/393/5 608/394/5 606/395/5
f 634/388/5 610/393/5 606/395/5
f 634/388/5 606/395/5 604/396/5
f 636/397/5 634/388/5 604/396/5
f 638/380/5 636/397/5 604/396/5
f 638/380/5 604/396/5 602/398/5
f 638/380/5 602/398/5 600/399/5
f 638/380/5 600/399/5 598/400/5
f 592/375/5 638/380/5 598/400/5
f 592/375/5 598/400/5 596/401/5
f 596/401/5 593/402/5 592/375/5
f 647/376/6 595/375/6 594/402/6
f 647/376/6 594/402/6 597/401/6
f 647/376/6 597/401/6 599/400/6
f 647/376/6 599/400/6 601/399/6
f 607/395/6 609/394/6 611/393/6
f 607/395/6 611/393/6 613/392/6
f 607/395/6 613/392/6 615/391/6
f 607/395/6 615/391/6 617/390/6
f 607/395/6 617/390/6 619/389/6
f 605/396/6 607/395/6 619/389/6
f 605/396/6 619/389/6 621/387/6
f 605/396/6 621/387/6 623/386/6
f 605/396/6 623/386/6 625/385/6
f 605/396/6 625/385/6 627/384/6
f 605/396/6 627/384/6 629/383/6
f 629/383/6 631/382/6 633/381/6
f 605/396/6 629/383/6 633/381/6
f 605/396/6 633/381/6 635/388/6
f 603/398/6 605/396/6 635/388/6
f 601/399/6 603/398/6 635/388/6
f 601/399/6 635/388/6 637/397/6
f 601/399/6 637/397/6 639/380/6
f 601/399/6 639/380/6 641/379/6
f 647/376/6 601/399/6 641/379/6
f 647/376/6 641/379/6 643/378/6
f 643/378/6 645/377/6 647/376/6
g outer_fastener_left
usemtl mat
f 648/291/7 649/290/7 650/289/7 651/288/7
f 652/288/101 653/289/101 654/290/101 655/291/101
f 655/288/5 654/289/5 649/290/5 648/291/5
f 654/288/162 653/289/162 650/290/162 649/291/162
f 653/288/6 652/289/6 651/290/6 650/291/6
f 652/288/161 655/289/161 648/290/161 651/291/161
f 656/291/7 657/290/7 658/289/7 659/288/7
f 660/288/101 661/289/101 662/290/101 663/291/101
f 663/288/5 662/289/5 657/290/5 656/291/5
f 662/288/162 661/289/162 658/290/162 657/291/162
f 661/288/6 660/289/6 659/290/6 658/291/6
f 660/288/161 663/289/161 656/290/161 659/291/161
f 664/422/5 665/423/5 666/290/5 667/424/5
f 668/424/6 669/290/6 670/423/6 671/422/6
f 667/291/7 666/290/7 669/289/7 668/288/7
f 666/291/162 665/290/162 670/289/162 669/288/162
f 665/291/207 664/290/207 671/289/207 670/288/207
f 664/291/161 667/290/161 668/289/161 671/288/161
f 672/307/7 673/308/7 674/309/7
f 672/307/7 674/309/7 675/310/7
f 672/307/7 675/310/7 676/311/7
f 676/311/7 677/312/7 672/307/7
f 678/308/101 679/307/101 680/312/101
f 678/308/101 680/312/101 681/311/101
f 678/308/101 681/311/101 682/310/101
f 682/310/101 683/309/101 678/308/101
f 678/288/171 683/313/171 674/314/171 673/291/171
f 683/313/6 682/315/6 675/316/6 674/314/6
f 682/315/172 681/317/172 676/318/172 675/316/172
f 681/317/173 680/319/173 677/320/173 676/318/173
f 680/319/5 679/321/5 672/322/5 677/320/5
f 679/321/174 678/289/174 673/290/174 672/322/174
g outer_guard_left
usemtl mat
f 684/339/162 685/340/162 686/341/162 687/342/162
f 685/340/183 688/343/183 689/344/183 686/341/183
f 688/343/184 690/345/184 691/346/184 689/344/184
f 690/345/185 692/347/185 693/348/185 691/346/185
f 692/347/186 694/349/186 695/350/186 693/348/186
f 694/349/162 696/351/162 697/352/162 695/350/162
f 696/351/187 698/353/187 699/354/187 697/352/187
f 698/353/188 700/355/188 701/356/188 699/354/188
f 700/355/189 702/357/189 703/358/189 701/356/189
f 702/357/190 704/359/190 705/360/190 703/358/190
f 704/359/162 706/361/162 707/362/162 705/360/162
f 706/361/191 708/363/191 709/364/191 707/362/191
f 708/365/192 710/366/192 711/367/192 709/368/192
f 710/366/101 712/369/101 713/370/101 711/367/101
f 712/369/193 714/371/193 715/372/193 713/370/193
f 714/363/194 716/361/194 717/362/194 715/364/194
f 716/361/161 718/359/161 719/360/161 717/362/161
f 718/359/195 720/357/195 721/358/195 719/360/195
f 720/357/196 722/355/196 723/356/196 721/358/196
f 722/355/197 724/353/197 725/354/197 723/356/197
f 724/353/198 726/351/198 727/352/198 725/354/198
f 726/351/161 728/349/161 729/350/161 727/352/161
f 728/349/199 730/347/199 731/348/199 729/350/199
f 730/347/200 732/345/200 733/346/200 731/348/200
f 732/345/201 734/343/201 735/344/201 733/346/201
f 734/343/202 736/340/202 737/341/202 735/344/202
f 736/340/161 738/339/161 739/342/161 737/341/161
f 738/339/7 684/373/7 687/374/7 739/342/7
g outer_fastener_right
usemtl mat
f 740/291/7 741/290/7 742/289/7 743/288/7
f 744/288/101 745/289/101 746/290/101 747/291/101
f 747/288/5 746/289/5 741/290/5 740/291/5
f 746/288/162 745/289/162 742/290/162 741/291/162
f 745/288/6 744/289/6 743/290/6 742/291/6
f 744/288/161 747/289/161 740/290/161 743/291/161
f 748/291/7 749/290/7 750/289/7 751/288/7
f 752/288/101 753/289/101 754/290/101 755/291/101
f 755/288/5 754/289/5 749/290/5 748/291/5
f 754/288/162 753/289/162 750/290/162 749/291/162
f 753/288/6 752/289/6 751/290/6 750/291/6
f 752/288/161 755/289/161 748/290/161 751/291/161
f 756/424/5 757/290/5 758/423/5 759/422/5
f 760/422/6 761/423/6 762/290/6 763/424/6
f 763/288/7 762/289/7 757/290/7 756/291/7
f 762/288/161 761/289/161 758/290/161 757/291/161
f 761/288/208 760/289/208 759/290/208 758/291/208
f 760/288/162 763/289/162 756/290/162 759/291/162
f 764/307/7 765/308/7 766/309/7
f 764/307/7 766/309/7 767/310/7
f 764/307/7 767/310/7 768/311/7
f 768/311/7 769/312/7 764/307/7
f 770/308/101 771/307/101 772/312/101
f 770/308/101 772/312/101 773/311/101
f 770/308/101 773/311/101 774/310/101
f 774/310/101 775/309/101 770/308/101
f 770/288/171 775/313/171 766/314/171 765/291/171
f 775/313/6 774/315/6 767/316/6 766/314/6
f 774/315/172 773/317/172 768/318/172 767/316/172
f 773/317/173 772/319/173 769/320/173 768/318/173
f 772/319/5 771/321/5 764/322/5 769/320/5
f 771/321/174 770/289/174 765/290/174 764/322/174
g outer_guard_right
usemtl mat
f 776/339/162 777/340/162 778/341/162 779/342/162
f 777/340/183 780/343/183 781/344/183 778/341/183
f 780/343/184 782/345/184 783/346/184 781/344/184
f 782/345/185 784/347/185 785/348/185 783/346/185
f 784/347/186 786/349/186 787/350/186 785/348/186
f 786/349/162 788/351/162 789/352/162 787/350/162
f 788/351/187 790/353/187 791/354/187 789/352/187
f 790/353/188 792/355/188 793/356/188 791/354/188
f 792/355/189 794/357/189 795/358/189 793/356/189
f 794/357/190 796/359/190 797/360/190 795/358/190
f 796/359/162 798/361/162 799/362/162 797/360/162
f 798/361/191 800/363/191 801/364/191 799/362/191
f 800/365/192 802/366/192 803/367/192 801/368/192
f 802/366/101 804/369/101 805/370/101 803/367/101
f 804/369/193 806/371/193 807/372/193 805/370/193
f 806/363/194 808/361/194 809/362/194 807/364/194
f 808/361/161 810/359/161 811/360/161 809/362/161
f 810/359/195 812/357/195 813/358/195 811/360/195
f 812/357/196 814/355/196 815/356/196 813/358/196
f 814/355/197 816/353/197 817/354/197 815/356/197
f 816/353/198 818/351/198 819/352/198 817/354/198
f 818/351/161 820/349/161 821/350/161 819/352/161
f 820/349/199 822/347/199 823/348/199 821/350/199
f 822/347/200 824/345/200 825/346/200 823/348/200
f 824/345/201 826/343/201 827/344/201 825/346/201
f 826/343/202 828/340/202 829/341/202 827/344/202
f 828/340/161 830/339/161 831/342/161 829/341/161
f 830/339/7 776/373/7 779/374/7 831/342/7
