# metres; Y up; CCW outward; repeat 0.6 m
mtllib rail_low.mtl
v -1.850000 -0.304000 -0.300000
v -1.850000 -0.304000 0.000000
v -1.800000 -0.258131 0.000000
v -1.800000 -0.258885 -0.300000
v -1.850000 -0.304000 0.300000
v -1.800000 -0.258885 0.300000
v -1.800000 -0.304000 -0.300000
v -1.800000 -0.304000 0.300000
v -1.783750 -0.243412 0.000000
v -1.783750 -0.244412 -0.300000
v -1.783750 -0.244412 0.300000
v -1.783750 -0.304000 -0.300000
v -1.783750 -0.304000 0.300000
v -1.717500 -0.185387 0.000000
v -1.717500 -0.187387 -0.300000
v -1.717500 -0.187387 0.300000
v -1.717500 -0.304000 -0.300000
v -1.717500 -0.304000 0.300000
v -1.651250 -0.132099 0.000000
v -1.651250 -0.135099 -0.300000
v -1.651250 -0.135099 0.300000
v -1.651250 -0.304000 -0.300000
v -1.651250 -0.304000 0.300000
v -1.585000 -0.085000 0.000000
v -1.585000 -0.089000 -0.300000
v -1.585000 -0.089000 0.300000
v -1.585000 -0.304000 -0.300000
v -1.585000 -0.304000 0.300000
v -1.518750 -0.044599 0.000000
v -1.518750 -0.049599 -0.300000
v -1.518750 -0.049599 0.300000
v -1.518750 -0.304000 -0.300000
v -1.518750 -0.304000 0.300000
v -1.452500 -0.010387 0.000000
v -1.452500 -0.016387 -0.300000
v -1.452500 -0.016387 0.300000
v -1.452500 -0.304000 -0.300000
v -1.452500 -0.304000 0.300000
v -1.386250 0.019088 0.000000
v -1.386250 0.012088 -0.300000
v -1.386250 0.012088 0.300000
v -1.414374 0.000000 -0.300000
v -1.386250 0.000000 -0.300000
v -1.386250 -0.304000 -0.300000
v -1.386250 -0.304000 0.300000
v -1.386250 0.000000 0.300000
v -1.414374 0.000000 0.300000
v -1.320000 0.046000 0.000000
v -1.320000 0.038000 -0.300000
v -1.320000 0.038000 0.300000
v -1.320000 0.000000 -0.300000
v -1.320000 -0.304000 -0.300000
v -1.320000 -0.304000 0.300000
v -1.320000 0.000000 0.300000
v -1.200000 0.034000 0.000000
v -1.200000 0.026000 -0.300000
v -1.200000 0.026000 0.300000
v -1.200000 0.000000 -0.300000
v -1.200000 -0.304000 -0.300000
v -1.200000 -0.304000 0.300000
v -1.200000 0.000000 0.300000
v -0.600000 0.034000 0.000000
v -0.600000 0.026000 -0.300000
v -0.600000 0.026000 0.300000
v -0.600000 0.000000 -0.300000
v -0.600000 -0.304000 -0.300000
v -0.600000 -0.304000 0.300000
v -0.600000 0.000000 0.300000
v 0.000000 0.034000 0.000000
v 0.000000 0.026000 -0.300000
v 0.000000 0.026000 0.300000
v 0.000000 0.000000 -0.300000
v 0.000000 -0.304000 -0.300000
v 0.000000 -0.304000 0.300000
v 0.000000 0.000000 0.300000
v 0.600000 0.034000 0.000000
v 0.600000 0.026000 -0.300000
v 0.600000 0.026000 0.300000
v 0.600000 0.000000 -0.300000
v 0.600000 -0.304000 -0.300000
v 0.600000 -0.304000 0.300000
v 0.600000 0.000000 0.300000
v 1.200000 0.034000 0.000000
v 1.200000 0.026000 -0.300000
v 1.200000 0.026000 0.300000
v 1.200000 0.000000 -0.300000
v 1.200000 -0.304000 -0.300000
v 1.200000 -0.304000 0.300000
v 1.200000 0.000000 0.300000
v 1.320000 0.046000 0.000000
v 1.320000 0.038000 -0.300000
v 1.320000 0.038000 0.300000
v 1.320000 0.000000 -0.300000
v 1.320000 -0.304000 -0.300000
v 1.320000 -0.304000 0.300000
v 1.320000 0.000000 0.300000
v 1.386250 0.019088 0.000000
v 1.386250 0.012088 -0.300000
v 1.386250 0.012088 0.300000
v 1.386250 0.000000 -0.300000
v 1.386250 -0.304000 -0.300000
v 1.386250 -0.304000 0.300000
v 1.386250 0.000000 0.300000
v 1.452500 -0.010387 0.000000
v 1.452500 -0.016387 -0.300000
v 1.452500 -0.016387 0.300000
v 1.414374 0.000000 -0.300000
v 1.452500 -0.304000 -0.300000
v 1.452500 -0.304000 0.300000
v 1.414374 0.000000 0.300000
v 1.518750 -0.044599 0.000000
v 1.518750 -0.049599 -0.300000
v 1.518750 -0.049599 0.300000
v 1.518750 -0.304000 -0.300000
v 1.518750 -0.304000 0.300000
v 1.585000 -0.085000 0.000000
v 1.585000 -0.089000 -0.300000
v 1.585000 -0.089000 0.300000
v 1.585000 -0.304000 -0.300000
v 1.585000 -0.304000 0.300000
v 1.651250 -0.132099 0.000000
v 1.651250 -0.135099 -0.300000
v 1.651250 -0.135099 0.300000
v 1.651250 -0.304000 -0.300000
v 1.651250 -0.304000 0.300000
v 1.717500 -0.185387 0.000000
v 1.717500 -0.187387 -0.300000
v 1.717500 -0.187387 0.300000
v 1.717500 -0.304000 -0.300000
v 1.717500 -0.304000 0.300000
v 1.783750 -0.243412 0.000000
v 1.783750 -0.244412 -0.300000
v 1.783750 -0.244412 0.300000
v 1.783750 -0.304000 -0.300000
v 1.783750 -0.304000 0.300000
v 1.800000 -0.258131 0.000000
v 1.800000 -0.258885 -0.300000
v 1.800000 -0.258885 0.300000
v 1.800000 -0.304000 -0.300000
v 1.800000 -0.304000 0.300000
v 1.850000 -0.304000 0.000000
v 1.850000 -0.304000 -0.300000
v 1.850000 -0.304000 0.300000
v -1.250000 -0.034578 -0.105000
v -1.200000 -0.034578 -0.120000
v -1.200000 -0.034578 0.120000
v -1.250000 -0.034578 0.105000
v -1.250000 0.065422 0.096000
v -1.200000 0.067297 0.111000
v -1.200000 0.075297 0.101000
v -1.250000 0.073422 0.086000
v -1.200000 0.075297 -0.101000
v -1.250000 0.073422 -0.086000
v -1.200000 0.067297 -0.111000
v -1.250000 0.065422 -0.096000
v -0.930000 -0.034578 -0.120000
v -0.930000 -0.034578 0.120000
v -0.930000 0.077422 0.111000
v -0.930000 0.085422 0.101000
v -0.930000 0.085422 -0.101000
v -0.930000 0.077422 -0.111000
v -0.600000 -0.034578 -0.120000
v -0.600000 -0.034578 0.120000
v -0.600000 0.077422 0.111000
v -0.600000 0.085422 0.101000
v -0.600000 0.085422 -0.101000
v -0.600000 0.077422 -0.111000
v -0.530000 -0.034578 -0.120000
v -0.530000 -0.034578 0.120000
v -0.530000 0.077422 0.111000
v -0.530000 0.085422 0.101000
v -0.530000 0.085422 -0.101000
v -0.530000 0.077422 -0.111000
v 0.000000 -0.034578 -0.120000
v 0.000000 -0.034578 0.120000
v 0.000000 0.042311 0.111000
v 0.000000 0.050311 0.101000
v 0.000000 0.050311 -0.101000
v 0.000000 0.042311 -0.111000
v 0.530000 -0.034578 -0.120000
v 0.530000 -0.034578 0.120000
v 0.530000 0.077422 0.111000
v 0.530000 0.085422 0.101000
v 0.530000 0.085422 -0.101000
v 0.530000 0.077422 -0.111000
v 0.600000 -0.034578 -0.120000
v 0.600000 -0.034578 0.120000
v 0.600000 0.077422 0.111000
v 0.600000 0.085422 0.101000
v 0.600000 0.085422 -0.101000
v 0.600000 0.077422 -0.111000
v 0.930000 -0.034578 -0.120000
v 0.930000 -0.034578 0.120000
v 0.930000 0.077422 0.111000
v 0.930000 0.085422 0.101000
v 0.930000 0.085422 -0.101000
v 0.930000 0.077422 -0.111000
v 1.200000 -0.034578 -0.120000
v 1.200000 -0.034578 0.120000
v 1.200000 0.067297 0.111000
v 1.200000 0.075297 0.101000
v 1.200000 0.075297 -0.101000
v 1.200000 0.067297 -0.111000
v 1.250000 -0.034578 -0.105000
v 1.250000 -0.034578 0.105000
v 1.250000 0.065422 0.096000
v 1.250000 0.073422 0.086000
v 1.250000 0.073422 -0.086000
v 1.250000 0.065422 -0.096000
v -0.827500 0.085422 -0.107000
v -0.675500 0.085422 -0.107000
v -0.675500 0.085422 0.107000
v -0.827500 0.085422 0.107000
v -0.827500 0.095422 -0.107000
v -0.675500 0.095422 -0.107000
v -0.675500 0.095422 0.107000
v -0.827500 0.095422 0.107000
v -0.826500 0.099422 0.106000
v -0.676500 0.099422 0.106000
v -0.676500 0.099422 -0.106000
v -0.826500 0.099422 -0.106000
v -0.676500 0.095422 -0.106000
v -0.826500 0.095422 -0.106000
v -0.676500 0.095422 0.106000
v -0.826500 0.095422 0.106000
v -0.896500 0.109422 0.105000
v -0.606500 0.109422 0.105000
v -0.606500 0.109422 -0.105000
v -0.896500 0.109422 -0.105000
v -0.606500 0.099422 -0.105000
v -0.896500 0.099422 -0.105000
v -0.606500 0.099422 0.105000
v -0.896500 0.099422 0.105000
v -0.946500 0.085422 -0.103000
v -0.820500 0.085422 -0.103000
v -0.820500 0.085422 0.103000
v -0.946500 0.085422 0.103000
v -0.946500 0.095422 0.103000
v -0.820500 0.095422 0.103000
v -0.820500 0.095422 -0.103000
v -0.946500 0.095422 -0.103000
v -0.950500 0.095422 -0.107000
v -0.934500 0.095422 -0.107000
v -0.934500 0.095422 0.107000
v -0.950500 0.095422 0.107000
v -0.950500 0.126422 0.107000
v -0.934500 0.126422 0.107000
v -0.934500 0.126422 -0.107000
v -0.950500 0.126422 -0.107000
v -0.682500 0.085422 -0.103000
v -0.556500 0.085422 -0.103000
v -0.556500 0.085422 0.103000
v -0.682500 0.085422 0.103000
v -0.682500 0.095422 0.103000
v -0.556500 0.095422 0.103000
v -0.556500 0.095422 -0.103000
v -0.682500 0.095422 -0.103000
v -0.568500 0.095422 -0.107000
v -0.552500 0.095422 -0.107000
v -0.552500 0.095422 0.107000
v -0.568500 0.095422 0.107000
v -0.568500 0.126422 0.107000
v -0.552500 0.126422 0.107000
v -0.552500 0.126422 -0.107000
v -0.568500 0.126422 -0.107000
v -0.681500 0.099422 -0.300000
v -0.681500 0.108000 -0.300000
v -0.681500 0.108000 0.300000
v -0.681500 0.099422 0.300000
v -0.687500 0.113000 -0.300000
v -0.687500 0.113000 0.300000
v -0.725500 0.124000 -0.300000
v -0.725500 0.124000 0.300000
v -0.739500 0.134000 -0.300000
v -0.739500 0.134000 0.300000
v -0.742500 0.145000 -0.300000
v -0.742500 0.145000 0.300000
v -0.742500 0.207000 -0.300000
v -0.742500 0.207000 0.300000
v -0.738500 0.219000 -0.300000
v -0.738500 0.219000 0.300000
v -0.724500 0.225000 -0.300000
v -0.724500 0.225000 0.300000
v -0.718500 0.231000 -0.300000
v -0.718500 0.231000 0.300000
v -0.717500 0.239000 -0.300000
v -0.717500 0.239000 0.300000
v -0.717500 0.254000 -0.300000
v -0.717500 0.254000 0.300000
v -0.719500 0.260000 -0.300000
v -0.719500 0.260000 0.300000
v -0.725500 0.264280 -0.300000
v -0.725500 0.264280 0.300000
v -0.777500 0.264280 -0.300000
v -0.777500 0.264280 0.300000
v -0.783500 0.260000 -0.300000
v -0.783500 0.260000 0.300000
v -0.785500 0.254000 -0.300000
v -0.785500 0.254000 0.300000
v -0.785500 0.239000 -0.300000
v -0.785500 0.239000 0.300000
v -0.784500 0.231000 -0.300000
v -0.784500 0.231000 0.300000
v -0.778500 0.225000 -0.300000
v -0.778500 0.225000 0.300000
v -0.764500 0.219000 -0.300000
v -0.764500 0.219000 0.300000
v -0.760500 0.207000 -0.300000
v -0.760500 0.207000 0.300000
v -0.760500 0.145000 -0.300000
v -0.760500 0.145000 0.300000
v -0.763500 0.134000 -0.300000
v -0.763500 0.134000 0.300000
v -0.777500 0.124000 -0.300000
v -0.777500 0.124000 0.300000
v -0.815500 0.113000 -0.300000
v -0.815500 0.113000 0.300000
v -0.821500 0.108000 -0.300000
v -0.821500 0.108000 0.300000
v -0.821500 0.099422 -0.300000
v -0.821500 0.099422 0.300000
v 0.675500 0.085422 -0.107000
v 0.827500 0.085422 -0.107000
v 0.827500 0.085422 0.107000
v 0.675500 0.085422 0.107000
v 0.675500 0.095422 -0.107000
v 0.827500 0.095422 -0.107000
v 0.827500 0.095422 0.107000
v 0.675500 0.095422 0.107000
v 0.676500 0.099422 0.106000
v 0.826500 0.099422 0.106000
v 0.826500 0.099422 -0.106000
v 0.676500 0.099422 -0.106000
v 0.826500 0.095422 -0.106000
v 0.676500 0.095422 -0.106000
v 0.826500 0.095422 0.106000
v 0.676500 0.095422 0.106000
v 0.606500 0.109422 0.105000
v 0.896500 0.109422 0.105000
v 0.896500 0.109422 -0.105000
v 0.606500 0.109422 -0.105000
v 0.896500 0.099422 -0.105000
v 0.606500 0.099422 -0.105000
v 0.896500 0.099422 0.105000
v 0.606500 0.099422 0.105000
v 0.556500 0.085422 -0.103000
v 0.682500 0.085422 -0.103000
v 0.682500 0.085422 0.103000
v 0.556500 0.085422 0.103000
v 0.556500 0.095422 0.103000
v 0.682500 0.095422 0.103000
v 0.682500 0.095422 -0.103000
v 0.556500 0.095422 -0.103000
v 0.552500 0.095422 -0.107000
v 0.568500 0.095422 -0.107000
v 0.568500 0.095422 0.107000
v 0.552500 0.095422 0.107000
v 0.552500 0.126422 0.107000
v 0.568500 0.126422 0.107000
v 0.568500 0.126422 -0.107000
v 0.552500 0.126422 -0.107000
v 0.820500 0.085422 -0.103000
v 0.946500 0.085422 -0.103000
v 0.946500 0.085422 0.103000
v 0.820500 0.085422 0.103000
v 0.820500 0.095422 0.103000
v 0.946500 0.095422 0.103000
v 0.946500 0.095422 -0.103000
v 0.820500 0.095422 -0.103000
v 0.934500 0.095422 -0.107000
v 0.950500 0.095422 -0.107000
v 0.950500 0.095422 0.107000
v 0.934500 0.095422 0.107000
v 0.934500 0.126422 0.107000
v 0.950500 0.126422 0.107000
v 0.950500 0.126422 -0.107000
v 0.934500 0.126422 -0.107000
v 0.821500 0.099422 -0.300000
v 0.821500 0.108000 -0.300000
v 0.821500 0.108000 0.300000
v 0.821500 0.099422 0.300000
v 0.815500 0.113000 -0.300000
v 0.815500 0.113000 0.300000
v 0.777500 0.124000 -0.300000
v 0.777500 0.124000 0.300000
v 0.763500 0.134000 -0.300000
v 0.763500 0.134000 0.300000
v 0.760500 0.145000 -0.300000
v 0.760500 0.145000 0.300000
v 0.760500 0.207000 -0.300000
v 0.760500 0.207000 0.300000
v 0.764500 0.219000 -0.300000
v 0.764500 0.219000 0.300000
v 0.778500 0.225000 -0.300000
v 0.778500 0.225000 0.300000
v 0.784500 0.231000 -0.300000
v 0.784500 0.231000 0.300000
v 0.785500 0.239000 -0.300000
v 0.785500 0.239000 0.300000
v 0.785500 0.254000 -0.300000
v 0.785500 0.254000 0.300000
v 0.783500 0.260000 -0.300000
v 0.783500 0.260000 0.300000
v 0.777500 0.264280 -0.300000
v 0.777500 0.264280 0.300000
v 0.725500 0.264280 -0.300000
v 0.725500 0.264280 0.300000
v 0.719500 0.260000 -0.300000
v 0.719500 0.260000 0.300000
v 0.717500 0.254000 -0.300000
v 0.717500 0.254000 0.300000
v 0.717500 0.239000 -0.300000
v 0.717500 0.239000 0.300000
v 0.718500 0.231000 -0.300000
v 0.718500 0.231000 0.300000
v 0.724500 0.225000 -0.300000
v 0.724500 0.225000 0.300000
v 0.738500 0.219000 -0.300000
v 0.738500 0.219000 0.300000
v 0.742500 0.207000 -0.300000
v 0.742500 0.207000 0.300000
v 0.742500 0.145000 -0.300000
v 0.742500 0.145000 0.300000
v 0.739500 0.134000 -0.300000
v 0.739500 0.134000 0.300000
v 0.725500 0.124000 -0.300000
v 0.725500 0.124000 0.300000
v 0.687500 0.113000 -0.300000
v 0.687500 0.113000 0.300000
v 0.681500 0.108000 -0.300000
v 0.681500 0.108000 0.300000
v 0.681500 0.099422 -0.300000
v 0.681500 0.099422 0.300000
vt 0.96281250 0.01585821
vt 0.96281250 0.25373134
vt 0.98937500 0.25373134
vt 0.98937500 0.01585821
vt 0.96281250 0.49160448
vt 0.98937500 0.49160448
vt 0.96281250 0.25055970
vt 0.98937500 0.28633158
vt 0.98937500 0.25055970
vt 0.67062500 0.01585821
vt 0.67062500 0.49160448
vt 0.67062500 0.25373134
vt 0.67925781 0.25373134
vt 0.67925781 0.01585821
vt 0.67925781 0.49160448
vt 0.67062500 0.28633158
vt 0.67925781 0.29780771
vt 0.67925781 0.25055970
vt 0.67062500 0.25055970
vt 0.71445312 0.25373134
vt 0.71445312 0.01585821
vt 0.71445312 0.49160448
vt 0.71445312 0.34302313
vt 0.71445312 0.25055970
vt 0.74964844 0.25373134
vt 0.74964844 0.01585821
vt 0.74964844 0.49160448
vt 0.74964844 0.38448283
vt 0.74964844 0.25055970
vt 0.78484375 0.25373134
vt 0.78484375 0.01585821
vt 0.78484375 0.49160448
vt 0.78484375 0.42103545
vt 0.78484375 0.25055970
vt 0.82003906 0.25373134
vt 0.82003906 0.01585821
vt 0.82003906 0.49160448
vt 0.82003906 0.45227667
vt 0.82003906 0.25055970
vt 0.85523437 0.25373134
vt 0.85523437 0.01585821
vt 0.85523437 0.49160448
vt 0.85523437 0.47861081
vt 0.85523437 0.25055970
vt 0.89042969 0.25373134
vt 0.89042969 0.01585821
vt 0.89042969 0.49160448
vt 0.87548894 0.49160448
vt 0.89042969 0.25055970
vt 0.87548894 0.01585821
vt 0.89042969 0.02544297
vt 0.92562500 0.25373134
vt 0.92562500 0.01585821
vt 0.92562500 0.49160448
vt 0.92562500 0.25055970
vt 0.92562500 0.04598881
vt 0.98937500 0.03647388
vt 0.67062500 0.03647388
vt 0.73437500 0.25373134
vt 0.73437500 0.01585821
vt 0.73437500 0.49160448
vt 0.73437500 0.25055970
vt 0.73437500 0.04598881
vt 0.76957031 0.25373134
vt 0.76957031 0.01585821
vt 0.76957031 0.49160448
vt 0.76957031 0.25055970
vt 0.76957031 0.02544297
vt 0.80476563 0.25373134
vt 0.80476563 0.01585821
vt 0.80476563 0.49160448
vt 0.78451106 0.49160448
vt 0.80476563 0.47861081
vt 0.80476563 0.25055970
vt 0.78451106 0.01585821
vt 0.83996094 0.25373134
vt 0.83996094 0.01585821
vt 0.83996094 0.49160448
vt 0.83996094 0.45227667
vt 0.83996094 0.25055970
vt 0.87515625 0.25373134
vt 0.87515625 0.01585821
vt 0.87515625 0.49160448
vt 0.87515625 0.42103545
vt 0.87515625 0.25055970
vt 0.91035156 0.25373134
vt 0.91035156 0.01585821
vt 0.91035156 0.49160448
vt 0.91035156 0.38448283
vt 0.91035156 0.25055970
vt 0.94554688 0.25373134
vt 0.94554688 0.01585821
vt 0.94554688 0.49160448
vt 0.94554688 0.34302313
vt 0.94554688 0.25055970
vt 0.98074219 0.25373134
vt 0.98074219 0.01585821
vt 0.98074219 0.49160448
vt 0.98074219 0.29780771
vt 0.98074219 0.25055970
vt 0.69718750 0.25373134
vt 0.69718750 0.01585821
vt 0.69718750 0.49160448
vt 0.69718750 0.25055970
vt 0.30281250 0.17047575
vt 0.32937500 0.15858209
vt 0.32937500 0.34888060
vt 0.30281250 0.33698694
vt 0.30281250 0.09514925
vt 0.30281250 0.01585821
vt 0.32937500 0.01585821
vt 0.32937500 0.09663596
vt 0.30281250 0.32985075
vt 0.32937500 0.34174440
vt 0.32937500 0.33381530
vt 0.30281250 0.32192164
vt 0.32937500 0.17364739
vt 0.30281250 0.18554104
vt 0.32937500 0.16571828
vt 0.30281250 0.17761194
vt 0.01062500 0.15858209
vt 0.15406250 0.15858209
vt 0.15406250 0.34888060
vt 0.01062500 0.34888060
vt 0.01062500 0.09663596
vt 0.01062500 0.01585821
vt 0.15406250 0.01585821
vt 0.15406250 0.10466418
vt 0.01062500 0.34174440
vt 0.15406250 0.34174440
vt 0.15406250 0.33381530
vt 0.01062500 0.33381530
vt 0.15406250 0.17364739
vt 0.01062500 0.17364739
vt 0.15406250 0.16571828
vt 0.01062500 0.16571828
vt 0.32937500 0.10466418
vt 0.04781250 0.15858209
vt 0.04781250 0.34888060
vt 0.04781250 0.01585821
vt 0.04781250 0.10466418
vt 0.01062500 0.10466418
vt 0.04781250 0.34174440
vt 0.04781250 0.33381530
vt 0.04781250 0.17364739
vt 0.04781250 0.16571828
vt 0.32937500 0.07682430
vt 0.29218750 0.15858209
vt 0.29218750 0.34888060
vt 0.01062500 0.07682430
vt 0.29218750 0.01585821
vt 0.29218750 0.10466418
vt 0.29218750 0.34174440
vt 0.29218750 0.33381530
vt 0.29218750 0.17364739
vt 0.29218750 0.16571828
vt 0.18593750 0.15858209
vt 0.18593750 0.34888060
vt 0.18593750 0.01585821
vt 0.18593750 0.10466418
vt 0.18593750 0.34174440
vt 0.18593750 0.33381530
vt 0.18593750 0.17364739
vt 0.18593750 0.16571828
vt 0.03718750 0.17047575
vt 0.03718750 0.33698694
vt 0.03718750 0.01585821
vt 0.03718750 0.09514925
vt 0.03718750 0.32985075
vt 0.03718750 0.32192164
vt 0.03718750 0.18554104
vt 0.03718750 0.17761194
vt 0.04250000 0.41231343
vt 0.03054688 0.01585821
vt 0.30945312 0.01585821
vt 0.29750000 0.41231343
vt 0.28421875 0.44402985
vt 0.05578125 0.44402985
vt 0.60837500 0.02537313
vt 0.65300000 0.02537313
vt 0.65300000 0.19664179
vt 0.60837500 0.19664179
vt 0.60837500 0.48208955
vt 0.65300000 0.48208955
vt 0.65300000 0.31082090
vt 0.60837500 0.31082090
vt 0.34062500 0.49160448
vt 0.57968750 0.49160448
vt 0.57968750 0.01585821
vt 0.34062500 0.01585821
vt 0.01062500 0.50839552
vt 0.01062500 0.53314987
vt 0.32937500 0.53314987
vt 0.32937500 0.50839552
vt 0.01062500 0.54757884
vt 0.32937500 0.54757884
vt 0.01062500 0.57932257
vt 0.32937500 0.57932257
vt 0.01062500 0.60818052
vt 0.32937500 0.60818052
vt 0.01062500 0.63992425
vt 0.32937500 0.63992425
vt 0.01062500 0.81884350
vt 0.32937500 0.81884350
vt 0.01062500 0.85347303
vt 0.32937500 0.85347303
vt 0.01062500 0.87078779
vt 0.32937500 0.87078779
vt 0.01062500 0.88810256
vt 0.32937500 0.88810256
vt 0.01062500 0.91118891
vt 0.32937500 0.91118891
vt 0.01062500 0.95447583
vt 0.32937500 0.95447583
vt 0.01062500 0.97179059
vt 0.32937500 0.97179059
vt 0.34062500 0.97014925
vt 0.34062500 0.92817164
vt 0.65937500 0.92817164
vt 0.65937500 0.97014925
vt 0.34062500 0.56436567
vt 0.65937500 0.56436567
vt 0.34062500 0.52238806
vt 0.65937500 0.52238806
vt 0.01062500 0.57500000
vt 0.32937500 0.57500000
vt 0.98937500 0.50839552
vt 0.67062500 0.50839552
vt 0.67062500 0.53314987
vt 0.68428571 0.54757884
vt 0.77080357 0.57932257
vt 0.80267857 0.60818052
vt 0.80040179 0.85347303
vt 0.76852679 0.87078779
vt 0.75486607 0.88810256
vt 0.75258929 0.91118891
vt 0.75258929 0.95447583
vt 0.75714286 0.97179059
vt 0.77080357 0.98414179
vt 0.80950893 0.81884350
vt 0.88919643 0.98414179
vt 0.90285714 0.97179059
vt 0.90741071 0.95447583
vt 0.90741071 0.91118891
vt 0.90513393 0.88810256
vt 0.89147321 0.87078779
vt 0.85959821 0.85347303
vt 0.85049107 0.81884350
vt 0.80950893 0.63992425
vt 0.85049107 0.63992425
vt 0.85732143 0.60818052
vt 0.88919643 0.57932257
vt 0.97571429 0.54757884
vt 0.98937500 0.53314987
vn -0.67601314 0.73688957 0.00000000
vn -0.66990359 0.74244575 -0.00186779
vn -0.66990476 0.74244705 0.00000000
vn -0.67601198 0.73688830 0.00185381
vn 0.00000000 0.00000000 -1.00000000
vn 0.00000000 -0.00000000 1.00000000
vn 0.00000000 -1.00000000 0.00000000
vn -0.67132147 0.74116396 -0.00186456
vn -0.66510533 0.74674541 -0.00248915
vn -0.66510621 0.74674641 0.00187861
vn -0.67132058 0.74116299 0.00247054
vn -0.65886181 0.75225981 -0.00250753
vn -0.65235724 0.75789478 -0.00505263
vn -0.65236349 0.75790204 0.00252634
vn -0.65885560 0.75225272 0.00501502
vn -0.62674989 0.77920318 -0.00519469
vn -0.61951841 0.78494288 -0.00784943
vn -0.61952901 0.78495632 0.00523304
vn -0.62673932 0.77919004 0.00779190
vn -0.57940804 0.81499687 -0.00814997
vn -0.57113334 0.82078434 -0.01094379
vn -0.57114831 0.82080585 0.00820806
vn -0.57939307 0.81497582 0.01086634
vn -0.52061463 0.85371590 -0.01138288
vn -0.51110737 0.85939752 -0.01432329
vn -0.51112625 0.85942926 0.01145906
vn -0.52059566 0.85368479 0.01422808
vn -0.45878801 0.88842238 -0.01480704
vn -0.44808089 0.89381427 -0.01787629
vn -0.44810276 0.89385792 0.01489763
vn -0.45876588 0.88837953 0.01776759
vn -0.40642676 0.91350068 -0.01827001
vn -0.39479511 0.91851918 -0.02143211
vn -0.39481917 0.91857515 0.01837150
vn -0.40640227 0.91344563 0.02131373
vn -0.37626353 0.92626057 -0.02161275
vn -0.36414097 0.93101287 -0.02482701
vn -0.36416728 0.93108013 0.02172520
vn -0.37623663 0.92619435 0.02469852
vn 0.09946871 0.99468709 -0.02652499
vn 0.09946871 0.99468709 0.02652499
vn 0.00000000 0.99964463 -0.02665719
vn -0.00000000 0.99964463 0.02665719
vn -0.09946871 0.99468709 -0.02652499
vn -0.09946871 0.99468709 0.02652499
vn 0.37623663 0.92619435 -0.02469852
vn 0.36416728 0.93108013 -0.02172520
vn 0.36414097 0.93101287 0.02482701
vn 0.37626353 0.92626057 0.02161275
vn 0.40640227 0.91344563 -0.02131373
vn 0.39481917 0.91857515 -0.01837150
vn 0.39479511 0.91851918 0.02143211
vn 0.40642676 0.91350068 0.01827001
vn 0.45876588 0.88837953 -0.01776759
vn 0.44810276 0.89385792 -0.01489763
vn 0.44808089 0.89381427 0.01787629
vn 0.45878801 0.88842238 0.01480704
vn 0.52059566 0.85368479 -0.01422808
vn 0.51112625 0.85942926 -0.01145906
vn 0.51110737 0.85939752 0.01432329
vn 0.52061463 0.85371590 0.01138288
vn 0.57939307 0.81497582 -0.01086634
vn 0.57114831 0.82080585 -0.00820806
vn 0.57113334 0.82078434 0.01094379
vn 0.57940804 0.81499687 0.00814997
vn 0.62673932 0.77919004 -0.00779190
vn 0.61952901 0.78495632 -0.00523304
vn 0.61951841 0.78494288 0.00784943
vn 0.62674989 0.77920318 0.00519469
vn 0.65885560 0.75225272 -0.00501502
vn 0.65236349 0.75790204 -0.00252634
vn 0.65235724 0.75789478 0.00505263
vn 0.65886181 0.75225981 0.00250753
vn 0.67132058 0.74116299 -0.00247054
vn 0.66510621 0.74674641 -0.00187861
vn 0.66510533 0.74674541 0.00248915
vn 0.67132147 0.74116396 0.00186456
vn 0.67601198 0.73688830 -0.00185381
vn 0.66990476 0.74244705 0.00000000
vn 0.66990359 0.74244575 0.00186779
vn 0.67601314 0.73688957 0.00000000
vn -0.28628613 0.08588584 0.95428710
vn -0.28922335 0.08423981 0.95354785
vn -0.21177615 0.76315730 0.61052584
vn -0.03747366 0.99929762 0.00000000
vn -0.21177615 0.76315730 -0.61052584
vn -0.28923878 0.08580631 -0.95340348
vn -0.28632465 0.08431646 -0.95441549
vn 0.00000000 0.08800082 0.99612040
vn -0.00300370 0.08009859 0.99678242
vn -0.02927003 0.78053424 0.62442739
vn -0.02927003 0.78053424 -0.62442739
vn -0.00330001 0.08800034 -0.99611498
vn 0.00000000 0.08009895 -0.99678692
vn -0.00000000 0.08009895 0.99678692
vn -0.00000000 0.78086881 0.62469505
vn -0.00000000 1.00000000 0.00000000
vn 0.00000000 0.78086881 -0.62469505
vn 0.00770154 0.11625468 0.99318958
vn 0.05166127 0.77982609 0.62386087
vn 0.06610228 0.99781285 0.00000000
vn 0.05166127 0.77982609 -0.62386087
vn 0.00530625 0.08009782 -0.99677288
vn 0.00000000 0.11625813 -0.99321903
vn 0.00000000 0.11625813 0.99321903
vn -0.00530625 0.08009782 0.99677288
vn -0.05166127 0.77982609 0.62386087
vn -0.06610228 0.99781285 0.00000000
vn -0.05166127 0.77982609 -0.62386087
vn -0.00770154 0.11625468 -0.99318958
vn 0.00330001 0.08800034 0.99611498
vn 0.02927003 0.78053424 0.62442739
vn 0.03747366 0.99929762 0.00000000
vn 0.02927003 0.78053424 -0.62442739
vn 0.00300370 0.08009859 -0.99678242
vn 0.00000000 0.08800082 -0.99612040
vn 0.28632465 0.08431646 0.95441549
vn 0.28923878 0.08580631 0.95340348
vn 0.21177615 0.76315730 0.61052584
vn 0.21177615 0.76315730 -0.61052584
vn 0.28922335 0.08423981 -0.95354785
vn 0.28628613 0.08588584 -0.95428710
vn -1.00000000 -0.00000000 0.00000000
vn 1.00000000 0.00000000 0.00000000
vn 0.64018440 0.76822128 0.00000000
vn 0.27805808 0.96056426 0.00000000
vn 0.58123819 0.81373347 0.00000000
vn 0.96476382 0.26311741 0.00000000
vn 0.94868330 -0.31622777 0.00000000
vn 0.39391930 -0.91914503 0.00000000
vn 0.70710678 -0.70710678 0.00000000
vn 0.99227788 -0.12403473 0.00000000
vn 0.94868330 0.31622777 0.00000000
vn 0.58072468 0.81410002 0.00000000
vn -0.58072468 0.81410002 0.00000000
vn -0.94868330 0.31622777 0.00000000
vn -0.99227788 -0.12403473 0.00000000
vn -0.70710678 -0.70710678 0.00000000
vn -0.39391930 -0.91914503 0.00000000
vn -0.94868330 -0.31622777 0.00000000
vn -0.96476382 0.26311741 0.00000000
vn -0.58123819 0.81373347 0.00000000
vn -0.27805808 0.96056426 0.00000000
vn -0.64018440 0.76822128 0.00000000
g ballast
usemtl mat
f 1/1/1 2/2/1 3/3/1
f 3/3/2 4/4/2 1/1/2
f 2/2/3 5/5/3 6/6/3
f 6/6/4 3/3/4 2/2/4
f 1/7/5 4/8/5 7/9/5
f 8/9/6 6/8/6 5/7/6
f 1/10/7 7/4/7 8/6/7 5/11/7
f 4/10/8 3/12/8 9/13/8
f 9/13/9 10/14/9 4/10/9
f 3/12/10 6/11/10 11/15/10
f 11/15/11 9/13/11 3/12/11
f 4/16/5 10/17/5 12/18/5 7/19/5
f 8/19/6 13/18/6 11/17/6 6/16/6
f 7/10/7 12/4/7 13/6/7 8/11/7
f 10/14/12 9/13/12 14/20/12
f 14/20/13 15/21/13 10/14/13
f 9/13/14 11/15/14 16/22/14
f 16/22/15 14/20/15 9/13/15
f 10/17/5 15/23/5 17/24/5 12/18/5
f 13/18/6 18/24/6 16/23/6 11/17/6
f 12/10/7 17/4/7 18/6/7 13/11/7
f 15/21/16 14/20/16 19/25/16
f 19/25/17 20/26/17 15/21/17
f 14/20/18 16/22/18 21/27/18
f 21/27/19 19/25/19 14/20/19
f 15/23/5 20/28/5 22/29/5 17/24/5
f 18/24/6 23/29/6 21/28/6 16/23/6
f 17/10/7 22/4/7 23/6/7 18/11/7
f 20/26/20 19/25/20 24/30/20
f 24/30/21 25/31/21 20/26/21
f 19/25/22 21/27/22 26/32/22
f 26/32/23 24/30/23 19/25/23
f 20/28/5 25/33/5 27/34/5 22/29/5
f 23/29/6 28/34/6 26/33/6 21/28/6
f 22/10/7 27/4/7 28/6/7 23/11/7
f 25/31/24 24/30/24 29/35/24
f 29/35/25 30/36/25 25/31/25
f 24/30/26 26/32/26 31/37/26
f 31/37/27 29/35/27 24/30/27
f 25/33/5 30/38/5 32/39/5 27/34/5
f 28/34/6 33/39/6 31/38/6 26/33/6
f 27/10/7 32/4/7 33/6/7 28/11/7
f 30/36/28 29/35/28 34/40/28
f 34/40/29 35/41/29 30/36/29
f 29/35/30 31/37/30 36/42/30
f 36/42/31 34/40/31 29/35/31
f 30/38/5 35/43/5 37/44/5 32/39/5
f 33/39/6 38/44/6 36/43/6 31/38/6
f 32/10/7 37/4/7 38/6/7 33/11/7
f 35/41/32 34/40/32 39/45/32
f 39/45/33 40/46/33 35/41/33
f 34/40/34 36/42/34 41/47/34
f 41/47/35 39/45/35 34/40/35
f 37/44/5 35/43/5 42/48/5
f 37/44/5 42/48/5 43/47/5
f 43/47/5 44/49/5 37/44/5
f 42/50/5 40/51/5 43/46/5
f 36/43/6 38/44/6 45/49/6
f 36/43/6 45/49/6 46/47/6
f 46/47/6 47/48/6 36/43/6
f 46/46/6 41/51/6 47/50/6
f 37/10/7 44/4/7 45/6/7 38/11/7
f 40/46/36 39/45/36 48/52/36
f 48/52/37 49/53/37 40/46/37
f 39/45/38 41/47/38 50/54/38
f 50/54/39 48/52/39 39/45/39
f 43/47/5 51/54/5 52/55/5 44/49/5
f 43/46/5 40/51/5 49/56/5 51/53/5
f 45/49/6 53/55/6 54/54/6 46/47/6
f 54/53/6 50/56/6 41/51/6 46/46/6
f 44/10/7 52/4/7 53/6/7 45/11/7
f 48/52/40 55/3/40 56/4/40 49/53/40
f 50/54/41 57/6/41 55/3/41 48/52/41
f 51/54/5 58/6/5 59/9/5 52/55/5
f 51/53/5 49/56/5 56/57/5 58/4/5
f 53/55/6 60/9/6 61/6/6 54/54/6
f 61/4/6 57/57/6 50/56/6 54/53/6
f 52/10/7 59/4/7 60/6/7 53/11/7
f 55/12/42 62/3/42 63/4/42 56/10/42
f 57/11/43 64/6/43 62/3/43 55/12/43
f 58/11/5 65/6/5 66/9/5 59/19/5
f 58/10/5 56/58/5 63/57/5 65/4/5
f 60/19/6 67/9/6 68/6/6 61/11/6
f 68/4/6 64/57/6 57/58/6 61/10/6
f 59/10/7 66/4/7 67/6/7 60/11/7
f 62/12/42 69/3/42 70/4/42 63/10/42
f 64/11/43 71/6/43 69/3/43 62/12/43
f 65/11/5 72/6/5 73/9/5 66/19/5
f 65/10/5 63/58/5 70/57/5 72/4/5
f 67/19/6 74/9/6 75/6/6 68/11/6
f 75/4/6 71/57/6 64/58/6 68/10/6
f 66/10/7 73/4/7 74/6/7 67/11/7
f 69/12/42 76/3/42 77/4/42 70/10/42
f 71/11/43 78/6/43 76/3/43 69/12/43
f 72/11/5 79/6/5 80/9/5 73/19/5
f 72/10/5 70/58/5 77/57/5 79/4/5
f 74/19/6 81/9/6 82/6/6 75/11/6
f 82/4/6 78/57/6 71/58/6 75/10/6
f 73/10/7 80/4/7 81/6/7 74/11/7
f 76/12/42 83/3/42 84/4/42 77/10/42
f 78/11/43 85/6/43 83/3/43 76/12/43
f 79/11/5 86/6/5 87/9/5 80/19/5
f 79/10/5 77/58/5 84/57/5 86/4/5
f 81/19/6 88/9/6 89/6/6 82/11/6
f 89/4/6 85/57/6 78/58/6 82/10/6
f 80/10/7 87/4/7 88/6/7 81/11/7
f 83/12/44 90/59/44 91/60/44 84/10/44
f 85/11/45 92/61/45 90/59/45 83/12/45
f 86/11/5 93/61/5 94/62/5 87/19/5
f 86/10/5 84/58/5 91/63/5 93/60/5
f 88/19/6 95/62/6 96/61/6 89/11/6
f 96/60/6 92/63/6 85/58/6 89/10/6
f 87/10/7 94/4/7 95/6/7 88/11/7
f 91/60/46 90/59/46 97/64/46
f 97/64/47 98/65/47 91/60/47
f 90/59/48 92/61/48 99/66/48
f 99/66/49 97/64/49 90/59/49
f 93/61/5 100/66/5 101/67/5 94/62/5
f 93/60/5 91/63/5 98/68/5 100/65/5
f 95/62/6 102/67/6 103/66/6 96/61/6
f 103/65/6 99/68/6 92/63/6 96/60/6
f 94/10/7 101/4/7 102/6/7 95/11/7
f 98/65/50 97/64/50 104/69/50
f 104/69/51 105/70/51 98/65/51
f 97/64/52 99/66/52 106/71/52
f 106/71/53 104/69/53 97/64/53
f 101/67/5 100/66/5 107/72/5
f 101/67/5 107/72/5 105/73/5
f 105/73/5 108/74/5 101/67/5
f 100/65/5 98/68/5 107/75/5
f 103/66/6 102/67/6 109/74/6
f 103/66/6 109/74/6 106/73/6
f 106/73/6 110/72/6 103/66/6
f 110/75/6 99/68/6 103/65/6
f 101/10/7 108/4/7 109/6/7 102/11/7
f 105/70/54 104/69/54 111/76/54
f 111/76/55 112/77/55 105/70/55
f 104/69/56 106/71/56 113/78/56
f 113/78/57 111/76/57 104/69/57
f 105/73/5 112/79/5 114/80/5 108/74/5
f 109/74/6 115/80/6 113/79/6 106/73/6
f 108/10/7 114/4/7 115/6/7 109/11/7
f 112/77/58 111/76/58 116/81/58
f 116/81/59 117/82/59 112/77/59
f 111/76/60 113/78/60 118/83/60
f 118/83/61 116/81/61 111/76/61
f 112/79/5 117/84/5 119/85/5 114/80/5
f 115/80/6 120/85/6 118/84/6 113/79/6
f 114/10/7 119/4/7 120/6/7 115/11/7
f 117/82/62 116/81/62 121/86/62
f 121/86/63 122/87/63 117/82/63
f 116/81/64 118/83/64 123/88/64
f 123/88/65 121/86/65 116/81/65
f 117/84/5 122/89/5 124/90/5 119/85/5
f 120/85/6 125/90/6 123/89/6 118/84/6
f 119/10/7 124/4/7 125/6/7 120/11/7
f 122/87/66 121/86/66 126/91/66
f 126/91/67 127/92/67 122/87/67
f 121/86/68 123/88/68 128/93/68
f 128/93/69 126/91/69 121/86/69
f 122/89/5 127/94/5 129/95/5 124/90/5
f 125/90/6 130/95/6 128/94/6 123/89/6
f 124/10/7 129/4/7 130/6/7 125/11/7
f 127/92/70 126/91/70 131/96/70
f 131/96/71 132/97/71 127/92/71
f 126/91/72 128/93/72 133/98/72
f 133/98/73 131/96/73 126/91/73
f 127/94/5 132/99/5 134/100/5 129/95/5
f 130/95/6 135/100/6 133/99/6 128/94/6
f 129/10/7 134/4/7 135/6/7 130/11/7
f 132/97/74 131/96/74 136/3/74
f 136/3/75 137/4/75 132/97/75
f 131/96/76 133/98/76 138/6/76
f 138/6/77 136/3/77 131/96/77
f 132/99/5 137/8/5 139/9/5 134/100/5
f 135/100/6 140/9/6 138/8/6 133/99/6
f 134/10/7 139/4/7 140/6/7 135/11/7
f 137/10/78 136/12/78 141/101/78
f 141/101/79 142/102/79 137/10/79
f 136/12/80 138/11/80 143/103/80
f 143/103/81 141/101/81 136/12/81
f 137/16/5 142/104/5 139/19/5
f 140/19/6 143/104/6 138/16/6
f 139/10/7 142/4/7 143/6/7 140/11/7
g sleeper
usemtl mat
f 144/105/7 145/106/7 146/107/7 147/108/7
f 148/109/82 147/110/82 146/111/82
f 146/111/83 149/112/83 148/109/83
f 148/113/84 149/114/84 150/115/84 151/116/84
f 151/116/85 150/115/85 152/117/85 153/118/85
f 153/118/86 152/117/86 154/119/86 155/120/86
f 144/110/87 155/109/87 154/112/87
f 154/112/88 145/111/88 144/110/88
f 145/121/7 156/122/7 157/123/7 146/124/7
f 149/125/89 146/126/89 157/127/89
f 157/127/90 158/128/90 149/125/90
f 149/129/91 158/130/91 159/131/91 150/132/91
f 150/132/85 159/131/85 160/133/85 152/134/85
f 152/134/92 160/133/92 161/135/92 154/136/92
f 145/126/93 154/125/93 161/128/93
f 161/128/94 156/127/94 145/126/94
f 156/122/7 162/106/7 163/107/7 157/123/7
f 157/127/95 163/111/95 164/137/95 158/128/95
f 158/130/96 164/114/96 165/115/96 159/131/96
f 159/131/97 165/115/97 166/117/97 160/133/97
f 160/133/98 166/117/98 167/119/98 161/135/98
f 161/128/94 167/137/94 162/111/94 156/127/94
f 162/121/7 168/138/7 169/139/7 163/124/7
f 163/126/95 169/140/95 170/141/95 164/142/95
f 164/129/96 170/143/96 171/144/96 165/132/96
f 165/132/97 171/144/97 172/145/97 166/134/97
f 166/134/98 172/145/98 173/146/98 167/136/98
f 167/142/94 173/141/94 168/140/94 162/126/94
f 168/138/7 174/106/7 175/107/7 169/139/7
f 170/141/95 169/140/95 175/111/95
f 175/111/99 176/147/99 170/141/99
f 170/143/100 176/114/100 177/115/100 171/144/100
f 171/144/101 177/115/101 178/117/101 172/145/101
f 172/145/102 178/117/102 179/119/102 173/146/102
f 168/140/103 173/141/103 179/147/103
f 179/147/104 174/111/104 168/140/104
f 174/121/7 180/148/7 181/149/7 175/124/7
f 176/150/105 175/126/105 181/151/105
f 181/151/106 182/152/106 176/150/106
f 176/129/107 182/153/107 183/154/107 177/132/107
f 177/132/108 183/154/108 184/155/108 178/134/108
f 178/134/109 184/155/109 185/156/109 179/136/109
f 174/126/110 179/150/110 185/152/110
f 185/152/94 180/151/94 174/126/94
f 180/148/7 186/106/7 187/107/7 181/149/7
f 181/151/95 187/111/95 188/137/95 182/152/95
f 182/153/96 188/114/96 189/115/96 183/154/96
f 183/154/97 189/115/97 190/117/97 184/155/97
f 184/155/98 190/117/98 191/119/98 185/156/98
f 185/152/94 191/137/94 186/111/94 180/151/94
f 186/121/7 192/157/7 193/158/7 187/124/7
f 187/126/95 193/159/95 194/160/95 188/142/95
f 188/129/96 194/161/96 195/162/96 189/132/96
f 189/132/97 195/162/97 196/163/97 190/134/97
f 190/134/98 196/163/98 197/164/98 191/136/98
f 191/142/94 197/160/94 192/159/94 186/126/94
f 192/157/7 198/106/7 199/107/7 193/158/7
f 194/160/95 193/159/95 199/111/95
f 199/111/111 200/112/111 194/160/111
f 194/161/112 200/114/112 201/115/112 195/162/112
f 195/162/113 201/115/113 202/117/113 196/163/113
f 196/163/114 202/117/114 203/119/114 197/164/114
f 192/159/115 197/160/115 203/112/115
f 203/112/116 198/111/116 192/159/116
f 198/121/7 204/165/7 205/166/7 199/124/7
f 200/125/117 199/126/117 205/167/117
f 205/167/118 206/168/118 200/125/118
f 200/129/119 206/169/119 207/170/119 201/132/119
f 201/132/113 207/170/113 208/171/113 202/134/113
f 202/134/120 208/171/120 209/172/120 203/136/120
f 198/126/121 203/125/121 209/168/121
f 209/168/122 204/167/122 198/126/122
f 155/173/123 144/174/123 147/175/123
f 155/173/123 147/175/123 148/176/123
f 155/173/123 148/176/123 151/177/123
f 151/177/123 153/178/123 155/173/123
f 204/174/124 209/173/124 208/178/124
f 204/174/124 208/178/124 207/177/124
f 204/174/124 207/177/124 206/176/124
f 206/176/124 205/175/124 204/174/124
g fastener_left
usemtl mat
f 210/179/7 211/180/7 212/181/7 213/182/7
f 214/182/5 215/181/5 211/180/5 210/179/5
f 215/182/124 216/181/124 212/180/124 211/179/124
f 216/182/6 217/181/6 213/180/6 212/179/6
f 217/182/123 214/181/123 210/180/123 213/179/123
f 218/183/97 219/184/97 220/185/97 221/186/97
f 221/183/5 220/184/5 222/185/5 223/186/5
f 220/183/124 219/184/124 224/185/124 222/186/124
f 219/183/6 218/184/6 225/185/6 224/186/6
f 218/183/123 221/184/123 223/185/123 225/186/123
f 226/187/97 227/188/97 228/189/97 229/190/97
f 229/187/5 228/188/5 230/189/5 231/190/5
f 228/187/124 227/188/124 232/189/124 230/190/124
f 227/187/6 226/188/6 233/189/6 232/190/6
f 226/187/123 229/188/123 231/189/123 233/190/123
f 234/190/7 235/189/7 236/188/7 237/187/7
f 238/187/97 239/188/97 240/189/97 241/190/97
f 241/187/5 240/188/5 235/189/5 234/190/5
f 240/187/124 239/188/124 236/189/124 235/190/124
f 239/187/6 238/188/6 237/189/6 236/190/6
f 238/187/123 241/188/123 234/189/123 237/190/123
f 242/179/7 243/180/7 244/181/7 245/182/7
f 246/182/97 247/181/97 248/180/97 249/179/97
f 249/182/5 248/181/5 243/180/5 242/179/5
f 248/182/124 247/181/124 244/180/124 243/179/124
f 247/182/6 246/181/6 245/180/6 244/179/6
f 246/182/123 249/181/123 242/180/123 245/179/123
f 250/190/7 251/189/7 252/188/7 253/187/7
f 254/187/97 255/188/97 256/189/97 257/190/97
f 257/187/5 256/188/5 251/189/5 250/190/5
f 256/187/124 255/188/124 252/189/124 251/190/124
f 255/187/6 254/188/6 253/189/6 252/190/6
f 254/187/123 257/188/123 250/189/123 253/190/123
f 258/179/7 259/180/7 260/181/7 261/182/7
f 262/182/97 263/181/97 264/180/97 265/179/97
f 265/182/5 264/181/5 259/180/5 258/179/5
f 264/182/124 263/181/124 260/180/124 259/179/124
f 263/182/6 262/181/6 261/180/6 260/179/6
f 262/182/123 265/181/123 258/180/123 261/179/123
g rail_left
usemtl mat
f 266/191/124 267/192/124 268/193/124 269/194/124
f 267/192/125 270/195/125 271/196/125 268/193/125
f 270/195/126 272/197/126 273/198/126 271/196/126
f 272/197/127 274/199/127 275/200/127 273/198/127
f 274/199/128 276/201/128 277/202/128 275/200/128
f 276/201/124 278/203/124 279/204/124 277/202/124
f 278/203/129 280/205/129 281/206/129 279/204/129
f 280/205/130 282/207/130 283/208/130 281/206/130
f 282/207/131 284/209/131 285/210/131 283/208/131
f 284/209/132 286/211/132 287/212/132 285/210/132
f 286/211/124 288/213/124 289/214/124 287/212/124
f 288/213/133 290/215/133 291/216/133 289/214/133
f 290/217/134 292/218/134 293/219/134 291/220/134
f 292/218/97 294/221/97 295/222/97 293/219/97
f 294/221/135 296/223/135 297/224/135 295/222/135
f 296/215/136 298/213/136 299/214/136 297/216/136
f 298/213/123 300/211/123 301/212/123 299/214/123
f 300/211/137 302/209/137 303/210/137 301/212/137
f 302/209/138 304/207/138 305/208/138 303/210/138
f 304/207/139 306/205/139 307/206/139 305/208/139
f 306/205/140 308/203/140 309/204/140 307/206/140
f 308/203/123 310/201/123 311/202/123 309/204/123
f 310/201/141 312/199/141 313/200/141 311/202/141
f 312/199/142 314/197/142 315/198/142 313/200/142
f 314/197/143 316/195/143 317/196/143 315/198/143
f 316/195/144 318/192/144 319/193/144 317/196/144
f 318/192/123 320/191/123 321/194/123 319/193/123
f 320/191/7 266/225/7 269/226/7 321/194/7
g rail_left_end
usemtl mat
f 266/227/5 320/228/5 318/229/5
f 266/227/5 318/229/5 316/230/5
f 266/227/5 316/230/5 314/231/5
f 266/227/5 314/231/5 312/232/5
f 306/233/5 304/234/5 302/235/5
f 306/233/5 302/235/5 300/236/5
f 306/233/5 300/236/5 298/237/5
f 306/233/5 298/237/5 296/238/5
f 306/233/5 296/238/5 294/239/5
f 308/240/5 306/233/5 294/239/5
f 308/240/5 294/239/5 292/241/5
f 308/240/5 292/241/5 290/242/5
f 308/240/5 290/242/5 288/243/5
f 308/240/5 288/243/5 286/244/5
f 308/240/5 286/244/5 284/245/5
f 284/245/5 282/246/5 280/247/5
f 308/240/5 284/245/5 280/247/5
f 308/240/5 280/247/5 278/248/5
f 310/249/5 308/240/5 278/248/5
f 312/232/5 310/249/5 278/248/5
f 312/232/5 278/248/5 276/250/5
f 312/232/5 276/250/5 274/251/5
f 312/232/5 274/251/5 272/252/5
f 266/227/5 312/232/5 272/252/5
f 266/227/5 272/252/5 270/253/5
f 270/253/5 267/254/5 266/227/5
f 321/228/6 269/227/6 268/254/6
f 321/228/6 268/254/6 271/253/6
f 321/228/6 271/253/6 273/252/6
f 321/228/6 273/252/6 275/251/6
f 281/247/6 283/246/6 285/245/6
f 281/247/6 285/245/6 287/244/6
f 281/247/6 287/244/6 289/243/6
f 281/247/6 289/243/6 291/242/6
f 281/247/6 291/242/6 293/241/6
f 279/248/6 281/247/6 293/241/6
f 279/248/6 293/241/6 295/239/6
f 279/248/6 295/239/6 297/238/6
f 279/248/6 297/238/6 299/237/6
f 279/248/6 299/237/6 301/236/6
f 279/248/6 301/236/6 303/235/6
f 303/235/6 305/234/6 307/233/6
f 279/248/6 303/235/6 307/233/6
f 279/248/6 307/233/6 309/240/6
f 277/250/6 279/248/6 309/240/6
f 275/251/6 277/250/6 309/240/6
f 275/251/6 309/240/6 311/249/6
f 275/251/6 311/249/6 313/232/6
f 275/251/6 313/232/6 315/231/6
f 321/228/6 275/251/6 315/231/6
f 321/228/6 315/231/6 317/230/6
f 317/230/6 319/229/6 321/228/6
g fastener_right
usemtl mat
f 322/179/7 323/180/7 324/181/7 325/182/7
f 326/182/5 327/181/5 323/180/5 322/179/5
f 327/182/124 328/181/124 324/180/124 323/179/124
f 328/182/6 329/181/6 325/180/6 324/179/6
f 329/182/123 326/181/123 322/180/123 325/179/123
f 330/183/97 331/184/97 332/185/97 333/186/97
f 333/183/5 332/184/5 334/185/5 335/186/5
f 332/183/124 331/184/124 336/185/124 334/186/124
f 331/183/6 330/184/6 337/185/6 336/186/6
f 330/183/123 333/184/123 335/185/123 337/186/123
f 338/187/97 339/188/97 340/189/97 341/190/97
f 341/187/5 340/188/5 342/189/5 343/190/5
f 340/187/124 339/188/124 344/189/124 342/190/124
f 339/187/6 338/188/6 345/189/6 344/190/6
f 338/187/123 341/188/123 343/189/123 345/190/123
f 346/190/7 347/189/7 348/188/7 349/187/7
f 350/187/97 351/188/97 352/189/97 353/190/97
f 353/187/5 352/188/5 347/189/5 346/190/5
f 352/187/124 351/188/124 348/189/124 347/190/124
f 351/187/6 350/188/6 349/189/6 348/190/6
f 350/187/123 353/188/123 346/189/123 349/190/123
f 354/179/7 355/180/7 356/181/7 357/182/7
f 358/182/97 359/181/97 360/180/97 361/179/97
f 361/182/5 360/181/5 355/180/5 354/179/5
f 360/182/124 359/181/124 356/180/124 355/179/124
f 359/182/6 358/181/6 357/180/6 356/179/6
f 358/182/123 361/181/123 354/180/123 357/179/123
f 362/190/7 363/189/7 364/188/7 365/187/7
f 366/187/97 367/188/97 368/189/97 369/190/97
f 369/187/5 368/188/5 363/189/5 362/190/5
f 368/187/124 367/188/124 364/189/124 363/190/124
f 367/187/6 366/188/6 365/189/6 364/190/6
f 366/187/123 369/188/123 362/189/123 365/190/123
f 370/179/7 371/180/7 372/181/7 373/182/7
f 374/182/97 375/181/97 376/180/97 377/179/97
f 377/182/5 376/181/5 371/180/5 370/179/5
f 376/182/124 375/181/124 372/180/124 371/179/124
f 375/182/6 374/181/6 373/180/6 372/179/6
f 374/182/123 377/181/123 370/180/123 373/179/123
g rail_right
usemtl mat
f 378/191/124 379/192/124 380/193/124 381/194/124
f 379/192/125 382/195/125 383/196/125 380/193/125
f 382/195/126 384/197/126 385/198/126 383/196/126
f 384/197/127 386/199/127 387/200/127 385/198/127
f 386/199/128 388/201/128 389/202/128 387/200/128
f 388/201/124 390/203/124 391/204/124 389/202/124
f 390/203/129 392/205/129 393/206/129 391/204/129
f 392/205/130 394/207/130 395/208/130 393/206/130
f 394/207/131 396/209/131 397/210/131 395/208/131
f 396/209/132 398/211/132 399/212/132 397/210/132
f 398/211/124 400/213/124 401/214/124 399/212/124
f 400/213/133 402/215/133 403/216/133 401/214/133
f 402/217/134 404/218/134 405/219/134 403/220/134
f 404/218/97 406/221/97 407/222/97 405/219/97
f 406/221/135 408/223/135 409/224/135 407/222/135
f 408/215/136 410/213/136 411/214/136 409/216/136
f 410/213/123 412/211/123 413/212/123 411/214/123
f 412/211/137 414/209/137 415/210/137 413/212/137
f 414/209/138 416/207/138 417/208/138 415/210/138
f 416/207/139 418/205/139 419/206/139 417/208/139
f 418/205/140 420/203/140 421/204/140 419/206/140
f 420/203/123 422/201/123 423/202/123 421/204/123
f 422/201/141 424/199/141 425/200/141 423/202/141
f 424/199/142 426/197/142 427/198/142 425/200/142
f 426/197/143 428/195/143 429/196/143 427/198/143
f 428/195/144 430/192/144 431/193/144 429/196/144
f 430/192/123 432/191/123 433/194/123 431/193/123
f 432/191/7 378/225/7 381/226/7 433/194/7
g rail_right_end
usemtl mat
f 378/227/5 432/228/5 430/229/5
f 378/227/5 430/229/5 428/230/5
f 378/227/5 428/230/5 426/231/5
f 378/227/5 426/231/5 424/232/5
f 418/233/5 416/234/5 414/235/5
f 418/233/5 414/235/5 412/236/5
f 418/233/5 412/236/5 410/237/5
f 418/233/5 410/237/5 408/238/5
f 418/233/5 408/238/5 406/239/5
f 420/240/5 418/233/5 406/239/5
f 420/240/5 406/239/5 404/241/5
f 420/240/5 404/241/5 402/242/5
f 420/240/5 402/242/5 400/243/5
f 420/240/5 400/243/5 398/244/5
f 420/240/5 398/244/5 396/245/5
f 396/245/5 394/246/5 392/247/5
f 420/240/5 396/245/5 392/247/5
f 420/240/5 392/247/5 390/248/5
f 422/249/5 420/240/5 390/248/5
f 424/232/5 422/249/5 390/248/5
f 424/232/5 390/248/5 388/250/5
f 424/232/5 388/250/5 386/251/5
f 424/232/5 386/251/5 384/252/5
f 378/227/5 424/232/5 384/252/5
f 378/227/5 384/252/5 382/253/5
f 382/253/5 379/254/5 378/227/5
f 433/228/6 381/227/6 380/254/6
f 433/228/6 380/254/6 383/253/6
f 433/228/6 383/253/6 385/252/6
f 433/228/6 385/252/6 387/251/6
f 393/247/6 395/246/6 397/245/6
f 393/247/6 397/245/6 399/244/6
f 393/247/6 399/244/6 401/243/6
f 393/247/6 401/243/6 403/242/6
f 393/247/6 403/242/6 405/241/6
f 391/248/6 393/247/6 405/241/6
f 391/248/6 405/241/6 407/239/6
f 391/248/6 407/239/6 409/238/6
f 391/248/6 409/238/6 411/237/6
f 391/248/6 411/237/6 413/236/6
f 391/248/6 413/236/6 415/235/6
f 415/235/6 417/234/6 419/233/6
f 391/248/6 415/235/6 419/233/6
f 391/248/6 419/233/6 421/240/6
f 389/250/6 391/248/6 421/240/6
f 387/251/6 389/250/6 421/240/6
f 387/251/6 421/240/6 423/249/6
f 387/251/6 423/249/6 425/232/6
f 387/251/6 425/232/6 427/231/6
f 433/228/6 387/251/6 427/231/6
f 433/228/6 427/231/6 429/230/6
f 429/230/6 431/229/6 433/228/6
