# metres; Y up; CCW outward; repeat 0.6 m
mtllib rail_mid.mtl
v -1.850000 -0.304000 -0.300000
v -1.850000 -0.304000 0.000000
v -1.800000 -0.258131 0.000000
v -1.800000 -0.258885 -0.300000
v -1.850000 -0.304000 0.300000
v -1.800000 -0.258885 0.300000
v -1.800000 -0.304000 -0.300000
v -1.800000 -0.304000 0.300000
v -1.783750 -0.243412 0.000000
v -1.783750 -0.244412 -0.300000
v -1.783750 -0.244412 0.300000
v -1.783750 -0.304000 -0.300000
v -1.783750 -0.304000 0.300000
v -1.717500 -0.185387 0.000000
v -1.717500 -0.187387 -0.300000
v -1.717500 -0.187387 0.300000
v -1.717500 -0.304000 -0.300000
v -1.717500 -0.304000 0.300000
v -1.651250 -0.132099 0.000000
v -1.651250 -0.135099 -0.300000
v -1.651250 -0.135099 0.300000
v -1.651250 -0.304000 -0.300000
v -1.651250 -0.304000 0.300000
v -1.585000 -0.085000 0.000000
v -1.585000 -0.089000 -0.300000
v -1.585000 -0.089000 0.300000
v -1.585000 -0.304000 -0.300000
v -1.585000 -0.304000 0.300000
v -1.518750 -0.044599 0.000000
v -1.518750 -0.049599 -0.300000
v -1.518750 -0.049599 0.300000
v -1.518750 -0.304000 -0.300000
v -1.518750 -0.304000 0.300000
v -1.452500 -0.010387 0.000000
v -1.452500 -0.016387 -0.300000
v -1.452500 -0.016387 0.300000
v -1.452500 -0.304000 -0.300000
v -1.452500 -0.304000 0.300000
v -1.386250 0.019088 0.000000
v -1.386250 0.012088 -0.300000
v -1.386250 0.012088 0.300000
v -1.414374 0.000000 -0.300000
v -1.386250 0.000000 -0.300000
v -1.386250 -0.304000 -0.300000
v -1.386250 -0.304000 0.300000
v -1.386250 0.000000 0.300000
v -1.414374 0.000000 0.300000
v -1.320000 0.046000 0.000000
v -1.320000 0.038000 -0.300000
v -1.320000 0.038000 0.300000
v -1.320000 0.000000 -0.300000
v -1.320000 -0.304000 -0.300000
v -1.320000 -0.304000 0.300000
v -1.320000 0.000000 0.300000
v -1.200000 0.034000 0.000000
v -1.200000 0.026000 -0.300000
v -1.200000 0.026000 0.300000
v -1.200000 0.000000 -0.300000
v -1.200000 -0.304000 -0.300000
v -1.200000 -0.304000 0.300000
v -1.200000 0.000000 0.300000
v -0.600000 0.034000 0.000000
v -0.600000 0.026000 -0.300000
v -0.600000 0.026000 0.300000
v -0.600000 0.000000 -0.300000
v -0.600000 -0.304000 -0.300000
v -0.600000 -0.304000 0.300000
v -0.600000 0.000000 0.300000
v 0.000000 0.034000 0.000000
v 0.000000 0.026000 -0.300000
v 0.000000 0.026000 0.300000
v 0.000000 0.000000 -0.300000
v 0.000000 -0.304000 -0.300000
v 0.000000 -0.304000 0.300000
v 0.000000 0.000000 0.300000
v 0.600000 0.034000 0.000000
v 0.600000 0.026000 -0.300000
v 0.600000 0.026000 0.300000
v 0.600000 0.000000 -0.300000
v 0.600000 -0.304000 -0.300000
v 0.600000 -0.304000 0.300000
v 0.600000 0.000000 0.300000
v 1.200000 0.034000 0.000000
v 1.200000 0.026000 -0.300000
v 1.200000 0.026000 0.300000
v 1.200000 0.000000 -0.300000
v 1.200000 -0.304000 -0.300000
v 1.200000 -0.304000 0.300000
v 1.200000 0.000000 0.300000
v 1.320000 0.046000 0.000000
v 1.320000 0.038000 -0.300000
v 1.320000 0.038000 0.300000
v 1.320000 0.000000 -0.300000
v 1.320000 -0.304000 -0.300000
v 1.320000 -0.304000 0.300000
v 1.320000 0.000000 0.300000
v 1.386250 0.019088 0.000000
v 1.386250 0.012088 -0.300000
v 1.386250 0.012088 0.300000
v 1.386250 0.000000 -0.300000
v 1.386250 -0.304000 -0.300000
v 1.386250 -0.304000 0.300000
v 1.386250 0.000000 0.300000
v 1.452500 -0.010387 0.000000
v 1.452500 -0.016387 -0.300000
v 1.452500 -0.016387 0.300000
v 1.414374 0.000000 -0.300000
v 1.452500 -0.304000 -0.300000
v 1.452500 -0.304000 0.300000
v 1.414374 0.000000 0.300000
v 1.518750 -0.044599 0.000000
v 1.518750 -0.049599 -0.300000
v 1.518750 -0.049599 0.300000
v 1.518750 -0.304000 -0.300000
v 1.518750 -0.304000 0.300000
v 1.585000 -0.085000 0.000000
v 1.585000 -0.089000 -0.300000
v 1.585000 -0.089000 0.300000
v 1.585000 -0.304000 -0.300000
v 1.585000 -0.304000 0.300000
v 1.651250 -0.132099 0.000000
v 1.651250 -0.135099 -0.300000
v 1.651250 -0.135099 0.300000
v 1.651250 -0.304000 -0.300000
v 1.651250 -0.304000 0.300000
v 1.717500 -0.185387 0.000000
v 1.717500 -0.187387 -0.300000
v 1.717500 -0.187387 0.300000
v 1.717500 -0.304000 -0.300000
v 1.717500 -0.304000 0.300000
v 1.783750 -0.243412 0.000000
v 1.783750 -0.244412 -0.300000
v 1.783750 -0.244412 0.300000
v 1.783750 -0.304000 -0.300000
v 1.783750 -0.304000 0.300000
v 1.800000 -0.258131 0.000000
v 1.800000 -0.258885 -0.300000
v 1.800000 -0.258885 0.300000
v 1.800000 -0.304000 -0.300000
v 1.800000 -0.304000 0.300000
v 1.850000 -0.304000 0.000000
v 1.850000 -0.304000 -0.300000
v 1.850000 -0.304000 0.300000
v -1.250000 -0.034578 -0.105000
v -1.220000 -0.034578 -0.105000
v -1.220000 -0.034578 0.105000
v -1.250000 -0.034578 0.105000
v -1.250000 0.065422 0.096000
v -1.220000 0.066547 0.096000
v -1.220000 0.074547 0.086000
v -1.250000 0.073422 0.086000
v -1.220000 0.074547 -0.086000
v -1.250000 0.073422 -0.086000
v -1.220000 0.066547 -0.096000
v -1.250000 0.065422 -0.096000
v -1.200000 -0.034578 -0.120000
v -1.200000 -0.034578 0.120000
v -1.200000 0.067297 0.111000
v -1.200000 0.075297 0.101000
v -1.200000 0.075297 -0.101000
v -1.200000 0.067297 -0.111000
v -0.930000 -0.034578 -0.120000
v -0.930000 -0.034578 0.120000
v -0.930000 0.077422 0.111000
v -0.930000 0.085422 0.101000
v -0.930000 0.085422 -0.101000
v -0.930000 0.077422 -0.111000
v -0.751500 -0.034578 -0.120000
v -0.751500 -0.034578 0.120000
v -0.751500 0.077422 0.111000
v -0.751500 0.085422 0.101000
v -0.751500 0.085422 -0.101000
v -0.751500 0.077422 -0.111000
v -0.600000 -0.034578 -0.120000
v -0.600000 -0.034578 0.120000
v -0.600000 0.077422 0.111000
v -0.600000 0.085422 0.101000
v -0.600000 0.085422 -0.101000
v -0.600000 0.077422 -0.111000
v -0.530000 -0.034578 -0.120000
v -0.530000 -0.034578 0.120000
v -0.530000 0.077422 0.111000
v -0.530000 0.085422 0.101000
v -0.530000 0.085422 -0.101000
v -0.530000 0.077422 -0.111000
v -0.400000 -0.034578 -0.120000
v -0.400000 -0.034578 0.120000
v -0.400000 0.072463 0.111000
v -0.400000 0.080463 0.101000
v -0.400000 0.080463 -0.101000
v -0.400000 0.072463 -0.111000
v -0.270000 -0.034578 -0.120000
v -0.270000 -0.034578 0.120000
v -0.270000 0.060387 0.111000
v -0.270000 0.068387 0.101000
v -0.270000 0.068387 -0.101000
v -0.270000 0.060387 -0.111000
v -0.130000 -0.034578 -0.120000
v -0.130000 -0.034578 0.120000
v -0.130000 0.047270 0.111000
v -0.130000 0.055270 0.101000
v -0.130000 0.055270 -0.101000
v -0.130000 0.047270 -0.111000
v 0.000000 -0.034578 -0.120000
v 0.000000 -0.034578 0.120000
v 0.000000 0.042311 0.111000
v 0.000000 0.050311 0.101000
v 0.000000 0.050311 -0.101000
v 0.000000 0.042311 -0.111000
v 0.130000 -0.034578 -0.120000
v 0.130000 -0.034578 0.120000
v 0.130000 0.047270 0.111000
v 0.130000 0.055270 0.101000
v 0.130000 0.055270 -0.101000
v 0.130000 0.047270 -0.111000
v 0.270000 -0.034578 -0.120000
v 0.270000 -0.034578 0.120000
v 0.270000 0.060387 0.111000
v 0.270000 0.068387 0.101000
v 0.270000 0.068387 -0.101000
v 0.270000 0.060387 -0.111000
v 0.400000 -0.034578 -0.120000
v 0.400000 -0.034578 0.120000
v 0.400000 0.072463 0.111000
v 0.400000 0.080463 0.101000
v 0.400000 0.080463 -0.101000
v 0.400000 0.072463 -0.111000
v 0.530000 -0.034578 -0.120000
v 0.530000 -0.034578 0.120000
v 0.530000 0.077422 0.111000
v 0.530000 0.085422 0.101000
v 0.530000 0.085422 -0.101000
v 0.530000 0.077422 -0.111000
v 0.600000 -0.034578 -0.120000
v 0.600000 -0.034578 0.120000
v 0.600000 0.077422 0.111000
v 0.600000 0.085422 0.101000
v 0.600000 0.085422 -0.101000
v 0.600000 0.077422 -0.111000
v 0.751500 -0.034578 -0.120000
v 0.751500 -0.034578 0.120000
v 0.751500 0.077422 0.111000
v 0.751500 0.085422 0.101000
v 0.751500 0.085422 -0.101000
v 0.751500 0.077422 -0.111000
v 0.930000 -0.034578 -0.120000
v 0.930000 -0.034578 0.120000
v 0.930000 0.077422 0.111000
v 0.930000 0.085422 0.101000
v 0.930000 0.085422 -0.101000
v 0.930000 0.077422 -0.111000
v 1.200000 -0.034578 -0.120000
v 1.200000 -0.034578 0.120000
v 1.200000 0.067297 0.111000
v 1.200000 0.075297 0.101000
v 1.200000 0.075297 -0.101000
v 1.200000 0.067297 -0.111000
v 1.220000 -0.034578 -0.105000
v 1.220000 -0.034578 0.105000
v 1.220000 0.066547 0.096000
v 1.220000 0.074547 0.086000
v 1.220000 0.074547 -0.086000
v 1.220000 0.066547 -0.096000
v 1.250000 -0.034578 -0.105000
v 1.250000 -0.034578 0.105000
v 1.250000 0.065422 0.096000
v 1.250000 0.073422 0.086000
v 1.250000 0.073422 -0.086000
v 1.250000 0.065422 -0.096000
v -0.827500 0.085422 -0.101000
v -0.821500 0.085422 -0.107000
v -0.681500 0.085422 -0.107000
v -0.675500 0.085422 -0.101000
v -0.675500 0.085422 0.101000
v -0.681500 0.085422 0.107000
v -0.821500 0.085422 0.107000
v -0.827500 0.085422 0.101000
v -0.821500 0.095422 -0.107000
v -0.681500 0.095422 -0.107000
v -0.675500 0.095422 -0.101000
v -0.675500 0.095422 0.101000
v -0.681500 0.095422 0.107000
v -0.821500 0.095422 0.107000
v -0.827500 0.095422 0.101000
v -0.827500 0.095422 -0.101000
v -0.820500 0.099422 -0.106000
v -0.826500 0.099422 -0.100000
v -0.826500 0.099422 0.100000
v -0.820500 0.099422 0.106000
v -0.682500 0.099422 0.106000
v -0.676500 0.099422 0.100000
v -0.676500 0.099422 -0.100000
v -0.682500 0.099422 -0.106000
v -0.682500 0.095422 -0.106000
v -0.820500 0.095422 -0.106000
v -0.676500 0.095422 -0.100000
v -0.676500 0.095422 0.100000
v -0.682500 0.095422 0.106000
v -0.820500 0.095422 0.106000
v -0.826500 0.095422 0.100000
v -0.826500 0.095422 -0.100000
v -0.946500 0.085422 -0.100000
v -0.943500 0.085422 -0.103000
v -0.823500 0.085422 -0.103000
v -0.820500 0.085422 -0.100000
v -0.820500 0.085422 0.100000
v -0.823500 0.085422 0.103000
v -0.943500 0.085422 0.103000
v -0.946500 0.085422 0.100000
v -0.943500 0.095422 -0.103000
v -0.946500 0.095422 -0.100000
v -0.946500 0.095422 0.100000
v -0.943500 0.095422 0.103000
v -0.823500 0.095422 0.103000
v -0.820500 0.095422 0.100000
v -0.820500 0.095422 -0.100000
v -0.823500 0.095422 -0.103000
v -0.950500 0.095422 -0.105000
v -0.948500 0.095422 -0.107000
v -0.936500 0.095422 -0.107000
v -0.934500 0.095422 -0.105000
v -0.934500 0.095422 0.105000
v -0.936500 0.095422 0.107000
v -0.948500 0.095422 0.107000
v -0.950500 0.095422 0.105000
v -0.948500 0.126422 -0.107000
v -0.950500 0.126422 -0.105000
v -0.950500 0.126422 0.105000
v -0.948500 0.126422 0.107000
v -0.936500 0.126422 0.107000
v -0.934500 0.126422 0.105000
v -0.934500 0.126422 -0.105000
v -0.936500 0.126422 -0.107000
v -0.793500 0.119400 -0.105000
v -0.793500 0.129000 -0.105000
v -0.819500 0.123500 -0.105000
v -0.827500 0.123500 -0.105000
v -0.901500 0.109500 -0.105000
v -0.939500 0.109500 -0.105000
v -0.939500 0.095422 -0.105000
v -0.833500 0.095422 -0.105000
v -0.821500 0.108000 -0.105000
v -0.793500 0.129000 0.105000
v -0.793500 0.119400 0.105000
v -0.821500 0.108000 0.105000
v -0.833500 0.095422 0.105000
v -0.939500 0.095422 0.105000
v -0.939500 0.109500 0.105000
v -0.901500 0.109500 0.105000
v -0.827500 0.123500 0.105000
v -0.819500 0.123500 0.105000
v -0.879500 0.095422 -0.008660
v -0.874500 0.095422 0.000000
v -0.879500 0.095422 0.008660
v -0.889500 0.095422 0.008660
v -0.894500 0.095422 0.000000
v -0.889500 0.095422 -0.008660
v -0.874500 0.192000 0.000000
v -0.879500 0.192000 -0.008660
v -0.889500 0.192000 -0.008660
v -0.894500 0.192000 0.000000
v -0.889500 0.192000 0.008660
v -0.879500 0.192000 0.008660
v -0.863287 0.162000 -0.021213
v -0.854500 0.162000 0.000000
v -0.863287 0.162000 0.021213
v -0.884500 0.162000 0.030000
v -0.905713 0.162000 0.021213
v -0.914500 0.162000 0.000000
v -0.905713 0.162000 -0.021213
v -0.884500 0.162000 -0.030000
v -0.854500 0.168000 0.000000
v -0.863287 0.168000 -0.021213
v -0.884500 0.168000 -0.030000
v -0.905713 0.168000 -0.021213
v -0.914500 0.168000 0.000000
v -0.905713 0.168000 0.021213
v -0.884500 0.168000 0.030000
v -0.863287 0.168000 0.021213
v -0.874500 0.168000 -0.017321
v -0.864500 0.168000 0.000000
v -0.874500 0.168000 0.017321
v -0.894500 0.168000 0.017321
v -0.904500 0.168000 0.000000
v -0.894500 0.168000 -0.017321
v -0.864500 0.186000 0.000000
v -0.874500 0.186000 -0.017321
v -0.894500 0.186000 -0.017321
v -0.904500 0.186000 0.000000
v -0.894500 0.186000 0.017321
v -0.874500 0.186000 0.017321
v -0.875500 0.186000 -0.015588
v -0.866500 0.186000 0.000000
v -0.875500 0.186000 0.015588
v -0.893500 0.186000 0.015588
v -0.902500 0.186000 0.000000
v -0.893500 0.186000 -0.015588
v -0.866500 0.189000 0.000000
v -0.875500 0.189000 -0.015588
v -0.893500 0.189000 -0.015588
v -0.902500 0.189000 0.000000
v -0.893500 0.189000 0.015588
v -0.875500 0.189000 0.015588
v -0.682500 0.085422 -0.100000
v -0.679500 0.085422 -0.103000
v -0.559500 0.085422 -0.103000
v -0.556500 0.085422 -0.100000
v -0.556500 0.085422 0.100000
v -0.559500 0.085422 0.103000
v -0.679500 0.085422 0.103000
v -0.682500 0.085422 0.100000
v -0.679500 0.095422 -0.103000
v -0.682500 0.095422 -0.100000
v -0.682500 0.095422 0.100000
v -0.679500 0.095422 0.103000
v -0.559500 0.095422 0.103000
v -0.556500 0.095422 0.100000
v -0.556500 0.095422 -0.100000
v -0.559500 0.095422 -0.103000
v -0.568500 0.095422 -0.105000
v -0.566500 0.095422 -0.107000
v -0.554500 0.095422 -0.107000
v -0.552500 0.095422 -0.105000
v -0.552500 0.095422 0.105000
v -0.554500 0.095422 0.107000
v -0.566500 0.095422 0.107000
v -0.568500 0.095422 0.105000
v -0.566500 0.126422 -0.107000
v -0.568500 0.126422 -0.105000
v -0.568500 0.126422 0.105000
v -0.566500 0.126422 0.107000
v -0.554500 0.126422 0.107000
v -0.552500 0.126422 0.105000
v -0.552500 0.126422 -0.105000
v -0.554500 0.126422 -0.107000
v -0.709500 0.129000 -0.105000
v -0.709500 0.119400 -0.105000
v -0.681500 0.108000 -0.105000
v -0.669500 0.095422 -0.105000
v -0.563500 0.095422 -0.105000
v -0.563500 0.109500 -0.105000
v -0.601500 0.109500 -0.105000
v -0.675500 0.123500 -0.105000
v -0.683500 0.123500 -0.105000
v -0.709500 0.119400 0.105000
v -0.709500 0.129000 0.105000
v -0.683500 0.123500 0.105000
v -0.675500 0.123500 0.105000
v -0.601500 0.109500 0.105000
v -0.563500 0.109500 0.105000
v -0.563500 0.095422 0.105000
v -0.669500 0.095422 0.105000
v -0.681500 0.108000 0.105000
v -0.613500 0.095422 -0.008660
v -0.608500 0.095422 0.000000
v -0.613500 0.095422 0.008660
v -0.623500 0.095422 0.008660
v -0.628500 0.095422 0.000000
v -0.623500 0.095422 -0.008660
v -0.608500 0.192000 0.000000
v -0.613500 0.192000 -0.008660
v -0.623500 0.192000 -0.008660
v -0.628500 0.192000 0.000000
v -0.623500 0.192000 0.008660
v -0.613500 0.192000 0.008660
v -0.597287 0.162000 -0.021213
v -0.588500 0.162000 0.000000
v -0.597287 0.162000 0.021213
v -0.618500 0.162000 0.030000
v -0.639713 0.162000 0.021213
v -0.648500 0.162000 0.000000
v -0.639713 0.162000 -0.021213
v -0.618500 0.162000 -0.030000
v -0.588500 0.168000 0.000000
v -0.597287 0.168000 -0.021213
v -0.618500 0.168000 -0.030000
v -0.639713 0.168000 -0.021213
v -0.648500 0.168000 0.000000
v -0.639713 0.168000 0.021213
v -0.618500 0.168000 0.030000
v -0.597287 0.168000 0.021213
v -0.608500 0.168000 -0.017321
v -0.598500 0.168000 0.000000
v -0.608500 0.168000 0.017321
v -0.628500 0.168000 0.017321
v -0.638500 0.168000 0.000000
v -0.628500 0.168000 -0.017321
v -0.598500 0.186000 0.000000
v -0.608500 0.186000 -0.017321
v -0.628500 0.186000 -0.017321
v -0.638500 0.186000 0.000000
v -0.628500 0.186000 0.017321
v -0.608500 0.186000 0.017321
v -0.609500 0.186000 -0.015588
v -0.600500 0.186000 0.000000
v -0.609500 0.186000 0.015588
v -0.627500 0.186000 0.015588
v -0.636500 0.186000 0.000000
v -0.627500 0.186000 -0.015588
v -0.600500 0.189000 0.000000
v -0.609500 0.189000 -0.015588
v -0.627500 0.189000 -0.015588
v -0.636500 0.189000 0.000000
v -0.627500 0.189000 0.015588
v -0.609500 0.189000 0.015588
v -0.681500 0.099422 -0.300000
v -0.681500 0.108000 -0.300000
v -0.681500 0.108000 0.300000
v -0.681500 0.099422 0.300000
v -0.687500 0.113000 -0.300000
v -0.687500 0.113000 0.300000
v -0.725500 0.124000 -0.300000
v -0.725500 0.124000 0.300000
v -0.739500 0.134000 -0.300000
v -0.739500 0.134000 0.300000
v -0.742500 0.145000 -0.300000
v -0.742500 0.145000 0.300000
v -0.742500 0.207000 -0.300000
v -0.742500 0.207000 0.300000
v -0.738500 0.219000 -0.300000
v -0.738500 0.219000 0.300000
v -0.724500 0.225000 -0.300000
v -0.724500 0.225000 0.300000
v -0.718500 0.231000 -0.300000
v -0.718500 0.231000 0.300000
v -0.717500 0.239000 -0.300000
v -0.717500 0.239000 0.300000
v -0.717500 0.254000 -0.300000
v -0.717500 0.254000 0.300000
v -0.719500 0.260000 -0.300000
v -0.719500 0.260000 0.300000
v -0.725500 0.264280 -0.300000
v -0.725500 0.264280 0.300000
v -0.777500 0.264280 -0.300000
v -0.777500 0.264280 0.300000
v -0.783500 0.260000 -0.300000
v -0.783500 0.260000 0.300000
v -0.785500 0.254000 -0.300000
v -0.785500 0.254000 0.300000
v -0.785500 0.239000 -0.300000
v -0.785500 0.239000 0.300000
v -0.784500 0.231000 -0.300000
v -0.784500 0.231000 0.300000
v -0.778500 0.225000 -0.300000
v -0.778500 0.225000 0.300000
v -0.764500 0.219000 -0.300000
v -0.764500 0.219000 0.300000
v -0.760500 0.207000 -0.300000
v -0.760500 0.207000 0.300000
v -0.760500 0.145000 -0.300000
v -0.760500 0.145000 0.300000
v -0.763500 0.134000 -0.300000
v -0.763500 0.134000 0.300000
v -0.777500 0.124000 -0.300000
v -0.777500 0.124000 0.300000
v -0.815500 0.113000 -0.300000
v -0.815500 0.113000 0.300000
v -0.821500 0.108000 -0.300000
v -0.821500 0.108000 0.300000
v -0.821500 0.099422 -0.300000
v -0.821500 0.099422 0.300000
v 0.675500 0.085422 -0.101000
v 0.681500 0.085422 -0.107000
v 0.821500 0.085422 -0.107000
v 0.827500 0.085422 -0.101000
v 0.827500 0.085422 0.101000
v 0.821500 0.085422 0.107000
v 0.681500 0.085422 0.107000
v 0.675500 0.085422 0.101000
v 0.681500 0.095422 -0.107000
v 0.821500 0.095422 -0.107000
v 0.827500 0.095422 -0.101000
v 0.827500 0.095422 0.101000
v 0.821500 0.095422 0.107000
v 0.681500 0.095422 0.107000
v 0.675500 0.095422 0.101000
v 0.675500 0.095422 -0.101000
v 0.682500 0.099422 -0.106000
v 0.676500 0.099422 -0.100000
v 0.676500 0.099422 0.100000
v 0.682500 0.099422 0.106000
v 0.820500 0.099422 0.106000
v 0.826500 0.099422 0.100000
v 0.826500 0.099422 -0.100000
v 0.820500 0.099422 -0.106000
v 0.820500 0.095422 -0.106000
v 0.682500 0.095422 -0.106000
v 0.826500 0.095422 -0.100000
v 0.826500 0.095422 0.100000
v 0.820500 0.095422 0.106000
v 0.682500 0.095422 0.106000
v 0.676500 0.095422 0.100000
v 0.676500 0.095422 -0.100000
v 0.556500 0.085422 -0.100000
v 0.559500 0.085422 -0.103000
v 0.679500 0.085422 -0.103000
v 0.682500 0.085422 -0.100000
v 0.682500 0.085422 0.100000
v 0.679500 0.085422 0.103000
v 0.559500 0.085422 0.103000
v 0.556500 0.085422 0.100000
v 0.559500 0.095422 -0.103000
v 0.556500 0.095422 -0.100000
v 0.556500 0.095422 0.100000
v 0.559500 0.095422 0.103000
v 0.679500 0.095422 0.103000
v 0.682500 0.095422 0.100000
v 0.682500 0.095422 -0.100000
v 0.679500 0.095422 -0.103000
v 0.552500 0.095422 -0.105000
v 0.554500 0.095422 -0.107000
v 0.566500 0.095422 -0.107000
v 0.568500 0.095422 -0.105000
v 0.568500 0.095422 0.105000
v 0.566500 0.095422 0.107000
v 0.554500 0.095422 0.107000
v 0.552500 0.095422 0.105000
v 0.554500 0.126422 -0.107000
v 0.552500 0.126422 -0.105000
v 0.552500 0.126422 0.105000
v 0.554500 0.126422 0.107000
v 0.566500 0.126422 0.107000
v 0.568500 0.126422 0.105000
v 0.568500 0.126422 -0.105000
v 0.566500 0.126422 -0.107000
v 0.709500 0.119400 -0.105000
v 0.709500 0.129000 -0.105000
v 0.683500 0.123500 -0.105000
v 0.675500 0.123500 -0.105000
v 0.601500 0.109500 -0.105000
v 0.563500 0.109500 -0.105000
v 0.563500 0.095422 -0.105000
v 0.669500 0.095422 -0.105000
v 0.681500 0.108000 -0.105000
v 0.709500 0.129000 0.105000
v 0.709500 0.119400 0.105000
v 0.681500 0.108000 0.105000
v 0.669500 0.095422 0.105000
v 0.563500 0.095422 0.105000
v 0.563500 0.109500 0.105000
v 0.601500 0.109500 0.105000
v 0.675500 0.123500 0.105000
v 0.683500 0.123500 0.105000
v 0.623500 0.095422 -0.008660
v 0.628500 0.095422 0.000000
v 0.623500 0.095422 0.008660
v 0.613500 0.095422 0.008660
v 0.608500 0.095422 0.000000
v 0.613500 0.095422 -0.008660
v 0.628500 0.192000 0.000000
v 0.623500 0.192000 -0.008660
v 0.613500 0.192000 -0.008660
v 0.608500 0.192000 0.000000
v 0.613500 0.192000 0.008660
v 0.623500 0.192000 0.008660
v 0.639713 0.162000 -0.021213
v 0.648500 0.162000 0.000000
v 0.639713 0.162000 0.021213
v 0.618500 0.162000 0.030000
v 0.597287 0.162000 0.021213
v 0.588500 0.162000 0.000000
v 0.597287 0.162000 -0.021213
v 0.618500 0.162000 -0.030000
v 0.648500 0.168000 0.000000
v 0.639713 0.168000 -0.021213
v 0.618500 0.168000 -0.030000
v 0.597287 0.168000 -0.021213
v 0.588500 0.168000 0.000000
v 0.597287 0.168000 0.021213
v 0.618500 0.168000 0.030000
v 0.639713 0.168000 0.021213
v 0.628500 0.168000 -0.017321
v 0.638500 0.168000 0.000000
v 0.628500 0.168000 0.017321
v 0.608500 0.168000 0.017321
v 0.598500 0.168000 0.000000
v 0.608500 0.168000 -0.017321
v 0.638500 0.186000 0.000000
v 0.628500 0.186000 -0.017321
v 0.608500 0.186000 -0.017321
v 0.598500 0.186000 0.000000
v 0.608500 0.186000 0.017321
v 0.628500 0.186000 0.017321
v 0.627500 0.186000 -0.015588
v 0.636500 0.186000 0.000000
v 0.627500 0.186000 0.015588
v 0.609500 0.186000 0.015588
v 0.600500 0.186000 0.000000
v 0.609500 0.186000 -0.015588
v 0.636500 0.189000 0.000000
v 0.627500 0.189000 -0.015588
v 0.609500 0.189000 -0.015588
v 0.600500 0.189000 0.000000
v 0.609500 0.189000 0.015588
v 0.627500 0.189000 0.015588
v 0.820500 0.085422 -0.100000
v 0.823500 0.085422 -0.103000
v 0.943500 0.085422 -0.103000
v 0.946500 0.085422 -0.100000
v 0.946500 0.085422 0.100000
v 0.943500 0.085422 0.103000
v 0.823500 0.085422 0.103000
v 0.820500 0.085422 0.100000
v 0.823500 0.095422 -0.103000
v 0.820500 0.095422 -0.100000
v 0.820500 0.095422 0.100000
v 0.823500 0.095422 0.103000
v 0.943500 0.095422 0.103000
v 0.946500 0.095422 0.100000
v 0.946500 0.095422 -0.100000
v 0.943500 0.095422 -0.103000
v 0.934500 0.095422 -0.105000
v 0.936500 0.095422 -0.107000
v 0.948500 0.095422 -0.107000
v 0.950500 0.095422 -0.105000
v 0.950500 0.095422 0.105000
v 0.948500 0.095422 0.107000
v 0.936500 0.095422 0.107000
v 0.934500 0.095422 0.105000
v 0.936500 0.126422 -0.107000
v 0.934500 0.126422 -0.105000
v 0.934500 0.126422 0.105000
v 0.936500 0.126422 0.107000
v 0.948500 0.126422 0.107000
v 0.950500 0.126422 0.105000
v 0.950500 0.126422 -0.105000
v 0.948500 0.126422 -0.107000
v 0.793500 0.129000 -0.105000
v 0.793500 0.119400 -0.105000
v 0.821500 0.108000 -0.105000
v 0.833500 0.095422 -0.105000
v 0.939500 0.095422 -0.105000
v 0.939500 0.109500 -0.105000
v 0.901500 0.109500 -0.105000
v 0.827500 0.123500 -0.105000
v 0.819500 0.123500 -0.105000
v 0.793500 0.119400 0.105000
v 0.793500 0.129000 0.105000
v 0.819500 0.123500 0.105000
v 0.827500 0.123500 0.105000
v 0.901500 0.109500 0.105000
v 0.939500 0.109500 0.105000
v 0.939500 0.095422 0.105000
v 0.833500 0.095422 0.105000
v 0.821500 0.108000 0.105000
v 0.889500 0.095422 -0.008660
v 0.894500 0.095422 0.000000
v 0.889500 0.095422 0.008660
v 0.879500 0.095422 0.008660
v 0.874500 0.095422 0.000000
v 0.879500 0.095422 -0.008660
v 0.894500 0.192000 0.000000
v 0.889500 0.192000 -0.008660
v 0.879500 0.192000 -0.008660
v 0.874500 0.192000 0.000000
v 0.879500 0.192000 0.008660
v 0.889500 0.192000 0.008660
v 0.905713 0.162000 -0.021213
v 0.914500 0.162000 0.000000
v 0.905713 0.162000 0.021213
v 0.884500 0.162000 0.030000
v 0.863287 0.162000 0.021213
v 0.854500 0.162000 0.000000
v 0.863287 0.162000 -0.021213
v 0.884500 0.162000 -0.030000
v 0.914500 0.168000 0.000000
v 0.905713 0.168000 -0.021213
v 0.884500 0.168000 -0.030000
v 0.863287 0.168000 -0.021213
v 0.854500 0.168000 0.000000
v 0.863287 0.168000 0.021213
v 0.884500 0.168000 0.030000
v 0.905713 0.168000 0.021213
v 0.894500 0.168000 -0.017321
v 0.904500 0.168000 0.000000
v 0.894500 0.168000 0.017321
v 0.874500 0.168000 0.017321
v 0.864500 0.168000 0.000000
v 0.874500 0.168000 -0.017321
v 0.904500 0.186000 0.000000
v 0.894500 0.186000 -0.017321
v 0.874500 0.186000 -0.017321
v 0.864500 0.186000 0.000000
v 0.874500 0.186000 0.017321
v 0.894500 0.186000 0.017321
v 0.893500 0.186000 -0.015588
v 0.902500 0.186000 0.000000
v 0.893500 0.186000 0.015588
v 0.875500 0.186000 0.015588
v 0.866500 0.186000 0.000000
v 0.875500 0.186000 -0.015588
v 0.902500 0.189000 0.000000
v 0.893500 0.189000 -0.015588
v 0.875500 0.189000 -0.015588
v 0.866500 0.189000 0.000000
v 0.875500 0.189000 0.015588
v 0.893500 0.189000 0.015588
v 0.821500 0.099422 -0.300000
v 0.821500 0.108000 -0.300000
v 0.821500 0.108000 0.300000
v 0.821500 0.099422 0.300000
v 0.815500 0.113000 -0.300000
v 0.815500 0.113000 0.300000
v 0.777500 0.124000 -0.300000
v 0.777500 0.124000 0.300000
v 0.763500 0.134000 -0.300000
v 0.763500 0.134000 0.300000
v 0.760500 0.145000 -0.300000
v 0.760500 0.145000 0.300000
v 0.760500 0.207000 -0.300000
v 0.760500 0.207000 0.300000
v 0.764500 0.219000 -0.300000
v 0.764500 0.219000 0.300000
v 0.778500 0.225000 -0.300000
v 0.778500 0.225000 0.300000
v 0.784500 0.231000 -0.300000
v 0.784500 0.231000 0.300000
v 0.785500 0.239000 -0.300000
v 0.785500 0.239000 0.300000
v 0.785500 0.254000 -0.300000
v 0.785500 0.254000 0.300000
v 0.783500 0.260000 -0.300000
v 0.783500 0.260000 0.300000
v 0.777500 0.264280 -0.300000
v 0.777500 0.264280 0.300000
v 0.725500 0.264280 -0.300000
v 0.725500 0.264280 0.300000
v 0.719500 0.260000 -0.300000
v 0.719500 0.260000 0.300000
v 0.717500 0.254000 -0.300000
v 0.717500 0.254000 0.300000
v 0.717500 0.239000 -0.300000
v 0.717500 0.239000 0.300000
v 0.718500 0.231000 -0.300000
v 0.718500 0.231000 0.300000
v 0.724500 0.225000 -0.300000
v 0.724500 0.225000 0.300000
v 0.738500 0.219000 -0.300000
v 0.738500 0.219000 0.300000
v 0.742500 0.207000 -0.300000
v 0.742500 0.207000 0.300000
v 0.742500 0.145000 -0.300000
v 0.742500 0.145000 0.300000
v 0.739500 0.134000 -0.300000
v 0.739500 0.134000 0.300000
v 0.725500 0.124000 -0.300000
v 0.725500 0.124000 0.300000
v 0.687500 0.113000 -0.300000
v 0.687500 0.113000 0.300000
v 0.681500 0.108000 -0.300000
v 0.681500 0.108000 0.300000
v 0.681500 0.099422 -0.300000
v 0.681500 0.099422 0.300000
vt 0.96281250 0.01585821
vt 0.96281250 0.25373134
vt 0.98937500 0.25373134
vt 0.98937500 0.01585821
vt 0.96281250 0.49160448
vt 0.98937500 0.49160448
vt 0.96281250 0.25055970
vt 0.98937500 0.28633158
vt 0.98937500 0.25055970
vt 0.67062500 0.01585821
vt 0.67062500 0.49160448
vt 0.67062500 0.25373134
vt 0.67925781 0.25373134
vt 0.67925781 0.01585821
vt 0.67925781 0.49160448
vt 0.67062500 0.28633158
vt 0.67925781 0.29780771
vt 0.67925781 0.25055970
vt 0.67062500 0.25055970
vt 0.71445312 0.25373134
vt 0.71445312 0.01585821
vt 0.71445312 0.49160448
vt 0.71445312 0.34302313
vt 0.71445312 0.25055970
vt 0.74964844 0.25373134
vt 0.74964844 0.01585821
vt 0.74964844 0.49160448
vt 0.74964844 0.38448283
vt 0.74964844 0.25055970
vt 0.78484375 0.25373134
vt 0.78484375 0.01585821
vt 0.78484375 0.49160448
vt 0.78484375 0.42103545
vt 0.78484375 0.25055970
vt 0.82003906 0.25373134
vt 0.82003906 0.01585821
vt 0.82003906 0.49160448
vt 0.82003906 0.45227667
vt 0.82003906 0.25055970
vt 0.85523437 0.25373134
vt 0.85523437 0.01585821
vt 0.85523437 0.49160448
vt 0.85523437 0.47861081
vt 0.85523437 0.25055970
vt 0.89042969 0.25373134
vt 0.89042969 0.01585821
vt 0.89042969 0.49160448
vt 0.87548894 0.49160448
vt 0.89042969 0.25055970
vt 0.87548894 0.01585821
vt 0.89042969 0.02544297
vt 0.92562500 0.25373134
vt 0.92562500 0.01585821
vt 0.92562500 0.49160448
vt 0.92562500 0.25055970
vt 0.92562500 0.04598881
vt 0.98937500 0.03647388
vt 0.67062500 0.03647388
vt 0.73437500 0.25373134
vt 0.73437500 0.01585821
vt 0.73437500 0.49160448
vt 0.73437500 0.25055970
vt 0.73437500 0.04598881
vt 0.76957031 0.25373134
vt 0.76957031 0.01585821
vt 0.76957031 0.49160448
vt 0.76957031 0.25055970
vt 0.76957031 0.02544297
vt 0.80476563 0.25373134
vt 0.80476563 0.01585821
vt 0.80476563 0.49160448
vt 0.78451106 0.49160448
vt 0.80476563 0.47861081
vt 0.80476563 0.25055970
vt 0.78451106 0.01585821
vt 0.83996094 0.25373134
vt 0.83996094 0.01585821
vt 0.83996094 0.49160448
vt 0.83996094 0.45227667
vt 0.83996094 0.25055970
vt 0.87515625 0.25373134
vt 0.87515625 0.01585821
vt 0.87515625 0.49160448
vt 0.87515625 0.42103545
vt 0.87515625 0.25055970
vt 0.91035156 0.25373134
vt 0.91035156 0.01585821
vt 0.91035156 0.49160448
vt 0.91035156 0.38448283
vt 0.91035156 0.25055970
vt 0.94554688 0.25373134
vt 0.94554688 0.01585821
vt 0.94554688 0.49160448
vt 0.94554688 0.34302313
vt 0.94554688 0.25055970
vt 0.98074219 0.25373134
vt 0.98074219 0.01585821
vt 0.98074219 0.49160448
vt 0.98074219 0.29780771
vt 0.98074219 0.25055970
vt 0.69718750 0.25373134
vt 0.69718750 0.01585821
vt 0.69718750 0.49160448
vt 0.69718750 0.25055970
vt 0.30281250 0.17047575
vt 0.31875000 0.17047575
vt 0.31875000 0.33698694
vt 0.30281250 0.33698694
vt 0.30281250 0.09514925
vt 0.30281250 0.01585821
vt 0.31875000 0.01585821
vt 0.31875000 0.09604128
vt 0.30281250 0.32985075
vt 0.31875000 0.32985075
vt 0.31875000 0.32192164
vt 0.30281250 0.32192164
vt 0.31875000 0.18554104
vt 0.30281250 0.18554104
vt 0.31875000 0.17761194
vt 0.30281250 0.17761194
vt 0.32937500 0.15858209
vt 0.32937500 0.34888060
vt 0.32937500 0.01585821
vt 0.32937500 0.09663596
vt 0.32937500 0.34174440
vt 0.32937500 0.33381530
vt 0.32937500 0.17364739
vt 0.32937500 0.16571828
vt 0.01062500 0.15858209
vt 0.15406250 0.15858209
vt 0.15406250 0.34888060
vt 0.01062500 0.34888060
vt 0.01062500 0.09663596
vt 0.01062500 0.01585821
vt 0.15406250 0.01585821
vt 0.15406250 0.10466418
vt 0.01062500 0.34174440
vt 0.15406250 0.34174440
vt 0.15406250 0.33381530
vt 0.01062500 0.33381530
vt 0.15406250 0.17364739
vt 0.01062500 0.17364739
vt 0.15406250 0.16571828
vt 0.01062500 0.16571828
vt 0.24889063 0.15858209
vt 0.24889063 0.34888060
vt 0.24889063 0.01585821
vt 0.24889063 0.10466418
vt 0.24889063 0.34174440
vt 0.24889063 0.33381530
vt 0.24889063 0.17364739
vt 0.24889063 0.16571828
vt 0.32937500 0.10466418
vt 0.04781250 0.15858209
vt 0.04781250 0.34888060
vt 0.04781250 0.01585821
vt 0.04781250 0.10466418
vt 0.01062500 0.10466418
vt 0.04781250 0.34174440
vt 0.04781250 0.33381530
vt 0.04781250 0.17364739
vt 0.04781250 0.16571828
vt 0.11687500 0.15858209
vt 0.11687500 0.34888060
vt 0.11687500 0.01585821
vt 0.11687500 0.10073190
vt 0.11687500 0.34174440
vt 0.11687500 0.33381530
vt 0.11687500 0.17364739
vt 0.11687500 0.16571828
vt 0.18593750 0.15858209
vt 0.18593750 0.34888060
vt 0.18593750 0.01585821
vt 0.18593750 0.09115673
vt 0.18593750 0.34174440
vt 0.18593750 0.33381530
vt 0.18593750 0.17364739
vt 0.18593750 0.16571828
vt 0.26031250 0.15858209
vt 0.26031250 0.34888060
vt 0.26031250 0.01585821
vt 0.26031250 0.08075658
vt 0.26031250 0.34174440
vt 0.26031250 0.33381530
vt 0.26031250 0.17364739
vt 0.26031250 0.16571828
vt 0.32937500 0.07682430
vt 0.07968750 0.15858209
vt 0.07968750 0.34888060
vt 0.01062500 0.07682430
vt 0.07968750 0.01585821
vt 0.07968750 0.08075658
vt 0.07968750 0.34174440
vt 0.07968750 0.33381530
vt 0.07968750 0.17364739
vt 0.07968750 0.16571828
vt 0.15406250 0.09115673
vt 0.22312500 0.15858209
vt 0.22312500 0.34888060
vt 0.22312500 0.01585821
vt 0.22312500 0.10073190
vt 0.22312500 0.34174440
vt 0.22312500 0.33381530
vt 0.22312500 0.17364739
vt 0.22312500 0.16571828
vt 0.29218750 0.15858209
vt 0.29218750 0.34888060
vt 0.29218750 0.01585821
vt 0.29218750 0.10466418
vt 0.29218750 0.34174440
vt 0.29218750 0.33381530
vt 0.29218750 0.17364739
vt 0.29218750 0.16571828
vt 0.09110937 0.15858209
vt 0.09110937 0.34888060
vt 0.09110937 0.01585821
vt 0.09110937 0.10466418
vt 0.09110937 0.34174440
vt 0.09110937 0.33381530
vt 0.09110937 0.17364739
vt 0.09110937 0.16571828
vt 0.18593750 0.10466418
vt 0.02125000 0.17047575
vt 0.02125000 0.33698694
vt 0.02125000 0.01585821
vt 0.02125000 0.09604128
vt 0.02125000 0.32985075
vt 0.02125000 0.32192164
vt 0.02125000 0.18554104
vt 0.02125000 0.17761194
vt 0.03718750 0.17047575
vt 0.03718750 0.33698694
vt 0.03718750 0.01585821
vt 0.03718750 0.09514925
vt 0.03718750 0.32985075
vt 0.03718750 0.32192164
vt 0.03718750 0.18554104
vt 0.03718750 0.17761194
vt 0.04250000 0.41231343
vt 0.03054688 0.01585821
vt 0.30945312 0.01585821
vt 0.29750000 0.41231343
vt 0.28421875 0.44402985
vt 0.05578125 0.44402985
vt 0.60837500 0.03017506
vt 0.61013651 0.02537313
vt 0.65123849 0.02537313
vt 0.65300000 0.03017506
vt 0.65300000 0.19183987
vt 0.65123849 0.19664179
vt 0.61013651 0.19664179
vt 0.60837500 0.19183987
vt 0.60837500 0.19664179
vt 0.65300000 0.19664179
vt 0.65300000 0.02537313
vt 0.60837500 0.02537313
vt 0.61016000 0.31082090
vt 0.60837500 0.31566812
vt 0.60837500 0.47724233
vt 0.61016000 0.48208955
vt 0.65121500 0.48208955
vt 0.65300000 0.47724233
vt 0.65300000 0.31566812
vt 0.65121500 0.31082090
vt 0.60837500 0.48208955
vt 0.65300000 0.48208955
vt 0.65300000 0.31082090
vt 0.60837500 0.31082090
vt 0.34062500 0.02278655
vt 0.34631696 0.01585821
vt 0.57399554 0.01585821
vt 0.57968750 0.02278655
vt 0.57968750 0.48467613
vt 0.57399554 0.49160448
vt 0.34631696 0.49160448
vt 0.34062500 0.48467613
vt 0.34062500 0.49160448
vt 0.57968750 0.49160448
vt 0.57968750 0.01585821
vt 0.34062500 0.01585821
vt 0.60837500 0.02697378
vt 0.61395312 0.02537313
vt 0.64742188 0.02537313
vt 0.65300000 0.02697378
vt 0.65300000 0.19504115
vt 0.64742188 0.19664179
vt 0.61395312 0.19664179
vt 0.60837500 0.19504115
vt 0.34062500 0.35558791
vt 0.38319777 0.41367832
vt 0.39629709 0.41367832
vt 0.51746575 0.21532083
vt 0.57968750 0.21532083
vt 0.40612158 0.01585821
vt 0.38647260 0.19406824
vt 0.51992188 0.04772717
vt 0.57968750 0.25373134
vt 0.51992188 0.45973552
vt 0.40039062 0.45973552
vt 0.34062500 0.25373134
vt 0.40039062 0.04772717
vt 0.38046875 0.49160448
vt 0.38046875 0.01585821
vt 0.42031250 0.49160448
vt 0.42031250 0.01585821
vt 0.46015625 0.49160448
vt 0.46015625 0.01585821
vt 0.50000000 0.49160448
vt 0.50000000 0.01585821
vt 0.53984375 0.49160448
vt 0.53984375 0.01585821
vt 0.54467761 0.08552964
vt 0.54467761 0.42193305
vt 0.37563489 0.42193305
vt 0.37563489 0.08552964
vt 0.37050781 0.49160448
vt 0.37050781 0.01585821
vt 0.40039062 0.49160448
vt 0.40039062 0.01585821
vt 0.43027344 0.49160448
vt 0.43027344 0.01585821
vt 0.49003906 0.49160448
vt 0.49003906 0.01585821
vt 0.51992187 0.49160448
vt 0.51992187 0.01585821
vt 0.54980469 0.49160448
vt 0.54980469 0.01585821
vt 0.01062500 0.50839552
vt 0.01062500 0.53314987
vt 0.32937500 0.53314987
vt 0.32937500 0.50839552
vt 0.01062500 0.54757884
vt 0.32937500 0.54757884
vt 0.01062500 0.57932257
vt 0.32937500 0.57932257
vt 0.01062500 0.60818052
vt 0.32937500 0.60818052
vt 0.01062500 0.63992425
vt 0.32937500 0.63992425
vt 0.01062500 0.81884350
vt 0.32937500 0.81884350
vt 0.01062500 0.85347303
vt 0.32937500 0.85347303
vt 0.01062500 0.87078779
vt 0.32937500 0.87078779
vt 0.01062500 0.88810256
vt 0.32937500 0.88810256
vt 0.01062500 0.91118891
vt 0.32937500 0.91118891
vt 0.01062500 0.95447583
vt 0.32937500 0.95447583
vt 0.01062500 0.97179059
vt 0.32937500 0.97179059
vt 0.34062500 0.97014925
vt 0.34062500 0.92817164
vt 0.65937500 0.92817164
vt 0.65937500 0.97014925
vt 0.34062500 0.56436567
vt 0.65937500 0.56436567
vt 0.34062500 0.52238806
vt 0.65937500 0.52238806
vt 0.01062500 0.57500000
vt 0.32937500 0.57500000
vt 0.98937500 0.50839552
vt 0.67062500 0.50839552
vt 0.67062500 0.53314987
vt 0.68428571 0.54757884
vt 0.77080357 0.57932257
vt 0.80267857 0.60818052
vt 0.80040179 0.85347303
vt 0.76852679 0.87078779
vt 0.75486607 0.88810256
vt 0.75258929 0.91118891
vt 0.75258929 0.95447583
vt 0.75714286 0.97179059
vt 0.77080357 0.98414179
vt 0.80950893 0.81884350
vt 0.88919643 0.98414179
vt 0.90285714 0.97179059
vt 0.90741071 0.95447583
vt 0.90741071 0.91118891
vt 0.90513393 0.88810256
vt 0.89147321 0.87078779
vt 0.85959821 0.85347303
vt 0.85049107 0.81884350
vt 0.80950893 0.63992425
vt 0.85049107 0.63992425
vt 0.85732143 0.60818052
vt 0.88919643 0.57932257
vt 0.97571429 0.54757884
vt 0.98937500 0.53314987
vn -0.67601314 0.73688957 0.00000000
vn -0.66990359 0.74244575 -0.00186779
vn -0.66990476 0.74244705 0.00000000
vn -0.67601198 0.73688830 0.00185381
vn 0.00000000 0.00000000 -1.00000000
vn 0.00000000 -0.00000000 1.00000000
vn 0.00000000 -1.00000000 0.00000000
vn -0.67132147 0.74116396 -0.00186456
vn -0.66510533 0.74674541 -0.00248915
vn -0.66510621 0.74674641 0.00187861
vn -0.67132058 0.74116299 0.00247054
vn -0.65886181 0.75225981 -0.00250753
vn -0.65235724 0.75789478 -0.00505263
vn -0.65236349 0.75790204 0.00252634
vn -0.65885560 0.75225272 0.00501502
vn -0.62674989 0.77920318 -0.00519469
vn -0.61951841 0.78494288 -0.00784943
vn -0.61952901 0.78495632 0.00523304
vn -0.62673932 0.77919004 0.00779190
vn -0.57940804 0.81499687 -0.00814997
vn -0.57113334 0.82078434 -0.01094379
vn -0.57114831 0.82080585 0.00820806
vn -0.57939307 0.81497582 0.01086634
vn -0.52061463 0.85371590 -0.01138288
vn -0.51110737 0.85939752 -0.01432329
vn -0.51112625 0.85942926 0.01145906
vn -0.52059566 0.85368479 0.01422808
vn -0.45878801 0.88842238 -0.01480704
vn -0.44808089 0.89381427 -0.01787629
vn -0.44810276 0.89385792 0.01489763
vn -0.45876588 0.88837953 0.01776759
vn -0.40642676 0.91350068 -0.01827001
vn -0.39479511 0.91851918 -0.02143211
vn -0.39481917 0.91857515 0.01837150
vn -0.40640227 0.91344563 0.02131373
vn -0.37626353 0.92626057 -0.02161275
vn -0.36414097 0.93101287 -0.02482701
vn -0.36416728 0.93108013 0.02172520
vn -0.37623663 0.92619435 0.02469852
vn 0.09946871 0.99468709 -0.02652499
vn 0.09946871 0.99468709 0.02652499
vn 0.00000000 0.99964463 -0.02665719
vn -0.00000000 0.99964463 0.02665719
vn -0.09946871 0.99468709 -0.02652499
vn -0.09946871 0.99468709 0.02652499
vn 0.37623663 0.92619435 -0.02469852
vn 0.36416728 0.93108013 -0.02172520
vn 0.36414097 0.93101287 0.02482701
vn 0.37626353 0.92626057 0.02161275
vn 0.40640227 0.91344563 -0.02131373
vn 0.39481917 0.91857515 -0.01837150
vn 0.39479511 0.91851918 0.02143211
vn 0.40642676 0.91350068 0.01827001
vn 0.45876588 0.88837953 -0.01776759
vn 0.44810276 0.89385792 -0.01489763
vn 0.44808089 0.89381427 0.01787629
vn 0.45878801 0.88842238 0.01480704
vn 0.52059566 0.85368479 -0.01422808
vn 0.51112625 0.85942926 -0.01145906
vn 0.51110737 0.85939752 0.01432329
vn 0.52061463 0.85371590 0.01138288
vn 0.57939307 0.81497582 -0.01086634
vn 0.57114831 0.82080585 -0.00820806
vn 0.57113334 0.82078434 0.01094379
vn 0.57940804 0.81499687 0.00814997
vn 0.62673932 0.77919004 -0.00779190
vn 0.61952901 0.78495632 -0.00523304
vn 0.61951841 0.78494288 0.00784943
vn 0.62674989 0.77920318 0.00519469
vn 0.65885560 0.75225272 -0.00501502
vn 0.65236349 0.75790204 -0.00252634
vn 0.65235724 0.75789478 0.00505263
vn 0.65886181 0.75225981 0.00250753
vn 0.67132058 0.74116299 -0.00247054
vn 0.66510621 0.74674641 -0.00187861
vn 0.66510533 0.74674541 0.00248915
vn 0.67132147 0.74116396 0.00186456
vn 0.67601198 0.73688830 -0.00185381
vn 0.66990476 0.74244705 0.00000000
vn 0.66990359 0.74244575 0.00186779
vn 0.67601314 0.73688957 0.00000000
vn 0.00000000 0.08963770 0.99597444
vn -0.00332430 0.08864788 0.99605748
vn -0.02927003 0.78053424 0.62442739
vn -0.03747366 0.99929762 0.00000000
vn -0.02927003 0.78053424 -0.62442739
vn -0.00336139 0.08963719 -0.99596881
vn 0.00000000 0.08864837 -0.99606298
vn -0.59848497 0.07101923 0.79797996
vn -0.60019979 0.07038747 0.79674702
vn -0.44564010 0.69904329 0.55923463
vn -0.44564010 0.69904329 -0.55923463
vn -0.60019018 0.07090605 -0.79670828
vn -0.59850711 0.07049900 -0.79800948
vn 0.00000000 0.08800082 0.99612040
vn -0.00300370 0.08009859 0.99678242
vn -0.00330001 0.08800034 -0.99611498
vn 0.00000000 0.08009895 -0.99678692
vn -0.00000000 0.08009895 0.99678692
vn -0.00000000 0.78086881 0.62469505
vn -0.00000000 1.00000000 0.00000000
vn 0.00000000 0.78086881 -0.62469505
vn 0.00319624 0.08378411 0.99647880
vn 0.02977574 0.78052258 0.62441806
vn 0.03812074 0.99927314 0.00000000
vn 0.02977574 0.78052258 -0.62441806
vn 0.00305564 0.08009857 -0.99678226
vn 0.00000000 0.08378453 -0.99648389
vn 0.00000000 0.08378453 0.99648389
vn 0.00876396 0.09434564 0.99550093
vn 0.07234645 0.77882259 0.62305807
vn 0.09249388 0.99571325 0.00000000
vn 0.07234645 0.77882259 -0.62305807
vn 0.00778268 0.08378200 -0.99645372
vn 0.00000000 0.09434927 -0.99553916
vn 0.00000000 0.09434927 0.99553916
vn 0.01023971 0.10929499 0.99395662
vn 0.07296363 0.77878748 0.62302999
vn 0.09328027 0.99563989 0.00000000
vn 0.07296363 0.77878748 -0.62302999
vn 0.00883912 0.09434558 -0.99550027
vn 0.00000000 0.10930072 -0.99400873
vn 0.00000000 0.10930072 0.99400873
vn 0.00443503 0.11625699 0.99320926
vn 0.00416962 0.10929977 -0.99400009
vn 0.00000000 0.11625813 -0.99321903
vn 0.00000000 0.11625813 0.99321903
vn -0.00416962 0.10929977 0.99400009
vn -0.02977574 0.78052258 0.62441806
vn -0.03812074 0.99927314 0.00000000
vn -0.02977574 0.78052258 -0.62441806
vn -0.00443503 0.11625699 -0.99320926
vn -0.00883912 0.09434558 0.99550027
vn -0.07296363 0.77878748 0.62302999
vn -0.09328027 0.99563989 0.00000000
vn -0.07296363 0.77878748 -0.62302999
vn -0.01023971 0.10929499 -0.99395662
vn -0.00778268 0.08378200 0.99645372
vn -0.07234645 0.77882259 0.62305807
vn -0.09249388 0.99571325 0.00000000
vn -0.07234645 0.77882259 -0.62305807
vn -0.00876396 0.09434564 -0.99550093
vn -0.00305564 0.08009857 0.99678226
vn -0.00319624 0.08378411 -0.99647880
vn 0.00330001 0.08800034 0.99611498
vn 0.02927003 0.78053424 0.62442739
vn 0.03747366 0.99929762 0.00000000
vn 0.02927003 0.78053424 -0.62442739
vn 0.00300370 0.08009859 -0.99678242
vn 0.00000000 0.08800082 -0.99612040
vn 0.59850711 0.07049900 0.79800948
vn 0.60019018 0.07090605 0.79670828
vn 0.44564010 0.69904329 0.55923463
vn 0.44564010 0.69904329 -0.55923463
vn 0.60019979 0.07038747 -0.79674702
vn 0.59848497 0.07101923 -0.79797996
vn 0.00000000 0.08864837 0.99606298
vn 0.00336139 0.08963719 0.99596881
vn 0.00332430 0.08864788 -0.99605748
vn 0.00000000 0.08963770 -0.99597444
vn -1.00000000 -0.00000000 0.00000000
vn 1.00000000 0.00000000 0.00000000
vn 0.70710678 0.00000000 -0.70710678
vn 0.70710678 0.00000000 0.70710678
vn -0.70710678 0.00000000 0.70710678
vn -0.70710678 0.00000000 -0.70710678
vn 0.37708674 -0.92617795 0.00000000
vn 0.72353574 -0.69028692 0.00000000
vn -0.18589167 0.98257025 0.00000000
vn -0.20695859 0.97834970 0.00000000
vn 0.86602540 0.00000000 0.50000000
vn -0.86602540 0.00000000 0.50000000
vn -0.86602540 0.00000000 -0.50000000
vn 0.86602540 0.00000000 -0.50000000
vn 0.92387953 0.00000000 0.38268343
vn 0.38268343 0.00000000 0.92387953
vn -0.38268343 0.00000000 0.92387953
vn -0.92387953 0.00000000 0.38268343
vn -0.92387953 0.00000000 -0.38268343
vn -0.38268343 0.00000000 -0.92387953
vn 0.38268343 0.00000000 -0.92387953
vn 0.92387953 0.00000000 -0.38268343
vn -0.37708674 -0.92617795 0.00000000
vn -0.72353574 -0.69028692 0.00000000
vn 0.18589167 0.98257025 0.00000000
vn 0.20695859 0.97834970 0.00000000
vn 0.64018440 0.76822128 0.00000000
vn 0.27805808 0.96056426 0.00000000
vn 0.58123819 0.81373347 0.00000000
vn 0.96476382 0.26311741 0.00000000
vn 0.94868330 -0.31622777 0.00000000
vn 0.39391930 -0.91914503 0.00000000
vn 0.70710678 -0.70710678 0.00000000
vn 0.99227788 -0.12403473 0.00000000
vn 0.94868330 0.31622777 0.00000000
vn 0.58072468 0.81410002 0.00000000
vn -0.58072468 0.81410002 0.00000000
vn -0.94868330 0.31622777 0.00000000
vn -0.99227788 -0.12403473 0.00000000
vn -0.70710678 -0.70710678 0.00000000
vn -0.39391930 -0.91914503 0.00000000
vn -0.94868330 -0.31622777 0.00000000
vn -0.96476382 0.26311741 0.00000000
vn -0.58123819 0.81373347 0.00000000
vn -0.27805808 0.96056426 0.00000000
vn -0.64018440 0.76822128 0.00000000
g ballast
usemtl mat
f 1/1/1 2/2/1 3/3/1
f 3/3/2 4/4/2 1/1/2
f 2/2/3 5/5/3 6/6/3
f 6/6/4 3/3/4 2/2/4
f 1/7/5 4/8/5 7/9/5
f 8/9/6 6/8/6 5/7/6
f 1/10/7 7/4/7 8/6/7 5/11/7
f 4/10/8 3/12/8 9/13/8
f 9/13/9 10/14/9 4/10/9
f 3/12/10 6/11/10 11/15/10
f 11/15/11 9/13/11 3/12/11
f 4/16/5 10/17/5 12/18/5 7/19/5
f 8/19/6 13/18/6 11/17/6 6/16/6
f 7/10/7 12/4/7 13/6/7 8/11/7
f 10/14/12 9/13/12 14/20/12
f 14/20/13 15/21/13 10/14/13
f 9/13/14 11/15/14 16/22/14
f 16/22/15 14/20/15 9/13/15
f 10/17/5 15/23/5 17/24/5 12/18/5
f 13/18/6 18/24/6 16/23/6 11/17/6
f 12/10/7 17/4/7 18/6/7 13/11/7
f 15/21/16 14/20/16 19/25/16
f 19/25/17 20/26/17 15/21/17
f 14/20/18 16/22/18 21/27/18
f 21/27/19 19/25/19 14/20/19
f 15/23/5 20/28/5 22/29/5 17/24/5
f 18/24/6 23/29/6 21/28/6 16/23/6
f 17/10/7 22/4/7 23/6/7 18/11/7
f 20/26/20 19/25/20 24/30/20
f 24/30/21 25/31/21 20/26/21
f 19/25/22 21/27/22 26/32/22
f 26/32/23 24/30/23 19/25/23
f 20/28/5 25/33/5 27/34/5 22/29/5
f 23/29/6 28/34/6 26/33/6 21/28/6
f 22/10/7 27/4/7 28/6/7 23/11/7
f 25/31/24 24/30/24 29/35/24
f 29/35/25 30/36/25 25/31/25
f 24/30/26 26/32/26 31/37/26
f 31/37/27 29/35/27 24/30/27
f 25/33/5 30/38/5 32/39/5 27/34/5
f 28/34/6 33/39/6 31/38/6 26/33/6
f 27/10/7 32/4/7 33/6/7 28/11/7
f 30/36/28 29/35/28 34/40/28
f 34/40/29 35/41/29 30/36/29
f 29/35/30 31/37/30 36/42/30
f 36/42/31 34/40/31 29/35/31
f 30/38/5 35/43/5 37/44/5 32/39/5
f 33/39/6 38/44/6 36/43/6 31/38/6
f 32/10/7 37/4/7 38/6/7 33/11/7
f 35/41/32 34/40/32 39/45/32
f 39/45/33 40/46/33 35/41/33
f 34/40/34 36/42/34 41/47/34
f 41/47/35 39/45/35 34/40/35
f 37/44/5 35/43/5 42/48/5
f 37/44/5 42/48/5 43/47/5
f 43/47/5 44/49/5 37/44/5
f 42/50/5 40/51/5 43/46/5
f 36/43/6 38/44/6 45/49/6
f 36/43/6 45/49/6 46/47/6
f 46/47/6 47/48/6 36/43/6
f 46/46/6 41/51/6 47/50/6
f 37/10/7 44/4/7 45/6/7 38/11/7
f 40/46/36 39/45/36 48/52/36
f 48/52/37 49/53/37 40/46/37
f 39/45/38 41/47/38 50/54/38
f 50/54/39 48/52/39 39/45/39
f 43/47/5 51/54/5 52/55/5 44/49/5
f 43/46/5 40/51/5 49/56/5 51/53/5
f 45/49/6 53/55/6 54/54/6 46/47/6
f 54/53/6 50/56/6 41/51/6 46/46/6
f 44/10/7 52/4/7 53/6/7 45/11/7
f 48/52/40 55/3/40 56/4/40 49/53/40
f 50/54/41 57/6/41 55/3/41 48/52/41
f 51/54/5 58/6/5 59/9/5 52/55/5
f 51/53/5 49/56/5 56/57/5 58/4/5
f 53/55/6 60/9/6 61/6/6 54/54/6
f 61/4/6 57/57/6 50/56/6 54/53/6
f 52/10/7 59/4/7 60/6/7 53/11/7
f 55/12/42 62/3/42 63/4/42 56/10/42
f 57/11/43 64/6/43 62/3/43 55/12/43
f 58/11/5 65/6/5 66/9/5 59/19/5
f 58/10/5 56/58/5 63/57/5 65/4/5
f 60/19/6 67/9/6 68/6/6 61/11/6
f 68/4/6 64/57/6 57/58/6 61/10/6
f 59/10/7 66/4/7 67/6/7 60/11/7
f 62/12/42 69/3/42 70/4/42 63/10/42
f 64/11/43 71/6/43 69/3/43 62/12/43
f 65/11/5 72/6/5 73/9/5 66/19/5
f 65/10/5 63/58/5 70/57/5 72/4/5
f 67/19/6 74/9/6 75/6/6 68/11/6
f 75/4/6 71/57/6 64/58/6 68/10/6
f 66/10/7 73/4/7 74/6/7 67/11/7
f 69/12/42 76/3/42 77/4/42 70/10/42
f 71/11/43 78/6/43 76/3/43 69/12/43
f 72/11/5 79/6/5 80/9/5 73/19/5
f 72/10/5 70/58/5 77/57/5 79/4/5
f 74/19/6 81/9/6 82/6/6 75/11/6
f 82/4/6 78/57/6 71/58/6 75/10/6
f 73/10/7 80/4/7 81/6/7 74/11/7
f 76/12/42 83/3/42 84/4/42 77/10/42
f 78/11/43 85/6/43 83/3/43 76/12/43
f 79/11/5 86/6/5 87/9/5 80/19/5
f 79/10/5 77/58/5 84/57/5 86/4/5
f 81/19/6 88/9/6 89/6/6 82/11/6
f 89/4/6 85/57/6 78/58/6 82/10/6
f 80/10/7 87/4/7 88/6/7 81/11/7
f 83/12/44 90/59/44 91/60/44 84/10/44
f 85/11/45 92/61/45 90/59/45 83/12/45
f 86/11/5 93/61/5 94/62/5 87/19/5
f 86/10/5 84/58/5 91/63/5 93/60/5
f 88/19/6 95/62/6 96/61/6 89/11/6
f 96/60/6 92/63/6 85/58/6 89/10/6
f 87/10/7 94/4/7 95/6/7 88/11/7
f 91/60/46 90/59/46 97/64/46
f 97/64/47 98/65/47 91/60/47
f 90/59/48 92/61/48 99/66/48
f 99/66/49 97/64/49 90/59/49
f 93/61/5 100/66/5 101/67/5 94/62/5
f 93/60/5 91/63/5 98/68/5 100/65/5
f 95/62/6 102/67/6 103/66/6 96/61/6
f 103/65/6 99/68/6 92/63/6 96/60/6
f 94/10/7 101/4/7 102/6/7 95/11/7
f 98/65/50 97/64/50 104/69/50
f 104/69/51 105/70/51 98/65/51
f 97/64/52 99/66/52 106/71/52
f 106/71/53 104/69/53 97/64/53
f 101/67/5 100/66/5 107/72/5
f 101/67/5 107/72/5 105/73/5
f 105/73/5 108/74/5 101/67/5
f 100/65/5 98/68/5 107/75/5
f 103/66/6 102/67/6 109/74/6
f 103/66/6 109/74/6 106/73/6
f 106/73/6 110/72/6 103/66/6
f 110/75/6 99/68/6 103/65/6
f 101/10/7 108/4/7 109/6/7 102/11/7
f 105/70/54 104/69/54 111/76/54
f 111/76/55 112/77/55 105/70/55
f 104/69/56 106/71/56 113/78/56
f 113/78/57 111/76/57 104/69/57
f 105/73/5 112/79/5 114/80/5 108/74/5
f 109/74/6 115/80/6 113/79/6 106/73/6
f 108/10/7 114/4/7 115/6/7 109/11/7
f 112/77/58 111/76/58 116/81/58
f 116/81/59 117/82/59 112/77/59
f 111/76/60 113/78/60 118/83/60
f 118/83/61 116/81/61 111/76/61
f 112/79/5 117/84/5 119/85/5 114/80/5
f 115/80/6 120/85/6 118/84/6 113/79/6
f 114/10/7 119/4/7 120/6/7 115/11/7
f 117/82/62 116/81/62 121/86/62
f 121/86/63 122/87/63 117/82/63
f 116/81/64 118/83/64 123/88/64
f 123/88/65 121/86/65 116/81/65
f 117/84/5 122/89/5 124/90/5 119/85/5
f 120/85/6 125/90/6 123/89/6 118/84/6
f 119/10/7 124/4/7 125/6/7 120/11/7
f 122/87/66 121/86/66 126/91/66
f 126/91/67 127/92/67 122/87/67
f 121/86/68 123/88/68 128/93/68
f 128/93/69 126/91/69 121/86/69
f 122/89/5 127/94/5 129/95/5 124/90/5
f 125/90/6 130/95/6 128/94/6 123/89/6
f 124/10/7 129/4/7 130/6/7 125/11/7
f 127/92/70 126/91/70 131/96/70
f 131/96/71 132/97/71 127/92/71
f 126/91/72 128/93/72 133/98/72
f 133/98/73 131/96/73 126/91/73
f 127/94/5 132/99/5 134/100/5 129/95/5
f 130/95/6 135/100/6 133/99/6 128/94/6
f 129/10/7 134/4/7 135/6/7 130/11/7
f 132/97/74 131/96/74 136/3/74
f 136/3/75 137/4/75 132/97/75
f 131/96/76 133/98/76 138/6/76
f 138/6/77 136/3/77 131/96/77
f 132/99/5 137/8/5 139/9/5 134/100/5
f 135/100/6 140/9/6 138/8/6 133/99/6
f 134/10/7 139/4/7 140/6/7 135/11/7
f 137/10/78 136/12/78 141/101/78
f 141/101/79 142/102/79 137/10/79
f 136/12/80 138/11/80 143/103/80
f 143/103/81 141/101/81 136/12/81
f 137/16/5 142/104/5 139/19/5
f 140/19/6 143/104/6 138/16/6
f 139/10/7 142/4/7 143/6/7 140/11/7
g sleeper
usemtl mat
f 144/105/7 145/106/7 146/107/7 147/108/7
f 148/109/82 147/110/82 146/111/82
f 146/111/83 149/112/83 148/109/83
f 148/113/84 149/114/84 150/115/84 151/116/84
f 151/116/85 150/115/85 152/117/85 153/118/85
f 153/118/86 152/117/86 154/119/86 155/120/86
f 144/110/87 155/109/87 154/112/87
f 154/112/88 145/111/88 144/110/88
f 145/106/7 156/121/7 157/122/7 146/107/7
f 149/112/89 146/111/89 157/123/89
f 157/123/90 158/124/90 149/112/90
f 149/114/91 158/125/91 159/126/91 150/115/91
f 150/115/85 159/126/85 160/127/85 152/117/85
f 152/117/92 160/127/92 161/128/92 154/119/92
f 145/111/93 154/112/93 161/124/93
f 161/124/94 156/123/94 145/111/94
f 156/129/7 162/130/7 163/131/7 157/132/7
f 158/133/95 157/134/95 163/135/95
f 163/135/96 164/136/96 158/133/96
f 158/137/84 164/138/84 165/139/84 159/140/84
f 159/140/85 165/139/85 166/141/85 160/142/85
f 160/142/86 166/141/86 167/143/86 161/144/86
f 156/134/97 161/133/97 167/136/97
f 167/136/98 162/135/98 156/134/98
f 162/130/7 168/145/7 169/146/7 163/131/7
f 163/135/99 169/147/99 170/148/99 164/136/99
f 164/138/100 170/149/100 171/150/100 165/139/100
f 165/139/101 171/150/101 172/151/101 166/141/101
f 166/141/102 172/151/102 173/152/102 167/143/102
f 167/136/98 173/148/98 168/147/98 162/135/98
f 168/145/7 174/121/7 175/122/7 169/146/7
f 169/147/99 175/123/99 176/153/99 170/148/99
f 170/149/100 176/125/100 177/126/100 171/150/100
f 171/150/101 177/126/101 178/127/101 172/151/101
f 172/151/102 178/127/102 179/128/102 173/152/102
f 173/148/98 179/153/98 174/123/98 168/147/98
f 174/129/7 180/154/7 181/155/7 175/132/7
f 175/134/99 181/156/99 182/157/99 176/158/99
f 176/137/100 182/159/100 183/160/100 177/140/100
f 177/140/101 183/160/101 184/161/101 178/142/101
f 178/142/102 184/161/102 185/162/102 179/144/102
f 179/158/98 185/157/98 180/156/98 174/134/98
f 180/154/7 186/163/7 187/164/7 181/155/7
f 182/157/99 181/156/99 187/165/99
f 187/165/103 188/166/103 182/157/103
f 182/159/104 188/167/104 189/168/104 183/160/104
f 183/160/105 189/168/105 190/169/105 184/161/105
f 184/161/106 190/169/106 191/170/106 185/162/106
f 180/156/107 185/157/107 191/166/107
f 191/166/108 186/165/108 180/156/108
f 186/163/7 192/171/7 193/172/7 187/164/7
f 188/166/109 187/165/109 193/173/109
f 193/173/110 194/174/110 188/166/110
f 188/167/111 194/175/111 195/176/111 189/168/111
f 189/168/112 195/176/112 196/177/112 190/169/112
f 190/169/113 196/177/113 197/178/113 191/170/113
f 186/165/114 191/166/114 197/174/114
f 197/174/115 192/173/115 186/165/115
f 192/171/7 198/179/7 199/180/7 193/172/7
f 194/174/116 193/173/116 199/181/116
f 199/181/117 200/182/117 194/174/117
f 194/175/118 200/183/118 201/184/118 195/176/118
f 195/176/119 201/184/119 202/185/119 196/177/119
f 196/177/120 202/185/120 203/186/120 197/178/120
f 192/173/121 197/174/121 203/182/121
f 203/182/122 198/181/122 192/173/122
f 198/179/7 204/121/7 205/122/7 199/180/7
f 200/182/123 199/181/123 205/123/123
f 205/123/124 206/187/124 200/182/124
f 200/183/104 206/125/104 207/126/104 201/184/104
f 201/184/105 207/126/105 208/127/105 202/185/105
f 202/185/106 208/127/106 209/128/106 203/186/106
f 198/181/125 203/182/125 209/187/125
f 209/187/126 204/123/126 198/181/126
f 204/129/7 210/188/7 211/189/7 205/132/7
f 206/190/127 205/134/127 211/191/127
f 211/191/128 212/192/128 206/190/128
f 206/137/129 212/193/129 213/194/129 207/140/129
f 207/140/130 213/194/130 214/195/130 208/142/130
f 208/142/131 214/195/131 215/196/131 209/144/131
f 204/134/132 209/190/132 215/192/132
f 215/192/122 210/191/122 204/134/122
f 210/188/7 216/130/7 217/131/7 211/189/7
f 212/192/123 211/191/123 217/135/123
f 217/135/133 218/197/133 212/192/133
f 212/193/134 218/138/134 219/139/134 213/194/134
f 213/194/135 219/139/135 220/141/135 214/195/135
f 214/195/136 220/141/136 221/143/136 215/196/136
f 210/191/137 215/192/137 221/197/137
f 221/197/115 216/135/115 210/191/115
f 216/130/7 222/198/7 223/199/7 217/131/7
f 218/197/116 217/135/116 223/200/116
f 223/200/138 224/201/138 218/197/138
f 218/138/139 224/202/139 225/203/139 219/139/139
f 219/139/140 225/203/140 226/204/140 220/141/140
f 220/141/141 226/204/141 227/205/141 221/143/141
f 216/135/142 221/197/142 227/201/142
f 227/201/108 222/200/108 216/135/108
f 222/198/7 228/206/7 229/207/7 223/199/7
f 224/201/109 223/200/109 229/208/109
f 229/208/143 230/209/143 224/201/143
f 224/202/129 230/210/129 231/211/129 225/203/129
f 225/203/130 231/211/130 232/212/130 226/204/130
f 226/204/131 232/212/131 233/213/131 227/205/131
f 222/200/144 227/201/144 233/209/144
f 233/209/98 228/208/98 222/200/98
f 228/206/7 234/121/7 235/122/7 229/207/7
f 229/208/99 235/123/99 236/153/99 230/209/99
f 230/210/100 236/125/100 237/126/100 231/211/100
f 231/211/101 237/126/101 238/127/101 232/212/101
f 232/212/102 238/127/102 239/128/102 233/213/102
f 233/209/98 239/153/98 234/123/98 228/208/98
f 234/129/7 240/214/7 241/215/7 235/132/7
f 235/134/99 241/216/99 242/217/99 236/158/99
f 236/137/100 242/218/100 243/219/100 237/140/100
f 237/140/101 243/219/101 244/220/101 238/142/101
f 238/142/102 244/220/102 245/221/102 239/144/102
f 239/158/98 245/217/98 240/216/98 234/134/98
f 240/214/7 246/171/7 247/172/7 241/215/7
f 241/216/99 247/173/99 248/222/99 242/217/99
f 242/218/100 248/175/100 249/176/100 243/219/100
f 243/219/101 249/176/101 250/177/101 244/220/101
f 244/220/102 250/177/102 251/178/102 245/221/102
f 245/217/98 251/222/98 246/173/98 240/216/98
f 246/171/7 252/121/7 253/122/7 247/172/7
f 248/222/99 247/173/99 253/123/99
f 253/123/145 254/124/145 248/222/145
f 248/175/146 254/125/146 255/126/146 249/176/146
f 249/176/147 255/126/147 256/127/147 250/177/147
f 250/177/148 256/127/148 257/128/148 251/178/148
f 246/173/149 251/222/149 257/124/149
f 257/124/150 252/123/150 246/173/150
f 252/129/7 258/223/7 259/224/7 253/132/7
f 254/133/151 253/134/151 259/225/151
f 259/225/152 260/226/152 254/133/152
f 254/137/153 260/227/153 261/228/153 255/140/153
f 255/140/147 261/228/147 262/229/147 256/142/147
f 256/142/154 262/229/154 263/230/154 257/144/154
f 252/134/155 257/133/155 263/226/155
f 263/226/156 258/225/156 252/134/156
f 258/223/7 264/231/7 265/232/7 259/224/7
f 260/226/157 259/225/157 265/233/157
f 265/233/158 266/234/158 260/226/158
f 260/227/146 266/235/146 267/236/146 261/228/146
f 261/228/147 267/236/147 268/237/147 262/229/147
f 262/229/148 268/237/148 269/238/148 263/230/148
f 258/225/159 263/226/159 269/234/159
f 269/234/160 264/233/160 258/225/160
f 155/239/161 144/240/161 147/241/161
f 155/239/161 147/241/161 148/242/161
f 155/239/161 148/242/161 151/243/161
f 151/243/161 153/244/161 155/239/161
f 264/240/162 269/239/162 268/244/162
f 264/240/162 268/244/162 267/243/162
f 264/240/162 267/243/162 266/242/162
f 266/242/162 265/241/162 264/240/162
g fastener_left
usemtl mat
f 270/245/7 271/246/7 272/247/7
f 270/245/7 272/247/7 273/248/7
f 270/245/7 273/248/7 274/249/7
f 270/245/7 274/249/7 275/250/7
f 270/245/7 275/250/7 276/251/7
f 276/251/7 277/252/7 270/245/7
f 278/253/5 279/254/5 272/255/5 271/256/5
f 279/253/163 280/254/163 273/255/163 272/256/163
f 280/253/162 281/254/162 274/255/162 273/256/162
f 281/253/164 282/254/164 275/255/164 274/256/164
f 282/253/6 283/254/6 276/255/6 275/256/6
f 283/253/165 284/254/165 277/255/165 276/256/165
f 284/253/161 285/254/161 270/255/161 277/256/161
f 285/253/166 278/254/166 271/255/166 270/256/166
f 286/257/101 287/258/101 288/259/101
f 286/257/101 288/259/101 289/260/101
f 286/257/101 289/260/101 290/261/101
f 286/257/101 290/261/101 291/262/101
f 286/257/101 291/262/101 292/263/101
f 292/263/101 293/264/101 286/257/101
f 286/265/5 293/266/5 294/267/5 295/268/5
f 293/265/163 292/266/163 296/267/163 294/268/163
f 292/265/162 291/266/162 297/267/162 296/268/162
f 291/265/164 290/266/164 298/267/164 297/268/164
f 290/265/6 289/266/6 299/267/6 298/268/6
f 289/265/165 288/266/165 300/267/165 299/268/165
f 288/265/161 287/266/161 301/267/161 300/268/161
f 287/265/166 286/266/166 295/267/166 301/268/166
f 302/269/7 303/270/7 304/271/7
f 302/269/7 304/271/7 305/272/7
f 302/269/7 305/272/7 306/273/7
f 302/269/7 306/273/7 307/274/7
f 302/269/7 307/274/7 308/275/7
f 308/275/7 309/276/7 302/269/7
f 310/270/101 311/269/101 312/276/101
f 310/270/101 312/276/101 313/275/101
f 310/270/101 313/275/101 314/274/101
f 310/270/101 314/274/101 315/273/101
f 310/270/101 315/273/101 316/272/101
f 316/272/101 317/271/101 310/270/101
f 310/277/5 317/278/5 304/279/5 303/280/5
f 317/277/163 316/278/163 305/279/163 304/280/163
f 316/277/162 315/278/162 306/279/162 305/280/162
f 315/277/164 314/278/164 307/279/164 306/280/164
f 314/277/6 313/278/6 308/279/6 307/280/6
f 313/277/165 312/278/165 309/279/165 308/280/165
f 312/277/161 311/278/161 302/279/161 309/280/161
f 311/277/166 310/278/166 303/279/166 302/280/166
f 318/281/7 319/282/7 320/283/7
f 318/281/7 320/283/7 321/284/7
f 318/281/7 321/284/7 322/285/7
f 318/281/7 322/285/7 323/286/7
f 318/281/7 323/286/7 324/287/7
f 324/287/7 325/288/7 318/281/7
f 326/282/101 327/281/101 328/288/101
f 326/282/101 328/288/101 329/287/101
f 326/282/101 329/287/101 330/286/101
f 326/282/101 330/286/101 331/285/101
f 326/282/101 331/285/101 332/284/101
f 332/284/101 333/283/101 326/282/101
f 326/253/5 333/254/5 320/255/5 319/256/5
f 333/253/163 332/254/163 321/255/163 320/256/163
f 332/253/162 331/254/162 322/255/162 321/256/162
f 331/253/164 330/254/164 323/255/164 322/256/164
f 330/253/6 329/254/6 324/255/6 323/256/6
f 329/253/165 328/254/165 325/255/165 324/256/165
f 328/253/161 327/254/161 318/255/161 325/256/161
f 327/253/166 326/254/166 319/255/166 318/256/166
f 334/289/6 335/277/6 336/290/6
f 334/289/6 336/290/6 337/291/6
f 334/289/6 337/291/6 338/292/6
f 338/292/6 339/293/6 340/279/6
f 334/289/6 338/292/6 340/279/6
f 340/279/6 341/294/6 342/295/6
f 340/279/6 342/295/6 334/289/6
f 343/277/5 344/289/5 345/295/5
f 345/295/5 346/294/5 347/279/5
f 343/277/5 345/295/5 347/279/5
f 347/279/5 348/293/5 349/292/5
f 347/279/5 349/292/5 350/291/5
f 347/279/5 350/291/5 351/290/5
f 347/279/5 351/290/5 343/277/5
f 344/277/167 345/278/167 342/279/167 334/280/167
f 345/277/168 346/278/168 341/279/168 342/280/168
f 346/277/7 347/278/7 340/279/7 341/280/7
f 347/277/161 348/278/161 339/279/161 340/280/161
f 348/277/101 349/278/101 338/279/101 339/280/101
f 349/277/169 350/278/169 337/279/169 338/280/169
f 350/277/101 351/278/101 336/279/101 337/280/101
f 351/277/170 343/278/170 335/279/170 336/280/170
f 343/277/162 344/278/162 334/279/162 335/280/162
f 352/296/7 353/297/7 354/298/7
f 352/296/7 354/298/7 355/299/7
f 352/296/7 355/299/7 356/300/7
f 356/300/7 357/301/7 352/296/7
f 358/297/101 359/296/101 360/301/101
f 358/297/101 360/301/101 361/300/101
f 358/297/101 361/300/101 362/299/101
f 362/299/101 363/298/101 358/297/101
f 358/277/171 363/302/171 354/303/171 353/280/171
f 363/302/6 362/304/6 355/305/6 354/303/6
f 362/304/172 361/306/172 356/307/172 355/305/172
f 361/306/173 360/308/173 357/309/173 356/307/173
f 360/308/5 359/310/5 352/311/5 357/309/5
f 359/310/174 358/278/174 353/279/174 352/311/174
f 364/312/7 365/297/7 366/313/7
f 364/312/7 366/313/7 367/306/7
f 364/312/7 367/306/7 368/314/7
f 364/312/7 368/314/7 369/300/7
f 364/312/7 369/300/7 370/315/7
f 370/315/7 371/307/7 364/312/7
f 372/297/101 373/312/101 374/307/101
f 372/297/101 374/307/101 375/315/101
f 372/297/101 375/315/101 376/300/101
f 372/297/101 376/300/101 377/314/101
f 372/297/101 377/314/101 378/306/101
f 378/306/101 379/313/101 372/297/101
f 372/277/175 379/316/175 366/317/175 365/280/175
f 379/316/176 378/318/176 367/319/176 366/317/176
f 378/318/177 377/320/177 368/321/177 367/319/177
f 377/320/178 376/306/178 369/307/178 368/321/178
f 376/306/179 375/322/179 370/323/179 369/307/179
f 375/322/180 374/324/180 371/325/180 370/323/180
f 374/324/181 373/326/181 364/327/181 371/325/181
f 373/326/182 372/278/182 365/279/182 364/327/182
f 380/296/7 381/297/7 382/298/7
f 380/296/7 382/298/7 383/299/7
f 380/296/7 383/299/7 384/300/7
f 384/300/7 385/301/7 380/296/7
f 386/297/101 387/296/101 388/301/101
f 386/297/101 388/301/101 389/300/101
f 386/297/101 389/300/101 390/299/101
f 390/299/101 391/298/101 386/297/101
f 386/277/171 391/302/171 382/303/171 381/280/171
f 391/302/6 390/304/6 383/305/6 382/303/6
f 390/304/172 389/306/172 384/307/172 383/305/172
f 389/306/173 388/308/173 385/309/173 384/307/173
f 388/308/5 387/310/5 380/311/5 385/309/5
f 387/310/174 386/278/174 381/279/174 380/311/174
f 392/296/7 393/297/7 394/298/7
f 392/296/7 394/298/7 395/299/7
f 392/296/7 395/299/7 396/300/7
f 396/300/7 397/301/7 392/296/7
f 398/297/101 399/296/101 400/301/101
f 398/297/101 400/301/101 401/300/101
f 398/297/101 401/300/101 402/299/101
f 402/299/101 403/298/101 398/297/101
f 398/277/171 403/302/171 394/303/171 393/280/171
f 403/302/6 402/304/6 395/305/6 394/303/6
f 402/304/172 401/306/172 396/307/172 395/305/172
f 401/306/173 400/308/173 397/309/173 396/307/173
f 400/308/5 399/310/5 392/311/5 397/309/5
f 399/310/174 398/278/174 393/279/174 392/311/174
f 404/269/7 405/270/7 406/271/7
f 404/269/7 406/271/7 407/272/7
f 404/269/7 407/272/7 408/273/7
f 404/269/7 408/273/7 409/274/7
f 404/269/7 409/274/7 410/275/7
f 410/275/7 411/276/7 404/269/7
f 412/270/101 413/269/101 414/276/101
f 412/270/101 414/276/101 415/275/101
f 412/270/101 415/275/101 416/274/101
f 412/270/101 416/274/101 417/273/101
f 412/270/101 417/273/101 418/272/101
f 418/272/101 419/271/101 412/270/101
f 412/277/5 419/278/5 406/279/5 405/280/5
f 419/277/163 418/278/163 407/279/163 406/280/163
f 418/277/162 417/278/162 408/279/162 407/280/162
f 417/277/164 416/278/164 409/279/164 408/280/164
f 416/277/6 415/278/6 410/279/6 409/280/6
f 415/277/165 414/278/165 411/279/165 410/280/165
f 414/277/161 413/278/161 404/279/161 411/280/161
f 413/277/166 412/278/166 405/279/166 404/280/166
f 420/281/7 421/282/7 422/283/7
f 420/281/7 422/283/7 423/284/7
f 420/281/7 423/284/7 424/285/7
f 420/281/7 424/285/7 425/286/7
f 420/281/7 425/286/7 426/287/7
f 426/287/7 427/288/7 420/281/7
f 428/282/101 429/281/101 430/288/101
f 428/282/101 430/288/101 431/287/101
f 428/282/101 431/287/101 432/286/101
f 428/282/101 432/286/101 433/285/101
f 428/282/101 433/285/101 434/284/101
f 434/284/101 435/283/101 428/282/101
f 428/253/5 435/254/5 422/255/5 421/256/5
f 435/253/163 434/254/163 423/255/163 422/256/163
f 434/253/162 433/254/162 424/255/162 423/256/162
f 433/253/164 432/254/164 425/255/164 424/256/164
f 432/253/6 431/254/6 426/255/6 425/256/6
f 431/253/165 430/254/165 427/255/165 426/256/165
f 430/253/161 429/254/161 420/255/161 427/256/161
f 429/253/166 428/254/166 421/255/166 420/256/166
f 436/277/6 437/289/6 438/295/6
f 438/295/6 439/294/6 440/279/6
f 436/277/6 438/295/6 440/279/6
f 440/279/6 441/293/6 442/292/6
f 440/279/6 442/292/6 443/291/6
f 440/279/6 443/291/6 444/290/6
f 440/279/6 444/290/6 436/277/6
f 445/289/5 446/277/5 447/290/5
f 445/289/5 447/290/5 448/291/5
f 445/289/5 448/291/5 449/292/5
f 449/292/5 450/293/5 451/279/5
f 445/289/5 449/292/5 451/279/5
f 451/279/5 452/294/5 453/295/5
f 451/279/5 453/295/5 445/289/5
f 437/280/183 438/279/183 453/278/183 445/277/183
f 438/280/184 439/279/184 452/278/184 453/277/184
f 439/280/7 440/279/7 451/278/7 452/277/7
f 440/280/162 441/279/162 450/278/162 451/277/162
f 441/280/101 442/279/101 449/278/101 450/277/101
f 442/280/185 443/279/185 448/278/185 449/277/185
f 443/280/101 444/279/101 447/278/101 448/277/101
f 444/280/186 436/279/186 446/278/186 447/277/186
f 436/280/161 437/279/161 445/278/161 446/277/161
f 454/296/7 455/297/7 456/298/7
f 454/296/7 456/298/7 457/299/7
f 454/296/7 457/299/7 458/300/7
f 458/300/7 459/301/7 454/296/7
f 460/297/101 461/296/101 462/301/101
f 460/297/101 462/301/101 463/300/101
f 460/297/101 463/300/101 464/299/101
f 464/299/101 465/298/101 460/297/101
f 460/277/171 465/302/171 456/303/171 455/280/171
f 465/302/6 464/304/6 457/305/6 456/303/6
f 464/304/172 463/306/172 458/307/172 457/305/172
f 463/306/173 462/308/173 459/309/173 458/307/173
f 462/308/5 461/310/5 454/311/5 459/309/5
f 461/310/174 460/278/174 455/279/174 454/311/174
f 466/312/7 467/297/7 468/313/7
f 466/312/7 468/313/7 469/306/7
f 466/312/7 469/306/7 470/314/7
f 466/312/7 470/314/7 471/300/7
f 466/312/7 471/300/7 472/315/7
f 472/315/7 473/307/7 466/312/7
f 474/297/101 475/312/101 476/307/101
f 474/297/101 476/307/101 477/315/101
f 474/297/101 477/315/101 478/300/101
f 474/297/101 478/300/101 479/314/101
f 474/297/101 479/314/101 480/306/101
f 480/306/101 481/313/101 474/297/101
f 474/277/175 481/316/175 468/317/175 467/280/175
f 481/316/176 480/318/176 469/319/176 468/317/176
f 480/318/177 479/320/177 470/321/177 469/319/177
f 479/320/178 478/306/178 471/307/178 470/321/178
f 478/306/179 477/322/179 472/323/179 471/307/179
f 477/322/180 476/324/180 473/325/180 472/323/180
f 476/324/181 475/326/181 466/327/181 473/325/181
f 475/326/182 474/278/182 467/279/182 466/327/182
f 482/296/7 483/297/7 484/298/7
f 482/296/7 484/298/7 485/299/7
f 482/296/7 485/299/7 486/300/7
f 486/300/7 487/301/7 482/296/7
f 488/297/101 489/296/101 490/301/101
f 488/297/101 490/301/101 491/300/101
f 488/297/101 491/300/101 492/299/101
f 492/299/101 493/298/101 488/297/101
f 488/277/171 493/302/171 484/303/171 483/280/171
f 493/302/6 492/304/6 485/305/6 484/303/6
f 492/304/172 491/306/172 486/307/172 485/305/172
f 491/306/173 490/308/173 487/309/173 486/307/173
f 490/308/5 489/310/5 482/311/5 487/309/5
f 489/310/174 488/278/174 483/279/174 482/311/174
f 494/296/7 495/297/7 496/298/7
f 494/296/7 496/298/7 497/299/7
f 494/296/7 497/299/7 498/300/7
f 498/300/7 499/301/7 494/296/7
f 500/297/101 501/296/101 502/301/101
f 500/297/101 502/301/101 503/300/101
f 500/297/101 503/300/101 504/299/101
f 504/299/101 505/298/101 500/297/101
f 500/277/171 505/302/171 496/303/171 495/280/171
f 505/302/6 504/304/6 497/305/6 496/303/6
f 504/304/172 503/306/172 498/307/172 497/305/172
f 503/306/173 502/308/173 499/309/173 498/307/173
f 502/308/5 501/310/5 494/311/5 499/309/5
f 501/310/174 500/278/174 495/279/174 494/311/174
g rail_left
usemtl mat
f 506/328/162 507/329/162 508/330/162 509/331/162
f 507/329/187 510/332/187 511/333/187 508/330/187
f 510/332/188 512/334/188 513/335/188 511/333/188
f 512/334/189 514/336/189 515/337/189 513/335/189
f 514/336/190 516/338/190 517/339/190 515/337/190
f 516/338/162 518/340/162 519/341/162 517/339/162
f 518/340/191 520/342/191 521/343/191 519/341/191
f 520/342/192 522/344/192 523/345/192 521/343/192
f 522/344/193 524/346/193 525/347/193 523/345/193
f 524/346/194 526/348/194 527/349/194 525/347/194
f 526/348/162 528/350/162 529/351/162 527/349/162
f 528/350/195 530/352/195 531/353/195 529/351/195
f 530/354/196 532/355/196 533/356/196 531/357/196
f 532/355/101 534/358/101 535/359/101 533/356/101
f 534/358/197 536/360/197 537/361/197 535/359/197
f 536/352/198 538/350/198 539/351/198 537/353/198
f 538/350/161 540/348/161 541/349/161 539/351/161
f 540/348/199 542/346/199 543/347/199 541/349/199
f 542/346/200 544/344/200 545/345/200 543/347/200
f 544/344/201 546/342/201 547/343/201 545/345/201
f 546/342/202 548/340/202 549/341/202 547/343/202
f 548/340/161 550/338/161 551/339/161 549/341/161
f 550/338/203 552/336/203 553/337/203 551/339/203
f 552/336/204 554/334/204 555/335/204 553/337/204
f 554/334/205 556/332/205 557/333/205 555/335/205
f 556/332/206 558/329/206 559/330/206 557/333/206
f 558/329/161 560/328/161 561/331/161 559/330/161
f 560/328/7 506/362/7 509/363/7 561/331/7
g rail_left_end
usemtl mat
f 506/364/5 560/365/5 558/366/5
f 506/364/5 558/366/5 556/367/5
f 506/364/5 556/367/5 554/368/5
f 506/364/5 554/368/5 552/369/5
f 546/370/5 544/371/5 542/372/5
f 546/370/5 542/372/5 540/373/5
f 546/370/5 540/373/5 538/374/5
f 546/370/5 538/374/5 536/375/5
f 546/370/5 536/375/5 534/376/5
f 548/377/5 546/370/5 534/376/5
f 548/377/5 534/376/5 532/378/5
f 548/377/5 532/378/5 530/379/5
f 548/377/5 530/379/5 528/380/5
f 548/377/5 528/380/5 526/381/5
f 548/377/5 526/381/5 524/382/5
f 524/382/5 522/383/5 520/384/5
f 548/377/5 524/382/5 520/384/5
f 548/377/5 520/384/5 518/385/5
f 550/386/5 548/377/5 518/385/5
f 552/369/5 550/386/5 518/385/5
f 552/369/5 518/385/5 516/387/5
f 552/369/5 516/387/5 514/388/5
f 552/369/5 514/388/5 512/389/5
f 506/364/5 552/369/5 512/389/5
f 506/364/5 512/389/5 510/390/5
f 510/390/5 507/391/5 506/364/5
f 561/365/6 509/364/6 508/391/6
f 561/365/6 508/391/6 511/390/6
f 561/365/6 511/390/6 513/389/6
f 561/365/6 513/389/6 515/388/6
f 521/384/6 523/383/6 525/382/6
f 521/384/6 525/382/6 527/381/6
f 521/384/6 527/381/6 529/380/6
f 521/384/6 529/380/6 531/379/6
f 521/384/6 531/379/6 533/378/6
f 519/385/6 521/384/6 533/378/6
f 519/385/6 533/378/6 535/376/6
f 519/385/6 535/376/6 537/375/6
f 519/385/6 537/375/6 539/374/6
f 519/385/6 539/374/6 541/373/6
f 519/385/6 541/373/6 543/372/6
f 543/372/6 545/371/6 547/370/6
f 519/385/6 543/372/6 547/370/6
f 519/385/6 547/370/6 549/377/6
f 517/387/6 519/385/6 549/377/6
f 515/388/6 517/387/6 549/377/6
f 515/388/6 549/377/6 551/386/6
f 515/388/6 551/386/6 553/369/6
f 515/388/6 553/369/6 555/368/6
f 561/365/6 515/388/6 555/368/6
f 561/365/6 555/368/6 557/367/6
f 557/367/6 559/366/6 561/365/6
g fastener_right
usemtl mat
f 562/245/7 563/246/7 564/247/7
f 562/245/7 564/247/7 565/248/7
f 562/245/7 565/248/7 566/249/7
f 562/245/7 566/249/7 567/250/7
f 562/245/7 567/250/7 568/251/7
f 568/251/7 569/252/7 562/245/7
f 570/253/5 571/254/5 564/255/5 563/256/5
f 571/253/163 572/254/163 565/255/163 564/256/163
f 572/253/162 573/254/162 566/255/162 565/256/162
f 573/253/164 574/254/164 567/255/164 566/256/164
f 574/253/6 575/254/6 568/255/6 567/256/6
f 575/253/165 576/254/165 569/255/165 568/256/165
f 576/253/161 577/254/161 562/255/161 569/256/161
f 577/253/166 570/254/166 563/255/166 562/256/166
f 578/257/101 579/258/101 580/259/101
f 578/257/101 580/259/101 581/260/101
f 578/257/101 581/260/101 582/261/101
f 578/257/101 582/261/101 583/262/101
f 578/257/101 583/262/101 584/263/101
f 584/263/101 585/264/101 578/257/101
f 578/265/5 585/266/5 586/267/5 587/268/5
f 585/265/163 584/266/163 588/267/163 586/268/163
f 584/265/162 583/266/162 589/267/162 588/268/162
f 583/265/164 582/266/164 590/267/164 589/268/164
f 582/265/6 581/266/6 591/267/6 590/268/6
f 581/265/165 580/266/165 592/267/165 591/268/165
f 580/265/161 579/266/161 593/267/161 592/268/161
f 579/265/166 578/266/166 587/267/166 593/268/166
f 594/269/7 595/270/7 596/271/7
f 594/269/7 596/271/7 597/272/7
f 594/269/7 597/272/7 598/273/7
f 594/269/7 598/273/7 599/274/7
f 594/269/7 599/274/7 600/275/7
f 600/275/7 601/276/7 594/269/7
f 602/270/101 603/269/101 604/276/101
f 602/270/101 604/276/101 605/275/101
f 602/270/101 605/275/101 606/274/101
f 602/270/101 606/274/101 607/273/101
f 602/270/101 607/273/101 608/272/101
f 608/272/101 609/271/101 602/270/101
f 602/277/5 609/278/5 596/279/5 595/280/5
f 609/277/163 608/278/163 597/279/163 596/280/163
f 608/277/162 607/278/162 598/279/162 597/280/162
f 607/277/164 606/278/164 599/279/164 598/280/164
f 606/277/6 605/278/6 600/279/6 599/280/6
f 605/277/165 604/278/165 601/279/165 600/280/165
f 604/277/161 603/278/161 594/279/161 601/280/161
f 603/277/166 602/278/166 595/279/166 594/280/166
f 610/281/7 611/282/7 612/283/7
f 610/281/7 612/283/7 613/284/7
f 610/281/7 613/284/7 614/285/7
f 610/281/7 614/285/7 615/286/7
f 610/281/7 615/286/7 616/287/7
f 616/287/7 617/288/7 610/281/7
f 618/282/101 619/281/101 620/288/101
f 618/282/101 620/288/101 621/287/101
f 618/282/101 621/287/101 622/286/101
f 618/282/101 622/286/101 623/285/101
f 618/282/101 623/285/101 624/284/101
f 624/284/101 625/283/101 618/282/101
f 618/253/5 625/254/5 612/255/5 611/256/5
f 625/253/163 624/254/163 613/255/163 612/256/163
f 624/253/162 623/254/162 614/255/162 613/256/162
f 623/253/164 622/254/164 615/255/164 614/256/164
f 622/253/6 621/254/6 616/255/6 615/256/6
f 621/253/165 620/254/165 617/255/165 616/256/165
f 620/253/161 619/254/161 610/255/161 617/256/161
f 619/253/166 618/254/166 611/255/166 610/256/166
f 626/289/6 627/277/6 628/290/6
f 626/289/6 628/290/6 629/291/6
f 626/289/6 629/291/6 630/292/6
f 630/292/6 631/293/6 632/279/6
f 626/289/6 630/292/6 632/279/6
f 632/279/6 633/294/6 634/295/6
f 632/279/6 634/295/6 626/289/6
f 635/277/5 636/289/5 637/295/5
f 637/295/5 638/294/5 639/279/5
f 635/277/5 637/295/5 639/279/5
f 639/279/5 640/293/5 641/292/5
f 639/279/5 641/292/5 642/291/5
f 639/279/5 642/291/5 643/290/5
f 639/279/5 643/290/5 635/277/5
f 636/277/167 637/278/167 634/279/167 626/280/167
f 637/277/168 638/278/168 633/279/168 634/280/168
f 638/277/7 639/278/7 632/279/7 633/280/7
f 639/277/161 640/278/161 631/279/161 632/280/161
f 640/277/101 641/278/101 630/279/101 631/280/101
f 641/277/169 642/278/169 629/279/169 630/280/169
f 642/277/101 643/278/101 628/279/101 629/280/101
f 643/277/170 635/278/170 627/279/170 628/280/170
f 635/277/162 636/278/162 626/279/162 627/280/162
f 644/296/7 645/297/7 646/298/7
f 644/296/7 646/298/7 647/299/7
f 644/296/7 647/299/7 648/300/7
f 648/300/7 649/301/7 644/296/7
f 650/297/101 651/296/101 652/301/101
f 650/297/101 652/301/101 653/300/101
f 650/297/101 653/300/101 654/299/101
f 654/299/101 655/298/101 650/297/101
f 650/277/171 655/302/171 646/303/171 645/280/171
f 655/302/6 654/304/6 647/305/6 646/303/6
f 654/304/172 653/306/172 648/307/172 647/305/172
f 653/306/173 652/308/173 649/309/173 648/307/173
f 652/308/5 651/310/5 644/311/5 649/309/5
f 651/310/174 650/278/174 645/279/174 644/311/174
f 656/312/7 657/297/7 658/313/7
f 656/312/7 658/313/7 659/306/7
f 656/312/7 659/306/7 660/314/7
f 656/312/7 660/314/7 661/300/7
f 656/312/7 661/300/7 662/315/7
f 662/315/7 663/307/7 656/312/7
f 664/297/101 665/312/101 666/307/101
f 664/297/101 666/307/101 667/315/101
f 664/297/101 667/315/101 668/300/101
f 664/297/101 668/300/101 669/314/101
f 664/297/101 669/314/101 670/306/101
f 670/306/101 671/313/101 664/297/101
f 664/277/175 671/316/175 658/317/175 657/280/175
f 671/316/176 670/318/176 659/319/176 658/317/176
f 670/318/177 669/320/177 660/321/177 659/319/177
f 669/320/178 668/306/178 661/307/178 660/321/178
f 668/306/179 667/322/179 662/323/179 661/307/179
f 667/322/180 666/324/180 663/325/180 662/323/180
f 666/324/181 665/326/181 656/327/181 663/325/181
f 665/326/182 664/278/182 657/279/182 656/327/182
f 672/296/7 673/297/7 674/298/7
f 672/296/7 674/298/7 675/299/7
f 672/296/7 675/299/7 676/300/7
f 676/300/7 677/301/7 672/296/7
f 678/297/101 679/296/101 680/301/101
f 678/297/101 680/301/101 681/300/101
f 678/297/101 681/300/101 682/299/101
f 682/299/101 683/298/101 678/297/101
f 678/277/171 683/302/171 674/303/171 673/280/171
f 683/302/6 682/304/6 675/305/6 674/303/6
f 682/304/172 681/306/172 676/307/172 675/305/172
f 681/306/173 680/308/173 677/309/173 676/307/173
f 680/308/5 679/310/5 672/311/5 677/309/5
f 679/310/174 678/278/174 673/279/174 672/311/174
f 684/296/7 685/297/7 686/298/7
f 684/296/7 686/298/7 687/299/7
f 684/296/7 687/299/7 688/300/7
f 688/300/7 689/301/7 684/296/7
f 690/297/101 691/296/101 692/301/101
f 690/297/101 692/301/101 693/300/101
f 690/297/101 693/300/101 694/299/101
f 694/299/101 695/298/101 690/297/101
f 690/277/171 695/302/171 686/303/171 685/280/171
f 695/302/6 694/304/6 687/305/6 686/303/6
f 694/304/172 693/306/172 688/307/172 687/305/172
f 693/306/173 692/308/173 689/309/173 688/307/173
f 692/308/5 691/310/5 684/311/5 689/309/5
f 691/310/174 690/278/174 685/279/174 684/311/174
f 696/269/7 697/270/7 698/271/7
f 696/269/7 698/271/7 699/272/7
f 696/269/7 699/272/7 700/273/7
f 696/269/7 700/273/7 701/274/7
f 696/269/7 701/274/7 702/275/7
f 702/275/7 703/276/7 696/269/7
f 704/270/101 705/269/101 706/276/101
f 704/270/101 706/276/101 707/275/101
f 704/270/101 707/275/101 708/274/101
f 704/270/101 708/274/101 709/273/101
f 704/270/101 709/273/101 710/272/101
f 710/272/101 711/271/101 704/270/101
f 704/277/5 711/278/5 698/279/5 697/280/5
f 711/277/163 710/278/163 699/279/163 698/280/163
f 710/277/162 709/278/162 700/279/162 699/280/162
f 709/277/164 708/278/164 701/279/164 700/280/164
f 708/277/6 707/278/6 702/279/6 701/280/6
f 707/277/165 706/278/165 703/279/165 702/280/165
f 706/277/161 705/278/161 696/279/161 703/280/161
f 705/277/166 704/278/166 697/279/166 696/280/166
f 712/281/7 713/282/7 714/283/7
f 712/281/7 714/283/7 715/284/7
f 712/281/7 715/284/7 716/285/7
f 712/281/7 716/285/7 717/286/7
f 712/281/7 717/286/7 718/287/7
f 718/287/7 719/288/7 712/281/7
f 720/282/101 721/281/101 722/288/101
f 720/282/101 722/288/101 723/287/101
f 720/282/101 723/287/101 724/286/101
f 720/282/101 724/286/101 725/285/101
f 720/282/101 725/285/101 726/284/101
f 726/284/101 727/283/101 720/282/101
f 720/253/5 727/254/5 714/255/5 713/256/5
f 727/253/163 726/254/163 715/255/163 714/256/163
f 726/253/162 725/254/162 716/255/162 715/256/162
f 725/253/164 724/254/164 717/255/164 716/256/164
f 724/253/6 723/254/6 718/255/6 717/256/6
f 723/253/165 722/254/165 719/255/165 718/256/165
f 722/253/161 721/254/161 712/255/161 719/256/161
f 721/253/166 720/254/166 713/255/166 712/256/166
f 728/277/6 729/289/6 730/295/6
f 730/295/6 731/294/6 732/279/6
f 728/277/6 730/295/6 732/279/6
f 732/279/6 733/293/6 734/292/6
f 732/279/6 734/292/6 735/291/6
f 732/279/6 735/291/6 736/290/6
f 732/279/6 736/290/6 728/277/6
f 737/289/5 738/277/5 739/290/5
f 737/289/5 739/290/5 740/291/5
f 737/289/5 740/291/5 741/292/5
f 741/292/5 742/293/5 743/279/5
f 737/289/5 741/292/5 743/279/5
f 743/279/5 744/294/5 745/295/5
f 743/279/5 745/295/5 737/289/5
f 729/280/183 730/279/183 745/278/183 737/277/183
f 730/280/184 731/279/184 744/278/184 745/277/184
f 731/280/7 732/279/7 743/278/7 744/277/7
f 732/280/162 733/279/162 742/278/162 743/277/162
f 733/280/101 734/279/101 741/278/101 742/277/101
f 734/280/185 735/279/185 740/278/185 741/277/185
f 735/280/101 736/279/101 739/278/101 740/277/101
f 736/280/186 728/279/186 738/278/186 739/277/186
f 728/280/161 729/279/161 737/278/161 738/277/161
f 746/296/7 747/297/7 748/298/7
f 746/296/7 748/298/7 749/299/7
f 746/296/7 749/299/7 750/300/7
f 750/300/7 751/301/7 746/296/7
f 752/297/101 753/296/101 754/301/101
f 752/297/101 754/301/101 755/300/101
f 752/297/101 755/300/101 756/299/101
f 756/299/101 757/298/101 752/297/101
f 752/277/171 757/302/171 748/303/171 747/280/171
f 757/302/6 756/304/6 749/305/6 748/303/6
f 756/304/172 755/306/172 750/307/172 749/305/172
f 755/306/173 754/308/173 751/309/173 750/307/173
f 754/308/5 753/310/5 746/311/5 751/309/5
f 753/310/174 752/278/174 747/279/174 746/311/174
f 758/312/7 759/297/7 760/313/7
f 758/312/7 760/313/7 761/306/7
f 758/312/7 761/306/7 762/314/7
f 758/312/7 762/314/7 763/300/7
f 758/312/7 763/300/7 764/315/7
f 764/315/7 765/307/7 758/312/7
f 766/297/101 767/312/101 768/307/101
f 766/297/101 768/307/101 769/315/101
f 766/297/101 769/315/101 770/300/101
f 766/297/101 770/300/101 771/314/101
f 766/297/101 771/314/101 772/306/101
f 772/306/101 773/313/101 766/297/101
f 766/277/175 773/316/175 760/317/175 759/280/175
f 773/316/176 772/318/176 761/319/176 760/317/176
f 772/318/177 771/320/177 762/321/177 761/319/177
f 771/320/178 770/306/178 763/307/178 762/321/178
f 770/306/179 769/322/179 764/323/179 763/307/179
f 769/322/180 768/324/180 765/325/180 764/323/180
f 768/324/181 767/326/181 758/327/181 765/325/181
f 767/326/182 766/278/182 759/279/182 758/327/182
f 774/296/7 775/297/7 776/298/7
f 774/296/7 776/298/7 777/299/7
f 774/296/7 777/299/7 778/300/7
f 778/300/7 779/301/7 774/296/7
f 780/297/101 781/296/101 782/301/101
f 780/297/101 782/301/101 783/300/101
f 780/297/101 783/300/101 784/299/101
f 784/299/101 785/298/101 780/297/101
f 780/277/171 785/302/171 776/303/171 775/280/171
f 785/302/6 784/304/6 777/305/6 776/303/6
f 784/304/172 783/306/172 778/307/172 777/305/172
f 783/306/173 782/308/173 779/309/173 778/307/173
f 782/308/5 781/310/5 774/311/5 779/309/5
f 781/310/174 780/278/174 775/279/174 774/311/174
f 786/296/7 787/297/7 788/298/7
f 786/296/7 788/298/7 789/299/7
f 786/296/7 789/299/7 790/300/7
f 790/300/7 791/301/7 786/296/7
f 792/297/101 793/296/101 794/301/101
f 792/297/101 794/301/101 795/300/101
f 792/297/101 795/300/101 796/299/101
f 796/299/101 797/298/101 792/297/101
f 792/277/171 797/302/171 788/303/171 787/280/171
f 797/302/6 796/304/6 789/305/6 788/303/6
f 796/304/172 795/306/172 790/307/172 789/305/172
f 795/306/173 794/308/173 791/309/173 790/307/173
f 794/308/5 793/310/5 786/311/5 791/309/5
f 793/310/174 792/278/174 787/279/174 786/311/174
g rail_right
usemtl mat
f 798/328/162 799/329/162 800/330/162 801/331/162
f 799/329/187 802/332/187 803/333/187 800/330/187
f 802/332/188 804/334/188 805/335/188 803/333/188
f 804/334/189 806/336/189 807/337/189 805/335/189
f 806/336/190 808/338/190 809/339/190 807/337/190
f 808/338/162 810/340/162 811/341/162 809/339/162
f 810/340/191 812/342/191 813/343/191 811/341/191
f 812/342/192 814/344/192 815/345/192 813/343/192
f 814/344/193 816/346/193 817/347/193 815/345/193
f 816/346/194 818/348/194 819/349/194 817/347/194
f 818/348/162 820/350/162 821/351/162 819/349/162
f 820/350/195 822/352/195 823/353/195 821/351/195
f 822/354/196 824/355/196 825/356/196 823/357/196
f 824/355/101 826/358/101 827/359/101 825/356/101
f 826/358/197 828/360/197 829/361/197 827/359/197
f 828/352/198 830/350/198 831/351/198 829/353/198
f 830/350/161 832/348/161 833/349/161 831/351/161
f 832/348/199 834/346/199 835/347/199 833/349/199
f 834/346/200 836/344/200 837/345/200 835/347/200
f 836/344/201 838/342/201 839/343/201 837/345/201
f 838/342/202 840/340/202 841/341/202 839/343/202
f 840/340/161 842/338/161 843/339/161 841/341/161
f 842/338/203 844/336/203 845/337/203 843/339/203
f 844/336/204 846/334/204 847/335/204 845/337/204
f 846/334/205 848/332/205 849/333/205 847/335/205
f 848/332/206 850/329/206 851/330/206 849/333/206
f 850/329/161 852/328/161 853/331/161 851/330/161
f 852/328/7 798/362/7 801/363/7 853/331/7
g rail_right_end
usemtl mat
f 798/364/5 852/365/5 850/366/5
f 798/364/5 850/366/5 848/367/5
f 798/364/5 848/367/5 846/368/5
f 798/364/5 846/368/5 844/369/5
f 838/370/5 836/371/5 834/372/5
f 838/370/5 834/372/5 832/373/5
f 838/370/5 832/373/5 830/374/5
f 838/370/5 830/374/5 828/375/5
f 838/370/5 828/375/5 826/376/5
f 840/377/5 838/370/5 826/376/5
f 840/377/5 826/376/5 824/378/5
f 840/377/5 824/378/5 822/379/5
f 840/377/5 822/379/5 820/380/5
f 840/377/5 820/380/5 818/381/5
f 840/377/5 818/381/5 816/382/5
f 816/382/5 814/383/5 812/384/5
f 840/377/5 816/382/5 812/384/5
f 840/377/5 812/384/5 810/385/5
f 842/386/5 840/377/5 810/385/5
f 844/369/5 842/386/5 810/385/5
f 844/369/5 810/385/5 808/387/5
f 844/369/5 808/387/5 806/388/5
f 844/369/5 806/388/5 804/389/5
f 798/364/5 844/369/5 804/389/5
f 798/364/5 804/389/5 802/390/5
f 802/390/5 799/391/5 798/364/5
f 853/365/6 801/364/6 800/391/6
f 853/365/6 800/391/6 803/390/6
f 853/365/6 803/390/6 805/389/6
f 853/365/6 805/389/6 807/388/6
f 813/384/6 815/383/6 817/382/6
f 813/384/6 817/382/6 819/381/6
f 813/384/6 819/381/6 821/380/6
f 813/384/6 821/380/6 823/379/6
f 813/384/6 823/379/6 825/378/6
f 811/385/6 813/384/6 825/378/6
f 811/385/6 825/378/6 827/376/6
f 811/385/6 827/376/6 829/375/6
f 811/385/6 829/375/6 831/374/6
f 811/385/6 831/374/6 833/373/6
f 811/385/6 833/373/6 835/372/6
f 835/372/6 837/371/6 839/370/6
f 811/385/6 835/372/6 839/370/6
f 811/385/6 839/370/6 841/377/6
f 809/387/6 811/385/6 841/377/6
f 807/388/6 809/387/6 841/377/6
f 807/388/6 841/377/6 843/386/6
f 807/388/6 843/386/6 845/369/6
f 807/388/6 845/369/6 847/368/6
f 853/365/6 807/388/6 847/368/6
f 853/365/6 847/368/6 849/367/6
f 849/367/6 851/366/6 853/365/6
