# metres; Y up; CCW outward; repeat 0.6 m
mtllib slab_low.mtl
v -1.550000 0.081922 0.300000
v -1.510000 0.081922 0.300000
v -1.510000 0.081922 -0.300000
v -1.550000 0.081922 -0.300000
v -1.550000 -0.268078 -0.300000
v -1.510000 -0.268078 -0.300000
v -1.510000 -0.268078 0.300000
v -1.550000 -0.268078 0.300000
v -1.080000 0.081922 0.300000
v -1.080000 0.081922 -0.300000
v -1.080000 -0.268078 -0.300000
v -1.080000 -0.268078 0.300000
v -1.040000 0.081922 0.300000
v -1.040000 0.081922 -0.300000
v -1.040000 -0.268078 -0.300000
v -1.040000 -0.268078 0.300000
v -0.480000 0.081922 0.300000
v -0.480000 0.081922 -0.300000
v -0.480000 -0.268078 -0.300000
v -0.480000 -0.268078 0.300000
v -0.440000 0.081922 0.300000
v -0.440000 0.081922 -0.300000
v -0.440000 -0.268078 -0.300000
v -0.440000 -0.268078 0.300000
v 0.440000 0.081922 0.300000
v 0.440000 0.081922 -0.300000
v 0.440000 -0.268078 -0.300000
v 0.440000 -0.268078 0.300000
v 0.480000 0.081922 0.300000
v 0.480000 0.081922 -0.300000
v 0.480000 -0.268078 -0.300000
v 0.480000 -0.268078 0.300000
v 1.040000 0.081922 0.300000
v 1.040000 0.081922 -0.300000
v 1.040000 -0.268078 -0.300000
v 1.040000 -0.268078 0.300000
v 1.080000 0.081922 0.300000
v 1.080000 0.081922 -0.300000
v 1.080000 -0.268078 -0.300000
v 1.080000 -0.268078 0.300000
v 1.510000 0.081922 0.300000
v 1.510000 0.081922 -0.300000
v 1.510000 -0.268078 -0.300000
v 1.510000 -0.268078 0.300000
v 1.550000 0.081922 0.300000
v 1.550000 0.081922 -0.300000
v 1.550000 -0.268078 -0.300000
v 1.550000 -0.268078 0.300000
v -1.091500 0.081922 -0.107000
v -1.076500 0.097422 -0.107000
v -1.036500 0.127422 -0.107000
v -0.996500 0.127422 -0.107000
v -0.956500 0.085422 -0.107000
v -0.546500 0.085422 -0.107000
v -0.506500 0.127422 -0.107000
v -0.466500 0.127422 -0.107000
v -0.426500 0.097422 -0.107000
v -0.411500 0.081922 -0.107000
v -0.411500 0.081922 0.107000
v -0.426500 0.097422 0.107000
v -0.466500 0.127422 0.107000
v -0.506500 0.127422 0.107000
v -0.546500 0.085422 0.107000
v -1.091500 0.081922 0.107000
v -0.956500 0.085422 0.107000
v -1.076500 0.097422 0.107000
v -0.996500 0.127422 0.107000
v -1.036500 0.127422 0.107000
v 0.411500 0.081922 -0.107000
v 0.426500 0.097422 -0.107000
v 0.466500 0.127422 -0.107000
v 0.506500 0.127422 -0.107000
v 0.546500 0.085422 -0.107000
v 0.956500 0.085422 -0.107000
v 0.996500 0.127422 -0.107000
v 1.036500 0.127422 -0.107000
v 1.076500 0.097422 -0.107000
v 1.091500 0.081922 -0.107000
v 1.091500 0.081922 0.107000
v 1.076500 0.097422 0.107000
v 1.036500 0.127422 0.107000
v 0.996500 0.127422 0.107000
v 0.956500 0.085422 0.107000
v 0.411500 0.081922 0.107000
v 0.546500 0.085422 0.107000
v 0.426500 0.097422 0.107000
v 0.506500 0.127422 0.107000
v 0.466500 0.127422 0.107000
v -0.827500 0.085422 -0.107000
v -0.675500 0.085422 -0.107000
v -0.675500 0.085422 0.107000
v -0.827500 0.085422 0.107000
v -0.827500 0.095422 -0.107000
v -0.675500 0.095422 -0.107000
v -0.675500 0.095422 0.107000
v -0.827500 0.095422 0.107000
v -0.826500 0.099422 0.106000
v -0.676500 0.099422 0.106000
v -0.676500 0.099422 -0.106000
v -0.826500 0.099422 -0.106000
v -0.676500 0.095422 -0.106000
v -0.826500 0.095422 -0.106000
v -0.676500 0.095422 0.106000
v -0.826500 0.095422 0.106000
v -0.896500 0.109422 0.105000
v -0.606500 0.109422 0.105000
v -0.606500 0.109422 -0.105000
v -0.896500 0.109422 -0.105000
v -0.606500 0.099422 -0.105000
v -0.896500 0.099422 -0.105000
v -0.606500 0.099422 0.105000
v -0.896500 0.099422 0.105000
v -0.946500 0.085422 -0.103000
v -0.820500 0.085422 -0.103000
v -0.820500 0.085422 0.103000
v -0.946500 0.085422 0.103000
v -0.946500 0.095422 0.103000
v -0.820500 0.095422 0.103000
v -0.820500 0.095422 -0.103000
v -0.946500 0.095422 -0.103000
v -0.950500 0.095422 -0.107000
v -0.934500 0.095422 -0.107000
v -0.934500 0.095422 0.107000
v -0.950500 0.095422 0.107000
v -0.950500 0.126422 0.107000
v -0.934500 0.126422 0.107000
v -0.934500 0.126422 -0.107000
v -0.950500 0.126422 -0.107000
v -0.682500 0.085422 -0.103000
v -0.556500 0.085422 -0.103000
v -0.556500 0.085422 0.103000
v -0.682500 0.085422 0.103000
v -0.682500 0.095422 0.103000
v -0.556500 0.095422 0.103000
v -0.556500 0.095422 -0.103000
v -0.682500 0.095422 -0.103000
v -0.568500 0.095422 -0.107000
v -0.552500 0.095422 -0.107000
v -0.552500 0.095422 0.107000
v -0.568500 0.095422 0.107000
v -0.568500 0.126422 0.107000
v -0.552500 0.126422 0.107000
v -0.552500 0.126422 -0.107000
v -0.568500 0.126422 -0.107000
v -0.681500 0.099422 -0.300000
v -0.681500 0.108000 -0.300000
v -0.681500 0.108000 0.300000
v -0.681500 0.099422 0.300000
v -0.687500 0.113000 -0.300000
v -0.687500 0.113000 0.300000
v -0.725500 0.124000 -0.300000
v -0.725500 0.124000 0.300000
v -0.739500 0.134000 -0.300000
v -0.739500 0.134000 0.300000
v -0.742500 0.145000 -0.300000
v -0.742500 0.145000 0.300000
v -0.742500 0.207000 -0.300000
v -0.742500 0.207000 0.300000
v -0.738500 0.219000 -0.300000
v -0.738500 0.219000 0.300000
v -0.724500 0.225000 -0.300000
v -0.724500 0.225000 0.300000
v -0.718500 0.231000 -0.300000
v -0.718500 0.231000 0.300000
v -0.717500 0.239000 -0.300000
v -0.717500 0.239000 0.300000
v -0.717500 0.254000 -0.300000
v -0.717500 0.254000 0.300000
v -0.719500 0.260000 -0.300000
v -0.719500 0.260000 0.300000
v -0.725500 0.264280 -0.300000
v -0.725500 0.264280 0.300000
v -0.777500 0.264280 -0.300000
v -0.777500 0.264280 0.300000
v -0.783500 0.260000 -0.300000
v -0.783500 0.260000 0.300000
v -0.785500 0.254000 -0.300000
v -0.785500 0.254000 0.300000
v -0.785500 0.239000 -0.300000
v -0.785500 0.239000 0.300000
v -0.784500 0.231000 -0.300000
v -0.784500 0.231000 0.300000
v -0.778500 0.225000 -0.300000
v -0.778500 0.225000 0.300000
v -0.764500 0.219000 -0.300000
v -0.764500 0.219000 0.300000
v -0.760500 0.207000 -0.300000
v -0.760500 0.207000 0.300000
v -0.760500 0.145000 -0.300000
v -0.760500 0.145000 0.300000
v -0.763500 0.134000 -0.300000
v -0.763500 0.134000 0.300000
v -0.777500 0.124000 -0.300000
v -0.777500 0.124000 0.300000
v -0.815500 0.113000 -0.300000
v -0.815500 0.113000 0.300000
v -0.821500 0.108000 -0.300000
v -0.821500 0.108000 0.300000
v -0.821500 0.099422 -0.300000
v -0.821500 0.099422 0.300000
v 0.675500 0.085422 -0.107000
v 0.827500 0.085422 -0.107000
v 0.827500 0.085422 0.107000
v 0.675500 0.085422 0.107000
v 0.675500 0.095422 -0.107000
v 0.827500 0.095422 -0.107000
v 0.827500 0.095422 0.107000
v 0.675500 0.095422 0.107000
v 0.676500 0.099422 0.106000
v 0.826500 0.099422 0.106000
v 0.826500 0.099422 -0.106000
v 0.676500 0.099422 -0.106000
v 0.826500 0.095422 -0.106000
v 0.676500 0.095422 -0.106000
v 0.826500 0.095422 0.106000
v 0.676500 0.095422 0.106000
v 0.606500 0.109422 0.105000
v 0.896500 0.109422 0.105000
v 0.896500 0.109422 -0.105000
v 0.606500 0.109422 -0.105000
v 0.896500 0.099422 -0.105000
v 0.606500 0.099422 -0.105000
v 0.896500 0.099422 0.105000
v 0.606500 0.099422 0.105000
v 0.556500 0.085422 -0.103000
v 0.682500 0.085422 -0.103000
v 0.682500 0.085422 0.103000
v 0.556500 0.085422 0.103000
v 0.556500 0.095422 0.103000
v 0.682500 0.095422 0.103000
v 0.682500 0.095422 -0.103000
v 0.556500 0.095422 -0.103000
v 0.552500 0.095422 -0.107000
v 0.568500 0.095422 -0.107000
v 0.568500 0.095422 0.107000
v 0.552500 0.095422 0.107000
v 0.552500 0.126422 0.107000
v 0.568500 0.126422 0.107000
v 0.568500 0.126422 -0.107000
v 0.552500 0.126422 -0.107000
v 0.820500 0.085422 -0.103000
v 0.946500 0.085422 -0.103000
v 0.946500 0.085422 0.103000
v 0.820500 0.085422 0.103000
v 0.820500 0.095422 0.103000
v 0.946500 0.095422 0.103000
v 0.946500 0.095422 -0.103000
v 0.820500 0.095422 -0.103000
v 0.934500 0.095422 -0.107000
v 0.950500 0.095422 -0.107000
v 0.950500 0.095422 0.107000
v 0.934500 0.095422 0.107000
v 0.934500 0.126422 0.107000
v 0.950500 0.126422 0.107000
v 0.950500 0.126422 -0.107000
v 0.934500 0.126422 -0.107000
v 0.821500 0.099422 -0.300000
v 0.821500 0.108000 -0.300000
v 0.821500 0.108000 0.300000
v 0.821500 0.099422 0.300000
v 0.815500 0.113000 -0.300000
v 0.815500 0.113000 0.300000
v 0.777500 0.124000 -0.300000
v 0.777500 0.124000 0.300000
v 0.763500 0.134000 -0.300000
v 0.763500 0.134000 0.300000
v 0.760500 0.145000 -0.300000
v 0.760500 0.145000 0.300000
v 0.760500 0.207000 -0.300000
v 0.760500 0.207000 0.300000
v 0.764500 0.219000 -0.300000
v 0.764500 0.219000 0.300000
v 0.778500 0.225000 -0.300000
v 0.778500 0.225000 0.300000
v 0.784500 0.231000 -0.300000
v 0.784500 0.231000 0.300000
v 0.785500 0.239000 -0.300000
v 0.785500 0.239000 0.300000
v 0.785500 0.254000 -0.300000
v 0.785500 0.254000 0.300000
v 0.783500 0.260000 -0.300000
v 0.783500 0.260000 0.300000
v 0.777500 0.264280 -0.300000
v 0.777500 0.264280 0.300000
v 0.725500 0.264280 -0.300000
v 0.725500 0.264280 0.300000
v 0.719500 0.260000 -0.300000
v 0.719500 0.260000 0.300000
v 0.717500 0.254000 -0.300000
v 0.717500 0.254000 0.300000
v 0.717500 0.239000 -0.300000
v 0.717500 0.239000 0.300000
v 0.718500 0.231000 -0.300000
v 0.718500 0.231000 0.300000
v 0.724500 0.225000 -0.300000
v 0.724500 0.225000 0.300000
v 0.738500 0.219000 -0.300000
v 0.738500 0.219000 0.300000
v 0.742500 0.207000 -0.300000
v 0.742500 0.207000 0.300000
v 0.742500 0.145000 -0.300000
v 0.742500 0.145000 0.300000
v 0.739500 0.134000 -0.300000
v 0.739500 0.134000 0.300000
v 0.725500 0.124000 -0.300000
v 0.725500 0.124000 0.300000
v 0.687500 0.113000 -0.300000
v 0.687500 0.113000 0.300000
v 0.681500 0.108000 -0.300000
v 0.681500 0.108000 0.300000
v 0.681500 0.099422 -0.300000
v 0.681500 0.099422 0.300000
vt 0.01062500 0.49160448
vt 0.32937500 0.49160448
vt 0.32937500 0.01585821
vt 0.01062500 0.01585821
vt 0.01765625 0.17792562
vt 0.03640625 0.49160448
vt 0.05515625 0.49160448
vt 0.07390625 0.05245408
vt 0.26609375 0.05245408
vt 0.28484375 0.49160448
vt 0.30359375 0.49160448
vt 0.32234375 0.17792562
vt 0.60837500 0.02537313
vt 0.65300000 0.02537313
vt 0.65300000 0.19664179
vt 0.60837500 0.19664179
vt 0.60837500 0.48208955
vt 0.65300000 0.48208955
vt 0.65300000 0.31082090
vt 0.60837500 0.31082090
vt 0.34062500 0.49160448
vt 0.57968750 0.49160448
vt 0.57968750 0.01585821
vt 0.34062500 0.01585821
vt 0.01062500 0.50839552
vt 0.01062500 0.53314987
vt 0.32937500 0.53314987
vt 0.32937500 0.50839552
vt 0.01062500 0.54757884
vt 0.32937500 0.54757884
vt 0.01062500 0.57932257
vt 0.32937500 0.57932257
vt 0.01062500 0.60818052
vt 0.32937500 0.60818052
vt 0.01062500 0.63992425
vt 0.32937500 0.63992425
vt 0.01062500 0.81884350
vt 0.32937500 0.81884350
vt 0.01062500 0.85347303
vt 0.32937500 0.85347303
vt 0.01062500 0.87078779
vt 0.32937500 0.87078779
vt 0.01062500 0.88810256
vt 0.32937500 0.88810256
vt 0.01062500 0.91118891
vt 0.32937500 0.91118891
vt 0.01062500 0.95447583
vt 0.32937500 0.95447583
vt 0.01062500 0.97179059
vt 0.32937500 0.97179059
vt 0.34062500 0.97014925
vt 0.34062500 0.92817164
vt 0.65937500 0.92817164
vt 0.65937500 0.97014925
vt 0.34062500 0.56436567
vt 0.65937500 0.56436567
vt 0.34062500 0.52238806
vt 0.65937500 0.52238806
vt 0.01062500 0.57500000
vt 0.32937500 0.57500000
vt 0.98937500 0.50839552
vt 0.67062500 0.50839552
vt 0.67062500 0.53314987
vt 0.68428571 0.54757884
vt 0.77080357 0.57932257
vt 0.80267857 0.60818052
vt 0.80040179 0.85347303
vt 0.76852679 0.87078779
vt 0.75486607 0.88810256
vt 0.75258929 0.91118891
vt 0.75258929 0.95447583
vt 0.75714286 0.97179059
vt 0.77080357 0.98414179
vt 0.80950893 0.81884350
vt 0.88919643 0.98414179
vt 0.90285714 0.97179059
vt 0.90741071 0.95447583
vt 0.90741071 0.91118891
vt 0.90513393 0.88810256
vt 0.89147321 0.87078779
vt 0.85959821 0.85347303
vt 0.85049107 0.81884350
vt 0.80950893 0.63992425
vt 0.85049107 0.63992425
vt 0.85732143 0.60818052
vt 0.88919643 0.57932257
vt 0.97571429 0.54757884
vt 0.98937500 0.53314987
vn -0.00000000 1.00000000 0.00000000
vn 0.00000000 -1.00000000 0.00000000
vn 0.00000000 0.00000000 -1.00000000
vn 0.00000000 0.00000000 1.00000000
vn -1.00000000 0.00000000 0.00000000
vn 1.00000000 0.00000000 0.00000000
vn 0.71860214 0.69542143 0.00000000
vn 0.60000000 0.80000000 0.00000000
vn -0.72413793 0.68965517 0.00000000
vn 0.72413793 0.68965517 0.00000000
vn -0.60000000 0.80000000 0.00000000
vn -0.71860214 0.69542143 0.00000000
vn 0.64018440 0.76822128 0.00000000
vn 0.27805808 0.96056426 0.00000000
vn 0.58123819 0.81373347 0.00000000
vn 0.96476382 0.26311741 0.00000000
vn 0.94868330 -0.31622777 0.00000000
vn 0.39391930 -0.91914503 0.00000000
vn 0.70710678 -0.70710678 0.00000000
vn 0.99227788 -0.12403473 0.00000000
vn 0.94868330 0.31622777 0.00000000
vn 0.58072468 0.81410002 0.00000000
vn -0.58072468 0.81410002 0.00000000
vn -0.94868330 0.31622777 0.00000000
vn -0.99227788 -0.12403473 0.00000000
vn -0.70710678 -0.70710678 0.00000000
vn -0.39391930 -0.91914503 0.00000000
vn -0.94868330 -0.31622777 0.00000000
vn -0.96476382 0.26311741 0.00000000
vn -0.58123819 0.81373347 0.00000000
vn -0.27805808 0.96056426 0.00000000
vn -0.64018440 0.76822128 0.00000000
g slab_bed
usemtl mat
f 1/1/1 2/2/1 3/3/1 4/4/1
f 5/4/2 6/3/2 7/2/2 8/1/2
f 4/1/3 3/2/3 6/3/3 5/4/3
f 8/4/4 7/3/4 2/2/4 1/1/4
f 2/1/1 9/2/1 10/3/1 3/4/1
f 6/4/2 11/3/2 12/2/2 7/1/2
f 3/1/3 10/2/3 11/3/3 6/4/3
f 7/4/4 12/3/4 9/2/4 2/1/4
f 9/1/1 13/2/1 14/3/1 10/4/1
f 11/4/2 15/3/2 16/2/2 12/1/2
f 10/1/3 14/2/3 15/3/3 11/4/3
f 12/4/4 16/3/4 13/2/4 9/1/4
f 13/1/1 17/2/1 18/3/1 14/4/1
f 15/4/2 19/3/2 20/2/2 16/1/2
f 14/1/3 18/2/3 19/3/3 15/4/3
f 16/4/4 20/3/4 17/2/4 13/1/4
f 17/1/1 21/2/1 22/3/1 18/4/1
f 19/4/2 23/3/2 24/2/2 20/1/2
f 18/1/3 22/2/3 23/3/3 19/4/3
f 20/4/4 24/3/4 21/2/4 17/1/4
f 21/1/1 25/2/1 26/3/1 22/4/1
f 23/4/2 27/3/2 28/2/2 24/1/2
f 22/1/3 26/2/3 27/3/3 23/4/3
f 24/4/4 28/3/4 25/2/4 21/1/4
f 25/1/1 29/2/1 30/3/1 26/4/1
f 27/4/2 31/3/2 32/2/2 28/1/2
f 26/1/3 30/2/3 31/3/3 27/4/3
f 28/4/4 32/3/4 29/2/4 25/1/4
f 29/1/1 33/2/1 34/3/1 30/4/1
f 31/4/2 35/3/2 36/2/2 32/1/2
f 30/1/3 34/2/3 35/3/3 31/4/3
f 32/4/4 36/3/4 33/2/4 29/1/4
f 33/1/1 37/2/1 38/3/1 34/4/1
f 35/4/2 39/3/2 40/2/2 36/1/2
f 34/1/3 38/2/3 39/3/3 35/4/3
f 36/4/4 40/3/4 37/2/4 33/1/4
f 37/1/1 41/2/1 42/3/1 38/4/1
f 39/4/2 43/3/2 44/2/2 40/1/2
f 38/1/3 42/2/3 43/3/3 39/4/3
f 40/4/4 44/3/4 41/2/4 37/1/4
f 41/1/1 45/2/1 46/3/1 42/4/1
f 43/4/2 47/3/2 48/2/2 44/1/2
f 42/1/3 46/2/3 47/3/3 43/4/3
f 44/4/4 48/3/4 45/2/4 41/1/4
f 8/1/5 1/2/5 4/3/5 5/4/5
f 47/4/6 46/3/6 45/2/6 48/1/6
g sleeper
usemtl mat
f 49/4/3 50/5/3 51/6/3
f 49/4/3 51/6/3 52/7/3
f 49/4/3 52/7/3 53/8/3
f 49/4/3 53/8/3 54/9/3
f 54/9/3 55/10/3 56/11/3
f 54/9/3 56/11/3 57/12/3
f 54/9/3 57/12/3 58/3/3
f 54/9/3 58/3/3 49/4/3
f 59/3/4 60/12/4 61/11/4
f 59/3/4 61/11/4 62/10/4
f 59/3/4 62/10/4 63/9/4
f 64/4/4 59/3/4 63/9/4
f 64/4/4 63/9/4 65/8/4
f 66/5/4 64/4/4 65/8/4
f 66/5/4 65/8/4 67/7/4
f 67/7/4 68/6/4 66/5/4
f 49/4/2 58/3/2 59/2/2 64/1/2
f 58/4/7 57/3/7 60/2/7 59/1/7
f 57/4/8 56/3/8 61/2/8 60/1/8
f 56/4/1 55/3/1 62/2/1 61/1/1
f 55/4/9 54/3/9 63/2/9 62/1/9
f 54/4/1 53/3/1 65/2/1 63/1/1
f 53/4/10 52/3/10 67/2/10 65/1/10
f 52/4/1 51/3/1 68/2/1 67/1/1
f 51/4/11 50/3/11 66/2/11 68/1/11
f 50/4/12 49/3/12 64/2/12 66/1/12
f 69/4/3 70/5/3 71/6/3
f 69/4/3 71/6/3 72/7/3
f 69/4/3 72/7/3 73/8/3
f 69/4/3 73/8/3 74/9/3
f 74/9/3 75/10/3 76/11/3
f 74/9/3 76/11/3 77/12/3
f 74/9/3 77/12/3 78/3/3
f 74/9/3 78/3/3 69/4/3
f 79/3/4 80/12/4 81/11/4
f 79/3/4 81/11/4 82/10/4
f 79/3/4 82/10/4 83/9/4
f 84/4/4 79/3/4 83/9/4
f 84/4/4 83/9/4 85/8/4
f 86/5/4 84/4/4 85/8/4
f 86/5/4 85/8/4 87/7/4
f 87/7/4 88/6/4 86/5/4
f 69/4/2 78/3/2 79/2/2 84/1/2
f 78/4/7 77/3/7 80/2/7 79/1/7
f 77/4/8 76/3/8 81/2/8 80/1/8
f 76/4/1 75/3/1 82/2/1 81/1/1
f 75/4/9 74/3/9 83/2/9 82/1/9
f 74/4/1 73/3/1 85/2/1 83/1/1
f 73/4/10 72/3/10 87/2/10 85/1/10
f 72/4/1 71/3/1 88/2/1 87/1/1
f 71/4/11 70/3/11 86/2/11 88/1/11
f 70/4/12 69/3/12 84/2/12 86/1/12
g fastener_left
usemtl mat
f 89/13/2 90/14/2 91/15/2 92/16/2
f 93/16/3 94/15/3 90/14/3 89/13/3
f 94/16/6 95/15/6 91/14/6 90/13/6
f 95/16/4 96/15/4 92/14/4 91/13/4
f 96/16/5 93/15/5 89/14/5 92/13/5
f 97/17/1 98/18/1 99/19/1 100/20/1
f 100/17/3 99/18/3 101/19/3 102/20/3
f 99/17/6 98/18/6 103/19/6 101/20/6
f 98/17/4 97/18/4 104/19/4 103/20/4
f 97/17/5 100/18/5 102/19/5 104/20/5
f 105/21/1 106/22/1 107/23/1 108/24/1
f 108/21/3 107/22/3 109/23/3 110/24/3
f 107/21/6 106/22/6 111/23/6 109/24/6
f 106/21/4 105/22/4 112/23/4 111/24/4
f 105/21/5 108/22/5 110/23/5 112/24/5
f 113/24/2 114/23/2 115/22/2 116/21/2
f 117/21/1 118/22/1 119/23/1 120/24/1
f 120/21/3 119/22/3 114/23/3 113/24/3
f 119/21/6 118/22/6 115/23/6 114/24/6
f 118/21/4 117/22/4 116/23/4 115/24/4
f 117/21/5 120/22/5 113/23/5 116/24/5
f 121/13/2 122/14/2 123/15/2 124/16/2
f 125/16/1 126/15/1 127/14/1 128/13/1
f 128/16/3 127/15/3 122/14/3 121/13/3
f 127/16/6 126/15/6 123/14/6 122/13/6
f 126/16/4 125/15/4 124/14/4 123/13/4
f 125/16/5 128/15/5 121/14/5 124/13/5
f 129/24/2 130/23/2 131/22/2 132/21/2
f 133/21/1 134/22/1 135/23/1 136/24/1
f 136/21/3 135/22/3 130/23/3 129/24/3
f 135/21/6 134/22/6 131/23/6 130/24/6
f 134/21/4 133/22/4 132/23/4 131/24/4
f 133/21/5 136/22/5 129/23/5 132/24/5
f 137/13/2 138/14/2 139/15/2 140/16/2
f 141/16/1 142/15/1 143/14/1 144/13/1
f 144/16/3 143/15/3 138/14/3 137/13/3
f 143/16/6 142/15/6 139/14/6 138/13/6
f 142/16/4 141/15/4 140/14/4 139/13/4
f 141/16/5 144/15/5 137/14/5 140/13/5
g rail_left
usemtl mat
f 145/25/6 146/26/6 147/27/6 148/28/6
f 146/26/13 149/29/13 150/30/13 147/27/13
f 149/29/14 151/31/14 152/32/14 150/30/14
f 151/31/15 153/33/15 154/34/15 152/32/15
f 153/33/16 155/35/16 156/36/16 154/34/16
f 155/35/6 157/37/6 158/38/6 156/36/6
f 157/37/17 159/39/17 160/40/17 158/38/17
f 159/39/18 161/41/18 162/42/18 160/40/18
f 161/41/19 163/43/19 164/44/19 162/42/19
f 163/43/20 165/45/20 166/46/20 164/44/20
f 165/45/6 167/47/6 168/48/6 166/46/6
f 167/47/21 169/49/21 170/50/21 168/48/21
f 169/51/22 171/52/22 172/53/22 170/54/22
f 171/52/1 173/55/1 174/56/1 172/53/1
f 173/55/23 175/57/23 176/58/23 174/56/23
f 175/49/24 177/47/24 178/48/24 176/50/24
f 177/47/5 179/45/5 180/46/5 178/48/5
f 179/45/25 181/43/25 182/44/25 180/46/25
f 181/43/26 183/41/26 184/42/26 182/44/26
f 183/41/27 185/39/27 186/40/27 184/42/27
f 185/39/28 187/37/28 188/38/28 186/40/28
f 187/37/5 189/35/5 190/36/5 188/38/5
f 189/35/29 191/33/29 192/34/29 190/36/29
f 191/33/30 193/31/30 194/32/30 192/34/30
f 193/31/31 195/29/31 196/30/31 194/32/31
f 195/29/32 197/26/32 198/27/32 196/30/32
f 197/26/5 199/25/5 200/28/5 198/27/5
f 199/25/2 145/59/2 148/60/2 200/28/2
g rail_left_end
usemtl mat
f 145/61/3 199/62/3 197/63/3
f 145/61/3 197/63/3 195/64/3
f 145/61/3 195/64/3 193/65/3
f 145/61/3 193/65/3 191/66/3
f 185/67/3 183/68/3 181/69/3
f 185/67/3 181/69/3 179/70/3
f 185/67/3 179/70/3 177/71/3
f 185/67/3 177/71/3 175/72/3
f 185/67/3 175/72/3 173/73/3
f 187/74/3 185/67/3 173/73/3
f 187/74/3 173/73/3 171/75/3
f 187/74/3 171/75/3 169/76/3
f 187/74/3 169/76/3 167/77/3
f 187/74/3 167/77/3 165/78/3
f 187/74/3 165/78/3 163/79/3
f 163/79/3 161/80/3 159/81/3
f 187/74/3 163/79/3 159/81/3
f 187/74/3 159/81/3 157/82/3
f 189/83/3 187/74/3 157/82/3
f 191/66/3 189/83/3 157/82/3
f 191/66/3 157/82/3 155/84/3
f 191/66/3 155/84/3 153/85/3
f 191/66/3 153/85/3 151/86/3
f 145/61/3 191/66/3 151/86/3
f 145/61/3 151/86/3 149/87/3
f 149/87/3 146/88/3 145/61/3
f 200/62/4 148/61/4 147/88/4
f 200/62/4 147/88/4 150/87/4
f 200/62/4 150/87/4 152/86/4
f 200/62/4 152/86/4 154/85/4
f 160/81/4 162/80/4 164/79/4
f 160/81/4 164/79/4 166/78/4
f 160/81/4 166/78/4 168/77/4
f 160/81/4 168/77/4 170/76/4
f 160/81/4 170/76/4 172/75/4
f 158/82/4 160/81/4 172/75/4
f 158/82/4 172/75/4 174/73/4
f 158/82/4 174/73/4 176/72/4
f 158/82/4 176/72/4 178/71/4
f 158/82/4 178/71/4 180/70/4
f 158/82/4 180/70/4 182/69/4
f 182/69/4 184/68/4 186/67/4
f 158/82/4 182/69/4 186/67/4
f 158/82/4 186/67/4 188/74/4
f 156/84/4 158/82/4 188/74/4
f 154/85/4 156/84/4 188/74/4
f 154/85/4 188/74/4 190/83/4
f 154/85/4 190/83/4 192/66/4
f 154/85/4 192/66/4 194/65/4
f 200/62/4 154/85/4 194/65/4
f 200/62/4 194/65/4 196/64/4
f 196/64/4 198/63/4 200/62/4
g fastener_right
usemtl mat
f 201/13/2 202/14/2 203/15/2 204/16/2
f 205/16/3 206/15/3 202/14/3 201/13/3
f 206/16/6 207/15/6 203/14/6 202/13/6
f 207/16/4 208/15/4 204/14/4 203/13/4
f 208/16/5 205/15/5 201/14/5 204/13/5
f 209/17/1 210/18/1 211/19/1 212/20/1
f 212/17/3 211/18/3 213/19/3 214/20/3
f 211/17/6 210/18/6 215/19/6 213/20/6
f 210/17/4 209/18/4 216/19/4 215/20/4
f 209/17/5 212/18/5 214/19/5 216/20/5
f 217/21/1 218/22/1 219/23/1 220/24/1
f 220/21/3 219/22/3 221/23/3 222/24/3
f 219/21/6 218/22/6 223/23/6 221/24/6
f 218/21/4 217/22/4 224/23/4 223/24/4
f 217/21/5 220/22/5 222/23/5 224/24/5
f 225/24/2 226/23/2 227/22/2 228/21/2
f 229/21/1 230/22/1 231/23/1 232/24/1
f 232/21/3 231/22/3 226/23/3 225/24/3
f 231/21/6 230/22/6 227/23/6 226/24/6
f 230/21/4 229/22/4 228/23/4 227/24/4
f 229/21/5 232/22/5 225/23/5 228/24/5
f 233/13/2 234/14/2 235/15/2 236/16/2
f 237/16/1 238/15/1 239/14/1 240/13/1
f 240/16/3 239/15/3 234/14/3 233/13/3
f 239/16/6 238/15/6 235/14/6 234/13/6
f 238/16/4 237/15/4 236/14/4 235/13/4
f 237/16/5 240/15/5 233/14/5 236/13/5
f 241/24/2 242/23/2 243/22/2 244/21/2
f 245/21/1 246/22/1 247/23/1 248/24/1
f 248/21/3 247/22/3 242/23/3 241/24/3
f 247/21/6 246/22/6 243/23/6 242/24/6
f 246/21/4 245/22/4 244/23/4 243/24/4
f 245/21/5 248/22/5 241/23/5 244/24/5
f 249/13/2 250/14/2 251/15/2 252/16/2
f 253/16/1 254/15/1 255/14/1 256/13/1
f 256/16/3 255/15/3 250/14/3 249/13/3
f 255/16/6 254/15/6 251/14/6 250/13/6
f 254/16/4 253/15/4 252/14/4 251/13/4
f 253/16/5 256/15/5 249/14/5 252/13/5
g rail_right
usemtl mat
f 257/25/6 258/26/6 259/27/6 260/28/6
f 258/26/13 261/29/13 262/30/13 259/27/13
f 261/29/14 263/31/14 264/32/14 262/30/14
f 263/31/15 265/33/15 266/34/15 264/32/15
f 265/33/16 267/35/16 268/36/16 266/34/16
f 267/35/6 269/37/6 270/38/6 268/36/6
f 269/37/17 271/39/17 272/40/17 270/38/17
f 271/39/18 273/41/18 274/42/18 272/40/18
f 273/41/19 275/43/19 276/44/19 274/42/19
f 275/43/20 277/45/20 278/46/20 276/44/20
f 277/45/6 279/47/6 280/48/6 278/46/6
f 279/47/21 281/49/21 282/50/21 280/48/21
f 281/51/22 283/52/22 284/53/22 282/54/22
f 283/52/1 285/55/1 286/56/1 284/53/1
f 285/55/23 287/57/23 288/58/23 286/56/23
f 287/49/24 289/47/24 290/48/24 288/50/24
f 289/47/5 291/45/5 292/46/5 290/48/5
f 291/45/25 293/43/25 294/44/25 292/46/25
f 293/43/26 295/41/26 296/42/26 294/44/26
f 295/41/27 297/39/27 298/40/27 296/42/27
f 297/39/28 299/37/28 300/38/28 298/40/28
f 299/37/5 301/35/5 302/36/5 300/38/5
f 301/35/29 303/33/29 304/34/29 302/36/29
f 303/33/30 305/31/30 306/32/30 304/34/30
f 305/31/31 307/29/31 308/30/31 306/32/31
f 307/29/32 309/26/32 310/27/32 308/30/32
f 309/26/5 311/25/5 312/28/5 310/27/5
f 311/25/2 257/59/2 260/60/2 312/28/2
g rail_right_end
usemtl mat
f 257/61/3 311/62/3 309/63/3
f 257/61/3 309/63/3 307/64/3
f 257/61/3 307/64/3 305/65/3
f 257/61/3 305/65/3 303/66/3
f 297/67/3 295/68/3 293/69/3
f 297/67/3 293/69/3 291/70/3
f 297/67/3 291/70/3 289/71/3
f 297/67/3 289/71/3 287/72/3
f 297/67/3 287/72/3 285/73/3
f 299/74/3 297/67/3 285/73/3
f 299/74/3 285/73/3 283/75/3
f 299/74/3 283/75/3 281/76/3
f 299/74/3 281/76/3 279/77/3
f 299/74/3 279/77/3 277/78/3
f 299/74/3 277/78/3 275/79/3
f 275/79/3 273/80/3 271/81/3
f 299/74/3 275/79/3 271/81/3
f 299/74/3 271/81/3 269/82/3
f 301/83/3 299/74/3 269/82/3
f 303/66/3 301/83/3 269/82/3
f 303/66/3 269/82/3 267/84/3
f 303/66/3 267/84/3 265/85/3
f 303/66/3 265/85/3 263/86/3
f 257/61/3 303/66/3 263/86/3
f 257/61/3 263/86/3 261/87/3
f 261/87/3 258/88/3 257/61/3
f 312/62/4 260/61/4 259/88/4
f 312/62/4 259/88/4 262/87/4
f 312/62/4 262/87/4 264/86/4
f 312/62/4 264/86/4 266/85/4
f 272/81/4 274/80/4 276/79/4
f 272/81/4 276/79/4 278/78/4
f 272/81/4 278/78/4 280/77/4
f 272/81/4 280/77/4 282/76/4
f 272/81/4 282/76/4 284/75/4
f 270/82/4 272/81/4 284/75/4
f 270/82/4 284/75/4 286/73/4
f 270/82/4 286/73/4 288/72/4
f 270/82/4 288/72/4 290/71/4
f 270/82/4 290/71/4 292/70/4
f 270/82/4 292/70/4 294/69/4
f 294/69/4 296/68/4 298/67/4
f 270/82/4 294/69/4 298/67/4
f 270/82/4 298/67/4 300/74/4
f 268/84/4 270/82/4 300/74/4
f 266/85/4 268/84/4 300/74/4
f 266/85/4 300/74/4 302/83/4
f 266/85/4 302/83/4 304/66/4
f 266/85/4 304/66/4 306/65/4
f 312/62/4 266/85/4 306/65/4
f 312/62/4 306/65/4 308/64/4
f 308/64/4 310/63/4 312/62/4
